<?xml version="1.0" standalone="no"?>
<!DOCTYPE svg PUBLIC "-//W3C//DTD SVG 1.1//EN" "http://www.w3.org/Graphics/SVG/1.1/DTD/svg11.dtd" >
<svg xmlns="http://www.w3.org/2000/svg">
<metadata></metadata>
<defs>
<font id="sfu_ergoeregular" horiz-adv-x="1046" >
<font-face units-per-em="2048" ascent="1638" descent="-410" />
<missing-glyph horiz-adv-x="580" />
<glyph horiz-adv-x="580" />
<glyph unicode="&#xd;" horiz-adv-x="580" />
<glyph unicode=" "  horiz-adv-x="580" />
<glyph unicode="&#x09;" horiz-adv-x="580" />
<glyph unicode="&#xa0;" horiz-adv-x="580" />
<glyph unicode="!" horiz-adv-x="436" d="M146 0v146h161v-146h-161zM163 259v1094h127v-1094h-127z" />
<glyph unicode="&#x22;" horiz-adv-x="678" d="M129 1031v322h130v-322h-130zM403 1031v322h129v-322h-129z" />
<glyph unicode="#" horiz-adv-x="1417" d="M146 436v934h144v-919q0 -189 117 -290q111 -98 301 -98q451 0 451 388v919h144q9 26 13 48q0 30 -30 55q-31 20 -94 20q26 22 94 23q61 0 87 -15q52 -22 52 -80q0 -68 -81 -149l-39 -10v-811q0 -270 -172 -386q-142 -98 -425 -98q-248 0 -396 107q-166 124 -166 362z M591 -224l117 117l102 -104l-115 -114z" />
<glyph unicode="$" horiz-adv-x="1158" d="M177 192q115 -50 202 -76q122 -20 146 -20q107 0 172 58.5t65 163.5q0 109 -148 237l-274 234q-148 128 -148 259q0 120 87 211q81 87 203 111v179h130v-179q91 0 209 -47l14 -112q-165 46 -269 46q-224 0 -224 -179q0 -129 146 -255l272 -233q146 -126 146 -291 q0 -216 -294 -299v-177h-130v177q-54 2 -153 17q-57 9 -137 46z" />
<glyph unicode="%" horiz-adv-x="1691" d="M79 967q0 189 52 286q68 133 241 133q306 1 306 -419q0 -484 -306 -485q-292 0 -293 485zM192 967q0 -401 180 -401q140 0 184 271q10 58 10 130q0 118 -37 212q-50 128 -150 128q-89 0 -131 -72q-55 -92 -56 -268zM386 0l773 1370h113l-773 -1370h-113zM1004 442 q0 190 50 286q68 133 240 133q307 1 307 -419q0 -482 -307 -483q-177 0 -246 165q-44 107 -44 318zM1116 442q0 -152 41 -296q30 -105 137 -105q105 0 159 157q37 109 37 244q0 118 -37 212q-50 128 -150 128q-89 0 -131 -70q-55 -92 -56 -270z" />
<glyph unicode="&#x26;" horiz-adv-x="1367" d="M115 346q0 220 321 395q-146 177 -146 340q0 139 133 217q111 67 259 66q89 0 203 -24l32 -115q-137 44 -237 45q-111 0 -179 -46q-81 -55 -81 -161q0 -157 146 -305l464 -468q65 126 64 276h115v-28q0 -87 -11 -144q-18 -94 -72 -185l242 -209h-159l-163 129 q-67 -81 -205 -123q-113 -35 -240 -36q-198 0 -331 87q-155 100 -155 289zM246 331q0 -118 122 -202q111 -76 235 -75q102 0 199 38q106 43 163 117l-449 453q-105 -43 -183 -130q-87 -98 -87 -201z" />
<glyph unicode="'" horiz-adv-x="402" d="M63 1017l100 323h175l-192 -323h-83z" />
<glyph unicode="(" horiz-adv-x="580" d="M176 455q0 449 146 898h98q-122 -449 -122 -891q0 -240 38 -523q25 -177 84 -390h-98q-146 468 -146 906z" />
<glyph unicode=")" horiz-adv-x="580" d="M163 -451q115 375 114 874q0 347 -63 690q-20 111 -51 227h96q68 -209 114 -505q28 -177 28 -382q0 -355 -83 -697q-18 -78 -59 -207h-96z" />
<glyph unicode="*" horiz-adv-x="1062" d="M177 1081l49 96l273 -129l-31 305h112l-14 -288l269 112l34 -96l-289 -81l209 -226l-81 -66l-176 244l-194 -244l-64 66l194 226z" />
<glyph unicode="+" horiz-adv-x="1158" d="M79 451v115h453v451h113v-451h449v-115h-449v-451h-113v451h-453z" />
<glyph unicode="," horiz-adv-x="580" d="M79 -209l98 355h195l-195 -355h-98z" />
<glyph unicode="-" horiz-adv-x="499" d="M17 468v98h499v-98h-499z" />
<glyph unicode="." horiz-adv-x="580" d="M209 0v146h163v-146h-163z" />
<glyph unicode="/" horiz-adv-x="820" d="M17 0l661 1370h143l-675 -1370h-129z" />
<glyph unicode="0" horiz-adv-x="1158" d="M96 708q0 270 98 458q124 237 372 237q259 0 382 -246q98 -194 98 -479q0 -401 -179 -595q-107 -116 -301 -116q-285 0 -394 244q-76 170 -76 497zM226 708q0 -242 51 -401q81 -244 272 -244q165 0 246 120q107 159 107 542q0 222 -61 371q-87 211 -275 211 q-176 0 -270 -224q-70 -168 -70 -375z" />
<glyph unicode="1" horiz-adv-x="1158" d="M403 1177v130l129 79h130v-1386h-146v1257z" />
<glyph unicode="2" horiz-adv-x="1158" d="M129 0v113l437 482q285 314 284 484q0 116 -118 172q-89 43 -218 43q-81 0 -181 -15q-65 -9 -187 -39l17 100q181 52 349 52q192 0 318 -54q176 -75 176 -240q0 -83 -50 -187q-43 -89 -167 -233l-499 -582h691v-96h-852z" />
<glyph unicode="3" horiz-adv-x="1158" d="M113 146q174 -72 345 -72q165 0 278 68q135 81 135 237q0 148 -141 220q-115 59 -275 52l-117 -6v113q482 0 483 259q0 275 -348 275q-78 0 -168 -11q-24 -4 -128 -24l15 96q129 37 281 37q200 0 329 -68q166 -87 167 -268q0 -264 -291 -346q153 -30 261 -113 q74 -57 74 -240q0 -194 -170 -298q-144 -89 -349 -88q-177 0 -365 64z" />
<glyph unicode="4" horiz-adv-x="1158" d="M129 482v130l516 741h176v-773h225v-98h-225v-482h-126v482h-566zM226 580h469v677z" />
<glyph unicode="5" horiz-adv-x="1158" d="M129 113q177 -52 311 -52q174 0 283 74q129 87 129 251q0 320 -394 303l-133 -5q-65 -2 -148 -22l32 691h741v-96h-612l-31 -483l172 6q519 16 519 -394q0 -226 -187 -336q-153 -92 -393 -93q-116 0 -218 25q-31 7 -54 18z" />
<glyph unicode="6" horiz-adv-x="1158" d="M126 421q0 299 216 610l224 322h142l-170 -251q-281 -416 -281 -699q0 -155 76 -244q81 -96 233 -96q146 0 241 82t95 227q0 155 -67 238q-78 96 -227 83l-107 -9l-81 -6l48 96q89 17 146 17q201 0 316.5 -109.5t115.5 -309.5q0 -203 -153 -311q-133 -94 -344 -94 q-201 0 -316 127q-107 122 -107 327z" />
<glyph unicode="7" horiz-adv-x="1158" d="M177 1274v96h804v-113l-513 -1257h-161l545 1274h-675z" />
<glyph unicode="8" horiz-adv-x="1158" d="M96 338q0 150 65 233t211 124q-242 98 -243 336q0 176 135 270q120 85 302 85q177 0 295 -79q139 -92 139 -261q0 -255 -242 -351q157 -22 225 -111q63 -83 63 -246q0 -120 -71 -207.5t-189 -130.5q-92 -33 -220 -33q-244 0 -370 131q-100 104 -100 240zM226 338 q0 -122 112 -201q102 -74 228 -74q148 0 245 79q106 86 106 230q0 257 -351 256q-168 0 -248 -59q-92 -68 -92 -231zM274 1000q0 -133 78.5 -204t213.5 -71q211 0 282 164q24 55 23 105l-2 37q-22 137 -87 198t-202 61q-307 0 -306 -290z" />
<glyph unicode="9" horiz-adv-x="1158" d="M111 994q-7 170 150 294q146 115 319 115q214 0 332 -111.5t118 -324.5q0 -194 -139 -505q-118 -262 -263 -462h-177l189 270q104 148 190 355q72 172 72 310q0 155 -74 257q-83 115 -233 115q-140 0 -238 -91.5t-98 -232.5q0 -144 92 -220q85 -70 233 -70q104 0 205 32 l-48 -113q-94 -20 -185 -21q-429 0 -443 361z" />
<glyph unicode=":" horiz-adv-x="580" d="M192 0v146h163v-146h-163zM192 854v146h163v-146h-163z" />
<glyph unicode=";" horiz-adv-x="580" d="M79 -209l98 338h178l-178 -338h-98zM209 854v163h146v-163h-146z" />
<glyph unicode="&#x3c;" horiz-adv-x="972" d="M63 420v160l778 437v-146l-678 -372l678 -386v-146z" />
<glyph unicode="=" horiz-adv-x="1158" d="M63 235v129h1016v-129h-1016zM63 612v129h1016v-129h-1016z" />
<glyph unicode="&#x3e;" horiz-adv-x="988" d="M79 -17v146l683 387l-683 419v146l795 -469v-176z" />
<glyph unicode="?" horiz-adv-x="933" d="M50 1274l13 112q157 35 314 35q200 0 359 -85q99 -54 99 -207q0 -137 -90 -245l-170 -206q-92 -111 -93 -210v-226h-127v274q0 54 176.5 287.5t176.5 309.5q0 211 -322 210q-152 0 -336 -49zM338 0v146h161v-146h-161z" />
<glyph unicode="@" horiz-adv-x="1417" d="M146 436v934h144v-919q0 -189 117 -290q111 -98 301 -98q451 0 451 388v919h146v-919q0 -270 -172 -386q-142 -98 -425 -98q-248 0 -396 107q-166 124 -166 362zM717 1371v74l165 165h164z" />
<glyph unicode="A" horiz-adv-x="1192" d="M-79 0l645 1370h175l547 -1370h-162l-241 645h-530l-276 -645h-158zM386 741h466l-207 533z" />
<glyph unicode="B" horiz-adv-x="1158" d="M163 0v1370h465q205 0 337 -117q81 -72 81 -236q0 -220 -257 -309q148 0 231 -115q74 -102 74 -255q0 -338 -514 -338h-417zM307 96h305q338 1 338 276q0 139 -103 218q-92 72 -235 72h-305v-566zM307 758h225q370 0 370 259q0 144 -65 203q-61 54 -209 54h-321v-516z " />
<glyph unicode="C" horiz-adv-x="1255" d="M96 678q0 353 192 533q186 175 538 175h4q155 0 329 -33l33 -142q-200 59 -373 59q-281 0 -429 -154.5t-148 -437.5q0 -288 148 -451q153 -170 438 -170q135 0 283 41q35 9 98 31l-17 -129q-194 -44 -362 -44q-349 0 -541.5 186.5t-192.5 535.5z" />
<glyph unicode="D" horiz-adv-x="1465" d="M177 0v1370h597q309 0 468 -169t159 -480q0 -388 -264 -590q-172 -131 -492 -131h-468zM307 113h321q627 0 627 612q0 281 -125.5 415t-404.5 134h-418v-1161z" />
<glyph unicode="E" horiz-adv-x="1094" d="M163 0v1370h835v-96h-691v-533h626v-96h-626v-549h674v-96h-818z" />
<glyph unicode="F" d="M146 0v1370h804v-96h-660v-533h595v-96h-595v-645h-144z" />
<glyph unicode="G" horiz-adv-x="1497" d="M79 628q0 771 771 771q205 0 422 -46l16 -128q-255 70 -451 71q-298 0 -463 -160t-165 -458q0 -290 159 -453.5t449 -163.5q179 0 392 68v533h-324v96h466v-725q-286 -68 -523 -68q-336 0 -534 161q-214 174 -215 502z" />
<glyph unicode="H" horiz-adv-x="1449" d="M146 0v1370h144v-612h852v612h146v-1370h-146v662h-852v-662h-144z" />
<glyph unicode="I" horiz-adv-x="451" d="M146 0v1370h144v-1370h-144z" />
<glyph unicode="J" horiz-adv-x="724" d="M-79 113l144 -35l133 -15q253 0 253 259v1048h144v-1048q0 -179 -100.5 -273.5t-281.5 -94.5q-67 0 -141 11q-48 7 -135 35z" />
<glyph unicode="K" horiz-adv-x="1062" d="M146 0v1370h144v-1370h-144zM290 725l545 645h163l-562 -629l658 -741h-177z" />
<glyph unicode="L" horiz-adv-x="916" d="M146 0v1370h144v-1274h660v-96h-804z" />
<glyph unicode="M" horiz-adv-x="1674" d="M129 0v1370h193l499 -1224l501 1224h208v-1370h-129v1211l-499 -1211h-144l-499 1211v-1211h-130z" />
<glyph unicode="N" horiz-adv-x="1497" d="M146 0v1370h176l887 -1224v1224h129v-1370h-179l-885 1211v-1211h-128z" />
<glyph unicode="O" horiz-adv-x="1609" d="M96 725q0 305 222 489q207 172 517 172q323 0 514 -175q198 -181 198 -503q0 -396 -259 -610q-159 -131 -453 -131q-357 0 -548 199.5t-191 558.5zM226 645q0 -257 160.5 -411.5t417.5 -154.5q286 0 441.5 156.5t155.5 442.5q0 275 -153.5 435.5t-426.5 160.5 q-281 0 -438 -173t-157 -456z" />
<glyph unicode="P" d="M163 0v1370h465q181 0 287 -85q115 -91 115 -268q0 -189 -159 -285q-133 -81 -333 -81h-30q-18 0 -70 5l-52 6l-31 96q65 -13 127 -13q170 0 274 57q133 72 133 229q0 113 -94 174q-79 52 -200 52h-288v-1257h-144z" />
<glyph unicode="Q" horiz-adv-x="1609" d="M79 708q0 497 407 636q174 59 349 59q320 0 507.5 -187.5t187.5 -507.5q0 -438 -321 -612q131 0 296 65l42 16l-33 -144l-242 -26q-72 0 -218 -12t-219 -12q-342 0 -545 191q-211 194 -211 534zM226 708q0 -246 149 -423q157 -189 399 -189q277 0 443.5 167.5 t166.5 444.5q0 270 -147.5 426t-415.5 156q-288 0 -441.5 -148t-153.5 -434z" />
<glyph unicode="R" horiz-adv-x="1079" d="M146 0v1370h499q155 0 261.5 -92.5t106.5 -246.5q0 -165 -110 -270t-275 -105l-62 6l464 -662h-178l-480 725l86 -2h25q385 0 386 277q0 131 -78 202.5t-211 71.5h-290v-1274h-144z" />
<glyph unicode="S" horiz-adv-x="933" d="M61 1094q0 290 414 290q153 0 266 -31l17 -113q-159 44 -287 45q-104 0 -177 -48q-87 -55 -87 -154q0 -142 161 -266l303 -235q164 -128 164 -305q0 -137 -110 -225q-104 -85 -243 -85q-277 0 -403 66l-16 130q165 -92 358 -93q274 0 274 237q0 100 -120 199l-205 171 q-172 142 -204 177q-105 116 -105 240z" />
<glyph unicode="T" horiz-adv-x="964" d="M-17 1274v96h998v-96h-432v-1274h-146v1274h-420z" />
<glyph unicode="U" horiz-adv-x="1417" d="M146 436v934h144v-919q0 -189 117 -290q111 -98 301 -98q451 0 451 388v919h146v-919q0 -270 -172 -386q-142 -98 -425 -98q-248 0 -396 107q-166 124 -166 362z" />
<glyph unicode="V" horiz-adv-x="1271" d="M-33 1370h146l482 -1274l581 1274h146l-644 -1370h-162z" />
<glyph unicode="W" horiz-adv-x="1900" d="M-33 1370h146l419 -1241l337 742l-191 499h143l112 -339l161 339h144l-240 -499l274 -742l499 1241h146l-566 -1370h-159l-259 708l-321 -708h-161z" />
<glyph unicode="X" horiz-adv-x="1125" d="M-33 0l515 708l-465 662h160l403 -547l401 547h161l-497 -662l514 -708h-178l-415 612l-437 -612h-162z" />
<glyph unicode="Y" horiz-adv-x="1012" d="M-50 1370h163l369 -645l387 645h161l-481 -758v-612h-146v612z" />
<glyph unicode="Z" horiz-adv-x="1125" d="M63 0v129l822 1145h-789v96h934v-130l-821 -1144h804v-96h-950z" />
<glyph unicode="[" horiz-adv-x="580" d="M226 -451v1821h273v-80h-144v-1662h144v-79h-273z" />
<glyph unicode="\" horiz-adv-x="1417" d="M146 436v934h144v-919q0 -189 117 -290q111 -98 301 -98q451 0 451 388v919h144q9 26 13 48q0 30 -30 55q-31 20 -94 20q26 22 94 23q61 0 87 -15q52 -22 52 -80q0 -68 -81 -149l-39 -10v-811q0 -270 -172 -386q-142 -98 -425 -98q-248 0 -396 107q-166 124 -166 362z M388 1608h165l164 -164v-74z" />
<glyph unicode="]" horiz-adv-x="580" d="M113 -372h129v1662h-129v80h259v-1821h-259v79z" />
<glyph unicode="^" horiz-adv-x="1417" d="M146 436v934h144v-919q0 -189 117 -290q111 -98 301 -98q451 0 451 388v919h144q9 26 13 48q0 30 -30 55q-31 20 -94 20q26 22 94 23q61 0 87 -15q52 -22 52 -80q0 -68 -81 -149l-39 -10v-811q0 -270 -172 -386q-142 -98 -425 -98q-248 0 -396 107q-166 124 -166 362z M562 1582l39 98l127 28q24 -2 74 -20q41 -28 41 -60q2 -6 2 -11v-9q0 -24 -21 -55q-20 -24 -64 -113l-37 -22l-6 -67l-57 80q0 4 74 101q31 41 31 67q0 63 -85 63q-28 0 -67.5 -27t-50.5 -53z" />
<glyph unicode="_" horiz-adv-x="1012" d="M0 -205h1018v-102h-1018v102z" />
<glyph unicode="`" horiz-adv-x="1417" d="M146 436v934h144v-919q0 -189 117 -290q111 -98 301 -98q451 0 451 388v919h144q9 26 13 48q0 30 -30 55q-31 20 -94 20q26 22 94 23q61 0 87 -15q52 -22 52 -80q0 -68 -81 -149l-39 -10v-811q0 -270 -172 -386q-142 -98 -425 -98q-248 0 -396 107q-166 124 -166 362z M717 1371v74l165 165h164z" />
<glyph unicode="a" d="M63 242q0 170 190 257l359 107q192 57 192 168q0 163 -274 163q-192 0 -353 -66l15 112q177 46 327 47q414 0 414 -256v-774h-129v595q-61 -44 -238 -98q-187 -55 -252 -94q-122 -74 -122 -194q0 -109 163 -142q46 -9 100 -10q115 0 223 39l-16 -96q-105 -37 -244 -37 q-152 0 -246 63q-109 72 -109 216z" />
<glyph unicode="b" horiz-adv-x="1158" d="M146 0v1370h128v-387q153 61 327 61q253 0 381.5 -136.5t128.5 -391.5q0 -231 -105 -374q-117 -160 -339 -160h-3q-116 0 -220 49q-113 54 -170 146v-177h-128zM274 468q0 -168 92 -276q96 -113 262 -113q353 1 353 487q0 279 -238 360q-76 26 -174 26q-126 0 -295 -48 v-436z" />
<glyph unicode="c" horiz-adv-x="950" d="M79 516q0 528 507 528h2h74q37 -6 98 -14q37 -4 75 -13l17 -130q-137 61 -268 61q-192 0 -288 -124q-87 -111 -87 -308q0 -196 89 -313q97 -127 285 -127h3h4q120 0 262 53l-31 -129q-105 -20 -217 -20q-525 0 -525 536z" />
<glyph unicode="d" horiz-adv-x="1192" d="M79 499q0 261 176 409q162 138 425 138h4h55q67 0 163 -29v353h128v-1370h-128v192q-92 -225 -368 -225h-2q-220 0 -342 161q-111 144 -111 371zM207 492q0 -181 111 -335q68 -94 214 -94q163 0 266.5 111.5t103.5 276.5v468q-31 11 -91 22l-116 7q-20 1 -39 1 q-188 -1 -312 -117q-138 -128 -137 -340z" />
<glyph unicode="e" d="M79 516q0 235 124 379q131 153 363 153q176 0 303 -122q117 -113 117 -271q0 -14 -1 -28l-4 -61h-772q0 -501 394 -501q104 0 227 35q26 7 87 29l-15 -112q-165 -48 -298 -48q-255 0 -391 147q-133 142 -134 400zM226 645h626q0 137 -66 218q-72 89 -206 89 q-165 0 -246 -71t-108 -236z" />
<glyph unicode="f" horiz-adv-x="548" d="M33 919v98h130v160q0 224 288 224h41q20 0 40 -4q46 0 80 -11l16 -96q-87 22 -159 22q-196 0 -195 -151v-144h292v-98h-292v-919h-111v919h-130z" />
<glyph unicode="g" horiz-adv-x="1221" d="M113 451q0 298 179 447q166 140 470 141q91 0 164 -11q98 -7 185 -28v-1079q0 -165 -68.5 -255.5t-227.5 -133.5q-83 -22 -187 -22q-189 0 -386 54v114q153 -48 287 -64q44 -6 92 -6q360 0 360 342v259q-107 -242 -415 -242q-209 0 -333 138q-120 133 -120 346zM242 482 q0 -176 89 -293q98 -131 268 -132q177 0 285 135q97 126 97 307v405q-129 37 -238 37q-222 0 -357 -117q-144 -124 -144 -342z" />
<glyph unicode="h" horiz-adv-x="1192" d="M146 0v1370h113v-547q63 109 179 170q109 57 240 57q150 0 265 -70q137 -81 136 -222v-758h-129v741q0 100 -103 155q-87 48 -195 49q-126 0 -247 -95q-131 -100 -131 -222v-628h-128z" />
<glyph unicode="i" horiz-adv-x="419" d="M129 1109v129h161v-129h-161zM146 0v1017h128v-1017h-128z" />
<glyph unicode="j" horiz-adv-x="467" d="M-274 -338q148 -44 235 -45q231 0 231 254v1146h130v-1095q0 -177 -80 -284q-84 -117 -242 -117h-18l-115 6q-46 2 -141 22v113zM174 1107v130h161v-130h-161z" />
<glyph unicode="k" horiz-adv-x="902" d="M163 0v1370h111v-1370h-111zM274 580l421 437h157l-432 -437l513 -580h-159z" />
<glyph unicode="l" horiz-adv-x="419" d="M163 0v1370h111v-1370h-111z" />
<glyph unicode="m" horiz-adv-x="1724" d="M146 0v1017h128v-163q37 87 136 133q85 41 189 41q238 0 318 -191q48 92 155 144q98 48 209 49q131 0 216 -61q98 -68 98 -195v-774h-129v758q0 79 -74 126q-61 38 -142 38h-4q-131 0 -218 -72q-94 -78 -95 -205v-645h-129v741q0 85 -65 133q-57 44 -146 45 q-133 0 -223 -78q-96 -83 -96 -213v-628h-128z" />
<glyph unicode="n" horiz-adv-x="1192" d="M146 0v1017h128v-209q26 118 164 179q111 50 250 50q152 0 260 -63q131 -74 131 -216v-758h-129v725q0 104 -105 166q-89 55 -200 55q-176 0 -273.5 -110t-97.5 -287v-549h-128z" />
<glyph unicode="o" horiz-adv-x="1175" d="M79 488q0 233 134 384q139 159 367 159q229 0 370 -159q137 -151 137 -382q0 -226 -131 -372q-136 -151 -358 -151h-3q-231 0 -373.5 144t-142.5 377zM207 518q0 -179 104 -311q111 -144 284 -144q179 0 285 116q101 111 101 292q0 190 -103 322q-111 142 -298 142 q-176 0 -277 -124q-96 -115 -96 -293z" />
<glyph unicode="p" horiz-adv-x="1175" d="M146 -451v1418l126 27q142 31 279 32q275 0 402.5 -131.5t127.5 -408.5q0 -227 -112 -366q-120 -150 -344 -150q-126 0 -224 61l-142 132v-614h-113zM259 468q0 -166 96 -289q104 -129 266 -129q179 0 270 161q74 129 74 323q0 201 -117.5 305t-320.5 104q-67 0 -172 -32 q-26 -7 -96 -40v-403z" />
<glyph unicode="q" horiz-adv-x="1175" d="M96 468q0 288 185 434q166 133 462 133q152 0 303 -35v-1420h-129v612q-33 -105 -141 -162q-94 -52 -214 -52q-213 0 -340 140q-126 135 -126 350zM220 482q0 -176 92 -286q98 -120 270 -120q166 0 255 124q80 108 80 282v437l-128 16q-85 11 -100 11q-205 0 -337 -130 t-132 -334z" />
<glyph unicode="r" horiz-adv-x="678" d="M146 0v1017h128v-180q48 89 127 143q85 61 179 61q37 0 65 -10l17 -112q-25 16 -66 16h-5q-133 0 -225 -102.5t-92 -237.5v-595h-128z" />
<glyph unicode="s" horiz-adv-x="774" d="M63 129q140 -59 297 -59q78 0 137 34q72 41 72 112q0 65 -122 167l-231 192q-122 126 -122 244q0 146 209 192q57 13 137 13q102 0 205 -24l17 -113l-113 28q-61 15 -126 15q-197 0 -197 -154q0 -61 120 -153l227 -176q126 -97 126 -221q0 -250 -346 -250q-159 0 -274 41 z" />
<glyph unicode="t" horiz-adv-x="595" d="M50 919v98h127l4 212l126 -4v-208h288v-98h-288v-710q0 -68 37 -109q37 -31 98 -32q81 0 170 45v-80q-22 -55 -191 -55q-91 0 -157 31q-87 41 -87 120v790h-127z" />
<glyph unicode="u" horiz-adv-x="1192" d="M113 322v695h129v-679q0 -115 72 -195t185 -80q161 0 289.5 108t128.5 265v581h129v-1017h-129v192q-26 -105 -187 -177q-133 -59 -261 -59q-174 0 -265 96t-91 270z" />
<glyph unicode="v" horiz-adv-x="950" d="M-17 1017h130l355 -921l353 921h129l-401 -1017h-163z" />
<glyph unicode="w" horiz-adv-x="1674" d="M-17 1017h130l355 -921l306 921h128l274 -921l354 921h145l-437 -1017h-144l-259 887l-303 -887h-146z" />
<glyph unicode="x" horiz-adv-x="916" d="M17 0l369 549l-323 468h163l225 -389l257 389h144l-336 -468l386 -549h-144l-307 451l-305 -451h-129z" />
<glyph unicode="y" horiz-adv-x="950" d="M-79 -338q87 -61 160 -61q113 0 198 131q39 61 107 235l-403 1050h146l339 -921l353 921h144l-514 -1226q-126 -297 -349 -297h-2q-74 0 -163 38z" />
<glyph unicode="z" horiz-adv-x="868" d="M79 0v113l616 806h-582v98h691v-130l-595 -791h580v-96h-710z" />
<glyph unicode="{" horiz-adv-x="680" d="M59 580q150 22 150 189v482q0 140 386 141v-24q-72 0 -127 -22q-76 -30 -82 -91v-492q0 -79 -122 -188q122 -91 122 -202v-462q0 -57 61 -88q46 -24 111 -24h30v-30q-37 -7 -70 -7q-100 0 -183 33q-113 44 -113 127l-2 438q0 176 -161 220z" />
<glyph unicode="|" horiz-adv-x="1417" d="M146 436v934h144v-919q0 -189 117 -290q111 -98 301 -98q451 0 451 388v919h146v-919q0 -270 -172 -386q-142 -98 -425 -98q-248 0 -396 107q-166 124 -166 362zM591 -224l117 117l102 -104l-115 -114z" />
<glyph unicode="}" horiz-adv-x="680" d="M55 1364v28q37 7 91 7q290 0 290 -203v-407q0 -165 155 -209q-74 -11 -116 -62.5t-42 -125.5v-468q0 -159 -296 -159h-39l-35 4l-4 30q78 0 133 29q70 37 70 107l-1 464q0 118 208 181q-76 17 -133 61q-72 55 -72 122v429q0 172 -209 172z" />
<glyph unicode="~" horiz-adv-x="1417" d="M146 436v934h144v-919q0 -189 117 -290q111 -98 301 -98q451 0 451 388v919h144q9 26 13 48q0 30 -30 55q-31 20 -94 20q26 22 94 23q61 0 87 -15q52 -22 52 -80q0 -68 -81 -149l-39 -10v-811q0 -270 -172 -386q-142 -98 -425 -98q-248 0 -396 107q-166 124 -166 362z M475 1388l33 105q28 61 98 61q55 7 111 -40q79 -57 115 -57q15 0 24 22l7 74l93 7q-20 -116 -85 -152q-30 -17 -54 -16q-55 -6 -109 42q-67 59 -102 59q-37 0 -40 -55l-4 -44z" />
<glyph horiz-adv-x="920" d="M-76 482l39 87h104q6 46 22 135h-122l39 89h109q76 207 199 338q153 163 346 163q174 0 305 -124l-43 -288l-88 11q0 290 -174 290q-190 0 -298 -390h318l-39 -89h-303q-11 -44 -29 -135h271l-38 -87h-248q-11 -76 -11 -136q0 -248 183 -248q107 0 186 126q44 70 95 220 l101 -19l-99 -347q-142 -98 -294 -98q-205 0 -307 155q-87 131 -87 347h-137z" />
<glyph unicode="&#xa1;" horiz-adv-x="1192" d="M-79 0l645 1370h175l547 -1370h-162l-241 645h-530l-276 -645h-158zM115 1732h164l165 -165v-74zM386 741h466l-207 533zM421 1388l170 185h111l169 -185h-78l-146 105l-148 -105h-78z" />
<glyph unicode="&#xa2;" horiz-adv-x="1192" d="M-79 0l645 1370h175l547 -1370h-162l-241 645h-530l-276 -645h-158zM386 741h466l-207 533zM421 1388l170 185h111l169 -185h-78l-146 105l-148 -105h-78z" />
<glyph unicode="&#xa3;" horiz-adv-x="1094" d="M163 0v1370h835v-96h-691v-533h626v-96h-626v-549h674v-96h-818zM346 1407l170 184h111l168 -184h-78l-146 105l-148 -105h-77z" />
<glyph unicode="&#xa4;" horiz-adv-x="1609" d="M96 725q0 305 222 489q207 172 517 172q323 0 514 -175q198 -181 198 -503q0 -396 -259 -610q-159 -131 -453 -131q-357 0 -548 199.5t-191 558.5zM226 645q0 -257 160.5 -411.5t417.5 -154.5q286 0 441.5 156.5t155.5 442.5q0 275 -153.5 435.5t-426.5 160.5 q-281 0 -438 -173t-157 -456zM303 1752h165l164 -164v-74zM610 1408l170 185h111l168 -185h-78l-146 106l-147 -106h-78z" />
<glyph unicode="&#xa5;" horiz-adv-x="1012" d="M-50 1370h163l369 -645l387 645h161l-481 -758v-612h-146v612zM360 -190l117 116l102 -103l-115 -115z" />
<glyph unicode="&#xa6;" horiz-adv-x="1012" d="M-50 1370h163l369 -645l387 645h161l-481 -758v-612h-146v612z" />
<glyph unicode="&#xa7;" horiz-adv-x="1609" d="M96 725q0 305 222 489q207 172 517 172q323 0 514 -175q198 -181 198 -503q0 -396 -259 -610q-159 -131 -453 -131q-357 0 -548 199.5t-191 558.5zM226 645q0 -257 160.5 -411.5t417.5 -154.5q286 0 441.5 156.5t155.5 442.5q0 275 -153.5 435.5t-426.5 160.5 q-281 0 -438 -173t-157 -456zM610 1408l170 185h111l168 -185h-78l-146 106l-147 -106h-78z" />
<glyph unicode="&#xa8;" horiz-adv-x="1175" d="M79 488q0 233 134 384q139 159 367 159q133 1 231 -51l113 37q9 26 13 48q0 30 -29 55q-31 20 -95 20q26 22 95 23q61 0 86 -15q52 -22 52 -80q0 -68 -81 -149l-33 -26l29 -34q126 -140 126 -369q0 -226 -131 -372q-137 -152 -361 -151q-231 0 -373.5 144t-142.5 377z M207 518q0 -179 104 -311q111 -144 284 -144q179 0 285 116q101 111 101 292q0 190 -103 322q-111 142 -298 142q-176 0 -277 -124q-96 -115 -96 -293z" />
<glyph unicode="&#xa9;" d="M63 242q0 170 190 257l359 107q192 57 192 168q0 163 -274 163q-192 0 -353 -66l15 112q177 46 327 47q414 0 414 -256v-774h-129v595q-61 -44 -238 -98q-187 -55 -252 -94q-122 -74 -122 -194q0 -109 163 -142q46 -9 100 -10q115 0 223 39l-16 -96q-105 -37 -244 -37 q-152 0 -246 63q-109 72 -109 216zM294 1076l170 185h111l168 -185h-78l-146 105l-147 -105h-78z" />
<glyph unicode="&#xaa;" d="M63 242q0 170 190 257l359 107q192 57 192 168q0 163 -274 163q-192 0 -353 -66l15 112q177 46 327 47q414 0 414 -256v-774h-129v595q-61 -44 -238 -98q-187 -55 -252 -94q-122 -74 -122 -194q0 -109 163 -142q46 -9 100 -10q115 0 223 39l-16 -96q-105 -37 -244 -37 q-152 0 -246 63q-109 72 -109 216zM192 1527h165l164 -165v-74zM296 1288h68l155 -105l158 105h68l-152 -160q-48 -24 -72 -25q-22 0 -76 25z" />
<glyph unicode="&#xab;" d="M-13 1420h165l164 -165v-74zM63 242q0 170 190 257l359 107q192 57 192 168q0 163 -274 163q-192 0 -353 -66l15 112q177 46 327 47q414 0 414 -256v-774h-129v595q-61 -44 -238 -98q-187 -55 -252 -94q-122 -74 -122 -194q0 -109 163 -142q46 -9 100 -10q115 0 223 39 l-16 -96q-105 -37 -244 -37q-152 0 -246 63q-109 72 -109 216zM294 1076l170 185h111l168 -185h-78l-146 105l-147 -105h-78z" />
<glyph unicode="&#xac;" horiz-adv-x="1192" d="M-79 0l645 1370h175l547 -1370h-162l-241 645h-530l-276 -645h-158zM386 741h466l-207 533zM421 1388l170 185h111l169 -185h-78l-146 105l-148 -105h-78zM695 1725l39 97l127 28q24 -2 74 -20q41 -28 41 -59q2 -6 2 -11v-10q0 -24 -21 -55q-20 -24 -64 -113l-37 -22 l-6 -67l-57 80q0 4 74 102q31 41 31 66q0 63 -85 63q-28 0 -67.5 -27t-50.5 -52z" />
<glyph unicode="&#xad;" horiz-adv-x="624" d="M15 322l61 225h454l-61 -225h-454z" />
<glyph unicode="&#xae;" d="M63 242q0 170 190 257l359 107q192 57 192 168q0 163 -274 163q-192 0 -353 -66l15 112q177 46 327 47q414 0 414 -256v-774h-129v595q-61 -44 -238 -98q-187 -55 -252 -94q-122 -74 -122 -194q0 -109 163 -142q46 -9 100 -10q115 0 223 39l-16 -96q-105 -37 -244 -37 q-152 0 -246 63q-109 72 -109 216zM296 1288h68l155 -105l158 105h68l-152 -160q-48 -24 -72 -25q-22 0 -76 25z" />
<glyph unicode="&#xaf;" horiz-adv-x="1192" d="M113 322v695h129v-679q0 -115 72 -195t185 -80q161 0 289.5 108t128.5 265v581h125q9 26 13 48q0 30 -29 55q-31 20 -94 20q26 22 94 23q61 0 87 -15q52 -22 51 -80q0 -68 -81 -149l-37 -10v-909h-129v192q-26 -105 -187 -177q-133 -59 -261 -59q-174 0 -265 96t-91 270z M564 1030v73l164 165h165z" />
<glyph unicode="&#xb0;" horiz-adv-x="1192" d="M-79 0l645 1370h175l547 -1370h-162l-241 645h-530l-276 -645h-158zM386 741h466l-207 533zM421 1591h69l155 -105l157 105h69l-152 -160q-48 -24 -72 -24q-22 0 -76 24z" />
<glyph unicode="&#xb1;" horiz-adv-x="1012" d="M-50 1370h163l369 -645l387 645h161l-481 -758v-612h-146v612zM329 1582l39 98l127 28q24 -2 74 -20q41 -28 41 -60q2 -6 2 -11v-9q0 -24 -21 -55q-20 -24 -64 -113l-37 -22l-6 -67l-57 80q0 7 72 101q33 44 33 67q0 63 -85 63q-28 0 -67.5 -27t-50.5 -53z" />
<glyph unicode="&#xb2;" horiz-adv-x="1439" d="M137 856q85 -35 174 -35q83 0 138 33q68 41 69 118q0 142 -213 135l-55 -2v56q244 0 244 129q0 137 -176 137q-48 0 -70 -4q-33 -2 -78 -13l6 48q68 18 142 19q98 0 164 -35q85 -44 85 -133q0 -76 -48 -119q-28 -31 -99 -53q170 -24 170 -176q0 -98 -87 -150 q-70 -41 -176 -40q-87 0 -181 29zM250 292v115l957 637v-112zM841 233v66l259 370h89v-386h112v-50h-112v-240h-65v240h-283zM891 283h233v338z" />
<glyph unicode="&#xb4;" horiz-adv-x="1175" d="M79 488q0 233 134 384q139 159 367 159q229 0 370 -159q137 -151 137 -382q0 -226 -131 -372q-137 -152 -361 -151q-231 0 -373.5 144t-142.5 377zM207 518q0 -179 104 -311q111 -144 284 -144q179 0 285 116q101 111 101 292q0 190 -103 322q-111 142 -298 142 q-176 0 -277 -124q-96 -115 -96 -293zM355 1076l170 185h111l168 -185h-78l-146 105l-147 -105h-78z" />
<glyph unicode="&#xb6;" horiz-adv-x="1417" d="M146 436v934h144v-919q0 -189 117 -290q111 -98 301 -98q451 0 451 388v919h144q9 26 13 48q0 30 -30 55q-31 20 -94 20q26 22 94 23q61 0 87 -15q52 -22 52 -80q0 -68 -81 -149l-39 -10v-811q0 -270 -172 -386q-142 -98 -425 -98q-248 0 -396 107q-166 124 -166 362z " />
<glyph unicode="&#xb7;" horiz-adv-x="1175" d="M79 488q0 233 134 384q139 159 367 159q229 0 370 -159q137 -151 137 -382q0 -226 -131 -372q-137 -152 -361 -151q-231 0 -373.5 144t-142.5 377zM207 518q0 -179 104 -311q111 -144 284 -144q179 0 285 116q101 111 101 292q0 190 -103 322q-111 142 -298 142 q-176 0 -277 -124q-96 -115 -96 -293zM427 1336l39 98l127 28q24 -2 74 -20q41 -28 41 -59q2 -6 2 -12v-9q0 -24 -21 -55q-20 -24 -64 -113l-37 -22l-6 -67l-57 80q0 4 74 101q31 41 31 67q0 63 -85 63q-28 0 -67.5 -27t-50.5 -53z" />
<glyph unicode="&#xb8;" horiz-adv-x="950" d="M-79 -338q87 -61 160 -61q113 0 198 131q39 61 107 235l-403 1050h146l339 -921l353 921h144l-514 -1226q-126 -298 -351 -297q-74 0 -163 38zM227 1048l34 105q28 61 98 61q55 7 110 -40q79 -57 115 -58q15 0 24 23l8 74l92 7q-20 -116 -87 -153q-28 -15 -52 -15 q-55 -6 -109 42q-67 59 -101 59q-35 0 -41 -57l-4 -42z" />
<glyph unicode="&#xb9;" horiz-adv-x="1304" d="M209 316v115l955 636v-113zM264 1420v62l63 41h67v-693h-74v628zM736 242v65l257 371h88v-388h113v-48h-113v-242h-63v242h-282zM784 290h234v338z" />
<glyph unicode="&#xba;" d="M63 242q0 170 190 257l359 107q192 57 192 168q0 163 -274 163q-192 0 -353 -66l15 112q177 46 327 47q414 0 414 -256v-774h-129v595q-61 -44 -238 -98q-187 -55 -252 -94q-122 -74 -122 -194q0 -109 163 -142q46 -9 100 -10q115 0 223 39l-16 -96q-105 -37 -244 -37 q-152 0 -246 63q-109 72 -109 216zM296 1290h68l155 -105l158 105h68l-152 -161q-48 -24 -72 -24q-22 0 -76 24zM366 1503l39 98l127 27q24 -2 74 -20q41 -28 41 -59q2 -6 2 -11v-9q0 -24 -21 -56q-20 -24 -64 -113l-37 -22l-6 -66l-57 79q0 7 72 102q33 44 33 66 q0 63 -85 63q-28 0 -67.5 -26.5t-50.5 -52.5z" />
<glyph unicode="&#xbb;" d="M63 242q0 170 190 257l359 107q192 57 192 168q0 163 -274 163q-192 0 -353 -66l15 112q177 46 327 47q414 0 414 -256v-774h-129v595q-61 -44 -238 -98q-187 -55 -252 -94q-122 -74 -122 -194q0 -109 163 -142q46 -9 100 -10q115 0 223 39l-16 -96q-105 -37 -244 -37 q-152 0 -246 63q-109 72 -109 216zM296 1074l170 185h111l168 -185h-78l-146 105l-148 -105h-77zM569 1410l39 98l128 28q24 -2 74 -20q41 -28 40 -59q2 -6 2 -12v-9q0 -24 -20 -55q-20 -24 -65 -113l-37 -22l-5 -67l-58 80q0 4 74 101q31 41 32 67q0 63 -85 63 q-28 0 -68 -27t-51 -53z" />
<glyph unicode="&#xbf;" horiz-adv-x="1192" d="M-79 0l645 1370h175l547 -1370h-162l-241 645h-530l-276 -645h-158zM386 741h466l-207 533zM421 1591h69l155 -105l157 105h69l-152 -160q-48 -24 -72 -24q-22 0 -76 24zM647 1591v74l164 165h165z" />
<glyph unicode="&#xc0;" horiz-adv-x="1192" d="M-79 0l645 1370h175l547 -1370h-162l-241 645h-530l-276 -645h-158zM320 1684l329 -239v74l-165 165h-164zM386 741h466l-207 533z" />
<glyph unicode="&#xc1;" horiz-adv-x="1192" d="M-79 0l645 1370h175l547 -1370h-162l-241 645h-530l-276 -645h-158zM386 741h466l-207 533zM647 1445v74l164 165h165z" />
<glyph unicode="&#xc2;" horiz-adv-x="1192" d="M-79 0l645 1370h175l547 -1370h-162l-241 645h-530l-276 -645h-158zM386 741h466l-207 533zM421 1388l170 185h111l169 -185h-78l-146 105l-148 -105h-78z" />
<glyph unicode="&#xc3;" horiz-adv-x="1192" d="M-79 0l645 1370h175l547 -1370h-162l-241 645h-530l-276 -645h-158zM386 741h466l-207 533zM407 1445l33 106q28 61 98 61q55 7 111 -41q79 -57 114 -57q15 0 24 22l8 74l92 7q-20 -118 -85 -153q-28 -15 -53 -15q-55 -6 -109 43q-67 59 -102 59t-41 -58l-3 -42z" />
<glyph unicode="&#xc4;" horiz-adv-x="1192" d="M-79 0l645 1370h175l547 -1370h-162l-241 645h-530l-276 -645h-158zM318 1684h164l165 -165v-74zM386 741h466l-207 533z" />
<glyph unicode="&#xc5;" horiz-adv-x="1192" d="M-79 0l645 1370h175l547 -1370h-162l-241 645h-530l-276 -645h-158zM386 741h466l-207 533zM492 1656l38 98l128 28q24 -2 74 -20q41 -28 41 -60q2 -6 1 -11v-9q0 -24 -20 -55q-20 -24 -65 -113l-37 -22l-5 -67l-57 80q0 7 72 101q33 44 33 67q0 63 -85 63 q-28 0 -67.5 -27t-50.5 -53z" />
<glyph unicode="&#xc6;" horiz-adv-x="1158" d="M126 372q0 201 113.5 310t316.5 109q81 0 148 -17l48 -96l-103 6q-44 2 -85 9q-294 0 -294 -321q0 -144 98 -230q91 -79 238 -79q152 0 233 96q76 89 76 244q0 196 -135 456q-35 67 -92 158l-263 -50v107l200 41l-163 238h144l144 -203l315 70v-105l-248 -65 q229 -346 229 -629q0 -207 -107 -327q-113 -128 -316 -127q-216 0 -348 92q-150 105 -149 313z" />
<glyph unicode="&#xc7;" horiz-adv-x="1192" d="M-79 0l645 1370h175l547 -1370h-162l-241 645h-530l-276 -645h-158zM386 741h466l-207 533zM407 1445l33 106q28 61 98 61q55 7 111 -41q79 -57 114 -57q15 0 24 22l8 74l92 7q-20 -118 -85 -153q-28 -15 -53 -15q-55 -6 -109 43q-67 59 -102 59t-41 -58l-3 -42z" />
<glyph unicode="&#xc8;" horiz-adv-x="1094" d="M163 0v1370h835v-96h-691v-533h626v-96h-626v-549h674v-96h-818zM244 1684h164l165 -165v-74z" />
<glyph unicode="&#xc9;" horiz-adv-x="1094" d="M163 0v1370h835v-96h-691v-533h626v-96h-626v-549h674v-96h-818zM571 1445v74l165 165h164z" />
<glyph unicode="&#xca;" horiz-adv-x="1094" d="M163 0v1370h835v-96h-691v-533h626v-96h-626v-549h674v-96h-818zM346 1407l170 184h111l168 -184h-78l-146 105l-148 -105h-77z" />
<glyph unicode="&#xcb;" horiz-adv-x="1175" d="M79 488q0 233 134 384q139 159 367 159q229 0 370 -159q137 -151 137 -382q0 -226 -131 -372q-137 -152 -361 -151q-231 0 -373.5 144t-142.5 377zM207 518q0 -179 104 -311q111 -144 284 -144q179 0 285 116q101 111 101 292q0 190 -103 322q-111 142 -298 142 q-176 0 -277 -124q-96 -115 -96 -293zM355 1076l170 185h111l168 -185h-78l-146 105l-147 -105h-78zM786 1179v74l164 165h165z" />
<glyph unicode="&#xcc;" horiz-adv-x="451" d="M-111 1682h165l164 -164v-74zM146 0v1370h144v-1370h-144z" />
<glyph unicode="&#xcd;" horiz-adv-x="451" d="M146 0v1370h144v-1370h-144zM216 1445v74l165 165h164z" />
<glyph unicode="&#xce;" horiz-adv-x="1175" d="M79 488q0 233 134 384q139 159 367 159q133 1 231 -51l113 37q9 26 13 48q0 30 -29 55q-31 20 -95 20q26 22 95 23q61 0 86 -15q52 -22 52 -80q0 -68 -81 -149l-33 -26l29 -34q126 -140 126 -369q0 -226 -131 -372q-137 -152 -361 -151q-231 0 -373.5 144t-142.5 377z M207 518q0 -179 104 -311q111 -144 284 -144q179 0 285 116q101 111 101 292q0 190 -103 322q-111 142 -298 142q-176 0 -277 -124q-96 -115 -96 -293zM427 1336l39 98l127 28q24 -2 74 -20q41 -28 41 -59q2 -6 2 -12v-9q0 -24 -21 -55q-20 -24 -64 -113l-37 -22l-6 -67 l-57 80q0 4 74 101q31 41 31 67q0 63 -85 63q-28 0 -67.5 -27t-50.5 -53z" />
<glyph unicode="&#xcf;" horiz-adv-x="1175" d="M79 488q0 233 134 384q139 159 367 159q133 1 231 -51l113 37q9 26 13 48q0 30 -29 55q-31 20 -95 20q26 22 95 23q61 0 86 -15q52 -22 52 -80q0 -68 -81 -149l-33 -26l29 -34q126 -140 126 -369q0 -226 -131 -372q-137 -152 -361 -151q-231 0 -373.5 144t-142.5 377z M207 518q0 -179 104 -311q111 -144 284 -144q179 0 285 116q101 111 101 292q0 190 -103 322q-111 142 -298 142q-176 0 -277 -124q-96 -115 -96 -293zM338 1122l34 105q28 61 97 61q55 7 111 -40q79 -57 115 -58q15 0 24 23l7 73l93 8q-20 -118 -85 -154q-28 -15 -54 -14 q-55 -6 -109 42q-67 59 -102 59t-40 -57l-4 -42z" />
<glyph unicode="&#xd0;" horiz-adv-x="950" d="M-79 -338q87 -61 160 -61q113 0 198 131q39 61 107 235l-403 1050h146l339 -921l353 921h144l-514 -1226q-126 -298 -351 -297q-74 0 -163 38z" />
<glyph unicode="&#xd1;" horiz-adv-x="1192" d="M-79 0l645 1370h175l547 -1370h-162l-241 645h-530l-276 -645h-158zM386 741h466l-207 533zM529 -120l116 116l102 -103l-115 -115z" />
<glyph unicode="&#xd2;" horiz-adv-x="1609" d="M96 725q0 305 222 489q207 172 517 172q323 0 514 -175q198 -181 198 -503q0 -396 -259 -610q-159 -131 -453 -131q-357 0 -548 199.5t-191 558.5zM226 645q0 -257 160.5 -411.5t417.5 -154.5q286 0 441.5 156.5t155.5 442.5q0 275 -153.5 435.5t-426.5 160.5 q-281 0 -438 -173t-157 -456zM506 1699h165l164 -165v-74z" />
<glyph unicode="&#xd3;" horiz-adv-x="1609" d="M96 725q0 305 222 489q207 172 517 172q323 0 514 -175q198 -181 198 -503q0 -396 -259 -610q-159 -131 -453 -131q-357 0 -548 199.5t-191 558.5zM226 645q0 -257 160.5 -411.5t417.5 -154.5q286 0 441.5 156.5t155.5 442.5q0 275 -153.5 435.5t-426.5 160.5 q-281 0 -438 -173t-157 -456zM834 1460v74l164 165h165z" />
<glyph unicode="&#xd4;" horiz-adv-x="1609" d="M96 725q0 305 222 489q207 172 517 172q323 0 514 -175q198 -181 198 -503q0 -396 -259 -610q-159 -131 -453 -131q-357 0 -548 199.5t-191 558.5zM226 645q0 -257 160.5 -411.5t417.5 -154.5q286 0 441.5 156.5t155.5 442.5q0 275 -153.5 435.5t-426.5 160.5 q-281 0 -438 -173t-157 -456zM610 1408l170 185h111l168 -185h-78l-146 106l-147 -106h-78z" />
<glyph unicode="&#xd5;" horiz-adv-x="1609" d="M96 725q0 305 222 489q207 172 517 172q323 0 514 -175q198 -181 198 -503q0 -396 -259 -610q-159 -131 -453 -131q-357 0 -548 199.5t-191 558.5zM226 645q0 -257 160.5 -411.5t417.5 -154.5q286 0 441.5 156.5t155.5 442.5q0 275 -153.5 435.5t-426.5 160.5 q-281 0 -438 -173t-157 -456zM595 1464l33 105q28 61 98 61q55 7 111 -40q79 -57 115 -58q15 0 24 22l7 74l93 8q-20 -116 -87 -154q-28 -15 -52 -14q-55 -6 -109 42q-67 59 -102 59t-40 -57l-4 -43z" />
<glyph unicode="&#xd6;" horiz-adv-x="1192" d="M-79 0l645 1370h175l547 -1370h-162l-241 645h-530l-276 -645h-158zM386 741h466l-207 533zM421 1591h69l155 -105l157 105h69l-152 -160q-48 -24 -72 -24q-22 0 -76 24zM529 -120l116 116l102 -103l-115 -115z" />
<glyph unicode="&#xd7;" horiz-adv-x="1423" d="M222 364v115l955 637v-112zM264 1420v62l63 41h67v-693h-74v628zM867 2v59l216 242q144 161 144 242q0 104 -168 104q-94 0 -185 -26l10 48q91 28 173 28q248 0 248 -148q0 -79 -109 -207l-250 -290h346v-52h-425z" />
<glyph unicode="&#xd8;" horiz-adv-x="1192" d="M-79 0l645 1370h175l547 -1370h-162l-241 645h-530l-276 -645h-158zM318 1830h164l165 -165v-74zM386 741h466l-207 533zM421 1591h69l155 -105l157 105h69l-152 -160q-48 -24 -72 -24q-22 0 -76 24z" />
<glyph unicode="&#xd9;" horiz-adv-x="1417" d="M146 436v934h144v-919q0 -189 117 -290q111 -98 301 -98q451 0 451 388v919h146v-919q0 -270 -172 -386q-142 -98 -425 -98q-248 0 -396 107q-166 124 -166 362zM403 1610l329 -239v74l-165 165h-164z" />
<glyph unicode="&#xda;" horiz-adv-x="1417" d="M146 436v934h144v-919q0 -189 117 -290q111 -98 301 -98q451 0 451 388v919h146v-919q0 -270 -172 -386q-142 -98 -425 -98q-248 0 -396 107q-166 124 -166 362zM717 1371v74l165 165h164z" />
<glyph unicode="&#xdb;" horiz-adv-x="1192" d="M113 322v695h129v-679q0 -115 72 -195t185 -80q161 0 289.5 108t128.5 265v581h129v-1017h-129v192q-26 -105 -187 -177q-133 -59 -261 -59q-174 0 -265 96t-91 270zM564 1030v73l164 165h165z" />
<glyph unicode="&#xdc;" horiz-adv-x="1192" d="M-79 0l645 1370h175l547 -1370h-162l-241 645h-530l-276 -645h-158zM386 741h466l-207 533zM421 1388l170 185h111l169 -185h-78l-146 105l-148 -105h-78zM529 -120l116 116l102 -103l-115 -115z" />
<glyph unicode="&#xdd;" horiz-adv-x="1012" d="M-50 1370h163l369 -645l387 645h161l-481 -758v-612h-146v612zM482 1371v74l165 165h164z" />
<glyph unicode="&#xde;" horiz-adv-x="425" d="M126 1420v62l63 41h64v-693h-72v628z" />
<glyph unicode="&#xdf;" horiz-adv-x="1465" d="M-50 656v115l227 -2v601h597q309 0 468 -169t159 -480q0 -388 -264 -590q-172 -131 -492 -131h-468v656h-227zM307 113h321q627 0 627 612q0 281 -125.5 415t-404.5 134h-418v-505l283 2v-115h-283v-543z" />
<glyph unicode="&#xe0;" d="M63 242q0 170 190 257l359 107q192 57 192 168q0 163 -274 163q-192 0 -353 -66l15 112q177 46 327 47q414 0 414 -256v-774h-129v595q-61 -44 -238 -98q-187 -55 -252 -94q-122 -74 -122 -194q0 -109 163 -142q46 -9 100 -10q115 0 223 39l-16 -96q-105 -37 -244 -37 q-152 0 -246 63q-109 72 -109 216zM192 1362h165l164 -164v-74z" />
<glyph unicode="&#xe1;" d="M63 242q0 170 190 257l359 107q192 57 192 168q0 163 -274 163q-192 0 -353 -66l15 112q177 46 327 47q414 0 414 -256v-774h-129v595q-61 -44 -238 -98q-187 -55 -252 -94q-122 -74 -122 -194q0 -109 163 -142q46 -9 100 -10q115 0 223 39l-16 -96q-105 -37 -244 -37 q-152 0 -246 63q-109 72 -109 216zM519 1122v74l165 164h164z" />
<glyph unicode="&#xe2;" d="M63 242q0 170 190 257l359 107q192 57 192 168q0 163 -274 163q-192 0 -353 -66l15 112q177 46 327 47q414 0 414 -256v-774h-129v595q-61 -44 -238 -98q-187 -55 -252 -94q-122 -74 -122 -194q0 -109 163 -142q46 -9 100 -10q115 0 223 39l-16 -96q-105 -37 -244 -37 q-152 0 -246 63q-109 72 -109 216zM294 1076l170 185h111l168 -185h-78l-146 105l-147 -105h-78z" />
<glyph unicode="&#xe3;" d="M63 242q0 170 190 257l359 107q192 57 192 168q0 163 -274 163q-192 0 -353 -66l15 112q177 46 327 47q414 0 414 -256v-774h-129v595q-61 -44 -238 -98q-187 -55 -252 -94q-122 -74 -122 -194q0 -109 163 -142q46 -9 100 -10q115 0 223 39l-16 -96q-105 -37 -244 -37 q-152 0 -246 63q-109 72 -109 216zM281 1124l33 105q28 61 98 61q55 7 111 -40q79 -57 115 -58q15 0 24 22l7 74l93 8q-20 -116 -85 -152q-30 -17 -54 -16q-55 -6 -109 42q-67 59 -102 59q-37 0 -40 -55l-4 -45z" />
<glyph unicode="&#xe4;" d="M79 516q0 235 124 379q131 153 363 153q176 0 303 -122.5t116 -298.5l-4 -61h-772q0 -501 394 -501q104 0 227 35q26 7 87 29l-15 -112q-165 -48 -298 -48q-255 0 -391 147q-133 142 -134 400zM226 645h626q0 137 -66 218q-72 89 -206 89q-165 0 -246 -71t-108 -236z M564 1140v74l164 165h165z" />
<glyph unicode="&#xe5;" horiz-adv-x="1094" d="M163 0v1370h835v-96h-691v-533h626v-96h-626v-549h674v-96h-818zM346 1407l170 184h111l168 -184h-78l-146 105l-148 -105h-77zM455 -194l116 116l102 -103l-115 -115z" />
<glyph unicode="&#xe6;" d="M63 242q0 170 190 257l359 107q192 57 192 168q0 163 -274 163q-192 0 -353 -66l15 112q177 46 327 47q414 0 414 -256v-774h-129v595q-61 -44 -238 -98q-187 -55 -252 -94q-122 -74 -122 -194q0 -109 163 -142q46 -9 100 -10q115 0 223 39l-16 -96q-105 -37 -244 -37 q-152 0 -246 63q-109 72 -109 216zM296 1288h68l155 -105l158 105h68l-152 -160q-48 -24 -72 -25q-22 0 -76 25zM521 1288v74l165 165h164z" />
<glyph unicode="&#xe7;" horiz-adv-x="451" d="M-111 1682h165l164 -164v-74zM146 0v1370h144v-1370h-144z" />
<glyph unicode="&#xe8;" d="M79 516q0 235 124 379q131 153 363 153q176 0 303 -122.5t116 -298.5l-4 -61h-772q0 -501 394 -501q104 0 227 35q26 7 87 29l-15 -112q-165 -48 -298 -48q-255 0 -391 147q-133 142 -134 400zM226 645h626q0 137 -66 218q-72 89 -206 89q-165 0 -246 -71t-108 -236z M235 1381h164l165 -165v-74z" />
<glyph unicode="&#xe9;" d="M79 516q0 235 124 379q131 153 363 153q176 0 303 -122.5t116 -298.5l-4 -61h-772q0 -501 394 -501q104 0 227 35q26 7 87 29l-15 -112q-165 -48 -298 -48q-255 0 -391 147q-133 142 -134 400zM226 645h626q0 137 -66 218q-72 89 -206 89q-165 0 -246 -71t-108 -236z M564 1140v74l164 165h165z" />
<glyph unicode="&#xea;" d="M79 516q0 235 124 379q131 153 363 153q176 0 303 -122.5t116 -298.5l-4 -61h-772q0 -501 394 -501q104 0 227 35q26 7 87 29l-15 -112q-165 -48 -298 -48q-255 0 -391 147q-133 142 -134 400zM226 645h626q0 137 -66 218q-72 89 -206 89q-165 0 -246 -71t-108 -236z M338 1076l170 185h111l168 -185h-77l-146 105l-148 -105h-78z" />
<glyph unicode="&#xeb;" horiz-adv-x="451" d="M100 -224l116 117l102 -104l-115 -114zM146 0v1370h144v-1370h-144z" />
<glyph unicode="&#xec;" horiz-adv-x="419" d="M-118 1344h164l165 -165v-74zM146 0v1017h128v-1017h-128z" />
<glyph unicode="&#xed;" horiz-adv-x="419" d="M146 0v1017h128v-1017h-128zM211 1107v74l164 165h165z" />
<glyph unicode="&#xee;" horiz-adv-x="1609" d="M96 725q0 305 222 489q207 172 517 172q323 0 514 -175q198 -181 198 -503q0 -396 -259 -610q-159 -131 -453 -131q-357 0 -548 199.5t-191 558.5zM226 645q0 -257 160.5 -411.5t417.5 -154.5q286 0 441.5 156.5t155.5 442.5q0 275 -153.5 435.5t-426.5 160.5 q-281 0 -438 -173t-157 -456zM595 1464l33 105q28 61 98 61q55 7 111 -40q79 -57 115 -58q15 0 24 22l7 74l93 8q-20 -116 -87 -154q-28 -15 -52 -14q-55 -6 -109 42q-67 59 -102 59t-40 -57l-4 -43z" />
<glyph unicode="&#xef;" horiz-adv-x="1609" d="M96 725q0 305 222 489q207 172 517 172q323 0 514 -175q198 -181 198 -503q0 -396 -259 -610q-159 -131 -453 -131q-357 0 -548 199.5t-191 558.5zM226 645q0 -257 160.5 -411.5t417.5 -154.5q286 0 441.5 156.5t155.5 442.5q0 275 -153.5 435.5t-426.5 160.5 q-281 0 -438 -173t-157 -456zM834 1460v74l164 165h165z" />
<glyph unicode="&#xf1;" horiz-adv-x="1609" d="M96 725q0 305 222 489q207 172 517 172q323 0 514 -175q198 -181 198 -503q0 -396 -259 -610q-159 -131 -453 -131q-357 0 -548 199.5t-191 558.5zM226 645q0 -257 160.5 -411.5t417.5 -154.5q286 0 441.5 156.5t155.5 442.5q0 275 -153.5 435.5t-426.5 160.5 q-281 0 -438 -173t-157 -456zM717 -224l117 117l101 -104l-114 -114z" />
<glyph unicode="&#xf2;" horiz-adv-x="1175" d="M79 488q0 233 134 384q139 159 367 159q229 0 370 -159q137 -151 137 -382q0 -226 -131 -372q-137 -152 -361 -151q-231 0 -373.5 144t-142.5 377zM207 518q0 -179 104 -311q111 -144 284 -144q179 0 285 116q101 111 101 292q0 190 -103 322q-111 142 -298 142 q-176 0 -277 -124q-96 -115 -96 -293zM253 1362h165l164 -164v-74z" />
<glyph unicode="&#xf3;" horiz-adv-x="1175" d="M79 488q0 233 134 384q139 159 367 159q229 0 370 -159q137 -151 137 -382q0 -226 -131 -372q-137 -152 -361 -151q-231 0 -373.5 144t-142.5 377zM207 518q0 -179 104 -311q111 -144 284 -144q179 0 285 116q101 111 101 292q0 190 -103 322q-111 142 -298 142 q-176 0 -277 -124q-96 -115 -96 -293zM582 1122v74l165 164h164z" />
<glyph unicode="&#xf4;" horiz-adv-x="1175" d="M79 488q0 233 134 384q139 159 367 159q229 0 370 -159q137 -151 137 -382q0 -226 -131 -372q-137 -152 -361 -151q-231 0 -373.5 144t-142.5 377zM207 518q0 -179 104 -311q111 -144 284 -144q179 0 285 116q101 111 101 292q0 190 -103 322q-111 142 -298 142 q-176 0 -277 -124q-96 -115 -96 -293zM355 1076l170 185h111l168 -185h-78l-146 105l-147 -105h-78z" />
<glyph unicode="&#xf5;" horiz-adv-x="1175" d="M79 488q0 233 134 384q139 159 367 159q229 0 370 -159q137 -151 137 -382q0 -226 -131 -372q-137 -152 -361 -151q-231 0 -373.5 144t-142.5 377zM207 518q0 -179 104 -311q111 -144 284 -144q179 0 285 116q101 111 101 292q0 190 -103 322q-111 142 -298 142 q-176 0 -277 -124q-96 -115 -96 -293zM338 1122l34 105q28 61 97 61q55 7 111 -40q79 -57 115 -58q15 0 24 23l7 73l93 8q-20 -118 -85 -154q-28 -15 -54 -14q-55 -6 -109 42q-67 59 -102 59t-40 -57l-4 -42z" />
<glyph unicode="&#xf6;" horiz-adv-x="1609" d="M96 725q0 305 222 489q207 172 517 172q178 1 311 -51l194 35q9 26 13 48q0 30 -30 55q-31 20 -94 20q26 22 94 23q61 0 87 -15q52 -22 52 -80q0 -68 -81 -149l-61 -35l39 -36q189 -170 188 -493q0 -396 -259 -610q-159 -131 -453 -131q-357 0 -548 199.5t-191 558.5z M226 645q0 -257 160.5 -411.5t417.5 -154.5q286 0 441.5 156.5t155.5 442.5q0 275 -153.5 435.5t-426.5 160.5q-281 0 -438 -173t-157 -456zM595 1464l33 105q28 61 98 61q55 7 111 -40q79 -57 115 -58q15 0 24 22l7 74l93 8q-20 -116 -87 -154q-28 -15 -52 -14 q-55 -6 -109 42q-67 59 -102 59t-40 -57l-4 -43z" />
<glyph unicode="&#xf7;" d="M79 516q0 235 124 379q131 153 363 153q176 0 303 -122.5t116 -298.5l-4 -61h-772q0 -501 394 -501q104 0 227 35q26 7 87 29l-15 -112q-165 -48 -298 -48q-255 0 -391 147q-133 142 -134 400zM226 645h626q0 137 -66 218q-72 89 -206 89q-165 0 -246 -71t-108 -236z M338 1076l170 185h111l168 -185h-77l-146 105l-148 -105h-78zM488 -222l116 117l102 -104l-115 -114z" />
<glyph unicode="&#xf8;" horiz-adv-x="1192" d="M-79 0l645 1370h175l547 -1370h-162l-241 645h-530l-276 -645h-158zM386 741h466l-207 533zM421 1591h69l155 -105l157 105h69l-152 -160q-48 -24 -72 -24q-22 0 -76 24zM601 1630l33 106q28 61 98 61q55 7 111 -41q79 -57 114 -57q15 0 24 22l8 74l92 7 q-20 -118 -85 -153q-28 -15 -53 -15q-55 -6 -109 42q-67 59 -102 60q-37 0 -41 -56l-3 -44z" />
<glyph unicode="&#xf9;" horiz-adv-x="1192" d="M113 322v695h129v-679q0 -115 72 -195t185 -80q161 0 289.5 108t128.5 265v581h129v-1017h-129v192q-26 -105 -187 -177q-133 -59 -261 -59q-174 0 -265 96t-91 270zM235 1270h164l165 -165v-74z" />
<glyph unicode="&#xfa;" horiz-adv-x="1192" d="M113 322v695h129v-679q0 -115 72 -195t185 -80q161 0 289.5 108t128.5 265v581h129v-1017h-129v192q-26 -105 -187 -177q-133 -59 -261 -59q-174 0 -265 96t-91 270zM564 1030v73l164 165h165z" />
<glyph unicode="&#xfb;" horiz-adv-x="1417" d="M146 436v934h144v-919q0 -189 117 -290q111 -98 301 -98q451 0 451 388v919h146v-919q0 -270 -172 -386q-142 -98 -425 -98q-248 0 -396 107q-166 124 -166 362zM562 1582l39 98l127 28q24 -2 74 -20q41 -28 41 -60q2 -6 2 -11v-9q0 -24 -21 -55q-20 -24 -64 -113 l-37 -22l-6 -67l-57 80q0 4 74 101q31 41 31 67q0 63 -85 63q-28 0 -67.5 -27t-50.5 -53z" />
<glyph unicode="&#xfc;" horiz-adv-x="1417" d="M146 436v934h144v-919q0 -189 117 -290q111 -98 301 -98q451 0 451 388v919h146v-919q0 -270 -172 -386q-142 -98 -425 -98q-248 0 -396 107q-166 124 -166 362zM475 1388l33 105q28 61 98 61q55 7 111 -40q79 -57 115 -57q15 0 24 22l7 74l93 7q-20 -116 -85 -152 q-30 -17 -54 -16q-55 -6 -109 42q-67 59 -102 59q-37 0 -40 -55l-4 -44z" />
<glyph unicode="&#xfd;" horiz-adv-x="950" d="M-79 -338q87 -61 160 -61q113 0 198 131q39 61 107 235l-403 1050h146l339 -921l353 921h144l-514 -1226q-126 -298 -351 -297q-74 0 -163 38zM469 1030v73l165 165h164z" />
<glyph unicode="&#xfe;" horiz-adv-x="608" d="M72 701v59l216 242q144 161 145 242q0 43 -41 76q-43 28 -128 27q-94 0 -185 -25l10 48q91 28 173 27q248 1 248 -147q0 -79 -109 -208l-249 -290h345v-51h-425z" />
<glyph unicode="&#xff;" horiz-adv-x="419" d="M55 1318l39 98l128 28q24 -2 74 -21q41 -28 40 -59q2 -6 2 -11v-9q0 -24 -20 -56q-20 -24 -65 -112l-37 -23l-5 -66l-58 79q0 4 74 102q31 41 32 67q0 63 -85 62q-28 0 -67.5 -26.5t-51.5 -52.5zM146 0v1017h128v-1017h-128z" />
<glyph unicode="&#x102;" horiz-adv-x="1192" d="M-79 0l645 1370h175l547 -1370h-162l-241 645h-530l-276 -645h-158zM386 741h466l-207 533zM421 1591h69l155 -105l157 105h69l-152 -160q-48 -24 -72 -24q-22 0 -76 24z" />
<glyph unicode="&#x103;" d="M63 242q0 170 190 257l359 107q192 57 192 168q0 163 -274 163q-192 0 -353 -66l15 112q177 46 327 47q414 0 414 -256v-774h-129v595q-61 -44 -238 -98q-187 -55 -252 -94q-122 -74 -122 -194q0 -109 163 -142q46 -9 100 -10q115 0 223 39l-16 -96q-105 -37 -244 -37 q-152 0 -246 63q-109 72 -109 216zM296 1288h68l155 -105l158 105h68l-152 -160q-48 -24 -72 -25q-22 0 -76 25z" />
<glyph unicode="&#x106;" horiz-adv-x="1314" d="M96 678q0 353 192 533q187 176 542 175q155 0 329 -33l33 -142q-200 59 -373 59q-281 0 -429 -154.5t-148 -437.5q0 -288 148 -451q153 -170 438 -170q135 0 283 41q35 9 98 31l-17 -129q-194 -44 -362 -44q-349 0 -541.5 186.5t-192.5 535.5zM406 959q0 233 134 384 q139 159 367 159q229 0 370 -159q137 -151 137 -382q0 -226 -131 -372q-137 -152 -361 -151q-231 0 -373.5 144t-142.5 377zM534 989q0 -179 104 -311q111 -144 284 -144q179 0 285 116q101 111 101 292q0 190 -103 322q-111 142 -298 142q-176 0 -277 -124 q-96 -115 -96 -293zM682 1547l170 185h111l168 -185h-78l-146 105l-147 -105h-78z" />
<glyph unicode="&#x107;" horiz-adv-x="815" d="M38 488q0 233 134 384q139 159 367 159q229 0 370 -159q137 -151 137 -382q0 -226 -131 -372q-137 -152 -361 -151q-231 0 -373.5 144t-142.5 377zM79 516q0 529 509 528h74q37 -6 98 -14q37 -4 75 -13l17 -130q-137 61 -268 61q-192 0 -288 -124q-87 -111 -87 -308 q0 -196 89 -313q98 -128 288 -127q122 -1 266 53l-31 -129q-105 -20 -217 -20q-525 0 -525 536zM166 518q0 -179 104 -311q111 -144 284 -144q179 0 285 116q101 111 101 292q0 190 -103 322q-111 142 -298 142q-176 0 -277 -124q-96 -115 -96 -293zM314 1076l170 185h111 l168 -185h-78l-146 105l-147 -105h-78z" />
<glyph unicode="&#x10c;" horiz-adv-x="1314" d="M96 678q0 353 192 533q187 176 542 175q155 0 329 -33l33 -142q-200 59 -373 59q-281 0 -429 -154.5t-148 -437.5q0 -288 148 -451q153 -170 438 -170q135 0 283 41q35 9 98 31l-17 -129q-194 -44 -362 -44q-349 0 -541.5 186.5t-192.5 535.5zM423 1196q0 305 222 489 q207 172 517 172q323 0 514 -175q198 -181 198 -503q0 -396 -259 -610q-159 -131 -453 -131q-357 0 -548 199.5t-191 558.5zM553 1116q0 -257 160.5 -411.5t417.5 -154.5q286 0 441.5 156.5t155.5 442.5q0 275 -153.5 435.5t-426.5 160.5q-281 0 -438 -173t-157 -456z M937 1879l170 185h111l168 -185h-78l-146 106l-147 -106h-78zM1368 1983v74l164 164h165z" />
<glyph unicode="&#x10d;" horiz-adv-x="815" d="M55 725q0 305 222 489q207 172 517 172q323 0 514 -175q198 -181 198 -503q0 -396 -259 -610q-159 -131 -453 -131q-357 0 -548 199.5t-191 558.5zM79 516q0 529 509 528h74q37 -6 98 -14q37 -4 75 -13l17 -130q-137 61 -268 61q-192 0 -288 -124q-87 -111 -87 -308 q0 -196 89 -313q98 -128 288 -127q122 -1 266 53l-31 -129q-105 -20 -217 -20q-525 0 -525 536zM185 645q0 -257 160.5 -411.5t417.5 -154.5q286 0 441.5 156.5t155.5 442.5q0 275 -153.5 435.5t-426.5 160.5q-281 0 -438 -173t-157 -456zM569 1408l170 185h111l168 -185 h-78l-146 106l-147 -106h-78zM1000 1512v74l164 164h165z" />
<glyph unicode="&#x110;" horiz-adv-x="1465" d="M-50 656v115l227 -2v601h597q309 0 468 -169t159 -480q0 -388 -264 -590q-172 -131 -492 -131h-468v656h-227zM307 113h321q627 0 627 612q0 281 -125.5 415t-404.5 134h-418v-505l283 2v-115h-283v-543z" />
<glyph unicode="&#x111;" horiz-adv-x="1158" d="M126 372q0 201 113.5 310t316.5 109q81 0 148 -17l48 -96l-103 6q-44 2 -85 9q-294 0 -294 -321q0 -144 98 -230q91 -79 238 -79q152 0 233 96q76 89 76 244q0 196 -135 456q-35 67 -92 158l-263 -50v107l200 41l-163 238h144l144 -203l315 70v-105l-248 -65 q229 -346 229 -629q0 -207 -107 -327q-113 -128 -316 -127q-216 0 -348 92q-150 105 -149 313z" />
<glyph unicode="&#x11e;" horiz-adv-x="1417" d="M79 628q0 771 771 771q205 0 422 -46l16 -128q-255 70 -451 71q-298 0 -463 -160t-165 -458q0 -290 159 -453.5t449 -163.5q179 0 392 68v533h-324v96h466v-725q-286 -68 -523 -68q-336 0 -534 161q-214 174 -215 502zM475 793v695h129v-679q0 -115 72 -195t185 -80 q161 0 289.5 108t128.5 265v581h125q9 26 13 48q0 30 -29 55q-31 20 -94 20q26 22 94 23q61 0 87 -15q52 -22 51 -80q0 -68 -81 -149l-37 -10v-909h-129v192q-26 -105 -187 -177q-133 -59 -261 -59q-174 0 -265 96t-91 270zM809 244l117 116l101 -103l-114 -115z" />
<glyph unicode="&#x11f;" horiz-adv-x="909" d="M106 322v695h129v-679q0 -115 72 -195t185 -80q161 0 289.5 108t128.5 265v581h125q9 26 13 48q0 30 -29 55q-31 20 -94 20q26 22 94 23q61 0 87 -15q52 -22 51 -80q0 -68 -81 -149l-37 -10v-909h-129v192q-26 -105 -187 -177q-133 -59 -261 -59q-174 0 -265 96t-91 270z M113 451q0 298 179 447q166 140 470 141q91 0 164 -11q98 -7 185 -28v-1079q0 -165 -68.5 -255.5t-227.5 -133.5q-83 -22 -187 -22q-189 0 -386 54v114q153 -48 287 -64q44 -6 92 -6q360 0 360 342v259q-107 -242 -415 -242q-209 0 -333 138q-120 133 -120 346zM242 482 q0 -176 89 -293q98 -131 268 -132q177 0 285 135q97 126 97 307v405q-129 37 -238 37q-222 0 -357 -117q-144 -124 -144 -342zM440 -227l117 116l101 -103l-114 -115z" />
<glyph unicode="&#x128;" horiz-adv-x="451" d="M-24 1442l33 105q28 61 98 61q55 7 111 -41q79 -57 115 -57q15 0 24 22l7 74l93 8q-20 -116 -87 -154q-28 -15 -52 -15q-55 -6 -109 43q-67 59 -102 59t-40 -57l-4 -43zM146 0v1370h144v-1370h-144z" />
<glyph unicode="&#x129;" horiz-adv-x="419" d="M-31 1103l33 106q28 61 98 61q55 7 111 -41q79 -57 114 -57q15 0 24 22l8 74l92 7q-20 -116 -87 -153q-28 -15 -51 -15q-55 -6 -110 43q-67 59 -101 59q-35 0 -41 -57l-4 -43zM146 0v1017h128v-1017h-128z" />
<glyph unicode="&#x130;" horiz-adv-x="792" d="M-29 133q87 -61 160 -61q113 0 198 131q39 61 107 235l-403 1050h146l339 -921l353 921h144l-514 -1226q-126 -298 -351 -297q-74 0 -163 38zM146 0v1370h144v-1370h-144zM190 1741h165l164 -165v-74z" />
<glyph unicode="&#x131;" horiz-adv-x="1192" d="M113 322v695h129v-679q0 -115 72 -195t185 -80q161 0 289.5 108t128.5 265v581h125q9 26 13 48q0 30 -29 55q-31 20 -94 20q26 22 94 23q61 0 87 -15q52 -22 51 -80q0 -68 -81 -149l-37 -10v-909h-129v192q-26 -105 -187 -177q-133 -59 -261 -59q-174 0 -265 96t-91 270z M235 1270h164l165 -165v-74z" />
<glyph unicode="&#x141;" horiz-adv-x="933" d="M61 1094q0 290 414 290q153 0 266 -31l17 -113q-159 44 -287 45q-104 0 -177 -48q-87 -55 -87 -154q0 -142 161 -266l303 -235q164 -128 164 -305q0 -137 -110 -225q-104 -85 -243 -85q-277 0 -403 66l-16 130q165 -92 358 -93q274 0 274 237q0 100 -120 199l-205 171 q-172 142 -204 177q-105 116 -105 240z" />
<glyph unicode="&#x142;" horiz-adv-x="774" d="M63 129q140 -59 297 -59q78 0 137 34q72 41 72 112q0 65 -122 167l-231 192q-122 126 -122 244q0 146 209 192q57 13 137 13q102 0 205 -24l17 -113l-113 28q-61 15 -126 15q-198 0 -197 -156q0 -59 120 -151l227 -176q126 -97 126 -221q0 -250 -346 -250q-159 0 -274 41 z" />
<glyph unicode="&#x152;" d="M79 516q0 235 124 379q131 153 363 153q176 0 303 -122.5t116 -298.5l-4 -61h-772q0 -501 394 -501q104 0 227 35q26 7 87 29l-15 -112q-165 -48 -298 -48q-255 0 -391 147q-133 142 -134 400zM226 645h626q0 137 -66 218q-72 89 -206 89q-165 0 -246 -71t-108 -236z M408 1355l39 98l128 28q24 -2 74 -21q41 -28 40 -59q2 -6 2 -11v-9q0 -24 -20 -56q-20 -24 -65 -112l-37 -23l-5 -66l-58 79q0 4 74 102q31 41 32 66q0 63 -85 63q-28 0 -67.5 -26.5t-51.5 -52.5z" />
<glyph unicode="&#x153;" d="M79 516q0 235 124 379q131 153 363 153q176 0 303 -122.5t116 -298.5l-4 -61h-772q0 -501 394 -501q104 0 227 35q26 7 87 29l-15 -112q-165 -48 -298 -48q-255 0 -391 147q-133 142 -134 400zM226 645h626q0 137 -66 218q-72 89 -206 89q-165 0 -246 -71t-108 -236z M323 1142l34 106q28 61 98 61q55 7 111 -41q79 -57 114 -57q15 0 24 22l8 74l92 7q-20 -116 -85 -151q-30 -17 -54 -17q-55 -6 -109 43q-67 59 -101 59q-37 0 -41 -56l-4 -44z" />
<glyph unicode="&#x15e;" horiz-adv-x="1212" d="M-7 -338q87 -61 160 -61q113 0 198 131q39 61 107 235l-403 1050h146l339 -921l353 921h144l-514 -1226q-126 -298 -351 -297q-74 0 -163 38zM61 1094q0 290 414 290q153 0 266 -31l17 -113q-159 44 -287 45q-104 0 -177 -48q-87 -55 -87 -154q0 -142 161 -266l303 -235 q164 -128 164 -305q0 -137 -110 -225q-104 -85 -243 -85q-277 0 -403 66l-16 130q165 -92 358 -93q274 0 274 237q0 100 -120 199l-205 171q-172 142 -204 177q-105 116 -105 240zM299 1048l34 105q28 61 98 61q55 7 110 -40q79 -57 115 -58q15 0 24 23l8 74l92 7 q-20 -116 -87 -153q-28 -15 -52 -15q-55 -6 -109 42q-67 59 -101 59q-35 0 -41 -57l-4 -42z" />
<glyph unicode="&#x15f;" horiz-adv-x="707" d="M-186 -338q87 -61 160 -61q113 0 198 131q39 61 107 235l-403 1050h146l339 -921l353 921h144l-514 -1226q-126 -298 -351 -297q-74 0 -163 38zM63 129q140 -59 297 -59q78 0 137 34q72 41 72 112q0 65 -122 167l-231 192q-122 126 -122 244q0 146 209 192q57 13 137 13 q102 0 205 -24l17 -113l-113 28q-61 15 -126 15q-198 0 -197 -156q0 -59 120 -151l227 -176q126 -97 126 -221q0 -250 -346 -250q-159 0 -274 41zM120 1048l34 105q28 61 98 61q55 7 110 -40q79 -57 115 -58q15 0 24 23l8 74l92 7q-20 -116 -87 -153q-28 -15 -52 -15 q-55 -6 -109 42q-67 59 -101 59q-35 0 -41 -57l-4 -42z" />
<glyph unicode="&#x160;" horiz-adv-x="1125" d="M63 0v129l822 1145h-789v96h934v-130l-821 -1144h804v-96h-950z" />
<glyph unicode="&#x161;" horiz-adv-x="868" d="M79 0v113l616 806h-582v98h691v-130l-595 -791h580v-96h-710z" />
<glyph unicode="&#x168;" horiz-adv-x="1417" d="M146 436v934h144v-919q0 -189 117 -290q111 -98 301 -98q451 0 451 388v919h146v-919q0 -270 -172 -386q-142 -98 -425 -98q-248 0 -396 107q-166 124 -166 362zM475 1388l33 105q28 61 98 61q55 7 111 -40q79 -57 115 -57q15 0 24 22l7 74l93 7q-20 -116 -85 -152 q-30 -17 -54 -16q-55 -6 -109 42q-67 59 -102 59q-37 0 -40 -55l-4 -44z" />
<glyph unicode="&#x169;" horiz-adv-x="1192" d="M113 322v695h129v-679q0 -115 72 -195t185 -80q161 0 289.5 108t128.5 265v581h129v-1017h-129v192q-26 -105 -187 -177q-133 -59 -261 -59q-174 0 -265 96t-91 270zM323 1048l34 105q28 61 98 61q55 7 111 -40q79 -57 114 -58q15 0 24 23l8 74l92 7q-20 -118 -85 -153 q-28 -15 -54 -15q-55 -6 -109 42q-67 59 -101 59q-35 0 -41 -57l-4 -42z" />
<glyph unicode="&#x178;" horiz-adv-x="1094" d="M163 0v1370h835v-96h-691v-533h626v-96h-626v-549h674v-96h-818zM333 1630l33 106q28 61 98 61q55 7 111 -41q79 -57 114 -57q15 0 24 22l8 74l92 7q-20 -118 -85 -153q-28 -15 -53 -15q-55 -6 -109 42q-67 59 -102 60q-35 0 -41 -56l-3 -44zM347 1407l171 184h110 l169 -184h-78l-146 105l-148 -105h-78z" />
<glyph unicode="&#x17d;" horiz-adv-x="1465" d="M-50 656v115l227 -2v601h597q309 0 468 -169t159 -480q0 -388 -264 -590q-172 -131 -492 -131h-468v656h-227zM307 113h321q627 0 627 612q0 281 -125.5 415t-404.5 134h-418v-505l283 2v-115h-283v-543z" />
<glyph unicode="&#x17e;" horiz-adv-x="1158" d="M126 372q0 201 113.5 310t316.5 109q81 0 148 -17l48 -96l-103 6q-44 2 -85 9q-294 0 -294 -321q0 -144 98 -230q91 -79 238 -79q152 0 233 96q76 89 76 244q0 196 -135 456q-35 67 -92 158l-263 -50v107l200 41l-163 238h144l144 -203l315 70v-105l-248 -65 q229 -346 229 -629q0 -207 -107 -327q-113 -128 -316 -127q-216 0 -348 92q-150 105 -149 313z" />
<glyph unicode="&#x192;" horiz-adv-x="1192" d="M-79 0l645 1370h175l547 -1370h-162l-241 645h-530l-276 -645h-158zM386 741h466l-207 533zM421 1388l170 185h111l169 -185h-78l-146 105l-148 -105h-78zM852 1492v74l165 164h164z" />
<glyph unicode="&#x1a0;" horiz-adv-x="1609" d="M96 725q0 305 222 489q207 172 517 172q178 1 311 -51l194 35q9 26 13 48q0 30 -30 55q-31 20 -94 20q26 22 94 23q61 0 87 -15q52 -22 52 -80q0 -68 -81 -149l-61 -35l39 -36q189 -170 188 -493q0 -396 -259 -610q-159 -131 -453 -131q-357 0 -548 199.5t-191 558.5z M226 645q0 -257 160.5 -411.5t417.5 -154.5q286 0 441.5 156.5t155.5 442.5q0 275 -153.5 435.5t-426.5 160.5q-281 0 -438 -173t-157 -456z" />
<glyph unicode="&#x1a1;" horiz-adv-x="1175" d="M79 488q0 233 134 384q139 159 367 159q133 1 231 -51l113 37q9 26 13 48q0 30 -29 55q-31 20 -95 20q26 22 95 23q61 0 86 -15q52 -22 52 -80q0 -68 -81 -149l-33 -26l29 -34q126 -140 126 -369q0 -226 -131 -372q-137 -152 -361 -151q-231 0 -373.5 144t-142.5 377z M207 518q0 -179 104 -311q111 -144 284 -144q179 0 285 116q101 111 101 292q0 190 -103 322q-111 142 -298 142q-176 0 -277 -124q-96 -115 -96 -293z" />
<glyph unicode="&#x1af;" horiz-adv-x="1417" d="M146 436v934h144v-919q0 -189 117 -290q111 -98 301 -98q451 0 451 388v919h144q9 26 13 48q0 30 -30 55q-31 20 -94 20q26 22 94 23q61 0 87 -15q52 -22 52 -80q0 -68 -81 -149l-39 -10v-811q0 -270 -172 -386q-142 -98 -425 -98q-248 0 -396 107q-166 124 -166 362z " />
<glyph unicode="&#x1b0;" horiz-adv-x="1192" d="M113 322v695h129v-679q0 -115 72 -195t185 -80q161 0 289.5 108t128.5 265v581h125q9 26 13 48q0 30 -29 55q-31 20 -94 20q26 22 94 23q61 0 87 -15q52 -22 51 -80q0 -68 -81 -149l-37 -10v-909h-129v192q-26 -105 -187 -177q-133 -59 -261 -59q-174 0 -265 96t-91 270z " />
<glyph unicode="&#x2c6;" horiz-adv-x="1192" d="M113 322v695h129v-679q0 -115 72 -195t185 -80q161 0 289.5 108t128.5 265v581h125q9 26 13 48q0 30 -29 55q-31 20 -94 20q26 22 94 23q61 0 87 -15q52 -22 51 -80q0 -68 -81 -149l-37 -10v-909h-129v192q-26 -105 -187 -177q-133 -59 -261 -59q-174 0 -265 96t-91 270z M408 1244l39 98l128 28q24 -2 74 -21q41 -28 40 -59q2 -6 2 -11v-9q0 -24 -20 -56q-20 -24 -65 -112l-37 -23l-5 -66l-58 79q0 4 74 102q31 41 32 67q0 63 -85 62q-28 0 -67.5 -26.5t-51.5 -52.5z" />
<glyph unicode="&#x2c7;" horiz-adv-x="1609" d="M96 725q0 305 222 489q207 172 517 172q323 0 514 -175q198 -181 198 -503q0 -396 -259 -610q-159 -131 -453 -131q-357 0 -548 199.5t-191 558.5zM226 645q0 -257 160.5 -411.5t417.5 -154.5q286 0 441.5 156.5t155.5 442.5q0 275 -153.5 435.5t-426.5 160.5 q-281 0 -438 -173t-157 -456zM610 1408l170 185h111l168 -185h-78l-146 106l-147 -106h-78zM1041 1512v74l164 164h165z" />
<glyph unicode="&#x2d8;" horiz-adv-x="1192" d="M113 322v695h129v-679q0 -115 72 -195t185 -80q161 0 289.5 108t128.5 265v581h125q9 26 13 48q0 30 -29 55q-31 20 -94 20q26 22 94 23q61 0 87 -15q52 -22 51 -80q0 -68 -81 -149l-37 -10v-909h-129v192q-26 -105 -187 -177q-133 -59 -261 -59q-174 0 -265 96t-91 270z M447 -227l117 116l101 -103l-114 -115z" />
<glyph unicode="&#x2d9;" horiz-adv-x="950" d="M-79 -338q87 -61 160 -61q113 0 198 131q39 61 107 235l-403 1050h146l339 -921l353 921h144l-514 -1226q-126 -298 -351 -297q-74 0 -163 38zM140 1270h165l164 -165v-74z" />
<glyph unicode="&#x2da;" horiz-adv-x="950" d="M-79 -338q87 -61 160 -61q113 0 198 131q39 61 107 235l-403 1050h146l339 -921l353 921h144l-514 -1226q-126 -298 -351 -297q-74 0 -163 38zM314 1244l39 98l128 28q24 -2 74 -21q41 -28 40 -59q2 -6 2 -11v-9q0 -24 -20 -56q-20 -24 -65 -112l-37 -23l-6 -66l-57 79 q0 7 72 102q33 44 34 67q0 63 -85 62q-28 0 -68 -26.5t-51 -52.5z" />
<glyph unicode="&#x2db;" horiz-adv-x="950" d="M-79 -338q87 -61 160 -61q113 0 198 131q39 61 107 235l-403 1050h146l339 -921l353 921h144l-514 -1226q-126 -298 -351 -297q-74 0 -163 38zM540 -227l116 116l102 -103l-115 -115z" />
<glyph unicode="&#x2dc;" horiz-adv-x="1192" d="M113 322v695h129v-679q0 -115 72 -195t185 -80q161 0 289.5 108t128.5 265v581h125q9 26 13 48q0 30 -29 55q-31 20 -94 20q26 22 94 23q61 0 87 -15q52 -22 51 -80q0 -68 -81 -149l-37 -10v-909h-129v192q-26 -105 -187 -177q-133 -59 -261 -59q-174 0 -265 96t-91 270z M323 1048l34 105q28 61 98 61q55 7 111 -40q79 -57 114 -58q15 0 24 23l8 74l92 7q-20 -118 -85 -153q-28 -15 -54 -15q-55 -6 -109 42q-67 59 -101 59q-35 0 -41 -57l-4 -42z" />
<glyph unicode="&#x2dd;" horiz-adv-x="950" d="M-79 -338q87 -61 160 -61q113 0 198 131q39 61 107 235l-403 1050h146l339 -921l353 921h144l-514 -1226q-126 -298 -351 -297q-74 0 -163 38zM469 1030v73l165 165h164z" />
<glyph unicode="&#x394;" d="M63 242q0 170 190 257l359 107q192 57 192 168q0 163 -274 163q-192 0 -353 -66l15 112q177 46 327 47q414 0 414 -256v-774h-129v595q-61 -44 -238 -98q-187 -55 -252 -94q-122 -74 -122 -194q0 -109 163 -142q46 -9 100 -10q115 0 223 39l-16 -96q-105 -37 -244 -37 q-152 0 -246 63q-109 72 -109 216zM296 1288h68l155 -105l158 105h68l-152 -160q-48 -24 -72 -25q-22 0 -76 25zM418 -214l116 116l102 -103l-115 -115z" />
<glyph unicode="&#x3a9;" d="M63 242q0 170 190 257l359 107q192 57 192 168q0 163 -274 163q-192 0 -353 -66l15 112q177 46 327 47q414 0 414 -256v-774h-129v595q-61 -44 -238 -98q-187 -55 -252 -94q-122 -74 -122 -194q0 -109 163 -142q46 -9 100 -10q115 0 223 39l-16 -96q-105 -37 -244 -37 q-152 0 -246 63q-109 72 -109 216zM296 1288h68l155 -105l158 105h68l-152 -160q-48 -24 -72 -25q-22 0 -76 25zM475 1327l33 105q28 61 98 61q55 7 111 -40q79 -57 115 -57q15 0 24 22l7 74l93 7q-20 -118 -85 -153q-28 -15 -54 -15q-55 -6 -109 42q-67 59 -102 59t-40 -57 l-4 -42z" />
<glyph unicode="&#x3bc;" d="M63 242q0 170 190 257l359 107q192 57 192 168q0 163 -274 163q-192 0 -353 -66l15 112q177 46 327 47q414 0 414 -256v-774h-129v595q-61 -44 -238 -98q-187 -55 -252 -94q-122 -74 -122 -194q0 -109 163 -142q46 -9 100 -10q115 0 223 39l-16 -96q-105 -37 -244 -37 q-152 0 -246 63q-109 72 -109 216zM192 1362h165l164 -164v-74z" />
<glyph unicode="&#x3c0;" d="M63 242q0 170 190 257l359 107q192 57 192 168q0 163 -274 163q-192 0 -353 -66l15 112q177 46 327 47q414 0 414 -256v-774h-129v595q-61 -44 -238 -98q-187 -55 -252 -94q-122 -74 -122 -194q0 -109 163 -142q46 -9 100 -10q115 0 223 39l-16 -96q-105 -37 -244 -37 q-152 0 -246 63q-109 72 -109 216zM418 -214l116 116l102 -103l-115 -115z" />
<glyph unicode="&#x1ea0;" horiz-adv-x="1192" d="M-79 0l645 1370h175l547 -1370h-162l-241 645h-530l-276 -645h-158zM386 741h466l-207 533zM529 -120l116 116l102 -103l-115 -115z" />
<glyph unicode="&#x1ea1;" d="M63 242q0 170 190 257l359 107q192 57 192 168q0 163 -274 163q-192 0 -353 -66l15 112q177 46 327 47q414 0 414 -256v-774h-129v595q-61 -44 -238 -98q-187 -55 -252 -94q-122 -74 -122 -194q0 -109 163 -142q46 -9 100 -10q115 0 223 39l-16 -96q-105 -37 -244 -37 q-152 0 -246 63q-109 72 -109 216zM418 -214l116 116l102 -103l-115 -115z" />
<glyph unicode="&#x1ea2;" horiz-adv-x="1192" d="M-79 0l645 1370h175l547 -1370h-162l-241 645h-530l-276 -645h-158zM386 741h466l-207 533zM492 1656l38 98l128 28q24 -2 74 -20q41 -28 41 -60q2 -6 1 -11v-9q0 -24 -20 -55q-20 -24 -65 -113l-37 -22l-5 -67l-57 80q0 7 72 101q33 44 33 67q0 63 -85 63 q-28 0 -67.5 -27t-50.5 -53z" />
<glyph unicode="&#x1ea3;" d="M63 242q0 170 190 257l359 107q192 57 192 168q0 163 -274 163q-192 0 -353 -66l15 112q177 46 327 47q414 0 414 -256v-774h-129v595q-61 -44 -238 -98q-187 -55 -252 -94q-122 -74 -122 -194q0 -109 163 -142q46 -9 100 -10q115 0 223 39l-16 -96q-105 -37 -244 -37 q-152 0 -246 63q-109 72 -109 216zM366 1336l39 98l127 28q24 -2 74 -20q41 -28 41 -59q2 -6 2 -12v-9q0 -24 -21 -55q-20 -24 -64 -113l-37 -22l-6 -67l-57 80q0 7 72 101q33 44 33 67q0 63 -85 63q-28 0 -67.5 -27t-50.5 -53z" />
<glyph unicode="&#x1ea4;" horiz-adv-x="1192" d="M-79 0l645 1370h175l547 -1370h-162l-241 645h-530l-276 -645h-158zM386 741h466l-207 533zM421 1388l170 185h111l169 -185h-78l-146 105l-148 -105h-78zM852 1492v74l165 164h164z" />
<glyph unicode="&#x1ea5;" d="M63 242q0 170 190 257l359 107q192 57 192 168q0 163 -274 163q-192 0 -353 -66l15 112q177 46 327 47q414 0 414 -256v-774h-129v595q-61 -44 -238 -98q-187 -55 -252 -94q-122 -74 -122 -194q0 -109 163 -142q46 -9 100 -10q115 0 223 39l-16 -96q-105 -37 -244 -37 q-152 0 -246 63q-109 72 -109 216zM294 1076l170 185h111l168 -185h-78l-146 105l-147 -105h-78zM725 1179v74l164 165h165z" />
<glyph unicode="&#x1ea6;" horiz-adv-x="1192" d="M-79 0l645 1370h175l547 -1370h-162l-241 645h-530l-276 -645h-158zM115 1732h164l165 -165v-74zM386 741h466l-207 533zM421 1388l170 185h111l169 -185h-78l-146 105l-148 -105h-78z" />
<glyph unicode="&#x1ea7;" d="M-13 1420h165l164 -165v-74zM63 242q0 170 190 257l359 107q192 57 192 168q0 163 -274 163q-192 0 -353 -66l15 112q177 46 327 47q414 0 414 -256v-774h-129v595q-61 -44 -238 -98q-187 -55 -252 -94q-122 -74 -122 -194q0 -109 163 -142q46 -9 100 -10q115 0 223 39 l-16 -96q-105 -37 -244 -37q-152 0 -246 63q-109 72 -109 216zM294 1076l170 185h111l168 -185h-78l-146 105l-147 -105h-78z" />
<glyph unicode="&#x1ea8;" horiz-adv-x="1192" d="M-79 0l645 1370h175l547 -1370h-162l-241 645h-530l-276 -645h-158zM386 741h466l-207 533zM421 1388l170 185h111l169 -185h-78l-146 105l-148 -105h-78zM695 1725l39 97l127 28q24 -2 74 -20q41 -28 41 -59q2 -6 2 -11v-10q0 -24 -21 -55q-20 -24 -64 -113l-37 -22 l-6 -67l-57 80q0 4 74 102q31 41 31 66q0 63 -85 63q-28 0 -67.5 -27t-50.5 -52z" />
<glyph unicode="&#x1ea9;" d="M63 242q0 170 190 257l359 107q192 57 192 168q0 163 -274 163q-192 0 -353 -66l15 112q177 46 327 47q414 0 414 -256v-774h-129v595q-61 -44 -238 -98q-187 -55 -252 -94q-122 -74 -122 -194q0 -109 163 -142q46 -9 100 -10q115 0 223 39l-16 -96q-105 -37 -244 -37 q-152 0 -246 63q-109 72 -109 216zM296 1074l170 185h111l168 -185h-78l-146 105l-148 -105h-77zM569 1410l39 98l128 28q24 -2 74 -20q41 -28 40 -59q2 -6 2 -12v-9q0 -24 -20 -55q-20 -24 -65 -113l-37 -22l-5 -67l-58 80q0 4 74 101q31 41 32 67q0 63 -85 63 q-28 0 -68 -27t-51 -53z" />
<glyph unicode="&#x1eaa;" horiz-adv-x="1192" d="M-79 0l645 1370h175l547 -1370h-162l-241 645h-530l-276 -645h-158zM386 741h466l-207 533zM407 1612l33 105q28 61 98 61q55 7 111 -41q79 -57 114 -57q15 0 24 22l8 74l92 8q-20 -118 -85 -154q-28 -15 -53 -15q-55 -6 -109 43q-67 59 -102 59t-41 -55l-3 -45z M421 1388l170 185h111l169 -185h-78l-146 105l-148 -105h-78z" />
<glyph unicode="&#x1eab;" d="M63 242q0 170 190 257l359 107q192 57 192 168q0 163 -274 163q-192 0 -353 -66l15 112q177 46 327 47q414 0 414 -256v-774h-129v595q-61 -44 -238 -98q-187 -55 -252 -94q-122 -74 -122 -194q0 -109 163 -142q46 -9 100 -10q115 0 223 39l-16 -96q-105 -37 -244 -37 q-152 0 -246 63q-109 72 -109 216zM281 1298l33 105q28 61 98 61q55 7 111 -41q79 -57 115 -57q15 0 24 22l7 74l93 7q-20 -116 -85 -151q-30 -17 -54 -17q-55 -6 -109 43q-67 59 -102 59t-40 -57l-4 -43zM296 1074l170 185h111l168 -185h-78l-146 105l-148 -105h-77z" />
<glyph unicode="&#x1eac;" horiz-adv-x="1192" d="M-79 0l645 1370h175l547 -1370h-162l-241 645h-530l-276 -645h-158zM386 741h466l-207 533zM421 1388l170 185h111l169 -185h-78l-146 105l-148 -105h-78zM529 -120l116 116l102 -103l-115 -115z" />
<glyph unicode="&#x1ead;" d="M63 242q0 170 190 257l359 107q192 57 192 168q0 163 -274 163q-192 0 -353 -66l15 112q177 46 327 47q414 0 414 -256v-774h-129v595q-61 -44 -238 -98q-187 -55 -252 -94q-122 -74 -122 -194q0 -109 163 -142q46 -9 100 -10q115 0 223 39l-16 -96q-105 -37 -244 -37 q-152 0 -246 63q-109 72 -109 216zM294 1076l170 185h111l168 -185h-78l-146 105l-147 -105h-78zM418 -214l116 116l102 -103l-115 -115z" />
<glyph unicode="&#x1eae;" horiz-adv-x="1192" d="M-79 0l645 1370h175l547 -1370h-162l-241 645h-530l-276 -645h-158zM386 741h466l-207 533zM421 1591h69l155 -105l157 105h69l-152 -160q-48 -24 -72 -24q-22 0 -76 24zM647 1591v74l164 165h165z" />
<glyph unicode="&#x1eaf;" d="M63 242q0 170 190 257l359 107q192 57 192 168q0 163 -274 163q-192 0 -353 -66l15 112q177 46 327 47q414 0 414 -256v-774h-129v595q-61 -44 -238 -98q-187 -55 -252 -94q-122 -74 -122 -194q0 -109 163 -142q46 -9 100 -10q115 0 223 39l-16 -96q-105 -37 -244 -37 q-152 0 -246 63q-109 72 -109 216zM296 1288h68l155 -105l158 105h68l-152 -160q-48 -24 -72 -25q-22 0 -76 25zM521 1288v74l165 165h164z" />
<glyph unicode="&#x1eb0;" horiz-adv-x="1192" d="M-79 0l645 1370h175l547 -1370h-162l-241 645h-530l-276 -645h-158zM318 1830h164l165 -165v-74zM386 741h466l-207 533zM421 1591h69l155 -105l157 105h69l-152 -160q-48 -24 -72 -24q-22 0 -76 24z" />
<glyph unicode="&#x1eb1;" d="M63 242q0 170 190 257l359 107q192 57 192 168q0 163 -274 163q-192 0 -353 -66l15 112q177 46 327 47q414 0 414 -256v-774h-129v595q-61 -44 -238 -98q-187 -55 -252 -94q-122 -74 -122 -194q0 -109 163 -142q46 -9 100 -10q115 0 223 39l-16 -96q-105 -37 -244 -37 q-152 0 -246 63q-109 72 -109 216zM192 1527h165l164 -165v-74zM296 1288h68l155 -105l158 105h68l-152 -160q-48 -24 -72 -25q-22 0 -76 25z" />
<glyph unicode="&#x1eb2;" horiz-adv-x="1192" d="M-79 0l645 1370h175l547 -1370h-162l-241 645h-530l-276 -645h-158zM386 741h466l-207 533zM421 1591h69l155 -105l157 105h69l-152 -160q-48 -24 -72 -24q-22 0 -76 24zM492 1804l38 98l128 28q24 -2 74 -21q41 -28 41 -59q2 -6 1 -11v-9q0 -24 -20 -56 q-20 -24 -65 -112l-37 -22l-5 -67l-57 79q0 7 72 102q33 44 33 67q0 63 -85 62q-28 0 -67.5 -26.5t-50.5 -52.5z" />
<glyph unicode="&#x1eb3;" d="M63 242q0 170 190 257l359 107q192 57 192 168q0 163 -274 163q-192 0 -353 -66l15 112q177 46 327 47q414 0 414 -256v-774h-129v595q-61 -44 -238 -98q-187 -55 -252 -94q-122 -74 -122 -194q0 -109 163 -142q46 -9 100 -10q115 0 223 39l-16 -96q-105 -37 -244 -37 q-152 0 -246 63q-109 72 -109 216zM296 1290h68l155 -105l158 105h68l-152 -161q-48 -24 -72 -24q-22 0 -76 24zM366 1503l39 98l127 27q24 -2 74 -20q41 -28 41 -59q2 -6 2 -11v-9q0 -24 -21 -56q-20 -24 -64 -113l-37 -22l-6 -66l-57 79q0 7 72 102q33 44 33 66 q0 63 -85 63q-28 0 -67.5 -26.5t-50.5 -52.5z" />
<glyph unicode="&#x1eb4;" horiz-adv-x="1192" d="M-79 0l645 1370h175l547 -1370h-162l-241 645h-530l-276 -645h-158zM386 741h466l-207 533zM421 1591h69l155 -105l157 105h69l-152 -160q-48 -24 -72 -24q-22 0 -76 24zM601 1630l33 106q28 61 98 61q55 7 111 -41q79 -57 114 -57q15 0 24 22l8 74l92 7 q-20 -118 -85 -153q-28 -15 -53 -15q-55 -6 -109 42q-67 59 -102 60q-37 0 -41 -56l-3 -44z" />
<glyph unicode="&#x1eb5;" d="M63 242q0 170 190 257l359 107q192 57 192 168q0 163 -274 163q-192 0 -353 -66l15 112q177 46 327 47q414 0 414 -256v-774h-129v595q-61 -44 -238 -98q-187 -55 -252 -94q-122 -74 -122 -194q0 -109 163 -142q46 -9 100 -10q115 0 223 39l-16 -96q-105 -37 -244 -37 q-152 0 -246 63q-109 72 -109 216zM296 1288h68l155 -105l158 105h68l-152 -160q-48 -24 -72 -25q-22 0 -76 25zM475 1327l33 105q28 61 98 61q55 7 111 -40q79 -57 115 -57q15 0 24 22l7 74l93 7q-20 -118 -85 -153q-28 -15 -54 -15q-55 -6 -109 42q-67 59 -102 59t-40 -57 l-4 -42z" />
<glyph unicode="&#x1eb6;" horiz-adv-x="1192" d="M-79 0l645 1370h175l547 -1370h-162l-241 645h-530l-276 -645h-158zM386 741h466l-207 533zM421 1591h69l155 -105l157 105h69l-152 -160q-48 -24 -72 -24q-22 0 -76 24zM529 -120l116 116l102 -103l-115 -115z" />
<glyph unicode="&#x1eb7;" d="M63 242q0 170 190 257l359 107q192 57 192 168q0 163 -274 163q-192 0 -353 -66l15 112q177 46 327 47q414 0 414 -256v-774h-129v595q-61 -44 -238 -98q-187 -55 -252 -94q-122 -74 -122 -194q0 -109 163 -142q46 -9 100 -10q115 0 223 39l-16 -96q-105 -37 -244 -37 q-152 0 -246 63q-109 72 -109 216zM296 1288h68l155 -105l158 105h68l-152 -160q-48 -24 -72 -25q-22 0 -76 25zM418 -214l116 116l102 -103l-115 -115z" />
<glyph unicode="&#x1eb8;" horiz-adv-x="1094" d="M163 0v1370h835v-96h-691v-533h626v-96h-626v-549h674v-96h-818zM455 -194l116 116l102 -103l-115 -115z" />
<glyph unicode="&#x1eb9;" d="M79 516q0 235 124 379q131 153 363 153q176 0 303 -122.5t116 -298.5l-4 -61h-772q0 -501 394 -501q104 0 227 35q26 7 87 29l-15 -112q-165 -48 -298 -48q-255 0 -391 147q-133 142 -134 400zM226 645h626q0 137 -66 218q-72 89 -206 89q-165 0 -246 -71t-108 -236z M488 -222l116 117l102 -104l-115 -114z" />
<glyph unicode="&#x1eba;" horiz-adv-x="1094" d="M163 0v1370h835v-96h-691v-533h626v-96h-626v-549h674v-96h-818zM418 1658l39 98l127 28q24 -2 74 -21q41 -28 41 -59q2 -6 2 -11v-9q0 -24 -21 -56q-20 -24 -64 -112l-37 -23l-6 -66l-57 79q0 7 72 102q33 44 33 67q0 63 -85 62q-28 0 -67.5 -26.5t-50.5 -52.5z" />
<glyph unicode="&#x1ebb;" d="M79 516q0 235 124 379q131 153 363 153q176 0 303 -122.5t116 -298.5l-4 -61h-772q0 -501 394 -501q104 0 227 35q26 7 87 29l-15 -112q-165 -48 -298 -48q-255 0 -391 147q-133 142 -134 400zM226 645h626q0 137 -66 218q-72 89 -206 89q-165 0 -246 -71t-108 -236z M408 1355l39 98l128 28q24 -2 74 -21q41 -28 40 -59q2 -6 2 -11v-9q0 -24 -20 -56q-20 -24 -65 -112l-37 -23l-5 -66l-58 79q0 4 74 102q31 41 32 66q0 63 -85 63q-28 0 -67.5 -26.5t-51.5 -52.5z" />
<glyph unicode="&#x1ebc;" horiz-adv-x="1094" d="M163 0v1370h835v-96h-691v-533h626v-96h-626v-549h674v-96h-818zM333 1445l33 106q28 61 98 61q55 7 111 -41q79 -57 114 -57q15 0 24 22l8 74l92 7q-20 -118 -85 -153q-28 -15 -53 -15q-55 -6 -109 43q-67 59 -102 59t-41 -58l-3 -42z" />
<glyph unicode="&#x1ebd;" d="M79 516q0 235 124 379q131 153 363 153q176 0 303 -122.5t116 -298.5l-4 -61h-772q0 -501 394 -501q104 0 227 35q26 7 87 29l-15 -112q-165 -48 -298 -48q-255 0 -391 147q-133 142 -134 400zM226 645h626q0 137 -66 218q-72 89 -206 89q-165 0 -246 -71t-108 -236z M323 1142l34 106q28 61 98 61q55 7 111 -41q79 -57 114 -57q15 0 24 22l8 74l92 7q-20 -116 -85 -151q-30 -17 -54 -17q-55 -6 -109 43q-67 59 -101 59q-37 0 -41 -56l-4 -44z" />
<glyph unicode="&#x1ebe;" horiz-adv-x="1094" d="M163 0v1370h835v-96h-691v-533h626v-96h-626v-549h674v-96h-818zM346 1407l170 184h111l168 -184h-78l-146 105l-148 -105h-77zM776 1510v74l165 165h164z" />
<glyph unicode="&#x1ebf;" d="M79 516q0 235 124 379q131 153 363 153q176 0 303 -122.5t116 -298.5l-4 -61h-772q0 -501 394 -501q104 0 227 35q26 7 87 29l-15 -112q-165 -48 -298 -48q-255 0 -391 147q-133 142 -134 400zM226 645h626q0 137 -66 218q-72 89 -206 89q-165 0 -246 -71t-108 -236z M338 1076l170 185h111l168 -185h-77l-146 105l-148 -105h-78zM769 1179v74l164 165h165z" />
<glyph unicode="&#x1ec0;" horiz-adv-x="1094" d="M41 1750h164l165 -164v-74zM163 0v1370h835v-96h-691v-533h626v-96h-626v-549h674v-96h-818zM347 1407l171 184h110l169 -184h-78l-146 105l-148 -105h-78z" />
<glyph unicode="&#x1ec1;" d="M31 1420h165l164 -165v-74zM79 516q0 235 124 379q131 153 363 153q176 0 303 -122.5t116 -298.5l-4 -61h-772q0 -501 394 -501q104 0 227 35q26 7 87 29l-15 -112q-165 -48 -298 -48q-255 0 -391 147q-133 142 -134 400zM226 645h626q0 137 -66 218q-72 89 -206 89 q-165 0 -246 -71t-108 -236zM338 1076l170 185h111l168 -185h-77l-146 105l-148 -105h-78z" />
<glyph unicode="&#x1ec2;" horiz-adv-x="1094" d="M163 0v1370h835v-96h-691v-533h626v-96h-626v-549h674v-96h-818zM347 1407l171 184h110l169 -184h-78l-146 105l-148 -105h-78zM621 1743l39 98l127 28q24 -2 74 -21q41 -28 41 -59q2 -6 2 -11v-9q0 -24 -20 -56q-20 -24 -65 -112l-37 -22l-6 -67l-57 79q0 4 74 102 q31 41 31 67q0 63 -85 62q-28 0 -67.5 -26.5t-50.5 -52.5z" />
<glyph unicode="&#x1ec3;" d="M79 516q0 235 124 379q131 153 363 153q176 0 303 -122.5t116 -298.5l-4 -61h-772q0 -501 394 -501q104 0 227 35q26 7 87 29l-15 -112q-165 -48 -298 -48q-255 0 -391 147q-133 142 -134 400zM226 645h626q0 137 -66 218q-72 89 -206 89q-165 0 -246 -71t-108 -236z M338 1074l170 185h111l168 -185h-77l-146 105l-148 -105h-78zM612 1410l39 98l127 28q24 -2 74 -20q41 -28 41 -59q2 -6 2 -12v-9q0 -24 -21 -55q-20 -24 -64 -113l-37 -22l-6 -67l-57 80q0 4 74 101q31 41 31 67q0 63 -85 63q-28 0 -67.5 -27t-50.5 -53z" />
<glyph unicode="&#x1ec4;" horiz-adv-x="1094" d="M163 0v1370h835v-96h-691v-533h626v-96h-626v-549h674v-96h-818zM333 1630l33 106q28 61 98 61q55 7 111 -41q79 -57 114 -57q15 0 24 22l8 74l92 7q-20 -118 -85 -153q-28 -15 -53 -15q-55 -6 -109 42q-67 59 -102 60q-35 0 -41 -56l-3 -44zM347 1407l171 184h110 l169 -184h-78l-146 105l-148 -105h-78z" />
<glyph unicode="&#x1ec5;" d="M79 516q0 235 124 379q131 153 363 153q176 0 303 -122.5t116 -298.5l-4 -61h-772q0 -501 394 -501q104 0 227 35q26 7 87 29l-15 -112q-165 -48 -298 -48q-255 0 -391 147q-133 142 -134 400zM226 645h626q0 137 -66 218q-72 89 -206 89q-165 0 -246 -71t-108 -236z M323 1299l34 106q28 61 98 61q55 7 111 -41q79 -57 114 -57q15 0 24 22l8 74l92 7q-20 -116 -85 -151q-30 -17 -54 -17q-55 -6 -109 43q-67 59 -101 59q-37 0 -41 -56l-4 -44zM338 1076l170 185h111l168 -185h-77l-146 105l-148 -105h-78z" />
<glyph unicode="&#x1ec6;" horiz-adv-x="1094" d="M163 0v1370h835v-96h-691v-533h626v-96h-626v-549h674v-96h-818zM346 1407l170 184h111l168 -184h-78l-146 105l-148 -105h-77zM455 -194l116 116l102 -103l-115 -115z" />
<glyph unicode="&#x1ec7;" d="M79 516q0 235 124 379q131 153 363 153q176 0 303 -122.5t116 -298.5l-4 -61h-772q0 -501 394 -501q104 0 227 35q26 7 87 29l-15 -112q-165 -48 -298 -48q-255 0 -391 147q-133 142 -134 400zM226 645h626q0 137 -66 218q-72 89 -206 89q-165 0 -246 -71t-108 -236z M338 1076l170 185h111l168 -185h-77l-146 105l-148 -105h-78zM488 -222l116 117l102 -104l-115 -114z" />
<glyph unicode="&#x1ec8;" horiz-adv-x="451" d="M61 1656l39 98l127 28q24 -2 74 -20q41 -28 41 -60q2 -6 2 -11v-9q0 -24 -21 -55q-20 -24 -64 -113l-37 -22l-6 -67l-57 80q0 7 72 101q33 44 33 67q0 63 -85 63q-28 0 -67.5 -27t-50.5 -53zM146 0v1370h144v-1370h-144z" />
<glyph unicode="&#x1ec9;" horiz-adv-x="419" d="M55 1318l39 98l128 28q24 -2 74 -21q41 -28 40 -59q2 -6 2 -11v-9q0 -24 -20 -56q-20 -24 -65 -112l-37 -23l-5 -66l-58 79q0 4 74 102q31 41 32 67q0 63 -85 62q-28 0 -67.5 -26.5t-51.5 -52.5zM146 0v1017h128v-1017h-128z" />
<glyph unicode="&#x1eca;" horiz-adv-x="451" d="M100 -224l116 117l102 -104l-115 -114zM146 0v1370h144v-1370h-144z" />
<glyph unicode="&#x1ecb;" horiz-adv-x="419" d="M94 -196l117 117l101 -104l-114 -115zM129 1109v129h161v-129h-161zM146 0v1017h128v-1017h-128z" />
<glyph unicode="&#x1ecc;" horiz-adv-x="1609" d="M96 725q0 305 222 489q207 172 517 172q323 0 514 -175q198 -181 198 -503q0 -396 -259 -610q-159 -131 -453 -131q-357 0 -548 199.5t-191 558.5zM226 645q0 -257 160.5 -411.5t417.5 -154.5q286 0 441.5 156.5t155.5 442.5q0 275 -153.5 435.5t-426.5 160.5 q-281 0 -438 -173t-157 -456zM717 -224l117 117l101 -104l-114 -114z" />
<glyph unicode="&#x1ecd;" horiz-adv-x="1175" d="M79 488q0 233 134 384q139 159 367 159q229 0 370 -159q137 -151 137 -382q0 -226 -131 -372q-137 -152 -361 -151q-231 0 -373.5 144t-142.5 377zM207 518q0 -179 104 -311q111 -144 284 -144q179 0 285 116q101 111 101 292q0 190 -103 322q-111 142 -298 142 q-176 0 -277 -124q-96 -115 -96 -293zM479 -224l116 117l102 -104l-115 -114z" />
<glyph unicode="&#x1ece;" horiz-adv-x="1609" d="M96 725q0 305 222 489q207 172 517 172q323 0 514 -175q198 -181 198 -503q0 -396 -259 -610q-159 -131 -453 -131q-357 0 -548 199.5t-191 558.5zM226 645q0 -257 160.5 -411.5t417.5 -154.5q286 0 441.5 156.5t155.5 442.5q0 275 -153.5 435.5t-426.5 160.5 q-281 0 -438 -173t-157 -456zM680 1673l39 98l128 27q24 -2 73 -20q41 -28 41 -59q2 -6 2 -11v-9q0 -24 -20 -56q-20 -24 -65 -113l-37 -22l-6 -66l-57 79q0 4 74 102q31 41 32 66q0 63 -86 63q-28 0 -67.5 -26.5t-50.5 -52.5z" />
<glyph unicode="&#x1ecf;" horiz-adv-x="1175" d="M79 488q0 233 134 384q139 159 367 159q229 0 370 -159q137 -151 137 -382q0 -226 -131 -372q-137 -152 -361 -151q-231 0 -373.5 144t-142.5 377zM207 518q0 -179 104 -311q111 -144 284 -144q179 0 285 116q101 111 101 292q0 190 -103 322q-111 142 -298 142 q-176 0 -277 -124q-96 -115 -96 -293zM427 1336l39 98l127 28q24 -2 74 -20q41 -28 41 -59q2 -6 2 -12v-9q0 -24 -21 -55q-20 -24 -64 -113l-37 -22l-6 -67l-57 80q0 4 74 101q31 41 31 67q0 63 -85 63q-28 0 -67.5 -27t-50.5 -53z" />
<glyph unicode="&#x1ed0;" horiz-adv-x="1609" d="M96 725q0 305 222 489q207 172 517 172q323 0 514 -175q198 -181 198 -503q0 -396 -259 -610q-159 -131 -453 -131q-357 0 -548 199.5t-191 558.5zM226 645q0 -257 160.5 -411.5t417.5 -154.5q286 0 441.5 156.5t155.5 442.5q0 275 -153.5 435.5t-426.5 160.5 q-281 0 -438 -173t-157 -456zM610 1408l170 185h111l168 -185h-78l-146 106l-147 -106h-78zM1041 1512v74l164 164h165z" />
<glyph unicode="&#x1ed1;" horiz-adv-x="1175" d="M79 488q0 233 134 384q139 159 367 159q229 0 370 -159q137 -151 137 -382q0 -226 -131 -372q-137 -152 -361 -151q-231 0 -373.5 144t-142.5 377zM207 518q0 -179 104 -311q111 -144 284 -144q179 0 285 116q101 111 101 292q0 190 -103 322q-111 142 -298 142 q-176 0 -277 -124q-96 -115 -96 -293zM355 1076l170 185h111l168 -185h-78l-146 105l-147 -105h-78zM786 1179v74l164 165h165z" />
<glyph unicode="&#x1ed2;" horiz-adv-x="1609" d="M96 725q0 305 222 489q207 172 517 172q323 0 514 -175q198 -181 198 -503q0 -396 -259 -610q-159 -131 -453 -131q-357 0 -548 199.5t-191 558.5zM226 645q0 -257 160.5 -411.5t417.5 -154.5q286 0 441.5 156.5t155.5 442.5q0 275 -153.5 435.5t-426.5 160.5 q-281 0 -438 -173t-157 -456zM303 1752h165l164 -164v-74zM610 1408l170 185h111l168 -185h-78l-146 106l-147 -106h-78z" />
<glyph unicode="&#x1ed3;" horiz-adv-x="1175" d="M50 1420h164l165 -165v-74zM79 488q0 233 134 384q139 159 367 159q229 0 370 -159q137 -151 137 -382q0 -226 -131 -372q-137 -152 -361 -151q-231 0 -373.5 144t-142.5 377zM207 518q0 -179 104 -311q111 -144 284 -144q179 0 285 116q101 111 101 292q0 190 -103 322 q-111 142 -298 142q-176 0 -277 -124q-96 -115 -96 -293zM357 1076l170 185h111l168 -185h-78l-146 105l-148 -105h-77z" />
<glyph unicode="&#x1ed4;" horiz-adv-x="1609" d="M96 725q0 305 222 489q207 172 517 172q323 0 514 -175q198 -181 198 -503q0 -396 -259 -610q-159 -131 -453 -131q-357 0 -548 199.5t-191 558.5zM226 645q0 -257 160.5 -411.5t417.5 -154.5q286 0 441.5 156.5t155.5 442.5q0 275 -153.5 435.5t-426.5 160.5 q-281 0 -438 -173t-157 -456zM610 1407l170 184h111l168 -184h-78l-146 105l-147 -105h-78zM884 1743l38 98l128 28q24 -2 74 -21q41 -28 40 -59q2 -6 2 -11v-9q0 -24 -20 -56q-20 -24 -65 -112l-37 -22l-5 -67l-58 79q0 4 74 102q31 41 32 67q0 63 -85 62 q-28 0 -67.5 -26.5t-50.5 -52.5z" />
<glyph unicode="&#x1ed5;" horiz-adv-x="1175" d="M79 488q0 233 134 384q139 159 367 159q229 0 370 -159q137 -151 137 -382q0 -226 -131 -372q-137 -152 -361 -151q-231 0 -373.5 144t-142.5 377zM207 518q0 -179 104 -311q111 -144 284 -144q179 0 285 116q101 111 101 292q0 190 -103 322q-111 142 -298 142 q-176 0 -277 -124q-96 -115 -96 -293zM357 1074l170 185h111l168 -185h-78l-146 105l-148 -105h-77zM630 1410l39 98l128 28q24 -2 74 -20q41 -28 40 -59q2 -6 2 -12v-9q0 -24 -20 -55q-20 -24 -65 -113l-37 -22l-5 -67l-58 80q0 4 74 101q31 41 32 67q0 63 -85 63 q-28 0 -68 -27t-51 -53z" />
<glyph unicode="&#x1ed6;" horiz-adv-x="1609" d="M96 725q0 305 222 489q207 172 517 172q323 0 514 -175q198 -181 198 -503q0 -396 -259 -610q-159 -131 -453 -131q-357 0 -548 199.5t-191 558.5zM226 645q0 -257 160.5 -411.5t417.5 -154.5q286 0 441.5 156.5t155.5 442.5q0 275 -153.5 435.5t-426.5 160.5 q-281 0 -438 -173t-157 -456zM595 1630l33 106q28 61 98 61q55 7 111 -41q79 -57 115 -57q15 0 24 22l7 74l93 7q-20 -116 -87 -153q-28 -15 -52 -15q-55 -6 -109 42q-67 59 -102 60q-35 0 -40 -56l-4 -44zM610 1407l170 184h111l168 -184h-78l-146 105l-147 -105h-78z" />
<glyph unicode="&#x1ed7;" horiz-adv-x="1175" d="M79 488q0 233 134 384q139 159 367 159q229 0 370 -159q137 -151 137 -382q0 -226 -131 -372q-137 -152 -361 -151q-231 0 -373.5 144t-142.5 377zM207 518q0 -179 104 -311q111 -144 284 -144q179 0 285 116q101 111 101 292q0 190 -103 322q-111 142 -298 142 q-176 0 -277 -124q-96 -115 -96 -293zM338 1299l34 106q28 61 97 61q55 7 111 -41q79 -57 115 -57q15 0 24 22l7 74l93 7q-20 -116 -85 -151q-30 -17 -54 -17q-55 -6 -109 43q-67 59 -102 59q-37 0 -40 -56l-4 -44zM353 1076l170 185h111l168 -185h-77l-146 105l-148 -105 h-78z" />
<glyph unicode="&#x1ed8;" horiz-adv-x="1609" d="M96 725q0 305 222 489q207 172 517 172q323 0 514 -175q198 -181 198 -503q0 -396 -259 -610q-159 -131 -453 -131q-357 0 -548 199.5t-191 558.5zM226 645q0 -257 160.5 -411.5t417.5 -154.5q286 0 441.5 156.5t155.5 442.5q0 275 -153.5 435.5t-426.5 160.5 q-281 0 -438 -173t-157 -456zM610 1408l170 185h111l168 -185h-78l-146 106l-147 -106h-78zM717 -224l117 117l101 -104l-114 -114z" />
<glyph unicode="&#x1ed9;" horiz-adv-x="1175" d="M79 488q0 233 134 384q139 159 367 159q229 0 370 -159q137 -151 137 -382q0 -226 -131 -372q-137 -152 -361 -151q-231 0 -373.5 144t-142.5 377zM207 518q0 -179 104 -311q111 -144 284 -144q179 0 285 116q101 111 101 292q0 190 -103 322q-111 142 -298 142 q-176 0 -277 -124q-96 -115 -96 -293zM355 1076l170 185h111l168 -185h-78l-146 105l-147 -105h-78zM479 -224l116 117l102 -104l-115 -114z" />
<glyph unicode="&#x1eda;" horiz-adv-x="1609" d="M96 725q0 305 222 489q207 172 517 172q178 1 311 -51l194 35q9 26 13 48q0 30 -30 55q-31 20 -94 20q26 22 94 23q61 0 87 -15q52 -22 52 -80q0 -68 -81 -149l-61 -35l39 -36q189 -170 188 -493q0 -396 -259 -610q-159 -131 -453 -131q-357 0 -548 199.5t-191 558.5z M226 645q0 -257 160.5 -411.5t417.5 -154.5q286 0 441.5 156.5t155.5 442.5q0 275 -153.5 435.5t-426.5 160.5q-281 0 -438 -173t-157 -456zM834 1460v74l164 165h165z" />
<glyph unicode="&#x1edb;" horiz-adv-x="1175" d="M79 488q0 233 134 384q139 159 367 159q133 1 231 -51l113 37q9 26 13 48q0 30 -29 55q-31 20 -95 20q26 22 95 23q61 0 86 -15q52 -22 52 -80q0 -68 -81 -149l-33 -26l29 -34q126 -140 126 -369q0 -226 -131 -372q-137 -152 -361 -151q-231 0 -373.5 144t-142.5 377z M207 518q0 -179 104 -311q111 -144 284 -144q179 0 285 116q101 111 101 292q0 190 -103 322q-111 142 -298 142q-176 0 -277 -124q-96 -115 -96 -293zM582 1122v74l165 164h164z" />
<glyph unicode="&#x1edc;" horiz-adv-x="1609" d="M96 725q0 305 222 489q207 172 517 172q178 1 311 -51l194 35q9 26 13 48q0 30 -30 55q-31 20 -94 20q26 22 94 23q61 0 87 -15q52 -22 52 -80q0 -68 -81 -149l-61 -35l39 -36q189 -170 188 -493q0 -396 -259 -610q-159 -131 -453 -131q-357 0 -548 199.5t-191 558.5z M226 645q0 -257 160.5 -411.5t417.5 -154.5q286 0 441.5 156.5t155.5 442.5q0 275 -153.5 435.5t-426.5 160.5q-281 0 -438 -173t-157 -456zM506 1699h165l164 -165v-74z" />
<glyph unicode="&#x1edd;" horiz-adv-x="1175" d="M79 488q0 233 134 384q139 159 367 159q133 1 231 -51l113 37q9 26 13 48q0 30 -29 55q-31 20 -95 20q26 22 95 23q61 0 86 -15q52 -22 52 -80q0 -68 -81 -149l-33 -26l29 -34q126 -140 126 -369q0 -226 -131 -372q-137 -152 -361 -151q-231 0 -373.5 144t-142.5 377z M207 518q0 -179 104 -311q111 -144 284 -144q179 0 285 116q101 111 101 292q0 190 -103 322q-111 142 -298 142q-176 0 -277 -124q-96 -115 -96 -293zM253 1362h165l164 -164v-74z" />
<glyph unicode="&#x1ede;" horiz-adv-x="1609" d="M96 725q0 305 222 489q207 172 517 172q178 1 311 -51l194 35q9 26 13 48q0 30 -30 55q-31 20 -94 20q26 22 94 23q61 0 87 -15q52 -22 52 -80q0 -68 -81 -149l-61 -35l39 -36q189 -170 188 -493q0 -396 -259 -610q-159 -131 -453 -131q-357 0 -548 199.5t-191 558.5z M226 645q0 -257 160.5 -411.5t417.5 -154.5q286 0 441.5 156.5t155.5 442.5q0 275 -153.5 435.5t-426.5 160.5q-281 0 -438 -173t-157 -456zM680 1673l39 98l128 27q24 -2 73 -20q41 -28 41 -59q2 -6 2 -11v-9q0 -24 -20 -56q-20 -24 -65 -113l-37 -22l-6 -66l-57 79 q0 4 74 102q31 41 32 66q0 63 -86 63q-28 0 -67.5 -26.5t-50.5 -52.5z" />
<glyph unicode="&#x1edf;" horiz-adv-x="1175" d="M79 488q0 233 134 384q139 159 367 159q133 1 231 -51l113 37q9 26 13 48q0 30 -29 55q-31 20 -95 20q26 22 95 23q61 0 86 -15q52 -22 52 -80q0 -68 -81 -149l-33 -26l29 -34q126 -140 126 -369q0 -226 -131 -372q-137 -152 -361 -151q-231 0 -373.5 144t-142.5 377z M207 518q0 -179 104 -311q111 -144 284 -144q179 0 285 116q101 111 101 292q0 190 -103 322q-111 142 -298 142q-176 0 -277 -124q-96 -115 -96 -293zM427 1336l39 98l127 28q24 -2 74 -20q41 -28 41 -59q2 -6 2 -12v-9q0 -24 -21 -55q-20 -24 -64 -113l-37 -22l-6 -67 l-57 80q0 4 74 101q31 41 31 67q0 63 -85 63q-28 0 -67.5 -27t-50.5 -53z" />
<glyph unicode="&#x1ee0;" horiz-adv-x="1609" d="M96 725q0 305 222 489q207 172 517 172q178 1 311 -51l194 35q9 26 13 48q0 30 -30 55q-31 20 -94 20q26 22 94 23q61 0 87 -15q52 -22 52 -80q0 -68 -81 -149l-61 -35l39 -36q189 -170 188 -493q0 -396 -259 -610q-159 -131 -453 -131q-357 0 -548 199.5t-191 558.5z M226 645q0 -257 160.5 -411.5t417.5 -154.5q286 0 441.5 156.5t155.5 442.5q0 275 -153.5 435.5t-426.5 160.5q-281 0 -438 -173t-157 -456zM595 1464l33 105q28 61 98 61q55 7 111 -40q79 -57 115 -58q15 0 24 22l7 74l93 8q-20 -116 -87 -154q-28 -15 -52 -14 q-55 -6 -109 42q-67 59 -102 59t-40 -57l-4 -43z" />
<glyph unicode="&#x1ee1;" horiz-adv-x="1175" d="M79 488q0 233 134 384q139 159 367 159q133 1 231 -51l113 37q9 26 13 48q0 30 -29 55q-31 20 -95 20q26 22 95 23q61 0 86 -15q52 -22 52 -80q0 -68 -81 -149l-33 -26l29 -34q126 -140 126 -369q0 -226 -131 -372q-137 -152 -361 -151q-231 0 -373.5 144t-142.5 377z M207 518q0 -179 104 -311q111 -144 284 -144q179 0 285 116q101 111 101 292q0 190 -103 322q-111 142 -298 142q-176 0 -277 -124q-96 -115 -96 -293zM338 1122l34 105q28 61 97 61q55 7 111 -40q79 -57 115 -58q15 0 24 23l7 73l93 8q-20 -118 -85 -154q-28 -15 -54 -14 q-55 -6 -109 42q-67 59 -102 59t-40 -57l-4 -42z" />
<glyph unicode="&#x1ee2;" horiz-adv-x="1609" d="M96 725q0 305 222 489q207 172 517 172q178 1 311 -51l194 35q9 26 13 48q0 30 -30 55q-31 20 -94 20q26 22 94 23q61 0 87 -15q52 -22 52 -80q0 -68 -81 -149l-61 -35l39 -36q189 -170 188 -493q0 -396 -259 -610q-159 -131 -453 -131q-357 0 -548 199.5t-191 558.5z M226 645q0 -257 160.5 -411.5t417.5 -154.5q286 0 441.5 156.5t155.5 442.5q0 275 -153.5 435.5t-426.5 160.5q-281 0 -438 -173t-157 -456zM717 -224l117 117l101 -104l-114 -114z" />
<glyph unicode="&#x1ee3;" horiz-adv-x="1175" d="M79 488q0 233 134 384q139 159 367 159q133 1 231 -51l113 37q9 26 13 48q0 30 -29 55q-31 20 -95 20q26 22 95 23q61 0 86 -15q52 -22 52 -80q0 -68 -81 -149l-33 -26l29 -34q126 -140 126 -369q0 -226 -131 -372q-137 -152 -361 -151q-231 0 -373.5 144t-142.5 377z M207 518q0 -179 104 -311q111 -144 284 -144q179 0 285 116q101 111 101 292q0 190 -103 322q-111 142 -298 142q-176 0 -277 -124q-96 -115 -96 -293zM479 -224l116 117l102 -104l-115 -114z" />
<glyph unicode="&#x1ee4;" horiz-adv-x="1417" d="M146 436v934h144v-919q0 -189 117 -290q111 -98 301 -98q451 0 451 388v919h146v-919q0 -270 -172 -386q-142 -98 -425 -98q-248 0 -396 107q-166 124 -166 362zM591 -224l117 117l102 -104l-115 -114z" />
<glyph unicode="&#x1ee5;" horiz-adv-x="1192" d="M113 322v695h129v-679q0 -115 72 -195t185 -80q161 0 289.5 108t128.5 265v581h129v-1017h-129v192q-26 -105 -187 -177q-133 -59 -261 -59q-174 0 -265 96t-91 270zM447 -227l117 116l101 -103l-114 -115z" />
<glyph unicode="&#x1ee6;" horiz-adv-x="1417" d="M146 436v934h144v-919q0 -189 117 -290q111 -98 301 -98q451 0 451 388v919h146v-919q0 -270 -172 -386q-142 -98 -425 -98q-248 0 -396 107q-166 124 -166 362zM562 1582l39 98l127 28q24 -2 74 -20q41 -28 41 -60q2 -6 2 -11v-9q0 -24 -21 -55q-20 -24 -64 -113 l-37 -22l-6 -67l-57 80q0 4 74 101q31 41 31 67q0 63 -85 63q-28 0 -67.5 -27t-50.5 -53z" />
<glyph unicode="&#x1ee7;" horiz-adv-x="1192" d="M113 322v695h129v-679q0 -115 72 -195t185 -80q161 0 289.5 108t128.5 265v581h129v-1017h-129v192q-26 -105 -187 -177q-133 -59 -261 -59q-174 0 -265 96t-91 270zM408 1244l39 98l128 28q24 -2 74 -21q41 -28 40 -59q2 -6 2 -11v-9q0 -24 -20 -56q-20 -24 -65 -112 l-37 -23l-5 -66l-58 79q0 4 74 102q31 41 32 67q0 63 -85 62q-28 0 -67.5 -26.5t-51.5 -52.5z" />
<glyph unicode="&#x1ee8;" horiz-adv-x="1417" d="M146 436v934h144v-919q0 -189 117 -290q111 -98 301 -98q451 0 451 388v919h144q9 26 13 48q0 30 -30 55q-31 20 -94 20q26 22 94 23q61 0 87 -15q52 -22 52 -80q0 -68 -81 -149l-39 -10v-811q0 -270 -172 -386q-142 -98 -425 -98q-248 0 -396 107q-166 124 -166 362z M717 1371v74l165 165h164z" />
<glyph unicode="&#x1ee9;" horiz-adv-x="1192" d="M113 322v695h129v-679q0 -115 72 -195t185 -80q161 0 289.5 108t128.5 265v581h125q9 26 13 48q0 30 -29 55q-31 20 -94 20q26 22 94 23q61 0 87 -15q52 -22 51 -80q0 -68 -81 -149l-37 -10v-909h-129v192q-26 -105 -187 -177q-133 -59 -261 -59q-174 0 -265 96t-91 270z M564 1030v73l164 165h165z" />
<glyph unicode="&#x1eea;" horiz-adv-x="1417" d="M146 436v934h144v-919q0 -189 117 -290q111 -98 301 -98q451 0 451 388v919h144q9 26 13 48q0 30 -30 55q-31 20 -94 20q26 22 94 23q61 0 87 -15q52 -22 52 -80q0 -68 -81 -149l-39 -10v-811q0 -270 -172 -386q-142 -98 -425 -98q-248 0 -396 107q-166 124 -166 362z M388 1608h165l164 -164v-74z" />
<glyph unicode="&#x1eeb;" horiz-adv-x="1192" d="M113 322v695h129v-679q0 -115 72 -195t185 -80q161 0 289.5 108t128.5 265v581h125q9 26 13 48q0 30 -29 55q-31 20 -94 20q26 22 94 23q61 0 87 -15q52 -22 51 -80q0 -68 -81 -149l-37 -10v-909h-129v192q-26 -105 -187 -177q-133 -59 -261 -59q-174 0 -265 96t-91 270z M235 1270h164l165 -165v-74z" />
<glyph unicode="&#x1eec;" horiz-adv-x="1417" d="M146 436v934h144v-919q0 -189 117 -290q111 -98 301 -98q451 0 451 388v919h144q9 26 13 48q0 30 -30 55q-31 20 -94 20q26 22 94 23q61 0 87 -15q52 -22 52 -80q0 -68 -81 -149l-39 -10v-811q0 -270 -172 -386q-142 -98 -425 -98q-248 0 -396 107q-166 124 -166 362z M562 1582l39 98l127 28q24 -2 74 -20q41 -28 41 -60q2 -6 2 -11v-9q0 -24 -21 -55q-20 -24 -64 -113l-37 -22l-6 -67l-57 80q0 4 74 101q31 41 31 67q0 63 -85 63q-28 0 -67.5 -27t-50.5 -53z" />
<glyph unicode="&#x1eed;" horiz-adv-x="1192" d="M113 322v695h129v-679q0 -115 72 -195t185 -80q161 0 289.5 108t128.5 265v581h125q9 26 13 48q0 30 -29 55q-31 20 -94 20q26 22 94 23q61 0 87 -15q52 -22 51 -80q0 -68 -81 -149l-37 -10v-909h-129v192q-26 -105 -187 -177q-133 -59 -261 -59q-174 0 -265 96t-91 270z M408 1244l39 98l128 28q24 -2 74 -21q41 -28 40 -59q2 -6 2 -11v-9q0 -24 -20 -56q-20 -24 -65 -112l-37 -23l-5 -66l-58 79q0 4 74 102q31 41 32 67q0 63 -85 62q-28 0 -67.5 -26.5t-51.5 -52.5z" />
<glyph unicode="&#x1eee;" horiz-adv-x="1417" d="M146 436v934h144v-919q0 -189 117 -290q111 -98 301 -98q451 0 451 388v919h144q9 26 13 48q0 30 -30 55q-31 20 -94 20q26 22 94 23q61 0 87 -15q52 -22 52 -80q0 -68 -81 -149l-39 -10v-811q0 -270 -172 -386q-142 -98 -425 -98q-248 0 -396 107q-166 124 -166 362z M475 1388l33 105q28 61 98 61q55 7 111 -40q79 -57 115 -57q15 0 24 22l7 74l93 7q-20 -116 -85 -152q-30 -17 -54 -16q-55 -6 -109 42q-67 59 -102 59q-37 0 -40 -55l-4 -44z" />
<glyph unicode="&#x1eef;" horiz-adv-x="1192" d="M113 322v695h129v-679q0 -115 72 -195t185 -80q161 0 289.5 108t128.5 265v581h125q9 26 13 48q0 30 -29 55q-31 20 -94 20q26 22 94 23q61 0 87 -15q52 -22 51 -80q0 -68 -81 -149l-37 -10v-909h-129v192q-26 -105 -187 -177q-133 -59 -261 -59q-174 0 -265 96t-91 270z M323 1048l34 105q28 61 98 61q55 7 111 -40q79 -57 114 -58q15 0 24 23l8 74l92 7q-20 -118 -85 -153q-28 -15 -54 -15q-55 -6 -109 42q-67 59 -101 59q-35 0 -41 -57l-4 -42z" />
<glyph unicode="&#x1ef0;" horiz-adv-x="1417" d="M146 436v934h144v-919q0 -189 117 -290q111 -98 301 -98q451 0 451 388v919h144q9 26 13 48q0 30 -30 55q-31 20 -94 20q26 22 94 23q61 0 87 -15q52 -22 52 -80q0 -68 -81 -149l-39 -10v-811q0 -270 -172 -386q-142 -98 -425 -98q-248 0 -396 107q-166 124 -166 362z M591 -224l117 117l102 -104l-115 -114z" />
<glyph unicode="&#x1ef1;" horiz-adv-x="1192" d="M113 322v695h129v-679q0 -115 72 -195t185 -80q161 0 289.5 108t128.5 265v581h125q9 26 13 48q0 30 -29 55q-31 20 -94 20q26 22 94 23q61 0 87 -15q52 -22 51 -80q0 -68 -81 -149l-37 -10v-909h-129v192q-26 -105 -187 -177q-133 -59 -261 -59q-174 0 -265 96t-91 270z M447 -227l117 116l101 -103l-114 -115z" />
<glyph unicode="&#x1ef2;" horiz-adv-x="1012" d="M-50 1370h163l369 -645l387 645h161l-481 -758v-612h-146v612zM155 1608h165l164 -164v-74z" />
<glyph unicode="&#x1ef3;" horiz-adv-x="950" d="M-79 -338q87 -61 160 -61q113 0 198 131q39 61 107 235l-403 1050h146l339 -921l353 921h144l-514 -1226q-126 -298 -351 -297q-74 0 -163 38zM140 1270h165l164 -165v-74z" />
<glyph unicode="&#x1ef4;" horiz-adv-x="1012" d="M-50 1370h163l369 -645l387 645h161l-481 -758v-612h-146v612zM360 -190l117 116l102 -103l-115 -115z" />
<glyph unicode="&#x1ef5;" horiz-adv-x="950" d="M-79 -338q87 -61 160 -61q113 0 198 131q39 61 107 235l-403 1050h146l339 -921l353 921h144l-514 -1226q-126 -298 -351 -297q-74 0 -163 38zM540 -227l116 116l102 -103l-115 -115z" />
<glyph unicode="&#x1ef6;" horiz-adv-x="1012" d="M-50 1370h163l369 -645l387 645h161l-481 -758v-612h-146v612zM329 1582l39 98l127 28q24 -2 74 -20q41 -28 41 -60q2 -6 2 -11v-9q0 -24 -21 -55q-20 -24 -64 -113l-37 -22l-6 -67l-57 80q0 7 72 101q33 44 33 67q0 63 -85 63q-28 0 -67.5 -27t-50.5 -53z" />
<glyph unicode="&#x1ef7;" horiz-adv-x="950" d="M-79 -338q87 -61 160 -61q113 0 198 131q39 61 107 235l-403 1050h146l339 -921l353 921h144l-514 -1226q-126 -298 -351 -297q-74 0 -163 38zM314 1244l39 98l128 28q24 -2 74 -21q41 -28 40 -59q2 -6 2 -11v-9q0 -24 -20 -56q-20 -24 -65 -112l-37 -23l-6 -66l-57 79 q0 7 72 102q33 44 34 67q0 63 -85 62q-28 0 -68 -26.5t-51 -52.5z" />
<glyph unicode="&#x1ef8;" horiz-adv-x="1012" d="M-50 1370h163l369 -645l387 645h161l-481 -758v-612h-146v612zM242 1388l33 105q28 61 98 61q55 7 111 -40q79 -57 115 -57q15 0 24 22l7 74l93 7q-20 -115 -87 -152q-30 -17 -52 -16q-55 -6 -109 42q-67 59 -102 59q-37 0 -40 -55l-4 -44z" />
<glyph unicode="&#x1ef9;" horiz-adv-x="950" d="M-79 -338q87 -61 160 -61q113 0 198 131q39 61 107 235l-403 1050h146l339 -921l353 921h144l-514 -1226q-126 -298 -351 -297q-74 0 -163 38zM227 1048l34 105q28 61 98 61q55 7 110 -40q79 -57 115 -58q15 0 24 23l8 74l92 7q-20 -116 -87 -153q-28 -15 -52 -15 q-55 -6 -109 42q-67 59 -101 59q-35 0 -41 -57l-4 -42z" />
<glyph unicode="&#x2000;" horiz-adv-x="1194" />
<glyph unicode="&#x2001;" horiz-adv-x="2388" />
<glyph unicode="&#x2002;" horiz-adv-x="1194" />
<glyph unicode="&#x2003;" horiz-adv-x="2388" />
<glyph unicode="&#x2004;" horiz-adv-x="796" />
<glyph unicode="&#x2005;" horiz-adv-x="597" />
<glyph unicode="&#x2006;" horiz-adv-x="398" />
<glyph unicode="&#x2007;" horiz-adv-x="398" />
<glyph unicode="&#x2008;" horiz-adv-x="298" />
<glyph unicode="&#x2009;" horiz-adv-x="477" />
<glyph unicode="&#x200a;" horiz-adv-x="132" />
<glyph unicode="&#x2010;" horiz-adv-x="499" d="M17 468v98h499v-98h-499z" />
<glyph unicode="&#x2011;" horiz-adv-x="499" d="M17 468v98h499v-98h-499z" />
<glyph unicode="&#x2012;" horiz-adv-x="499" d="M17 468v98h499v-98h-499z" />
<glyph unicode="&#x2013;" horiz-adv-x="1094" d="M163 0v1370h835v-96h-691v-533h626v-96h-626v-549h674v-96h-818zM571 1445v74l165 165h164z" />
<glyph unicode="&#x2014;" horiz-adv-x="1094" d="M163 0v1370h835v-96h-691v-533h626v-96h-626v-549h674v-96h-818zM455 -194l116 116l102 -103l-115 -115z" />
<glyph unicode="&#x2018;" d="M79 516q0 235 124 379q131 153 363 153q176 0 303 -122.5t116 -298.5l-4 -61h-772q0 -501 394 -501q104 0 227 35q26 7 87 29l-15 -112q-165 -48 -298 -48q-255 0 -391 147q-133 142 -134 400zM226 645h626q0 137 -66 218q-72 89 -206 89q-165 0 -246 -71t-108 -236z M323 1299l34 106q28 61 98 61q55 7 111 -41q79 -57 114 -57q15 0 24 22l8 74l92 7q-20 -116 -85 -151q-30 -17 -54 -17q-55 -6 -109 43q-67 59 -101 59q-37 0 -41 -56l-4 -44zM338 1076l170 185h111l168 -185h-77l-146 105l-148 -105h-78z" />
<glyph unicode="&#x2019;" d="M79 516q0 235 124 379q131 153 363 153q176 0 303 -122.5t116 -298.5l-4 -61h-772q0 -501 394 -501q104 0 227 35q26 7 87 29l-15 -112q-165 -48 -298 -48q-255 0 -391 147q-133 142 -134 400zM226 645h626q0 137 -66 218q-72 89 -206 89q-165 0 -246 -71t-108 -236z M338 1076l170 185h111l168 -185h-77l-146 105l-148 -105h-78zM769 1179v74l164 165h165z" />
<glyph unicode="&#x201a;" horiz-adv-x="1175" d="M79 488q0 233 134 384q139 159 367 159q229 0 370 -159q137 -151 137 -382q0 -226 -131 -372q-137 -152 -361 -151q-231 0 -373.5 144t-142.5 377zM207 518q0 -179 104 -311q111 -144 284 -144q179 0 285 116q101 111 101 292q0 190 -103 322q-111 142 -298 142 q-176 0 -277 -124q-96 -115 -96 -293zM338 1122l34 105q28 61 97 61q55 7 111 -40q79 -57 115 -58q15 0 24 23l7 73l93 8q-20 -118 -85 -154q-28 -15 -54 -14q-55 -6 -109 42q-67 59 -102 59t-40 -57l-4 -42z" />
<glyph unicode="&#x201c;" d="M31 1420h165l164 -165v-74zM79 516q0 235 124 379q131 153 363 153q176 0 303 -122.5t116 -298.5l-4 -61h-772q0 -501 394 -501q104 0 227 35q26 7 87 29l-15 -112q-165 -48 -298 -48q-255 0 -391 147q-133 142 -134 400zM226 645h626q0 137 -66 218q-72 89 -206 89 q-165 0 -246 -71t-108 -236zM338 1076l170 185h111l168 -185h-77l-146 105l-148 -105h-78z" />
<glyph unicode="&#x201d;" d="M79 516q0 235 124 379q131 153 363 153q176 0 303 -122.5t116 -298.5l-4 -61h-772q0 -501 394 -501q104 0 227 35q26 7 87 29l-15 -112q-165 -48 -298 -48q-255 0 -391 147q-133 142 -134 400zM226 645h626q0 137 -66 218q-72 89 -206 89q-165 0 -246 -71t-108 -236z M338 1074l170 185h111l168 -185h-77l-146 105l-148 -105h-78zM612 1410l39 98l127 28q24 -2 74 -20q41 -28 41 -59q2 -6 2 -12v-9q0 -24 -21 -55q-20 -24 -64 -113l-37 -22l-6 -67l-57 80q0 4 74 101q31 41 31 67q0 63 -85 63q-28 0 -67.5 -27t-50.5 -53z" />
<glyph unicode="&#x201e;" horiz-adv-x="1175" d="M79 488q0 233 134 384q139 159 367 159q229 0 370 -159q137 -151 137 -382q0 -226 -131 -372q-137 -152 -361 -151q-231 0 -373.5 144t-142.5 377zM207 518q0 -179 104 -311q111 -144 284 -144q179 0 285 116q101 111 101 292q0 190 -103 322q-111 142 -298 142 q-176 0 -277 -124q-96 -115 -96 -293zM582 1122v74l165 164h164z" />
<glyph unicode="&#x2020;" d="M63 242q0 170 190 257l359 107q192 57 192 168q0 163 -274 163q-192 0 -353 -66l15 112q177 46 327 47q414 0 414 -256v-774h-129v595q-61 -44 -238 -98q-187 -55 -252 -94q-122 -74 -122 -194q0 -109 163 -142q46 -9 100 -10q115 0 223 39l-16 -96q-105 -37 -244 -37 q-152 0 -246 63q-109 72 -109 216zM294 1076l170 185h111l168 -185h-78l-146 105l-147 -105h-78zM725 1179v74l164 165h165z" />
<glyph unicode="&#x2021;" horiz-adv-x="1609" d="M96 725q0 305 222 489q207 172 517 172q323 0 514 -175q198 -181 198 -503q0 -396 -259 -610q-159 -131 -453 -131q-357 0 -548 199.5t-191 558.5zM226 645q0 -257 160.5 -411.5t417.5 -154.5q286 0 441.5 156.5t155.5 442.5q0 275 -153.5 435.5t-426.5 160.5 q-281 0 -438 -173t-157 -456zM610 1407l170 184h111l168 -184h-78l-146 105l-147 -105h-78zM884 1743l38 98l128 28q24 -2 74 -21q41 -28 40 -59q2 -6 2 -11v-9q0 -24 -20 -56q-20 -24 -65 -112l-37 -22l-5 -67l-58 79q0 4 74 102q31 41 32 67q0 63 -85 62 q-28 0 -67.5 -26.5t-50.5 -52.5z" />
<glyph unicode="&#x2022;" horiz-adv-x="1609" d="M96 725q0 305 222 489q207 172 517 172q178 1 311 -51l194 35q9 26 13 48q0 30 -30 55q-31 20 -94 20q26 22 94 23q61 0 87 -15q52 -22 52 -80q0 -68 -81 -149l-61 -35l39 -36q189 -170 188 -493q0 -396 -259 -610q-159 -131 -453 -131q-357 0 -548 199.5t-191 558.5z M226 645q0 -257 160.5 -411.5t417.5 -154.5q286 0 441.5 156.5t155.5 442.5q0 275 -153.5 435.5t-426.5 160.5q-281 0 -438 -173t-157 -456z" />
<glyph unicode="&#x2026;" d="M63 242q0 170 190 257l359 107q192 57 192 168q0 163 -274 163q-192 0 -353 -66l15 112q177 46 327 47q414 0 414 -256v-774h-129v595q-61 -44 -238 -98q-187 -55 -252 -94q-122 -74 -122 -194q0 -109 163 -142q46 -9 100 -10q115 0 223 39l-16 -96q-105 -37 -244 -37 q-152 0 -246 63q-109 72 -109 216zM281 1298l33 105q28 61 98 61q55 7 111 -41q79 -57 115 -57q15 0 24 22l7 74l93 7q-20 -116 -85 -151q-30 -17 -54 -17q-55 -6 -109 43q-67 59 -102 59t-40 -57l-4 -43zM296 1074l170 185h111l168 -185h-78l-146 105l-148 -105h-77z" />
<glyph unicode="&#x202f;" horiz-adv-x="477" />
<glyph unicode="&#x2030;" horiz-adv-x="1175" d="M79 488q0 233 134 384q139 159 367 159q229 0 370 -159q137 -151 137 -382q0 -226 -131 -372q-137 -152 -361 -151q-231 0 -373.5 144t-142.5 377zM207 518q0 -179 104 -311q111 -144 284 -144q179 0 285 116q101 111 101 292q0 190 -103 322q-111 142 -298 142 q-176 0 -277 -124q-96 -115 -96 -293zM479 -224l116 117l102 -104l-115 -114z" />
<glyph unicode="&#x2039;" horiz-adv-x="419" d="M-31 1103l33 106q28 61 98 61q55 7 111 -41q79 -57 114 -57q15 0 24 22l8 74l92 7q-20 -116 -87 -153q-28 -15 -51 -15q-55 -6 -110 43q-67 59 -101 59q-35 0 -41 -57l-4 -43zM146 0v1017h128v-1017h-128z" />
<glyph unicode="&#x203a;" horiz-adv-x="419" d="M146 0v1017h128v-1017h-128zM211 1107v74l164 165h165z" />
<glyph unicode="&#x2044;" horiz-adv-x="1094" d="M163 0v1370h835v-96h-691v-533h626v-96h-626v-549h674v-96h-818zM346 1407l170 184h111l168 -184h-78l-146 105l-148 -105h-77zM776 1510v74l165 165h164z" />
<glyph unicode="&#x205f;" horiz-adv-x="597" />
<glyph unicode="&#x20a3;" horiz-adv-x="1913" d="M146 0v1370h804v-96h-660v-533h595v-96h-595v-645h-144zM1351 0v1017h128v-180q48 89 127 143q85 61 179 61q37 0 65 -10l17 -112q-26 17 -71 16q-133 0 -225 -102.5t-92 -237.5v-595h-128z" />
<glyph unicode="&#x20ab;" horiz-adv-x="726" d="M6 567q0 150 99 283q109 144 254 144q63 0 112 -44l37 139h-185l19 66h185l3 30q0 57 -88 59l13 61q124 4 236 26l28 5q11 0 11 -16q-2 -4 -5 -22l-36 -143h121l-19 -66h-120l-128 -518q-9 -37 -9 -50q0 -28 22 -27q11 0 91 77l37 -33q-129 -159 -216 -159q-80 0 -98 115 q-98 -115 -196 -115q-168 0 -168 188zM17 192v104h408v-104h-408zM172 597q0 -94 72 -94q76 0 137 131q52 111 52 198q-1 94 -69 94q-89 0 -155 -163q-37 -91 -37 -166z" />
<glyph unicode="&#x2122;" d="M79 516q0 235 124 379q131 153 363 153q176 0 303 -122.5t116 -298.5l-4 -61h-772q0 -501 394 -501q104 0 227 35q26 7 87 29l-15 -112q-165 -48 -298 -48q-255 0 -391 147q-133 142 -134 400zM226 645h626q0 137 -66 218q-72 89 -206 89q-165 0 -246 -71t-108 -236z M338 1076l170 185h111l168 -185h-77l-146 105l-148 -105h-78z" />
<glyph unicode="&#x2202;" d="M63 242q0 170 190 257l359 107q192 57 192 168q0 163 -274 163q-192 0 -353 -66l15 112q177 46 327 47q414 0 414 -256v-774h-129v595q-61 -44 -238 -98q-187 -55 -252 -94q-122 -74 -122 -194q0 -109 163 -142q46 -9 100 -10q115 0 223 39l-16 -96q-105 -37 -244 -37 q-152 0 -246 63q-109 72 -109 216zM366 1336l39 98l127 28q24 -2 74 -20q41 -28 41 -59q2 -6 2 -12v-9q0 -24 -21 -55q-20 -24 -64 -113l-37 -22l-6 -67l-57 80q0 7 72 101q33 44 33 67q0 63 -85 63q-28 0 -67.5 -27t-50.5 -53z" />
<glyph unicode="&#x220f;" d="M63 242q0 170 190 257l359 107q192 57 192 168q0 163 -274 163q-192 0 -353 -66l15 112q177 46 327 47q414 0 414 -256v-774h-129v595q-61 -44 -238 -98q-187 -55 -252 -94q-122 -74 -122 -194q0 -109 163 -142q46 -9 100 -10q115 0 223 39l-16 -96q-105 -37 -244 -37 q-152 0 -246 63q-109 72 -109 216zM519 1122v74l165 164h164z" />
<glyph unicode="&#x2211;" d="M63 242q0 170 190 257l359 107q192 57 192 168q0 163 -274 163q-192 0 -353 -66l15 112q177 46 327 47q414 0 414 -256v-774h-129v595q-61 -44 -238 -98q-187 -55 -252 -94q-122 -74 -122 -194q0 -109 163 -142q46 -9 100 -10q115 0 223 39l-16 -96q-105 -37 -244 -37 q-152 0 -246 63q-109 72 -109 216zM281 1124l33 105q28 61 98 61q55 7 111 -40q79 -57 115 -58q15 0 24 22l7 74l93 8q-20 -116 -85 -152q-30 -17 -54 -16q-55 -6 -109 42q-67 59 -102 59q-37 0 -40 -55l-4 -45z" />
<glyph unicode="&#x2212;" horiz-adv-x="622" d="M81 817q74 -39 176 -39q79 0 137 37q67 43 66 118q0 87 -98 117q-55 17 -168 17v53q107 0 157 17q85 30 85 113q0 140 -174 140h-38q-43 0 -71 -7l-38 -13l7 51q68 18 140 19q100 0 165 -35q83 -44 83 -137q0 -135 -146 -172q168 -30 168 -174q0 -139 -151 -183 q-44 -13 -109 -13q-78 0 -181 32z" />
<glyph unicode="&#x2219;" horiz-adv-x="460" d="M70 643q0 63 42.5 105.5t105.5 42.5t106.5 -42.5t43.5 -105.5t-43.5 -106t-106.5 -43t-105.5 43t-42.5 106z" />
<glyph unicode="&#x221a;" horiz-adv-x="1192" d="M-79 0l645 1370h175l547 -1370h-162l-241 645h-530l-276 -645h-158zM386 741h466l-207 533zM407 1612l33 105q28 61 98 61q55 7 111 -41q79 -57 114 -57q15 0 24 22l8 74l92 8q-20 -118 -85 -154q-28 -15 -53 -15q-55 -6 -109 43q-67 59 -102 59t-41 -55l-3 -45z M421 1388l170 185h111l169 -185h-78l-146 105l-148 -105h-78z" />
<glyph unicode="&#x221e;" horiz-adv-x="1012" d="M-50 1370h163l369 -645l387 645h161l-481 -758v-612h-146v612zM155 1608h165l164 -164v-74z" />
<glyph unicode="&#x222b;" horiz-adv-x="1192" d="M-79 0l645 1370h175l547 -1370h-162l-241 645h-530l-276 -645h-158zM386 741h466l-207 533zM421 1591h69l155 -105l157 105h69l-152 -160q-48 -24 -72 -24q-22 0 -76 24zM492 1804l38 98l128 28q24 -2 74 -21q41 -28 41 -59q2 -6 1 -11v-9q0 -24 -20 -56 q-20 -24 -65 -112l-37 -22l-5 -67l-57 79q0 7 72 102q33 44 33 67q0 63 -85 62q-28 0 -67.5 -26.5t-50.5 -52.5z" />
<glyph unicode="&#x2248;" horiz-adv-x="1094" d="M41 1750h164l165 -164v-74zM163 0v1370h835v-96h-691v-533h626v-96h-626v-549h674v-96h-818zM347 1407l171 184h110l169 -184h-78l-146 105l-148 -105h-78z" />
<glyph unicode="&#x2260;" horiz-adv-x="1192" d="M113 322v695h129v-679q0 -115 72 -195t185 -80q161 0 289.5 108t128.5 265v581h125q9 26 13 48q0 30 -29 55q-31 20 -94 20q26 22 94 23q61 0 87 -15q52 -22 51 -80q0 -68 -81 -149l-37 -10v-909h-129v192q-26 -105 -187 -177q-133 -59 -261 -59q-174 0 -265 96t-91 270z " />
<glyph unicode="&#x2264;" horiz-adv-x="1012" d="M-50 1370h163l369 -645l387 645h161l-481 -758v-612h-146v612zM242 1388l33 105q28 61 98 61q55 7 111 -40q79 -57 115 -57q15 0 24 22l7 74l93 7q-20 -115 -87 -152q-30 -17 -52 -16q-55 -6 -109 42q-67 59 -102 59q-37 0 -40 -55l-4 -44z" />
<glyph unicode="&#x2265;" horiz-adv-x="1012" d="M-50 1370h163l369 -645l387 645h161l-481 -758v-612h-146v612zM482 1371v74l165 165h164z" />
<glyph unicode="&#x255f;" horiz-adv-x="1327" d="M-79 0l645 1370h175l547 -1370h-162l-241 645h-530l-276 -645h-158zM386 741h466l-207 533z" />
<glyph unicode="&#x2560;" horiz-adv-x="1258" d="M163 0v1370h835v-96h-691v-533h626v-96h-626v-549h674v-96h-818z" />
<glyph unicode="&#x2561;" horiz-adv-x="792" d="M146 0v1370h144v-1370h-144z" />
<glyph unicode="&#x2562;" horiz-adv-x="1428" d="M96 725q0 305 222 489q207 172 517 172q323 0 514 -175q198 -181 198 -503q0 -396 -259 -610q-159 -131 -453 -131q-357 0 -548 199.5t-191 558.5zM226 645q0 -257 160.5 -411.5t417.5 -154.5q286 0 441.5 156.5t155.5 442.5q0 275 -153.5 435.5t-426.5 160.5 q-281 0 -438 -173t-157 -456z" />
<glyph unicode="&#x2563;" horiz-adv-x="1499" d="M146 436v934h144v-919q0 -189 117 -290q111 -98 301 -98q451 0 451 388v919h146v-919q0 -270 -172 -386q-142 -98 -425 -98q-248 0 -396 107q-166 124 -166 362z" />
<glyph unicode="&#x2564;" horiz-adv-x="1292" d="M-50 1370h163l369 -645l387 645h161l-481 -758v-612h-146v612z" />
<glyph unicode="&#x2565;" horiz-adv-x="999" d="M63 242q0 170 190 257l359 107q192 57 192 168q0 163 -274 163q-192 0 -353 -66l15 112q177 46 327 47q414 0 414 -256v-774h-129v595q-61 -44 -238 -98q-187 -55 -252 -94q-122 -74 -122 -194q0 -109 163 -142q46 -9 100 -10q115 0 223 39l-16 -96q-105 -37 -244 -37 q-152 0 -246 63q-109 72 -109 216z" />
<glyph unicode="&#x2566;" horiz-adv-x="796" d="M79 516q0 235 124 379q131 153 363 153q176 0 303 -122.5t116 -298.5l-4 -61h-772q0 -501 394 -501q104 0 227 35q26 7 87 29l-15 -112q-165 -48 -298 -48q-255 0 -391 147q-133 142 -134 400zM226 645h626q0 137 -66 218q-72 89 -206 89q-165 0 -246 -71t-108 -236z" />
<glyph unicode="&#x2567;" horiz-adv-x="580" d="M129 1109v129h161v-129h-161zM146 0v1017h128v-1017h-128z" />
<glyph unicode="&#x2568;" horiz-adv-x="580" d="M113 322v695h129v-679q0 -115 72 -195t185 -80q161 0 289.5 108t128.5 265v581h125q9 26 13 48q0 30 -29 55q-31 20 -94 20q26 22 94 23q61 0 87 -15q52 -22 51 -80q0 -68 -81 -149l-37 -10v-909h-129v192q-26 -105 -187 -177q-133 -59 -261 -59q-174 0 -265 96t-91 270z M235 1270h164l165 -165v-74z" />
<glyph unicode="&#x2569;" horiz-adv-x="920" d="M79 488q0 233 134 384q139 159 367 159q229 0 370 -159q137 -151 137 -382q0 -226 -131 -372q-137 -152 -361 -151q-231 0 -373.5 144t-142.5 377zM207 518q0 -179 104 -311q111 -144 284 -144q179 0 285 116q101 111 101 292q0 190 -103 322q-111 142 -298 142 q-176 0 -277 -124q-96 -115 -96 -293z" />
<glyph unicode="&#x256a;" horiz-adv-x="1029" d="M113 322v695h129v-679q0 -115 72 -195t185 -80q161 0 289.5 108t128.5 265v581h129v-1017h-129v192q-26 -105 -187 -177q-133 -59 -261 -59q-174 0 -265 96t-91 270z" />
<glyph unicode="&#x256b;" horiz-adv-x="918" d="M-79 -338q87 -61 160 -61q113 0 198 131q39 61 107 235l-403 1050h146l339 -921l353 921h144l-514 -1226q-126 -298 -351 -297q-74 0 -163 38z" />
<glyph unicode="&#x25ca;" horiz-adv-x="419" d="M-118 1344h164l165 -165v-74zM146 0v1017h128v-1017h-128z" />
<glyph unicode="&#x25cb;" horiz-adv-x="1327" d="M452 1264q0 233 134 384q139 159 367 159q229 0 370 -159q137 -151 137 -382q0 -226 -131 -372q-137 -152 -361 -151q-231 0 -373.5 144t-142.5 377zM534 751v695h129v-679q0 -115 72 -195t185 -80q161 0 289.5 108t128.5 265v581h125q9 26 13 48q0 30 -29 55 q-31 20 -94 20q26 22 94 23q61 0 87 -15q52 -22 51 -80q0 -68 -81 -149l-37 -10v-909h-129v192q-26 -105 -187 -177q-133 -59 -261 -59q-174 0 -265 96t-91 270zM580 1294q0 -179 104 -311q111 -144 284 -144q179 0 285 116q101 111 101 292q0 190 -103 322 q-111 142 -298 142q-176 0 -277 -124q-96 -115 -96 -293zM728 1852l170 185h111l168 -185h-78l-146 105l-147 -105h-78zM829 1673l39 98l128 28q24 -2 74 -21q41 -28 40 -59q2 -6 2 -11v-9q0 -24 -20 -56q-20 -24 -65 -112l-37 -23l-5 -66l-58 79q0 4 74 102q31 41 32 67 q0 63 -85 62q-28 0 -67.5 -26.5t-51.5 -52.5z" />
<glyph unicode="&#x25cf;" horiz-adv-x="1327" d="M534 751v695h129v-679q0 -115 72 -195t185 -80q161 0 289.5 108t128.5 265v581h125q9 26 13 48q0 30 -29 55q-31 20 -94 20q26 22 94 23q61 0 87 -15q52 -22 51 -80q0 -68 -81 -149l-37 -10v-909h-129v192q-26 -105 -187 -177q-133 -59 -261 -59q-174 0 -265 96t-91 270z M721 1214v934h144v-919q0 -189 117 -290q111 -98 301 -98q451 0 451 388v919h144q9 26 13 48q0 30 -30 55q-31 20 -94 20q26 22 94 23q61 0 87 -15q52 -22 52 -80q0 -68 -81 -149l-39 -10v-811q0 -270 -172 -386q-142 -98 -425 -98q-248 0 -396 107q-166 124 -166 362z M829 1673l39 98l128 28q24 -2 74 -21q41 -28 40 -59q2 -6 2 -11v-9q0 -24 -20 -56q-20 -24 -65 -112l-37 -23l-5 -66l-58 79q0 4 74 102q31 41 32 67q0 63 -85 62q-28 0 -67.5 -26.5t-51.5 -52.5zM1292 2149v74l165 165h164z" />
<glyph unicode="&#x25d8;" horiz-adv-x="1327" d="M534 751v695h129v-679q0 -115 72 -195t185 -80q161 0 289.5 108t128.5 265v581h125q9 26 13 48q0 30 -29 55q-31 20 -94 20q26 22 94 23q61 0 87 -15q52 -22 51 -80q0 -68 -81 -149l-37 -10v-909h-129v192q-26 -105 -187 -177q-133 -59 -261 -59q-174 0 -265 96t-91 270z M829 1673l39 98l128 28q24 -2 74 -21q41 -28 40 -59q2 -6 2 -11v-9q0 -24 -20 -56q-20 -24 -65 -112l-37 -23l-5 -66l-58 79q0 4 74 102q31 41 32 67q0 63 -85 62q-28 0 -67.5 -26.5t-51.5 -52.5zM1135 1669q17 52 20 118q2 20 15 24q4 0 15 2q124 20 123 100q0 65 -51 65 q-9 0 -26 -2t-26 -2q-39 0 -39 33q0 52 59 52q85 0 139 -45q57 -50 50 -133q-11 -109 -161 -149q-46 -13 -57 -63h-61z" />
<glyph unicode="&#x25d9;" horiz-adv-x="1327" d="M534 751v695h129v-679q0 -115 72 -195t185 -80q161 0 289.5 108t128.5 265v581h125q9 26 13 48q0 30 -29 55q-31 20 -94 20q26 22 94 23q61 0 87 -15q52 -22 51 -80q0 -68 -81 -149l-37 -10v-909h-129v192q-26 -105 -187 -177q-133 -59 -261 -59q-174 0 -265 96t-91 270z M621 1098v695h129v-679q0 -115 72 -195t185 -80q161 0 289.5 108t128.5 265v581h125q9 26 13 48q0 30 -29 55q-31 20 -94 20q26 22 94 23q61 0 87 -15q52 -22 51 -80q0 -68 -81 -149l-37 -10v-909h-129v192q-26 -105 -187 -177q-133 -59 -261 -59q-174 0 -265 96t-91 270z M829 1673l39 98l128 28q24 -2 74 -21q41 -28 40 -59q2 -6 2 -11v-9q0 -24 -20 -56q-20 -24 -65 -112l-37 -23l-5 -66l-58 79q0 4 74 102q31 41 32 67q0 63 -85 62q-28 0 -67.5 -26.5t-51.5 -52.5zM831 1824l34 105q28 61 98 61q55 7 111 -40q79 -57 114 -58q15 0 24 23l8 74 l92 7q-20 -118 -85 -153q-28 -15 -54 -15q-55 -6 -109 42q-67 59 -101 59q-35 0 -41 -57l-4 -42z" />
<glyph unicode="&#x25fc;" horiz-adv-x="1016" d="M0 0v1017h1017v-1017h-1017z" />
<glyph unicode="&#xf000;" horiz-adv-x="1609" d="M96 725q0 305 222 489q207 172 517 172q323 0 514 -175q198 -181 198 -503q0 -396 -259 -610q-159 -131 -453 -131q-357 0 -548 199.5t-191 558.5zM226 645q0 -257 160.5 -411.5t417.5 -154.5q286 0 441.5 156.5t155.5 442.5q0 275 -153.5 435.5t-426.5 160.5 q-281 0 -438 -173t-157 -456zM595 1630l33 106q28 61 98 61q55 7 111 -41q79 -57 115 -57q15 0 24 22l7 74l93 7q-20 -116 -87 -153q-28 -15 -52 -15q-55 -6 -109 42q-67 59 -102 60q-35 0 -40 -56l-4 -44zM610 1407l170 184h111l168 -184h-78l-146 105l-147 -105h-78z" />
<glyph unicode="&#xf001;" horiz-adv-x="419" d="M94 -196l117 117l101 -104l-114 -115zM129 1109v129h161v-129h-161zM146 0v1017h128v-1017h-128z" />
<glyph unicode="&#xf002;" horiz-adv-x="1175" d="M79 488q0 233 134 384q139 159 367 159q229 0 370 -159q137 -151 137 -382q0 -226 -131 -372q-137 -152 -361 -151q-231 0 -373.5 144t-142.5 377zM207 518q0 -179 104 -311q111 -144 284 -144q179 0 285 116q101 111 101 292q0 190 -103 322q-111 142 -298 142 q-176 0 -277 -124q-96 -115 -96 -293zM253 1362h165l164 -164v-74z" />
<glyph horiz-adv-x="580" />
<glyph horiz-adv-x="580" />
<glyph horiz-adv-x="580" />
<glyph horiz-adv-x="1158" d="M146 1370h128v-387q153 61 327 61q253 0 381.5 -136.5t128.5 -391.5q0 -231 -105 -374q-118 -161 -342 -160q-116 0 -220 49q-113 54 -170 146l5 -530h-131zM274 468q0 -168 92 -276q96 -113 262 -113q353 1 353 487q0 279 -238 360q-76 26 -174 26q-126 0 -295 -48v-436 z" />
<glyph horiz-adv-x="513" />
<glyph horiz-adv-x="460" />
<glyph horiz-adv-x="460" />
<glyph horiz-adv-x="924" d="M468 965q17 52 20 118q2 20 15 24q4 0 15 2q124 20 123 100q0 65 -51 65q-9 0 -26 -2t-26 -2q-39 0 -39 33q0 52 59 52q85 0 139 -45q57 -50 50 -133q-11 -109 -161 -149q-46 -13 -57 -63h-61z" />
<glyph horiz-adv-x="999" d="M75 837q0 233 134 384q139 159 367 159q229 0 370 -159q137 -151 137 -382q0 -226 -131 -372q-137 -152 -361 -151q-231 0 -373.5 144t-142.5 377zM159 322v695h129v-679q0 -115 72 -195t185 -80q161 0 289.5 108t128.5 265v581h125q9 26 13 48q0 30 -29 55 q-31 20 -94 20q26 22 94 23q61 0 87 -15q52 -22 51 -80q0 -68 -81 -149l-37 -10v-909h-129v192q-26 -105 -187 -177q-133 -59 -261 -59q-174 0 -265 96t-91 270zM203 867q0 -179 104 -311q111 -144 284 -144q179 0 285 116q101 111 101 292q0 190 -103 322 q-111 142 -298 142q-176 0 -277 -124q-96 -115 -96 -293zM351 1425l170 185h111l168 -185h-78l-146 105l-147 -105h-78zM454 1244l39 98l128 28q24 -2 74 -21q41 -28 40 -59q2 -6 2 -11v-9q0 -24 -20 -56q-20 -24 -65 -112l-37 -23l-5 -66l-58 79q0 4 74 102q31 41 32 67 q0 63 -85 62q-28 0 -67.5 -26.5t-51.5 -52.5z" />
<glyph horiz-adv-x="999" d="M159 322v695h129v-679q0 -115 72 -195t185 -80q161 0 289.5 108t128.5 265v581h125q9 26 13 48q0 30 -29 55q-31 20 -94 20q26 22 94 23q61 0 87 -15q52 -22 51 -80q0 -68 -81 -149l-37 -10v-909h-129v192q-26 -105 -187 -177q-133 -59 -261 -59q-174 0 -265 96t-91 270z M346 785v934h144v-919q0 -189 117 -290q111 -98 301 -98q451 0 451 388v919h144q9 26 13 48q0 30 -30 55q-31 20 -94 20q26 22 94 23q61 0 87 -15q52 -22 52 -80q0 -68 -81 -149l-39 -10v-811q0 -270 -172 -386q-142 -98 -425 -98q-248 0 -396 107q-166 124 -166 362z M454 1244l39 98l128 28q24 -2 74 -21q41 -28 40 -59q2 -6 2 -11v-9q0 -24 -20 -56q-20 -24 -65 -112l-37 -23l-5 -66l-58 79q0 4 74 102q31 41 32 67q0 63 -85 62q-28 0 -67.5 -26.5t-51.5 -52.5zM917 1720v74l165 165h164z" />
<glyph horiz-adv-x="999" d="M159 322v695h129v-679q0 -115 72 -195t185 -80q161 0 289.5 108t128.5 265v581h125q9 26 13 48q0 30 -29 55q-31 20 -94 20q26 22 94 23q61 0 87 -15q52 -22 51 -80q0 -68 -81 -149l-37 -10v-909h-129v192q-26 -105 -187 -177q-133 -59 -261 -59q-174 0 -265 96t-91 270z M454 1244l39 98l128 28q24 -2 74 -21q41 -28 40 -59q2 -6 2 -11v-9q0 -24 -20 -56q-20 -24 -65 -112l-37 -23l-5 -66l-58 79q0 4 74 102q31 41 32 67q0 63 -85 62q-28 0 -67.5 -26.5t-51.5 -52.5zM760 1240q17 52 20 118q2 20 15 24q4 0 15 2q124 20 123 100q0 65 -51 65 q-9 0 -26 -2t-26 -2q-39 0 -39 33q0 52 59 52q85 0 139 -45q57 -50 50 -133q-11 -109 -161 -149q-46 -13 -57 -63h-61z" />
<glyph horiz-adv-x="999" d="M159 322v695h129v-679q0 -115 72 -195t185 -80q161 0 289.5 108t128.5 265v581h125q9 26 13 48q0 30 -29 55q-31 20 -94 20q26 22 94 23q61 0 87 -15q52 -22 51 -80q0 -68 -81 -149l-37 -10v-909h-129v192q-26 -105 -187 -177q-133 -59 -261 -59q-174 0 -265 96t-91 270z M246 669v695h129v-679q0 -115 72 -195t185 -80q161 0 289.5 108t128.5 265v581h125q9 26 13 48q0 30 -29 55q-31 20 -94 20q26 22 94 23q61 0 87 -15q52 -22 51 -80q0 -68 -81 -149l-37 -10v-909h-129v192q-26 -105 -187 -177q-133 -59 -261 -59q-174 0 -265 96t-91 270z M454 1244l39 98l128 28q24 -2 74 -21q41 -28 40 -59q2 -6 2 -11v-9q0 -24 -20 -56q-20 -24 -65 -112l-37 -23l-5 -66l-58 79q0 4 74 102q31 41 32 67q0 63 -85 62q-28 0 -67.5 -26.5t-51.5 -52.5zM456 1395l34 105q28 61 98 61q55 7 111 -40q79 -57 114 -58q15 0 24 23l8 74 l92 7q-20 -118 -85 -153q-28 -15 -54 -15q-55 -6 -109 42q-67 59 -101 59q-35 0 -41 -57l-4 -42z" />
<glyph horiz-adv-x="999" d="M168 320v695h129v-679q0 -115 72 -195t185 -80q161 0 289.5 108t128.5 265v581h125q9 26 13 48q0 30 -29 55q-31 20 -94 20q26 22 94 23q61 0 87 -15q52 -22 51 -80q0 -68 -81 -149l-37 -10v-909h-129v192q-26 -105 -187 -177q-133 -59 -261 -59q-174 0 -265 96t-91 270z M221 837q0 233 134 384q139 159 367 159q229 0 370 -159q137 -151 137 -382q0 -226 -131 -372q-137 -152 -361 -151q-231 0 -373.5 144t-142.5 377zM349 867q0 -179 104 -311q111 -144 284 -144q179 0 285 116q101 111 101 292q0 190 -103 322q-111 142 -298 142 q-176 0 -277 -124q-96 -115 -96 -293zM497 1425l170 185h111l168 -185h-78l-146 105l-147 -105h-78zM502 -229l117 116l101 -103l-114 -115z" />
<glyph horiz-adv-x="999" d="M168 320v695h129v-679q0 -115 72 -195t185 -80q161 0 289.5 108t128.5 265v581h125q9 26 13 48q0 30 -29 55q-31 20 -94 20q26 22 94 23q61 0 87 -15q52 -22 51 -80q0 -68 -81 -149l-37 -10v-909h-129v192q-26 -105 -187 -177q-133 -59 -261 -59q-174 0 -265 96t-91 270z M248 785v934h144v-919q0 -189 117 -290q111 -98 301 -98q451 0 451 388v919h144q9 26 13 48q0 30 -30 55q-31 20 -94 20q26 22 94 23q61 0 87 -15q52 -22 52 -80q0 -68 -81 -149l-39 -10v-811q0 -270 -172 -386q-142 -98 -425 -98q-248 0 -396 107q-166 124 -166 362z M502 -229l117 116l101 -103l-114 -115zM819 1720v74l165 165h164z" />
<glyph horiz-adv-x="999" d="M168 320v695h129v-679q0 -115 72 -195t185 -80q161 0 289.5 108t128.5 265v581h125q9 26 13 48q0 30 -29 55q-31 20 -94 20q26 22 94 23q61 0 87 -15q52 -22 51 -80q0 -68 -81 -149l-37 -10v-909h-129v192q-26 -105 -187 -177q-133 -59 -261 -59q-174 0 -265 96t-91 270z M502 -229l117 116l101 -103l-114 -115zM566 1240q17 52 20 118q2 20 15 24q4 0 15 2q124 20 123 100q0 65 -51 65q-9 0 -26 -2t-26 -2q-39 0 -39 33q0 52 59 52q85 0 139 -45q57 -50 50 -133q-11 -109 -161 -149q-46 -13 -57 -63h-61z" />
<glyph horiz-adv-x="999" d="M168 320v695h129v-679q0 -115 72 -195t185 -80q161 0 289.5 108t128.5 265v581h125q9 26 13 48q0 30 -29 55q-31 20 -94 20q26 22 94 23q61 0 87 -15q52 -22 51 -80q0 -68 -81 -149l-37 -10v-909h-129v192q-26 -105 -187 -177q-133 -59 -261 -59q-174 0 -265 96t-91 270z M246 669v695h129v-679q0 -115 72 -195t185 -80q161 0 289.5 108t128.5 265v581h125q9 26 13 48q0 30 -29 55q-31 20 -94 20q26 22 94 23q61 0 87 -15q52 -22 51 -80q0 -68 -81 -149l-37 -10v-909h-129v192q-26 -105 -187 -177q-133 -59 -261 -59q-174 0 -265 96t-91 270z M456 1395l34 105q28 61 98 61q55 7 111 -40q79 -57 114 -58q15 0 24 23l8 74l92 7q-20 -118 -85 -153q-28 -15 -54 -15q-55 -6 -109 42q-67 59 -101 59q-35 0 -41 -57l-4 -42zM502 -229l117 116l101 -103l-114 -115z" />
<glyph horiz-adv-x="460" />
</font>
</defs>
</svg>
