<?xml version="1.0" standalone="no"?>
<!DOCTYPE svg PUBLIC "-//W3C//DTD SVG 1.1//EN" "http://www.w3.org/Graphics/SVG/1.1/DTD/svg11.dtd" >
<svg xmlns="http://www.w3.org/2000/svg">
<metadata></metadata>
<defs>
<font id="utm_duepuntozeroregular" horiz-adv-x="858" >
<font-face units-per-em="2048" ascent="1638" descent="-410" />
<missing-glyph horiz-adv-x="542" />
<glyph unicode="&#xd;" horiz-adv-x="571" />
<glyph unicode=" "  horiz-adv-x="542" />
<glyph unicode="&#x09;" horiz-adv-x="542" />
<glyph unicode="&#xa0;" horiz-adv-x="542" />
<glyph unicode="!" horiz-adv-x="301" d="M69 78v59q0 33 23.5 55.5t54.5 22.5q33 0 55.5 -22.5t22.5 -55.5v-59q0 -33 -23.5 -55.5t-54.5 -22.5q-33 0 -55.5 22.5t-22.5 55.5zM69 397v885q0 33 23.5 55.5t54.5 22.5q33 0 55.5 -22.5t22.5 -55.5v-885q0 -32 -23.5 -55t-54.5 -23q-33 0 -55.5 23t-22.5 55z" />
<glyph unicode="&#x22;" horiz-adv-x="522" d="M69 1137v161q0 33 22.5 55.5t55.5 22.5q31 0 54.5 -22.5t23.5 -55.5v-161q0 -33 -22.5 -55.5t-55.5 -22.5q-31 0 -54.5 22.5t-23.5 55.5zM294 1137v161q0 33 22.5 55.5t55.5 22.5q31 0 54.5 -22.5t23.5 -55.5v-161q0 -33 -22.5 -55.5t-55.5 -22.5q-31 0 -54.5 22.5 t-23.5 55.5z" />
<glyph unicode="#" horiz-adv-x="909" d="M45 477q0 31 22.5 54.5t55.5 23.5h47v254h-47q-33 0 -55.5 22.5t-22.5 55.5q0 31 22.5 54.5t55.5 23.5h47v309q0 33 22.5 55.5t55.5 22.5q30 0 54 -22.5t24 -55.5v-309h254v309q0 33 22.5 55.5t54.5 22.5q31 0 54.5 -22.5t23.5 -55.5v-309h53q33 0 55.5 -22.5t22.5 -55.5 q0 -31 -22.5 -54.5t-55.5 -23.5h-53v-254h53q33 0 55.5 -22.5t22.5 -55.5q0 -31 -22.5 -54.5t-55.5 -23.5h-53v-321q0 -33 -22.5 -55.5t-55.5 -22.5q-30 0 -53.5 22.5t-23.5 55.5v321h-254v-321q0 -33 -22.5 -55.5t-55.5 -22.5q-31 0 -54.5 22.5t-23.5 55.5v321h-47 q-33 0 -55.5 22.5t-22.5 55.5zM326 555h254v254h-254v-254z" />
<glyph unicode="$" horiz-adv-x="1038" d="M30 338q0 33 20.5 55.5t51.5 22.5q32 0 53.5 -22.5t36.5 -55.5q28 -70 92.5 -119t151.5 -65v499q-80 9 -145.5 33.5t-114 67.5t-75 105.5t-26.5 141.5q0 152 97.5 244t263.5 111v94q0 33 22.5 55.5t54.5 22.5q31 0 54.5 -22.5t23.5 -55.5v-98q33 -6 75 -17.5t85 -34 t83 -57.5t70 -86q5 -10 10 -22.5t5 -26.5q0 -25 -20.5 -50.5t-55.5 -25.5q-39 0 -59 27q-41 47 -84 84t-109 53v-395q88 -10 165 -40t133 -80t88 -121t32 -161q0 -92 -32 -162.5t-88 -122t-133 -81t-165 -37.5v-109q0 -32 -22.5 -54.5t-55.5 -22.5q-30 0 -53.5 22.5 t-23.5 54.5v111q-41 6 -94.5 21.5t-109 49t-106.5 88t-88 138.5q-8 18 -8 43zM231 1001q0 -92 57 -136t148 -56v389q-113 -16 -159 -72.5t-46 -124.5zM591 152q53 8 100.5 26.5t83 48t57 72.5t21.5 100q0 56 -20.5 99t-56 72.5t-83 48t-102.5 24.5v-491z" />
<glyph unicode="%" horiz-adv-x="1261" d="M32 905v203q0 51 19.5 97t54.5 80t80 53.5t98 19.5q51 0 98 -19.5t81 -53.5t54.5 -80t20.5 -97v-203q0 -51 -20.5 -97t-54.5 -80t-81 -53.5t-98 -19.5t-97 19.5t-80 53.5t-54.5 80t-20.5 97zM100 78q0 28 18 51l915 1198q11 14 26 20.5t32 6.5q35 0 57.5 -23.5 t22.5 -54.5q0 -12 -3 -25.5t-14 -23.5l-915 -1198q-23 -29 -57 -29q-35 0 -58.5 24.5t-23.5 53.5zM138 905q0 -59 43.5 -101t102.5 -42q61 0 104 42t43 101v203q0 59 -44 101t-103 42q-62 0 -104 -42t-42 -101v-203zM728 242v202q0 52 19.5 98t54.5 79.5t80 53t98 19.5 q51 0 98.5 -19.5t81 -53t54 -79.5t20.5 -98v-202q0 -52 -20.5 -98t-54 -79.5t-81 -53t-98.5 -19.5t-97 19.5t-80 53t-54.5 79.5t-20.5 98zM835 242q0 -60 43 -102t102 -42q62 0 105 42t43 102v202q0 60 -44 102t-104 42q-61 0 -103 -42t-42 -102v-202z" />
<glyph unicode="&#x26;" horiz-adv-x="1128" d="M43 477q0 101 39 189t105.5 154.5t154.5 104.5t188 38v-156q-67 0 -127.5 -26.5t-105.5 -70.5t-71.5 -104.5t-26.5 -128.5q0 -67 25.5 -127.5t70.5 -104.5t105.5 -71t129.5 -27q68 0 126.5 27t99.5 71t64.5 104.5t23.5 127.5h155q0 -100 -35.5 -188t-98 -154.5 t-148.5 -104.5t-187 -38q-100 0 -189 38t-154.5 104.5t-104.5 154.5t-39 188zM256 1079q0 58 21.5 107t59.5 86t88 58.5t107 21.5v-156q-49 0 -84.5 -34t-35.5 -83t34.5 -82.5t83.5 -33.5l2 -156h-2q-57 0 -107 21.5t-87 58.5t-58.5 86t-21.5 106zM530 807v156h486 q33 0 55.5 -22.5t22.5 -55.5q0 -31 -22.5 -54.5t-55.5 -23.5h-486zM532 1196v156h95q32 0 55 -22.5t23 -55.5q0 -31 -23 -54.5t-55 -23.5h-95zM844 477v504q0 33 22.5 55.5t55.5 22.5q30 0 53.5 -22.5t23.5 -55.5v-504h-155z" />
<glyph unicode="'" horiz-adv-x="331" d="M67 1137v161q0 29 23.5 53.5t52.5 24.5h82q32 0 55 -23.5t23 -54.5q0 -32 -23 -54.5t-55 -22.5h-2v-84q0 -33 -23.5 -55.5t-54.5 -22.5q-33 0 -55.5 22.5t-22.5 55.5z" />
<glyph unicode="(" horiz-adv-x="536" d="M61 -74v1135q0 76 29.5 143.5t80 117.5t118 79t143.5 29q32 0 55 -23t23 -55q0 -33 -23 -55.5t-55 -22.5q-43 0 -82 -16.5t-67.5 -44t-46 -64.5t-19.5 -80v-1151q2 -43 19.5 -80t46 -64.5t67.5 -44t82 -16.5q32 0 55 -22.5t23 -55.5q0 -32 -23 -54.5t-55 -22.5 q-76 0 -143.5 28.5t-118 78.5t-80 117.5t-29.5 143.5z" />
<glyph unicode=")" horiz-adv-x="538" d="M26 -365q0 33 22.5 55.5t55.5 22.5q43 0 81 16.5t67.5 44t47 64.5t19.5 80v1151q-2 43 -19.5 80t-47 64.5t-67.5 44t-81 16.5q-33 0 -55.5 22.5t-22.5 55.5q0 32 22.5 55t55.5 23q76 0 143.5 -29t117.5 -79t80 -117.5t30 -143.5v-1135q0 -76 -30 -143.5t-80 -117.5 t-117.5 -78.5t-143.5 -28.5q-33 0 -55.5 22.5t-22.5 54.5z" />
<glyph unicode="*" horiz-adv-x="792" d="M36 578q0 30 22.5 53.5t55.5 23.5h145l-71 127q-11 15 -11 37q0 29 20.5 54.5t55.5 25.5q21 -2 40 -11t30 -28l73 -129l74 127q23 39 68 39q35 0 55.5 -23.5t20.5 -56.5q0 -20 -9 -37l-73 -125h145q33 0 55.5 -22.5t22.5 -54.5q0 -31 -22.5 -54.5t-55.5 -23.5h-147 l73 -129q11 -21 11 -39q0 -29 -20.5 -53.5t-57.5 -24.5q-45 0 -68 39l-74 127l-73 -127q-23 -39 -68 -39q-35 0 -56.5 23.5t-21.5 56.5q0 16 11 37l75 129h-147q-33 0 -55.5 22.5t-22.5 55.5z" />
<glyph unicode="+" horiz-adv-x="747" d="M14 578q0 30 22.5 53.5t55.5 23.5h203v203q0 33 22.5 55.5t54.5 22.5q31 0 54.5 -22.5t23.5 -55.5v-203h205q33 0 55.5 -22.5t22.5 -54.5q0 -31 -22.5 -54.5t-55.5 -23.5h-205v-205q0 -33 -22.5 -55.5t-55.5 -22.5q-30 0 -53.5 22.5t-23.5 55.5v205h-203 q-33 0 -55.5 22.5t-22.5 55.5z" />
<glyph unicode="," horiz-adv-x="290" d="M65 78q0 33 22.5 55.5t55.5 22.5q31 0 54.5 -22.5t23.5 -55.5v-168q0 -33 -22.5 -55.5t-55.5 -22.5q-31 0 -54.5 22.5t-23.5 55.5v168z" />
<glyph unicode="-" d="M69 578q0 30 22.5 53.5t55.5 23.5h563q33 0 55.5 -22.5t22.5 -54.5q0 -31 -22.5 -54.5t-55.5 -23.5h-563q-33 0 -55.5 22.5t-22.5 55.5z" />
<glyph unicode="." horiz-adv-x="262" d="M53 78q0 33 22.5 55.5t55.5 22.5q31 0 54.5 -22.5t23.5 -55.5t-22.5 -55.5t-55.5 -22.5q-31 0 -54.5 22.5t-23.5 55.5z" />
<glyph unicode="/" horiz-adv-x="1083" d="M6 78q0 28 18 51l916 1198q10 14 25.5 20.5t31.5 6.5q35 0 57.5 -23.5t22.5 -54.5q0 -12 -3 -25.5t-13 -23.5l-916 -1198q-22 -29 -57 -29t-58.5 24.5t-23.5 53.5z" />
<glyph unicode="0" horiz-adv-x="946" d="M61 365v624q0 84 33 158t88 129t130 87t159 32q86 0 160.5 -32t130 -87t88 -129t32.5 -158v-624q0 -84 -32.5 -158t-88 -129t-130 -88t-160.5 -33q-84 0 -159 33t-130 88t-88 129t-33 158zM217 365q0 -54 20.5 -99t54 -79.5t79.5 -54t100 -19.5q53 0 100 19.5t82 54 t54.5 79.5t19.5 99v624q0 51 -20.5 98.5t-55.5 81t-81 54t-99 20.5q-54 0 -100 -20.5t-80.5 -54t-54 -81t-19.5 -98.5v-624z" />
<glyph unicode="1" horiz-adv-x="444" d="M6 1151q0 20 9 39.5t30 30.5l201 116q20 15 45 15q30 0 53.5 -22.5t23.5 -55.5v-1196q0 -33 -22.5 -55.5t-54.5 -22.5q-31 0 -54.5 22.5t-23.5 55.5v1059l-88 -52q-23 -12 -41 -12q-29 0 -53.5 21.5t-24.5 56.5z" />
<glyph unicode="2" horiz-adv-x="940" d="M55 78q0 28 18 51l590 700q25 25 41.5 71t16.5 87v2q0 51 -19.5 97.5t-54.5 81t-82 54t-100 19.5q-52 0 -98 -19.5t-80.5 -53t-55 -77.5t-20.5 -96q0 -32 -22.5 -54.5t-55.5 -22.5t-55.5 22.5t-22.5 54.5q0 82 33 155t89 128t131 87t157 32q86 0 160.5 -33t130 -88 t88 -129t32.5 -158v-2q0 -74 -24.5 -139.5t-69.5 -118.5h2l-477 -573h512q33 0 55.5 -22.5t22.5 -55.5t-22.5 -55.5t-55.5 -22.5h-686q-33 0 -55.5 22.5t-22.5 55.5z" />
<glyph unicode="3" horiz-adv-x="913" d="M43 365q0 32 22.5 54.5t55.5 22.5t55.5 -22.5t22.5 -54.5q0 -54 20.5 -99t54 -79.5t79.5 -54t100 -19.5q53 0 100 19.5t82 54t54.5 79.5t19.5 99v2q0 51 -19.5 102t-53.5 92t-80 66.5t-97 27.5h-6q-31 0 -53.5 22.5t-22.5 53.5t22.5 53.5t53.5 22.5h8q39 2 73.5 23.5 t61.5 54.5t41 72.5t14 80.5t-15 77t-43 63.5t-63.5 43t-76.5 15.5t-78 -15.5t-63.5 -43t-42 -63.5t-15.5 -75q0 -32 -22.5 -54.5t-55.5 -22.5t-55.5 22.5t-22.5 54.5v4q0 72 28 135.5t76 111.5t112.5 76t138.5 28q73 0 137.5 -28t114 -76t77 -111.5t27.5 -135.5v-2 q0 -41 -9 -84t-25.5 -83.5t-40 -76.5t-52.5 -61q41 -26 75 -68t57.5 -91.5t36.5 -104.5t13 -106v-2q0 -84 -32.5 -158t-88 -129t-130 -88t-160.5 -33q-84 0 -159 33t-130 88t-88 129t-33 158z" />
<glyph unicode="4" horiz-adv-x="874" d="M6 283q0 20 12 43l566 989q10 16 28.5 25.5t36.5 9.5q33 0 56.5 -23.5t23.5 -52.5v-914h20q33 0 55.5 -22.5t22.5 -54.5q0 -33 -22.5 -55.5t-55.5 -22.5h-20v-127q0 -33 -22.5 -55.5t-55.5 -22.5t-55.5 22.5t-22.5 55.5v127h-489q-31 0 -54.5 24.5t-23.5 53.5zM219 360 h354v619z" />
<glyph unicode="5" horiz-adv-x="921" d="M53 365q0 32 22.5 54.5t55.5 22.5t55.5 -22.5t22.5 -54.5v-7q0 -51 20.5 -96t55 -77.5t80.5 -52t98 -19.5q53 0 100 19.5t82 54t54.5 79.5t19.5 99v184q0 51 -19.5 97t-54.5 81t-82 54.5t-100 19.5q-64 0 -117 -28t-90 -75q-13 -14 -30 -28.5t-46 -14.5q-33 0 -52.5 21.5 t-19.5 54.5v543q0 33 22.5 55.5t55.5 22.5h555q33 0 55.5 -22.5t22.5 -55.5t-22.5 -55.5t-55.5 -22.5h-477v-293q45 25 95 39t104 14q86 0 160.5 -32.5t130 -88t88 -129t32.5 -157.5v-184q0 -84 -32.5 -158t-88 -129t-130 -88t-160.5 -33q-84 0 -159 33t-130 88t-88 129 t-33 158z" />
<glyph unicode="6" horiz-adv-x="933" d="M61 365v587q0 84 33 158t88 129t130 88t161 33q41 0 96 -13.5t104.5 -38t83 -57t33.5 -71.5q0 -33 -22.5 -55.5t-55.5 -22.5q-43 0 -65 33q-35 32 -80 50.5t-94 18.5q-54 0 -101 -19.5t-81.5 -54t-54 -80.5t-19.5 -98v-88q53 41 117.5 64.5t136.5 23.5q86 0 160.5 -31.5 t130 -87t88 -129t32.5 -157.5v-182q0 -84 -32.5 -158t-88 -129t-130 -88t-160.5 -33q-84 0 -159 33t-130 88t-88 129t-33 158zM217 365q0 -54 20.5 -99t54 -79.5t79.5 -54t100 -19.5q53 0 100 19.5t82 54t54.5 79.5t19.5 99v182q0 51 -20.5 98t-55.5 81t-81 54.5t-99 20.5 q-54 0 -99 -19.5t-78.5 -52.5t-54 -78t-22.5 -94v-192z" />
<glyph unicode="7" horiz-adv-x="897" d="M49 76q0 20 12 43l617 1077h-551q-33 0 -55.5 22.5t-22.5 55.5t22.5 55.5t55.5 22.5h6h670q32 0 60 -21.5t28 -56.5q0 -23 -13 -43l-684 -1196q-10 -19 -28.5 -27t-36.5 -10q-33 0 -56.5 23.5t-23.5 54.5z" />
<glyph unicode="8" horiz-adv-x="919" d="M49 399v2q0 105 49 194t133 142q-59 49 -93 120t-34 151v2q0 71 28 134.5t76 112t112.5 76t138.5 27.5q73 0 137.5 -27.5t114 -76t77 -112t27.5 -134.5v-2q0 -80 -34 -151t-93 -120q84 -53 133 -142t49 -194v-2q0 -84 -32.5 -157.5t-88 -129t-130 -88t-160.5 -32.5 q-84 0 -159 32.5t-130 88t-88 129t-33 157.5zM205 399q0 -53 20.5 -98t54 -80t79.5 -54.5t100 -19.5q53 0 100 19.5t82 54.5t54.5 80t19.5 98v2q0 52 -19.5 97t-53.5 78.5t-78 55t-95 23.5h-10q-54 0 -100 -20.5t-80.5 -54t-54 -80.5t-19.5 -99v-2zM260 1004q0 -41 15.5 -77 t43 -62.5t63.5 -42t77 -15.5q84 0 141 57.5t57 139.5q0 40 -15 76t-43 63.5t-63.5 43t-76.5 15.5t-78 -15.5t-63.5 -43t-42 -63.5t-15.5 -76z" />
<glyph unicode="9" horiz-adv-x="931" d="M49 805v147q0 84 33 158t88 129t130 88t161 33q84 0 158.5 -33t130 -88t88 -129t32.5 -158v-553q0 -84 -32.5 -157.5t-88 -129t-130 -88t-160.5 -32.5q-41 0 -96.5 13t-104.5 38t-83 57.5t-34 71.5q0 33 22.5 55.5t55.5 22.5q43 0 66 -33q34 -33 79 -51.5t95 -18.5 q53 0 100 19.5t82 54.5t54.5 80t19.5 98v88q-54 -41 -118.5 -64.5t-135.5 -23.5q-86 0 -161 32t-130 87t-88 129t-33 158zM205 805q0 -53 20.5 -99.5t55 -80t80.5 -54t100 -20.5q51 0 97 19.5t80 52t54.5 77.5t22.5 95v157q0 52 -20.5 98t-54.5 80.5t-81 54t-98 19.5 q-54 0 -101 -19.5t-81.5 -54t-54 -80.5t-19.5 -98v-147z" />
<glyph unicode=":" horiz-adv-x="249" d="M47 78q0 33 22.5 55.5t55.5 22.5q31 0 54.5 -22.5t23.5 -55.5t-22.5 -55.5t-55.5 -22.5q-31 0 -54.5 22.5t-23.5 55.5zM47 938q0 33 22.5 55.5t55.5 22.5q31 0 54.5 -22.5t23.5 -55.5t-22.5 -55.5t-55.5 -22.5q-31 0 -54.5 22.5t-23.5 55.5z" />
<glyph unicode=";" horiz-adv-x="253" d="M47 78q0 33 22.5 55.5t55.5 22.5q31 0 54.5 -22.5t23.5 -55.5v-168q0 -33 -22.5 -55.5t-55.5 -22.5q-31 0 -54.5 22.5t-23.5 55.5v168zM47 938q0 33 22.5 55.5t55.5 22.5q31 0 54.5 -22.5t23.5 -55.5t-22.5 -55.5t-55.5 -22.5q-31 0 -54.5 22.5t-23.5 55.5z" />
<glyph unicode="&#x3c;" horiz-adv-x="522" d="M12 498q0 28 18 53l287 375q10 14 25.5 20t31.5 6q35 0 57.5 -23.5t22.5 -54.5q0 -12 -3 -25t-13 -24l-250 -325l250 -324q16 -18 16 -51q0 -29 -22.5 -53.5t-57.5 -24.5q-34 0 -57 29l-289 377q-16 22 -16 45z" />
<glyph unicode="=" d="M69 422q0 31 22.5 54.5t55.5 23.5h563q33 0 55.5 -22.5t22.5 -55.5q0 -31 -22.5 -54.5t-55.5 -23.5h-563q-33 0 -55.5 22.5t-22.5 55.5zM69 735q0 31 22.5 54.5t55.5 23.5h563q33 0 55.5 -22.5t22.5 -55.5q0 -30 -22.5 -54t-55.5 -24h-563q-33 0 -55.5 22.5t-22.5 55.5z " />
<glyph unicode="&#x3e;" horiz-adv-x="522" d="M67 125q0 29 18 51l250 326l-250 323q-18 21 -18 49q0 31 23.5 54.5t58.5 23.5q16 0 31.5 -6t25.5 -20l289 -377q16 -23 16 -47q0 -27 -18 -51l-287 -375q-22 -29 -57 -29t-58.5 24.5t-23.5 53.5z" />
<glyph unicode="?" horiz-adv-x="997" d="M22 1024q0 16 6 33q27 67 73 122.5t104.5 95.5t128 62.5t145.5 22.5q100 0 190 -38t155.5 -104.5t104.5 -154.5t39 -189v-2q0 -86 -33.5 -171t-94 -152.5t-145.5 -109.5t-190 -42v-2q0 -33 -23.5 -55.5t-53.5 -22.5q-33 0 -55.5 22.5t-22.5 55.5v70q0 33 23.5 55.5 t54.5 22.5q6 0 12 -1t12 -1q80 0 145.5 28.5t113.5 75.5t75 106.5t27 120.5v2q0 68 -26 128.5t-71 104.5t-106.5 70.5t-130.5 26.5q-107 0 -189 -60.5t-121 -152.5q-10 -22 -29.5 -33.5t-41.5 -11.5q-35 0 -55.5 24.5t-20.5 53.5zM350 78v59q0 33 23.5 55.5t54.5 22.5 q32 0 54.5 -22.5t22.5 -55.5v-59q0 -33 -23.5 -55.5t-53.5 -22.5q-33 0 -55.5 22.5t-22.5 55.5z" />
<glyph unicode="@" horiz-adv-x="1079" d="M53 416v176q0 100 39 188t104.5 154.5t154.5 104.5t191 38q101 0 189 -38t154.5 -104.5t105.5 -154.5t39 -188v-176q0 -31 -11.5 -71t-36 -76t-64.5 -59.5t-97 -23.5h-281q-47 0 -89 18.5t-73.5 50.5t-50 75t-18.5 90v168q0 47 18.5 90t50 74.5t74.5 50t90 18.5 q48 0 91 -18.5t74.5 -50t50 -74.5t18.5 -90v-168q0 -21 -4 -40.5t-10 -37.5h59q35 0 44 26.5t9 47.5v176q0 67 -26.5 127.5t-71.5 104.5t-105.5 71t-128.5 27q-69 0 -130.5 -27t-106.5 -71t-70.5 -104.5t-25.5 -127.5v-176q0 -68 26.5 -128.5t71.5 -104.5t106.5 -70.5 t128.5 -26.5h357q-68 -72 -160 -114t-197 -42q-100 0 -189 38t-155.5 104.5t-105.5 154.5t-39 189zM465 420q0 -33 21.5 -55.5t53.5 -22.5h2q33 0 55.5 22.5t22.5 55.5v168q0 33 -22.5 55.5t-55.5 22.5q-32 0 -54.5 -22.5t-22.5 -55.5v-168z" />
<glyph unicode="A" horiz-adv-x="1247" d="M30 74q0 16 6 32l516 1207q21 47 72 47q14 0 31 -6q28 -13 41 -41l516 -1207q6 -16 6 -32q0 -27 -20.5 -51.5t-55.5 -24.5q-51 0 -72 47l-145 340h-602l-146 -340q-10 -22 -29.5 -34.5t-41.5 -12.5q-35 0 -55.5 24.5t-20.5 51.5zM388 541h469l-233 546z" />
<glyph unicode="B" horiz-adv-x="1091" d="M73 78v1196q0 33 22.5 55.5t55.5 22.5h409q58 0 108 -21.5t88 -58.5t59.5 -86t21.5 -107q0 -47 -15.5 -90t-41.5 -78q120 -59 195 -172.5t75 -257.5q0 -100 -39 -187t-104.5 -152.5t-154.5 -103.5t-190 -38h-411q-31 0 -54.5 22.5t-23.5 55.5zM229 156h333 q70 0 130.5 25.5t105.5 69.5t70.5 103.5t25.5 126.5q0 66 -25.5 124.5t-70.5 102.5t-105.5 70.5t-130.5 28.5h-333v-651zM229 963h333q50 0 84.5 33.5t34.5 82.5t-35.5 83t-85.5 34h-331v-233z" />
<glyph unicode="C" horiz-adv-x="1048" d="M57 442v469q0 101 39 189t104.5 154.5t154.5 104.5t191 38q74 0 142.5 -21.5t127 -61.5t103.5 -94.5t74 -119.5q6 -6 8 -17.5t2 -21.5q0 -29 -20.5 -53.5t-57.5 -24.5q-47 0 -69 45q-37 92 -121 152.5t-189 60.5q-69 0 -130.5 -26.5t-106.5 -70.5t-70.5 -104.5 t-25.5 -128.5v-469q0 -67 26.5 -127.5t71.5 -104.5t106.5 -70.5t128.5 -26.5q111 0 193 60t119 155q8 22 27.5 32.5t39.5 10.5q35 0 56.5 -24.5t21.5 -53.5q0 -17 -6 -31q-27 -67 -72 -122.5t-103 -96.5t-129 -63.5t-147 -22.5q-100 0 -189 38t-155.5 104.5t-105.5 154.5 t-39 188z" />
<glyph unicode="D" horiz-adv-x="1107" d="M73 78v1196q0 33 22.5 55.5t55.5 22.5h409q101 0 191 -38t155.5 -103.5t104.5 -152.5t39 -188v-389q0 -100 -39 -187t-104.5 -152.5t-154.5 -103.5t-190 -38h-411q-31 0 -54.5 22.5t-23.5 55.5zM229 156h333q70 0 130.5 25.5t105.5 69.5t70.5 103.5t25.5 126.5v389 q0 68 -25.5 127.5t-70.5 103.5t-106.5 69.5t-131.5 25.5h-331v-1040z" />
<glyph unicode="E" horiz-adv-x="1081" d="M73 78v1196q0 33 22.5 55.5t55.5 22.5h821q33 0 55.5 -22.5t22.5 -55.5q0 -31 -22.5 -54.5t-55.5 -23.5h-743v-463h241q33 0 55.5 -22.5t22.5 -55.5q0 -30 -22.5 -53.5t-55.5 -23.5h-241v-422h743q33 0 55.5 -22.5t22.5 -55.5q0 -31 -22.5 -54.5t-55.5 -23.5h-815h-6 q-31 0 -54.5 22.5t-23.5 55.5z" />
<glyph unicode="F" horiz-adv-x="1050" d="M73 78v1196q0 31 21.5 53.5t52.5 24.5h10h815q33 0 55.5 -22.5t22.5 -55.5q0 -31 -22.5 -54.5t-55.5 -23.5h-743v-463h241q33 0 55.5 -22.5t22.5 -55.5q0 -30 -22.5 -53.5t-55.5 -23.5h-241v-500q0 -33 -22.5 -55.5t-55.5 -22.5q-31 0 -54.5 22.5t-23.5 55.5z" />
<glyph unicode="G" horiz-adv-x="1085" d="M59 442v467q0 101 39 189t104.5 154.5t154.5 104.5t191 38q76 0 146 -22.5t128 -62.5t104 -95.5t73 -122.5q6 -17 6 -33q0 -29 -20.5 -53.5t-57.5 -24.5q-20 0 -39.5 11.5t-29.5 33.5q-39 92 -122 152.5t-188 60.5q-69 0 -130.5 -26.5t-106.5 -70.5t-70.5 -104.5 t-25.5 -128.5v-467q0 -67 26.5 -127.5t71.5 -104.5t106.5 -70.5t128.5 -26.5q70 0 130.5 26.5t105.5 70.5t70.5 104.5t25.5 127.5v101h-157q-33 0 -55.5 22.5t-22.5 55.5q0 30 22.5 53.5t55.5 23.5h235q33 0 55.5 -22.5t22.5 -54.5v-179q0 -100 -39 -188t-104.5 -154.5 t-154.5 -104.5t-190 -38q-100 0 -189 38t-155.5 104.5t-105.5 154.5t-39 188z" />
<glyph unicode="H" horiz-adv-x="1126" d="M73 78v1196q0 33 23.5 55.5t54.5 22.5q33 0 55.5 -22.5t22.5 -55.5v-541h665v541q0 33 23.5 55.5t54.5 22.5q33 0 55.5 -22.5t22.5 -55.5v-1196q0 -33 -23.5 -55.5t-54.5 -22.5q-33 0 -55.5 22.5t-22.5 55.5v500h-665v-500q0 -33 -23.5 -55.5t-54.5 -22.5 q-33 0 -55.5 22.5t-22.5 55.5z" />
<glyph unicode="I" horiz-adv-x="309" d="M73 78v1196q0 33 22.5 55.5t55.5 22.5q31 0 54.5 -22.5t23.5 -55.5v-1196q0 -33 -22.5 -55.5t-55.5 -22.5q-31 0 -54.5 22.5t-23.5 55.5z" />
<glyph unicode="J" horiz-adv-x="520" d="M6 70q0 32 22.5 54.5t55.5 22.5q43 0 81 16.5t67.5 44.5t47 64.5t19.5 79.5v922q0 33 23.5 55.5t54.5 22.5q32 0 55 -22.5t23 -55.5v-914q0 -75 -30 -142.5t-80 -118t-117.5 -79t-143.5 -28.5q-33 0 -55.5 22.5t-22.5 55.5z" />
<glyph unicode="K" horiz-adv-x="1093" d="M73 78v1196q0 33 22.5 55.5t55.5 22.5q31 0 54.5 -22.5t23.5 -55.5v-336l491 395q21 19 49 19q29 0 52.5 -21.5t23.5 -56.5q0 -37 -27 -62l-419 -338l630 -747q21 -21 21 -51q0 -29 -22.5 -52.5t-55.5 -23.5q-37 0 -61 27l-633 751l-49 -39v-661q0 -33 -22.5 -55.5 t-55.5 -22.5q-31 0 -54.5 22.5t-23.5 55.5z" />
<glyph unicode="L" horiz-adv-x="1050" d="M73 78v1196q0 33 22.5 55.5t55.5 22.5q31 0 54.5 -22.5t23.5 -55.5v-1118h743q33 0 55.5 -22.5t22.5 -55.5q0 -31 -22.5 -54.5t-55.5 -23.5h-821q-31 0 -54.5 22.5t-23.5 55.5z" />
<glyph unicode="M" horiz-adv-x="1794" d="M69 78v796q0 101 35 189t97.5 153.5t147.5 104.5t185 39q123 0 213 -48t149 -128q66 78 153 127t208 49q100 0 186 -39t148.5 -104.5t97.5 -153.5t35 -189v-796q0 -33 -23.5 -55.5t-54.5 -22.5q-33 0 -55.5 22.5t-22.5 55.5v796q0 68 -22.5 128.5t-63.5 104.5t-98.5 70.5 t-126.5 26.5q-68 0 -121 -26.5t-89 -70.5t-54.5 -104.5t-18.5 -128.5v-796q0 -33 -22.5 -55.5t-55.5 -22.5q-32 0 -54.5 22.5t-22.5 55.5v799q0 67 -19.5 126.5t-55.5 103.5t-89.5 70.5t-120.5 26.5q-68 0 -125 -26.5t-98 -70.5t-63.5 -104.5t-22.5 -128.5v-796 q0 -33 -23.5 -55.5t-54.5 -22.5q-33 0 -55.5 22.5t-22.5 55.5z" />
<glyph unicode="N" horiz-adv-x="1107" d="M65 78v796q0 101 39 189t104.5 153.5t154.5 104.5t189 39q101 0 190 -39t155.5 -104.5t105.5 -153.5t39 -189v-796q0 -33 -22.5 -55.5t-55.5 -22.5q-31 0 -54.5 22.5t-23.5 55.5v796q0 68 -26.5 128.5t-71.5 104.5t-106.5 70.5t-129.5 26.5q-69 0 -129.5 -26.5 t-105.5 -70.5t-70.5 -104.5t-25.5 -128.5v-796q0 -33 -22.5 -55.5t-55.5 -22.5q-31 0 -54.5 22.5t-23.5 55.5z" />
<glyph unicode="O" horiz-adv-x="1095" d="M59 442v467q0 101 39 189t104.5 154.5t154.5 104.5t191 38q101 0 189 -38t154.5 -104.5t105.5 -154.5t39 -189v-467q0 -100 -39 -188t-104.5 -154.5t-154.5 -104.5t-190 -38q-100 0 -189 38t-155.5 104.5t-105.5 154.5t-39 188zM215 442q0 -67 26.5 -127.5t71.5 -104.5 t106.5 -70.5t128.5 -26.5q70 0 130.5 26.5t105.5 70.5t70.5 104.5t25.5 127.5v467q0 68 -26.5 128.5t-71.5 104.5t-105.5 70.5t-128.5 26.5q-69 0 -130.5 -26.5t-106.5 -70.5t-70.5 -104.5t-25.5 -128.5v-467z" />
<glyph unicode="P" horiz-adv-x="1067" d="M73 78v1196q0 33 22.5 55.5t55.5 22.5h409h2q101 0 189 -38t154.5 -102.5t105.5 -152.5t39 -189q0 -100 -39 -187t-104.5 -152.5t-154.5 -103.5t-190 -38h-333v-311q0 -33 -22.5 -55.5t-55.5 -22.5q-31 0 -54.5 22.5t-23.5 55.5zM229 545h333q70 0 130.5 25.5t105.5 69.5 t70.5 103.5t25.5 126.5q0 68 -26.5 127.5t-71.5 103.5t-105.5 69.5t-128.5 25.5h-333v-651z" />
<glyph unicode="Q" horiz-adv-x="1075" d="M49 436v475q0 101 39 189t104.5 154.5t154.5 104.5t191 38q101 0 189 -38t154.5 -104.5t105.5 -154.5t39 -189v-475q0 -90 -32 -171t-87 -144.5t-130 -106.5t-161 -57v-137q0 -33 -22.5 -55.5t-55.5 -22.5q-30 0 -53.5 22.5t-23.5 55.5v137q-86 14 -162 57t-131.5 106.5 t-87 144.5t-31.5 171zM205 436q0 -67 26.5 -127.5t71.5 -104.5t106.5 -71t128.5 -27q70 0 130.5 27t105.5 71t70.5 104.5t25.5 127.5v475q0 68 -26.5 128.5t-71.5 104.5t-105.5 70.5t-128.5 26.5q-69 0 -130.5 -26.5t-106.5 -70.5t-70.5 -104.5t-25.5 -128.5v-475z" />
<glyph unicode="R" horiz-adv-x="1122" d="M73 78v1196q0 33 23.5 55.5t54.5 22.5h411q101 0 190 -38t154.5 -103.5t104.5 -152.5t39 -188q0 -143 -75 -256.5t-195 -173.5l268 -311q18 -23 18 -51q0 -33 -22.5 -56.5t-55.5 -23.5q-32 0 -59 27l-278 321q-17 19 -39.5 31t-46.5 12h-336v-311q0 -33 -23.5 -55.5 t-54.5 -22.5q-33 0 -55.5 22.5t-22.5 55.5zM229 545h333q68 0 128.5 25.5t105.5 69.5t71.5 103.5t26.5 126.5q0 68 -25.5 127.5t-70.5 103.5t-105.5 69.5t-130.5 25.5h-333v-651z" />
<glyph unicode="S" horiz-adv-x="1073" d="M47 303q0 33 20.5 55.5t51.5 22.5q30 0 54 -21.5t36 -56.5q37 -82 122 -136t201 -54q64 0 125.5 14t108.5 45t75.5 79t28.5 114q0 65 -27.5 118.5t-74.5 90t-107.5 56t-128.5 19.5q-94 0 -175 26.5t-139 77t-92 122t-34 161.5q0 170 120 264.5t320 94.5q4 0 48.5 -3 t105.5 -22.5t125.5 -60.5t109.5 -117q5 -10 10 -22.5t5 -26.5q0 -25 -20.5 -50.5t-55.5 -25.5q-39 0 -59 27q-27 30 -52.5 57t-56.5 46.5t-69.5 30.5t-92.5 11q-77 0 -131.5 -17.5t-88.5 -45t-48 -64.5t-14 -76q0 -55 22.5 -98t60.5 -72.5t90 -45t111 -15.5q101 0 191 -31 t157.5 -88t106.5 -139t39 -182q0 -103 -40 -179.5t-108.5 -128t-159.5 -76t-194 -24.5q-20 0 -77.5 6t-129 36t-143.5 91.5t-119 169.5q-8 19 -8 43z" />
<glyph unicode="T" horiz-adv-x="1015" d="M20 1274q0 31 22.5 54.5t55.5 23.5h821q33 0 55.5 -22.5t22.5 -55.5q0 -31 -22.5 -54.5t-55.5 -23.5h-334v-1118q0 -33 -22.5 -55.5t-55.5 -22.5q-30 0 -53.5 22.5t-23.5 55.5v1118h-332q-33 0 -55.5 22.5t-22.5 55.5z" />
<glyph unicode="U" horiz-adv-x="1107" d="M65 442v832q0 33 22.5 55.5t55.5 22.5q31 0 54.5 -22.5t23.5 -55.5v-832q0 -67 26.5 -127.5t71.5 -104.5t106.5 -70.5t128.5 -26.5q70 0 130.5 26.5t105.5 70.5t70.5 104.5t25.5 127.5v832q0 33 22.5 55.5t55.5 22.5q31 0 54.5 -22.5t23.5 -55.5v-832q0 -100 -39 -188 t-104.5 -154.5t-154.5 -104.5t-190 -38q-100 0 -189 38t-155.5 104.5t-105.5 154.5t-39 188z" />
<glyph unicode="V" horiz-adv-x="1245" d="M28 1276q0 29 20.5 53.5t55.5 24.5q22 0 41.5 -12.5t29.5 -34.5l447 -1043l446 1043q21 47 72 47q35 0 55.5 -24.5t20.5 -53.5q0 -16 -6 -31l-516 -1206q-13 -29 -41 -41q-17 -6 -31 -6q-51 0 -72 47l-516 1206q-6 15 -6 31z" />
<glyph unicode="W" horiz-adv-x="1794" d="M69 442v832q0 33 23.5 55.5t54.5 22.5q33 0 55.5 -22.5t22.5 -55.5v-832q0 -67 22.5 -127.5t63.5 -104.5t98 -70.5t127 -26.5q68 0 121 26.5t89 70.5t54.5 104.5t18.5 127.5v832q0 33 22.5 55.5t54.5 22.5q33 0 55.5 -22.5t22.5 -55.5v-834q0 -67 19.5 -126.5 t55.5 -103.5t89 -70.5t121 -26.5q67 0 124.5 26.5t98.5 70.5t63.5 104.5t22.5 127.5v832q0 33 23.5 55.5t54.5 22.5q33 0 55.5 -22.5t22.5 -55.5v-832q0 -100 -35 -188t-97.5 -154.5t-147.5 -104.5t-185 -38q-123 0 -213 48t-150 128q-65 -78 -152 -127t-208 -49 q-100 0 -186 38t-148.5 104.5t-97.5 154.5t-35 188z" />
<glyph unicode="X" horiz-adv-x="1206" d="M67 78q0 28 18 51l420 549l-420 549q-18 20 -18 49q0 31 23.5 54.5t58.5 23.5q16 0 31.5 -6.5t25.5 -20.5l398 -520l397 520q10 14 25.5 20.5t31.5 6.5q35 0 57.5 -23.5t22.5 -54.5q0 -12 -3 -25.5t-13 -23.5l-420 -549l420 -549q16 -18 16 -51q0 -29 -22.5 -53.5 t-57.5 -24.5t-57 29l-397 520l-398 -520q-22 -29 -57 -29t-58.5 24.5t-23.5 53.5z" />
<glyph unicode="Y" horiz-adv-x="1058" d="M40 874v400q0 33 22.5 55.5t55.5 22.5q31 0 54.5 -22.5t23.5 -55.5v-400q0 -67 26.5 -127.5t71.5 -104.5t106.5 -70.5t128.5 -26.5q70 0 130.5 26.5t105.5 70.5t70.5 104.5t25.5 127.5v400q0 33 22.5 55.5t55.5 22.5q31 0 54.5 -22.5t23.5 -55.5v-400q0 -90 -32 -170.5 t-87 -144t-130 -106.5t-161 -58v-317q0 -33 -22.5 -55.5t-55.5 -22.5q-30 0 -53.5 22.5t-23.5 55.5v317q-86 15 -162 58t-131.5 106.5t-87 144t-31.5 170.5z" />
<glyph unicode="Z" horiz-adv-x="1112" d="M47 76q0 24 14 45l758 1075h-670q-32 0 -54.5 22.5t-22.5 55.5q0 31 22.5 54.5t54.5 23.5h801q41 0 71 -18.5t30 -55.5q0 -25 -13 -45l-760 -1077h709q33 0 55.5 -22.5t22.5 -55.5q0 -31 -22.5 -54.5t-55.5 -23.5h-846q-43 0 -68.5 21.5t-25.5 54.5z" />
<glyph unicode="[" horiz-adv-x="540" d="M73 -365v1717q0 32 23.5 55t54.5 23h293q32 0 55 -24t23 -54q0 -33 -23 -55.5t-55 -22.5h-215v-1561h215q32 0 55 -22.5t23 -55.5q0 -30 -23 -53.5t-55 -23.5h-293q-31 0 -54.5 22.5t-23.5 54.5z" />
<glyph unicode="\" horiz-adv-x="1083" d="M6 1276q0 31 23.5 54.5t58.5 23.5q16 0 31.5 -6.5t25.5 -20.5l916 -1198q16 -18 16 -51q0 -29 -22.5 -53.5t-57.5 -24.5t-57 29l-916 1198q-18 20 -18 49z" />
<glyph unicode="]" horiz-adv-x="540" d="M16 -365q0 33 22.5 55.5t55.5 22.5h215v1561h-215q-33 0 -55.5 22.5t-22.5 55.5q0 30 22.5 54t55.5 24h293q30 0 54 -23t24 -55v-1717q0 -32 -24 -54.5t-54 -22.5h-293q-33 0 -55.5 23.5t-22.5 53.5z" />
<glyph unicode="^" horiz-adv-x="978" d="M36 989q0 35 29 58l377 288q22 17 45 17q28 0 53 -19l375 -286q14 -11 20 -26t6 -32q0 -35 -23.5 -58.5t-54.5 -23.5q-28 0 -49 19l-325 250l-324 -250q-23 -19 -51 -19q-29 0 -53.5 23.5t-24.5 58.5z" />
<glyph unicode="_" horiz-adv-x="1116" d="M69 -86q0 33 22.5 55.5t55.5 22.5h821q33 0 55.5 -23.5t22.5 -54.5q0 -33 -22.5 -55.5t-55.5 -22.5h-821q-33 0 -55.5 23.5t-22.5 54.5z" />
<glyph unicode="`" horiz-adv-x="309" d="M32 1284q0 31 22.5 53.5t57.5 22.5q43 0 65 -37l84 -145q11 -19 11 -41q0 -31 -21.5 -53.5t-56.5 -22.5q-45 0 -66 37l-84 145q-12 19 -12 41z" />
<glyph unicode="a" horiz-adv-x="864" d="M57 360v295q0 76 28.5 143.5t80 118t118 79t144.5 28.5q75 0 143 -28.5t118 -79t79.5 -118t29.5 -143.5v-577q0 -33 -23.5 -55.5t-53.5 -22.5q-29 0 -50.5 17.5t-25.5 43.5q-94 -69 -217 -69q-76 0 -143.5 28.5t-118 79t-80 118t-29.5 142.5zM213 360q0 -43 17 -81.5 t46 -68.5t69 -46.5t83 -16.5t82 15.5t67.5 43t46 64.5t19.5 80v305q0 43 -17.5 82t-46 69t-68.5 46t-83 16q-45 0 -84 -16t-69 -46t-46 -69t-16 -82v-295z" />
<glyph unicode="b" horiz-adv-x="833" d="M67 360v938q0 33 22.5 55.5t55.5 22.5q31 0 54.5 -22.5t23.5 -55.5v-344q45 33 100 51.5t115 18.5q75 0 143 -28.5t119 -79t79.5 -118t28.5 -143.5v-295q0 -75 -29.5 -142.5t-79.5 -118t-118 -79t-143 -28.5q-78 0 -144.5 28.5t-118 79t-80 118t-28.5 142.5zM223 360 q0 -43 16 -81.5t46 -68.5t69 -46.5t84 -16.5q43 0 83 16.5t68.5 46.5t46 68.5t17.5 81.5v295q0 43 -16.5 82t-46 69t-68.5 46t-84 16q-43 0 -82 -16t-67.5 -44t-46 -64.5t-19.5 -79.5v-304z" />
<glyph unicode="c" horiz-adv-x="819" d="M55 360v295q0 78 29.5 145.5t82 117t121 78t146.5 28.5q14 0 56 -5t93.5 -27.5t101.5 -68.5t83 -128q6 -17 6 -29q0 -33 -22.5 -55.5t-55.5 -22.5q-25 0 -44 13.5t-28 35.5q-28 62 -81.5 96.5t-116.5 34.5q-45 0 -84 -16t-69 -46t-46 -69t-16 -82v-295q0 -43 17 -81.5 t46 -68.5t69 -46.5t83 -16.5q65 0 118.5 35t79.5 97q11 22 29 35.5t43 13.5q33 0 55.5 -23.5t22.5 -54.5q0 -14 -6 -29q-41 -90 -98.5 -137t-111.5 -67.5t-92 -22.5t-40 -2q-76 0 -143.5 28.5t-118 79t-80 118t-29.5 142.5z" />
<glyph unicode="d" horiz-adv-x="835" d="M24 360v295q0 76 29.5 143.5t80 118t118 79t143.5 28.5q59 0 113.5 -18.5t101.5 -51.5v344q0 33 22.5 55.5t55.5 22.5q30 0 53.5 -22.5t23.5 -55.5v-938q0 -75 -29.5 -142.5t-79.5 -118t-118 -79t-143 -28.5q-78 0 -144.5 28.5t-118 79t-80 118t-28.5 142.5zM180 360 q0 -43 16 -81.5t46 -68.5t69 -46.5t84 -16.5q43 0 83 16.5t68.5 46.5t46 68.5t17.5 81.5v295q0 43 -16.5 82t-46 69t-68.5 46t-84 16q-43 0 -83 -16t-69 -46t-46 -69t-17 -82v-295z" />
<glyph unicode="e" horiz-adv-x="851" d="M57 360v295q0 76 28.5 143.5t80 118t118 79t144.5 28.5q75 0 143 -28.5t118 -79t79.5 -118t29.5 -143.5v-147q0 -33 -22.5 -55.5t-54.5 -22.5h-508v-70q0 -43 17 -81.5t46 -68.5t69 -46.5t83 -16.5q65 0 117.5 34t78.5 91l2 7q9 22 28 35.5t44 13.5q33 0 55.5 -23.5 t22.5 -54.5q0 -14 -6 -29l-4 -8q-43 -98 -133.5 -159.5t-204.5 -61.5q-76 0 -143.5 28.5t-118 79t-80 118t-29.5 142.5zM213 586h430v69q0 43 -17.5 82t-46 69t-68.5 46t-83 16q-45 0 -84 -16t-69 -46t-46 -69t-16 -82v-69z" />
<glyph unicode="f" horiz-adv-x="790" d="M67 78v930q0 77 29.5 145t81 117t120 77.5t146.5 28.5q14 0 54 -5t91 -27.5t102.5 -68.5t88.5 -128q6 -17 6 -29q0 -33 -22.5 -55.5t-55.5 -22.5q-51 0 -72 50q-26 61 -79.5 96t-118.5 35q-43 0 -83 -16.5t-69 -46.5t-46 -68.5t-17 -81.5v-422h221q33 0 55.5 -23.5 t22.5 -54.5q0 -33 -22.5 -55.5t-55.5 -22.5h-221v-352q0 -33 -23.5 -55.5t-54.5 -22.5q-33 0 -55.5 22.5t-22.5 55.5z" />
<glyph unicode="g" horiz-adv-x="841" d="M36 360v295q0 76 28.5 143.5t80 118t118 79t144.5 28.5q75 0 143 -28.5t118 -79t79.5 -118t29.5 -143.5v-647q0 -76 -29.5 -143.5t-79.5 -117.5t-118 -78.5t-143 -28.5q-33 0 -55.5 22.5t-22.5 54.5q0 33 22.5 55.5t55.5 22.5q43 0 83 16.5t68.5 46t46 68.5t17.5 82v51 q-97 -67 -215 -67q-76 0 -143.5 28.5t-118 79t-80 118t-29.5 142.5zM192 360q0 -43 17 -81.5t46 -68.5t69 -46.5t83 -16.5t82 15.5t67.5 43t46 64.5t19.5 80v305q0 43 -17.5 82t-46 69t-68.5 46t-83 16q-45 0 -84 -16t-69 -46t-46 -69t-16 -82v-295z" />
<glyph unicode="h" horiz-adv-x="845" d="M73 78v592v628q0 33 22.5 55.5t55.5 22.5q31 0 54.5 -22.5t23.5 -55.5v-344q45 33 100 51.5t115 18.5q75 0 143 -28.5t118 -79t79.5 -118t29.5 -143.5v-577q0 -33 -23.5 -55.5t-53.5 -22.5q-33 0 -55.5 22.5t-22.5 55.5v577q0 43 -17.5 82t-46 69t-68.5 46t-83 16 q-45 0 -83 -16t-68 -44t-46 -64.5t-18 -79.5v-586q0 -33 -23.5 -55.5t-54.5 -22.5q-33 0 -55.5 22.5t-22.5 55.5z" />
<glyph unicode="i" horiz-adv-x="301" d="M69 78v860q0 33 22.5 55.5t55.5 22.5q31 0 54.5 -22.5t23.5 -55.5v-860q0 -33 -22.5 -55.5t-55.5 -22.5q-31 0 -54.5 22.5t-23.5 55.5zM69 1239v59q0 33 22.5 55.5t55.5 22.5q31 0 54.5 -22.5t23.5 -55.5v-59q0 -33 -22.5 -55.5t-55.5 -22.5q-31 0 -54.5 22.5t-23.5 55.5 z" />
<glyph unicode="j" horiz-adv-x="512" d="M2 -283q0 33 22.5 55.5t55.5 22.5q43 0 81 16.5t67.5 44t47 64.5t19.5 80v938q0 33 23.5 55.5t54.5 22.5q32 0 55 -22.5t23 -55.5v-930q0 -76 -30 -143.5t-80 -117.5t-117.5 -78.5t-143.5 -28.5q-33 0 -55.5 22.5t-22.5 54.5zM295 1239v59q0 33 22.5 55.5t55.5 22.5 q30 0 54 -22.5t24 -55.5v-59q0 -33 -23 -55.5t-55 -22.5q-31 0 -54.5 22.5t-23.5 55.5z" />
<glyph unicode="k" horiz-adv-x="845" d="M73 78v1196q0 33 22.5 55.5t55.5 22.5q31 0 54.5 -22.5t23.5 -55.5v-592l401 324q21 18 49 18q29 0 52.5 -21.5t23.5 -56.5q0 -37 -27 -61l-329 -267l413 -491q21 -21 21 -51q0 -29 -22.5 -52.5t-55.5 -23.5q-37 0 -61 27l-416 495l-49 -39v-405q0 -33 -22.5 -55.5 t-55.5 -22.5q-31 0 -54.5 22.5t-23.5 55.5z" />
<glyph unicode="l" horiz-adv-x="309" d="M73 78v1196q0 33 22.5 55.5t55.5 22.5q31 0 54.5 -22.5t23.5 -55.5v-1196q0 -33 -22.5 -55.5t-55.5 -22.5q-31 0 -54.5 22.5t-23.5 55.5z" />
<glyph unicode="m" horiz-adv-x="1384" d="M69 78v577q0 76 25.5 143.5t72.5 118t110.5 79t141.5 28.5q86 0 155.5 -37t117.5 -96q47 59 116.5 96t155.5 37q76 0 140.5 -28.5t110.5 -79t72.5 -118t26.5 -143.5v-577q0 -33 -23.5 -55.5t-54.5 -22.5q-32 0 -54.5 22.5t-22.5 55.5v577q0 88 -53.5 150.5t-141.5 62.5 q-92 0 -143.5 -62.5t-51.5 -150.5v-577q0 -33 -23.5 -55.5t-53.5 -22.5q-33 0 -55.5 22.5t-22.5 55.5v577q0 88 -53.5 150.5t-141.5 62.5q-92 0 -143 -62.5t-51 -150.5v-577q0 -33 -23.5 -55.5t-54.5 -22.5q-33 0 -55.5 22.5t-22.5 55.5z" />
<glyph unicode="n" horiz-adv-x="872" d="M65 78v577q0 76 28.5 143.5t80 118t118 79t144.5 28.5q75 0 143 -28.5t118 -79t79.5 -118t29.5 -143.5v-577q0 -33 -23.5 -55.5t-53.5 -22.5q-33 0 -55.5 22.5t-22.5 55.5v577q0 43 -17.5 82t-46 69t-68.5 46t-83 16q-45 0 -84 -16t-69 -46t-46 -69t-16 -82v-577 q0 -33 -23.5 -55.5t-54.5 -22.5q-33 0 -55.5 22.5t-22.5 55.5z" />
<glyph unicode="o" d="M57 360v295q0 76 28.5 143.5t80 118t118 79t144.5 28.5q75 0 143 -28.5t118 -79t79.5 -118t29.5 -143.5v-295q0 -75 -28.5 -142.5t-79.5 -118t-119 -79t-143 -28.5q-76 0 -143.5 28.5t-118 79t-80 118t-29.5 142.5zM213 360q0 -43 17 -81.5t46 -68.5t69 -46.5t83 -16.5 q45 0 84 16.5t68.5 46.5t46 68.5t16.5 81.5v295q0 43 -17.5 82t-46 69t-68.5 46t-83 16q-45 0 -84 -16t-69 -46t-46 -69t-16 -82v-295z" />
<glyph unicode="p" horiz-adv-x="833" d="M67 -283v627v311q0 76 28.5 143.5t80 118t118 79t144.5 28.5q75 0 143 -28.5t118 -79t79.5 -118t29.5 -143.5v-295q0 -75 -28.5 -142.5t-79.5 -118t-119 -79t-143 -28.5q-60 0 -115 18.5t-100 50.5v-344q0 -32 -23.5 -54.5t-54.5 -22.5q-33 0 -55.5 22.5t-22.5 54.5z M223 360q0 -43 17 -81.5t46 -68.5t69 -46.5t83 -16.5q45 0 84 16.5t68.5 46.5t46 68.5t16.5 81.5v295q0 43 -17.5 82t-46 69t-68.5 46t-83 16q-45 0 -84 -16t-69 -46t-46 -69t-16 -82v-295z" />
<glyph unicode="q" horiz-adv-x="835" d="M24 360v295q0 76 29.5 143.5t80 118t118 79t143.5 28.5q75 0 143 -28.5t119 -79t79.5 -118t28.5 -143.5v-311v-627q0 -32 -22.5 -54.5t-54.5 -22.5q-31 0 -54.5 22.5t-23.5 54.5v344q-45 -32 -100.5 -50.5t-114.5 -18.5q-78 0 -144.5 28.5t-118 79t-80 118t-28.5 142.5z M180 360q0 -43 16 -81.5t46 -68.5t69 -46.5t84 -16.5q43 0 83 16.5t68.5 46.5t46 68.5t17.5 81.5v295q0 43 -16.5 82t-46 69t-68.5 46t-84 16q-43 0 -83 -16t-69 -46t-46 -69t-17 -82v-295z" />
<glyph unicode="r" horiz-adv-x="684" d="M73 78v592v268q0 33 22.5 55.5t55.5 22.5q26 0 47.5 -17.5t28.5 -46.5q96 72 225 72l36 -3t78 -16t76.5 -36t34.5 -66q0 -35 -22.5 -56.5t-55.5 -21.5q-26 0 -47 15q-51 28 -108 28q-45 0 -83 -16t-68 -44t-46 -64.5t-18 -79.5v-586q0 -33 -22.5 -55.5t-55.5 -22.5 q-31 0 -54.5 22.5t-23.5 55.5z" />
<glyph unicode="s" horiz-adv-x="839" d="M51 250q0 31 21.5 54.5t56.5 23.5q24 0 42.5 -13.5t29.5 -35.5q26 -62 89.5 -97t129.5 -35q43 0 83 7.5t68.5 25t46 47t17.5 72.5q0 88 -62.5 120t-152.5 32q-76 0 -140.5 14t-110.5 48t-73 88t-27 136q0 64 27 117t73 91t110.5 58.5t140.5 20.5q61 -2 118 -18 q50 -15 101 -46.5t86 -89.5q14 -28 14 -49q0 -30 -21.5 -53t-52.5 -23q-36 0 -63 33q-39 47 -78 68.5t-104 21.5q-88 0 -141.5 -37.5t-53.5 -93.5q0 -73 51 -102t144 -29q75 0 143 -19.5t118 -58.5t79.5 -96t29.5 -133q0 -78 -29.5 -135.5t-82 -96t-121 -57t-144.5 -18.5 q-16 0 -60 5t-97 27.5t-107.5 68.5t-91.5 128q-6 15 -6 29z" />
<glyph unicode="t" horiz-adv-x="790" d="M65 360v916q0 33 22.5 55.5t55.5 22.5q31 0 54.5 -22.5t23.5 -55.5v-260h397q33 0 55.5 -22.5t22.5 -55.5q0 -31 -22.5 -54.5t-55.5 -23.5h-397v-500q0 -43 17 -81.5t46 -68.5t69 -46.5t83 -16.5q65 0 118.5 35t79.5 97q11 22 29 35.5t43 13.5q33 0 55.5 -23.5 t22.5 -54.5q0 -14 -6 -29q-41 -90 -98.5 -137t-111.5 -67.5t-92 -22.5t-40 -2q-76 0 -143.5 28.5t-118 79t-80 118t-29.5 142.5z" />
<glyph unicode="u" horiz-adv-x="872" d="M65 360v578q0 33 22.5 55.5t55.5 22.5q31 0 54.5 -22.5t23.5 -55.5v-578q0 -43 16 -81.5t46 -68.5t69 -46.5t84 -16.5q43 0 83 16.5t68.5 46.5t46 68.5t17.5 81.5v578q0 33 22.5 55.5t55.5 22.5q30 0 53.5 -22.5t23.5 -55.5v-578q0 -75 -29.5 -142.5t-79.5 -118t-118 -79 t-143 -28.5q-78 0 -144.5 28.5t-118 79t-80 118t-28.5 142.5z" />
<glyph unicode="v" horiz-adv-x="962" d="M30 940q0 29 20.5 53.5t55.5 24.5q22 0 41.5 -12.5t29.5 -34.5l304 -707l303 707q20 47 71 47q35 0 55.5 -24.5t20.5 -53.5q0 -16 -6 -31l-373 -870q-22 -47 -71 -47q-54 0 -72 47l-373 870q-6 15 -6 31z" />
<glyph unicode="w" horiz-adv-x="1384" d="M69 360v578q0 33 23.5 55.5t54.5 22.5q33 0 55.5 -22.5t22.5 -55.5v-578q0 -88 53 -150.5t141 -62.5q92 0 143.5 62.5t51.5 150.5v578q0 33 23.5 55.5t54.5 22.5q32 0 54.5 -22.5t22.5 -55.5v-578q0 -88 53.5 -150.5t141.5 -62.5q92 0 143.5 62.5t51.5 150.5v578 q0 33 23.5 55.5t53.5 22.5q33 0 55.5 -22.5t22.5 -55.5v-578q0 -75 -25.5 -142.5t-72.5 -118t-111.5 -79t-140.5 -28.5q-86 0 -155.5 37t-116.5 96q-48 -59 -117.5 -96t-155.5 -37q-76 0 -140.5 28.5t-110.5 79t-72.5 118t-26.5 142.5z" />
<glyph unicode="x" horiz-adv-x="1001" d="M69 74q0 28 18 51l312 381l-312 381q-18 20 -18 49q0 31 23.5 54.5t58.5 23.5q16 0 31.5 -6.5t25.5 -20.5l293 -358l293 358q10 14 25.5 20.5t31.5 6.5q35 0 57.5 -23.5t22.5 -54.5q0 -12 -3 -25.5t-13 -23.5l-314 -381l314 -381q16 -19 16 -51q0 -29 -22.5 -53.5 t-57.5 -24.5q-34 0 -57 29l-293 356l-293 -356q-22 -29 -57 -29t-58.5 24.5t-23.5 53.5z" />
<glyph unicode="y" horiz-adv-x="833" d="M45 360v578q0 33 22.5 55.5t55.5 22.5q31 0 54.5 -22.5t23.5 -55.5v-578q0 -43 16 -81.5t46 -68.5t69 -46.5t84 -16.5q43 0 83 16.5t68.5 46.5t46 68.5t17.5 81.5v578q0 33 22.5 55.5t55.5 22.5q30 0 53.5 -22.5t23.5 -55.5v-578q0 -65 -22.5 -125.5t-61.5 -107.5 t-93 -81t-115 -46v-283q0 -32 -23 -54.5t-55 -22.5q-31 0 -54.5 22.5t-23.5 54.5v283q-64 12 -117 46t-92 81t-61.5 107.5t-22.5 125.5z" />
<glyph unicode="z" horiz-adv-x="901" d="M61 76q0 24 14 45l521 739h-424q-33 0 -55.5 22.5t-22.5 55.5q0 31 22.5 54.5t55.5 23.5h555q41 0 70.5 -18.5t29.5 -55.5q0 -24 -12 -45l-523 -741h465q33 0 55.5 -22.5t22.5 -55.5q0 -31 -22.5 -54.5t-55.5 -23.5h-602q-43 0 -68.5 21.5t-25.5 54.5z" />
<glyph unicode="{" horiz-adv-x="688" d="M14 494q0 30 22.5 53.5t55.5 23.5h41q24 0 46.5 21.5t22.5 46.5v422q0 76 30 143.5t80 117.5t117.5 79t143.5 29q33 0 55.5 -23t22.5 -55q0 -33 -22.5 -55.5t-55.5 -22.5q-43 0 -82 -16.5t-67.5 -44t-46 -64.5t-19.5 -80v-498q0 -28 -20.5 -50.5t-49.5 -26.5 q29 -5 49.5 -27.5t20.5 -50.5v-498q2 -43 19.5 -80t46 -64.5t67.5 -44t82 -16.5q33 0 55.5 -22.5t22.5 -55.5q0 -32 -22.5 -54.5t-55.5 -22.5q-76 0 -143.5 28.5t-117.5 78.5t-80 117.5t-30 143.5v420q0 25 -22.5 47.5t-46.5 22.5h-41q-33 0 -55.5 22.5t-22.5 55.5z" />
<glyph unicode="|" horiz-adv-x="309" d="M73 -283v1563q0 33 22.5 55.5t55.5 22.5q31 0 54.5 -22.5t23.5 -55.5v-1563q0 -32 -22.5 -54.5t-55.5 -22.5q-31 0 -54.5 22.5t-23.5 54.5z" />
<glyph unicode="}" horiz-adv-x="688" d="M36 -365q0 33 22.5 55.5t55.5 22.5q43 0 81 16.5t67.5 44t47 64.5t19.5 80v498q0 28 20.5 50.5t48.5 27.5q-28 4 -48.5 26.5t-20.5 50.5v498q-2 43 -19.5 80t-47 64.5t-67.5 44t-81 16.5q-33 0 -55.5 22.5t-22.5 55.5q0 32 22.5 55t55.5 23q76 0 143.5 -29t117.5 -79 t80 -117.5t30 -143.5v-422q0 -25 22.5 -46.5t46.5 -21.5h41q33 0 55.5 -23.5t22.5 -53.5q0 -33 -22.5 -55.5t-55.5 -22.5h-41q-24 0 -46.5 -22.5t-22.5 -47.5v-420q0 -76 -30 -143.5t-80 -117.5t-117.5 -78.5t-143.5 -28.5q-33 0 -55.5 22.5t-22.5 54.5z" />
<glyph unicode="~" horiz-adv-x="1095" d="M43 428q0 29 16 47q56 68 131.5 102.5t157.5 34.5q62 0 121 -20.5t113 -61.5l36 -32q25 -23 60 -32t65 -9q48 0 93 19.5t77 60.5q21 26 60 26q35 0 56.5 -24.5t21.5 -53.5q0 -24 -17 -47q-55 -67 -132 -102t-159 -35q-59 2 -120.5 19.5t-110.5 62.5l-37 33 q-24 22 -59 31.5t-66 9.5q-47 0 -92 -19.5t-78 -60.5q-22 -29 -59 -29q-35 0 -56.5 25.5t-21.5 54.5z" />
<glyph unicode="&#xa8;" horiz-adv-x="1024" />
<glyph unicode="&#xa9;" horiz-adv-x="1529" />
<glyph unicode="&#xad;" d="M69 578q0 30 22.5 53.5t55.5 23.5h563q33 0 55.5 -22.5t22.5 -54.5q0 -31 -22.5 -54.5t-55.5 -23.5h-563q-33 0 -55.5 22.5t-22.5 55.5z" />
<glyph unicode="&#xae;" horiz-adv-x="1529" />
<glyph unicode="&#xb4;" horiz-adv-x="1024" />
<glyph unicode="&#xb6;" horiz-adv-x="1024" d="M93 1086q0 157 107.5 253t285.5 96h443v-70h-127v-1365h-82v1365h-166v-1365h-84v738q-174 8 -275.5 102.5t-101.5 245.5z" />
<glyph unicode="&#xbc;" horiz-adv-x="1298" />
<glyph unicode="&#xbd;" horiz-adv-x="1320" />
<glyph unicode="&#xbe;" horiz-adv-x="1288" />
<glyph unicode="&#xc0;" horiz-adv-x="1265" d="M30 74q0 16 6 32l516 1207q21 47 72 47q14 0 31 -6q28 -13 41 -41l516 -1207q6 -16 6 -32q0 -27 -20.5 -51.5t-55.5 -24.5q-51 0 -72 47l-145 340h-602l-146 -340q-10 -22 -29.5 -34.5t-41.5 -12.5q-35 0 -55.5 24.5t-20.5 51.5zM388 541h469l-233 546zM444 1714 q0 31 22.5 53.5t57.5 22.5q43 0 65 -37l84 -145q10 -19 10 -41q0 -31 -21.5 -53.5t-56.5 -22.5q-45 0 -65 37l-84 145q-12 19 -12 41z" />
<glyph unicode="&#xc1;" horiz-adv-x="1265" d="M30 74q0 16 6 32l516 1207q21 47 72 47q14 0 31 -6q28 -13 41 -41l516 -1207q6 -16 6 -32q0 -27 -20.5 -51.5t-55.5 -24.5q-51 0 -72 47l-145 340h-602l-146 -340q-10 -22 -29.5 -34.5t-41.5 -12.5q-35 0 -55.5 24.5t-20.5 51.5zM388 541h469l-233 546zM565 1567 q0 18 12 41l84 145q20 37 65 37q35 0 56.5 -22.5t21.5 -53.5q0 -26 -10 -41l-84 -145q-23 -37 -66 -37q-34 0 -56.5 22.5t-22.5 53.5z" />
<glyph unicode="&#xc2;" horiz-adv-x="1265" d="M30 74q0 16 6 32l516 1207q21 47 72 47q14 0 31 -6q28 -13 41 -41l516 -1207q6 -16 6 -32q0 -27 -20.5 -51.5t-55.5 -24.5q-51 0 -72 47l-145 340h-602l-146 -340q-10 -22 -29.5 -34.5t-41.5 -12.5q-35 0 -55.5 24.5t-20.5 51.5zM388 541h469l-233 546zM413 1526 q0 39 35 63l141 103q16 10 37 10q25 0 45 -14l135 -99q35 -24 35 -63q0 -33 -25.5 -55.5t-56.5 -22.5q-27 0 -43 14l-90 64l-88 -64q-21 -14 -43 -14q-33 0 -57.5 22.5t-24.5 55.5z" />
<glyph unicode="&#xc3;" horiz-adv-x="1265" d="M30 74q0 16 6 32l516 1207q21 47 72 47q14 0 31 -6q28 -13 41 -41l516 -1207q6 -16 6 -32q0 -27 -20.5 -51.5t-55.5 -24.5q-51 0 -72 47l-145 340h-602l-146 -340q-10 -22 -29.5 -34.5t-41.5 -12.5q-35 0 -55.5 24.5t-20.5 51.5zM352 1606q0 30 21.5 50.5t51 32t62 16.5 t57.5 5q29 0 63.5 -12t79.5 -12q37 0 58.5 4t34 8t19.5 8t13 4q31 0 54.5 -22.5t23.5 -55.5q0 -30 -21.5 -49.5t-51 -31t-62.5 -16.5t-55 -5q-52 0 -115 20q-10 2 -31 2q-37 0 -58.5 -3t-33.5 -8t-18 -8t-13 -3q-30 0 -54.5 22.5t-24.5 53.5zM388 541h469l-233 546z" />
<glyph unicode="&#xc8;" horiz-adv-x="1081" d="M73 78v1196q0 33 22.5 55.5t55.5 22.5h821q33 0 55.5 -22.5t22.5 -55.5q0 -31 -22.5 -54.5t-55.5 -23.5h-743v-463h241q33 0 55.5 -22.5t22.5 -55.5q0 -30 -22.5 -53.5t-55.5 -23.5h-241v-422h743q33 0 55.5 -22.5t22.5 -55.5q0 -31 -22.5 -54.5t-55.5 -23.5h-815h-6 q-31 0 -54.5 22.5t-23.5 55.5zM417 1714q0 31 22.5 53.5t57.5 22.5q43 0 65 -37l84 -145q11 -19 11 -41q0 -31 -21.5 -53.5t-56.5 -22.5q-45 0 -66 37l-84 145q-12 19 -12 41z" />
<glyph unicode="&#xc9;" horiz-adv-x="1081" d="M73 78v1196q0 33 22.5 55.5t55.5 22.5h821q33 0 55.5 -22.5t22.5 -55.5q0 -31 -22.5 -54.5t-55.5 -23.5h-743v-463h241q33 0 55.5 -22.5t22.5 -55.5q0 -30 -22.5 -53.5t-55.5 -23.5h-241v-422h743q33 0 55.5 -22.5t22.5 -55.5q0 -31 -22.5 -54.5t-55.5 -23.5h-815h-6 q-31 0 -54.5 22.5t-23.5 55.5zM479 1567q0 18 12 41l84 145q20 37 65 37q35 0 56.5 -22.5t21.5 -53.5q0 -26 -10 -41l-84 -145q-23 -37 -66 -37q-34 0 -56.5 22.5t-22.5 53.5z" />
<glyph unicode="&#xca;" horiz-adv-x="1081" d="M73 78v1196q0 33 22.5 55.5t55.5 22.5h821q33 0 55.5 -22.5t22.5 -55.5q0 -31 -22.5 -54.5t-55.5 -23.5h-743v-463h241q33 0 55.5 -22.5t22.5 -55.5q0 -30 -22.5 -53.5t-55.5 -23.5h-241v-422h743q33 0 55.5 -22.5t22.5 -55.5q0 -31 -22.5 -54.5t-55.5 -23.5h-815h-6 q-31 0 -54.5 22.5t-23.5 55.5zM341 1526q0 39 35 63l141 103q17 10 37 10q25 0 45 -14l136 -99q34 -24 34 -63q0 -33 -25.5 -55.5t-56.5 -22.5q-26 0 -43 14l-90 64l-88 -64q-20 -14 -43 -14q-33 0 -57.5 22.5t-24.5 55.5z" />
<glyph unicode="&#xcc;" horiz-adv-x="309" d="M-12 1718q0 31 22.5 53.5t57.5 22.5q43 0 65 -37l84 -145q11 -19 11 -41q0 -31 -21.5 -53.5t-56.5 -22.5q-45 0 -66 37l-84 145q-12 19 -12 41zM74 78v1196q0 33 22.5 55.5t55.5 22.5q31 0 54.5 -22.5t23.5 -55.5v-1196q0 -33 -22.5 -55.5t-55.5 -22.5q-31 0 -54.5 22.5 t-23.5 55.5z" />
<glyph unicode="&#xcd;" horiz-adv-x="309" d="M73 78v1196q0 33 22.5 55.5t55.5 22.5q31 0 54.5 -22.5t23.5 -55.5v-1196q0 -33 -22.5 -55.5t-55.5 -22.5q-31 0 -54.5 22.5t-23.5 55.5zM79 1569q0 18 12 41l84 145q21 37 66 37q35 0 56.5 -22.5t21.5 -53.5q0 -26 -10 -41l-84 -145q-23 -37 -66 -37q-35 0 -57.5 22.5 t-22.5 53.5z" />
<glyph unicode="&#xd2;" horiz-adv-x="1091" d="M59 442v467q0 101 39 189t104.5 154.5t154.5 104.5t191 38q101 0 189 -38t154.5 -104.5t105.5 -154.5t39 -189v-467q0 -100 -39 -188t-104.5 -154.5t-154.5 -104.5t-190 -38q-100 0 -189 38t-155.5 104.5t-105.5 154.5t-39 188zM215 442q0 -67 26.5 -127.5t71.5 -104.5 t106.5 -70.5t128.5 -26.5q70 0 130.5 26.5t105.5 70.5t70.5 104.5t25.5 127.5v467q0 68 -26.5 128.5t-71.5 104.5t-105.5 70.5t-128.5 26.5q-69 0 -130.5 -26.5t-106.5 -70.5t-70.5 -104.5t-25.5 -128.5v-467zM374 1714q0 31 22.5 53.5t57.5 22.5q43 0 66 -37l84 -145 q10 -19 10 -41q0 -31 -21.5 -53.5t-56.5 -22.5q-45 0 -65 37l-84 145q-13 19 -13 41z" />
<glyph unicode="&#xd3;" horiz-adv-x="1091" d="M59 442v467q0 101 39 189t104.5 154.5t154.5 104.5t191 38q101 0 189 -38t154.5 -104.5t105.5 -154.5t39 -189v-467q0 -100 -39 -188t-104.5 -154.5t-154.5 -104.5t-190 -38q-100 0 -189 38t-155.5 104.5t-105.5 154.5t-39 188zM215 442q0 -67 26.5 -127.5t71.5 -104.5 t106.5 -70.5t128.5 -26.5q70 0 130.5 26.5t105.5 70.5t70.5 104.5t25.5 127.5v467q0 68 -26.5 128.5t-71.5 104.5t-105.5 70.5t-128.5 26.5q-69 0 -130.5 -26.5t-106.5 -70.5t-70.5 -104.5t-25.5 -128.5v-467zM471 1569q0 18 12 41l84 145q20 37 65 37q35 0 56.5 -22.5 t21.5 -53.5q0 -26 -10 -41l-84 -145q-22 -37 -65 -37q-35 0 -57.5 22.5t-22.5 53.5z" />
<glyph unicode="&#xd4;" horiz-adv-x="1091" d="M59 442v467q0 101 39 189t104.5 154.5t154.5 104.5t191 38q101 0 189 -38t154.5 -104.5t105.5 -154.5t39 -189v-467q0 -100 -39 -188t-104.5 -154.5t-154.5 -104.5t-190 -38q-100 0 -189 38t-155.5 104.5t-105.5 154.5t-39 188zM215 442q0 -67 26.5 -127.5t71.5 -104.5 t106.5 -70.5t128.5 -26.5q70 0 130.5 26.5t105.5 70.5t70.5 104.5t25.5 127.5v467q0 68 -26.5 128.5t-71.5 104.5t-105.5 70.5t-128.5 26.5q-69 0 -130.5 -26.5t-106.5 -70.5t-70.5 -104.5t-25.5 -128.5v-467zM327 1526q0 39 35 63l141 103q17 10 37 10q25 0 45 -14l136 -99 q34 -24 34 -63q0 -33 -25.5 -55.5t-56.5 -22.5q-26 0 -43 14l-90 64l-88 -64q-20 -14 -43 -14q-33 0 -57.5 22.5t-24.5 55.5z" />
<glyph unicode="&#xd5;" horiz-adv-x="1091" d="M59 442v467q0 101 39 189t104.5 154.5t154.5 104.5t191 38q101 0 189 -38t154.5 -104.5t105.5 -154.5t39 -189v-467q0 -100 -39 -188t-104.5 -154.5t-154.5 -104.5t-190 -38q-100 0 -189 38t-155.5 104.5t-105.5 154.5t-39 188zM215 442q0 -67 26.5 -127.5t71.5 -104.5 t106.5 -70.5t128.5 -26.5q70 0 130.5 26.5t105.5 70.5t70.5 104.5t25.5 127.5v467q0 68 -26.5 128.5t-71.5 104.5t-105.5 70.5t-128.5 26.5q-69 0 -130.5 -26.5t-106.5 -70.5t-70.5 -104.5t-25.5 -128.5v-467zM264 1608q0 30 21.5 50.5t51 32t62.5 16.5t57 5q29 0 64 -12 t80 -12q37 0 58.5 4t33.5 8t19 8t14 4q30 0 53.5 -22.5t23.5 -55.5q0 -30 -21.5 -49.5t-51 -31t-62.5 -16.5t-55 -5q-51 0 -115 20q-10 2 -30 2q-37 0 -58.5 -3t-34 -8t-18.5 -8t-12 -3q-31 0 -55.5 22.5t-24.5 53.5z" />
<glyph unicode="&#xd9;" horiz-adv-x="1107" d="M65 442v832q0 33 22.5 55.5t55.5 22.5q31 0 54.5 -22.5t23.5 -55.5v-832q0 -67 26.5 -127.5t71.5 -104.5t106.5 -70.5t128.5 -26.5q70 0 130.5 26.5t105.5 70.5t70.5 104.5t25.5 127.5v832q0 33 22.5 55.5t55.5 22.5q31 0 54.5 -22.5t23.5 -55.5v-832q0 -100 -39 -188 t-104.5 -154.5t-154.5 -104.5t-190 -38q-100 0 -189 38t-155.5 104.5t-105.5 154.5t-39 188zM389 1714q0 31 22.5 53.5t56.5 22.5q43 0 66 -37l84 -145q10 -19 10 -41q0 -31 -21.5 -53.5t-56.5 -22.5q-45 0 -65 37l-84 145q-12 19 -12 41z" />
<glyph unicode="&#xda;" horiz-adv-x="1107" d="M65 442v832q0 33 22.5 55.5t55.5 22.5q31 0 54.5 -22.5t23.5 -55.5v-832q0 -67 26.5 -127.5t71.5 -104.5t106.5 -70.5t128.5 -26.5q70 0 130.5 26.5t105.5 70.5t70.5 104.5t25.5 127.5v832q0 33 22.5 55.5t55.5 22.5q31 0 54.5 -22.5t23.5 -55.5v-832q0 -100 -39 -188 t-104.5 -154.5t-154.5 -104.5t-190 -38q-100 0 -189 38t-155.5 104.5t-105.5 154.5t-39 188zM475 1569q0 18 12 41l84 145q20 37 65 37q35 0 56.5 -22.5t21.5 -53.5q0 -26 -10 -41l-84 -145q-23 -37 -66 -37q-34 0 -56.5 22.5t-22.5 53.5z" />
<glyph unicode="&#xdd;" horiz-adv-x="1058" d="M40 874v400q0 33 22.5 55.5t55.5 22.5q31 0 54.5 -22.5t23.5 -55.5v-400q0 -67 26.5 -127.5t71.5 -104.5t106.5 -70.5t128.5 -26.5q70 0 130.5 26.5t105.5 70.5t70.5 104.5t25.5 127.5v400q0 33 22.5 55.5t55.5 22.5q31 0 54.5 -22.5t23.5 -55.5v-400q0 -90 -32 -170.5 t-87 -144t-130 -106.5t-161 -58v-317q0 -33 -22.5 -55.5t-55.5 -22.5q-30 0 -53.5 22.5t-23.5 55.5v317q-86 15 -162 58t-131.5 106.5t-87 144t-31.5 170.5zM454 1571q0 18 12 41l84 145q20 37 65 37q35 0 56.5 -22.5t21.5 -53.5q0 -26 -10 -41l-84 -145q-22 -37 -65 -37 q-35 0 -57.5 22.5t-22.5 53.5z" />
<glyph unicode="&#xe0;" horiz-adv-x="864" d="M57 360v295q0 76 28.5 143.5t80 118t118 79t144.5 28.5q75 0 143 -28.5t118 -79t79.5 -118t29.5 -143.5v-577q0 -33 -23.5 -55.5t-53.5 -22.5q-29 0 -50.5 17.5t-25.5 43.5q-94 -69 -217 -69q-76 0 -143.5 28.5t-118 79t-80 118t-29.5 142.5zM213 360q0 -43 17 -81.5 t46 -68.5t69 -46.5t83 -16.5t82 15.5t67.5 43t46 64.5t19.5 80v305q0 43 -17.5 82t-46 69t-68.5 46t-83 16q-45 0 -84 -16t-69 -46t-46 -69t-16 -82v-295zM254 1366q0 31 22.5 53.5t56.5 22.5q43 0 66 -37l84 -145q10 -19 10 -41q0 -31 -21.5 -53.5t-56.5 -22.5 q-45 0 -65 37l-84 145q-12 18 -12 41z" />
<glyph unicode="&#xe1;" horiz-adv-x="864" d="M57 360v295q0 76 28.5 143.5t80 118t118 79t144.5 28.5q75 0 143 -28.5t118 -79t79.5 -118t29.5 -143.5v-577q0 -33 -23.5 -55.5t-53.5 -22.5q-29 0 -50.5 17.5t-25.5 43.5q-94 -69 -217 -69q-76 0 -143.5 28.5t-118 79t-80 118t-29.5 142.5zM213 360q0 -43 17 -81.5 t46 -68.5t69 -46.5t83 -16.5t82 15.5t67.5 43t46 64.5t19.5 80v305q0 43 -17.5 82t-46 69t-68.5 46t-83 16q-45 0 -84 -16t-69 -46t-46 -69t-16 -82v-295zM362 1219q0 18 12 41l84 145q21 37 66 37q35 0 56.5 -22.5t21.5 -53.5q0 -27 -10 -41l-84 -145q-23 -37 -66 -37 q-35 0 -57.5 22.5t-22.5 53.5z" />
<glyph unicode="&#xe2;" horiz-adv-x="864" d="M57 360v295q0 76 28.5 143.5t80 118t118 79t144.5 28.5q75 0 143 -28.5t118 -79t79.5 -118t29.5 -143.5v-577q0 -33 -23.5 -55.5t-53.5 -22.5q-29 0 -50.5 17.5t-25.5 43.5q-94 -69 -217 -69q-76 0 -143.5 28.5t-118 79t-80 118t-29.5 142.5zM213 360q0 -43 17 -81.5 t46 -68.5t69 -46.5t83 -16.5t82 15.5t67.5 43t46 64.5t19.5 80v305q0 43 -17.5 82t-46 69t-68.5 46t-83 16q-45 0 -84 -16t-69 -46t-46 -69t-16 -82v-295zM213 1178q0 39 34 63l142 102q16 11 37 11q24 0 45 -15l135 -98q35 -24 35 -63q0 -33 -26 -55.5t-56 -22.5 q-27 0 -43 14l-90 64l-88 -64q-21 -14 -43 -14q-33 0 -57.5 22.5t-24.5 55.5z" />
<glyph unicode="&#xe3;" horiz-adv-x="864" d="M57 360v295q0 76 28.5 143.5t80 118t118 79t144.5 28.5q75 0 143 -28.5t118 -79t79.5 -118t29.5 -143.5v-577q0 -33 -23.5 -55.5t-53.5 -22.5q-29 0 -50.5 17.5t-25.5 43.5q-94 -69 -217 -69q-76 0 -143.5 28.5t-118 79t-80 118t-29.5 142.5zM151 1270q0 30 21.5 50.5 t51.5 32t62.5 16.5t57.5 5q28 0 63 -12t80 -12q37 0 58.5 4t34 8t19.5 8t13 4q31 0 54.5 -22.5t23.5 -55.5q0 -30 -21.5 -49.5t-51.5 -31t-62.5 -16.5t-55.5 -5q-51 0 -114 20q-11 3 -31 3q-37 0 -58.5 -3.5t-33.5 -8.5t-18.5 -8t-12.5 -3q-31 0 -55.5 22.5t-24.5 53.5z M213 360q0 -43 17 -81.5t46 -68.5t69 -46.5t83 -16.5t82 15.5t67.5 43t46 64.5t19.5 80v305q0 43 -17.5 82t-46 69t-68.5 46t-83 16q-45 0 -84 -16t-69 -46t-46 -69t-16 -82v-295z" />
<glyph unicode="&#xe8;" horiz-adv-x="851" d="M57 360v295q0 76 28.5 143.5t80 118t118 79t144.5 28.5q75 0 143 -28.5t118 -79t79.5 -118t29.5 -143.5v-147q0 -33 -22.5 -55.5t-54.5 -22.5h-508v-70q0 -43 17 -81.5t46 -68.5t69 -46.5t83 -16.5q65 0 117.5 34t78.5 91l2 7q9 22 28 35.5t44 13.5q33 0 55.5 -23.5 t22.5 -54.5q0 -14 -6 -29l-4 -8q-43 -98 -133.5 -159.5t-204.5 -61.5q-76 0 -143.5 28.5t-118 79t-80 118t-29.5 142.5zM213 586h430v69q0 43 -17.5 82t-46 69t-68.5 46t-83 16q-45 0 -84 -16t-69 -46t-46 -69t-16 -82v-69zM252 1366q0 31 22.5 53.5t56.5 22.5q43 0 66 -37 l84 -145q10 -19 10 -41q0 -31 -21.5 -53.5t-56.5 -22.5q-45 0 -65 37l-84 145q-12 18 -12 41z" />
<glyph unicode="&#xe9;" horiz-adv-x="851" d="M57 360v295q0 76 28.5 143.5t80 118t118 79t144.5 28.5q75 0 143 -28.5t118 -79t79.5 -118t29.5 -143.5v-147q0 -33 -22.5 -55.5t-54.5 -22.5h-508v-70q0 -43 17 -81.5t46 -68.5t69 -46.5t83 -16.5q65 0 117.5 34t78.5 91l2 7q9 22 28 35.5t44 13.5q33 0 55.5 -23.5 t22.5 -54.5q0 -14 -6 -29l-4 -8q-43 -98 -133.5 -159.5t-204.5 -61.5q-76 0 -143.5 28.5t-118 79t-80 118t-29.5 142.5zM213 586h430v69q0 43 -17.5 82t-46 69t-68.5 46t-83 16q-45 0 -84 -16t-69 -46t-46 -69t-16 -82v-69zM352 1219q0 18 12 41l84 145q21 37 66 37 q35 0 56.5 -22.5t21.5 -53.5q0 -27 -11 -41l-84 -145q-22 -37 -65 -37q-35 0 -57.5 22.5t-22.5 53.5z" />
<glyph unicode="&#xea;" horiz-adv-x="851" d="M57 360v295q0 76 28.5 143.5t80 118t118 79t144.5 28.5q75 0 143 -28.5t118 -79t79.5 -118t29.5 -143.5v-147q0 -33 -22.5 -55.5t-54.5 -22.5h-508v-70q0 -43 17 -81.5t46 -68.5t69 -46.5t83 -16.5q65 0 117.5 34t78.5 91l2 7q9 22 28 35.5t44 13.5q33 0 55.5 -23.5 t22.5 -54.5q0 -14 -6 -29l-4 -8q-43 -98 -133.5 -159.5t-204.5 -61.5q-76 0 -143.5 28.5t-118 79t-80 118t-29.5 142.5zM207 1176q0 38 34 63l142 102q16 11 36 11q25 0 46 -15l135 -98q35 -25 35 -63q0 -33 -26 -55.5t-56 -22.5q-27 0 -43 14l-91 64l-88 -64 q-20 -14 -43 -14q-32 0 -56.5 22.5t-24.5 55.5zM213 586h430v69q0 43 -17.5 82t-46 69t-68.5 46t-83 16q-45 0 -84 -16t-69 -46t-46 -69t-16 -82v-69z" />
<glyph unicode="&#xec;" horiz-adv-x="331" d="M8 1368q0 31 22.5 53.5t57.5 22.5q43 0 65 -37l84 -145q11 -19 11 -41q0 -31 -21.5 -53.5t-56.5 -22.5q-45 0 -66 37l-84 145q-12 19 -12 41zM110 78v860q0 33 22.5 55.5t55.5 22.5q31 0 54.5 -22.5t23.5 -55.5v-860q0 -33 -22.5 -55.5t-55.5 -22.5q-30 0 -54 22.5 t-24 55.5z" />
<glyph unicode="&#xed;" horiz-adv-x="331" d="M61 78v860q0 33 22.5 55.5t55.5 22.5q31 0 54.5 -22.5t23.5 -55.5v-860q0 -33 -22.5 -55.5t-55.5 -22.5q-31 0 -54.5 22.5t-23.5 55.5zM67 1221q0 18 12 41l84 145q21 37 66 37q35 0 56.5 -22.5t21.5 -53.5q0 -27 -10 -41l-84 -145q-23 -37 -66 -37q-35 0 -57.5 22.5 t-22.5 53.5z" />
<glyph unicode="&#xf2;" d="M57 360v295q0 76 28.5 143.5t80 118t118 79t144.5 28.5q75 0 143 -28.5t118 -79t79.5 -118t29.5 -143.5v-295q0 -75 -28.5 -142.5t-79.5 -118t-119 -79t-143 -28.5q-76 0 -143.5 28.5t-118 79t-80 118t-29.5 142.5zM213 360q0 -43 17 -81.5t46 -68.5t69 -46.5t83 -16.5 q45 0 84 16.5t68.5 46.5t46 68.5t16.5 81.5v295q0 43 -17.5 82t-46 69t-68.5 46t-83 16q-45 0 -84 -16t-69 -46t-46 -69t-16 -82v-295zM250 1366q0 31 22.5 53.5t56.5 22.5q43 0 66 -37l84 -145q10 -19 10 -41q0 -31 -21.5 -53.5t-56.5 -22.5q-45 0 -65 37l-84 145 q-12 18 -12 41z" />
<glyph unicode="&#xf3;" d="M57 360v295q0 76 28.5 143.5t80 118t118 79t144.5 28.5q75 0 143 -28.5t118 -79t79.5 -118t29.5 -143.5v-295q0 -75 -28.5 -142.5t-79.5 -118t-119 -79t-143 -28.5q-76 0 -143.5 28.5t-118 79t-80 118t-29.5 142.5zM213 360q0 -43 17 -81.5t46 -68.5t69 -46.5t83 -16.5 q45 0 84 16.5t68.5 46.5t46 68.5t16.5 81.5v295q0 43 -17.5 82t-46 69t-68.5 46t-83 16q-45 0 -84 -16t-69 -46t-46 -69t-16 -82v-295zM352 1217q0 18 12 40l84 146q21 37 66 37q35 0 56.5 -22.5t21.5 -53.5q0 -27 -11 -41l-84 -145q-22 -37 -65 -37q-35 0 -57.5 22.5 t-22.5 53.5z" />
<glyph unicode="&#xf4;" d="M57 360v295q0 76 28.5 143.5t80 118t118 79t144.5 28.5q75 0 143 -28.5t118 -79t79.5 -118t29.5 -143.5v-295q0 -75 -28.5 -142.5t-79.5 -118t-119 -79t-143 -28.5q-76 0 -143.5 28.5t-118 79t-80 118t-29.5 142.5zM211 1178q0 39 34 63l142 102q16 11 37 11q24 0 45 -15 l135 -98q35 -24 35 -63q0 -33 -26 -55.5t-56 -22.5q-27 0 -43 14l-90 64l-88 -64q-21 -14 -43 -14q-33 0 -57.5 22.5t-24.5 55.5zM213 360q0 -43 17 -81.5t46 -68.5t69 -46.5t83 -16.5q45 0 84 16.5t68.5 46.5t46 68.5t16.5 81.5v295q0 43 -17.5 82t-46 69t-68.5 46t-83 16 q-45 0 -84 -16t-69 -46t-46 -69t-16 -82v-295z" />
<glyph unicode="&#xf5;" d="M57 360v295q0 76 28.5 143.5t80 118t118 79t144.5 28.5q75 0 143 -28.5t118 -79t79.5 -118t29.5 -143.5v-295q0 -75 -28.5 -142.5t-79.5 -118t-119 -79t-143 -28.5q-76 0 -143.5 28.5t-118 79t-80 118t-29.5 142.5zM147 1268q0 30 21.5 50.5t51.5 32t62.5 16.5t57.5 5 q28 0 63 -12t80 -12q37 0 58.5 4t33.5 8t19.5 8t13.5 4q31 0 54.5 -22.5t23.5 -55.5q0 -30 -21.5 -49.5t-51.5 -31t-62.5 -16.5t-55.5 -5q-51 0 -114 20q-11 2 -31 2q-37 0 -58.5 -3t-34 -8t-18.5 -8t-12 -3q-31 0 -55.5 22.5t-24.5 53.5zM213 360q0 -43 17 -81.5t46 -68.5 t69 -46.5t83 -16.5q45 0 84 16.5t68.5 46.5t46 68.5t16.5 81.5v295q0 43 -17.5 82t-46 69t-68.5 46t-83 16q-45 0 -84 -16t-69 -46t-46 -69t-16 -82v-295z" />
<glyph unicode="&#xf7;" horiz-adv-x="1706" />
<glyph unicode="&#xf9;" horiz-adv-x="582" />
<glyph unicode="&#xfa;" horiz-adv-x="580" />
<glyph unicode="&#xfd;" horiz-adv-x="629" />
<glyph unicode="&#x102;" horiz-adv-x="1265" d="M30 74q0 16 6 32l516 1207q21 47 72 47q14 0 31 -6q28 -13 41 -41l516 -1207q6 -16 6 -32q0 -27 -20.5 -51.5t-55.5 -24.5q-51 0 -72 47l-145 340h-602l-146 -340q-10 -22 -29.5 -34.5t-41.5 -12.5q-35 0 -55.5 24.5t-20.5 51.5zM388 541h469l-233 546zM413 1582 q0 33 24.5 55.5t57.5 22.5q22 0 43 -14q88 -120 178 0q16 14 43 14q31 0 56.5 -22.5t25.5 -55.5q0 -39 -35 -63q-86 -85 -181.5 -85.5t-176.5 85.5q-35 24 -35 63z" />
<glyph unicode="&#x103;" horiz-adv-x="864" d="M57 360v295q0 76 28.5 143.5t80 118t118 79t144.5 28.5q75 0 143 -28.5t118 -79t79.5 -118t29.5 -143.5v-577q0 -33 -23.5 -55.5t-53.5 -22.5q-29 0 -50.5 17.5t-25.5 43.5q-94 -69 -217 -69q-76 0 -143.5 28.5t-118 79t-80 118t-29.5 142.5zM212 1251q0 33 24.5 55.5 t57.5 22.5q22 0 43 -14q88 -120 178 0q16 14 43 14q31 0 56.5 -22.5t25.5 -55.5q0 -39 -35 -63q-86 -85 -181.5 -85.5t-176.5 85.5q-35 24 -35 63zM213 360q0 -43 17 -81.5t46 -68.5t69 -46.5t83 -16.5t82 15.5t67.5 43t46 64.5t19.5 80v305q0 43 -17.5 82t-46 69t-68.5 46 t-83 16q-45 0 -84 -16t-69 -46t-46 -69t-16 -82v-295z" />
<glyph unicode="&#x10c;" horiz-adv-x="1274" />
<glyph unicode="&#x10d;" horiz-adv-x="922" />
<glyph unicode="&#x110;" horiz-adv-x="1208" d="M49 657q0 31 22.5 54.5t55.5 23.5h45v539q0 33 22.5 55.5t55.5 22.5h409q101 0 191 -38t155.5 -103.5t104.5 -152.5t39 -188v-389q0 -100 -39 -187t-104.5 -152.5t-154.5 -103.5t-190 -38h-411q-31 0 -54.5 22.5t-23.5 55.5v502h-45q-33 0 -55.5 22.5t-22.5 54.5z M328 156h333q70 0 130.5 25.5t105.5 69.5t70.5 103.5t25.5 126.5v389q0 68 -25.5 127.5t-70.5 103.5t-106.5 69.5t-131.5 25.5h-331v-461h239q33 0 55.5 -22.5t22.5 -55.5q0 -30 -22.5 -53.5t-55.5 -23.5h-239v-424z" />
<glyph unicode="&#x111;" horiz-adv-x="835" d="M24 360v295q0 76 29.5 143.5t79.5 118t117.5 79t143.5 28.5q60 0 114 -18.5t101 -51.5v138h-399q-33 0 -55.5 23.5t-22.5 54.5q0 33 22.5 55.5t55.5 22.5h399v50q0 33 22.5 55.5t55.5 22.5q31 0 54.5 -22.5t23.5 -55.5v-938q0 -75 -29.5 -142.5t-80 -118t-118 -79 t-143.5 -28.5q-78 0 -144.5 28.5t-117.5 79t-79.5 118t-28.5 142.5zM179 360q0 -43 16.5 -81.5t46 -68.5t68.5 -46.5t84 -16.5q43 0 83 16.5t68.5 46.5t46 68.5t17.5 81.5v295q0 43 -16 82t-46 69t-69 46t-84 16q-43 0 -83 -16t-68.5 -46t-46 -69t-17.5 -82v-295z" />
<glyph unicode="&#x128;" horiz-adv-x="309" d="M-91 1606q0 30 21.5 50.5t51 32t62.5 16.5t58 5q28 0 63 -12t80 -12q37 0 58.5 4t33.5 8t19.5 8t13.5 4q31 0 54.5 -22.5t23.5 -55.5q0 -30 -21.5 -49.5t-51.5 -31t-62.5 -16.5t-55.5 -5q-51 0 -115 20q-10 2 -30 2q-37 0 -58.5 -3t-34 -8t-18.5 -8t-12 -3 q-31 0 -55.5 22.5t-24.5 53.5zM73 78v1196q0 33 22.5 55.5t55.5 22.5q31 0 54.5 -22.5t23.5 -55.5v-1196q0 -33 -22.5 -55.5t-55.5 -22.5q-31 0 -54.5 22.5t-23.5 55.5z" />
<glyph unicode="&#x129;" horiz-adv-x="301" d="M-101 1220q0 30 21.5 50.5t51 32t62.5 16.5t58 5q28 0 63 -12t80 -12q37 0 58.5 4t33.5 8t19.5 8t13.5 4q31 0 54.5 -22.5t23.5 -55.5q0 -30 -21.5 -49.5t-51.5 -31t-62.5 -16.5t-55.5 -5q-51 0 -115 20q-10 3 -30 3q-37 0 -58.5 -3.5t-34 -8.5t-18.5 -8t-12 -3 q-31 0 -55.5 22.5t-24.5 53.5zM68 78v860q0 33 22.5 55.5t55.5 22.5q31 0 54.5 -22.5t23.5 -55.5v-860q0 -33 -22.5 -55.5t-55.5 -22.5q-30 0 -54 22.5t-24 55.5z" />
<glyph unicode="&#x168;" horiz-adv-x="1107" d="M65 442v832q0 33 22.5 55.5t55.5 22.5q31 0 54.5 -22.5t23.5 -55.5v-832q0 -67 26.5 -127.5t71.5 -104.5t106.5 -70.5t128.5 -26.5q70 0 130.5 26.5t105.5 70.5t70.5 104.5t25.5 127.5v832q0 33 22.5 55.5t55.5 22.5q31 0 54.5 -22.5t23.5 -55.5v-832q0 -100 -39 -188 t-104.5 -154.5t-154.5 -104.5t-190 -38q-100 0 -189 38t-155.5 104.5t-105.5 154.5t-39 188zM304 1608q0 30 21.5 50.5t51.5 32t62.5 16.5t57.5 5q28 0 63 -12t80 -12q37 0 58.5 4t34 8t19.5 8t13 4q31 0 54.5 -22.5t23.5 -55.5q0 -30 -21.5 -49.5t-51.5 -31t-62.5 -16.5 t-55.5 -5q-51 0 -114 20q-11 2 -31 2q-37 0 -58.5 -3t-33.5 -8t-18.5 -8t-12.5 -3q-31 0 -55.5 22.5t-24.5 53.5z" />
<glyph unicode="&#x169;" horiz-adv-x="872" d="M65 360v578q0 33 22.5 55.5t55.5 22.5q31 0 54.5 -22.5t23.5 -55.5v-578q0 -43 16 -81.5t46 -68.5t69 -46.5t84 -16.5q43 0 83 16.5t68.5 46.5t46 68.5t17.5 81.5v578q0 33 22.5 55.5t55.5 22.5q30 0 53.5 -22.5t23.5 -55.5v-578q0 -75 -29.5 -142.5t-79.5 -118t-118 -79 t-143 -28.5q-78 0 -144.5 28.5t-118 79t-80 118t-28.5 142.5zM166 1268q0 30 21.5 50.5t51.5 32t62.5 16.5t57.5 5q29 0 63.5 -12t79.5 -12q37 0 58.5 4t34 8t19.5 8t13 4q31 0 54.5 -22.5t23.5 -55.5q0 -30 -21.5 -49.5t-51 -31t-62.5 -16.5t-55 -5q-52 0 -115 20 q-10 2 -31 2q-37 0 -58.5 -3t-33.5 -8t-18.5 -8t-12.5 -3q-30 0 -55 22.5t-25 53.5z" />
<glyph unicode="&#x1a0;" horiz-adv-x="1095" d="M59 442v467q0 101 39 189t104.5 154.5t154.5 104.5t191 38q101 0 189 -38t155 -104q32 -33 57 -70q1 9 3 19l42 163q9 31 36.5 47t58.5 8q30 -8 47 -35.5t9 -59.5l-42 -162q-9 -32 -36.5 -48t-58.5 -8q-10 3 -19 8q4 -9 8 -17q39 -88 39 -189v-467q0 -100 -39 -188 t-104.5 -154.5t-154.5 -104.5t-190 -38q-100 0 -189 38t-155.5 104.5t-105.5 154.5t-39 188zM215 442q0 -67 26.5 -127.5t71.5 -104.5t106.5 -70.5t128.5 -26.5q70 0 130.5 26.5t105.5 70.5t70.5 104.5t25.5 127.5v467q0 68 -26.5 128.5t-71.5 104.5t-105.5 70.5 t-128.5 26.5q-69 0 -130.5 -26.5t-106.5 -70.5t-70.5 -104.5t-25.5 -128.5v-467z" />
<glyph unicode="&#x1a1;" d="M57 360v295q0 76 29 143.5t80 118t117.5 79t144.5 28.5q76 0 143.5 -28.5t117.5 -78.5q23 -23 41 -50q1 2 1 3l42 163q9 31 36.5 47t58.5 8q30 -8 47 -35.5t9 -59.5l-42 -162q-9 -32 -36.5 -48t-58.5 -8q-5 1 -10 3q22 -58 22 -123v-295q0 -75 -29 -142.5t-80 -118 t-118.5 -79t-143.5 -28.5t-143.5 28.5t-117.5 79t-80 118t-30 142.5zM213 360q0 -43 17.5 -81.5t46 -68.5t68.5 -46.5t83 -16.5q45 0 84 16.5t68.5 46.5t46 68.5t16.5 81.5v295q0 43 -17.5 82t-46 69t-68.5 46t-83 16q-45 0 -84 -16t-68.5 -46t-46 -69t-16.5 -82v-295z" />
<glyph unicode="&#x1af;" horiz-adv-x="1107" d="M65 442v832q0 33 22.5 55.5t55.5 22.5q31 0 54.5 -22.5t23.5 -55.5v-832q0 -67 26.5 -127.5t71.5 -104.5t106.5 -70.5t128.5 -26.5q70 0 130.5 26.5t105.5 70.5t70.5 104.5t25.5 127.5v832q0 33 22.5 55.5t55.5 22.5q31 0 54.5 -22.5t23.5 -55.5v-832q0 -100 -39 -188 t-104.5 -154.5t-154.5 -104.5t-190 -38q-100 0 -189 38t-155.5 104.5t-105.5 154.5t-39 188zM1031 1202l43 163q8 31 35.5 47t59.5 8q30 -8 47 -35.5t8 -59.5l-42 -162q-8 -32 -35.5 -48t-59.5 -8q-30 8 -47 35.5t-9 59.5z" />
<glyph unicode="&#x1b0;" horiz-adv-x="872" d="M65 360v578q0 33 22.5 55.5t54.5 22.5q31 0 54.5 -22.5t23.5 -55.5v-578q0 -43 16.5 -81.5t46 -68.5t68.5 -46.5t84 -16.5q43 0 83 16.5t68.5 46.5t46 68.5t17.5 81.5v578q0 33 22.5 55.5t55.5 22.5q31 0 54.5 -22.5t23.5 -55.5v-6l26 101q9 31 36.5 47t58.5 8 q30 -8 47 -35.5t9 -59.5l-42 -162q-9 -32 -36.5 -48t-58.5 -8q-24 6 -40 26v-441q0 -75 -29.5 -142.5t-80 -118t-118 -79t-143.5 -28.5q-78 0 -144.5 28.5t-117.5 79t-79.5 118t-28.5 142.5z" />
<glyph unicode="&#x1ea0;" horiz-adv-x="1265" d="M30 74q0 16 6 32l516 1207q21 47 72 47q14 0 31 -6q28 -13 41 -41l516 -1207q6 -16 6 -32q0 -27 -20.5 -51.5t-55.5 -24.5q-51 0 -72 47l-145 340h-602l-146 -340q-10 -22 -29.5 -34.5t-41.5 -12.5q-35 0 -55.5 24.5t-20.5 51.5zM388 541h469l-233 546zM532 -219 q0 38 26.5 65t65.5 27q36 0 64 -27t28 -65q0 -39 -26.5 -65.5t-65.5 -26.5q-36 0 -64 26.5t-28 65.5z" />
<glyph unicode="&#x1ea1;" horiz-adv-x="864" d="M57 360v295q0 76 28.5 143.5t80 118t118 79t144.5 28.5q75 0 143 -28.5t118 -79t79.5 -118t29.5 -143.5v-577q0 -33 -23.5 -55.5t-53.5 -22.5q-29 0 -50.5 17.5t-25.5 43.5q-94 -69 -217 -69q-76 0 -143.5 28.5t-118 79t-80 118t-29.5 142.5zM213 360q0 -43 17 -81.5 t46 -68.5t69 -46.5t83 -16.5t82 15.5t67.5 43t46 64.5t19.5 80v305q0 43 -17.5 82t-46 69t-68.5 46t-83 16q-45 0 -84 -16t-69 -46t-46 -69t-16 -82v-295zM336 -219q0 38 26.5 65t65.5 27q36 0 63.5 -27t27.5 -65q0 -39 -26.5 -65.5t-64.5 -26.5q-37 0 -64.5 26.5 t-27.5 65.5z" />
<glyph unicode="&#x1ea2;" horiz-adv-x="1265" d="M30 74q0 16 6 32l516 1207q21 47 72 47q14 0 31 -6q28 -13 41 -41l516 -1207q6 -16 6 -32q0 -27 -20.5 -51.5t-55.5 -24.5q-51 0 -72 47l-145 340h-602l-146 -340q-10 -22 -29.5 -34.5t-41.5 -12.5q-35 0 -55.5 24.5t-20.5 51.5zM388 541h469l-233 546zM467 1710 q0 7 3 14q5 29 24.5 55t42.5 42.5t54 26t64 9.5q43 0 82 -17t68.5 -49.5t39 -64.5t9.5 -67q0 -31 -12.5 -62t-36 -57t-59.5 -44t-93 -18q-1 -31 -34 -34.5t-47.5 15.5t-12 50.5t26.5 45t50.5 13t41.5 6t27.5 19t20 30t7.5 36.5q0 21 -7.5 39t-19 29t-24.5 17t-27 6 q-21 0 -40.5 -14.5t-30.5 -40.5q-7 -14 -22.5 -23t-35.5 -9q-31 0 -45 16.5t-14 30.5z" />
<glyph unicode="&#x1ea3;" horiz-adv-x="864" d="M57 360v295q0 76 28.5 143.5t80 118t118 79t144.5 28.5q75 0 143 -28.5t118 -79t79.5 -118t29.5 -143.5v-577q0 -33 -23.5 -55.5t-53.5 -22.5q-29 0 -50.5 17.5t-25.5 43.5q-94 -69 -217 -69q-76 0 -143.5 28.5t-118 79t-80 118t-29.5 142.5zM213 360q0 -43 17 -81.5 t46 -68.5t69 -46.5t83 -16.5t82 15.5t67.5 43t46 64.5t19.5 80v305q0 43 -17.5 82t-46 69t-68.5 46t-83 16q-45 0 -84 -16t-69 -46t-46 -69t-16 -82v-295zM255 1359q0 7 3 14q5 29 25 55t43 42.5t53.5 26t63.5 9.5q43 0 82.5 -17t68.5 -49.5t38.5 -64.5t9.5 -67 q0 -31 -12 -62t-35.5 -57t-60 -44t-93.5 -18q-1 -31 -34 -34.5t-47.5 15.5t-12 50.5t26.5 45t50.5 13t41.5 6t27.5 19t20.5 30t8 36.5q0 21 -7.5 39t-19 29t-25 17t-27.5 6q-21 0 -40.5 -14.5t-30.5 -40.5q-6 -14 -21.5 -23t-35.5 -9q-32 0 -46 16.5t-14 30.5z" />
<glyph unicode="&#x1ea4;" horiz-adv-x="1265" d="M30 74q0 16 6 32l516 1207q21 47 72 47q14 0 31 -6q28 -13 41 -41l516 -1207q6 -16 6 -32q0 -27 -20.5 -51.5t-55.5 -24.5q-51 0 -72 47l-145 340h-602l-146 -340q-10 -22 -29.5 -34.5t-41.5 -12.5q-35 0 -55.5 24.5t-20.5 51.5zM388 541h469l-233 546zM413 1526 q0 39 35 63l141 103q16 10 37 10q25 0 45 -14l135 -99q35 -24 35 -63q0 -33 -25.5 -55.5t-56.5 -22.5q-27 0 -43 14l-90 64l-88 -64q-21 -14 -43 -14q-33 0 -57.5 22.5t-24.5 55.5zM715 1748q0 18 12 41l84 145q20 37 65 37q35 0 56.5 -22.5t21.5 -53.5q0 -26 -10 -41 l-84 -145q-23 -37 -66 -37q-34 0 -56.5 22.5t-22.5 53.5z" />
<glyph unicode="&#x1ea5;" horiz-adv-x="864" d="M57 360v295q0 76 28.5 143.5t80 118t118 79t144.5 28.5q75 0 143 -28.5t118 -79t79.5 -118t29.5 -143.5v-577q0 -33 -23.5 -55.5t-53.5 -22.5q-29 0 -50.5 17.5t-25.5 43.5q-94 -69 -217 -69q-76 0 -143.5 28.5t-118 79t-80 118t-29.5 142.5zM213 360q0 -43 17 -81.5 t46 -68.5t69 -46.5t83 -16.5t82 15.5t67.5 43t46 64.5t19.5 80v305q0 43 -17.5 82t-46 69t-68.5 46t-83 16q-45 0 -84 -16t-69 -46t-46 -69t-16 -82v-295zM213 1178q0 39 34 63l142 102q16 11 37 11q24 0 45 -15l135 -98q35 -24 35 -63q0 -33 -26 -55.5t-56 -22.5 q-27 0 -43 14l-90 64l-88 -64q-21 -14 -43 -14q-33 0 -57.5 22.5t-24.5 55.5zM543 1400q0 18 12 41l84 145q21 37 66 37q35 0 56.5 -22.5t21.5 -53.5q0 -27 -10 -41l-84 -145q-23 -37 -66 -37q-35 0 -57.5 22.5t-22.5 53.5z" />
<glyph unicode="&#x1ea6;" horiz-adv-x="1265" d="M30 74q0 16 6 32l516 1207q21 47 72 47q14 0 31 -6q28 -13 41 -41l516 -1207q6 -16 6 -32q0 -27 -20.5 -51.5t-55.5 -24.5q-51 0 -72 47l-145 340h-602l-146 -340q-10 -22 -29.5 -34.5t-41.5 -12.5q-35 0 -55.5 24.5t-20.5 51.5zM388 541h469l-233 546zM413 1526 q0 39 35 63l141 103q16 10 37 10q25 0 45 -14l135 -99q35 -24 35 -63q0 -33 -25.5 -55.5t-56.5 -22.5q-27 0 -43 14l-90 64l-88 -64q-21 -14 -43 -14q-33 0 -57.5 22.5t-24.5 55.5zM634 1895q0 31 22.5 53.5t57.5 22.5q43 0 65 -37l84 -145q10 -19 10 -41q0 -31 -21.5 -53.5 t-56.5 -22.5q-45 0 -65 37l-84 145q-12 19 -12 41z" />
<glyph unicode="&#x1ea7;" horiz-adv-x="864" d="M57 360v295q0 76 28.5 143.5t80 118t118 79t144.5 28.5q75 0 143 -28.5t118 -79t79.5 -118t29.5 -143.5v-577q0 -33 -23.5 -55.5t-53.5 -22.5q-29 0 -50.5 17.5t-25.5 43.5q-94 -69 -217 -69q-76 0 -143.5 28.5t-118 79t-80 118t-29.5 142.5zM213 360q0 -43 17 -81.5 t46 -68.5t69 -46.5t83 -16.5t82 15.5t67.5 43t46 64.5t19.5 80v305q0 43 -17.5 82t-46 69t-68.5 46t-83 16q-45 0 -84 -16t-69 -46t-46 -69t-16 -82v-295zM213 1178q0 39 34 63l142 102q16 11 37 11q24 0 45 -15l135 -98q35 -24 35 -63q0 -33 -26 -55.5t-56 -22.5 q-27 0 -43 14l-90 64l-88 -64q-21 -14 -43 -14q-33 0 -57.5 22.5t-24.5 55.5zM435 1547q0 31 22.5 53.5t56.5 22.5q43 0 66 -37l84 -145q10 -19 10 -41q0 -31 -21.5 -53.5t-56.5 -22.5q-45 0 -65 37l-84 145q-12 18 -12 41z" />
<glyph unicode="&#x1ea8;" horiz-adv-x="1265" d="M30 74q0 16 6 32l516 1207q21 47 72 47q14 0 31 -6q28 -13 41 -41l516 -1207q6 -16 6 -32q0 -27 -20.5 -51.5t-55.5 -24.5q-51 0 -72 47l-145 340h-602l-146 -340q-10 -22 -29.5 -34.5t-41.5 -12.5q-35 0 -55.5 24.5t-20.5 51.5zM388 541h469l-233 546zM413 1526 q0 39 35 63l141 103q16 10 37 10q25 0 45 -14l135 -99q35 -24 35 -63q0 -33 -25.5 -55.5t-56.5 -22.5q-27 0 -43 14l-90 64l-88 -64q-21 -14 -43 -14q-33 0 -57.5 22.5t-24.5 55.5zM658 1931q0 7 3 14q5 29 24.5 55t42.5 42.5t54 26t64 9.5q43 0 82 -17t68.5 -49.5t39 -64.5 t9.5 -67q0 -31 -12.5 -62t-36 -57t-59.5 -44t-93 -18q-1 -31 -34 -34.5t-47.5 15.5t-12 50.5t26.5 45t50.5 13t41.5 6t27.5 19t20 30t7.5 36.5q0 21 -7.5 39t-19 29t-24.5 17t-27 6q-21 0 -40.5 -14.5t-30.5 -40.5q-7 -14 -22.5 -23t-35.5 -9q-31 0 -45 16.5t-14 30.5z" />
<glyph unicode="&#x1ea9;" horiz-adv-x="864" d="M57 360v295q0 76 28.5 143.5t80 118t118 79t144.5 28.5q75 0 143 -28.5t118 -79t79.5 -118t29.5 -143.5v-577q0 -33 -23.5 -55.5t-53.5 -22.5q-29 0 -50.5 17.5t-25.5 43.5q-94 -69 -217 -69q-76 0 -143.5 28.5t-118 79t-80 118t-29.5 142.5zM212 1178q0 39 35 63 l141 102q17 11 37 11q25 0 45 -15l136 -98q34 -24 34 -63q0 -33 -25.5 -55.5t-56.5 -22.5q-26 0 -43 14l-90 64l-88 -64q-20 -14 -43 -14q-33 0 -57.5 22.5t-24.5 55.5zM213 360q0 -43 17 -81.5t46 -68.5t69 -46.5t83 -16.5t82 15.5t67.5 43t46 64.5t19.5 80v305 q0 43 -17.5 82t-46 69t-68.5 46t-83 16q-45 0 -84 -16t-69 -46t-46 -69t-16 -82v-295zM456 1570q0 7 3 14q5 29 25 55t43 42.5t53.5 26t63.5 9.5q43 0 82.5 -17t68.5 -49.5t38.5 -64.5t9.5 -67q0 -31 -12 -62t-35.5 -57t-60 -44t-93.5 -18q-1 -31 -34 -34.5t-47.5 15.5 t-12 50.5t26.5 45t50.5 13t41.5 6t27.5 19t20.5 30t8 36.5q0 21 -7.5 39t-19 29t-25 17t-27.5 6q-21 0 -40.5 -14.5t-30.5 -40.5q-6 -14 -21.5 -23t-35.5 -9q-32 0 -46 16.5t-14 30.5z" />
<glyph unicode="&#x1eaa;" horiz-adv-x="1265" d="M30 74q0 16 6 32l516 1207q21 47 72 47q14 0 31 -6q28 -13 41 -41l516 -1207q6 -16 6 -32q0 -27 -20.5 -51.5t-55.5 -24.5q-51 0 -72 47l-145 340h-602l-146 -340q-10 -22 -29.5 -34.5t-41.5 -12.5q-35 0 -55.5 24.5t-20.5 51.5zM388 541h469l-233 546zM413 1526 q0 39 35 63l141 103q16 10 37 10q25 0 45 -14l135 -99q35 -24 35 -63q0 -33 -25.5 -55.5t-56.5 -22.5q-27 0 -43 14l-90 64l-88 -64q-21 -14 -43 -14q-33 0 -57.5 22.5t-24.5 55.5zM462 1807q0 30 21.5 50.5t51 32t62 16.5t57.5 5q29 0 63.5 -12t79.5 -12q37 0 58.5 4t34 8 t19.5 8t13 4q31 0 54.5 -22.5t23.5 -55.5q0 -30 -21.5 -49.5t-51 -31t-62.5 -16.5t-55 -5q-52 0 -115 20q-10 2 -31 2q-37 0 -58.5 -3t-33.5 -8t-18 -8t-13 -3q-30 0 -54.5 22.5t-24.5 53.5z" />
<glyph unicode="&#x1eab;" horiz-adv-x="864" d="M57 360v295q0 76 28.5 143.5t80 118t118 79t144.5 28.5q75 0 143 -28.5t118 -79t79.5 -118t29.5 -143.5v-577q0 -33 -23.5 -55.5t-53.5 -22.5q-29 0 -50.5 17.5t-25.5 43.5q-94 -69 -217 -69q-76 0 -143.5 28.5t-118 79t-80 118t-29.5 142.5zM211 1451q0 30 21.5 50.5 t51.5 32t62.5 16.5t57.5 5q28 0 63 -12t80 -12q37 0 58.5 4t34 8t19.5 8t13 4q31 0 54.5 -22.5t23.5 -55.5q0 -30 -21.5 -49.5t-51.5 -31t-62.5 -16.5t-55.5 -5q-51 0 -114 20q-11 3 -31 3q-37 0 -58.5 -3.5t-33.5 -8.5t-18.5 -8t-12.5 -3q-31 0 -55.5 22.5t-24.5 53.5z M213 360q0 -43 17 -81.5t46 -68.5t69 -46.5t83 -16.5t82 15.5t67.5 43t46 64.5t19.5 80v305q0 43 -17.5 82t-46 69t-68.5 46t-83 16q-45 0 -84 -16t-69 -46t-46 -69t-16 -82v-295zM213 1178q0 39 34 63l142 102q16 11 37 11q24 0 45 -15l135 -98q35 -24 35 -63 q0 -33 -26 -55.5t-56 -22.5q-27 0 -43 14l-90 64l-88 -64q-21 -14 -43 -14q-33 0 -57.5 22.5t-24.5 55.5z" />
<glyph unicode="&#x1eac;" horiz-adv-x="1265" d="M30 74q0 16 6 32l516 1207q21 47 72 47q14 0 31 -6q28 -13 41 -41l516 -1207q6 -16 6 -32q0 -27 -20.5 -51.5t-55.5 -24.5q-51 0 -72 47l-145 340h-602l-146 -340q-10 -22 -29.5 -34.5t-41.5 -12.5q-35 0 -55.5 24.5t-20.5 51.5zM388 541h469l-233 546zM413 1526 q0 39 35 63l141 103q16 10 37 10q25 0 45 -14l135 -99q35 -24 35 -63q0 -33 -25.5 -55.5t-56.5 -22.5q-27 0 -43 14l-90 64l-88 -64q-21 -14 -43 -14q-33 0 -57.5 22.5t-24.5 55.5zM532 -219q0 38 26.5 65t65.5 27q36 0 64 -27t28 -65q0 -39 -26.5 -65.5t-65.5 -26.5 q-36 0 -64 26.5t-28 65.5z" />
<glyph unicode="&#x1ead;" horiz-adv-x="864" d="M57 360v295q0 76 28.5 143.5t80 118t118 79t144.5 28.5q75 0 143 -28.5t118 -79t79.5 -118t29.5 -143.5v-577q0 -33 -23.5 -55.5t-53.5 -22.5q-29 0 -50.5 17.5t-25.5 43.5q-94 -69 -217 -69q-76 0 -143.5 28.5t-118 79t-80 118t-29.5 142.5zM212 1178q0 39 35 63 l141 102q17 11 37 11q25 0 45 -15l136 -98q34 -24 34 -63q0 -33 -25.5 -55.5t-56.5 -22.5q-26 0 -43 14l-90 64l-88 -64q-20 -14 -43 -14q-33 0 -57.5 22.5t-24.5 55.5zM213 360q0 -43 17 -81.5t46 -68.5t69 -46.5t83 -16.5t82 15.5t67.5 43t46 64.5t19.5 80v305 q0 43 -17.5 82t-46 69t-68.5 46t-83 16q-45 0 -84 -16t-69 -46t-46 -69t-16 -82v-295zM336 -219q0 38 26.5 65t65.5 27q36 0 63.5 -27t27.5 -65q0 -39 -26.5 -65.5t-64.5 -26.5q-37 0 -64.5 26.5t-27.5 65.5z" />
<glyph unicode="&#x1eae;" horiz-adv-x="1265" d="M30 74q0 16 6 32l516 1207q21 47 72 47q14 0 31 -6q28 -13 41 -41l516 -1207q6 -16 6 -32q0 -27 -20.5 -51.5t-55.5 -24.5q-51 0 -72 47l-145 340h-602l-146 -340q-10 -22 -29.5 -34.5t-41.5 -12.5q-35 0 -55.5 24.5t-20.5 51.5zM388 541h469l-233 546zM413 1582 q0 33 24.5 55.5t57.5 22.5q22 0 43 -14q88 -120 178 0q16 14 43 14q31 0 56.5 -22.5t25.5 -55.5q0 -39 -35 -63q-86 -85 -181.5 -85.5t-176.5 85.5q-35 24 -35 63zM575 1748q0 18 12 41l84 145q20 37 65 37q35 0 56.5 -22.5t21.5 -53.5q0 -26 -10 -41l-84 -145 q-23 -37 -66 -37q-34 0 -56.5 22.5t-22.5 53.5z" />
<glyph unicode="&#x1eaf;" horiz-adv-x="864" d="M57 360v295q0 76 28.5 143.5t80 118t118 79t144.5 28.5q75 0 143 -28.5t118 -79t79.5 -118t29.5 -143.5v-577q0 -33 -23.5 -55.5t-53.5 -22.5q-29 0 -50.5 17.5t-25.5 43.5q-94 -69 -217 -69q-76 0 -143.5 28.5t-118 79t-80 118t-29.5 142.5zM212 1251q0 33 24.5 55.5 t57.5 22.5q22 0 43 -14q88 -120 178 0q16 14 43 14q31 0 56.5 -22.5t25.5 -55.5q0 -39 -35 -63q-86 -85 -181.5 -85.5t-176.5 85.5q-35 24 -35 63zM213 360q0 -43 17 -81.5t46 -68.5t69 -46.5t83 -16.5t82 15.5t67.5 43t46 64.5t19.5 80v305q0 43 -17.5 82t-46 69t-68.5 46 t-83 16q-45 0 -84 -16t-69 -46t-46 -69t-16 -82v-295zM373 1400q0 18 12 41l84 145q21 37 66 37q35 0 56.5 -22.5t21.5 -53.5q0 -27 -10 -41l-84 -145q-23 -37 -66 -37q-35 0 -57.5 22.5t-22.5 53.5z" />
<glyph unicode="&#x1eb0;" horiz-adv-x="1265" d="M30 74q0 16 6 32l516 1207q21 47 72 47q14 0 31 -6q28 -13 41 -41l516 -1207q6 -16 6 -32q0 -27 -20.5 -51.5t-55.5 -24.5q-51 0 -72 47l-145 340h-602l-146 -340q-10 -22 -29.5 -34.5t-41.5 -12.5q-35 0 -55.5 24.5t-20.5 51.5zM388 541h469l-233 546zM413 1582 q0 33 24.5 55.5t57.5 22.5q22 0 43 -14q88 -120 178 0q16 14 43 14q31 0 56.5 -22.5t25.5 -55.5q0 -39 -35 -63q-86 -85 -181.5 -85.5t-176.5 85.5q-35 24 -35 63zM467 1895q0 31 22.5 53.5t57.5 22.5q43 0 65 -37l84 -145q10 -19 10 -41q0 -31 -21.5 -53.5t-56.5 -22.5 q-45 0 -65 37l-84 145q-12 19 -12 41z" />
<glyph unicode="&#x1eb1;" horiz-adv-x="864" d="M57 360v295q0 76 28.5 143.5t80 118t118 79t144.5 28.5q75 0 143 -28.5t118 -79t79.5 -118t29.5 -143.5v-577q0 -33 -23.5 -55.5t-53.5 -22.5q-29 0 -50.5 17.5t-25.5 43.5q-94 -69 -217 -69q-76 0 -143.5 28.5t-118 79t-80 118t-29.5 142.5zM212 1251q0 33 24.5 55.5 t57.5 22.5q22 0 43 -14q88 -120 178 0q16 14 43 14q31 0 56.5 -22.5t25.5 -55.5q0 -39 -35 -63q-86 -85 -181.5 -85.5t-176.5 85.5q-35 24 -35 63zM213 360q0 -43 17 -81.5t46 -68.5t69 -46.5t83 -16.5t82 15.5t67.5 43t46 64.5t19.5 80v305q0 43 -17.5 82t-46 69t-68.5 46 t-83 16q-45 0 -84 -16t-69 -46t-46 -69t-16 -82v-295zM275 1567q0 31 22.5 53.5t56.5 22.5q43 0 66 -37l84 -145q10 -19 10 -41q0 -31 -21.5 -53.5t-56.5 -22.5q-45 0 -65 37l-84 145q-12 18 -12 41z" />
<glyph unicode="&#x1eb2;" horiz-adv-x="1265" d="M30 74q0 16 6 32l516 1207q21 47 72 47q14 0 31 -6q28 -13 41 -41l516 -1207q6 -16 6 -32q0 -27 -20.5 -51.5t-55.5 -24.5q-51 0 -72 47l-145 340h-602l-146 -340q-10 -22 -29.5 -34.5t-41.5 -12.5q-35 0 -55.5 24.5t-20.5 51.5zM388 541h469l-233 546zM413 1582 q0 33 24.5 55.5t57.5 22.5q22 0 43 -14q88 -120 178 0q16 14 43 14q31 0 56.5 -22.5t25.5 -55.5q0 -39 -35 -63q-86 -85 -181.5 -85.5t-176.5 85.5q-35 24 -35 63zM490 1931q0 7 3 14q5 29 24.5 55t42.5 42.5t54 26t64 9.5q43 0 82 -17t68.5 -49.5t39 -64.5t9.5 -67 q0 -31 -12.5 -62t-36 -57t-59.5 -44t-93 -18q-1 -31 -34 -34.5t-47.5 15.5t-12 50.5t26.5 45t50.5 13t41.5 6t27.5 19t20 30t7.5 36.5q0 21 -7.5 39t-19 29t-24.5 17t-27 6q-21 0 -40.5 -14.5t-30.5 -40.5q-7 -14 -22.5 -23t-35.5 -9q-31 0 -45 16.5t-14 30.5z" />
<glyph unicode="&#x1eb3;" horiz-adv-x="864" d="M57 360v295q0 76 28.5 143.5t80 118t118 79t144.5 28.5q75 0 143 -28.5t118 -79t79.5 -118t29.5 -143.5v-577q0 -33 -23.5 -55.5t-53.5 -22.5q-29 0 -50.5 17.5t-25.5 43.5q-94 -69 -217 -69q-76 0 -143.5 28.5t-118 79t-80 118t-29.5 142.5zM212 1251q0 33 24.5 55.5 t57.5 22.5q22 0 43 -14q88 -120 178 0q16 14 43 14q30 0 56 -22.5t26 -55.5q0 -39 -35 -63q-87 -85 -182 -85.5t-177 85.5q-34 24 -34 63zM213 360q0 -43 17 -81.5t46 -68.5t69 -46.5t83 -16.5t82 15.5t67.5 43t46 64.5t19.5 80v305q0 43 -17.5 82t-46 69t-68.5 46t-83 16 q-45 0 -84 -16t-69 -46t-46 -69t-16 -82v-295zM275 1580q0 7 3 14q5 29 25 55t43 42.5t53.5 26t63.5 9.5q43 0 82.5 -17t68.5 -49.5t38.5 -64.5t9.5 -67q0 -31 -12 -62t-35.5 -57t-60 -44t-93.5 -18q-1 -31 -34 -34.5t-47.5 15.5t-12 50.5t26.5 45t50.5 13t41.5 6t27.5 19 t20.5 30t8 36.5q0 21 -7.5 39t-19 29t-25 17t-27.5 6q-21 0 -40.5 -14.5t-30.5 -40.5q-6 -14 -21.5 -23t-35.5 -9q-32 0 -46 16.5t-14 30.5z" />
<glyph unicode="&#x1eb4;" horiz-adv-x="1265" d="M30 74q0 16 6 32l516 1207q21 47 72 47q14 0 31 -6q28 -13 41 -41l516 -1207q6 -16 6 -32q0 -27 -20.5 -51.5t-55.5 -24.5q-51 0 -72 47l-145 340h-602l-146 -340q-10 -22 -29.5 -34.5t-41.5 -12.5q-35 0 -55.5 24.5t-20.5 51.5zM388 541h469l-233 546zM413 1582 q0 33 24.5 55.5t57.5 22.5q22 0 43 -14q88 -120 178 0q16 14 43 14q31 0 56.5 -22.5t25.5 -55.5q0 -39 -35 -63q-86 -85 -181.5 -85.5t-176.5 85.5q-35 24 -35 63zM462 1807q0 30 21.5 50.5t51 32t62 16.5t57.5 5q29 0 63.5 -12t79.5 -12q37 0 58.5 4t34 8t19.5 8t13 4 q31 0 54.5 -22.5t23.5 -55.5q0 -30 -21.5 -49.5t-51 -31t-62.5 -16.5t-55 -5q-52 0 -115 20q-10 2 -31 2q-37 0 -58.5 -3t-33.5 -8t-18 -8t-13 -3q-30 0 -54.5 22.5t-24.5 53.5z" />
<glyph unicode="&#x1eb5;" horiz-adv-x="864" d="M57 360v295q0 76 28.5 143.5t80 118t118 79t144.5 28.5q75 0 143 -28.5t118 -79t79.5 -118t29.5 -143.5v-577q0 -33 -23.5 -55.5t-53.5 -22.5q-29 0 -50.5 17.5t-25.5 43.5q-94 -69 -217 -69q-76 0 -143.5 28.5t-118 79t-80 118t-29.5 142.5zM211 1451q0 30 21.5 50.5 t51.5 32t62.5 16.5t57.5 5q28 0 63 -12t80 -12q37 0 58.5 4t34 8t19.5 8t13 4q31 0 54.5 -22.5t23.5 -55.5q0 -30 -21.5 -49.5t-51.5 -31t-62.5 -16.5t-55.5 -5q-51 0 -114 20q-11 3 -31 3q-37 0 -58.5 -3.5t-33.5 -8.5t-18.5 -8t-12.5 -3q-31 0 -55.5 22.5t-24.5 53.5z M212 1251q0 33 24.5 55.5t57.5 22.5q22 0 43 -14q88 -120 178 0q16 14 43 14q31 0 56.5 -22.5t25.5 -55.5q0 -39 -35 -63q-86 -85 -181.5 -85.5t-176.5 85.5q-35 24 -35 63zM213 360q0 -43 17 -81.5t46 -68.5t69 -46.5t83 -16.5t82 15.5t67.5 43t46 64.5t19.5 80v305 q0 43 -17.5 82t-46 69t-68.5 46t-83 16q-45 0 -84 -16t-69 -46t-46 -69t-16 -82v-295z" />
<glyph unicode="&#x1eb6;" horiz-adv-x="1265" d="M30 74q0 16 6 32l516 1207q21 47 72 47q14 0 31 -6q28 -13 41 -41l516 -1207q6 -16 6 -32q0 -27 -20.5 -51.5t-55.5 -24.5q-51 0 -72 47l-145 340h-602l-146 -340q-10 -22 -29.5 -34.5t-41.5 -12.5q-35 0 -55.5 24.5t-20.5 51.5zM388 541h469l-233 546zM413 1582 q0 33 24.5 55.5t57.5 22.5q22 0 43 -14q88 -120 178 0q16 14 43 14q31 0 56.5 -22.5t25.5 -55.5q0 -39 -35 -63q-86 -85 -181.5 -85.5t-176.5 85.5q-35 24 -35 63zM532 -219q0 38 26.5 65t65.5 27q36 0 64 -27t28 -65q0 -39 -26.5 -65.5t-65.5 -26.5q-36 0 -64 26.5 t-28 65.5z" />
<glyph unicode="&#x1eb7;" horiz-adv-x="864" d="M57 360v295q0 76 28.5 143.5t80 118t118 79t144.5 28.5q75 0 143 -28.5t118 -79t79.5 -118t29.5 -143.5v-577q0 -33 -23.5 -55.5t-53.5 -22.5q-29 0 -50.5 17.5t-25.5 43.5q-94 -69 -217 -69q-76 0 -143.5 28.5t-118 79t-80 118t-29.5 142.5zM212 1251q0 33 24.5 55.5 t57.5 22.5q22 0 43 -14q88 -120 178 0q16 14 43 14q30 0 56 -22.5t26 -55.5q0 -39 -35 -63q-87 -85 -182 -85.5t-177 85.5q-34 24 -34 63zM213 360q0 -43 17 -81.5t46 -68.5t69 -46.5t83 -16.5t82 15.5t67.5 43t46 64.5t19.5 80v305q0 43 -17.5 82t-46 69t-68.5 46t-83 16 q-45 0 -84 -16t-69 -46t-46 -69t-16 -82v-295zM336 -219q0 38 26.5 65t65.5 27q36 0 63.5 -27t27.5 -65q0 -39 -26.5 -65.5t-64.5 -26.5q-37 0 -64.5 26.5t-27.5 65.5z" />
<glyph unicode="&#x1eb8;" horiz-adv-x="1081" d="M73 78v1196q0 33 22.5 55.5t55.5 22.5h821q33 0 55.5 -22.5t22.5 -55.5q0 -31 -22.5 -54.5t-55.5 -23.5h-743v-463h241q33 0 55.5 -22.5t22.5 -55.5q0 -30 -22.5 -53.5t-55.5 -23.5h-241v-422h743q33 0 55.5 -22.5t22.5 -55.5q0 -31 -22.5 -54.5t-55.5 -23.5h-815h-6 q-31 0 -54.5 22.5t-23.5 55.5zM451 -219q0 38 27 65t65 27q36 0 64 -27t28 -65q0 -39 -26.5 -65.5t-65.5 -26.5q-36 0 -64 26.5t-28 65.5z" />
<glyph unicode="&#x1eb9;" horiz-adv-x="851" d="M57 360v295q0 76 28.5 143.5t80 118t118 79t144.5 28.5q75 0 143 -28.5t118 -79t79.5 -118t29.5 -143.5v-147q0 -33 -22.5 -55.5t-54.5 -22.5h-508v-70q0 -43 17 -81.5t46 -68.5t69 -46.5t83 -16.5q65 0 117.5 34t78.5 91l2 7q9 22 28 35.5t44 13.5q33 0 55.5 -23.5 t22.5 -54.5q0 -14 -6 -29l-4 -8q-43 -98 -133.5 -159.5t-204.5 -61.5q-76 0 -143.5 28.5t-118 79t-80 118t-29.5 142.5zM213 586h430v69q0 43 -17.5 82t-46 69t-68.5 46t-83 16q-45 0 -84 -16t-69 -46t-46 -69t-16 -82v-69zM336 -219q0 38 26.5 65t65.5 27q36 0 63.5 -27 t27.5 -65q0 -39 -26.5 -65.5t-64.5 -26.5q-37 0 -64.5 26.5t-27.5 65.5z" />
<glyph unicode="&#x1eba;" horiz-adv-x="1081" d="M73 78v1196q0 33 22.5 55.5t55.5 22.5h821q33 0 55.5 -22.5t22.5 -55.5q0 -31 -22.5 -54.5t-55.5 -23.5h-743v-463h241q33 0 55.5 -22.5t22.5 -55.5q0 -30 -22.5 -53.5t-55.5 -23.5h-241v-422h743q33 0 55.5 -22.5t22.5 -55.5q0 -31 -22.5 -54.5t-55.5 -23.5h-815h-6 q-31 0 -54.5 22.5t-23.5 55.5zM396 1710q0 7 3 14q5 29 25 55t43 42.5t53.5 26t63.5 9.5q43 0 82.5 -17t68.5 -49.5t38.5 -64.5t9.5 -67q0 -31 -12 -62t-35.5 -57t-60 -44t-93.5 -18q-1 -31 -34 -34.5t-47.5 15.5t-12 50.5t26.5 45t50.5 13t41.5 6t27.5 19t20.5 30t8 36.5 q0 21 -7.5 39t-19 29t-25 17t-27.5 6q-21 0 -40.5 -14.5t-30.5 -40.5q-6 -14 -21.5 -23t-35.5 -9q-32 0 -46 16.5t-14 30.5z" />
<glyph unicode="&#x1ebb;" horiz-adv-x="851" d="M57 360v295q0 76 28.5 143.5t80 118t118 79t144.5 28.5q75 0 143 -28.5t118 -79t79.5 -118t29.5 -143.5v-147q0 -33 -22.5 -55.5t-54.5 -22.5h-508v-70q0 -43 17 -81.5t46 -68.5t69 -46.5t83 -16.5q65 0 117.5 34t78.5 91l2 7q9 22 28 35.5t44 13.5q33 0 55.5 -23.5 t22.5 -54.5q0 -14 -6 -29l-4 -8q-43 -98 -133.5 -159.5t-204.5 -61.5q-76 0 -143.5 28.5t-118 79t-80 118t-29.5 142.5zM213 586h430v69q0 43 -17.5 82t-46 69t-68.5 46t-83 16q-45 0 -84 -16t-69 -46t-46 -69t-16 -82v-69zM255 1359q0 7 3 14q5 29 25 55t43 42.5t53.5 26 t63.5 9.5q43 0 82.5 -17t68.5 -49.5t38.5 -64.5t9.5 -67q0 -31 -12 -62t-35.5 -57t-60 -44t-93.5 -18q-1 -31 -34 -34.5t-47.5 15.5t-12 50.5t26.5 45t50.5 13t41.5 6t27.5 19t20.5 30t8 36.5q0 21 -7.5 39t-19 29t-25 17t-27.5 6q-21 0 -40.5 -14.5t-30.5 -40.5 q-6 -14 -21.5 -23t-35.5 -9q-32 0 -46 16.5t-14 30.5z" />
<glyph unicode="&#x1ebc;" horiz-adv-x="1081" d="M73 78v1196q0 33 22.5 55.5t55.5 22.5h821q33 0 55.5 -22.5t22.5 -55.5q0 -31 -22.5 -54.5t-55.5 -23.5h-743v-463h241q33 0 55.5 -22.5t22.5 -55.5q0 -30 -22.5 -53.5t-55.5 -23.5h-241v-422h743q33 0 55.5 -22.5t22.5 -55.5q0 -31 -22.5 -54.5t-55.5 -23.5h-815h-6 q-31 0 -54.5 22.5t-23.5 55.5zM290 1606q0 30 21.5 50.5t51 32t62.5 16.5t57 5q29 0 64 -12t80 -12q37 0 58.5 4t33.5 8t19 8t14 4q30 0 53.5 -22.5t23.5 -55.5q0 -30 -21.5 -49.5t-51 -31t-62.5 -16.5t-55 -5q-51 0 -115 20q-10 2 -30 2q-37 0 -58.5 -3t-34 -8t-18.5 -8 t-12 -3q-31 0 -55.5 22.5t-24.5 53.5z" />
<glyph unicode="&#x1ebd;" horiz-adv-x="851" d="M57 360v295q0 76 28.5 143.5t80 118t118 79t144.5 28.5q75 0 143 -28.5t118 -79t79.5 -118t29.5 -143.5v-147q0 -33 -22.5 -55.5t-54.5 -22.5h-508v-70q0 -43 17 -81.5t46 -68.5t69 -46.5t83 -16.5q65 0 117.5 34t78.5 91l2 7q9 22 28 35.5t44 13.5q33 0 55.5 -23.5 t22.5 -54.5q0 -14 -6 -29l-4 -8q-43 -98 -133.5 -159.5t-204.5 -61.5q-76 0 -143.5 28.5t-118 79t-80 118t-29.5 142.5zM181 1220q0 30 21.5 50.5t51 32t62.5 16.5t57 5q29 0 64 -12t80 -12q37 0 58.5 4t33.5 8t19.5 8t13.5 4q30 0 53.5 -22.5t23.5 -55.5q0 -30 -21.5 -49.5 t-51 -31t-62 -16.5t-55.5 -5q-51 0 -115 20q-10 3 -30 3q-37 0 -58.5 -3.5t-34 -8.5t-18.5 -8t-12 -3q-31 0 -55.5 22.5t-24.5 53.5zM213 586h430v69q0 43 -17.5 82t-46 69t-68.5 46t-83 16q-45 0 -84 -16t-69 -46t-46 -69t-16 -82v-69z" />
<glyph unicode="&#x1ebe;" horiz-adv-x="1081" d="M73 78v1196q0 33 22.5 55.5t55.5 22.5h821q33 0 55.5 -22.5t22.5 -55.5q0 -31 -22.5 -54.5t-55.5 -23.5h-743v-463h241q33 0 55.5 -22.5t22.5 -55.5q0 -30 -22.5 -53.5t-55.5 -23.5h-241v-422h743q33 0 55.5 -22.5t22.5 -55.5q0 -31 -22.5 -54.5t-55.5 -23.5h-815h-6 q-31 0 -54.5 22.5t-23.5 55.5zM341 1526q0 39 35 63l141 103q17 10 37 10q25 0 45 -14l136 -99q34 -24 34 -63q0 -33 -25.5 -55.5t-56.5 -22.5q-26 0 -43 14l-90 64l-88 -64q-20 -14 -43 -14q-33 0 -57.5 22.5t-24.5 55.5zM685 1748q0 18 12 41l84 145q20 37 65 37 q35 0 56.5 -22.5t21.5 -53.5q0 -26 -10 -41l-84 -145q-23 -37 -66 -37q-34 0 -56.5 22.5t-22.5 53.5z" />
<glyph unicode="&#x1ebf;" horiz-adv-x="851" d="M57 360v295q0 76 28.5 143.5t80 118t118 79t144.5 28.5q75 0 143 -28.5t118 -79t79.5 -118t29.5 -143.5v-147q0 -33 -22.5 -55.5t-54.5 -22.5h-508v-70q0 -43 17 -81.5t46 -68.5t69 -46.5t83 -16.5q65 0 117.5 34t78.5 91l2 7q9 22 28 35.5t44 13.5q33 0 55.5 -23.5 t22.5 -54.5q0 -14 -6 -29l-4 -8q-43 -98 -133.5 -159.5t-204.5 -61.5q-76 0 -143.5 28.5t-118 79t-80 118t-29.5 142.5zM207 1176q0 38 35 63l141 102q16 11 37 11q24 0 45 -15l135 -98q35 -25 35 -63q0 -33 -25.5 -55.5t-56.5 -22.5q-27 0 -43 14l-90 64l-88 -64 q-21 -14 -43 -14q-33 0 -57.5 22.5t-24.5 55.5zM213 586h430v69q0 43 -17.5 82t-46 69t-68.5 46t-83 16q-45 0 -84 -16t-69 -46t-46 -69t-16 -82v-69zM523 1380q0 18 12 41l84 145q21 37 66 37q35 0 56.5 -22.5t21.5 -53.5q0 -27 -11 -41l-84 -145q-22 -37 -65 -37 q-35 0 -57.5 22.5t-22.5 53.5z" />
<glyph unicode="&#x1ec0;" horiz-adv-x="1081" d="M73 78v1196q0 33 22.5 55.5t55.5 22.5h821q33 0 55.5 -22.5t22.5 -55.5q0 -31 -22.5 -54.5t-55.5 -23.5h-743v-463h241q33 0 55.5 -22.5t22.5 -55.5q0 -30 -22.5 -53.5t-55.5 -23.5h-241v-422h743q33 0 55.5 -22.5t22.5 -55.5q0 -31 -22.5 -54.5t-55.5 -23.5h-815h-6 q-31 0 -54.5 22.5t-23.5 55.5zM341 1526q0 39 35 63l141 103q17 10 37 10q25 0 45 -14l136 -99q34 -24 34 -63q0 -33 -25.5 -55.5t-56.5 -22.5q-26 0 -43 14l-90 64l-88 -64q-20 -14 -43 -14q-33 0 -57.5 22.5t-24.5 55.5zM594 1895q0 31 22.5 53.5t57.5 22.5q43 0 65 -37 l84 -145q10 -19 10 -41q0 -31 -21.5 -53.5t-56.5 -22.5q-45 0 -65 37l-84 145q-12 19 -12 41z" />
<glyph unicode="&#x1ec1;" horiz-adv-x="851" d="M57 360v295q0 76 28.5 143.5t80 118t118 79t144.5 28.5q75 0 143 -28.5t118 -79t79.5 -118t29.5 -143.5v-147q0 -33 -22.5 -55.5t-54.5 -22.5h-508v-70q0 -43 17 -81.5t46 -68.5t69 -46.5t83 -16.5q65 0 117.5 34t78.5 91l2 7q9 22 28 35.5t44 13.5q33 0 55.5 -23.5 t22.5 -54.5q0 -14 -6 -29l-4 -8q-43 -98 -133.5 -159.5t-204.5 -61.5q-76 0 -143.5 28.5t-118 79t-80 118t-29.5 142.5zM207 1176q0 38 35 63l141 102q16 11 37 11q24 0 45 -15l135 -98q35 -25 35 -63q0 -33 -25.5 -55.5t-56.5 -22.5q-27 0 -43 14l-90 64l-88 -64 q-21 -14 -43 -14q-33 0 -57.5 22.5t-24.5 55.5zM213 586h430v69q0 43 -17.5 82t-46 69t-68.5 46t-83 16q-45 0 -84 -16t-69 -46t-46 -69t-16 -82v-69zM413 1547q0 31 22.5 53.5t56.5 22.5q43 0 66 -37l84 -145q10 -19 10 -41q0 -31 -21.5 -53.5t-56.5 -22.5q-45 0 -65 37 l-84 145q-12 18 -12 41z" />
<glyph unicode="&#x1ec2;" horiz-adv-x="1081" d="M73 78v1196q0 33 22.5 55.5t55.5 22.5h821q33 0 55.5 -22.5t22.5 -55.5q0 -31 -22.5 -54.5t-55.5 -23.5h-743v-463h241q33 0 55.5 -22.5t22.5 -55.5q0 -30 -22.5 -53.5t-55.5 -23.5h-241v-422h743q33 0 55.5 -22.5t22.5 -55.5q0 -31 -22.5 -54.5t-55.5 -23.5h-815h-6 q-31 0 -54.5 22.5t-23.5 55.5zM341 1526q0 39 35 63l141 103q17 10 37 10q25 0 45 -14l136 -99q34 -24 34 -63q0 -33 -25.5 -55.5t-56.5 -22.5q-26 0 -43 14l-90 64l-88 -64q-20 -14 -43 -14q-33 0 -57.5 22.5t-24.5 55.5zM598 1931q0 7 3 14q5 29 24.5 55t42.5 42.5t54 26 t64 9.5q43 0 82 -17t68.5 -49.5t39 -64.5t9.5 -67q0 -31 -12.5 -62t-36 -57t-59.5 -44t-93 -18q-1 -31 -34 -34.5t-47.5 15.5t-12 50.5t26.5 45t50.5 13t41.5 6t27.5 19t20 30t7.5 36.5q0 21 -7.5 39t-19 29t-24.5 17t-27 6q-21 0 -40.5 -14.5t-30.5 -40.5q-7 -14 -22.5 -23 t-35.5 -9q-31 0 -45 16.5t-14 30.5z" />
<glyph unicode="&#x1ec3;" horiz-adv-x="851" d="M57 360v295q0 76 28.5 143.5t80 118t118 79t144.5 28.5q75 0 143 -28.5t118 -79t79.5 -118t29.5 -143.5v-147q0 -33 -22.5 -55.5t-54.5 -22.5h-508v-70q0 -43 17 -81.5t46 -68.5t69 -46.5t83 -16.5q65 0 117.5 34t78.5 91l2 7q9 22 28 35.5t44 13.5q33 0 55.5 -23.5 t22.5 -54.5q0 -14 -6 -29l-4 -8q-43 -98 -133.5 -159.5t-204.5 -61.5q-76 0 -143.5 28.5t-118 79t-80 118t-29.5 142.5zM207 1176q0 38 34 63l142 102q16 11 36 11q25 0 46 -15l135 -98q35 -25 35 -63q0 -33 -26 -55.5t-56 -22.5q-27 0 -43 14l-91 64l-88 -64 q-20 -14 -43 -14q-32 0 -56.5 22.5t-24.5 55.5zM213 586h430v69q0 43 -17.5 82t-46 69t-68.5 46t-83 16q-45 0 -84 -16t-69 -46t-46 -69t-16 -82v-69zM426 1570q0 7 3 14q5 29 25 55t43 42.5t53.5 26t63.5 9.5q43 0 82.5 -17t68.5 -49.5t38.5 -64.5t9.5 -67q0 -31 -12 -62 t-35.5 -57t-60 -44t-93.5 -18q-1 -31 -34 -34.5t-47.5 15.5t-12 50.5t26.5 45t50.5 13t41.5 6t27.5 19t20.5 30t8 36.5q0 21 -7.5 39t-19 29t-25 17t-27.5 6q-21 0 -40.5 -14.5t-30.5 -40.5q-6 -14 -21.5 -23t-35.5 -9q-32 0 -46 16.5t-14 30.5z" />
<glyph unicode="&#x1ec4;" horiz-adv-x="1081" d="M73 78v1196q0 33 22.5 55.5t55.5 22.5h821q33 0 55.5 -22.5t22.5 -55.5q0 -31 -22.5 -54.5t-55.5 -23.5h-743v-463h241q33 0 55.5 -22.5t22.5 -55.5q0 -30 -22.5 -53.5t-55.5 -23.5h-241v-422h743q33 0 55.5 -22.5t22.5 -55.5q0 -31 -22.5 -54.5t-55.5 -23.5h-815h-6 q-31 0 -54.5 22.5t-23.5 55.5zM341 1526q0 39 35 63l141 103q17 10 37 10q25 0 45 -14l136 -99q34 -24 34 -63q0 -33 -25.5 -55.5t-56.5 -22.5q-26 0 -43 14l-90 64l-88 -64q-20 -14 -43 -14q-33 0 -57.5 22.5t-24.5 55.5zM361 1807q0 30 21.5 50.5t51 32t62 16.5t57.5 5 q29 0 63.5 -12t79.5 -12q37 0 58.5 4t34 8t19.5 8t13 4q31 0 54.5 -22.5t23.5 -55.5q0 -30 -21.5 -49.5t-51 -31t-62.5 -16.5t-55 -5q-52 0 -115 20q-10 2 -31 2q-37 0 -58.5 -3t-33.5 -8t-18 -8t-13 -3q-30 0 -54.5 22.5t-24.5 53.5z" />
<glyph unicode="&#x1ec5;" horiz-adv-x="851" d="M57 360v295q0 76 28.5 143.5t80 118t118 79t144.5 28.5q75 0 143 -28.5t118 -79t79.5 -118t29.5 -143.5v-147q0 -33 -22.5 -55.5t-54.5 -22.5h-508v-70q0 -43 17 -81.5t46 -68.5t69 -46.5t83 -16.5q65 0 117.5 34t78.5 91l2 7q9 22 28 35.5t44 13.5q33 0 55.5 -23.5 t22.5 -54.5q0 -14 -6 -29l-4 -8q-43 -98 -133.5 -159.5t-204.5 -61.5q-76 0 -143.5 28.5t-118 79t-80 118t-29.5 142.5zM207 1176q0 38 34 63l142 102q16 11 36 11q25 0 46 -15l135 -98q35 -25 35 -63q0 -33 -26 -55.5t-56 -22.5q-27 0 -43 14l-91 64l-88 -64 q-20 -14 -43 -14q-32 0 -56.5 22.5t-24.5 55.5zM211 1451q0 30 21.5 50.5t51 32t62.5 16.5t57 5q29 0 64 -12t80 -12q37 0 58.5 4t33.5 8t19.5 8t13.5 4q30 0 53.5 -22.5t23.5 -55.5q0 -30 -21.5 -49.5t-51 -31t-62 -16.5t-55.5 -5q-51 0 -115 20q-10 3 -30 3 q-37 0 -58.5 -3.5t-34 -8.5t-18.5 -8t-12 -3q-31 0 -55.5 22.5t-24.5 53.5zM213 586h430v69q0 43 -17.5 82t-46 69t-68.5 46t-83 16q-45 0 -84 -16t-69 -46t-46 -69t-16 -82v-69z" />
<glyph unicode="&#x1ec6;" horiz-adv-x="1081" d="M73 78v1196q0 33 22.5 55.5t55.5 22.5h821q33 0 55.5 -22.5t22.5 -55.5q0 -31 -22.5 -54.5t-55.5 -23.5h-743v-463h241q33 0 55.5 -22.5t22.5 -55.5q0 -30 -22.5 -53.5t-55.5 -23.5h-241v-422h743q33 0 55.5 -22.5t22.5 -55.5q0 -31 -22.5 -54.5t-55.5 -23.5h-815h-6 q-31 0 -54.5 22.5t-23.5 55.5zM341 1526q0 39 35 63l141 103q17 10 37 10q25 0 45 -14l136 -99q34 -24 34 -63q0 -33 -25.5 -55.5t-56.5 -22.5q-26 0 -43 14l-90 64l-88 -64q-20 -14 -43 -14q-33 0 -57.5 22.5t-24.5 55.5zM452 -219q0 38 26.5 65t65.5 27q36 0 64 -27 t28 -65q0 -39 -26.5 -65.5t-65.5 -26.5q-36 0 -64 26.5t-28 65.5z" />
<glyph unicode="&#x1ec7;" horiz-adv-x="851" d="M57 360v295q0 76 28.5 143.5t80 118t118 79t144.5 28.5q75 0 143 -28.5t118 -79t79.5 -118t29.5 -143.5v-147q0 -33 -22.5 -55.5t-54.5 -22.5h-508v-70q0 -43 17 -81.5t46 -68.5t69 -46.5t83 -16.5q65 0 117.5 34t78.5 91l2 7q9 22 28 35.5t44 13.5q33 0 55.5 -23.5 t22.5 -54.5q0 -14 -6 -29l-4 -8q-43 -98 -133.5 -159.5t-204.5 -61.5q-76 0 -143.5 28.5t-118 79t-80 118t-29.5 142.5zM207 1176q0 38 34 63l142 102q16 11 36 11q25 0 46 -15l135 -98q35 -25 35 -63q0 -33 -26 -55.5t-56 -22.5q-27 0 -43 14l-91 64l-88 -64 q-20 -14 -43 -14q-32 0 -56.5 22.5t-24.5 55.5zM213 586h430v69q0 43 -17.5 82t-46 69t-68.5 46t-83 16q-45 0 -84 -16t-69 -46t-46 -69t-16 -82v-69zM336 -219q0 38 26.5 65t65.5 27q36 0 63.5 -27t27.5 -65q0 -39 -26.5 -65.5t-64.5 -26.5q-37 0 -64.5 26.5t-27.5 65.5z " />
<glyph unicode="&#x1ec8;" horiz-adv-x="309" d="M-6 1710q0 7 3 14q5 29 24.5 55t42.5 42.5t54 26t64 9.5q43 0 82.5 -17t68.5 -49.5t38.5 -64.5t9.5 -67q0 -31 -12.5 -62t-36 -57t-59.5 -44t-93 -18q-1 -31 -34 -34.5t-47.5 15.5t-12 50.5t26.5 45t50.5 13t41.5 6t27.5 19t20 30t7.5 36.5q0 21 -7.5 39t-18.5 29 t-24.5 17t-27.5 6q-21 0 -40.5 -14.5t-30.5 -40.5q-6 -14 -22 -23t-35 -9q-32 0 -46 16.5t-14 30.5zM73 78v1196q0 33 22.5 55.5t55.5 22.5q30 0 53.5 -22.5t23.5 -55.5v-1196q0 -33 -22.5 -55.5t-54.5 -22.5q-31 0 -54.5 22.5t-23.5 55.5z" />
<glyph unicode="&#x1ec9;" horiz-adv-x="301" d="M-16 1359q0 7 3 14q5 29 24.5 55t42.5 42.5t54 26t64 9.5q43 0 82.5 -17t68.5 -49.5t38.5 -64.5t9.5 -67q0 -31 -12.5 -62t-36 -57t-59.5 -44t-93 -18q-1 -31 -34 -34.5t-47.5 15.5t-12 50.5t26.5 45t50.5 13t41.5 6t27.5 19t20 30t7.5 36.5q0 21 -7.5 39t-18.5 29 t-24.5 17t-27.5 6q-21 0 -40.5 -14.5t-30.5 -40.5q-6 -14 -22 -23t-35 -9q-32 0 -46 16.5t-14 30.5zM69 78v860q0 33 22.5 55.5t55.5 22.5q31 0 54.5 -22.5t23.5 -55.5v-860q0 -33 -22.5 -55.5t-55.5 -22.5q-31 0 -54.5 22.5t-23.5 55.5z" />
<glyph unicode="&#x1eca;" horiz-adv-x="309" d="M50 -219q0 38 26.5 65t65.5 27q36 0 64 -27t28 -65q0 -39 -27 -65.5t-65 -26.5q-36 0 -64 26.5t-28 65.5zM73 78v1196q0 33 22.5 55.5t54.5 22.5q31 0 54.5 -22.5t23.5 -55.5v-1196q0 -33 -22.5 -55.5t-55.5 -22.5q-30 0 -53.5 22.5t-23.5 55.5z" />
<glyph unicode="&#x1ecb;" horiz-adv-x="301" d="M54 -219q0 38 26.5 65t65.5 27q36 0 64 -27t28 -65q0 -39 -27 -65.5t-65 -26.5q-36 0 -64 26.5t-28 65.5zM68 78v860q0 33 22.5 55.5t55.5 22.5q31 0 54.5 -22.5t23.5 -55.5v-860q0 -33 -22.5 -55.5t-55.5 -22.5q-31 0 -54.5 22.5t-23.5 55.5zM68 1239v59q0 33 22.5 55.5 t55.5 22.5q31 0 54.5 -22.5t23.5 -55.5v-59q0 -33 -22.5 -55.5t-55.5 -22.5q-31 0 -54.5 22.5t-23.5 55.5z" />
<glyph unicode="&#x1ecc;" horiz-adv-x="1095" d="M59 442v467q0 101 39 189t104.5 154.5t154.5 104.5t191 38q101 0 189 -38t154.5 -104.5t105.5 -154.5t39 -189v-467q0 -100 -39 -188t-104.5 -154.5t-154.5 -104.5t-190 -38q-100 0 -189 38t-155.5 104.5t-105.5 154.5t-39 188zM215 442q0 -67 26.5 -127.5t71.5 -104.5 t106.5 -70.5t128.5 -26.5q70 0 130.5 26.5t105.5 70.5t70.5 104.5t25.5 127.5v467q0 68 -26.5 128.5t-71.5 104.5t-105.5 70.5t-128.5 26.5q-69 0 -130.5 -26.5t-106.5 -70.5t-70.5 -104.5t-25.5 -128.5v-467zM456 -219q0 38 26.5 65t64.5 27q37 0 64.5 -27t27.5 -65 q0 -39 -26.5 -65.5t-65.5 -26.5q-36 0 -63.5 26.5t-27.5 65.5z" />
<glyph unicode="&#x1ecd;" d="M57 360v295q0 76 28.5 143.5t80 118t118 79t144.5 28.5q75 0 143 -28.5t118 -79t79.5 -118t29.5 -143.5v-295q0 -75 -28.5 -142.5t-79.5 -118t-119 -79t-143 -28.5q-76 0 -143.5 28.5t-118 79t-80 118t-29.5 142.5zM213 360q0 -43 17 -81.5t46 -68.5t69 -46.5t83 -16.5 q45 0 84 16.5t68.5 46.5t46 68.5t16.5 81.5v295q0 43 -17.5 82t-46 69t-68.5 46t-83 16q-45 0 -84 -16t-69 -46t-46 -69t-16 -82v-295zM336 -219q0 38 26.5 65t65.5 27q36 0 63.5 -27t27.5 -65q0 -39 -26.5 -65.5t-64.5 -26.5q-37 0 -64.5 26.5t-27.5 65.5z" />
<glyph unicode="&#x1ece;" horiz-adv-x="1095" d="M59 442v467q0 101 39 189t104.5 154.5t154.5 104.5t191 38q101 0 189 -38t154.5 -104.5t105.5 -154.5t39 -189v-467q0 -100 -39 -188t-104.5 -154.5t-154.5 -104.5t-190 -38q-100 0 -189 38t-155.5 104.5t-105.5 154.5t-39 188zM215 442q0 -67 26.5 -127.5t71.5 -104.5 t106.5 -70.5t128.5 -26.5q70 0 130.5 26.5t105.5 70.5t70.5 104.5t25.5 127.5v467q0 68 -26.5 128.5t-71.5 104.5t-105.5 70.5t-128.5 26.5q-69 0 -130.5 -26.5t-106.5 -70.5t-70.5 -104.5t-25.5 -128.5v-467zM377 1710q0 7 2 14q5 29 25 55t43 42.5t54 26t64 9.5 q43 0 82 -17t68.5 -49.5t39 -64.5t9.5 -67q0 -31 -12.5 -62t-36 -57t-60 -44t-93.5 -18q0 -31 -33.5 -34.5t-47.5 15.5t-12 50.5t26 45t51 13t41.5 6t27 19t20.5 30t8 36.5q0 21 -7.5 39t-19 29t-25 17t-26.5 6q-22 0 -41 -14.5t-31 -40.5q-6 -14 -21.5 -23t-35.5 -9 q-32 0 -45.5 16.5t-13.5 30.5z" />
<glyph unicode="&#x1ecf;" d="M57 360v295q0 76 28.5 143.5t80 118t118 79t144.5 28.5q75 0 143 -28.5t118 -79t79.5 -118t29.5 -143.5v-295q0 -75 -28.5 -142.5t-79.5 -118t-119 -79t-143 -28.5q-76 0 -143.5 28.5t-118 79t-80 118t-29.5 142.5zM213 360q0 -43 17 -81.5t46 -68.5t69 -46.5t83 -16.5 q45 0 84 16.5t68.5 46.5t46 68.5t16.5 81.5v295q0 43 -17.5 82t-46 69t-68.5 46t-83 16q-45 0 -84 -16t-69 -46t-46 -69t-16 -82v-295zM255 1359q0 7 3 14q5 29 25 55t43 42.5t53.5 26t63.5 9.5q43 0 82.5 -17t68.5 -49.5t38.5 -64.5t9.5 -67q0 -31 -12 -62t-35.5 -57 t-60 -44t-93.5 -18q-1 -31 -34 -34.5t-47.5 15.5t-12 50.5t26.5 45t50.5 13t41.5 6t27.5 19t20.5 30t8 36.5q0 21 -7.5 39t-19 29t-25 17t-27.5 6q-21 0 -40.5 -14.5t-30.5 -40.5q-6 -14 -21.5 -23t-35.5 -9q-32 0 -46 16.5t-14 30.5z" />
<glyph unicode="&#x1ed0;" horiz-adv-x="1091" d="M59 442v467q0 101 39 189t104.5 154.5t154.5 104.5t191 38q101 0 189 -38t154.5 -104.5t105.5 -154.5t39 -189v-467q0 -100 -39 -188t-104.5 -154.5t-154.5 -104.5t-190 -38q-100 0 -189 38t-155.5 104.5t-105.5 154.5t-39 188zM215 442q0 -67 26.5 -127.5t71.5 -104.5 t106.5 -70.5t128.5 -26.5q70 0 130.5 26.5t105.5 70.5t70.5 104.5t25.5 127.5v467q0 68 -26.5 128.5t-71.5 104.5t-105.5 70.5t-128.5 26.5q-69 0 -130.5 -26.5t-106.5 -70.5t-70.5 -104.5t-25.5 -128.5v-467zM327 1526q0 39 35 63l141 103q17 10 37 10q25 0 45 -14l136 -99 q34 -24 34 -63q0 -33 -25.5 -55.5t-56.5 -22.5q-26 0 -43 14l-90 64l-88 -64q-20 -14 -43 -14q-33 0 -57.5 22.5t-24.5 55.5zM632 1730q0 18 12 41l84 145q20 37 65 37q35 0 56.5 -22.5t21.5 -53.5q0 -26 -10 -41l-84 -145q-22 -37 -65 -37q-35 0 -57.5 22.5t-22.5 53.5z " />
<glyph unicode="&#x1ed1;" d="M57 360v295q0 76 28.5 143.5t80 118t118 79t144.5 28.5q75 0 143 -28.5t118 -79t79.5 -118t29.5 -143.5v-295q0 -75 -28.5 -142.5t-79.5 -118t-119 -79t-143 -28.5q-76 0 -143.5 28.5t-118 79t-80 118t-29.5 142.5zM211 1178q0 39 34 63l142 102q16 11 37 11q24 0 45 -15 l135 -98q35 -24 35 -63q0 -33 -26 -55.5t-56 -22.5q-27 0 -43 14l-90 64l-88 -64q-21 -14 -43 -14q-33 0 -57.5 22.5t-24.5 55.5zM213 360q0 -43 17 -81.5t46 -68.5t69 -46.5t83 -16.5q45 0 84 16.5t68.5 46.5t46 68.5t16.5 81.5v295q0 43 -17.5 82t-46 69t-68.5 46t-83 16 q-45 0 -84 -16t-69 -46t-46 -69t-16 -82v-295zM533 1388q0 18 12 40l84 146q21 37 66 37q35 0 56.5 -22.5t21.5 -53.5q0 -27 -11 -41l-84 -145q-22 -37 -65 -37q-35 0 -57.5 22.5t-22.5 53.5z" />
<glyph unicode="&#x1ed2;" horiz-adv-x="1091" d="M59 442v467q0 101 39 189t104.5 154.5t154.5 104.5t191 38q101 0 189 -38t154.5 -104.5t105.5 -154.5t39 -189v-467q0 -100 -39 -188t-104.5 -154.5t-154.5 -104.5t-190 -38q-100 0 -189 38t-155.5 104.5t-105.5 154.5t-39 188zM215 442q0 -67 26.5 -127.5t71.5 -104.5 t106.5 -70.5t128.5 -26.5q70 0 130.5 26.5t105.5 70.5t70.5 104.5t25.5 127.5v467q0 68 -26.5 128.5t-71.5 104.5t-105.5 70.5t-128.5 26.5q-69 0 -130.5 -26.5t-106.5 -70.5t-70.5 -104.5t-25.5 -128.5v-467zM327 1526q0 39 35 63l141 103q17 10 37 10q25 0 45 -14l136 -99 q34 -24 34 -63q0 -33 -25.5 -55.5t-56.5 -22.5q-26 0 -43 14l-90 64l-88 -64q-20 -14 -43 -14q-33 0 -57.5 22.5t-24.5 55.5zM554 1885q0 31 22.5 53.5t57.5 22.5q43 0 66 -37l84 -145q10 -19 10 -41q0 -31 -21.5 -53.5t-56.5 -22.5q-45 0 -65 37l-84 145q-13 19 -13 41z " />
<glyph unicode="&#x1ed3;" d="M57 360v295q0 76 28.5 143.5t80 118t118 79t144.5 28.5q75 0 143 -28.5t118 -79t79.5 -118t29.5 -143.5v-295q0 -75 -28.5 -142.5t-79.5 -118t-119 -79t-143 -28.5q-76 0 -143.5 28.5t-118 79t-80 118t-29.5 142.5zM211 1178q0 39 34 63l142 102q16 11 37 11q24 0 45 -15 l135 -98q35 -24 35 -63q0 -33 -26 -55.5t-56 -22.5q-27 0 -43 14l-90 64l-88 -64q-21 -14 -43 -14q-33 0 -57.5 22.5t-24.5 55.5zM213 360q0 -43 17 -81.5t46 -68.5t69 -46.5t83 -16.5q45 0 84 16.5t68.5 46.5t46 68.5t16.5 81.5v295q0 43 -17.5 82t-46 69t-68.5 46t-83 16 q-45 0 -84 -16t-69 -46t-46 -69t-16 -82v-295zM421 1547q0 31 22.5 53.5t56.5 22.5q43 0 66 -37l84 -145q10 -19 10 -41q0 -31 -21.5 -53.5t-56.5 -22.5q-45 0 -65 37l-84 145q-12 18 -12 41z" />
<glyph unicode="&#x1ed4;" horiz-adv-x="1095" d="M59 442v467q0 101 39 189t104.5 154.5t154.5 104.5t191 38q101 0 189 -38t154.5 -104.5t105.5 -154.5t39 -189v-467q0 -100 -39 -188t-104.5 -154.5t-154.5 -104.5t-190 -38q-100 0 -189 38t-155.5 104.5t-105.5 154.5t-39 188zM215 442q0 -67 26.5 -127.5t71.5 -104.5 t106.5 -70.5t128.5 -26.5q70 0 130.5 26.5t105.5 70.5t70.5 104.5t25.5 127.5v467q0 68 -26.5 128.5t-71.5 104.5t-105.5 70.5t-128.5 26.5q-69 0 -130.5 -26.5t-106.5 -70.5t-70.5 -104.5t-25.5 -128.5v-467zM327 1526q0 39 35 63l141 103q16 10 37 10q24 0 45 -14l135 -99 q35 -24 35 -63q0 -33 -25.5 -55.5t-56.5 -22.5q-27 0 -43 14l-90 64l-88 -64q-21 -14 -43 -14q-33 0 -57.5 22.5t-24.5 55.5zM568 1911q0 7 2 14q5 29 25 55t43 42.5t54 26t64 9.5q43 0 82 -17t68.5 -49.5t39 -64.5t9.5 -67q0 -31 -12.5 -62t-36 -57t-60 -44t-93.5 -18 q0 -31 -33.5 -34.5t-47.5 15.5t-12 50.5t26 45t51 13t41.5 6t27 19t20.5 30t8 36.5q0 21 -7.5 39t-19 29t-25 17t-26.5 6q-22 0 -41 -14.5t-31 -40.5q-6 -14 -21.5 -23t-35.5 -9q-32 0 -45.5 16.5t-13.5 30.5z" />
<glyph unicode="&#x1ed5;" d="M57 360v295q0 76 28.5 143.5t80 118t118 79t144.5 28.5q75 0 143 -28.5t118 -79t79.5 -118t29.5 -143.5v-295q0 -75 -28.5 -142.5t-79.5 -118t-119 -79t-143 -28.5q-76 0 -143.5 28.5t-118 79t-80 118t-29.5 142.5zM210 1178q0 39 35 63l141 102q17 11 37 11q25 0 45 -15 l135 -98q35 -24 35 -63q0 -33 -25.5 -55.5t-56.5 -22.5q-26 0 -43 14l-90 64l-88 -64q-20 -14 -43 -14q-33 0 -57.5 22.5t-24.5 55.5zM213 360q0 -43 17 -81.5t46 -68.5t69 -46.5t83 -16.5q45 0 84 16.5t68.5 46.5t46 68.5t16.5 81.5v295q0 43 -17.5 82t-46 69t-68.5 46 t-83 16q-45 0 -84 -16t-69 -46t-46 -69t-16 -82v-295zM436 1580q0 7 3 14q5 29 25 55t43 42.5t53.5 26t63.5 9.5q43 0 82.5 -17t68.5 -49.5t38.5 -64.5t9.5 -67q0 -31 -12 -62t-35.5 -57t-60 -44t-93.5 -18q-1 -31 -34 -34.5t-47.5 15.5t-12 50.5t26.5 45t50.5 13t41.5 6 t27.5 19t20.5 30t8 36.5q0 21 -7.5 39t-19 29t-25 17t-27.5 6q-21 0 -40.5 -14.5t-30.5 -40.5q-6 -14 -21.5 -23t-35.5 -9q-32 0 -46 16.5t-14 30.5z" />
<glyph unicode="&#x1ed6;" horiz-adv-x="1091" d="M59 442v467q0 101 39 189t104.5 154.5t154.5 104.5t191 38q101 0 189 -38t154.5 -104.5t105.5 -154.5t39 -189v-467q0 -100 -39 -188t-104.5 -154.5t-154.5 -104.5t-190 -38q-100 0 -189 38t-155.5 104.5t-105.5 154.5t-39 188zM215 442q0 -67 26.5 -127.5t71.5 -104.5 t106.5 -70.5t128.5 -26.5q70 0 130.5 26.5t105.5 70.5t70.5 104.5t25.5 127.5v467q0 68 -26.5 128.5t-71.5 104.5t-105.5 70.5t-128.5 26.5q-69 0 -130.5 -26.5t-106.5 -70.5t-70.5 -104.5t-25.5 -128.5v-467zM324 1819q0 30 21.5 50.5t51 32t62.5 16.5t57 5q29 0 64 -12 t80 -12q37 0 58.5 4t33.5 8t19 8t14 4q30 0 53.5 -22.5t23.5 -55.5q0 -30 -21.5 -49.5t-51 -31t-62.5 -16.5t-55 -5q-51 0 -115 20q-10 2 -30 2q-37 0 -58.5 -3t-34 -8t-18.5 -8t-12 -3q-31 0 -55.5 22.5t-24.5 53.5zM327 1526q0 39 35 63l141 103q17 10 37 10q25 0 45 -14 l136 -99q34 -24 34 -63q0 -33 -25.5 -55.5t-56.5 -22.5q-26 0 -43 14l-90 64l-88 -64q-20 -14 -43 -14q-33 0 -57.5 22.5t-24.5 55.5z" />
<glyph unicode="&#x1ed7;" d="M57 360v295q0 76 28.5 143.5t80 118t118 79t144.5 28.5q75 0 143 -28.5t118 -79t79.5 -118t29.5 -143.5v-295q0 -75 -28.5 -142.5t-79.5 -118t-119 -79t-143 -28.5q-76 0 -143.5 28.5t-118 79t-80 118t-29.5 142.5zM211 1178q0 39 34 63l142 102q16 11 37 11q24 0 45 -15 l135 -98q35 -24 35 -63q0 -33 -26 -55.5t-56 -22.5q-27 0 -43 14l-90 64l-88 -64q-21 -14 -43 -14q-33 0 -57.5 22.5t-24.5 55.5zM213 360q0 -43 17 -81.5t46 -68.5t69 -46.5t83 -16.5q45 0 84 16.5t68.5 46.5t46 68.5t16.5 81.5v295q0 43 -17.5 82t-46 69t-68.5 46t-83 16 q-45 0 -84 -16t-69 -46t-46 -69t-16 -82v-295zM228 1469q0 30 21.5 50.5t51.5 32t62.5 16.5t57.5 5q28 0 63 -12t80 -12q37 0 58.5 4t33.5 8t19.5 8t13.5 4q31 0 54.5 -22.5t23.5 -55.5q0 -30 -21.5 -49.5t-51.5 -31t-62.5 -16.5t-55.5 -5q-51 0 -114 20q-11 2 -31 2 q-37 0 -58.5 -3t-34 -8t-18.5 -8t-12 -3q-31 0 -55.5 22.5t-24.5 53.5z" />
<glyph unicode="&#x1ed8;" horiz-adv-x="1095" d="M59 442v467q0 101 39 189t104.5 154.5t154.5 104.5t191 38q101 0 189 -38t154.5 -104.5t105.5 -154.5t39 -189v-467q0 -100 -39 -188t-104.5 -154.5t-154.5 -104.5t-190 -38q-100 0 -189 38t-155.5 104.5t-105.5 154.5t-39 188zM215 442q0 -67 26.5 -127.5t71.5 -104.5 t106.5 -70.5t128.5 -26.5q70 0 130.5 26.5t105.5 70.5t70.5 104.5t25.5 127.5v467q0 68 -26.5 128.5t-71.5 104.5t-105.5 70.5t-128.5 26.5q-69 0 -130.5 -26.5t-106.5 -70.5t-70.5 -104.5t-25.5 -128.5v-467zM327 1526q0 39 35 63l141 103q16 10 37 10q24 0 45 -14l135 -99 q35 -24 35 -63q0 -33 -25.5 -55.5t-56.5 -22.5q-27 0 -43 14l-90 64l-88 -64q-21 -14 -43 -14q-33 0 -57.5 22.5t-24.5 55.5zM456 -219q0 38 26.5 65t64.5 27q37 0 64.5 -27t27.5 -65q0 -39 -26.5 -65.5t-65.5 -26.5q-36 0 -63.5 26.5t-27.5 65.5z" />
<glyph unicode="&#x1ed9;" d="M57 360v295q0 76 28.5 143.5t80 118t118 79t144.5 28.5q75 0 143 -28.5t118 -79t79.5 -118t29.5 -143.5v-295q0 -75 -28.5 -142.5t-79.5 -118t-119 -79t-143 -28.5q-76 0 -143.5 28.5t-118 79t-80 118t-29.5 142.5zM210 1178q0 39 35 63l141 102q17 11 37 11q25 0 45 -15 l135 -98q35 -24 35 -63q0 -33 -25.5 -55.5t-56.5 -22.5q-26 0 -43 14l-90 64l-88 -64q-20 -14 -43 -14q-33 0 -57.5 22.5t-24.5 55.5zM213 360q0 -43 17 -81.5t46 -68.5t69 -46.5t83 -16.5q45 0 84 16.5t68.5 46.5t46 68.5t16.5 81.5v295q0 43 -17.5 82t-46 69t-68.5 46 t-83 16q-45 0 -84 -16t-69 -46t-46 -69t-16 -82v-295zM336 -219q0 38 26.5 65t65.5 27q36 0 63.5 -27t27.5 -65q0 -39 -26.5 -65.5t-64.5 -26.5q-37 0 -64.5 26.5t-27.5 65.5z" />
<glyph unicode="&#x1eda;" horiz-adv-x="1091" d="M59 442v467q0 101 39 189t104.5 154.5t154.5 104.5t191 38q101 0 189 -38t155 -104q32 -33 57 -70q1 9 3 19l42 163q9 31 36.5 47t58.5 8q30 -8 47 -35.5t9 -59.5l-42 -162q-9 -32 -36.5 -48t-58.5 -8q-10 3 -19 8q4 -9 8 -17q39 -88 39 -189v-467q0 -100 -39 -188 t-104.5 -154.5t-154.5 -104.5t-190 -38q-100 0 -189 38t-155.5 104.5t-105.5 154.5t-39 188zM215 442q0 -67 26.5 -127.5t71.5 -104.5t106.5 -70.5t128.5 -26.5q70 0 130.5 26.5t105.5 70.5t70.5 104.5t25.5 127.5v467q0 68 -26.5 128.5t-71.5 104.5t-105.5 70.5 t-128.5 26.5q-69 0 -130.5 -26.5t-106.5 -70.5t-70.5 -104.5t-25.5 -128.5v-467zM471 1569q0 18 12 41l84 145q20 37 65 37q35 0 56.5 -22.5t21.5 -53.5q0 -26 -10 -41l-84 -145q-22 -37 -65 -37q-35 0 -57.5 22.5t-22.5 53.5z" />
<glyph unicode="&#x1edb;" d="M57 360v295q0 76 28.5 143.5t80 118t118 79t144.5 28.5q75 0 143 -28.5t118 -78.5q23 -23 41 -50q1 1 1 3l42 163q9 31 36.5 47t58.5 8q30 -8 47 -35.5t9 -59.5l-42 -162q-9 -32 -36.5 -48t-58.5 -8q-5 1 -11 4q22 -59 22 -124v-295q0 -75 -28.5 -142.5t-79.5 -118 t-119 -79t-143 -28.5q-76 0 -143.5 28.5t-118 79t-80 118t-29.5 142.5zM213 360q0 -43 17 -81.5t46 -68.5t69 -46.5t83 -16.5q45 0 84 16.5t68.5 46.5t46 68.5t16.5 81.5v295q0 43 -17.5 82t-46 69t-68.5 46t-83 16q-45 0 -84 -16t-69 -46t-46 -69t-16 -82v-295zM352 1217 q0 18 12 40l84 146q21 37 66 37q35 0 56.5 -22.5t21.5 -53.5q0 -27 -11 -41l-84 -145q-22 -37 -65 -37q-35 0 -57.5 22.5t-22.5 53.5z" />
<glyph unicode="&#x1edc;" horiz-adv-x="1091" d="M59 442v467q0 101 39 189t104.5 154.5t154.5 104.5t191 38q101 0 189 -38t155 -104q32 -33 57 -70q1 9 3 19l42 163q9 31 36.5 47t58.5 8q30 -8 47 -35.5t9 -59.5l-42 -162q-9 -32 -36.5 -48t-58.5 -8q-10 3 -19 8q4 -9 8 -17q39 -88 39 -189v-467q0 -100 -39 -188 t-104.5 -154.5t-154.5 -104.5t-190 -38q-100 0 -189 38t-155.5 104.5t-105.5 154.5t-39 188zM215 442q0 -67 26.5 -127.5t71.5 -104.5t106.5 -70.5t128.5 -26.5q70 0 130.5 26.5t105.5 70.5t70.5 104.5t25.5 127.5v467q0 68 -26.5 128.5t-71.5 104.5t-105.5 70.5 t-128.5 26.5q-69 0 -130.5 -26.5t-106.5 -70.5t-70.5 -104.5t-25.5 -128.5v-467zM374 1714q0 31 22.5 53.5t57.5 22.5q43 0 66 -37l84 -145q10 -19 10 -41q0 -31 -21.5 -53.5t-56.5 -22.5q-45 0 -65 37l-84 145q-13 19 -13 41z" />
<glyph unicode="&#x1edd;" d="M57 360v295q0 76 28.5 143.5t80 118t118 79t144.5 28.5q75 0 143 -28.5t118 -78.5q23 -23 41 -50q1 1 1 3l42 163q9 31 36.5 47t58.5 8q30 -8 47 -35.5t9 -59.5l-42 -162q-9 -32 -36.5 -48t-58.5 -8q-5 1 -11 4q22 -59 22 -124v-295q0 -75 -28.5 -142.5t-79.5 -118 t-119 -79t-143 -28.5q-76 0 -143.5 28.5t-118 79t-80 118t-29.5 142.5zM213 360q0 -43 17 -81.5t46 -68.5t69 -46.5t83 -16.5q45 0 84 16.5t68.5 46.5t46 68.5t16.5 81.5v295q0 43 -17.5 82t-46 69t-68.5 46t-83 16q-45 0 -84 -16t-69 -46t-46 -69t-16 -82v-295zM250 1366 q0 31 22.5 53.5t56.5 22.5q43 0 66 -37l84 -145q10 -19 10 -41q0 -31 -21.5 -53.5t-56.5 -22.5q-45 0 -65 37l-84 145q-12 18 -12 41z" />
<glyph unicode="&#x1ede;" horiz-adv-x="1095" d="M59 442v467q0 101 39 189t104.5 154.5t154.5 104.5t191 38q101 0 189 -38t155 -104q32 -33 57 -70q1 9 3 19l42 163q9 31 36.5 47t58.5 8q30 -8 47 -35.5t9 -59.5l-42 -162q-9 -32 -36.5 -48t-58.5 -8q-10 3 -19 8q4 -9 8 -17q39 -88 39 -189v-467q0 -100 -39 -188 t-104.5 -154.5t-154.5 -104.5t-190 -38q-100 0 -189 38t-155.5 104.5t-105.5 154.5t-39 188zM215 442q0 -67 26.5 -127.5t71.5 -104.5t106.5 -70.5t128.5 -26.5q70 0 130.5 26.5t105.5 70.5t70.5 104.5t25.5 127.5v467q0 68 -26.5 128.5t-71.5 104.5t-105.5 70.5 t-128.5 26.5q-69 0 -130.5 -26.5t-106.5 -70.5t-70.5 -104.5t-25.5 -128.5v-467zM377 1710q0 7 2 14q5 29 25 55t43 42.5t54 26t64 9.5q43 0 82 -17t68.5 -49.5t39 -64.5t9.5 -67q0 -31 -12.5 -62t-36 -57t-60 -44t-93.5 -18q0 -31 -33.5 -34.5t-47.5 15.5t-12 50.5t26 45 t51 13t41.5 6t27 19t20.5 30t8 36.5q0 21 -7.5 39t-19 29t-25 17t-26.5 6q-22 0 -41 -14.5t-31 -40.5q-6 -14 -21.5 -23t-35.5 -9q-32 0 -45.5 16.5t-13.5 30.5z" />
<glyph unicode="&#x1edf;" d="M57 360v295q0 76 29 143.5t80 118t117.5 79t144.5 28.5q76 0 143.5 -28.5t117.5 -78.5q23 -23 41 -50q1 2 1 3l42 163q9 31 36.5 47t58.5 8q30 -8 47 -35.5t9 -59.5l-42 -162q-9 -32 -36.5 -48t-58.5 -8q-5 1 -10 3q22 -58 22 -123v-295q0 -75 -29 -142.5t-80 -118 t-118.5 -79t-143.5 -28.5t-143.5 28.5t-117.5 79t-80 118t-30 142.5zM213 360q0 -43 17.5 -81.5t46 -68.5t68.5 -46.5t83 -16.5q45 0 84 16.5t68.5 46.5t46 68.5t16.5 81.5v295q0 43 -17.5 82t-46 69t-68.5 46t-83 16q-45 0 -84 -16t-68.5 -46t-46 -69t-16.5 -82v-295z M256 1359q0 7 2 14q5 29 25 55t43 42.5t54 26t64 9.5q43 0 82 -17t68.5 -49.5t39 -64.5t9.5 -67q0 -31 -12.5 -62t-36 -57t-60 -44t-93.5 -18q0 -31 -33.5 -34.5t-47.5 15.5t-12 50.5t26 45t51 13t41.5 6t27 19t20.5 30t8 36.5q0 21 -7.5 39t-19 29t-25 17t-26.5 6 q-22 0 -41 -14.5t-31 -40.5q-6 -14 -21.5 -23t-35.5 -9q-32 0 -45.5 16.5t-13.5 30.5z" />
<glyph unicode="&#x1ee0;" horiz-adv-x="1091" d="M59 442v467q0 101 39 189t104.5 154.5t154.5 104.5t191 38q101 0 189 -38t155 -104q32 -33 57 -70q1 9 3 19l42 163q9 31 36.5 47t58.5 8q30 -8 47 -35.5t9 -59.5l-42 -162q-9 -32 -36.5 -48t-58.5 -8q-10 3 -19 8q4 -9 8 -17q39 -88 39 -189v-467q0 -100 -39 -188 t-104.5 -154.5t-154.5 -104.5t-190 -38q-100 0 -189 38t-155.5 104.5t-105.5 154.5t-39 188zM215 442q0 -67 26.5 -127.5t71.5 -104.5t106.5 -70.5t128.5 -26.5q70 0 130.5 26.5t105.5 70.5t70.5 104.5t25.5 127.5v467q0 68 -26.5 128.5t-71.5 104.5t-105.5 70.5 t-128.5 26.5q-69 0 -130.5 -26.5t-106.5 -70.5t-70.5 -104.5t-25.5 -128.5v-467zM264 1608q0 30 21.5 50.5t51 32t62.5 16.5t57 5q29 0 64 -12t80 -12q37 0 58.5 4t33.5 8t19 8t14 4q30 0 53.5 -22.5t23.5 -55.5q0 -30 -21.5 -49.5t-51 -31t-62.5 -16.5t-55 -5 q-51 0 -115 20q-10 2 -30 2q-37 0 -58.5 -3t-34 -8t-18.5 -8t-12 -3q-31 0 -55.5 22.5t-24.5 53.5z" />
<glyph unicode="&#x1ee1;" d="M57 360v295q0 76 28.5 143.5t80 118t118 79t144.5 28.5q75 0 143 -28.5t118 -78.5q23 -23 41 -50q1 1 1 3l42 163q9 31 36.5 47t58.5 8q30 -8 47 -35.5t9 -59.5l-42 -162q-9 -32 -36.5 -48t-58.5 -8q-5 1 -11 4q22 -59 22 -124v-295q0 -75 -28.5 -142.5t-79.5 -118 t-119 -79t-143 -28.5q-76 0 -143.5 28.5t-118 79t-80 118t-29.5 142.5zM147 1268q0 30 21.5 50.5t51.5 32t62.5 16.5t57.5 5q28 0 63 -12t80 -12q37 0 58.5 4t33.5 8t19.5 8t13.5 4q31 0 54.5 -22.5t23.5 -55.5q0 -30 -21.5 -49.5t-51.5 -31t-62.5 -16.5t-55.5 -5 q-51 0 -114 20q-11 2 -31 2q-37 0 -58.5 -3t-34 -8t-18.5 -8t-12 -3q-31 0 -55.5 22.5t-24.5 53.5zM213 360q0 -43 17 -81.5t46 -68.5t69 -46.5t83 -16.5q45 0 84 16.5t68.5 46.5t46 68.5t16.5 81.5v295q0 43 -17.5 82t-46 69t-68.5 46t-83 16q-45 0 -84 -16t-69 -46 t-46 -69t-16 -82v-295z" />
<glyph unicode="&#x1ee2;" horiz-adv-x="1095" d="M59 442v467q0 101 39 189t104.5 154.5t154.5 104.5t191 38q101 0 189 -38t155 -104q32 -33 57 -70q1 9 3 19l42 163q9 31 36.5 47t58.5 8q30 -8 47 -35.5t9 -59.5l-42 -162q-9 -32 -36.5 -48t-58.5 -8q-10 3 -19 8q4 -9 8 -17q39 -88 39 -189v-467q0 -100 -39 -188 t-104.5 -154.5t-154.5 -104.5t-190 -38q-100 0 -189 38t-155.5 104.5t-105.5 154.5t-39 188zM215 442q0 -67 26.5 -127.5t71.5 -104.5t106.5 -70.5t128.5 -26.5q70 0 130.5 26.5t105.5 70.5t70.5 104.5t25.5 127.5v467q0 68 -26.5 128.5t-71.5 104.5t-105.5 70.5 t-128.5 26.5q-69 0 -130.5 -26.5t-106.5 -70.5t-70.5 -104.5t-25.5 -128.5v-467zM456 -219q0 38 26.5 65t64.5 27q37 0 64.5 -27t27.5 -65q0 -39 -26.5 -65.5t-65.5 -26.5q-36 0 -63.5 26.5t-27.5 65.5z" />
<glyph unicode="&#x1ee3;" d="M57 360v295q0 76 29 143.5t80 118t117.5 79t144.5 28.5q76 0 143.5 -28.5t117.5 -78.5q23 -23 41 -50q1 2 1 3l42 163q9 31 36.5 47t58.5 8q30 -8 47 -35.5t9 -59.5l-42 -162q-9 -32 -36.5 -48t-58.5 -8q-5 1 -10 3q22 -58 22 -123v-295q0 -75 -29 -142.5t-80 -118 t-118.5 -79t-143.5 -28.5t-143.5 28.5t-117.5 79t-80 118t-30 142.5zM213 360q0 -43 17.5 -81.5t46 -68.5t68.5 -46.5t83 -16.5q45 0 84 16.5t68.5 46.5t46 68.5t16.5 81.5v295q0 43 -17.5 82t-46 69t-68.5 46t-83 16q-45 0 -84 -16t-68.5 -46t-46 -69t-16.5 -82v-295z M336 -219q0 38 26.5 65t65.5 27q36 0 64 -27t28 -65q0 -39 -26.5 -65.5t-65.5 -26.5q-36 0 -64 26.5t-28 65.5z" />
<glyph unicode="&#x1ee4;" horiz-adv-x="1107" d="M65 442v832q0 33 22.5 55.5t55.5 22.5q31 0 54.5 -22.5t23.5 -55.5v-832q0 -67 26.5 -127.5t71.5 -104.5t106.5 -70.5t128.5 -26.5q70 0 130.5 26.5t105.5 70.5t70.5 104.5t25.5 127.5v832q0 33 22.5 55.5t55.5 22.5q31 0 54.5 -22.5t23.5 -55.5v-832q0 -100 -39 -188 t-104.5 -154.5t-154.5 -104.5t-190 -38q-100 0 -189 38t-155.5 104.5t-105.5 154.5t-39 188zM462 -219q0 38 26.5 65t64.5 27q37 0 64.5 -27t27.5 -65q0 -39 -26.5 -65.5t-65.5 -26.5q-36 0 -63.5 26.5t-27.5 65.5z" />
<glyph unicode="&#x1ee5;" horiz-adv-x="872" d="M65 360v578q0 33 22.5 55.5t55.5 22.5q31 0 54.5 -22.5t23.5 -55.5v-578q0 -43 16 -81.5t46 -68.5t69 -46.5t84 -16.5q43 0 83 16.5t68.5 46.5t46 68.5t17.5 81.5v578q0 33 22.5 55.5t55.5 22.5q30 0 53.5 -22.5t23.5 -55.5v-578q0 -75 -29.5 -142.5t-79.5 -118t-118 -79 t-143 -28.5q-78 0 -144.5 28.5t-118 79t-80 118t-28.5 142.5zM344 -219q0 38 26.5 65t65.5 27q36 0 63.5 -27t27.5 -65q0 -39 -26.5 -65.5t-64.5 -26.5q-37 0 -64.5 26.5t-27.5 65.5z" />
<glyph unicode="&#x1ee6;" horiz-adv-x="1107" d="M65 442v832q0 33 22.5 55.5t55.5 22.5q31 0 54.5 -22.5t23.5 -55.5v-832q0 -67 26.5 -127.5t71.5 -104.5t106.5 -70.5t128.5 -26.5q70 0 130.5 26.5t105.5 70.5t70.5 104.5t25.5 127.5v832q0 33 22.5 55.5t55.5 22.5q31 0 54.5 -22.5t23.5 -55.5v-832q0 -100 -39 -188 t-104.5 -154.5t-154.5 -104.5t-190 -38q-100 0 -189 38t-155.5 104.5t-105.5 154.5t-39 188zM416 1710q0 7 3 14q5 29 24.5 55t42.5 42.5t54 26t64 9.5q43 0 82.5 -17t68.5 -49.5t38.5 -64.5t9.5 -67q0 -31 -12.5 -62t-36 -57t-59.5 -44t-93 -18q-1 -31 -34 -34.5 t-47.5 15.5t-12 50.5t26.5 45t50.5 13t41.5 6t27.5 19t20 30t7.5 36.5q0 21 -7.5 39t-18.5 29t-24.5 17t-27.5 6q-21 0 -40.5 -14.5t-30.5 -40.5q-6 -14 -22 -23t-35 -9q-32 0 -46 16.5t-14 30.5z" />
<glyph unicode="&#x1ee7;" horiz-adv-x="872" d="M65 360v578q0 33 22.5 55.5t55.5 22.5q31 0 54.5 -22.5t23.5 -55.5v-578q0 -43 16 -81.5t46 -68.5t69 -46.5t84 -16.5q43 0 83 16.5t68.5 46.5t46 68.5t17.5 81.5v578q0 33 22.5 55.5t55.5 22.5q30 0 53.5 -22.5t23.5 -55.5v-578q0 -75 -29.5 -142.5t-79.5 -118t-118 -79 t-143 -28.5q-78 0 -144.5 28.5t-118 79t-80 118t-28.5 142.5zM285 1359q0 7 3 14q5 29 24.5 55t42.5 42.5t54 26t64 9.5q43 0 82.5 -17t68.5 -49.5t38.5 -64.5t9.5 -67q0 -31 -12.5 -62t-36 -57t-59.5 -44t-93 -18q-1 -31 -34 -34.5t-47.5 15.5t-12 50.5t26.5 45t50.5 13 t41.5 6t27.5 19t20 30t7.5 36.5q0 21 -7.5 39t-18.5 29t-24.5 17t-27.5 6q-21 0 -40.5 -14.5t-30.5 -40.5q-6 -14 -22 -23t-35 -9q-32 0 -46 16.5t-14 30.5z" />
<glyph unicode="&#x1ee8;" horiz-adv-x="1107" d="M65 442v832q0 33 22.5 55.5t55.5 22.5q31 0 54.5 -22.5t23.5 -55.5v-832q0 -67 26.5 -127.5t71.5 -104.5t106.5 -70.5t128.5 -26.5q70 0 130.5 26.5t105.5 70.5t70.5 104.5t25.5 127.5v832q0 33 22.5 55.5t55.5 22.5q31 0 54.5 -22.5t23.5 -55.5v-30l32 121q8 31 35.5 47 t59.5 8q30 -8 47 -35.5t8 -59.5l-42 -162q-8 -32 -35.5 -48t-59.5 -8q-28 8 -45 32v-697q0 -100 -39 -188t-104.5 -154.5t-154.5 -104.5t-190 -38q-100 0 -189 38t-155.5 104.5t-105.5 154.5t-39 188zM475 1569q0 18 12 41l84 145q20 37 65 37q35 0 56.5 -22.5t21.5 -53.5 q0 -26 -10 -41l-84 -145q-23 -37 -66 -37q-34 0 -56.5 22.5t-22.5 53.5z" />
<glyph unicode="&#x1ee9;" horiz-adv-x="872" d="M65 360v578q0 33 22.5 55.5t55.5 22.5q31 0 54.5 -22.5t23.5 -55.5v-578q0 -43 16 -81.5t46 -68.5t69 -46.5t84 -16.5q43 0 83 16.5t68.5 46.5t46 68.5t17.5 81.5v578q0 33 22.5 55.5t55.5 22.5q30 0 53.5 -22.5t23.5 -55.5v-10l27 105q9 31 36.5 47t58.5 8 q30 -8 47 -35.5t9 -59.5l-42 -162q-9 -32 -36.5 -48t-58.5 -8q-25 7 -41 27v-442q0 -75 -29.5 -142.5t-79.5 -118t-118 -79t-143 -28.5q-78 0 -144.5 28.5t-118 79t-80 118t-28.5 142.5zM368 1174q0 18 12 40l84 146q21 37 66 37q35 0 56.5 -22.5t21.5 -53.5q0 -27 -11 -41 l-83 -145q-23 -37 -66 -37q-35 0 -57.5 22.5t-22.5 53.5z" />
<glyph unicode="&#x1eea;" horiz-adv-x="1107" d="M65 442v832q0 33 22.5 55.5t55.5 22.5q31 0 54.5 -22.5t23.5 -55.5v-832q0 -67 26.5 -127.5t71.5 -104.5t106.5 -70.5t128.5 -26.5q70 0 130.5 26.5t105.5 70.5t70.5 104.5t25.5 127.5v832q0 33 22.5 55.5t55.5 22.5q31 0 54.5 -22.5t23.5 -55.5v-30l32 121q8 31 35.5 47 t59.5 8q30 -8 47 -35.5t8 -59.5l-42 -162q-8 -32 -35.5 -48t-59.5 -8q-28 8 -45 32v-697q0 -100 -39 -188t-104.5 -154.5t-154.5 -104.5t-190 -38q-100 0 -189 38t-155.5 104.5t-105.5 154.5t-39 188zM389 1714q0 31 22.5 53.5t56.5 22.5q43 0 66 -37l84 -145q10 -19 10 -41 q0 -31 -21.5 -53.5t-56.5 -22.5q-45 0 -65 37l-84 145q-12 19 -12 41z" />
<glyph unicode="&#x1eeb;" horiz-adv-x="872" d="M65 360v578q0 33 22.5 55.5t55.5 22.5q31 0 54.5 -22.5t23.5 -55.5v-578q0 -43 16 -81.5t46 -68.5t69 -46.5t84 -16.5q43 0 83 16.5t68.5 46.5t46 68.5t17.5 81.5v578q0 33 22.5 55.5t55.5 22.5q30 0 53.5 -22.5t23.5 -55.5v-10l27 105q9 31 36.5 47t58.5 8 q30 -8 47 -35.5t9 -59.5l-42 -162q-9 -32 -36.5 -48t-58.5 -8q-25 7 -41 27v-442q0 -75 -29.5 -142.5t-79.5 -118t-118 -79t-143 -28.5q-78 0 -144.5 28.5t-118 79t-80 118t-28.5 142.5zM270 1366q0 31 22.5 53.5t57.5 22.5q43 0 65 -37l84 -145q10 -19 10 -41 q0 -31 -21.5 -53.5t-55.5 -22.5q-45 0 -66 37l-84 145q-12 18 -12 41z" />
<glyph unicode="&#x1eec;" horiz-adv-x="1107" d="M65 442v832q0 33 22.5 55.5t55.5 22.5q31 0 54.5 -22.5t23.5 -55.5v-832q0 -67 26.5 -127.5t71.5 -104.5t106.5 -70.5t128.5 -26.5q70 0 130.5 26.5t105.5 70.5t70.5 104.5t25.5 127.5v832q0 33 22.5 55.5t55.5 22.5q31 0 54.5 -22.5t23.5 -55.5v-30l32 121q8 31 35.5 47 t59.5 8q30 -8 47 -35.5t8 -59.5l-42 -162q-8 -32 -35.5 -48t-59.5 -8q-28 8 -45 32v-697q0 -100 -39 -188t-104.5 -154.5t-154.5 -104.5t-190 -38q-100 0 -189 38t-155.5 104.5t-105.5 154.5t-39 188zM416 1710q0 7 3 14q5 29 24.5 55t42.5 42.5t54 26t64 9.5q43 0 82.5 -17 t68.5 -49.5t38.5 -64.5t9.5 -67q0 -31 -12.5 -62t-36 -57t-59.5 -44t-93 -18q-1 -31 -34 -34.5t-47.5 15.5t-12 50.5t26.5 45t50.5 13t41.5 6t27.5 19t20 30t7.5 36.5q0 21 -7.5 39t-18.5 29t-24.5 17t-27.5 6q-21 0 -40.5 -14.5t-30.5 -40.5q-6 -14 -22 -23t-35 -9 q-32 0 -46 16.5t-14 30.5z" />
<glyph unicode="&#x1eed;" horiz-adv-x="872" d="M65 360v578q0 33 22.5 55.5t54.5 22.5q31 0 54.5 -22.5t23.5 -55.5v-578q0 -43 16.5 -81.5t46 -68.5t68.5 -46.5t84 -16.5q43 0 83 16.5t68.5 46.5t46 68.5t17.5 81.5v578q0 33 22.5 55.5t55.5 22.5q31 0 54.5 -22.5t23.5 -55.5v-6l26 101q9 31 36.5 47t58.5 8 q30 -8 47 -35.5t9 -59.5l-42 -162q-9 -32 -36.5 -48t-58.5 -8q-24 6 -40 26v-441q0 -75 -29.5 -142.5t-80 -118t-118 -79t-143.5 -28.5q-78 0 -144.5 28.5t-117.5 79t-79.5 118t-28.5 142.5zM285 1359q0 7 2 14q5 29 25 55t43 42.5t54 26t64 9.5q43 0 82 -17t68.5 -49.5 t39 -64.5t9.5 -67q0 -31 -12.5 -62t-36 -57t-60 -44t-93.5 -18q0 -31 -33.5 -34.5t-47.5 15.5t-12 50.5t26 45t51 13t41.5 6t27 19t20.5 30t8 36.5q0 21 -7.5 39t-19 29t-25 17t-26.5 6q-22 0 -41 -14.5t-31 -40.5q-6 -14 -21.5 -23t-35.5 -9q-32 0 -45.5 16.5t-13.5 30.5z " />
<glyph unicode="&#x1eee;" horiz-adv-x="1107" d="M65 442v832q0 33 22.5 55.5t55.5 22.5q31 0 54.5 -22.5t23.5 -55.5v-832q0 -67 26.5 -127.5t71.5 -104.5t106.5 -70.5t128.5 -26.5q70 0 130.5 26.5t105.5 70.5t70.5 104.5t25.5 127.5v832q0 33 22.5 55.5t55.5 22.5q31 0 54.5 -22.5t23.5 -55.5v-30l32 121q8 31 35.5 47 t59.5 8q30 -8 47 -35.5t8 -59.5l-42 -162q-8 -32 -35.5 -48t-59.5 -8q-28 8 -45 32v-697q0 -100 -39 -188t-104.5 -154.5t-154.5 -104.5t-190 -38q-100 0 -189 38t-155.5 104.5t-105.5 154.5t-39 188zM304 1608q0 30 21.5 50.5t51.5 32t62.5 16.5t57.5 5q28 0 63 -12t80 -12 q37 0 58.5 4t34 8t19.5 8t13 4q31 0 54.5 -22.5t23.5 -55.5q0 -30 -21.5 -49.5t-51.5 -31t-62.5 -16.5t-55.5 -5q-51 0 -114 20q-11 2 -31 2q-37 0 -58.5 -3t-33.5 -8t-18.5 -8t-12.5 -3q-31 0 -55.5 22.5t-24.5 53.5z" />
<glyph unicode="&#x1eef;" horiz-adv-x="872" d="M65 360v578q0 33 22.5 55.5t54.5 22.5q31 0 54.5 -22.5t23.5 -55.5v-578q0 -43 16.5 -81.5t46 -68.5t68.5 -46.5t84 -16.5q43 0 83 16.5t68.5 46.5t46 68.5t17.5 81.5v578q0 33 22.5 55.5t55.5 22.5q31 0 54.5 -22.5t23.5 -55.5v-6l26 101q9 31 36.5 47t58.5 8 q30 -8 47 -35.5t9 -59.5l-42 -162q-9 -32 -36.5 -48t-58.5 -8q-24 6 -40 26v-441q0 -75 -29.5 -142.5t-80 -118t-118 -79t-143.5 -28.5q-78 0 -144.5 28.5t-117.5 79t-79.5 118t-28.5 142.5zM166 1268q0 30 21.5 50.5t51 32t62.5 16.5t57 5q29 0 64 -12t80 -12q37 0 58.5 4 t33.5 8t19.5 8t13.5 4q30 0 54 -22.5t24 -55.5q0 -30 -21.5 -49.5t-51.5 -31t-62.5 -16.5t-55.5 -5q-51 0 -115 20q-10 2 -30 2q-37 0 -58.5 -3t-34 -8t-18.5 -8t-12 -3q-31 0 -55.5 22.5t-24.5 53.5z" />
<glyph unicode="&#x1ef0;" horiz-adv-x="1107" d="M65 442v832q0 33 22.5 55.5t55.5 22.5q31 0 54.5 -22.5t23.5 -55.5v-832q0 -67 26.5 -127.5t71.5 -104.5t106.5 -70.5t128.5 -26.5q70 0 130.5 26.5t105.5 70.5t70.5 104.5t25.5 127.5v832q0 33 22.5 55.5t55.5 22.5q31 0 54.5 -22.5t23.5 -55.5v-30l32 121q8 31 35.5 47 t59.5 8q30 -8 47 -35.5t8 -59.5l-42 -162q-8 -32 -35.5 -48t-59.5 -8q-28 8 -45 32v-697q0 -100 -39 -188t-104.5 -154.5t-154.5 -104.5t-190 -38q-100 0 -189 38t-155.5 104.5t-105.5 154.5t-39 188zM462 -219q0 38 26.5 65t64.5 27q37 0 64.5 -27t27.5 -65 q0 -39 -26.5 -65.5t-65.5 -26.5q-36 0 -63.5 26.5t-27.5 65.5z" />
<glyph unicode="&#x1ef1;" horiz-adv-x="872" d="M65 360v578q0 33 22.5 55.5t54.5 22.5q31 0 54.5 -22.5t23.5 -55.5v-578q0 -43 16.5 -81.5t46 -68.5t68.5 -46.5t84 -16.5q43 0 83 16.5t68.5 46.5t46 68.5t17.5 81.5v578q0 33 22.5 55.5t55.5 22.5q31 0 54.5 -22.5t23.5 -55.5v-6l26 101q9 31 36.5 47t58.5 8 q30 -8 47 -35.5t9 -59.5l-42 -162q-9 -32 -36.5 -48t-58.5 -8q-24 6 -40 26v-441q0 -75 -29.5 -142.5t-80 -118t-118 -79t-143.5 -28.5q-78 0 -144.5 28.5t-117.5 79t-79.5 118t-28.5 142.5zM343 -219q0 38 27 65t65 27q36 0 64 -27t28 -65q0 -39 -26.5 -65.5t-65.5 -26.5 q-36 0 -64 26.5t-28 65.5z" />
<glyph unicode="&#x1ef2;" horiz-adv-x="1058" d="M40 874v400q0 33 22.5 55.5t55.5 22.5q31 0 54.5 -22.5t23.5 -55.5v-400q0 -67 26.5 -127.5t71.5 -104.5t106.5 -70.5t128.5 -26.5q70 0 130.5 26.5t105.5 70.5t70.5 104.5t25.5 127.5v400q0 33 22.5 55.5t55.5 22.5q31 0 54.5 -22.5t23.5 -55.5v-400q0 -90 -32 -170.5 t-87 -144t-130 -106.5t-161 -58v-317q0 -33 -22.5 -55.5t-55.5 -22.5q-30 0 -53.5 22.5t-23.5 55.5v317q-86 15 -162 58t-131.5 106.5t-87 144t-31.5 170.5zM388 1714q0 31 22.5 53.5t56.5 22.5q44 0 66 -37l84 -145q10 -19 10 -41q0 -31 -21.5 -53.5t-56.5 -22.5 q-45 0 -65 37l-84 145q-12 19 -12 41z" />
<glyph unicode="&#x1ef3;" horiz-adv-x="833" d="M45 360v578q0 33 22.5 55.5t55.5 22.5q31 0 54.5 -22.5t23.5 -55.5v-578q0 -43 16 -81.5t46 -68.5t69 -46.5t84 -16.5q43 0 83 16.5t68.5 46.5t46 68.5t17.5 81.5v578q0 33 22.5 55.5t55.5 22.5q30 0 53.5 -22.5t23.5 -55.5v-578q0 -65 -22.5 -125.5t-61.5 -107.5 t-93 -81t-115 -46v-283q0 -32 -23 -54.5t-55 -22.5q-31 0 -54.5 22.5t-23.5 54.5v283q-64 12 -117 46t-92 81t-61.5 107.5t-22.5 125.5zM270 1366q0 31 22.5 53.5t57.5 22.5q43 0 65 -37l84 -145q10 -19 10 -41q0 -31 -21.5 -53.5t-55.5 -22.5q-46 0 -66 37l-84 145 q-12 18 -12 41z" />
<glyph unicode="&#x1ef4;" horiz-adv-x="1058" d="M40 874v400q0 33 22.5 55.5t55.5 22.5q31 0 54.5 -22.5t23.5 -55.5v-400q0 -67 26.5 -127.5t71.5 -104.5t106.5 -70.5t128.5 -26.5q70 0 130.5 26.5t105.5 70.5t70.5 104.5t25.5 127.5v400q0 33 22.5 55.5t55.5 22.5q31 0 54.5 -22.5t23.5 -55.5v-400q0 -90 -32 -170.5 t-87 -144t-130 -106.5t-161 -58v-317q0 -33 -22.5 -55.5t-55.5 -22.5q-30 0 -53.5 22.5t-23.5 55.5v317q-86 15 -162 58t-131.5 106.5t-87 144t-31.5 170.5zM437 -219q0 38 26.5 65t64.5 27q37 0 64.5 -27t27.5 -65q0 -39 -26.5 -65.5t-65.5 -26.5q-36 0 -63.5 26.5 t-27.5 65.5z" />
<glyph unicode="&#x1ef5;" horiz-adv-x="833" d="M45 360v578q0 33 22.5 55.5t55.5 22.5q31 0 54.5 -22.5t23.5 -55.5v-578q0 -43 16 -81.5t46 -68.5t69 -46.5t84 -16.5q43 0 83 16.5t68.5 46.5t46 68.5t17.5 81.5v578q0 33 22.5 55.5t55.5 22.5q30 0 53.5 -22.5t23.5 -55.5v-578q0 -65 -22.5 -125.5t-61.5 -107.5 t-93 -81t-115 -46v-283q0 -32 -23 -54.5t-55 -22.5q-31 0 -54.5 22.5t-23.5 54.5v283q-64 12 -117 46t-92 81t-61.5 107.5t-22.5 125.5zM324 -540q0 38 26.5 65t65.5 27q36 0 63.5 -27t27.5 -65q0 -39 -26.5 -65.5t-64.5 -26.5q-37 0 -64.5 26.5t-27.5 65.5z" />
<glyph unicode="&#x1ef6;" horiz-adv-x="1058" d="M40 874v400q0 33 22.5 55.5t55.5 22.5q31 0 54.5 -22.5t23.5 -55.5v-400q0 -67 26.5 -127.5t71.5 -104.5t106.5 -70.5t128.5 -26.5q70 0 130.5 26.5t105.5 70.5t70.5 104.5t25.5 127.5v400q0 33 22.5 55.5t55.5 22.5q31 0 54.5 -22.5t23.5 -55.5v-400q0 -90 -32 -170.5 t-87 -144t-130 -106.5t-161 -58v-317q0 -33 -22.5 -55.5t-55.5 -22.5q-30 0 -53.5 22.5t-23.5 55.5v317q-86 15 -162 58t-131.5 106.5t-87 144t-31.5 170.5zM376 1710q0 7 2 14q5 29 25 55t43 42.5t54 26t64 9.5q43 0 82 -17t68.5 -49.5t39 -64.5t9.5 -67q0 -31 -12.5 -62 t-36 -57t-59.5 -44t-94 -18q0 -31 -33 -34.5t-47.5 15.5t-12.5 50.5t26 45t51 13t41.5 6t27 19t20.5 30t8 36.5q0 21 -7.5 39t-19 29t-25 17t-26.5 6q-22 0 -41 -14.5t-31 -40.5q-6 -14 -21.5 -23t-35.5 -9q-32 0 -45.5 16.5t-13.5 30.5z" />
<glyph unicode="&#x1ef7;" horiz-adv-x="833" d="M45 360v578q0 33 22.5 55.5t55.5 22.5q31 0 54.5 -22.5t23.5 -55.5v-578q0 -43 16 -81.5t46 -68.5t69 -46.5t84 -16.5q43 0 83 16.5t68.5 46.5t46 68.5t17.5 81.5v578q0 33 22.5 55.5t55.5 22.5q30 0 53.5 -22.5t23.5 -55.5v-578q0 -65 -22.5 -125.5t-61.5 -107.5 t-93 -81t-115 -46v-283q0 -32 -23 -54.5t-55 -22.5q-31 0 -54.5 22.5t-23.5 54.5v283q-64 12 -117 46t-92 81t-61.5 107.5t-22.5 125.5zM285 1359q0 7 3 14q5 29 25 55t43 42.5t54 26t63 9.5q44 0 83 -17t68.5 -49.5t38.5 -64.5t9 -67q0 -31 -12 -62t-35.5 -57t-60 -44 t-93.5 -18q0 -31 -33.5 -34.5t-47.5 15.5t-12 50.5t26 45t51 13t41.5 6t27 19t20.5 30t8 36.5q0 21 -7.5 39t-19 29t-25 17t-27.5 6q-21 0 -40.5 -14.5t-30.5 -40.5q-6 -14 -21.5 -23t-35.5 -9q-32 0 -46 16.5t-14 30.5z" />
<glyph unicode="&#x1ef8;" horiz-adv-x="1058" d="M40 874v400q0 33 22.5 55.5t55.5 22.5q31 0 54.5 -22.5t23.5 -55.5v-400q0 -67 26.5 -127.5t71.5 -104.5t106.5 -70.5t128.5 -26.5q70 0 130.5 26.5t105.5 70.5t70.5 104.5t25.5 127.5v400q0 33 22.5 55.5t55.5 22.5q31 0 54.5 -22.5t23.5 -55.5v-400q0 -90 -32 -170.5 t-87 -144t-130 -106.5t-161 -58v-317q0 -33 -22.5 -55.5t-55.5 -22.5q-30 0 -53.5 22.5t-23.5 55.5v317q-86 15 -162 58t-131.5 106.5t-87 144t-31.5 170.5zM263 1608q0 30 21.5 50.5t51 32t62.5 16.5t57 5q29 0 64 -12t80 -12q37 0 58.5 4t33.5 8t19 8t14 4 q30 0 53.5 -22.5t23.5 -55.5q0 -30 -21.5 -49.5t-51 -31t-62 -16.5t-55.5 -5q-51 0 -115 20q-10 2 -30 2q-37 0 -58.5 -3t-34 -8t-18.5 -8t-12 -3q-31 0 -55.5 22.5t-24.5 53.5z" />
<glyph unicode="&#x1ef9;" horiz-adv-x="833" d="M45 360v578q0 33 22.5 55.5t55.5 22.5q31 0 54.5 -22.5t23.5 -55.5v-578q0 -43 16 -81.5t46 -68.5t69 -46.5t84 -16.5q43 0 83 16.5t68.5 46.5t46 68.5t17.5 81.5v578q0 33 22.5 55.5t55.5 22.5q30 0 53.5 -22.5t23.5 -55.5v-578q0 -65 -22.5 -125.5t-61.5 -107.5 t-93 -81t-115 -46v-283q0 -32 -23 -54.5t-55 -22.5q-31 0 -54.5 22.5t-23.5 54.5v283q-64 12 -117 46t-92 81t-61.5 107.5t-22.5 125.5zM167 1268q0 30 21.5 50.5t51 32t62.5 16.5t57 5q29 0 64 -12t80 -12q37 0 58.5 4t33.5 8t19.5 8t13.5 4q30 0 53.5 -22.5t23.5 -55.5 q0 -30 -21.5 -49.5t-51 -31t-62 -16.5t-55.5 -5q-51 0 -115 20q-10 2 -30 2q-37 0 -58.5 -3t-34 -8t-18.5 -8t-12 -3q-31 0 -55.5 22.5t-24.5 53.5z" />
<glyph unicode="&#x2000;" horiz-adv-x="1039" />
<glyph unicode="&#x2001;" horiz-adv-x="2078" />
<glyph unicode="&#x2002;" horiz-adv-x="1039" />
<glyph unicode="&#x2003;" horiz-adv-x="2078" />
<glyph unicode="&#x2004;" horiz-adv-x="692" />
<glyph unicode="&#x2005;" horiz-adv-x="519" />
<glyph unicode="&#x2006;" horiz-adv-x="346" />
<glyph unicode="&#x2007;" horiz-adv-x="346" />
<glyph unicode="&#x2008;" horiz-adv-x="259" />
<glyph unicode="&#x2009;" horiz-adv-x="415" />
<glyph unicode="&#x200a;" horiz-adv-x="115" />
<glyph unicode="&#x2010;" d="M69 578q0 30 22.5 53.5t55.5 23.5h563q33 0 55.5 -22.5t22.5 -54.5q0 -31 -22.5 -54.5t-55.5 -23.5h-563q-33 0 -55.5 22.5t-22.5 55.5z" />
<glyph unicode="&#x2011;" d="M69 578q0 30 22.5 53.5t55.5 23.5h563q33 0 55.5 -22.5t22.5 -54.5q0 -31 -22.5 -54.5t-55.5 -23.5h-563q-33 0 -55.5 22.5t-22.5 55.5z" />
<glyph unicode="&#x2012;" d="M69 578q0 30 22.5 53.5t55.5 23.5h563q33 0 55.5 -22.5t22.5 -54.5q0 -31 -22.5 -54.5t-55.5 -23.5h-563q-33 0 -55.5 22.5t-22.5 55.5z" />
<glyph unicode="&#x2013;" horiz-adv-x="1163" d="M69 578q0 30 32 53.5t79 23.5h802q47 0 79 -22.5t32 -54.5q0 -31 -32 -54.5t-79 -23.5h-802q-47 0 -79 22.5t-32 55.5z" />
<glyph unicode="&#x2014;" horiz-adv-x="2187" d="M69 578q0 30 64 53.5t158 23.5h1604q94 0 158 -22.5t64 -54.5q0 -31 -64 -54.5t-158 -23.5h-1604q-94 0 -158 22.5t-64 55.5z" />
<glyph unicode="&#x2018;" horiz-adv-x="331" d="M67 1137v161q0 29 23.5 53.5t52.5 24.5h82q32 0 55 -23.5t23 -54.5q0 -32 -23 -54.5t-55 -22.5h-2v-84q0 -33 -23.5 -55.5t-54.5 -22.5q-33 0 -55.5 22.5t-22.5 55.5z" />
<glyph unicode="&#x2019;" horiz-adv-x="335" d="M30 1137q0 32 22.5 54.5t55.5 22.5h2v84q0 33 23.5 55.5t54.5 22.5q32 0 55 -22.5t23 -55.5v-161q0 -29 -24 -53.5t-52 -24.5h-82q-33 0 -55.5 23.5t-22.5 54.5z" />
<glyph unicode="&#x201c;" horiz-adv-x="602" d="M71 1137v161q0 29 23.5 53.5t52.5 24.5h82q32 0 55 -23.5t23 -54.5q0 -32 -23 -54.5t-55 -22.5h-2v-84q0 -33 -23.5 -55.5t-54.5 -22.5q-33 0 -55.5 22.5t-22.5 55.5zM317 1137v161q0 29 23.5 53.5t52.5 24.5h81q33 0 55.5 -23.5t22.5 -54.5q0 -32 -22.5 -54.5 t-55.5 -22.5h-2v-84q0 -33 -23.5 -55.5t-53.5 -22.5q-33 0 -55.5 22.5t-22.5 55.5z" />
<glyph unicode="&#x201d;" horiz-adv-x="604" d="M51 1137q0 32 22.5 54.5t55.5 22.5h2v84q0 33 23.5 55.5t54.5 22.5q32 0 55 -22.5t23 -55.5v-161q0 -29 -24 -53.5t-52 -24.5h-82q-33 0 -55.5 23.5t-22.5 54.5zM297 1137q0 32 22.5 54.5t55.5 22.5h2v84q0 33 23.5 55.5t53.5 22.5q33 0 55.5 -22.5t22.5 -55.5v-161 q0 -29 -23.5 -53.5t-51.5 -24.5h-82q-33 0 -55.5 23.5t-22.5 54.5z" />
<glyph unicode="&#x2026;" horiz-adv-x="817" d="M67 78q0 33 22.5 55.5t55.5 22.5q31 0 54.5 -22.5t23.5 -55.5t-22.5 -55.5t-55.5 -22.5q-31 0 -54.5 22.5t-23.5 55.5zM329 78q0 33 22.5 55.5t55.5 22.5q31 0 54.5 -22.5t23.5 -55.5t-22.5 -55.5t-55.5 -22.5q-31 0 -54.5 22.5t-23.5 55.5zM591 78q0 33 22.5 55.5 t55.5 22.5q31 0 54.5 -22.5t23.5 -55.5t-22.5 -55.5t-55.5 -22.5q-31 0 -54.5 22.5t-23.5 55.5z" />
<glyph unicode="&#x202f;" horiz-adv-x="415" />
<glyph unicode="&#x205f;" horiz-adv-x="519" />
<glyph unicode="&#x25fc;" horiz-adv-x="1014" d="M0 0v1015h1015v-1015h-1015z" />
</font>
</defs>
</svg>
