<?xml version="1.0" standalone="no"?>
<!DOCTYPE svg PUBLIC "-//W3C//DTD SVG 1.1//EN" "http://www.w3.org/Graphics/SVG/1.1/DTD/svg11.dtd" >
<svg xmlns="http://www.w3.org/2000/svg">
<metadata></metadata>
<defs>
<font id="utm_neo_sans_intelregular" horiz-adv-x="1075" >
<font-face units-per-em="2048" ascent="1638" descent="-410" />
<missing-glyph horiz-adv-x="506" />
<glyph unicode="&#xd;" horiz-adv-x="571" />
<glyph unicode=" "  horiz-adv-x="506" />
<glyph unicode="&#x09;" horiz-adv-x="506" />
<glyph unicode="&#xa0;" horiz-adv-x="506" />
<glyph unicode="!" horiz-adv-x="397" d="M100 1501q0 17 13 28t28 11h121q17 0 29 -11t12 -28l-16 -1065q0 -16 -11.5 -27.5t-27.5 -11.5h-92q-16 0 -28.5 11.5t-12.5 27.5zM106 39v192q0 16 11 27.5t28 11.5h115q16 0 27.5 -10.5t11.5 -28.5v-192q0 -17 -11 -28t-28 -11h-115q-16 0 -27.5 11.5t-11.5 27.5z" />
<glyph unicode="&#x22;" horiz-adv-x="725" d="M35 1096q0 12 2 18l94 387q8 39 41 39h131q23 0 23 -22q0 -11 -2 -17l-119 -387q-11 -39 -39 -39h-113q-18 0 -18 21zM399 1096q0 12 2 18l95 387q8 39 41 39h131q22 0 22 -22q0 -11 -2 -17l-119 -387q-11 -39 -39 -39h-112q-19 0 -19 21z" />
<glyph unicode="#" horiz-adv-x="1313" d="M76 453v4l4 59q3 39 41 39h182l37 397h-184q-15 0 -24 11.5t-9 27.5v4l4 62q2 17 13 28t28 11h182l35 387q1 15 12.5 27t26.5 12h108q14 0 22.5 -10.5t8.5 -24.5v-4l-35 -387h301l35 387q2 17 13 28t26 11h107q15 0 22.5 -9.5t7.5 -25.5v-4l-34 -387h192q15 0 24 -11 t9 -28v-4l-4 -62q-1 -16 -12.5 -27.5t-28.5 -11.5h-191l-37 -397h193q15 0 24 -11t9 -28v-4l-4 -59q-1 -16 -12.5 -27.5t-28.5 -11.5h-193l-33 -375q-4 -39 -36 -39h-107q-14 0 -23.5 10.5t-9.5 24.5v4l33 375h-301l-33 -375q-2 -16 -12.5 -27.5t-24.5 -11.5h-108 q-14 0 -23.5 11.5t-9.5 23.5v4l33 375h-182q-15 0 -24 11.5t-9 27.5zM481 555h301l37 397h-301z" />
<glyph unicode="$" horiz-adv-x="1178" d="M129 1174q0 162 97.5 251.5t271.5 106.5v174q0 17 11.5 29t29.5 12h96q17 0 29 -12t12 -29v-176q142 -14 276 -68q16 -6 25.5 -14t9.5 -23v-104q0 -37 -39 -25q-71 23 -126.5 38t-118 24.5t-121.5 9.5q-89 0 -147.5 -17.5t-88 -60.5t-29.5 -116q0 -70 49.5 -121.5 t174.5 -126.5l188 -113q119 -71 189 -135t100.5 -132t30.5 -151q0 -152 -87 -263.5t-286 -137.5v-193q0 -15 -13 -28t-28 -13h-96q-17 0 -29 13t-12 28v187q-91 8 -180 30.5t-148 51.5q-26 13 -32.5 22t-6.5 33v84q0 40 41 24q92 -32 198.5 -54.5t194.5 -22.5q104 0 169 29 t92.5 82.5t27.5 127.5q0 77 -50 132.5t-194 142.5l-198 121q-148 90 -215.5 177.5t-67.5 205.5z" />
<glyph unicode="%" horiz-adv-x="1593" d="M72 1014v190q0 166 72.5 249t205.5 83q87 0 149.5 -36.5t95 -111.5t32.5 -184v-190q0 -165 -73 -249.5t-204 -84.5q-132 0 -205 84.5t-73 249.5zM205 1014q0 -209 145 -209q144 0 144 209v190q0 209 -144 209q-145 0 -145 -209v-190zM283 18q0 7 10 27l858 1452 q16 25 41 25h94q31 0 31 -19q0 -6 -10 -26l-858 -1452q-16 -25 -41 -25h-95q-30 0 -30 18zM971 319v191q0 167 73 249.5t205 82.5q131 0 204 -82.5t73 -249.5v-191q0 -165 -73 -249t-204 -84q-132 0 -205 84t-73 249zM1104 319q0 -208 145 -208q144 0 144 208v191 q0 209 -144 209q-145 0 -145 -209v-191z" />
<glyph unicode="&#x26;" horiz-adv-x="1354" d="M88 360v17q0 83 30.5 150.5t97.5 128.5t167 124l-14 17q-136 157 -174.5 237.5t-38.5 159.5v16q0 159 114 242.5t316 83.5q116 0 207.5 -36.5t145.5 -110.5t54 -179v-16q0 -72 -25.5 -130.5t-92.5 -124t-195 -151.5l-57 -38l370 -400q80 141 80 361v28q0 33 33 33h88 q35 0 35 -33v-28q0 -133 -33 -255t-96 -216l182 -195q10 -10 10 -22q0 -10 -6.5 -16.5t-15.5 -6.5h-142q-18 0 -32 14l-103 111q-162 -139 -403 -139q-211 0 -356.5 91t-145.5 283zM276 360q0 -117 89.5 -175t224.5 -58q183 0 305 104l-408 437q-122 -77 -166.5 -137 t-44.5 -154v-17zM324 1194q0 -43 11 -79t47 -87.5t116 -140.5l20 -23l70 43q101 62 150.5 105t67 83t17.5 99v16q0 98 -62 143.5t-175 45.5q-262 0 -262 -189v-16z" />
<glyph unicode="'" horiz-adv-x="375" d="M49 1096q0 12 2 18l94 387q9 39 41 39h131q23 0 23 -22q0 -11 -2 -17l-119 -387q-11 -39 -39 -39h-112q-19 0 -19 21z" />
<glyph unicode="(" horiz-adv-x="590" d="M98 543v26q0 274 76 529t211 420q18 22 47 22h96q21 0 21 -16q0 -12 -6 -21q-67 -100 -116.5 -208.5t-82 -223.5t-49 -243t-16.5 -259v-26q0 -546 264 -934q6 -9 6 -21q0 -16 -21 -16h-96q-16 0 -26.5 4.5t-20.5 17.5q-135 165 -211 420t-76 529z" />
<glyph unicode=")" horiz-adv-x="590" d="M66 -412q0 12 6 21q264 388 264 934v26q0 142 -17.5 269t-50.5 242t-82.5 222.5t-113.5 200.5q-6 9 -6 21q0 16 20 16h96q29 0 47 -22q68 -81 121.5 -188t89.5 -228t56 -257t20 -276v-26q0 -274 -76.5 -530.5t-210.5 -418.5q-11 -14 -21 -18t-26 -4h-96q-20 0 -20 16z " />
<glyph unicode="*" horiz-adv-x="915" d="M78 1225q1 3 1.5 5t0.5 5l18 59q6 21 27 21q6 0 18 -4l254 -84v268q0 39 31 39h61q31 0 31 -39l-2 -268l256 84q12 4 19 4q20 0 26 -21l19 -59q2 -4 2 -10q0 -20 -29 -31l-256 -80l158 -217q10 -13 10 -27q0 -13 -12 -22l-49 -37q-10 -6 -17 -6q-16 0 -31 20l-155 217 l-156 -217q-13 -20 -31 -20q-7 0 -16 6l-51 37q-12 9 -12 22q0 14 10 27l159 217l-253 80q-31 11 -31 31z" />
<glyph unicode="+" horiz-adv-x="1178" d="M123 752v98q0 15 11.5 24t29.5 9h342v344q0 41 33 41h98q15 0 24 -12.5t9 -28.5v-344h344q16 0 28.5 -9t12.5 -24v-98q0 -33 -41 -33h-344v-342q0 -18 -9 -29.5t-24 -11.5h-98q-33 0 -33 41v342h-342q-41 0 -41 33z" />
<glyph unicode="," horiz-adv-x="416" d="M33 -176q0 10 2 14l117 387q12 39 41 39h135q26 0 26 -22q0 -5 -4 -17l-153 -387q-8 -20 -16 -29.5t-23 -9.5h-101q-24 0 -24 25z" />
<glyph unicode="-" horiz-adv-x="645" d="M80 551v96q0 17 11 27t28 10h407q39 0 39 -37v-96q0 -35 -39 -35h-407q-39 0 -39 35z" />
<glyph unicode="." horiz-adv-x="389" d="M104 43v190q0 16 11 27.5t28 11.5h115q16 0 27.5 -10.5t11.5 -28.5v-190q0 -18 -11.5 -29.5t-27.5 -11.5h-115q-15 0 -27 12t-12 29z" />
<glyph unicode="/" horiz-adv-x="713" d="M39 25q0 12 4 26l463 1430q12 41 35 41h116q29 0 29 -25q0 -10 -2 -16l-463 -1440q-12 -41 -37 -41h-116q-29 0 -29 25z" />
<glyph unicode="0" horiz-adv-x="1198" d="M96 623v276q0 329 131.5 483t372.5 154t371.5 -153.5t130.5 -483.5v-276q0 -330 -130.5 -483.5t-371.5 -153.5t-372.5 154t-131.5 483zM285 623q0 -167 37.5 -274.5t108.5 -156.5t169 -49q151 0 233 114.5t82 365.5v276q0 252 -82 365.5t-233 113.5q-75 0 -132 -26.5 t-98 -83.5t-63 -150.5t-22 -218.5v-276z" />
<glyph unicode="1" horiz-adv-x="1198" d="M236 1231v104q0 16 20 27l309 147q25 13 43 13h84q16 0 27.5 -10.5t11.5 -28.5v-1442q0 -18 -10 -29.5t-27 -11.5h-112q-17 0 -27 12t-10 29v1288l-264 -115q-16 -6 -27 -6q-18 0 -18 23z" />
<glyph unicode="2" horiz-adv-x="1198" d="M141 39v166q0 107 32.5 202.5t102 179t179.5 156.5l207 140q128 86 169 140.5t41 145.5q0 74 -28.5 120.5t-85.5 68.5t-144 22q-69 0 -139.5 -12.5t-140 -32t-115.5 -32.5q-19 -6 -30 2t-11 26v70q0 19 6.5 27.5t24.5 15.5q53 23 114 43t142.5 34.5t155.5 14.5 q104 0 187 -24t136 -68t82 -113t29 -162q0 -82 -27 -146.5t-84.5 -123t-155.5 -125.5l-196 -133q-111 -75 -174.5 -141t-88 -135t-24.5 -160v-43h690q41 0 41 -35v-90q0 -18 -12 -27.5t-29 -9.5h-813q-16 0 -28.5 11.5t-12.5 27.5z" />
<glyph unicode="3" horiz-adv-x="1198" d="M152 106v70q0 41 41 29q121 -32 195.5 -48t160.5 -16q165 0 236 67t71 216v43q0 59 -22.5 116.5t-77 95.5t-140.5 38h-372q-39 0 -39 37v71q0 17 11 28t28 11h372q92 0 145.5 36t74 91.5t20.5 116.5v29q0 87 -29 139.5t-96.5 78t-181.5 25.5q-86 0 -163 -16t-193 -47 q-41 -12 -41 29v69q0 19 6.5 27.5t23.5 15.5q68 29 170 53.5t203 24.5q243 0 367.5 -91t124.5 -308v-29q0 -53 -12.5 -99.5t-37.5 -88t-62 -75.5t-83 -57q100 -48 147.5 -134.5t47.5 -186.5v-43q0 -223 -129.5 -330.5t-362.5 -107.5q-98 0 -201 24.5t-172 52.5q-18 9 -24 17 t-6 26z" />
<glyph unicode="4" horiz-adv-x="1198" d="M57 485v78q0 43 25 76l606 850q21 33 60 33h120q54 0 54 -45v-916h178q17 0 28 -10t11 -27v-82q0 -17 -11.5 -26.5t-27.5 -9.5h-178v-365q0 -17 -9.5 -29t-25.5 -12h-119q-35 0 -35 41v365h-592q-45 0 -64.5 18t-19.5 61zM229 573q0 -12 17 -12h489v701q0 12 -8 12h-2 q-8 0 -16 -12l-473 -672q-7 -8 -7 -17z" />
<glyph unicode="5" horiz-adv-x="1198" d="M137 106v70q0 42 41 29q213 -64 359 -64q172 0 252.5 81t80.5 241v31q0 151 -98.5 212.5t-329.5 61.5h-245q-14 0 -23.5 11.5t-9.5 23.5v2l57 682q2 16 14 25.5t27 9.5h705q17 0 29 -9.5t12 -25.5v-90q0 -33 -41 -33h-588l-33 -442h96q200 0 335.5 -40t208.5 -135 t73 -253v-31q0 -228 -135.5 -352.5t-382.5 -124.5q-99 0 -201.5 24.5t-171.5 52.5q-19 10 -25 17.5t-6 25.5z" />
<glyph unicode="6" horiz-adv-x="1198" d="M100 567v359q0 217 60 351t179 196.5t296 62.5q189 0 369 -76q18 -7 24 -14.5t6 -28.5v-74q0 -40 -41 -28q-129 34 -196 49.5t-162 15.5q-149 0 -226 -55t-100.5 -151t-23.5 -248v-23q181 41 309 41q142 0 254.5 -40t180 -135t67.5 -253v-12q0 -164 -55.5 -280t-167 -177 t-277.5 -61q-116 0 -207.5 35.5t-155.5 106t-98.5 181.5t-34.5 258zM285 567q0 -164 35.5 -258t103.5 -133t172 -39q73 0 131.5 20t99 61.5t62.5 114t22 171.5v12q0 104 -43.5 167.5t-114.5 89.5t-159 26q-69 0 -160 -11.5t-149 -25.5v-195z" />
<glyph unicode="7" horiz-adv-x="1198" d="M127 1397v86q0 15 12 27t29 12h747q81 0 117.5 -36t36.5 -93q0 -51 -27 -107l-589 -1255q-16 -31 -45 -31h-123q-31 0 -31 31q0 10 6 22l619 1286q2 2 2 9q0 14 -15 14h-698q-41 0 -41 35z" />
<glyph unicode="8" horiz-adv-x="1198" d="M90 424v39q0 96 53 188t146 144q-94 49 -144.5 133t-50.5 186v19q0 138 63.5 227.5t174.5 132.5t256 43h20q145 0 256 -43t174.5 -132.5t63.5 -227.5v-19q0 -69 -22.5 -130t-65 -108.5t-107.5 -80.5q92 -51 145.5 -142t53.5 -190v-39q0 -215 -140.5 -326.5t-357.5 -111.5 h-20q-217 0 -357.5 111.5t-140.5 326.5zM274 1114q0 -105 64 -175.5t197 -70.5h127q131 0 195.5 70.5t64.5 175.5v19q0 121 -81 186t-233 65h-20q-152 0 -233 -65t-81 -186v-19zM276 424q0 -134 81.5 -208.5t230.5 -74.5h20q151 0 231.5 74.5t80.5 208.5v39 q0 62 -26.5 121.5t-85 98t-146.5 38.5h-127q-87 0 -146 -38t-86 -98t-27 -122v-39z" />
<glyph unicode="9" horiz-adv-x="1198" d="M100 1006v12q0 124 31.5 219.5t93.5 162t156 101.5t219 35q117 0 208.5 -35t155.5 -106t98 -182t34 -259v-358q0 -165 -34 -280t-101 -188t-167 -107.5t-233 -34.5q-97 0 -195 22t-173 53q-19 10 -25 17.5t-6 25.5v74q0 41 41 29q26 -7 68 -18.5t92.5 -23.5t102 -18 t95.5 -6q149 0 226 55t100.5 151.5t23.5 248.5v22q-93 -20 -163 -30t-146 -10q-107 0 -194 21t-158.5 71t-110.5 134t-39 202zM285 1006q0 -154 89 -218.5t228 -64.5q62 0 154 10.5t155 26.5v194q0 241 -76.5 335.5t-234.5 94.5q-99 0 -169 -35t-108 -116.5t-38 -214.5v-12z " />
<glyph unicode=":" horiz-adv-x="399" d="M109 39v192q0 15 11.5 27t29.5 12h112q17 0 29 -11t12 -28v-192q0 -17 -11.5 -28t-29.5 -11h-112q-17 0 -29 11t-12 28zM109 895v190q0 16 11.5 28.5t29.5 12.5h112q18 0 29.5 -11.5t11.5 -29.5v-190q0 -17 -11.5 -28t-29.5 -11h-112q-17 0 -29 11t-12 28z" />
<glyph unicode=";" horiz-adv-x="426" d="M16 -178q0 10 2 14l117 387q12 39 41 39h133q27 0 27 -22q0 -5 -4 -17l-154 -387q-9 -23 -16 -32t-23 -9h-98q-25 0 -25 27zM133 895v190q0 17 11 29t28 12h117q17 0 28 -12t11 -29v-190q0 -17 -11 -28t-28 -11h-117q-16 0 -27.5 11.5t-11.5 27.5z" />
<glyph unicode="&#x3c;" horiz-adv-x="1145" d="M188 801q0 38 37 69l494 418q31 27 63 27h136q24 0 24 -21q0 -17 -20 -34l-537 -459l537 -459q20 -17 20 -35q0 -20 -24 -20h-136q-32 0 -63 26l-494 418q-37 32 -37 70z" />
<glyph unicode="=" horiz-adv-x="1165" d="M147 526v99q0 32 41 32h789q41 0 41 -32v-99q0 -32 -41 -32h-789q-41 0 -41 32zM147 979v98q0 33 41 33h789q41 0 41 -33v-98q0 -33 -41 -33h-789q-41 0 -41 33z" />
<glyph unicode="&#x3e;" horiz-adv-x="1145" d="M203 307q0 18 20 35l537 459l-537 459q-20 17 -20 34q0 21 24 21h135q32 0 64 -27l494 -418q36 -30 36 -69q0 -38 -36 -70l-494 -418q-32 -26 -64 -26h-135q-24 0 -24 20z" />
<glyph unicode="?" horiz-adv-x="893" d="M-20 1327v98q0 15 9 22.5t25 14.5q56 25 159.5 49.5t211.5 24.5q192 0 301 -71.5t109 -237.5v-25q0 -50 -15 -97t-55 -106t-117 -147l-92 -104q-57 -66 -71.5 -85.5t-25.5 -51.5t-11 -74v-101q0 -16 -12.5 -27.5t-28.5 -11.5h-91q-15 0 -26.5 11.5t-11.5 27.5v101 q0 67 11.5 113.5t41.5 93t82 102.5l94 104q76 85 101.5 136.5t25.5 115.5v25q0 80 -50.5 113.5t-158.5 33.5q-90 0 -171.5 -17.5t-195.5 -53.5q-38 -13 -38 24zM223 39v190q0 16 12.5 28.5t28.5 12.5h115q17 0 28 -12t11 -29v-190q0 -17 -11 -28t-28 -11h-115q-15 0 -28 11 t-13 28z" />
<glyph unicode="@" horiz-adv-x="1540" d="M68 330q0 43 2 63l30 320q18 185 111.5 328t255.5 222.5t375 79.5q204 0 347.5 -81.5t214.5 -225t71 -331.5q0 -181 -42.5 -314t-125.5 -205.5t-199 -72.5q-129 0 -186 77q-117 -88 -226 -88q-106 0 -172.5 42t-95.5 108t-29 139q0 29 2 41l23 240q7 79 34.5 138.5 t76.5 102.5t114 63.5t148 20.5q116 0 262 -30q22 -5 32.5 -14t10.5 -29l-49 -525q-1 -21 -2 -36.5t-2 -30.5q0 -84 75 -84q85 0 132.5 76.5t65 180.5t17.5 200q0 155 -56 271.5t-170 182.5t-277 66q-264 0 -421 -140.5t-182 -379.5l-30 -312q-4 -44 -4 -65q0 -91 32 -171 t96.5 -140t162 -93t225.5 -33q109 0 295 15h2q12 0 15 -5.5t3 -9.5v-65q0 -26 -33 -29q-141 -16 -284 -16q-144 0 -264 39t-206 113t-130.5 175.5t-44.5 221.5zM569 395q0 -147 144 -147q69 0 168 57q-2 14 -2 45q0 39 2 60l39 428q-86 12 -140 12q-89 0 -133 -44t-53 -138 l-23 -234q-2 -14 -2 -39z" />
<glyph unicode="A" horiz-adv-x="1276" d="M49 33q0 10 2 14l379 1333q25 87 83 121.5t126 34.5q44 0 84 -13.5t73 -48t50 -92.5l379 -1335q2 -4 2 -14q0 -33 -35 -33h-121q-28 0 -35 31l-133 471h-530l-131 -471q-3 -13 -15 -22t-22 -9h-121q-14 0 -24.5 9.5t-10.5 23.5zM412 664h452l-186 673q-10 37 -39 37 q-31 0 -41 -37z" />
<glyph unicode="B" horiz-adv-x="1210" d="M129 80v1364q0 70 66 76q134 16 325 16q178 0 310.5 -36t211 -123.5t78.5 -235.5v-33q0 -113 -58 -197.5t-161 -124.5q105 -35 166 -123.5t61 -207.5v-35q0 -434 -598 -434q-217 0 -333 18q-36 5 -52 21.5t-16 54.5zM317 152q36 -1 106.5 -5t106.5 -4q136 0 225 24 t138 84.5t49 168.5v35q0 116 -70.5 188t-238.5 72h-316v-563zM317 864h316q301 0 301 244v33q0 137 -103 187t-311 50q-47 0 -61 -0.5t-59 -2t-83 -3.5v-508z" />
<glyph unicode="C" d="M98 618v3v282q0 343 154.5 488t392.5 145q63 0 129.5 -14t123 -34t89.5 -38q21 -12 21 -33v-100q0 -13 -10 -18.5t-25 -0.5q-54 21 -155 45.5t-173 24.5q-360 0 -360 -465v-282q0 -170 45 -273.5t125 -148.5t190 -45q125 0 328 69q17 6 26 1t9 -19v-101q0 -20 -21 -32 q-33 -18 -89.5 -38t-123 -34t-129.5 -14q-238 0 -392.5 145t-154.5 487z" />
<glyph unicode="D" horiz-adv-x="1260" d="M129 57v1407q0 44 43 52q43 6 86 9.5t125 7t162 3.5q295 0 457.5 -157.5t162.5 -479.5v-276q0 -321 -163 -479t-457 -158q-40 0 -107 2t-121.5 5t-79.5 5.5t-65 7.5q-43 6 -43 51zM317 150q66 -5 228 -5q204 0 319 109t115 369v276q0 176 -54.5 282.5t-151.5 150.5 t-228 44q-126 0 -228 -6v-1220z" />
<glyph unicode="E" d="M129 367v788q0 199 108 290t328 91q102 0 221 -3t179 -9q20 -3 20 -29v-102q0 -25 -22 -25h-396q-108 0 -162 -20.5t-72 -65t-18 -127.5v-285h629q19 0 30 -11t11 -30v-77q0 -18 -12 -29.5t-29 -11.5h-629v-344q0 -83 18 -127.5t72 -65t162 -20.5h396q22 0 22 -25v-104 q0 -26 -20 -29q-97 -10 -400 -10q-145 0 -241.5 39t-145.5 124t-49 218z" />
<glyph unicode="F" d="M129 41v1114q0 199 108 290t328 91q102 0 221 -3t179 -9q20 -3 20 -29v-102q0 -25 -22 -25h-396q-108 0 -162 -20.5t-72 -65t-18 -127.5v-285h629q19 0 30 -11t11 -30v-77q0 -18 -12 -29.5t-29 -11.5h-629v-670q0 -18 -12 -29.5t-29 -11.5h-104q-17 0 -29 12t-12 29z" />
<glyph unicode="G" horiz-adv-x="1200" d="M96 623v274q0 180 47 304.5t126.5 197.5t177 105t204.5 32q109 0 224.5 -29t164.5 -57q21 -11 21 -33v-100q0 -31 -35 -19q-45 15 -104.5 30.5t-134.5 27.5t-136 12q-165 0 -266.5 -108t-101.5 -363v-274q0 -124 25.5 -212.5t74 -145.5t116 -84t154.5 -27q110 0 232 10 v586q0 16 10 28.5t27 12.5h110q15 0 27 -12t12 -29v-689q0 -18 -10 -30t-27 -15q-52 -8 -161 -19t-222 -11t-213 35t-177.5 111t-121 198.5t-43.5 292.5z" />
<glyph unicode="H" horiz-adv-x="1331" d="M129 41v1440q0 15 12 28t29 13h104q17 0 29 -12t12 -29v-594h701v594q0 15 12 28t29 13h104q17 0 29 -12t12 -29v-1440q0 -18 -12 -29.5t-29 -11.5h-104q-17 0 -29 12t-12 29v680h-701v-680q0 -18 -12 -29.5t-29 -11.5h-104q-17 0 -29 12t-12 29z" />
<glyph unicode="I" horiz-adv-x="477" d="M145 41v1442q0 15 11 27t26 12h113q15 0 26 -11t11 -28v-1442q0 -16 -10.5 -28.5t-26.5 -12.5h-113q-14 0 -25.5 11.5t-11.5 29.5z" />
<glyph unicode="J" horiz-adv-x="510" d="M-57 -254q0 35 41 35h79q79 0 105.5 32t26.5 111v1559q0 15 12 27t26 12h109q15 0 27 -12t12 -27v-1559q0 -149 -75 -221t-243 -72q-26 0 -62.5 6.5t-45.5 10.5q-12 6 -12 22v76z" />
<glyph unicode="K" horiz-adv-x="1196" d="M129 41v1442q0 16 11.5 27.5t27.5 11.5h108q16 0 27.5 -10.5t11.5 -28.5v-662l590 682q19 19 41 19h148q28 0 28 -23q0 -12 -8 -20l-616 -697l616 -737q10 -10 10 -25q0 -20 -26 -20h-160q-28 0 -45 20l-578 703v-682q0 -18 -10 -29.5t-26 -11.5h-113q-16 0 -26.5 11.5 t-10.5 29.5z" />
<glyph unicode="L" horiz-adv-x="1016" d="M129 367v1114q0 15 12 28t29 13h104q17 0 29 -12t12 -29v-1114q0 -83 18 -127.5t72 -65t162 -20.5h396q22 0 22 -25v-96q0 -26 -20 -29q-121 -18 -400 -18q-127 0 -222 27t-154.5 111.5t-59.5 242.5z" />
<glyph unicode="M" horiz-adv-x="1497" d="M129 41v1421q0 25 17.5 42.5t41.5 17.5h134q49 0 65 -35l338 -703q10 -22 25 -22q14 0 24 22l338 703q9 20 23 27.5t43 7.5h133q16 0 30 -8.5t21.5 -22t7.5 -29.5v-1421q0 -18 -12 -29.5t-29 -11.5h-100q-17 0 -29 12t-12 29v1214q0 7 -2 7t-4 -5l-256 -528 q-32 -69 -74 -99t-102 -30q-59 0 -100.5 28.5t-76.5 98.5l-256 530q-2 5 -4 5t-2 -7v-1214q0 -18 -12 -29.5t-29 -11.5h-100q-17 0 -29 12t-12 29z" />
<glyph unicode="N" horiz-adv-x="1331" d="M129 25v1439q0 24 17 41t42 17h113q41 0 56 -8.5t28 -32.5l629 -1196l4 -6q2 0 2 6v1198q0 16 10.5 27.5t26.5 11.5h108q17 0 27 -11t10 -28v-1424q0 -25 -18 -42t-41 -17h-127q-49 0 -66 33l-633 1202q-3 6 -6 6q-2 0 -2 -6v-1196q0 -16 -10.5 -27.5t-26.5 -11.5h-106 q-37 0 -37 25z" />
<glyph unicode="O" horiz-adv-x="1305" d="M98 629v264q0 165 41 288.5t116 202.5t175 115.5t223 36.5t223.5 -37t174.5 -115.5t114.5 -200.5t40.5 -290v-264q0 -167 -40 -289.5t-114 -201t-175.5 -115.5t-223.5 -37q-121 0 -222.5 37t-176.5 115.5t-115.5 202.5t-40.5 288zM287 629q0 -166 44 -272.5t125 -154.5 t197 -48q365 0 365 475v264q0 125 -25.5 218t-71.5 148t-113 82t-155 27q-366 0 -366 -475v-264z" />
<glyph unicode="P" horiz-adv-x="1165" d="M129 41v1427q0 46 49 52q141 16 340 16q173 0 301.5 -44t200.5 -143.5t72 -256.5v-27q0 -459 -574 -459q-70 0 -205 10v-575q0 -18 -10 -29.5t-27 -11.5h-110q-16 0 -26.5 11.5t-10.5 29.5zM313 770q11 0 36.5 -1.5t55 -2.5t62 -2.5t51.5 -1.5q139 0 224.5 31t124 98 t38.5 174v27q0 153 -92.5 219.5t-294.5 66.5q-107 0 -205 -8v-600z" />
<glyph unicode="Q" horiz-adv-x="1323" d="M98 629v264q0 165 41 288.5t116 202.5t175 115.5t223 36.5t223.5 -37t174.5 -115.5t114.5 -200.5t40.5 -290v-264q0 -398 -227 -553q13 -99 151 -99h121q43 0 43 -34v-60q0 -31 -38.5 -44t-125.5 -13q-125 0 -204 41t-115 135q-78 -16 -158 -16q-121 0 -222.5 37 t-176.5 115.5t-115.5 202.5t-40.5 288zM287 629q0 -166 44 -272.5t125 -154.5t197 -48q365 0 365 475v264q0 125 -25.5 218t-71.5 148t-113 82t-155 27q-366 0 -366 -475v-264z" />
<glyph unicode="R" horiz-adv-x="1235" d="M129 41v1434q0 40 49 45q37 4 109.5 8.5t142 6t109.5 1.5q170 0 298 -42.5t201.5 -141.5t73.5 -256v-15q0 -164 -87.5 -269t-233.5 -144l372 -623q6 -9 6 -18q0 -27 -26 -27h-131q-22 0 -31.5 4.5t-22.5 22.5l-366 610h-19h-34q-62 0 -226 6v-602q0 -18 -10 -29.5 t-27 -11.5h-110q-16 0 -26.5 11.5t-10.5 29.5zM313 801q180 -4 226 -4q132 0 216.5 25.5t128.5 88t44 170.5v15q0 99 -43 159.5t-128 86.5t-218 26q-177 0 -226 -6v-561z" />
<glyph unicode="S" horiz-adv-x="1087" d="M82 1174q0 119 55 201t157.5 121.5t240.5 39.5q109 0 213 -24.5t157 -49.5q16 -6 25.5 -14t9.5 -23v-104q0 -37 -39 -25q-71 23 -126.5 38t-118 24.5t-121.5 9.5q-138 0 -201.5 -43.5t-63.5 -150.5q0 -70 49.5 -121.5t174.5 -126.5l188 -113q176 -103 247.5 -198.5 t71.5 -219.5q0 -173 -112.5 -291t-376.5 -118q-98 0 -208 25t-181 59q-26 13 -32.5 22t-6.5 33v84q0 40 41 24q90 -31 197 -54t196 -23q104 0 169 29t92.5 82.5t27.5 127.5q0 77 -50 132.5t-194 142.5l-198 121q-148 90 -215.5 177.5t-67.5 205.5z" />
<glyph unicode="T" horiz-adv-x="1180" d="M57 1395v90q0 14 12.5 25.5t28.5 11.5h985q16 0 27.5 -10.5t11.5 -26.5v-90q0 -33 -39 -33h-399v-1321q0 -18 -10 -29.5t-27 -11.5h-112q-16 0 -26.5 11.5t-10.5 29.5v1321h-400q-41 0 -41 33z" />
<glyph unicode="U" horiz-adv-x="1294" d="M123 553v930q0 16 11.5 27.5t27.5 11.5h110q16 0 27.5 -10.5t11.5 -28.5v-930q0 -206 76 -307t260 -101q124 0 198.5 46t106 135.5t31.5 226.5v930q0 16 11.5 27.5t27.5 11.5h111q16 0 27 -11t11 -28v-930q0 -145 -34.5 -252t-103 -177.5t-164.5 -104t-222 -33.5 t-221.5 33.5t-163.5 104t-103.5 177.5t-35.5 252z" />
<glyph unicode="V" horiz-adv-x="1292" d="M57 1487q0 16 11.5 25.5t25.5 9.5h119q11 0 22.5 -9t14.5 -22l356 -1305q12 -43 41 -43q27 0 39 43l358 1305q10 31 35 31h121q35 0 35 -35q0 -8 -2 -12l-377 -1334q-24 -87 -81.5 -121t-127.5 -34q-165 0 -209 155l-379 1334q-2 4 -2 12z" />
<glyph unicode="W" horiz-adv-x="1663" d="M57 1481v6q0 15 10 25t25 10h119q29 0 35 -35l198 -1305q2 -11 3 -17.5t2.5 -9.5t5.5 -3q7 0 14 30l182 688q23 82 63.5 120t116.5 38t118.5 -39t62.5 -119l182 -688q7 -30 14 -30q5 0 7 9.5t4 20.5l198 1305q6 35 35 35h119q10 0 18 -4.5t12.5 -12.5t4.5 -18v-6 l-228 -1385q-10 -60 -41.5 -82t-85.5 -22h-88q-89 0 -116 102l-201 758q-5 18 -15 18q-9 0 -14 -18l-203 -758q-12 -46 -42.5 -74t-73.5 -28h-86q-54 0 -85.5 22t-41.5 82z" />
<glyph unicode="X" horiz-adv-x="1288" d="M76 31q0 11 6 20l455 723l-451 699q-6 9 -6 20q0 29 31 29h133q24 0 37 -21l368 -583l357 583q13 21 38 21h121q16 0 24.5 -8.5t8.5 -22.5q0 -9 -6 -18l-440 -703l460 -719q7 -8 7 -22q0 -12 -9.5 -20.5t-23.5 -8.5h-129q-16 0 -24 7t-19 24l-375 596l-367 -596 q-19 -31 -43 -31h-120q-33 0 -33 31z" />
<glyph unicode="Y" horiz-adv-x="1167" d="M57 1493q0 12 9.5 20.5t25.5 8.5h125q10 0 21.5 -9.5t15.5 -19.5l283 -664q23 -53 47 -53q23 0 47 53l284 664q15 29 35 29h125q16 0 25.5 -8t9.5 -21q0 -9 -6 -23l-318 -712q-47 -108 -110 -135v-582q0 -17 -11 -29t-26 -12h-113q-15 0 -26 12t-11 29v582 q-60 23 -110 135l-316 712q-6 14 -6 23z" />
<glyph unicode="Z" horiz-adv-x="1180" d="M92 139q0 73 31 119l733 1067q6 9 6 16q0 15 -20 15h-680q-17 0 -29 9.5t-12 25.5v96q0 15 12 25t29 10h729q92 0 133 -27.5t41 -108.5q0 -29 -8.5 -64t-24.5 -56l-731 -1067q-6 -9 -6 -19q0 -12 20 -12h736q17 0 29 -9.5t12 -25.5v-96q0 -16 -12.5 -26.5t-28.5 -10.5 h-789q-98 0 -134 29t-36 110z" />
<glyph unicode="[" horiz-adv-x="629" d="M131 -358v1841q0 15 10 27t25 12h381q15 0 28 -13t13 -28v-68q0 -15 -13 -28t-28 -13h-234v-1620h234q17 0 29 -12t12 -29v-67q0 -17 -13 -29t-28 -12h-381q-15 0 -25 12t-10 27z" />
<glyph unicode="\" horiz-adv-x="711" d="M39 1493q0 10 8 19.5t21 9.5h104q23 0 35 -41l465 -1440q2 -4 2 -12q0 -13 -8 -21t-21 -8h-104q-25 0 -37 41l-463 1440q-2 4 -2 12z" />
<glyph unicode="]" horiz-adv-x="629" d="M41 -289q0 17 11.5 29t29.5 12h233v1620h-233q-17 0 -29 13t-12 28v68q0 15 12 28t29 13h381q15 0 25 -12t10 -27v-1841q0 -15 -10 -27t-25 -12h-381q-17 0 -29 12t-12 29v67z" />
<glyph unicode="^" horiz-adv-x="1157" d="M166 1171q0 12 8 23l236 305q17 23 28.5 30t32.5 7h217q21 0 33.5 -7.5t28.5 -29.5l235 -305q8 -11 8 -23q0 -18 -22 -18h-123q-20 0 -28 6t-29 31l-211 246l-211 -246q-19 -23 -28.5 -30t-29.5 -7h-123q-22 0 -22 18z" />
<glyph unicode="_" horiz-adv-x="1036" d="M-49 -133q0 15 11.5 24t29.5 9h1055q40 0 40 -33v-68q0 -32 -40 -32h-1055q-41 0 -41 32v68z" />
<glyph unicode="`" horiz-adv-x="694" d="M66 1581q0 14 22 14h135q26 0 51 -30l199 -254q8 -8 8 -21q0 -14 -18 -14h-111q-10 0 -17 3t-13 9t-17 19l-231 258q-8 8 -8 16z" />
<glyph unicode="a" horiz-adv-x="1018" d="M80 324v18q0 115 48.5 188t157 108.5t287.5 35.5h152v82q0 128 -49 177.5t-170 49.5q-93 0 -159.5 -12.5t-153.5 -38.5q-21 -7 -34.5 1t-13.5 25v80q0 25 29 37q47 21 139.5 43.5t192.5 22.5q399 0 399 -385v-678q0 -38 -31 -45q-80 -23 -161.5 -35t-184.5 -12 q-239 0 -343.5 80.5t-104.5 257.5zM262 326q0 -72 22.5 -115.5t81 -63.5t162.5 -20q41 0 79 2.5t68.5 6.5t49.5 9v398h-152q-97 0 -155 -10.5t-92.5 -34.5t-49 -60.5t-14.5 -93.5v-18z" />
<glyph unicode="b" horiz-adv-x="1061" d="M113 68v1433q0 15 9.5 27t27.5 12h104q16 0 27.5 -11.5t11.5 -27.5v-381q52 11 114.5 16t124.5 5q113 0 196.5 -33.5t139.5 -96.5t83.5 -156t27.5 -216v-147q0 -238 -111 -372t-336 -134q-196 0 -376 34q-28 6 -35.5 15.5t-7.5 32.5zM293 156q150 -13 239 -13 q146 0 206.5 86.5t60.5 262.5v147q0 174 -61 259t-206 85q-161 0 -239 -14v-813z" />
<glyph unicode="c" horiz-adv-x="889" d="M82 483v160q0 155 48.5 266.5t147 171.5t240.5 60q84 0 158 -20.5t110 -41.5q18 -10 23.5 -17.5t5.5 -25.5v-73q0 -31 -25 -31q-9 0 -22 4q-133 47 -250 47q-256 0 -256 -340v-160q0 -169 65.5 -254.5t190.5 -85.5q117 0 250 47q13 5 23 5q24 0 24 -31v-74q0 -18 -6 -26 t-23 -17q-39 -21 -111.5 -41t-156.5 -20q-104 0 -187.5 34.5t-139 99.5t-82.5 155t-27 208z" />
<glyph unicode="d" horiz-adv-x="1061" d="M82 492v147q0 123 27.5 215.5t82.5 156t139.5 97t196.5 33.5q128 0 240 -21v381q0 16 11 27.5t28 11.5h104q17 0 27 -11t10 -28v-1433q0 -23 -8.5 -33t-34.5 -15q-180 -34 -377 -34q-148 0 -248.5 61.5t-149 176.5t-48.5 268zM262 492q0 -176 60.5 -262.5t205.5 -86.5 q88 0 240 13v813q-50 9 -107 11.5t-133 2.5q-144 0 -205 -86t-61 -258v-147z" />
<glyph unicode="e" horiz-adv-x="1073" d="M82 477v185q0 222 119.5 350.5t335.5 128.5q145 0 246.5 -58.5t152.5 -167.5t51 -253v-111q0 -45 -39 -45h-686v-29q0 -178 69.5 -256t215.5 -78q68 0 133.5 13t128 34.5t100.5 36.5q22 10 34.5 1.5t12.5 -27.5v-84q0 -21 -28 -37q-178 -94 -381 -94q-128 0 -232.5 45.5 t-168.5 155t-64 290.5zM262 643h543v19q0 113 -29.5 185t-88.5 104t-150 32q-275 0 -275 -321v-19z" />
<glyph unicode="f" horiz-adv-x="760" d="M41 1034v56q0 15 11.5 25.5t27.5 10.5h199v148q0 106 33 169t96 89.5t157 26.5q57 0 115 -13q39 -11 39 -33v-67q0 -31 -37 -31h-98q-74 0 -99.5 -29t-25.5 -112v-148h215q16 0 27.5 -10.5t11.5 -25.5v-80q0 -35 -39 -35h-215v-934q0 -16 -11.5 -28.5t-27.5 -12.5h-101 q-17 0 -28.5 12.5t-11.5 28.5v934l-199 22q-39 3 -39 37z" />
<glyph unicode="g" horiz-adv-x="1061" d="M82 489v150q0 171 50 282t152 165.5t255 54.5q161 0 366 -47q26 -5 34.5 -14.5t8.5 -32.5v-1047q0 -220 -110.5 -311.5t-329.5 -91.5q-107 0 -198.5 25t-137.5 52q-29 18 -29 47v68q0 18 13 27t34 0q104 -40 162.5 -56t155.5 -16q100 0 155 21t80 76.5t25 158.5v14 q-40 -10 -111 -19t-118 -9q-457 0 -457 503zM262 489q0 -130 30.5 -207t91.5 -111t155 -34q49 0 116 6.5t113 16.5v807q-121 22 -229 22q-76 0 -129.5 -19.5t-85.5 -61.5t-47 -108t-15 -161v-150z" />
<glyph unicode="h" horiz-adv-x="1087" d="M113 41v1458q0 18 11 29.5t28 11.5h102q18 0 28.5 -11.5t10.5 -29.5v-422q71 32 155.5 48t157.5 16q111 0 194 -44.5t129 -141t46 -240.5v-674q0 -17 -13 -29t-28 -12h-98q-17 0 -29 12t-12 29v674q0 148 -56.5 208t-163.5 60q-56 0 -139 -14.5t-143 -42.5v-885 q0 -16 -12.5 -28.5t-28.5 -12.5h-100q-15 0 -27 12t-12 29z" />
<glyph unicode="i" horiz-adv-x="444" d="M129 1348v163q0 17 11.5 29t29.5 12h104q19 0 30 -11t11 -30v-163q0 -18 -12 -29.5t-29 -11.5h-104q-17 0 -29 12t-12 29zM131 41v1044q0 17 12 29t29 12h98q19 0 30 -11t11 -30v-1044q0 -18 -12 -29.5t-29 -11.5h-98q-15 0 -28 12t-13 29z" />
<glyph unicode="j" horiz-adv-x="444" d="M-92 -287q0 29 43 29h84q59 0 77.5 24.5t18.5 102.5v1216q0 16 10 28.5t27 12.5h106q18 0 27.5 -11t9.5 -30v-1216q0 -152 -63 -212t-193 -60q-55 0 -110 8q-37 5 -37 33v75zM129 1346v165q0 16 11.5 28.5t29.5 12.5h104q18 0 29.5 -11.5t11.5 -29.5v-165 q0 -17 -11.5 -28t-29.5 -11h-104q-15 0 -28 11t-13 28z" />
<glyph unicode="k" horiz-adv-x="975" d="M113 41v1458q0 17 11.5 29t29.5 12h98q17 0 29 -12t12 -29v-852l409 461q17 18 41 18h144q31 0 31 -22q0 -12 -11 -23l-450 -487l454 -549q7 -7 7 -18q0 -27 -23 -27h-147q-15 0 -23.5 5t-24.5 22l-407 503v-489q0 -17 -13 -29t-28 -12h-98q-17 0 -29 12t-12 29z" />
<glyph unicode="l" horiz-adv-x="438" d="M129 41v1460q0 15 9.5 27t27.5 12h106q17 0 27 -11t10 -28v-1460q0 -18 -10 -29.5t-27 -11.5h-106q-16 0 -26.5 11.5t-10.5 29.5z" />
<glyph unicode="m" horiz-adv-x="1581" d="M113 41v987q0 41 37 49q133 34 230.5 49t180.5 15q71 0 135.5 -20.5t100.5 -61.5q178 84 340 84q98 0 171.5 -36t116.5 -120t43 -221v-725q0 -18 -12 -29.5t-29 -11.5h-98q-15 0 -28 12t-13 29v725q0 121 -49 170t-137 49q-98 0 -240 -55q19 -71 19 -160v-729 q0 -16 -10.5 -28.5t-26.5 -12.5h-109q-15 0 -25 12t-10 29v729q0 86 -17 133.5t-50.5 64.5t-89.5 17q-119 0 -250 -35v-909q0 -18 -10 -29.5t-27 -11.5h-109q-14 0 -24 12t-10 29z" />
<glyph unicode="n" horiz-adv-x="1087" d="M113 41v987q0 38 37 49q249 64 423 64q115 0 194.5 -28.5t124 -82.5t64 -131.5t19.5 -185.5v-672q0 -17 -13 -29t-28 -12h-98q-17 0 -29 12t-12 29v672q0 102 -24.5 162t-77 86t-136.5 26q-126 0 -264 -37v-909q0 -16 -12.5 -28.5t-28.5 -12.5h-100q-15 0 -27 12t-12 29z " />
<glyph unicode="o" d="M82 485v156q0 231 117.5 365.5t337.5 134.5q221 0 338.5 -134.5t117.5 -365.5v-156q0 -230 -117.5 -364.5t-338.5 -134.5q-220 0 -337.5 134.5t-117.5 364.5zM262 485q0 -342 275 -342q139 0 207.5 89t68.5 253v156q0 107 -29.5 183.5t-91 117.5t-155.5 41 q-139 0 -207 -89.5t-68 -252.5v-156z" />
<glyph unicode="p" horiz-adv-x="1061" d="M113 -362v1409q0 21 9 31t34 16q51 13 117.5 24t131 17t127.5 6q149 0 249 -61.5t149 -175.5t49 -269v-148q0 -243 -113 -372t-334 -129q-113 0 -239 22v-370q0 -16 -11.5 -27.5t-27.5 -11.5h-104q-17 0 -27 11t-10 28zM293 158q108 -21 239 -21q144 0 205.5 88t61.5 262 v148q0 112 -25 190t-84.5 121t-157.5 43q-125 0 -239 -20v-811z" />
<glyph unicode="q" horiz-adv-x="1061" d="M82 487v148q0 116 27 209t83 160.5t138.5 102t197.5 34.5q182 0 377 -47q26 -5 34.5 -14.5t8.5 -32.5v-1409q0 -17 -10 -28t-27 -11h-104q-16 0 -27.5 11.5t-11.5 27.5v370q-123 -22 -240 -22q-111 0 -194.5 33t-139.5 97.5t-84 157t-28 213.5zM262 487q0 -172 61.5 -261 t204.5 -89q130 0 240 21v811q-44 7 -68.5 10t-75.5 6.5t-96 3.5q-144 0 -205 -90.5t-61 -263.5v-148z" />
<glyph unicode="r" horiz-adv-x="743" d="M113 41v991q0 38 37 49q117 33 209.5 47.5t177.5 14.5q81 0 139 -10q22 -4 28.5 -13.5t6.5 -29.5v-74q0 -21 -8 -28.5t-31 -6.5q-70 4 -135 4q-128 0 -244 -31v-913q0 -16 -12.5 -28.5t-28.5 -12.5h-100q-15 0 -27 12t-12 29z" />
<glyph unicode="s" horiz-adv-x="913" d="M82 862q0 106 55 167.5t142 86.5t194 25q83 0 165.5 -18t121.5 -40q16 -9 22 -14.5t6 -21.5v-84q0 -18 -12.5 -26.5t-34.5 -0.5q-57 22 -132.5 36.5t-135.5 14.5q-96 0 -153.5 -24t-57.5 -99q0 -52 33 -88.5t108 -75.5l203 -104q86 -44 135 -89t69.5 -94t20.5 -110 q0 -105 -52 -176.5t-143 -106t-208 -34.5q-89 0 -174.5 20.5t-132.5 44.5q-29 15 -29 37v84q0 18 13 27t34 0q153 -60 289 -60q223 0 223 156q0 48 -32 82t-121 80l-207 106q-102 54 -155.5 126t-53.5 173z" />
<glyph unicode="t" horiz-adv-x="768" d="M41 1034v56q0 36 39 36h199v201q0 34 36 41l107 16h6q14 0 22.5 -9.5t8.5 -24.5v-224h221q17 0 29 -12t12 -29v-69q0 -17 -13 -29t-28 -12h-221v-715q0 -82 23 -105.5t87 -23.5h115q43 0 43 -29v-71q0 -30 -37 -35q-68 -10 -133 -10q-150 0 -214 56.5t-64 217.5v715 l-199 22q-39 3 -39 37z" />
<glyph unicode="u" horiz-adv-x="1087" d="M113 414v671q0 17 11.5 29t29.5 12h98q17 0 29 -12t12 -29v-671q0 -151 55.5 -213t181.5 -62q47 0 127 11t138 26v909q0 16 11.5 28.5t29.5 12.5h100q17 0 28 -12t11 -29v-987q0 -38 -37 -49q-246 -63 -424 -63q-151 0 -240 50t-125 143.5t-36 234.5z" />
<glyph unicode="v" horiz-adv-x="1057" d="M66 1092q0 16 8.5 25t23.5 9h113q27 0 39 -39l235 -892q11 -38 20 -49t23 -11t24 12t19 48l236 892q12 39 39 39h112q17 0 25 -9t8 -25q0 -9 -2 -15l-276 -975q-18 -64 -64.5 -90t-120.5 -26q-72 0 -118 25.5t-66 90.5l-276 975q-2 6 -2 15z" />
<glyph unicode="w" horiz-adv-x="1581" d="M63 1077v8q0 17 11 29t28 12h111q13 0 23 -9.5t12 -22.5l170 -934q4 -25 16 -25q10 0 17 25l200 786q18 62 82 62h115q65 0 82 -62l200 -786q7 -25 17 -25q12 0 16 25l170 934q2 13 12.5 22.5t22.5 9.5h111q17 0 28 -12t11 -29v-8l-199 -950q-14 -68 -30 -95.5t-45 -36.5 t-97 -9q-56 0 -85.5 10t-47.5 40.5t-35 96.5l-178 696q-4 15 -10 15q-5 0 -6.5 -2.5t-4.5 -12.5l-178 -696q-23 -89 -55.5 -118t-112.5 -29q-64 0 -95 9t-47 36.5t-30 95.5z" />
<glyph unicode="x" horiz-adv-x="1090" d="M66 20q0 15 10 27l368 526l-348 502q-10 17 -10 27q0 24 31 24h133q22 0 41 -28l260 -385l262 385q13 19 20.5 23.5t22.5 4.5h119q26 0 26 -24q0 -10 -10 -27l-344 -489l375 -539q8 -11 8 -24q0 -23 -26 -23h-142q-17 0 -28 16l-293 428l-293 -424q-13 -20 -35 -20h-123 q-24 0 -24 20z" />
<glyph unicode="y" horiz-adv-x="1065" d="M66 1092q0 34 36 34h113q12 0 22 -10t13 -22l242 -889q11 -45 38 -45h33l250 936q3 13 14 21.5t25 8.5h115q32 0 32 -34q0 -11 -2 -15l-338 -1179q-33 -117 -75 -181t-112 -93.5t-187 -29.5q-90 0 -172 19q-43 10 -43 33v75q0 33 39 33h6q135 -12 182 -12 q91 0 134.5 35.5t68.5 138.5l20 84h-28q-55 0 -90 26t-62 115l-272 936q-2 4 -2 15z" />
<glyph unicode="z" horiz-adv-x="948" d="M82 113v39q0 42 10.5 70.5t36.5 62.5l528 657q9 11 9 19q0 14 -21 14h-498q-15 0 -28 12t-13 29v69q0 17 12 29t29 12h603q114 0 114 -100v-49q0 -57 -47 -113l-538 -674q-11 -10 -11 -22q0 -16 17 -16h540q17 0 29 -12t12 -29v-70q0 -18 -12 -29.5t-29 -11.5h-618 q-61 0 -93 32.5t-32 80.5z" />
<glyph unicode="{" horiz-adv-x="659" d="M33 502v119q73 52 98 105.5t25 147.5v365q0 111 26.5 171.5t93 86t193.5 25.5h102q17 0 29 -12t12 -29v-68q0 -17 -12 -29t-29 -12h-92q-90 0 -115.5 -25t-25.5 -108v-365q0 -110 -33 -185t-112 -130q79 -56 112 -129t33 -184v-361q0 -45 5.5 -69t19.5 -38t43 -20t73 -6 h94q19 0 30 -11.5t11 -29.5v-67q0 -19 -12 -30t-29 -11h-104q-127 0 -194 25.5t-93 85.5t-26 171v361q0 97 -25.5 151t-97.5 105z" />
<glyph unicode="|" horiz-adv-x="872" d="M0 587q0 255 246 477l5 -5v-56q-156 -187 -156 -386q0 -361 492 -441q105 -20 266 -20q552 0 1023 250l5 -5v-160q-95 -75 -386 -156q-301 -85 -617 -85h-10q-694 0 -848 431q-20 97 -20 156zM331 597v346l10 10h100l11 -10v-446l-6 -5v-5q-115 23 -115 110zM331 1023v96 l10 10h100l11 -10v-96l-11 -10h-100zM492 1184v35q108 85 401 186q309 90 577 90q648 -19 773 -386q20 -62 20 -126v-25q0 -236 -236 -411q-77 -50 -106 -50v120q221 158 221 341v35q0 266 -396 387q-153 30 -296 30h-20q-461 0 -933 -231zM552 502v441l10 10h241 q130 0 130 -170v-281l-10 -10h-105l-10 10v331q-13 25 -40 25h-96v-356l-10 -10h-100zM1013 627v442l10 10h101l10 -10v-116h75l10 -10v-75l-10 -10h-75v-226q0 -26 20 -35h55l10 -10v-85l-10 -10h-45q-151 0 -151 135zM1244 727q24 236 216 236q137 0 186 -135 q15 -53 15 -106v-25l-10 -10h-286q0 -100 110 -100q49 0 95 40h5l71 -65q-67 -75 -156 -75h-45q-153 0 -196 180zM1365 768h175v5q-11 90 -80 90h-5q-80 0 -90 -95zM1721 637v497l10 10h105l10 -10v-627l-10 -10q-103 0 -115 140zM1911 1107q0 14 7 26t19 19t27 7 q14 0 25 -7t18.5 -19t7.5 -26q0 -15 -7.5 -26.5t-19 -18.5t-24.5 -7q-15 0 -27 7t-19 18.5t-7 26.5zM1923 1107q0 -12 5.5 -21t14.5 -14.5t21 -5.5q11 0 20 5.5t14.5 14.5t5.5 21q0 17 -12 29t-28 12q-17 0 -29 -12t-12 -29zM1941 1081v52q0 3 4 5h17q25 0 25 -18 q0 -14 -12 -18l13 -20v-3t-3 -2h-8q-2 0 -3 3l-11 20h-9v-19q0 -4 -2 -4h-7q-4 0 -4 4zM1954 1110h6q8 0 11 2t3 7q0 10 -14 10h-6v-19z" />
<glyph unicode="}" horiz-adv-x="659" d="M45 -289q0 17 11.5 29t29.5 12h94q90 0 116 25.5t26 107.5v361q0 74 14 129.5t46 101t85 82.5q-81 56 -113 130.5t-32 184.5v365q0 83 -26 108t-116 25h-92q-15 0 -28 13t-13 28v68q0 15 13 28t28 13h102q128 0 194 -25.5t93 -85.5t27 -172v-365q0 -93 25.5 -147.5 t97.5 -105.5v-119q-72 -51 -97.5 -105.5t-25.5 -150.5v-361q0 -112 -26.5 -171.5t-93 -85t-194.5 -25.5h-104q-17 0 -29 12t-12 29v67z" />
<glyph unicode="~" horiz-adv-x="1167" d="M147 760v53q0 133 60 201.5t172 68.5q82 0 156 -57q107 -88 174 -139q22 -18 46 -29.5t38 -11.5q51 0 64 22.5t13 87.5v58q0 18 13.5 31.5t31.5 13.5h60q13 0 23 -6t16 -16t6 -23v-58q0 -134 -53.5 -200t-173.5 -66q-83 0 -158 58l-160 126q-39 33 -58 44.5t-38 11.5 q-51 0 -66.5 -28t-15.5 -89v-53q0 -20 -13.5 -32.5t-31.5 -12.5h-59q-19 0 -32.5 12.5t-13.5 32.5z" />
<glyph unicode="&#xa8;" horiz-adv-x="1024" />
<glyph unicode="&#xa9;" horiz-adv-x="713" d="M66 1245q0 81 40.5 151t110.5 111t152 41q81 0 150 -40.5t111 -110.5t42 -152q0 -84 -42 -153.5t-111.5 -109.5t-149.5 -40q-81 0 -151.5 40t-111 110t-40.5 153zM133 1245q0 -66 31 -120t84.5 -85.5t120.5 -31.5q66 0 119 31t84.5 85t31.5 121q0 97 -68.5 167.5 t-166.5 70.5q-99 0 -167.5 -70.5t-68.5 -167.5zM215 1241v16q0 179 154 179q54 0 94 -21q14 -7 14 -24v-21q0 -28 -26 -18q-66 14 -82 14q-40 0 -59 -25.5t-19 -83.5v-16q0 -59 19.5 -83.5t58.5 -24.5q16 0 31.5 2.5t30 6.5t20.5 5q26 10 26 -19v-20q0 -17 -14 -25 q-38 -20 -94 -20q-154 0 -154 178z" />
<glyph unicode="&#xad;" horiz-adv-x="645" d="M80 551v96q0 17 11 27t28 10h407q39 0 39 -37v-96q0 -35 -39 -35h-407q-39 0 -39 35z" />
<glyph unicode="&#xae;" horiz-adv-x="713" d="M66 1245q0 81 40.5 151t110.5 111t152 41q81 0 150 -40.5t111 -110.5t42 -152q0 -84 -42 -153.5t-111.5 -109.5t-149.5 -40q-81 0 -151.5 40t-111 110t-40.5 153zM133 1245q0 -66 31 -120t84.5 -85.5t120.5 -31.5q66 0 119 31t84.5 85t31.5 121q0 97 -68.5 167.5 t-166.5 70.5q-99 0 -167.5 -70.5t-68.5 -167.5zM242 1098v299q0 22 22 26q38 4 96 4q146 0 146 -108q0 -76 -68 -100l70 -115q7 -10 4.5 -18.5t-12.5 -8.5h-51q-12 0 -19 13l-68 116h-45v-108q0 -21 -20 -21h-37q-18 0 -18 21zM315 1264h37q44 0 62 11t18 42q0 53 -80 53 h-37v-106z" />
<glyph unicode="&#xb4;" horiz-adv-x="1024" />
<glyph unicode="&#xb6;" horiz-adv-x="1024" d="M93 1086q0 157 107.5 253t285.5 96h443v-70h-127v-1365h-82v1365h-166v-1365h-84v738q-174 8 -275.5 102.5t-101.5 245.5z" />
<glyph unicode="&#xbc;" horiz-adv-x="1493" d="M70 1331v86q0 15 16 23l147 67q31 15 54 15h65q27 0 27 -25v-790q0 -27 -25 -27h-92q-22 0 -22 27v673l-144 -63q-26 -13 -26 14zM195 12q0 3 8 27l850 1442q15 25 24.5 33t26.5 8h104q21 0 21 -17q0 -8 -10 -28l-852 -1442q-14 -24 -24 -33.5t-26 -9.5h-100 q-22 0 -22 20zM834 236v88q0 36 12 53l319 450q11 15 29 15h90q29 0 29 -27v-489h78q11 0 19.5 -7.5t8.5 -19.5v-63q0 -27 -28 -27h-78v-178q0 -11 -8 -21t-19 -10h-86q-26 0 -26 31v178h-312q-28 0 -28 27zM967 342q-12 -16 6 -16h201v301q0 4 -3 4t-6 -4z" />
<glyph unicode="&#xbd;" horiz-adv-x="1507" d="M70 1327v90q0 15 16 23l147 67q31 15 54 15h65q27 0 27 -25v-790q0 -27 -25 -27h-92q-22 0 -22 27v673l-144 -63q-10 -5 -18 -2.5t-8 12.5zM195 12q0 3 8 27l850 1442q15 25 24.5 33t26.5 8h104q21 0 21 -17q0 -8 -10 -28l-852 -1442q-14 -24 -24 -33.5t-26 -9.5h-100 q-22 0 -22 20zM909 29v82q0 103 42.5 177t142.5 142l112 76q51 35 68.5 62.5t17.5 66.5q0 53 -29.5 71.5t-103.5 18.5t-209 -37q-28 -8 -28 23v51q0 24 20 35q113 51 234 51q80 0 137.5 -20.5t89 -64.5t31.5 -110q0 -49 -17 -91t-52.5 -80.5t-86.5 -73.5l-104 -74 q-58 -41 -86 -71.5t-37 -59.5t-9 -72v-6h355q13 0 21.5 -6.5t8.5 -18.5v-75q0 -12 -8.5 -18.5t-21.5 -6.5h-459q-11 0 -20 8t-9 21z" />
<glyph unicode="&#xbe;" horiz-adv-x="1655" d="M70 756v51q0 32 28 22q41 -11 93 -18.5t96 -7.5q86 0 124 29t38 92v22q0 121 -119 121h-203q-11 0 -20 8t-9 19v63q0 27 29 27h199q74 0 98.5 31.5t24.5 80.5v13q0 104 -162 104q-94 0 -189 -27q-28 -8 -28 23v51q0 25 20 35q87 41 211 41q137 0 211 -50t74 -165v-14 q0 -118 -94 -183q92 -60 92 -178v-22q0 -116 -79 -179t-212 -65q-116 0 -203 41q-20 10 -20 35zM328 12q0 3 8 27l850 1442q15 25 24.5 33t26.5 8h104q21 0 21 -17q0 -8 -10 -28l-852 -1442q-14 -24 -24 -33.5t-25 -9.5h-101q-22 0 -22 20zM993 236v88q0 36 13 53l319 450 q10 15 29 15h90q29 0 29 -27v-489h77q12 0 20.5 -7.5t8.5 -19.5v-63q0 -27 -29 -27h-77v-178q0 -11 -8 -21t-19 -10h-86q-27 0 -27 31v178h-311q-29 0 -29 27zM1126 342q-11 -16 7 -16h200v301q0 4 -2.5 4t-5.5 -4z" />
<glyph unicode="&#xc0;" horiz-adv-x="1276" d="M49 33q0 10 2 14l379 1333q25 87 83 121.5t126 34.5q44 0 84 -13.5t73 -48t50 -92.5l379 -1335q2 -4 2 -14q0 -33 -35 -33h-121q-28 0 -35 31l-133 471h-530l-131 -471q-3 -13 -15 -22t-22 -9h-121q-14 0 -24.5 9.5t-10.5 23.5zM363 1932q0 14 22 14h135q26 0 51 -30 l199 -254q8 -8 8 -21q0 -14 -18 -14h-111q-10 0 -17 3t-13 9t-17 19l-231 258q-8 8 -8 16zM412 664h452l-186 673q-10 37 -39 37q-31 0 -41 -37z" />
<glyph unicode="&#xc1;" horiz-adv-x="1276" d="M49 33q0 10 2 14l379 1333q25 87 83 121.5t126 34.5q44 0 84 -13.5t73 -48t50 -92.5l379 -1335q2 -4 2 -14q0 -33 -35 -33h-121q-28 0 -35 31l-133 471h-530l-131 -471q-3 -13 -15 -22t-22 -9h-121q-14 0 -24.5 9.5t-10.5 23.5zM412 664h452l-186 673q-10 37 -39 37 q-31 0 -41 -37zM534 1641q0 13 8 21l201 254q16 20 24 25t25 5h135q23 0 23 -14q0 -8 -8 -16l-232 -258q-18 -20 -25 -25.5t-22 -5.5h-111q-18 0 -18 14z" />
<glyph unicode="&#xc2;" horiz-adv-x="1276" d="M49 33q0 10 2 14l379 1333q25 87 83 121.5t126 34.5q44 0 84 -13.5t73 -48t50 -92.5l379 -1335q2 -4 2 -14q0 -33 -35 -33h-121q-28 0 -35 31l-133 471h-530l-131 -471q-3 -13 -15 -22t-22 -9h-121q-14 0 -24.5 9.5t-10.5 23.5zM307 1641q0 13 8 21l197 254q16 20 24 25 t25 5h174q26 0 51 -30l195 -254q8 -8 8 -21q0 -14 -19 -14h-106q-15 0 -22 5.5t-25 25.5l-168 198l-170 -198q-17 -19 -25 -25t-22 -6h-107q-18 0 -18 14zM412 664h452l-186 673q-10 37 -39 37q-31 0 -41 -37z" />
<glyph unicode="&#xc3;" horiz-adv-x="1276" d="M49 33q0 10 2 14l379 1333q25 87 83 121.5t126 34.5q44 0 84 -13.5t73 -48t50 -92.5l379 -1335q2 -4 2 -14q0 -33 -35 -33h-121q-28 0 -35 31l-133 471h-530l-131 -471q-3 -13 -15 -22t-22 -9h-121q-14 0 -24.5 9.5t-10.5 23.5zM280 1667v43q0 109 51.5 166t143.5 57 q60 0 123 -49l145 -114q20 -14 39 -21.5t33 -7.5q32 0 46.5 20t14.5 70v47q0 14 10.5 24.5t24.5 10.5h64q13 0 23 -11t10 -24v-47q0 -108 -46 -161.5t-147 -53.5q-76 0 -131 43l-125 100q-34 29 -49.5 37t-34.5 8q-35 0 -49 -23t-14 -71v-43q0 -15 -10 -25t-25 -10h-64 q-14 0 -23.5 10.5t-9.5 24.5zM412 664h452l-186 673q-10 37 -39 37q-31 0 -41 -37z" />
<glyph unicode="&#xc8;" d="M129 367v788q0 199 108 290t328 91q102 0 221 -3t179 -9q20 -3 20 -29v-102q0 -25 -22 -25h-396q-108 0 -162 -20.5t-72 -65t-18 -127.5v-285h629q19 0 30 -11t11 -30v-77q0 -18 -12 -29.5t-29 -11.5h-629v-344q0 -83 18 -127.5t72 -65t162 -20.5h396q22 0 22 -25v-104 q0 -26 -20 -29q-97 -10 -400 -10q-145 0 -241.5 39t-145.5 124t-49 218zM292 1930q0 14 22 14h135q26 0 51 -30l199 -254q8 -8 8 -21q0 -14 -18 -14h-111q-10 0 -17 3t-13 9t-17 19l-231 258q-8 8 -8 16z" />
<glyph unicode="&#xc9;" d="M129 367v788q0 199 108 290t328 91q102 0 221 -3t179 -9q20 -3 20 -29v-102q0 -25 -22 -25h-396q-108 0 -162 -20.5t-72 -65t-18 -127.5v-285h629q19 0 30 -11t11 -30v-77q0 -18 -12 -29.5t-29 -11.5h-629v-344q0 -83 18 -127.5t72 -65t162 -20.5h396q22 0 22 -25v-104 q0 -26 -20 -29q-97 -10 -400 -10q-145 0 -241.5 39t-145.5 124t-49 218zM446 1641q0 13 8 21l201 254q16 20 24 25t25 5h135q23 0 23 -14q0 -8 -8 -16l-232 -258q-18 -20 -25 -25.5t-22 -5.5h-111q-18 0 -18 14z" />
<glyph unicode="&#xca;" d="M129 367v788q0 199 108 290t328 91q102 0 221 -3t179 -9q20 -3 20 -29v-102q0 -25 -22 -25h-396q-108 0 -162 -20.5t-72 -65t-18 -127.5v-285h629q19 0 30 -11t11 -30v-77q0 -18 -12 -29.5t-29 -11.5h-629v-344q0 -83 18 -127.5t72 -65t162 -20.5h396q22 0 22 -25v-104 q0 -26 -20 -29q-97 -10 -400 -10q-145 0 -241.5 39t-145.5 124t-49 218zM221 1641q0 13 8 21l197 254q16 20 24 25t25 5h174q26 0 51 -30l195 -254q8 -8 8 -21q0 -14 -19 -14h-106q-15 0 -22 5.5t-25 25.5l-168 198l-170 -198q-17 -19 -25 -25t-22 -6h-107q-18 0 -18 14z " />
<glyph unicode="&#xcc;" horiz-adv-x="477" d="M-42 1932q0 14 22 14h135q26 0 51 -30l199 -254q8 -8 8 -21q0 -14 -18 -14h-111q-10 0 -17 3t-13 9t-17 19l-231 258q-8 8 -8 16zM145 41v1442q0 15 11 27t26 12h113q15 0 26 -11t11 -28v-1442q0 -16 -10.5 -28.5t-26.5 -12.5h-113q-14 0 -25.5 11.5t-11.5 29.5z" />
<glyph unicode="&#xcd;" horiz-adv-x="477" d="M108 1641q0 13 8 21l201 254q16 20 24 25t25 5h135q23 0 23 -14q0 -8 -8 -16l-232 -258q-18 -20 -25 -25.5t-22 -5.5h-111q-18 0 -18 14zM145 41v1442q0 15 11 27t26 12h113q15 0 26 -11t11 -28v-1442q0 -16 -10.5 -28.5t-26.5 -12.5h-113q-14 0 -25.5 11.5t-11.5 29.5z " />
<glyph unicode="&#xd2;" horiz-adv-x="1305" d="M98 629v264q0 165 41 288.5t116 202.5t175 115.5t223 36.5t223.5 -37t174.5 -115.5t114.5 -200.5t40.5 -290v-264q0 -167 -40 -289.5t-114 -201t-175.5 -115.5t-223.5 -37q-121 0 -222.5 37t-176.5 115.5t-115.5 202.5t-40.5 288zM287 629q0 -166 44 -272.5t125 -154.5 t197 -48q365 0 365 475v264q0 125 -25.5 218t-71.5 148t-113 82t-155 27q-366 0 -366 -475v-264zM373 1932q0 14 22 14h135q26 0 51 -30l199 -254q8 -8 8 -21q0 -14 -18 -14h-111q-10 0 -17 3t-13 9t-17 19l-231 258q-8 8 -8 16z" />
<glyph unicode="&#xd3;" horiz-adv-x="1305" d="M98 629v264q0 165 41 288.5t116 202.5t175 115.5t223 36.5t223.5 -37t174.5 -115.5t114.5 -200.5t40.5 -290v-264q0 -167 -40 -289.5t-114 -201t-175.5 -115.5t-223.5 -37q-121 0 -222.5 37t-176.5 115.5t-115.5 202.5t-40.5 288zM287 629q0 -166 44 -272.5t125 -154.5 t197 -48q365 0 365 475v264q0 125 -25.5 218t-71.5 148t-113 82t-155 27q-366 0 -366 -475v-264zM495 1641q0 13 8 21l201 254q16 20 24 25t25 5h135q23 0 23 -14q0 -8 -8 -16l-232 -258q-18 -20 -25 -25.5t-22 -5.5h-111q-18 0 -18 14z" />
<glyph unicode="&#xd4;" horiz-adv-x="1305" d="M98 629v264q0 165 41 288.5t116 202.5t175 115.5t223 36.5t223.5 -37t174.5 -115.5t114.5 -200.5t40.5 -290v-264q0 -167 -40 -289.5t-114 -201t-175.5 -115.5t-223.5 -37q-121 0 -222.5 37t-176.5 115.5t-115.5 202.5t-40.5 288zM287 629q0 -166 44 -272.5t125 -154.5 t197 -48q365 0 365 475v264q0 125 -25.5 218t-71.5 148t-113 82t-155 27q-366 0 -366 -475v-264zM311 1643q0 13 8 21l197 254q16 20 24 25t25 5h174q26 0 51 -30l195 -254q8 -8 8 -21q0 -14 -19 -14h-106q-15 0 -22 5.5t-25 25.5l-168 198l-170 -198q-17 -19 -25 -25 t-22 -6h-107q-18 0 -18 14z" />
<glyph unicode="&#xd5;" horiz-adv-x="1305" d="M98 629v264q0 165 41 288.5t116 202.5t175 115.5t223 36.5t223.5 -37t174.5 -115.5t114.5 -200.5t40.5 -290v-264q0 -167 -40 -289.5t-114 -201t-175.5 -115.5t-223.5 -37q-121 0 -222.5 37t-176.5 115.5t-115.5 202.5t-40.5 288zM287 629q0 -166 44 -272.5t125 -154.5 t197 -48q365 0 365 475v264q0 125 -25.5 218t-71.5 148t-113 82t-155 27q-366 0 -366 -475v-264zM294 1667v43q0 109 51.5 166t143.5 57q60 0 123 -49l145 -114q20 -14 39 -21.5t33 -7.5q32 0 46.5 20t14.5 70v47q0 14 10.5 24.5t24.5 10.5h64q13 0 23 -11t10 -24v-47 q0 -108 -46 -161.5t-147 -53.5q-76 0 -131 43l-125 100q-34 29 -49.5 37t-34.5 8q-35 0 -49 -23t-14 -71v-43q0 -15 -10 -25t-25 -10h-64q-14 0 -23.5 10.5t-9.5 24.5z" />
<glyph unicode="&#xd9;" horiz-adv-x="1294" d="M123 553v930q0 16 11.5 27.5t27.5 11.5h110q16 0 27.5 -10.5t11.5 -28.5v-930q0 -206 76 -307t260 -101q124 0 198.5 46t106 135.5t31.5 226.5v930q0 16 11.5 27.5t27.5 11.5h111q16 0 27 -11t11 -28v-930q0 -145 -34.5 -252t-103 -177.5t-164.5 -104t-222 -33.5 t-221.5 33.5t-163.5 104t-103.5 177.5t-35.5 252zM351 1932q0 14 22 14h135q26 0 51 -30l199 -254q8 -8 8 -21q0 -14 -18 -14h-111q-10 0 -17 3t-13 9t-17 19l-231 258q-8 8 -8 16z" />
<glyph unicode="&#xda;" horiz-adv-x="1294" d="M123 553v930q0 16 11.5 27.5t27.5 11.5h110q16 0 27.5 -10.5t11.5 -28.5v-930q0 -206 76 -307t260 -101q124 0 198.5 46t106 135.5t31.5 226.5v930q0 16 11.5 27.5t27.5 11.5h111q16 0 27 -11t11 -28v-930q0 -145 -34.5 -252t-103 -177.5t-164.5 -104t-222 -33.5 t-221.5 33.5t-163.5 104t-103.5 177.5t-35.5 252zM534 1641q0 13 8 21l201 254q16 20 24 25t25 5h135q23 0 23 -14q0 -8 -8 -16l-232 -258q-18 -20 -25 -25.5t-22 -5.5h-111q-18 0 -18 14z" />
<glyph unicode="&#xdd;" horiz-adv-x="1167" d="M57 1493q0 12 9.5 20.5t25.5 8.5h125q10 0 21.5 -9.5t15.5 -19.5l283 -664q23 -53 47 -53q23 0 47 53l284 664q15 29 35 29h125q16 0 25.5 -8t9.5 -21q0 -9 -6 -23l-318 -712q-47 -108 -110 -135v-582q0 -17 -11 -29t-26 -12h-113q-15 0 -26 12t-11 29v582 q-60 23 -110 135l-316 712q-6 14 -6 23zM494 1641q0 13 8 21l201 254q16 20 24 25t25 5h135q23 0 23 -14q0 -8 -8 -16l-232 -258q-18 -20 -25 -25.5t-22 -5.5h-111q-18 0 -18 14z" />
<glyph unicode="&#xe0;" horiz-adv-x="1018" d="M80 324v18q0 115 48.5 188t157 108.5t287.5 35.5h152v82q0 128 -49 177.5t-170 49.5q-93 0 -159.5 -12.5t-153.5 -38.5q-21 -7 -34.5 1t-13.5 25v80q0 25 29 37q47 21 139.5 43.5t192.5 22.5q399 0 399 -385v-678q0 -38 -31 -45q-80 -23 -161.5 -35t-184.5 -12 q-239 0 -343.5 80.5t-104.5 257.5zM230 1581q0 14 22 14h135q26 0 51 -30l199 -254q8 -8 8 -21q0 -14 -18 -14h-111q-10 0 -17 3t-13 9t-17 19l-231 258q-8 8 -8 16zM262 326q0 -72 22.5 -115.5t81 -63.5t162.5 -20q41 0 79 2.5t68.5 6.5t49.5 9v398h-152q-97 0 -155 -10.5 t-92.5 -34.5t-49 -60.5t-14.5 -93.5v-18z" />
<glyph unicode="&#xe1;" horiz-adv-x="1018" d="M80 324v18q0 115 48.5 188t157 108.5t287.5 35.5h152v82q0 128 -49 177.5t-170 49.5q-93 0 -159.5 -12.5t-153.5 -38.5q-21 -7 -34.5 1t-13.5 25v80q0 25 29 37q47 21 139.5 43.5t192.5 22.5q399 0 399 -385v-678q0 -38 -31 -45q-80 -23 -161.5 -35t-184.5 -12 q-239 0 -343.5 80.5t-104.5 257.5zM262 326q0 -72 22.5 -115.5t81 -63.5t162.5 -20q41 0 79 2.5t68.5 6.5t49.5 9v398h-152q-97 0 -155 -10.5t-92.5 -34.5t-49 -60.5t-14.5 -93.5v-18zM409 1290q0 13 8 21l201 254q16 20 24 25t25 5h135q23 0 23 -14q0 -8 -8 -16l-232 -258 q-18 -20 -25 -25.5t-22 -5.5h-111q-18 0 -18 14z" />
<glyph unicode="&#xe2;" horiz-adv-x="1018" d="M80 324v18q0 115 48.5 188t157 108.5t287.5 35.5h152v82q0 128 -49 177.5t-170 49.5q-93 0 -159.5 -12.5t-153.5 -38.5q-21 -7 -34.5 1t-13.5 25v80q0 25 29 37q47 21 139.5 43.5t192.5 22.5q399 0 399 -385v-678q0 -38 -31 -45q-80 -23 -161.5 -35t-184.5 -12 q-239 0 -343.5 80.5t-104.5 257.5zM170 1290q0 13 8 21l197 254q16 20 24 25t25 5h174q26 0 51 -30l195 -254q8 -8 8 -21q0 -14 -19 -14h-106q-15 0 -22 5.5t-25 25.5l-168 198l-170 -198q-17 -19 -25 -25t-22 -6h-107q-18 0 -18 14zM262 326q0 -72 22.5 -115.5t81 -63.5 t162.5 -20q41 0 79 2.5t68.5 6.5t49.5 9v398h-152q-97 0 -155 -10.5t-92.5 -34.5t-49 -60.5t-14.5 -93.5v-18z" />
<glyph unicode="&#xe3;" horiz-adv-x="1018" d="M80 324v18q0 115 48.5 188t157 108.5t287.5 35.5h152v82q0 128 -49 177.5t-170 49.5q-93 0 -159.5 -12.5t-153.5 -38.5q-21 -7 -34.5 1t-13.5 25v80q0 25 29 37q47 21 139.5 43.5t192.5 22.5q399 0 399 -385v-678q0 -38 -31 -45q-80 -23 -161.5 -35t-184.5 -12 q-239 0 -343.5 80.5t-104.5 257.5zM167 1333v43q0 109 51.5 166t143.5 57q60 0 123 -49l145 -114q20 -14 39 -21.5t33 -7.5q32 0 46.5 20t14.5 70v47q0 14 10.5 24.5t24.5 10.5h64q13 0 23 -11t10 -24v-47q0 -108 -46 -161.5t-147 -53.5q-76 0 -131 43l-125 100 q-34 29 -49.5 37t-34.5 8q-35 0 -49 -23t-14 -71v-43q0 -15 -10 -25t-25 -10h-64q-14 0 -23.5 10.5t-9.5 24.5zM262 326q0 -72 22.5 -115.5t81 -63.5t162.5 -20q41 0 79 2.5t68.5 6.5t49.5 9v398h-152q-97 0 -155 -10.5t-92.5 -34.5t-49 -60.5t-14.5 -93.5v-18z" />
<glyph unicode="&#xe8;" horiz-adv-x="1073" d="M82 477v185q0 222 119.5 350.5t335.5 128.5q145 0 246.5 -58.5t152.5 -167.5t51 -253v-111q0 -45 -39 -45h-686v-29q0 -178 69.5 -256t215.5 -78q68 0 133.5 13t128 34.5t100.5 36.5q22 10 34.5 1.5t12.5 -27.5v-84q0 -21 -28 -37q-178 -94 -381 -94q-128 0 -232.5 45.5 t-168.5 155t-64 290.5zM262 643h543v19q0 113 -29.5 185t-88.5 104t-150 32q-275 0 -275 -321v-19zM298 1581q0 14 22 14h135q26 0 51 -30l199 -254q8 -8 8 -21q0 -14 -18 -14h-111q-10 0 -17 3t-13 9t-17 19l-231 258q-8 8 -8 16z" />
<glyph unicode="&#xe9;" horiz-adv-x="1073" d="M82 477v185q0 222 119.5 350.5t335.5 128.5q145 0 246.5 -58.5t152.5 -167.5t51 -253v-111q0 -45 -39 -45h-686v-29q0 -178 69.5 -256t215.5 -78q68 0 133.5 13t128 34.5t100.5 36.5q22 10 34.5 1.5t12.5 -27.5v-84q0 -21 -28 -37q-178 -94 -381 -94q-128 0 -232.5 45.5 t-168.5 155t-64 290.5zM262 643h543v19q0 113 -29.5 185t-88.5 104t-150 32q-275 0 -275 -321v-19zM452 1290q0 13 8 21l201 254q16 20 24 25t25 5h135q23 0 23 -14q0 -8 -8 -16l-232 -258q-18 -20 -25 -25.5t-22 -5.5h-111q-18 0 -18 14z" />
<glyph unicode="&#xea;" horiz-adv-x="1073" d="M82 477v185q0 222 119.5 350.5t335.5 128.5q145 0 246.5 -58.5t152.5 -167.5t51 -253v-111q0 -45 -39 -45h-686v-29q0 -178 69.5 -256t215.5 -78q68 0 133.5 13t128 34.5t100.5 36.5q22 10 34.5 1.5t12.5 -27.5v-84q0 -21 -28 -37q-178 -94 -381 -94q-128 0 -232.5 45.5 t-168.5 155t-64 290.5zM197 1260q0 13 8 21l197 254q16 20 24 25t25 5h174q26 0 51 -30l195 -254q8 -8 8 -21q0 -14 -19 -14h-106q-15 0 -22 5.5t-25 25.5l-168 198l-170 -198q-17 -19 -25 -25t-22 -6h-107q-18 0 -18 14zM262 643h543v19q0 113 -29.5 185t-88.5 104t-150 32 q-275 0 -275 -321v-19z" />
<glyph unicode="&#xec;" horiz-adv-x="444" d="M-65 1581q0 14 22 14h135q26 0 51 -30l199 -254q8 -8 8 -21q0 -14 -18 -14h-111q-10 0 -17 3t-13 9t-17 19l-231 258q-8 8 -8 16zM131 41v1044q0 17 12 29t29 12h98q19 0 30 -11t11 -30v-1044q0 -18 -12 -29.5t-29 -11.5h-98q-15 0 -28 12t-13 29z" />
<glyph unicode="&#xed;" horiz-adv-x="444" d="M110 1290q0 13 8 21l201 254q16 20 24 25t25 5h135q23 0 23 -14q0 -8 -8 -16l-232 -258q-18 -20 -25 -25.5t-22 -5.5h-111q-18 0 -18 14zM131 41v1044q0 17 12 29t29 12h98q19 0 30 -11t11 -30v-1044q0 -18 -12 -29.5t-29 -11.5h-98q-15 0 -28 12t-13 29z" />
<glyph unicode="&#xf2;" d="M82 485v156q0 231 117.5 365.5t337.5 134.5q221 0 338.5 -134.5t117.5 -365.5v-156q0 -230 -117.5 -364.5t-338.5 -134.5q-220 0 -337.5 134.5t-117.5 364.5zM240 1581q0 14 22 14h135q26 0 51 -30l199 -254q8 -8 8 -21q0 -14 -18 -14h-111q-10 0 -17 3t-13 9t-17 19 l-231 258q-8 8 -8 16zM262 485q0 -342 275 -342q139 0 207.5 89t68.5 253v156q0 107 -29.5 183.5t-91 117.5t-155.5 41q-139 0 -207 -89.5t-68 -252.5v-156z" />
<glyph unicode="&#xf3;" d="M82 485v156q0 231 117.5 365.5t337.5 134.5q221 0 338.5 -134.5t117.5 -365.5v-156q0 -230 -117.5 -364.5t-338.5 -134.5q-220 0 -337.5 134.5t-117.5 364.5zM262 485q0 -342 275 -342q139 0 207.5 89t68.5 253v156q0 107 -29.5 183.5t-91 117.5t-155.5 41 q-139 0 -207 -89.5t-68 -252.5v-156zM436 1290q0 13 8 21l201 254q16 20 24 25t25 5h135q23 0 23 -14q0 -8 -8 -16l-232 -258q-18 -20 -25 -25.5t-22 -5.5h-111q-18 0 -18 14z" />
<glyph unicode="&#xf4;" d="M82 485v156q0 231 117.5 365.5t337.5 134.5q221 0 338.5 -134.5t117.5 -365.5v-156q0 -230 -117.5 -364.5t-338.5 -134.5q-220 0 -337.5 134.5t-117.5 364.5zM199 1290q0 13 8 21l197 254q16 20 24 25t25 5h174q26 0 51 -30l195 -254q8 -8 8 -21q0 -14 -19 -14h-106 q-15 0 -22 5.5t-25 25.5l-168 198l-170 -198q-17 -19 -25 -25t-22 -6h-107q-18 0 -18 14zM262 485q0 -342 275 -342q139 0 207.5 89t68.5 253v156q0 107 -29.5 183.5t-91 117.5t-155.5 41q-139 0 -207 -89.5t-68 -252.5v-156z" />
<glyph unicode="&#xf5;" d="M82 485v156q0 231 117.5 365.5t337.5 134.5q221 0 338.5 -134.5t117.5 -365.5v-156q0 -230 -117.5 -364.5t-338.5 -134.5q-220 0 -337.5 134.5t-117.5 364.5zM185 1333v43q0 109 51.5 166t143.5 57q60 0 123 -49l145 -114q20 -14 39 -21.5t33 -7.5q32 0 46.5 20t14.5 70 v47q0 14 10.5 24.5t24.5 10.5h64q13 0 23 -11t10 -24v-47q0 -108 -46 -161.5t-147 -53.5q-76 0 -131 43l-125 100q-34 29 -49.5 37t-34.5 8q-35 0 -49 -23t-14 -71v-43q0 -15 -10 -25t-25 -10h-64q-14 0 -23.5 10.5t-9.5 24.5zM262 485q0 -342 275 -342q139 0 207.5 89 t68.5 253v156q0 107 -29.5 183.5t-91 117.5t-155.5 41q-139 0 -207 -89.5t-68 -252.5v-156z" />
<glyph unicode="&#xf7;" horiz-adv-x="1706" />
<glyph unicode="&#xf9;" horiz-adv-x="582" />
<glyph unicode="&#xfa;" horiz-adv-x="580" />
<glyph unicode="&#xfd;" horiz-adv-x="629" />
<glyph unicode="&#x102;" horiz-adv-x="1276" d="M49 33q0 10 2 14l379 1333q25 87 83 121.5t126 34.5q44 0 84 -13.5t73 -48t50 -92.5l379 -1335q2 -4 2 -14q0 -33 -35 -33h-121q-28 0 -35 31l-133 471h-530l-131 -471q-3 -13 -15 -22t-22 -9h-121q-14 0 -24.5 9.5t-10.5 23.5zM313 1854v8q0 24 21 24h72q26 0 29 -30 q8 -74 64 -114.5t130 -40.5q73 0 129.5 41t63.5 114q3 30 28 30h72q22 0 22 -24v-8q-7 -87 -53 -149t-116 -93t-146 -31q-77 0 -147.5 31t-116 92t-52.5 150zM412 664h452l-186 673q-10 37 -39 37q-31 0 -41 -37z" />
<glyph unicode="&#x103;" horiz-adv-x="1018" d="M80 324v18q0 115 48.5 188t157 108.5t287.5 35.5h152v82q0 128 -49 177.5t-170 49.5q-93 0 -159.5 -12.5t-153.5 -38.5q-21 -7 -34.5 1t-13.5 25v80q0 25 29 37q47 21 139.5 43.5t192.5 22.5q399 0 399 -385v-678q0 -38 -31 -45q-80 -23 -161.5 -35t-184.5 -12 q-239 0 -343.5 80.5t-104.5 257.5zM204 1531v8q0 26 22 26h76q28 0 31 -32q9 -78 68 -121t137 -43t137.5 43.5t67.5 120.5q3 32 30 32h76q23 0 23 -26v-8q-7 -92 -56 -157.5t-123 -98.5t-155 -33t-155.5 33t-123 97.5t-55.5 158.5zM262 326q0 -72 22.5 -115.5t81 -63.5 t162.5 -20q41 0 79 2.5t68.5 6.5t49.5 9v398h-152q-97 0 -155 -10.5t-92.5 -34.5t-49 -60.5t-14.5 -93.5v-18z" />
<glyph unicode="&#x10c;" horiz-adv-x="1274" />
<glyph unicode="&#x10d;" horiz-adv-x="922" />
<glyph unicode="&#x110;" horiz-adv-x="1282" d="M33 752v77q0 17 11.5 29t29.5 12h78v594q0 44 43 52q43 6 86 9.5t125.5 7t160.5 3.5q195 0 333 -68t213 -211.5t75 -357.5v-276q0 -321 -164 -479t-457 -158q-78 0 -160.5 3.5t-125.5 7t-86 9.5t-43 51v654h-78q-17 0 -29 12t-12 29zM340 150q66 -5 227 -5q204 0 319 109 t115 369v276q0 176 -54.5 282.5t-151.5 150.5t-228 44q-125 0 -227 -6v-500h211q17 0 29 -12t12 -29v-77q0 -17 -13 -29t-28 -12h-211v-561z" />
<glyph unicode="&#x111;" horiz-adv-x="1087" d="M82 492v147q0 121 27.5 214.5t83 157.5t139.5 97t196 33q24 0 53 -1t60.5 -3.5t64 -6.5t62.5 -10v150h-328q-17 0 -29 12t-12 29v69q0 17 12 29t29 12h328v80q0 16 11 27.5t28 11.5h104q16 0 26.5 -11t10.5 -28v-80h72q17 0 29 -12t12 -29v-69q0 -17 -12 -29t-29 -12h-72 v-1202q0 -20 -7.5 -31.5t-35.5 -16.5q-96 -18 -189.5 -26t-187.5 -8q-114 0 -198 35.5t-139 101.5t-82 159.5t-27 209.5zM262 492q0 -84 13 -149t44 -109.5t82 -67.5t127 -23q26 0 57 1t63 3t63 4.5t57 4.5v813q-26 4 -57 7t-63.5 4.5t-63.5 2t-56 0.5q-75 0 -126 -23 t-82 -67t-44.5 -108t-13.5 -146v-147z" />
<glyph unicode="&#x128;" horiz-adv-x="477" d="M-121 1667v43q0 109 51.5 166t143.5 57q60 0 123 -49l145 -114q20 -14 39 -21.5t33 -7.5q32 0 46.5 20t14.5 70v47q0 14 10.5 24.5t24.5 10.5h64q13 0 23 -11t10 -24v-47q0 -108 -46 -161.5t-147 -53.5q-76 0 -131 43l-125 100q-34 29 -49.5 37t-34.5 8q-35 0 -49 -23 t-14 -71v-43q0 -15 -10 -25t-25 -10h-64q-14 0 -23.5 10.5t-9.5 24.5zM145 41v1442q0 15 11 27t26 12h113q15 0 26 -11t11 -28v-1442q0 -16 -10.5 -28.5t-26.5 -12.5h-113q-14 0 -25.5 11.5t-11.5 29.5z" />
<glyph unicode="&#x129;" horiz-adv-x="444" d="M-104 1313v43q0 109 51.5 166t143.5 57q60 0 123 -49l145 -114q20 -14 39 -21.5t33 -7.5q32 0 46.5 20t14.5 70v47q0 14 10.5 24.5t24.5 10.5h64q13 0 23 -11t10 -24v-47q0 -108 -46 -161.5t-147 -53.5q-76 0 -131 43l-125 100q-34 29 -49.5 37t-34.5 8q-35 0 -49 -23 t-14 -71v-43q0 -15 -10 -25t-25 -10h-64q-14 0 -23.5 10.5t-9.5 24.5zM131 41v1044q0 17 12 29t29 12h98q19 0 30 -11t11 -30v-1044q0 -18 -12 -29.5t-29 -11.5h-98q-15 0 -28 12t-13 29z" />
<glyph unicode="&#x168;" horiz-adv-x="1294" d="M123 553v930q0 16 11.5 27.5t27.5 11.5h110q16 0 27.5 -10.5t11.5 -28.5v-930q0 -206 76 -307t260 -101q124 0 198.5 46t106 135.5t31.5 226.5v930q0 16 11.5 27.5t27.5 11.5h111q16 0 27 -11t11 -28v-930q0 -145 -34.5 -252t-103 -177.5t-164.5 -104t-222 -33.5 t-221.5 33.5t-163.5 104t-103.5 177.5t-35.5 252zM294 1667v43q0 109 51.5 166t143.5 57q60 0 123 -49l145 -114q20 -14 39 -21.5t33 -7.5q32 0 46.5 20t14.5 70v47q0 14 10.5 24.5t24.5 10.5h64q13 0 23 -11t10 -24v-47q0 -108 -46 -161.5t-147 -53.5q-76 0 -131 43 l-125 100q-34 29 -49.5 37t-34.5 8q-35 0 -49 -23t-14 -71v-43q0 -15 -10 -25t-25 -10h-64q-14 0 -23.5 10.5t-9.5 24.5z" />
<glyph unicode="&#x169;" horiz-adv-x="1087" d="M113 414v671q0 17 11.5 29t29.5 12h98q17 0 29 -12t12 -29v-671q0 -151 55.5 -213t181.5 -62q47 0 127 11t138 26v909q0 16 11.5 28.5t29.5 12.5h100q17 0 28 -12t11 -29v-987q0 -38 -37 -49q-246 -63 -424 -63q-151 0 -240 50t-125 143.5t-36 234.5zM185 1333v43 q0 109 51.5 166t143.5 57q60 0 123 -49l145 -114q20 -14 39 -21.5t33 -7.5q32 0 46.5 20t14.5 70v47q0 14 10.5 24.5t24.5 10.5h64q13 0 23 -11t10 -24v-47q0 -108 -46 -161.5t-147 -53.5q-76 0 -131 43l-125 100q-34 29 -49.5 37t-34.5 8q-35 0 -49 -23t-14 -71v-43 q0 -15 -10 -25t-25 -10h-64q-14 0 -23.5 10.5t-9.5 24.5z" />
<glyph unicode="&#x1a0;" horiz-adv-x="1305" d="M98 629v264q0 165 41 288.5t116 202.5t175 115.5t223 36.5t223.5 -37t174.5 -115.5t114.5 -200.5t40.5 -290v-264q0 -167 -40 -289.5t-114 -201t-175.5 -115.5t-223.5 -37q-121 0 -222.5 37t-176.5 115.5t-115.5 202.5t-40.5 288zM287 629q0 -166 44 -272.5t125 -154.5 t197 -48q365 0 365 475v264q0 125 -25.5 218t-71.5 148t-113 82t-155 27q-366 0 -366 -475v-264zM1052 1270q112 46 116 130v106q-1 22 34 24h83q23 0 28 -20q32 -344 -249 -380z" />
<glyph unicode="&#x1a1;" d="M82 485v156q0 231 117.5 365.5t337.5 134.5q221 0 338.5 -134.5t117.5 -365.5v-156q0 -230 -117.5 -364.5t-338.5 -134.5q-220 0 -337.5 134.5t-117.5 364.5zM262 485q0 -342 275 -342q139 0 207.5 89t68.5 253v156q0 107 -29.5 183.5t-91 117.5t-155.5 41 q-139 0 -207 -89.5t-68 -252.5v-156zM846 865q112 46 116 130v106q-1 22 34 24h83q23 0 28 -20q32 -344 -249 -380z" />
<glyph unicode="&#x1af;" horiz-adv-x="1294" d="M123 557v930q0 16 11.5 27.5t27.5 11.5h110q16 0 27.5 -10.5t11.5 -28.5v-930q0 -206 76 -307t260 -101q124 0 198.5 46t106 135.5t31.5 226.5v930q0 16 11.5 27.5t27.5 11.5h111q16 0 27 -11t11 -28v-930q0 -145 -34.5 -252t-103 -177.5t-164.5 -104t-222 -33.5 t-221.5 33.5t-163.5 104t-103.5 177.5t-35.5 252zM1106 1270q112 46 116 130v106q-1 22 34 24h83q23 0 28 -20q32 -344 -249 -380z" />
<glyph unicode="&#x1b0;" horiz-adv-x="1087" d="M113 414v671q0 17 11.5 29t29.5 12h98q17 0 29 -12t12 -29v-671q0 -151 55.5 -213t181.5 -62q47 0 127 11t138 26v909q0 16 11.5 28.5t29.5 12.5h100q17 0 28 -12t11 -29v-987q0 -38 -37 -49q-246 -63 -424 -63q-151 0 -240 50t-125 143.5t-36 234.5zM895 865 q112 46 116 130v106q-1 22 34 24h83q23 0 28 -20q32 -344 -249 -380z" />
<glyph unicode="&#x1ea0;" horiz-adv-x="1276" d="M49 33q0 10 2 14l379 1333q25 87 83 121.5t126 34.5q44 0 84 -13.5t73 -48t50 -92.5l379 -1335q2 -4 2 -14q0 -33 -35 -33h-121q-28 0 -35 31l-133 471h-530l-131 -471q-3 -13 -15 -22t-22 -9h-121q-14 0 -24.5 9.5t-10.5 23.5zM412 664h452l-186 673q-10 37 -39 37 q-31 0 -41 -37zM557 -128q0 15 13 28t28 13h80q17 0 29 -13t12 -28v-166q0 -17 -12 -28t-29 -11h-80q-15 0 -28 11t-13 28v166z" />
<glyph unicode="&#x1ea1;" horiz-adv-x="1018" d="M80 324v18q0 115 48.5 188t157 108.5t287.5 35.5h152v82q0 128 -49 177.5t-170 49.5q-93 0 -159.5 -12.5t-153.5 -38.5q-21 -7 -34.5 1t-13.5 25v80q0 25 29 37q47 21 139.5 43.5t192.5 22.5q399 0 399 -385v-678q0 -38 -31 -45q-80 -23 -161.5 -35t-184.5 -12 q-239 0 -343.5 80.5t-104.5 257.5zM262 326q0 -72 22.5 -115.5t81 -63.5t162.5 -20q41 0 79 2.5t68.5 6.5t49.5 9v398h-152q-97 0 -155 -10.5t-92.5 -34.5t-49 -60.5t-14.5 -93.5v-18zM413 -128q0 15 13 28t28 13h80q17 0 29 -13t12 -28v-166q0 -17 -12 -28t-29 -11h-80 q-15 0 -28 11t-13 28v166z" />
<glyph unicode="&#x1ea2;" horiz-adv-x="1276" d="M49 33q0 10 2 14l379 1333q25 87 83 121.5t126 34.5q44 0 84 -13.5t73 -48t50 -92.5l379 -1335q2 -4 2 -14q0 -33 -35 -33h-121q-28 0 -35 31l-133 471h-530l-131 -471q-3 -13 -15 -22t-22 -9h-121q-14 0 -24.5 9.5t-10.5 23.5zM412 664h452l-186 673q-10 37 -39 37 q-31 0 -41 -37zM472 1991v41q0 14 9.5 22t19.5 12q26 12 73 23t96 11q90 0 145 -36t55 -114v-10q0 -23 -7 -45t-25 -48t-51 -64l-38 -43q-23 -27 -27.5 -33.5t-8.5 -17t-4 -25.5v-42q0 -14 -13 -26t-34 -12h-37q-21 0 -33.5 12.5t-12.5 25.5v42q0 30 5.5 51.5t19 42.5 t36.5 46l39 43q29 33 38 51.5t9 41.5v10q-5 39 -47 39t-73 -6.5t-77 -21.5q-57 -19 -57 30z" />
<glyph unicode="&#x1ea3;" horiz-adv-x="1018" d="M80 324v18q0 115 48.5 188t157 108.5t287.5 35.5h152v82q0 128 -49 177.5t-170 49.5q-93 0 -159.5 -12.5t-153.5 -38.5q-21 -7 -34.5 1t-13.5 25v80q0 25 29 37q47 21 139.5 43.5t192.5 22.5q399 0 399 -385v-678q0 -38 -31 -45q-80 -23 -161.5 -35t-184.5 -12 q-239 0 -343.5 80.5t-104.5 257.5zM262 326q0 -72 22.5 -115.5t81 -63.5t162.5 -20q41 0 79 2.5t68.5 6.5t49.5 9v398h-152q-97 0 -155 -10.5t-92.5 -34.5t-49 -60.5t-14.5 -93.5v-18zM321 1650v41q0 14 9.5 22t19.5 12q26 12 73 23t96 11q90 0 145 -36t55 -114v-10 q0 -23 -7 -45t-25 -48t-51 -64l-38 -43q-23 -27 -27.5 -33.5t-8.5 -17t-4 -25.5v-42q0 -14 -13 -26t-34 -12h-37q-21 0 -33.5 12.5t-12.5 25.5v42q0 30 5.5 51.5t19 42.5t36.5 46l39 43q29 33 38 51.5t9 41.5v10q-5 39 -47 39t-73 -6.5t-77 -21.5q-57 -19 -57 30z" />
<glyph unicode="&#x1ea4;" horiz-adv-x="1276" d="M49 33q0 10 2 14l379 1333q25 87 83 121.5t126 34.5q44 0 84 -13.5t73 -48t50 -92.5l379 -1335q2 -4 2 -14q0 -33 -35 -33h-121q-28 0 -35 31l-133 471h-530l-131 -471q-3 -13 -15 -22t-22 -9h-121q-14 0 -24.5 9.5t-10.5 23.5zM307 1641q0 13 8 21l197 254q16 20 24 25 t25 5h174q26 0 51 -30l195 -254q8 -8 8 -21q0 -14 -19 -14h-106q-15 0 -22 5.5t-25 25.5l-168 198l-170 -198q-17 -19 -25 -25t-22 -6h-107q-18 0 -18 14zM412 664h452l-186 673q-10 37 -39 37q-31 0 -41 -37zM896 1872q0 13 8 21l201 254q16 20 24 25t25 5h135q23 0 23 -14 q0 -8 -8 -16l-232 -258q-18 -20 -25 -25.5t-22 -5.5h-111q-18 0 -18 14z" />
<glyph unicode="&#x1ea5;" horiz-adv-x="1018" d="M80 324v18q0 115 48.5 188t157 108.5t287.5 35.5h152v82q0 128 -49 177.5t-170 49.5q-93 0 -159.5 -12.5t-153.5 -38.5q-21 -7 -34.5 1t-13.5 25v80q0 25 29 37q47 21 139.5 43.5t192.5 22.5q399 0 399 -385v-678q0 -38 -31 -45q-80 -23 -161.5 -35t-184.5 -12 q-239 0 -343.5 80.5t-104.5 257.5zM170 1290q0 13 8 21l197 254q16 20 24 25t25 5h174q26 0 51 -30l195 -254q8 -8 8 -21q0 -14 -19 -14h-106q-15 0 -22 5.5t-25 25.5l-168 198l-170 -198q-17 -19 -25 -25t-22 -6h-107q-18 0 -18 14zM262 326q0 -72 22.5 -115.5t81 -63.5 t162.5 -20q41 0 79 2.5t68.5 6.5t49.5 9v398h-152q-97 0 -155 -10.5t-92.5 -34.5t-49 -60.5t-14.5 -93.5v-18zM740 1521q0 13 8 21l201 254q16 20 24 25t25 5h135q23 0 23 -14q0 -8 -8 -16l-232 -258q-18 -20 -25 -25.5t-22 -5.5h-111q-18 0 -18 14z" />
<glyph unicode="&#x1ea6;" horiz-adv-x="1276" d="M49 33q0 10 2 14l379 1333q25 87 83 121.5t126 34.5q44 0 84 -13.5t73 -48t50 -92.5l379 -1335q2 -4 2 -14q0 -33 -35 -33h-121q-28 0 -35 31l-133 471h-530l-131 -471q-3 -13 -15 -22t-22 -9h-121q-14 0 -24.5 9.5t-10.5 23.5zM307 1641q0 13 8 21l197 254q16 20 24 25 t25 5h174q26 0 51 -30l195 -254q8 -8 8 -21q0 -14 -19 -14h-106q-15 0 -22 5.5t-25 25.5l-168 198l-170 -198q-17 -19 -25 -25t-22 -6h-107q-18 0 -18 14zM412 664h452l-186 673q-10 37 -39 37q-31 0 -41 -37zM614 2163q0 14 22 14h135q26 0 51 -30l199 -254q8 -8 8 -21 q0 -14 -18 -14h-111q-10 0 -17 3t-13 9t-17 19l-231 258q-8 8 -8 16z" />
<glyph unicode="&#x1ea7;" horiz-adv-x="1018" d="M80 324v18q0 115 48.5 188t157 108.5t287.5 35.5h152v82q0 128 -49 177.5t-170 49.5q-93 0 -159.5 -12.5t-153.5 -38.5q-21 -7 -34.5 1t-13.5 25v80q0 25 29 37q47 21 139.5 43.5t192.5 22.5q399 0 399 -385v-678q0 -38 -31 -45q-80 -23 -161.5 -35t-184.5 -12 q-239 0 -343.5 80.5t-104.5 257.5zM170 1290q0 13 8 21l197 254q16 20 24 25t25 5h174q26 0 51 -30l195 -254q8 -8 8 -21q0 -14 -19 -14h-106q-15 0 -22 5.5t-25 25.5l-168 198l-170 -198q-17 -19 -25 -25t-22 -6h-107q-18 0 -18 14zM262 326q0 -72 22.5 -115.5t81 -63.5 t162.5 -20q41 0 79 2.5t68.5 6.5t49.5 9v398h-152q-97 0 -155 -10.5t-92.5 -34.5t-49 -60.5t-14.5 -93.5v-18zM511 1802q0 14 22 14h135q26 0 51 -30l199 -254q8 -8 8 -21q0 -14 -18 -14h-111q-10 0 -17 3t-13 9t-17 19l-231 258q-8 8 -8 16z" />
<glyph unicode="&#x1ea8;" horiz-adv-x="1276" d="M49 33q0 10 2 14l379 1333q25 87 83 121.5t126 34.5q44 0 84 -13.5t73 -48t50 -92.5l379 -1335q2 -4 2 -14q0 -33 -35 -33h-121q-28 0 -35 31l-133 471h-530l-131 -471q-3 -13 -15 -22t-22 -9h-121q-14 0 -24.5 9.5t-10.5 23.5zM307 1641q0 13 8 21l197 254q16 20 24 25 t25 5h174q26 0 51 -30l195 -254q8 -8 8 -21q0 -14 -19 -14h-106q-15 0 -22 5.5t-25 25.5l-168 198l-170 -198q-17 -19 -25 -25t-22 -6h-107q-18 0 -18 14zM412 664h452l-186 673q-10 37 -39 37q-31 0 -41 -37zM773 2252v41q0 14 9.5 22t19.5 12q26 12 73 23t96 11 q90 0 145 -36t55 -114v-10q0 -23 -7 -45t-25 -48t-51 -64l-38 -43q-23 -27 -27.5 -33.5t-8.5 -17t-4 -25.5v-42q0 -14 -13 -26t-34 -12h-37q-21 0 -33.5 12.5t-12.5 25.5v42q0 30 5.5 51.5t19 42.5t36.5 46l39 43q29 33 38 51.5t9 41.5v10q-5 39 -47 39t-73 -6.5t-77 -21.5 q-57 -19 -57 30z" />
<glyph unicode="&#x1ea9;" horiz-adv-x="1018" d="M80 324v18q0 115 48.5 188t157 108.5t287.5 35.5h152v82q0 128 -49 177.5t-170 49.5q-93 0 -159.5 -12.5t-153.5 -38.5q-21 -7 -34.5 1t-13.5 25v80q0 25 29 37q47 21 139.5 43.5t192.5 22.5q399 0 399 -385v-678q0 -38 -31 -45q-80 -23 -161.5 -35t-184.5 -12 q-239 0 -343.5 80.5t-104.5 257.5zM170 1290q0 13 8 21l197 254q16 20 24 25t25 5h174q26 0 51 -30l195 -254q8 -8 8 -21q0 -14 -19 -14h-106q-15 0 -22 5.5t-25 25.5l-168 198l-170 -198q-17 -19 -25 -25t-22 -6h-107q-18 0 -18 14zM262 326q0 -72 22.5 -115.5t81 -63.5 t162.5 -20q41 0 79 2.5t68.5 6.5t49.5 9v398h-152q-97 0 -155 -10.5t-92.5 -34.5t-49 -60.5t-14.5 -93.5v-18zM613 1921v41q0 14 9.5 22t19.5 12q26 12 73 23t96 11q90 0 145 -36t55 -114v-10q0 -23 -7 -45t-25 -48t-51 -64l-38 -43q-23 -27 -27.5 -33.5t-8.5 -17t-4 -25.5 v-42q0 -14 -13 -26t-34 -12h-37q-21 0 -33.5 12.5t-12.5 25.5v42q0 30 5.5 51.5t19 42.5t36.5 46l39 43q29 33 38 51.5t9 41.5v10q-5 39 -47 39t-73 -6.5t-77 -21.5q-57 -19 -57 30z" />
<glyph unicode="&#x1eaa;" horiz-adv-x="1276" d="M49 33q0 10 2 14l379 1333q25 87 83 121.5t126 34.5q44 0 84 -13.5t73 -48t50 -92.5l379 -1335q2 -4 2 -14q0 -33 -35 -33h-121q-28 0 -35 31l-133 471h-530l-131 -471q-3 -13 -15 -22t-22 -9h-121q-14 0 -24.5 9.5t-10.5 23.5zM307 1641q0 13 8 21l197 254q16 20 24 25 t25 5h174q26 0 51 -30l195 -254q8 -8 8 -21q0 -14 -19 -14h-106q-15 0 -22 5.5t-25 25.5l-168 198l-170 -198q-17 -19 -25 -25t-22 -6h-107q-18 0 -18 14zM390 2008v43q0 109 51.5 166t143.5 57q60 0 123 -49l145 -114q20 -14 39 -21.5t33 -7.5q32 0 46.5 20t14.5 70v47 q0 14 10.5 24.5t24.5 10.5h64q13 0 23 -11t10 -24v-47q0 -108 -46 -161.5t-147 -53.5q-76 0 -131 43l-125 100q-34 29 -49.5 37t-34.5 8q-35 0 -49 -23t-14 -71v-43q0 -15 -10 -25t-25 -10h-64q-14 0 -23.5 10.5t-9.5 24.5zM412 664h452l-186 673q-10 37 -39 37 q-31 0 -41 -37z" />
<glyph unicode="&#x1eab;" horiz-adv-x="1018" d="M80 324v18q0 115 48.5 188t157 108.5t287.5 35.5h152v82q0 128 -49 177.5t-170 49.5q-93 0 -159.5 -12.5t-153.5 -38.5q-21 -7 -34.5 1t-13.5 25v80q0 25 29 37q47 21 139.5 43.5t192.5 22.5q399 0 399 -385v-678q0 -38 -31 -45q-80 -23 -161.5 -35t-184.5 -12 q-239 0 -343.5 80.5t-104.5 257.5zM170 1290q0 13 8 21l197 254q16 20 24 25t25 5h174q26 0 51 -30l195 -254q8 -8 8 -21q0 -14 -19 -14h-106q-15 0 -22 5.5t-25 25.5l-168 198l-170 -198q-17 -19 -25 -25t-22 -6h-107q-18 0 -18 14zM227 1654v43q0 109 51.5 166t143.5 57 q60 0 123 -49l145 -114q20 -14 39 -21.5t33 -7.5q32 0 46.5 20t14.5 70v47q0 14 10.5 24.5t24.5 10.5h64q13 0 23 -11t10 -24v-47q0 -108 -46 -161.5t-147 -53.5q-76 0 -131 43l-125 100q-34 29 -49.5 37t-34.5 8q-35 0 -49 -23t-14 -71v-43q0 -15 -10 -25t-25 -10h-64 q-14 0 -23.5 10.5t-9.5 24.5zM262 326q0 -72 22.5 -115.5t81 -63.5t162.5 -20q41 0 79 2.5t68.5 6.5t49.5 9v398h-152q-97 0 -155 -10.5t-92.5 -34.5t-49 -60.5t-14.5 -93.5v-18z" />
<glyph unicode="&#x1eac;" horiz-adv-x="1276" d="M49 33q0 10 2 14l379 1333q25 87 83 121.5t126 34.5q44 0 84 -13.5t73 -48t50 -92.5l379 -1335q2 -4 2 -14q0 -33 -35 -33h-121q-28 0 -35 31l-133 471h-530l-131 -471q-3 -13 -15 -22t-22 -9h-121q-14 0 -24.5 9.5t-10.5 23.5zM307 1641q0 13 8 21l197 254q16 20 24 25 t25 5h174q26 0 51 -30l195 -254q8 -8 8 -21q0 -14 -19 -14h-106q-15 0 -22 5.5t-25 25.5l-168 198l-170 -198q-17 -19 -25 -25t-22 -6h-107q-18 0 -18 14zM412 664h452l-186 673q-10 37 -39 37q-31 0 -41 -37zM557 -128q0 15 13 28t28 13h80q17 0 29 -13t12 -28v-166 q0 -17 -12 -28t-29 -11h-80q-15 0 -28 11t-13 28v166z" />
<glyph unicode="&#x1ead;" horiz-adv-x="1018" d="M80 324v18q0 115 48.5 188t157 108.5t287.5 35.5h152v82q0 128 -49 177.5t-170 49.5q-93 0 -159.5 -12.5t-153.5 -38.5q-21 -7 -34.5 1t-13.5 25v80q0 25 29 37q47 21 139.5 43.5t192.5 22.5q399 0 399 -385v-678q0 -38 -31 -45q-80 -23 -161.5 -35t-184.5 -12 q-239 0 -343.5 80.5t-104.5 257.5zM170 1290q0 13 8 21l197 254q16 20 24 25t25 5h174q26 0 51 -30l195 -254q8 -8 8 -21q0 -14 -19 -14h-106q-15 0 -22 5.5t-25 25.5l-168 198l-170 -198q-17 -19 -25 -25t-22 -6h-107q-18 0 -18 14zM262 326q0 -72 22.5 -115.5t81 -63.5 t162.5 -20q41 0 79 2.5t68.5 6.5t49.5 9v398h-152q-97 0 -155 -10.5t-92.5 -34.5t-49 -60.5t-14.5 -93.5v-18zM413 -128q0 15 13 28t28 13h80q17 0 29 -13t12 -28v-166q0 -17 -12 -28t-29 -11h-80q-15 0 -28 11t-13 28v166z" />
<glyph unicode="&#x1eae;" horiz-adv-x="1276" d="M49 33q0 10 2 14l379 1333q25 87 83 121.5t126 34.5q44 0 84 -13.5t73 -48t50 -92.5l379 -1335q2 -4 2 -14q0 -33 -35 -33h-121q-28 0 -35 31l-133 471h-530l-131 -471q-3 -13 -15 -22t-22 -9h-121q-14 0 -24.5 9.5t-10.5 23.5zM313 1854v8q0 24 21 24h72q26 0 29 -30 q8 -74 64 -114.5t130 -40.5q73 0 129.5 41t63.5 114q3 30 28 30h72q22 0 22 -24v-8q-7 -87 -53 -149t-116 -93t-146 -31q-77 0 -147.5 31t-116 92t-52.5 150zM412 664h452l-186 673q-10 37 -39 37q-31 0 -41 -37zM545 1872q0 13 8 21l201 254q16 20 24 25t25 5h135 q23 0 23 -14q0 -8 -8 -16l-232 -258q-18 -20 -25 -25.5t-22 -5.5h-111q-18 0 -18 14z" />
<glyph unicode="&#x1eaf;" horiz-adv-x="1018" d="M80 324v18q0 115 48.5 188t157 108.5t287.5 35.5h152v82q0 128 -49 177.5t-170 49.5q-93 0 -159.5 -12.5t-153.5 -38.5q-21 -7 -34.5 1t-13.5 25v80q0 25 29 37q47 21 139.5 43.5t192.5 22.5q399 0 399 -385v-678q0 -38 -31 -45q-80 -23 -161.5 -35t-184.5 -12 q-239 0 -343.5 80.5t-104.5 257.5zM204 1531v8q0 26 22 26h76q28 0 31 -32q9 -78 68 -121t137 -43t137.5 43.5t67.5 120.5q3 32 30 32h76q23 0 23 -26v-8q-7 -92 -56 -157.5t-123 -98.5t-155 -33t-155.5 33t-123 97.5t-55.5 158.5zM262 326q0 -72 22.5 -115.5t81 -63.5 t162.5 -20q41 0 79 2.5t68.5 6.5t49.5 9v398h-152q-97 0 -155 -10.5t-92.5 -34.5t-49 -60.5t-14.5 -93.5v-18zM459 1521q0 13 8 21l201 254q16 20 24 25t25 5h135q23 0 23 -14q0 -8 -8 -16l-232 -258q-18 -20 -25 -25.5t-22 -5.5h-111q-18 0 -18 14z" />
<glyph unicode="&#x1eb0;" horiz-adv-x="1276" d="M49 33q0 10 2 14l379 1333q25 87 83 121.5t126 34.5q44 0 84 -13.5t73 -48t50 -92.5l379 -1335q2 -4 2 -14q0 -33 -35 -33h-121q-28 0 -35 31l-133 471h-530l-131 -471q-3 -13 -15 -22t-22 -9h-121q-14 0 -24.5 9.5t-10.5 23.5zM313 1854v8q0 24 21 24h72q26 0 29 -30 q8 -74 64 -114.5t130 -40.5q73 0 129.5 41t63.5 114q3 30 28 30h72q22 0 22 -24v-8q-7 -87 -53 -149t-116 -93t-146 -31q-77 0 -147.5 31t-116 92t-52.5 150zM323 2163q0 14 22 14h135q26 0 51 -30l199 -254q8 -8 8 -21q0 -14 -18 -14h-111q-10 0 -17 3t-13 9t-17 19 l-231 258q-8 8 -8 16zM412 664h452l-186 673q-10 37 -39 37q-31 0 -41 -37z" />
<glyph unicode="&#x1eb1;" horiz-adv-x="1018" d="M80 324v18q0 115 48.5 188t157 108.5t287.5 35.5h152v82q0 128 -49 177.5t-170 49.5q-93 0 -159.5 -12.5t-153.5 -38.5q-21 -7 -34.5 1t-13.5 25v80q0 25 29 37q47 21 139.5 43.5t192.5 22.5q399 0 399 -385v-678q0 -38 -31 -45q-80 -23 -161.5 -35t-184.5 -12 q-239 0 -343.5 80.5t-104.5 257.5zM204 1531v8q0 26 22 26h76q28 0 31 -32q9 -78 68 -121t137 -43t137.5 43.5t67.5 120.5q3 32 30 32h76q23 0 23 -26v-8q-7 -92 -56 -157.5t-123 -98.5t-155 -33t-155.5 33t-123 97.5t-55.5 158.5zM240 1802q0 14 22 14h135q26 0 51 -30 l199 -254q8 -8 8 -21q0 -14 -18 -14h-111q-10 0 -17 3t-13 9t-17 19l-231 258q-8 8 -8 16zM262 326q0 -72 22.5 -115.5t81 -63.5t162.5 -20q41 0 79 2.5t68.5 6.5t49.5 9v398h-152q-97 0 -155 -10.5t-92.5 -34.5t-49 -60.5t-14.5 -93.5v-18z" />
<glyph unicode="&#x1eb2;" horiz-adv-x="1276" d="M49 33q0 10 2 14l379 1333q25 87 83 121.5t126 34.5q44 0 84 -13.5t73 -48t50 -92.5l379 -1335q2 -4 2 -14q0 -33 -35 -33h-121q-28 0 -35 31l-133 471h-530l-131 -471q-3 -13 -15 -22t-22 -9h-121q-14 0 -24.5 9.5t-10.5 23.5zM313 1854v8q0 24 21 24h72q26 0 29 -30 q8 -74 64 -114.5t130 -40.5q73 0 129.5 41t63.5 114q3 30 28 30h72q22 0 22 -24v-8q-7 -87 -53 -149t-116 -93t-146 -31q-77 0 -147.5 31t-116 92t-52.5 150zM412 664h452l-186 673q-10 37 -39 37q-31 0 -41 -37zM472 2252v41q0 14 9.5 22t19.5 12q26 12 73 23t96 11 q90 0 145 -36t55 -114v-10q0 -23 -7 -45t-25 -48t-51 -64l-38 -43q-23 -27 -27.5 -33.5t-8.5 -17t-4 -25.5v-42q0 -14 -13 -26t-34 -12h-37q-21 0 -33.5 12.5t-12.5 25.5v42q0 30 5.5 51.5t19 42.5t36.5 46l39 43q29 33 38 51.5t9 41.5v10q-5 39 -47 39t-73 -6.5t-77 -21.5 q-57 -19 -57 30z" />
<glyph unicode="&#x1eb3;" horiz-adv-x="1018" d="M80 324v18q0 115 48.5 188t157 108.5t287.5 35.5h152v82q0 128 -49 177.5t-170 49.5q-93 0 -159.5 -12.5t-153.5 -38.5q-21 -7 -34.5 1t-13.5 25v80q0 25 29 37q47 21 139.5 43.5t192.5 22.5q399 0 399 -385v-678q0 -38 -31 -45q-80 -23 -161.5 -35t-184.5 -12 q-239 0 -343.5 80.5t-104.5 257.5zM204 1531v8q0 26 22 26h76q28 0 31 -32q9 -78 68 -121t137 -43t137.5 43.5t67.5 120.5q3 32 30 32h76q23 0 23 -26v-8q-7 -92 -56 -157.5t-123 -98.5t-155 -33t-155.5 33t-123 97.5t-55.5 158.5zM262 326q0 -72 22.5 -115.5t81 -63.5 t162.5 -20q41 0 79 2.5t68.5 6.5t49.5 9v398h-152q-97 0 -155 -10.5t-92.5 -34.5t-49 -60.5t-14.5 -93.5v-18zM372 1921v41q0 14 9.5 22t19.5 12q26 12 73 23t96 11q90 0 145 -36t55 -114v-10q0 -23 -7 -45t-25 -48t-51 -64l-38 -43q-23 -27 -27.5 -33.5t-8.5 -17t-4 -25.5 v-42q0 -14 -13 -26t-34 -12h-37q-21 0 -33.5 12.5t-12.5 25.5v42q0 30 5.5 51.5t19 42.5t36.5 46l39 43q29 33 38 51.5t9 41.5v10q-5 39 -47 39t-73 -6.5t-77 -21.5q-57 -19 -57 30z" />
<glyph unicode="&#x1eb4;" horiz-adv-x="1276" d="M49 33q0 10 2 14l379 1333q25 87 83 121.5t126 34.5q44 0 84 -13.5t73 -48t50 -92.5l379 -1335q2 -4 2 -14q0 -33 -35 -33h-121q-28 0 -35 31l-133 471h-530l-131 -471q-3 -13 -15 -22t-22 -9h-121q-14 0 -24.5 9.5t-10.5 23.5zM313 1854v8q0 24 21 24h72q26 0 29 -30 q8 -74 64 -114.5t130 -40.5q73 0 129.5 41t63.5 114q3 30 28 30h72q22 0 22 -24v-8q-7 -87 -53 -149t-116 -93t-146 -31q-77 0 -147.5 31t-116 92t-52.5 150zM360 1998v43q0 109 51.5 166t143.5 57q60 0 123 -49l145 -114q20 -14 39 -21.5t33 -7.5q32 0 46.5 20t14.5 70v47 q0 14 10.5 24.5t24.5 10.5h64q13 0 23 -11t10 -24v-47q0 -108 -46 -161.5t-147 -53.5q-76 0 -131 43l-125 100q-34 29 -49.5 37t-34.5 8q-35 0 -49 -23t-14 -71v-43q0 -15 -10 -25t-25 -10h-64q-14 0 -23.5 10.5t-9.5 24.5zM412 664h452l-186 673q-10 37 -39 37 q-31 0 -41 -37z" />
<glyph unicode="&#x1eb5;" horiz-adv-x="1018" d="M80 324v18q0 115 48.5 188t157 108.5t287.5 35.5h152v82q0 128 -49 177.5t-170 49.5q-93 0 -159.5 -12.5t-153.5 -38.5q-21 -7 -34.5 1t-13.5 25v80q0 25 29 37q47 21 139.5 43.5t192.5 22.5q399 0 399 -385v-678q0 -38 -31 -45q-80 -23 -161.5 -35t-184.5 -12 q-239 0 -343.5 80.5t-104.5 257.5zM204 1531v8q0 26 22 26h76q28 0 31 -32q9 -78 68 -121t137 -43t137.5 43.5t67.5 120.5q3 32 30 32h76q23 0 23 -26v-8q-7 -92 -56 -157.5t-123 -98.5t-155 -33t-155.5 33t-123 97.5t-55.5 158.5zM227 1654v43q0 109 51.5 166t143.5 57 q60 0 123 -49l145 -114q20 -14 39 -21.5t33 -7.5q32 0 46.5 20t14.5 70v47q0 14 10.5 24.5t24.5 10.5h64q13 0 23 -11t10 -24v-47q0 -108 -46 -161.5t-147 -53.5q-76 0 -131 43l-125 100q-34 29 -49.5 37t-34.5 8q-35 0 -49 -23t-14 -71v-43q0 -15 -10 -25t-25 -10h-64 q-14 0 -23.5 10.5t-9.5 24.5zM262 326q0 -72 22.5 -115.5t81 -63.5t162.5 -20q41 0 79 2.5t68.5 6.5t49.5 9v398h-152q-97 0 -155 -10.5t-92.5 -34.5t-49 -60.5t-14.5 -93.5v-18z" />
<glyph unicode="&#x1eb6;" horiz-adv-x="1276" d="M49 33q0 10 2 14l379 1333q25 87 83 121.5t126 34.5q44 0 84 -13.5t73 -48t50 -92.5l379 -1335q2 -4 2 -14q0 -33 -35 -33h-121q-28 0 -35 31l-133 471h-530l-131 -471q-3 -13 -15 -22t-22 -9h-121q-14 0 -24.5 9.5t-10.5 23.5zM313 1854v8q0 24 21 24h72q26 0 29 -30 q8 -74 64 -114.5t130 -40.5q73 0 129.5 41t63.5 114q3 30 28 30h72q22 0 22 -24v-8q-7 -87 -53 -149t-116 -93t-146 -31q-77 0 -147.5 31t-116 92t-52.5 150zM412 664h452l-186 673q-10 37 -39 37q-31 0 -41 -37zM557 -128q0 15 13 28t28 13h80q17 0 29 -13t12 -28v-166 q0 -17 -12 -28t-29 -11h-80q-15 0 -28 11t-13 28v166z" />
<glyph unicode="&#x1eb7;" horiz-adv-x="1018" d="M80 324v18q0 115 48.5 188t157 108.5t287.5 35.5h152v82q0 128 -49 177.5t-170 49.5q-93 0 -159.5 -12.5t-153.5 -38.5q-21 -7 -34.5 1t-13.5 25v80q0 25 29 37q47 21 139.5 43.5t192.5 22.5q399 0 399 -385v-678q0 -38 -31 -45q-80 -23 -161.5 -35t-184.5 -12 q-239 0 -343.5 80.5t-104.5 257.5zM204 1531v8q0 26 22 26h76q28 0 31 -32q9 -78 68 -121t137 -43t137.5 43.5t67.5 120.5q3 32 30 32h76q23 0 23 -26v-8q-7 -92 -56 -157.5t-123 -98.5t-155 -33t-155.5 33t-123 97.5t-55.5 158.5zM262 326q0 -72 22.5 -115.5t81 -63.5 t162.5 -20q41 0 79 2.5t68.5 6.5t49.5 9v398h-152q-97 0 -155 -10.5t-92.5 -34.5t-49 -60.5t-14.5 -93.5v-18zM413 -128q0 15 13 28t28 13h80q17 0 29 -13t12 -28v-166q0 -17 -12 -28t-29 -11h-80q-15 0 -28 11t-13 28v166z" />
<glyph unicode="&#x1eb8;" d="M129 367v788q0 199 108 290t328 91q102 0 221 -3t179 -9q20 -3 20 -29v-102q0 -25 -22 -25h-396q-108 0 -162 -20.5t-72 -65t-18 -127.5v-285h629q19 0 30 -11t11 -30v-77q0 -18 -12 -29.5t-29 -11.5h-629v-344q0 -83 18 -127.5t72 -65t162 -20.5h396q22 0 22 -25v-104 q0 -26 -20 -29q-97 -10 -400 -10q-145 0 -241.5 39t-145.5 124t-49 218zM557 -128q0 15 13 28t28 13h80q17 0 29 -13t12 -28v-166q0 -17 -12 -28t-29 -11h-80q-15 0 -28 11t-13 28v166z" />
<glyph unicode="&#x1eb9;" horiz-adv-x="1073" d="M82 477v185q0 222 119.5 350.5t335.5 128.5q145 0 246.5 -58.5t152.5 -167.5t51 -253v-111q0 -45 -39 -45h-686v-29q0 -178 69.5 -256t215.5 -78q68 0 133.5 13t128 34.5t100.5 36.5q22 10 34.5 1.5t12.5 -27.5v-84q0 -21 -28 -37q-178 -94 -381 -94q-128 0 -232.5 45.5 t-168.5 155t-64 290.5zM262 643h543v19q0 113 -29.5 185t-88.5 104t-150 32q-275 0 -275 -321v-19zM413 -128q0 15 13 28t28 13h80q17 0 29 -13t12 -28v-166q0 -17 -12 -28t-29 -11h-80q-15 0 -28 11t-13 28v166z" />
<glyph unicode="&#x1eba;" d="M129 367v788q0 199 108 290t328 91q102 0 221 -3t179 -9q20 -3 20 -29v-102q0 -25 -22 -25h-396q-108 0 -162 -20.5t-72 -65t-18 -127.5v-285h629q19 0 30 -11t11 -30v-77q0 -18 -12 -29.5t-29 -11.5h-629v-344q0 -83 18 -127.5t72 -65t162 -20.5h396q22 0 22 -25v-104 q0 -26 -20 -29q-97 -10 -400 -10q-145 0 -241.5 39t-145.5 124t-49 218zM412 1991v41q0 14 9.5 22t19.5 12q26 12 73 23t96 11q90 0 145 -36t55 -114v-10q0 -23 -7 -45t-25 -48t-51 -64l-38 -43q-23 -27 -27.5 -33.5t-8.5 -17t-4 -25.5v-42q0 -14 -13 -26t-34 -12h-37 q-21 0 -33.5 12.5t-12.5 25.5v42q0 30 5.5 51.5t19 42.5t36.5 46l39 43q29 33 38 51.5t9 41.5v10q-5 39 -47 39t-73 -6.5t-77 -21.5q-57 -19 -57 30z" />
<glyph unicode="&#x1ebb;" horiz-adv-x="1073" d="M82 477v185q0 222 119.5 350.5t335.5 128.5q145 0 246.5 -58.5t152.5 -167.5t51 -253v-111q0 -45 -39 -45h-686v-29q0 -178 69.5 -256t215.5 -78q68 0 133.5 13t128 34.5t100.5 36.5q22 10 34.5 1.5t12.5 -27.5v-84q0 -21 -28 -37q-178 -94 -381 -94q-128 0 -232.5 45.5 t-168.5 155t-64 290.5zM262 643h543v19q0 113 -29.5 185t-88.5 104t-150 32q-275 0 -275 -321v-19zM341 1630v41q0 14 9.5 22t19.5 12q26 12 73 23t96 11q90 0 145 -36t55 -114v-10q0 -23 -7 -45t-25 -48t-51 -64l-38 -43q-23 -27 -27.5 -33.5t-8.5 -17t-4 -25.5v-42 q0 -14 -13 -26t-34 -12h-37q-21 0 -33.5 12.5t-12.5 25.5v42q0 30 5.5 51.5t19 42.5t36.5 46l39 43q29 33 38 51.5t9 41.5v10q-5 39 -47 39t-73 -6.5t-77 -21.5q-57 -19 -57 30z" />
<glyph unicode="&#x1ebc;" d="M129 367v788q0 199 108 290t328 91q102 0 221 -3t179 -9q20 -3 20 -29v-102q0 -25 -22 -25h-396q-108 0 -162 -20.5t-72 -65t-18 -127.5v-285h629q19 0 30 -11t11 -30v-77q0 -18 -12 -29.5t-29 -11.5h-629v-344q0 -83 18 -127.5t72 -65t162 -20.5h396q22 0 22 -25v-104 q0 -26 -20 -29q-97 -10 -400 -10q-145 0 -241.5 39t-145.5 124t-49 218zM280 1667v43q0 109 51.5 166t143.5 57q60 0 123 -49l145 -114q20 -14 39 -21.5t33 -7.5q32 0 46.5 20t14.5 70v47q0 14 10.5 24.5t24.5 10.5h64q13 0 23 -11t10 -24v-47q0 -108 -46 -161.5t-147 -53.5 q-76 0 -131 43l-125 100q-34 29 -49.5 37t-34.5 8q-35 0 -49 -23t-14 -71v-43q0 -15 -10 -25t-25 -10h-64q-14 0 -23.5 10.5t-9.5 24.5z" />
<glyph unicode="&#x1ebd;" horiz-adv-x="1073" d="M82 477v185q0 222 119.5 350.5t335.5 128.5q145 0 246.5 -58.5t152.5 -167.5t51 -253v-111q0 -45 -39 -45h-686v-29q0 -178 69.5 -256t215.5 -78q68 0 133.5 13t128 34.5t100.5 36.5q22 10 34.5 1.5t12.5 -27.5v-84q0 -21 -28 -37q-178 -94 -381 -94q-128 0 -232.5 45.5 t-168.5 155t-64 290.5zM167 1333v43q0 109 51.5 166t143.5 57q60 0 123 -49l145 -114q20 -14 39 -21.5t33 -7.5q32 0 46.5 20t14.5 70v47q0 14 10.5 24.5t24.5 10.5h64q13 0 23 -11t10 -24v-47q0 -108 -46 -161.5t-147 -53.5q-76 0 -131 43l-125 100q-34 29 -49.5 37 t-34.5 8q-35 0 -49 -23t-14 -71v-43q0 -15 -10 -25t-25 -10h-64q-14 0 -23.5 10.5t-9.5 24.5zM262 643h543v19q0 113 -29.5 185t-88.5 104t-150 32q-275 0 -275 -321v-19z" />
<glyph unicode="&#x1ebe;" d="M129 367v788q0 199 108 290t328 91q102 0 221 -3t179 -9q20 -3 20 -29v-102q0 -25 -22 -25h-396q-108 0 -162 -20.5t-72 -65t-18 -127.5v-285h629q19 0 30 -11t11 -30v-77q0 -18 -12 -29.5t-29 -11.5h-629v-344q0 -83 18 -127.5t72 -65t162 -20.5h396q22 0 22 -25v-104 q0 -26 -20 -29q-97 -10 -400 -10q-145 0 -241.5 39t-145.5 124t-49 218zM221 1641q0 13 8 21l197 254q16 20 24 25t25 5h174q26 0 51 -30l195 -254q8 -8 8 -21q0 -14 -19 -14h-106q-15 0 -22 5.5t-25 25.5l-168 198l-170 -198q-17 -19 -25 -25t-22 -6h-107q-18 0 -18 14z M797 1882q0 13 8 21l201 254q16 20 24 25t25 5h135q23 0 23 -14q0 -8 -8 -16l-232 -258q-18 -20 -25 -25.5t-22 -5.5h-111q-18 0 -18 14z" />
<glyph unicode="&#x1ebf;" horiz-adv-x="1073" d="M82 477v185q0 222 119.5 350.5t335.5 128.5q145 0 246.5 -58.5t152.5 -167.5t51 -253v-111q0 -45 -39 -45h-686v-29q0 -178 69.5 -256t215.5 -78q68 0 133.5 13t128 34.5t100.5 36.5q22 10 34.5 1.5t12.5 -27.5v-84q0 -21 -28 -37q-178 -94 -381 -94q-128 0 -232.5 45.5 t-168.5 155t-64 290.5zM197 1260q0 13 8 21l197 254q16 20 24 25t25 5h174q26 0 51 -30l195 -254q8 -8 8 -21q0 -14 -19 -14h-106q-15 0 -22 5.5t-25 25.5l-168 198l-170 -198q-17 -19 -25 -25t-22 -6h-107q-18 0 -18 14zM262 643h543v19q0 113 -29.5 185t-88.5 104t-150 32 q-275 0 -275 -321v-19zM743 1521q0 13 8 21l201 254q16 20 24 25t25 5h135q23 0 23 -14q0 -8 -8 -16l-232 -258q-18 -20 -25 -25.5t-22 -5.5h-111q-18 0 -18 14z" />
<glyph unicode="&#x1ec0;" d="M129 367v788q0 199 108 290t328 91q102 0 221 -3t179 -9q20 -3 20 -29v-102q0 -25 -22 -25h-396q-108 0 -162 -20.5t-72 -65t-18 -127.5v-285h629q19 0 30 -11t11 -30v-77q0 -18 -12 -29.5t-29 -11.5h-629v-344q0 -83 18 -127.5t72 -65t162 -20.5h396q22 0 22 -25v-104 q0 -26 -20 -29q-97 -10 -400 -10q-145 0 -241.5 39t-145.5 124t-49 218zM221 1641q0 13 8 21l197 254q16 20 24 25t25 5h174q26 0 51 -30l195 -254q8 -8 8 -21q0 -14 -19 -14h-106q-15 0 -22 5.5t-25 25.5l-168 198l-170 -198q-17 -19 -25 -25t-22 -6h-107q-18 0 -18 14z M552 2151q0 14 22 14h135q26 0 51 -30l199 -254q8 -8 8 -21q0 -14 -18 -14h-111q-10 0 -17 3t-13 9t-17 19l-231 258q-8 8 -8 16z" />
<glyph unicode="&#x1ec1;" horiz-adv-x="1073" d="M82 477v185q0 222 119.5 350.5t335.5 128.5q145 0 246.5 -58.5t152.5 -167.5t51 -253v-111q0 -45 -39 -45h-686v-29q0 -178 69.5 -256t215.5 -78q68 0 133.5 13t128 34.5t100.5 36.5q22 10 34.5 1.5t12.5 -27.5v-84q0 -21 -28 -37q-178 -94 -381 -94q-128 0 -232.5 45.5 t-168.5 155t-64 290.5zM197 1260q0 13 8 21l197 254q16 20 24 25t25 5h174q26 0 51 -30l195 -254q8 -8 8 -21q0 -14 -19 -14h-106q-15 0 -22 5.5t-25 25.5l-168 198l-170 -198q-17 -19 -25 -25t-22 -6h-107q-18 0 -18 14zM262 643h543v19q0 113 -29.5 185t-88.5 104t-150 32 q-275 0 -275 -321v-19zM518 1782q0 14 22 14h135q26 0 51 -30l199 -254q8 -8 8 -21q0 -14 -18 -14h-111q-10 0 -17 3t-13 9t-17 19l-231 258q-8 8 -8 16z" />
<glyph unicode="&#x1ec2;" d="M129 367v788q0 199 108 290t328 91q102 0 221 -3t179 -9q20 -3 20 -29v-102q0 -25 -22 -25h-396q-108 0 -162 -20.5t-72 -65t-18 -127.5v-285h629q19 0 30 -11t11 -30v-77q0 -18 -12 -29.5t-29 -11.5h-629v-344q0 -83 18 -127.5t72 -65t162 -20.5h396q22 0 22 -25v-104 q0 -26 -20 -29q-97 -10 -400 -10q-145 0 -241.5 39t-145.5 124t-49 218zM221 1641q0 13 8 21l197 254q16 20 24 25t25 5h174q26 0 51 -30l195 -254q8 -8 8 -21q0 -14 -19 -14h-106q-15 0 -22 5.5t-25 25.5l-168 198l-170 -198q-17 -19 -25 -25t-22 -6h-107q-18 0 -18 14z M694 2232v41q0 14 9.5 22t19.5 12q26 12 73 23t96 11q90 0 145 -36t55 -114v-10q0 -23 -7 -45t-25 -48t-51 -64l-38 -43q-23 -27 -27.5 -33.5t-8.5 -17t-4 -25.5v-42q0 -14 -13 -26t-34 -12h-37q-21 0 -33.5 12.5t-12.5 25.5v42q0 30 5.5 51.5t19 42.5t36.5 46l39 43 q29 33 38 51.5t9 41.5v10q-5 39 -47 39t-73 -6.5t-77 -21.5q-57 -19 -57 30z" />
<glyph unicode="&#x1ec3;" horiz-adv-x="1073" d="M82 477v185q0 222 119.5 350.5t335.5 128.5q145 0 246.5 -58.5t152.5 -167.5t51 -253v-111q0 -45 -39 -45h-686v-29q0 -178 69.5 -256t215.5 -78q68 0 133.5 13t128 34.5t100.5 36.5q22 10 34.5 1.5t12.5 -27.5v-84q0 -21 -28 -37q-178 -94 -381 -94q-128 0 -232.5 45.5 t-168.5 155t-64 290.5zM197 1260q0 13 8 21l197 254q16 20 24 25t25 5h174q26 0 51 -30l195 -254q8 -8 8 -21q0 -14 -19 -14h-106q-15 0 -22 5.5t-25 25.5l-168 198l-170 -198q-17 -19 -25 -25t-22 -6h-107q-18 0 -18 14zM262 643h543v19q0 113 -29.5 185t-88.5 104t-150 32 q-275 0 -275 -321v-19zM632 1901v41q0 14 9.5 22t19.5 12q26 12 73 23t96 11q90 0 145 -36t55 -114v-10q0 -23 -7 -45t-25 -48t-51 -64l-38 -43q-23 -27 -27.5 -33.5t-8.5 -17t-4 -25.5v-42q0 -14 -13 -26t-34 -12h-37q-21 0 -33.5 12.5t-12.5 25.5v42q0 30 5.5 51.5 t19 42.5t36.5 46l39 43q29 33 38 51.5t9 41.5v10q-5 39 -47 39t-73 -6.5t-77 -21.5q-57 -19 -57 30z" />
<glyph unicode="&#x1ec4;" d="M129 367v788q0 199 108 290t328 91q102 0 221 -3t179 -9q20 -3 20 -29v-102q0 -25 -22 -25h-396q-108 0 -162 -20.5t-72 -65t-18 -127.5v-285h629q19 0 30 -11t11 -30v-77q0 -18 -12 -29.5t-29 -11.5h-629v-344q0 -83 18 -127.5t72 -65t162 -20.5h396q22 0 22 -25v-104 q0 -26 -20 -29q-97 -10 -400 -10q-145 0 -241.5 39t-145.5 124t-49 218zM221 1641q0 13 8 21l197 254q16 20 24 25t25 5h174q26 0 51 -30l195 -254q8 -8 8 -21q0 -14 -19 -14h-106q-15 0 -22 5.5t-25 25.5l-168 198l-170 -198q-17 -19 -25 -25t-22 -6h-107q-18 0 -18 14z M290 1998v43q0 109 51.5 166t143.5 57q60 0 123 -49l145 -114q20 -14 39 -21.5t33 -7.5q32 0 46.5 20t14.5 70v47q0 14 10.5 24.5t24.5 10.5h64q13 0 23 -11t10 -24v-47q0 -108 -46 -161.5t-147 -53.5q-76 0 -131 43l-125 100q-34 29 -49.5 37t-34.5 8q-35 0 -49 -23 t-14 -71v-43q0 -15 -10 -25t-25 -10h-64q-14 0 -23.5 10.5t-9.5 24.5z" />
<glyph unicode="&#x1ec5;" horiz-adv-x="1073" d="M82 477v185q0 222 119.5 350.5t335.5 128.5q145 0 246.5 -58.5t152.5 -167.5t51 -253v-111q0 -45 -39 -45h-686v-29q0 -178 69.5 -256t215.5 -78q68 0 133.5 13t128 34.5t100.5 36.5q22 10 34.5 1.5t12.5 -27.5v-84q0 -21 -28 -37q-178 -94 -381 -94q-128 0 -232.5 45.5 t-168.5 155t-64 290.5zM197 1260q0 13 8 21l197 254q16 20 24 25t25 5h174q26 0 51 -30l195 -254q8 -8 8 -21q0 -14 -19 -14h-106q-15 0 -22 5.5t-25 25.5l-168 198l-170 -198q-17 -19 -25 -25t-22 -6h-107q-18 0 -18 14zM257 1614v43q0 109 51.5 166t143.5 57q60 0 123 -49 l145 -114q20 -14 39 -21.5t33 -7.5q32 0 46.5 20t14.5 70v47q0 14 10.5 24.5t24.5 10.5h64q13 0 23 -11t10 -24v-47q0 -108 -46 -161.5t-147 -53.5q-76 0 -131 43l-125 100q-34 29 -49.5 37t-34.5 8q-35 0 -49 -23t-14 -71v-43q0 -15 -10 -25t-25 -10h-64q-14 0 -23.5 10.5 t-9.5 24.5zM262 643h543v19q0 113 -29.5 185t-88.5 104t-150 32q-275 0 -275 -321v-19z" />
<glyph unicode="&#x1ec6;" d="M129 367v788q0 199 108 290t328 91q102 0 221 -3t179 -9q20 -3 20 -29v-102q0 -25 -22 -25h-396q-108 0 -162 -20.5t-72 -65t-18 -127.5v-285h629q19 0 30 -11t11 -30v-77q0 -18 -12 -29.5t-29 -11.5h-629v-344q0 -83 18 -127.5t72 -65t162 -20.5h396q22 0 22 -25v-104 q0 -26 -20 -29q-97 -10 -400 -10q-145 0 -241.5 39t-145.5 124t-49 218zM221 1641q0 13 8 21l197 254q16 20 24 25t25 5h174q26 0 51 -30l195 -254q8 -8 8 -21q0 -14 -19 -14h-106q-15 0 -22 5.5t-25 25.5l-168 198l-170 -198q-17 -19 -25 -25t-22 -6h-107q-18 0 -18 14z M557 -128q0 15 13 28t28 13h80q17 0 29 -13t12 -28v-166q0 -17 -12 -28t-29 -11h-80q-15 0 -28 11t-13 28v166z" />
<glyph unicode="&#x1ec7;" horiz-adv-x="1073" d="M82 477v185q0 222 119.5 350.5t335.5 128.5q145 0 246.5 -58.5t152.5 -167.5t51 -253v-111q0 -45 -39 -45h-686v-29q0 -178 69.5 -256t215.5 -78q68 0 133.5 13t128 34.5t100.5 36.5q22 10 34.5 1.5t12.5 -27.5v-84q0 -21 -28 -37q-178 -94 -381 -94q-128 0 -232.5 45.5 t-168.5 155t-64 290.5zM197 1260q0 13 8 21l197 254q16 20 24 25t25 5h174q26 0 51 -30l195 -254q8 -8 8 -21q0 -14 -19 -14h-106q-15 0 -22 5.5t-25 25.5l-168 198l-170 -198q-17 -19 -25 -25t-22 -6h-107q-18 0 -18 14zM262 643h543v19q0 113 -29.5 185t-88.5 104t-150 32 q-275 0 -275 -321v-19zM413 -128q0 15 13 28t28 13h80q17 0 29 -13t12 -28v-166q0 -17 -12 -28t-29 -11h-80q-15 0 -28 11t-13 28v166z" />
<glyph unicode="&#x1ec8;" horiz-adv-x="477" d="M51 1991v41q0 14 9.5 22t19.5 12q26 12 73 23t96 11q90 0 145 -36t55 -114v-10q0 -23 -7 -45t-25 -48t-51 -64l-38 -43q-23 -27 -27.5 -33.5t-8.5 -17t-4 -25.5v-42q0 -14 -13 -26t-34 -12h-37q-21 0 -33.5 12.5t-12.5 25.5v42q0 30 5.5 51.5t19 42.5t36.5 46l39 43 q29 33 38 51.5t9 41.5v10q-5 39 -47 39t-73 -6.5t-77 -21.5q-57 -19 -57 30zM145 41v1442q0 15 11 27t26 12h113q15 0 26 -11t11 -28v-1442q0 -16 -10.5 -28.5t-26.5 -12.5h-113q-14 0 -25.5 11.5t-11.5 29.5z" />
<glyph unicode="&#x1ec9;" horiz-adv-x="444" d="M39 1630v41q0 14 9.5 22t19.5 12q26 12 73 23t96 11q90 0 145 -36t55 -114v-10q0 -23 -7 -45t-25 -48t-51 -64l-38 -43q-23 -27 -27.5 -33.5t-8.5 -17t-4 -25.5v-42q0 -14 -13 -26t-34 -12h-37q-21 0 -33.5 12.5t-12.5 25.5v42q0 30 5.5 51.5t19 42.5t36.5 46l39 43 q29 33 38 51.5t9 41.5v10q-5 39 -47 39t-73 -6.5t-77 -21.5q-57 -19 -57 30zM131 41v1044q0 17 12 29t29 12h98q19 0 30 -11t11 -30v-1044q0 -18 -12 -29.5t-29 -11.5h-98q-15 0 -28 12t-13 29z" />
<glyph unicode="&#x1eca;" horiz-adv-x="477" d="M145 41v1442q0 15 11 27t26 12h113q15 0 26 -11t11 -28v-1442q0 -16 -10.5 -28.5t-26.5 -12.5h-113q-14 0 -25.5 11.5t-11.5 29.5zM156 -128q0 15 13 28t28 13h80q17 0 29 -13t12 -28v-166q0 -17 -12 -28t-29 -11h-80q-15 0 -28 11t-13 28v166z" />
<glyph unicode="&#x1ecb;" horiz-adv-x="444" d="M129 1348v163q0 17 11.5 29t29.5 12h104q19 0 30 -11t11 -30v-163q0 -18 -12 -29.5t-29 -11.5h-104q-17 0 -29 12t-12 29zM131 41v1044q0 17 12 29t29 12h98q19 0 30 -11t11 -30v-1044q0 -18 -12 -29.5t-29 -11.5h-98q-15 0 -28 12t-13 29zM142 -128q0 15 13 28t28 13h80 q17 0 29 -13t12 -28v-166q0 -17 -12 -28t-29 -11h-80q-15 0 -28 11t-13 28v166z" />
<glyph unicode="&#x1ecc;" horiz-adv-x="1305" d="M98 629v264q0 165 41 288.5t116 202.5t175 115.5t223 36.5t223.5 -37t174.5 -115.5t114.5 -200.5t40.5 -290v-264q0 -167 -40 -289.5t-114 -201t-175.5 -115.5t-223.5 -37q-121 0 -222.5 37t-176.5 115.5t-115.5 202.5t-40.5 288zM287 629q0 -166 44 -272.5t125 -154.5 t197 -48q365 0 365 475v264q0 125 -25.5 218t-71.5 148t-113 82t-155 27q-366 0 -366 -475v-264zM571 -128q0 15 13 28t28 13h80q17 0 29 -13t12 -28v-166q0 -17 -12 -28t-29 -11h-80q-15 0 -28 11t-13 28v166z" />
<glyph unicode="&#x1ecd;" d="M82 485v156q0 231 117.5 365.5t337.5 134.5q221 0 338.5 -134.5t117.5 -365.5v-156q0 -230 -117.5 -364.5t-338.5 -134.5q-220 0 -337.5 134.5t-117.5 364.5zM262 485q0 -342 275 -342q139 0 207.5 89t68.5 253v156q0 107 -29.5 183.5t-91 117.5t-155.5 41 q-139 0 -207 -89.5t-68 -252.5v-156zM457 -128q0 15 13 28t28 13h80q17 0 29 -13t12 -28v-166q0 -17 -12 -28t-29 -11h-80q-15 0 -28 11t-13 28v166z" />
<glyph unicode="&#x1ece;" horiz-adv-x="1305" d="M98 629v264q0 165 41 288.5t116 202.5t175 115.5t223 36.5t223.5 -37t174.5 -115.5t114.5 -200.5t40.5 -290v-264q0 -167 -40 -289.5t-114 -201t-175.5 -115.5t-223.5 -37q-121 0 -222.5 37t-176.5 115.5t-115.5 202.5t-40.5 288zM287 629q0 -166 44 -272.5t125 -154.5 t197 -48q365 0 365 475v264q0 125 -25.5 218t-71.5 148t-113 82t-155 27q-366 0 -366 -475v-264zM462 1991v41q0 14 9.5 22t19.5 12q26 12 73 23t96 11q90 0 145 -36t55 -114v-10q0 -23 -7 -45t-25 -48t-51 -64l-38 -43q-23 -27 -27.5 -33.5t-8.5 -17t-4 -25.5v-42 q0 -14 -13 -26t-34 -12h-37q-21 0 -33.5 12.5t-12.5 25.5v42q0 30 5.5 51.5t19 42.5t36.5 46l39 43q29 33 38 51.5t9 41.5v10q-5 39 -47 39t-73 -6.5t-77 -21.5q-57 -19 -57 30z" />
<glyph unicode="&#x1ecf;" d="M82 485v156q0 231 117.5 365.5t337.5 134.5q221 0 338.5 -134.5t117.5 -365.5v-156q0 -230 -117.5 -364.5t-338.5 -134.5q-220 0 -337.5 134.5t-117.5 364.5zM262 485q0 -342 275 -342q139 0 207.5 89t68.5 253v156q0 107 -29.5 183.5t-91 117.5t-155.5 41 q-139 0 -207 -89.5t-68 -252.5v-156zM341 1630v41q0 14 9.5 22t19.5 12q26 12 73 23t96 11q90 0 145 -36t55 -114v-10q0 -23 -7 -45t-25 -48t-51 -64l-38 -43q-23 -27 -27.5 -33.5t-8.5 -17t-4 -25.5v-42q0 -14 -13 -26t-34 -12h-37q-21 0 -33.5 12.5t-12.5 25.5v42 q0 30 5.5 51.5t19 42.5t36.5 46l39 43q29 33 38 51.5t9 41.5v10q-5 39 -47 39t-73 -6.5t-77 -21.5q-57 -19 -57 30z" />
<glyph unicode="&#x1ed0;" horiz-adv-x="1305" d="M98 629v264q0 165 41 288.5t116 202.5t175 115.5t223 36.5t223.5 -37t174.5 -115.5t114.5 -200.5t40.5 -290v-264q0 -167 -40 -289.5t-114 -201t-175.5 -115.5t-223.5 -37q-121 0 -222.5 37t-176.5 115.5t-115.5 202.5t-40.5 288zM287 629q0 -166 44 -272.5t125 -154.5 t197 -48q365 0 365 475v264q0 125 -25.5 218t-71.5 148t-113 82t-155 27q-366 0 -366 -475v-264zM311 1643q0 13 8 21l197 254q16 20 24 25t25 5h174q26 0 51 -30l195 -254q8 -8 8 -21q0 -14 -19 -14h-106q-15 0 -22 5.5t-25 25.5l-168 198l-170 -198q-17 -19 -25 -25 t-22 -6h-107q-18 0 -18 14zM866 1882q0 13 8 21l201 254q16 20 24 25t25 5h135q23 0 23 -14q0 -8 -8 -16l-232 -258q-18 -20 -25 -25.5t-22 -5.5h-111q-18 0 -18 14z" />
<glyph unicode="&#x1ed1;" d="M82 485v156q0 231 117.5 365.5t337.5 134.5q221 0 338.5 -134.5t117.5 -365.5v-156q0 -230 -117.5 -364.5t-338.5 -134.5q-220 0 -337.5 134.5t-117.5 364.5zM199 1290q0 13 8 21l197 254q16 20 24 25t25 5h174q26 0 51 -30l195 -254q8 -8 8 -21q0 -14 -19 -14h-106 q-15 0 -22 5.5t-25 25.5l-168 198l-170 -198q-17 -19 -25 -25t-22 -6h-107q-18 0 -18 14zM262 485q0 -342 275 -342q139 0 207.5 89t68.5 253v156q0 107 -29.5 183.5t-91 117.5t-155.5 41q-139 0 -207 -89.5t-68 -252.5v-156zM757 1521q0 13 8 21l201 254q16 20 24 25t25 5 h135q23 0 23 -14q0 -8 -8 -16l-232 -258q-18 -20 -25 -25.5t-22 -5.5h-111q-18 0 -18 14z" />
<glyph unicode="&#x1ed2;" horiz-adv-x="1305" d="M98 629v264q0 165 41 288.5t116 202.5t175 115.5t223 36.5t223.5 -37t174.5 -115.5t114.5 -200.5t40.5 -290v-264q0 -167 -40 -289.5t-114 -201t-175.5 -115.5t-223.5 -37q-121 0 -222.5 37t-176.5 115.5t-115.5 202.5t-40.5 288zM287 629q0 -166 44 -272.5t125 -154.5 t197 -48q365 0 365 475v264q0 125 -25.5 218t-71.5 148t-113 82t-155 27q-366 0 -366 -475v-264zM311 1643q0 13 8 21l197 254q16 20 24 25t25 5h174q26 0 51 -30l195 -254q8 -8 8 -21q0 -14 -19 -14h-106q-15 0 -22 5.5t-25 25.5l-168 198l-170 -198q-17 -19 -25 -25 t-22 -6h-107q-18 0 -18 14zM634 2173q0 14 22 14h135q26 0 51 -30l199 -254q8 -8 8 -21q0 -14 -18 -14h-111q-10 0 -17 3t-13 9t-17 19l-231 258q-8 8 -8 16z" />
<glyph unicode="&#x1ed3;" d="M82 485v156q0 231 117.5 365.5t337.5 134.5q221 0 338.5 -134.5t117.5 -365.5v-156q0 -230 -117.5 -364.5t-338.5 -134.5q-220 0 -337.5 134.5t-117.5 364.5zM199 1290q0 13 8 21l197 254q16 20 24 25t25 5h174q26 0 51 -30l195 -254q8 -8 8 -21q0 -14 -19 -14h-106 q-15 0 -22 5.5t-25 25.5l-168 198l-170 -198q-17 -19 -25 -25t-22 -6h-107q-18 0 -18 14zM262 485q0 -342 275 -342q139 0 207.5 89t68.5 253v156q0 107 -29.5 183.5t-91 117.5t-155.5 41q-139 0 -207 -89.5t-68 -252.5v-156zM521 1812q0 14 22 14h135q26 0 51 -30l199 -254 q8 -8 8 -21q0 -14 -18 -14h-111q-10 0 -17 3t-13 9t-17 19l-231 258q-8 8 -8 16z" />
<glyph unicode="&#x1ed4;" horiz-adv-x="1305" d="M98 629v264q0 165 41 288.5t116 202.5t175 115.5t223 36.5t223.5 -37t174.5 -115.5t114.5 -200.5t40.5 -290v-264q0 -167 -40 -289.5t-114 -201t-175.5 -115.5t-223.5 -37q-121 0 -222.5 37t-176.5 115.5t-115.5 202.5t-40.5 288zM287 629q0 -166 44 -272.5t125 -154.5 t197 -48q365 0 365 475v264q0 125 -25.5 218t-71.5 148t-113 82t-155 27q-366 0 -366 -475v-264zM311 1643q0 13 8 21l197 254q16 20 24 25t25 5h174q26 0 51 -30l195 -254q8 -8 8 -21q0 -14 -19 -14h-106q-15 0 -22 5.5t-25 25.5l-168 198l-170 -198q-17 -19 -25 -25 t-22 -6h-107q-18 0 -18 14zM753 2262v41q0 14 9.5 22t19.5 12q26 12 73 23t96 11q90 0 145 -36t55 -114v-10q0 -23 -7 -45t-25 -48t-51 -64l-38 -43q-23 -27 -27.5 -33.5t-8.5 -17t-4 -25.5v-42q0 -14 -13 -26t-34 -12h-37q-21 0 -33.5 12.5t-12.5 25.5v42q0 30 5.5 51.5 t19 42.5t36.5 46l39 43q29 33 38 51.5t9 41.5v10q-5 39 -47 39t-73 -6.5t-77 -21.5q-57 -19 -57 30z" />
<glyph unicode="&#x1ed5;" d="M82 485v156q0 231 117.5 365.5t337.5 134.5q221 0 338.5 -134.5t117.5 -365.5v-156q0 -230 -117.5 -364.5t-338.5 -134.5q-220 0 -337.5 134.5t-117.5 364.5zM199 1290q0 13 8 21l197 254q16 20 24 25t25 5h174q26 0 51 -30l195 -254q8 -8 8 -21q0 -14 -19 -14h-106 q-15 0 -22 5.5t-25 25.5l-168 198l-170 -198q-17 -19 -25 -25t-22 -6h-107q-18 0 -18 14zM262 485q0 -342 275 -342q139 0 207.5 89t68.5 253v156q0 107 -29.5 183.5t-91 117.5t-155.5 41q-139 0 -207 -89.5t-68 -252.5v-156zM653 1901v41q0 14 9.5 22t19.5 12q26 12 73 23 t96 11q90 0 145 -36t55 -114v-10q0 -23 -7 -45t-25 -48t-51 -64l-38 -43q-23 -27 -27.5 -33.5t-8.5 -17t-4 -25.5v-42q0 -14 -13 -26t-34 -12h-37q-21 0 -33.5 12.5t-12.5 25.5v42q0 30 5.5 51.5t19 42.5t36.5 46l39 43q29 33 38 51.5t9 41.5v10q-5 39 -47 39t-73 -6.5 t-77 -21.5q-57 -19 -57 30z" />
<glyph unicode="&#x1ed6;" horiz-adv-x="1305" d="M98 629v264q0 165 41 288.5t116 202.5t175 115.5t223 36.5t223.5 -37t174.5 -115.5t114.5 -200.5t40.5 -290v-264q0 -167 -40 -289.5t-114 -201t-175.5 -115.5t-223.5 -37q-121 0 -222.5 37t-176.5 115.5t-115.5 202.5t-40.5 288zM287 629q0 -166 44 -272.5t125 -154.5 t197 -48q365 0 365 475v264q0 125 -25.5 218t-71.5 148t-113 82t-155 27q-366 0 -366 -475v-264zM311 1643q0 13 8 21l197 254q16 20 24 25t25 5h174q26 0 51 -30l195 -254q8 -8 8 -21q0 -14 -19 -14h-106q-15 0 -22 5.5t-25 25.5l-168 198l-170 -198q-17 -19 -25 -25 t-22 -6h-107q-18 0 -18 14zM354 1998v43q0 109 51.5 166t143.5 57q60 0 123 -49l145 -114q20 -14 39 -21.5t33 -7.5q32 0 46.5 20t14.5 70v47q0 14 10.5 24.5t24.5 10.5h64q13 0 23 -11t10 -24v-47q0 -108 -46 -161.5t-147 -53.5q-76 0 -131 43l-125 100q-34 29 -49.5 37 t-34.5 8q-35 0 -49 -23t-14 -71v-43q0 -15 -10 -25t-25 -10h-64q-14 0 -23.5 10.5t-9.5 24.5z" />
<glyph unicode="&#x1ed7;" d="M82 485v156q0 231 117.5 365.5t337.5 134.5q221 0 338.5 -134.5t117.5 -365.5v-156q0 -230 -117.5 -364.5t-338.5 -134.5q-220 0 -337.5 134.5t-117.5 364.5zM199 1290q0 13 8 21l197 254q16 20 24 25t25 5h174q26 0 51 -30l195 -254q8 -8 8 -21q0 -14 -19 -14h-106 q-15 0 -22 5.5t-25 25.5l-168 198l-170 -198q-17 -19 -25 -25t-22 -6h-107q-18 0 -18 14zM255 1654v43q0 109 51.5 166t143.5 57q60 0 123 -49l145 -114q20 -14 39 -21.5t33 -7.5q32 0 46.5 20t14.5 70v47q0 14 10.5 24.5t24.5 10.5h64q13 0 23 -11t10 -24v-47 q0 -108 -46 -161.5t-147 -53.5q-76 0 -131 43l-125 100q-34 29 -49.5 37t-34.5 8q-35 0 -49 -23t-14 -71v-43q0 -15 -10 -25t-25 -10h-64q-14 0 -23.5 10.5t-9.5 24.5zM262 485q0 -342 275 -342q139 0 207.5 89t68.5 253v156q0 107 -29.5 183.5t-91 117.5t-155.5 41 q-139 0 -207 -89.5t-68 -252.5v-156z" />
<glyph unicode="&#x1ed8;" horiz-adv-x="1305" d="M98 629v264q0 165 41 288.5t116 202.5t175 115.5t223 36.5t223.5 -37t174.5 -115.5t114.5 -200.5t40.5 -290v-264q0 -167 -40 -289.5t-114 -201t-175.5 -115.5t-223.5 -37q-121 0 -222.5 37t-176.5 115.5t-115.5 202.5t-40.5 288zM287 629q0 -166 44 -272.5t125 -154.5 t197 -48q365 0 365 475v264q0 125 -25.5 218t-71.5 148t-113 82t-155 27q-366 0 -366 -475v-264zM311 1643q0 13 8 21l197 254q16 20 24 25t25 5h174q26 0 51 -30l195 -254q8 -8 8 -21q0 -14 -19 -14h-106q-15 0 -22 5.5t-25 25.5l-168 198l-170 -198q-17 -19 -25 -25 t-22 -6h-107q-18 0 -18 14zM571 -128q0 15 13 28t28 13h80q17 0 29 -13t12 -28v-166q0 -17 -12 -28t-29 -11h-80q-15 0 -28 11t-13 28v166z" />
<glyph unicode="&#x1ed9;" d="M82 485v156q0 231 117.5 365.5t337.5 134.5q221 0 338.5 -134.5t117.5 -365.5v-156q0 -230 -117.5 -364.5t-338.5 -134.5q-220 0 -337.5 134.5t-117.5 364.5zM199 1290q0 13 8 21l197 254q16 20 24 25t25 5h174q26 0 51 -30l195 -254q8 -8 8 -21q0 -14 -19 -14h-106 q-15 0 -22 5.5t-25 25.5l-168 198l-170 -198q-17 -19 -25 -25t-22 -6h-107q-18 0 -18 14zM262 485q0 -342 275 -342q139 0 207.5 89t68.5 253v156q0 107 -29.5 183.5t-91 117.5t-155.5 41q-139 0 -207 -89.5t-68 -252.5v-156zM457 -128q0 15 13 28t28 13h80q17 0 29 -13 t12 -28v-166q0 -17 -12 -28t-29 -11h-80q-15 0 -28 11t-13 28v166z" />
<glyph unicode="&#x1eda;" horiz-adv-x="1305" d="M98 629v264q0 165 41 288.5t116 202.5t175 115.5t223 36.5t223.5 -37t174.5 -115q34 -36 61 -81q53 39 56 97v106q-1 22 34 24h83q23 0 28 -20q25 -268 -141 -349q34 -115 34 -268v-264q0 -167 -40 -289.5t-114 -201t-175.5 -115.5t-223.5 -37q-121 0 -222.5 37 t-176.5 115.5t-115.5 202.5t-40.5 288zM287 629q0 -166 44 -272.5t125 -154.5t197 -48q365 0 365 475v264q0 125 -25.5 218t-71.5 148t-113 82t-155 27q-366 0 -366 -475v-264zM495 1641q0 13 8 21l201 254q16 20 24 25t25 5h135q23 0 23 -14q0 -8 -8 -16l-232 -258 q-18 -20 -25 -25.5t-22 -5.5h-111q-18 0 -18 14z" />
<glyph unicode="&#x1edb;" d="M82 485v156q0 231 117.5 365.5t337.5 134.5q221 0 339 -134q33 -39 57 -85q27 32 29 73v106q-1 22 34 24h83q23 0 28 -20q24 -254 -124 -340q10 -58 10 -124v-156q0 -230 -117.5 -364.5t-338.5 -134.5q-220 0 -337.5 134.5t-117.5 364.5zM262 485q0 -342 275 -342 q139 0 207.5 89t68.5 253v156q0 107 -29.5 183.5t-91 117.5t-155.5 41q-139 0 -207 -89.5t-68 -252.5v-156zM436 1290q0 13 8 21l201 254q16 20 24 25t25 5h135q23 0 23 -14q0 -8 -8 -16l-232 -258q-18 -20 -25 -25.5t-22 -5.5h-111q-18 0 -18 14z" />
<glyph unicode="&#x1edc;" horiz-adv-x="1305" d="M98 629v264q0 165 41 288.5t116 202.5t175 115.5t223 36.5t223.5 -37t174.5 -115q34 -36 61 -81q53 39 56 97v106q-1 22 34 24h83q23 0 28 -20q25 -268 -141 -349q34 -115 34 -268v-264q0 -167 -40 -289.5t-114 -201t-175.5 -115.5t-223.5 -37q-121 0 -222.5 37 t-176.5 115.5t-115.5 202.5t-40.5 288zM287 629q0 -166 44 -272.5t125 -154.5t197 -48q365 0 365 475v264q0 125 -25.5 218t-71.5 148t-113 82t-155 27q-366 0 -366 -475v-264zM373 1932q0 14 22 14h135q26 0 51 -30l199 -254q8 -8 8 -21q0 -14 -18 -14h-111q-10 0 -17 3 t-13 9t-17 19l-231 258q-8 8 -8 16z" />
<glyph unicode="&#x1edd;" d="M82 485v156q0 231 117.5 365.5t337.5 134.5q221 0 339 -134q33 -39 57 -85q27 32 29 73v106q-1 22 34 24h83q23 0 28 -20q24 -254 -124 -340q10 -58 10 -124v-156q0 -230 -117.5 -364.5t-338.5 -134.5q-220 0 -337.5 134.5t-117.5 364.5zM240 1581q0 14 22 14h135 q26 0 51 -30l199 -254q8 -8 8 -21q0 -14 -18 -14h-111q-10 0 -17 3t-13 9t-17 19l-231 258q-8 8 -8 16zM262 485q0 -342 275 -342q139 0 207.5 89t68.5 253v156q0 107 -29.5 183.5t-91 117.5t-155.5 41q-139 0 -207 -89.5t-68 -252.5v-156z" />
<glyph unicode="&#x1ede;" horiz-adv-x="1305" d="M98 629v264q0 165 41 288.5t116 202.5t175 115.5t223 36.5t223.5 -37t174.5 -115q34 -36 61 -81q53 39 56 97v106q-1 22 34 24h83q23 0 28 -20q25 -268 -141 -349q34 -115 34 -268v-264q0 -167 -40 -289.5t-114 -201t-175.5 -115.5t-223.5 -37q-121 0 -222.5 37 t-176.5 115.5t-115.5 202.5t-40.5 288zM287 629q0 -166 44 -272.5t125 -154.5t197 -48q365 0 365 475v264q0 125 -25.5 218t-71.5 148t-113 82t-155 27q-366 0 -366 -475v-264zM462 1991v41q0 14 9.5 22t19.5 12q26 12 73 23t96 11q90 0 145 -36t55 -114v-10q0 -23 -7 -45 t-25 -48t-51 -64l-38 -43q-23 -27 -27.5 -33.5t-8.5 -17t-4 -25.5v-42q0 -14 -13 -26t-34 -12h-37q-21 0 -33.5 12.5t-12.5 25.5v42q0 30 5.5 51.5t19 42.5t36.5 46l39 43q29 33 38 51.5t9 41.5v10q-5 39 -47 39t-73 -6.5t-77 -21.5q-57 -19 -57 30z" />
<glyph unicode="&#x1edf;" d="M82 485v156q0 231 117.5 365.5t337.5 134.5q221 0 339 -134q33 -39 57 -85q27 32 29 73v106q-1 22 34 24h83q23 0 28 -20q24 -254 -124 -340q10 -58 10 -124v-156q0 -230 -117.5 -364.5t-338.5 -134.5q-220 0 -337.5 134.5t-117.5 364.5zM262 485q0 -342 275 -342 q139 0 207.5 89t68.5 253v156q0 107 -29.5 183.5t-91 117.5t-155.5 41q-139 0 -207 -89.5t-68 -252.5v-156zM341 1630v41q0 14 9.5 22t19.5 12q26 12 73 23t96 11q90 0 145 -36t55 -114v-10q0 -23 -7 -45t-25 -48t-51 -64l-38 -43q-23 -27 -27.5 -33.5t-8.5 -17t-4 -25.5 v-42q0 -14 -13 -26t-34 -12h-37q-21 0 -33.5 12.5t-12.5 25.5v42q0 30 5.5 51.5t19 42.5t36.5 46l39 43q29 33 38 51.5t9 41.5v10q-5 39 -47 39t-73 -6.5t-77 -21.5q-57 -19 -57 30z" />
<glyph unicode="&#x1ee0;" horiz-adv-x="1305" d="M98 629v264q0 165 41 288.5t116 202.5t175 115.5t223 36.5t223.5 -37t174.5 -115q34 -36 61 -81q53 39 56 97v106q-1 22 34 24h83q23 0 28 -20q25 -268 -141 -349q34 -115 34 -268v-264q0 -167 -40 -289.5t-114 -201t-175.5 -115.5t-223.5 -37q-121 0 -222.5 37 t-176.5 115.5t-115.5 202.5t-40.5 288zM287 629q0 -166 44 -272.5t125 -154.5t197 -48q365 0 365 475v264q0 125 -25.5 218t-71.5 148t-113 82t-155 27q-366 0 -366 -475v-264zM294 1667v43q0 109 51.5 166t143.5 57q60 0 123 -49l145 -114q20 -14 39 -21.5t33 -7.5 q32 0 46.5 20t14.5 70v47q0 14 10.5 24.5t24.5 10.5h64q13 0 23 -11t10 -24v-47q0 -108 -46 -161.5t-147 -53.5q-76 0 -131 43l-125 100q-34 29 -49.5 37t-34.5 8q-35 0 -49 -23t-14 -71v-43q0 -15 -10 -25t-25 -10h-64q-14 0 -23.5 10.5t-9.5 24.5z" />
<glyph unicode="&#x1ee1;" d="M82 485v156q0 231 117.5 365.5t337.5 134.5q221 0 339 -134q33 -39 57 -85q27 32 29 73v106q-1 22 34 24h83q23 0 28 -20q24 -254 -124 -340q10 -58 10 -124v-156q0 -230 -117.5 -364.5t-338.5 -134.5q-220 0 -337.5 134.5t-117.5 364.5zM185 1333v43q0 109 51.5 166 t143.5 57q60 0 123 -49l145 -114q20 -14 39 -21.5t33 -7.5q32 0 46.5 20t14.5 70v47q0 14 10.5 24.5t24.5 10.5h64q13 0 23 -11t10 -24v-47q0 -108 -46 -161.5t-147 -53.5q-76 0 -131 43l-125 100q-34 29 -49.5 37t-34.5 8q-35 0 -49 -23t-14 -71v-43q0 -15 -10 -25t-25 -10 h-64q-14 0 -23.5 10.5t-9.5 24.5zM262 485q0 -342 275 -342q139 0 207.5 89t68.5 253v156q0 107 -29.5 183.5t-91 117.5t-155.5 41q-139 0 -207 -89.5t-68 -252.5v-156z" />
<glyph unicode="&#x1ee2;" horiz-adv-x="1305" d="M98 629v264q0 165 41 288.5t116 202.5t175 115.5t223 36.5t223.5 -37t174.5 -115q34 -36 61 -81q53 39 56 97v106q-1 22 34 24h83q23 0 28 -20q25 -268 -141 -349q34 -115 34 -268v-264q0 -167 -40 -289.5t-114 -201t-175.5 -115.5t-223.5 -37q-121 0 -222.5 37 t-176.5 115.5t-115.5 202.5t-40.5 288zM287 629q0 -166 44 -272.5t125 -154.5t197 -48q365 0 365 475v264q0 125 -25.5 218t-71.5 148t-113 82t-155 27q-366 0 -366 -475v-264zM571 -128q0 15 13 28t28 13h80q17 0 29 -13t12 -28v-166q0 -17 -12 -28t-29 -11h-80 q-15 0 -28 11t-13 28v166z" />
<glyph unicode="&#x1ee3;" d="M82 485v156q0 231 117.5 365.5t337.5 134.5q221 0 339 -134q33 -39 57 -85q27 32 29 73v106q-1 22 34 24h83q23 0 28 -20q24 -254 -124 -340q10 -58 10 -124v-156q0 -230 -117.5 -364.5t-338.5 -134.5q-220 0 -337.5 134.5t-117.5 364.5zM262 485q0 -342 275 -342 q139 0 207.5 89t68.5 253v156q0 107 -29.5 183.5t-91 117.5t-155.5 41q-139 0 -207 -89.5t-68 -252.5v-156zM457 -128q0 15 13 28t28 13h80q17 0 29 -13t12 -28v-166q0 -17 -12 -28t-29 -11h-80q-15 0 -28 11t-13 28v166z" />
<glyph unicode="&#x1ee4;" horiz-adv-x="1294" d="M123 553v930q0 16 11.5 27.5t27.5 11.5h110q16 0 27.5 -10.5t11.5 -28.5v-930q0 -206 76 -307t260 -101q124 0 198.5 46t106 135.5t31.5 226.5v930q0 16 11.5 27.5t27.5 11.5h111q16 0 27 -11t11 -28v-930q0 -145 -34.5 -252t-103 -177.5t-164.5 -104t-222 -33.5 t-221.5 33.5t-163.5 104t-103.5 177.5t-35.5 252zM566 -128q0 15 13 28t28 13h80q17 0 29 -13t12 -28v-166q0 -17 -12 -28t-29 -11h-80q-15 0 -28 11t-13 28v166z" />
<glyph unicode="&#x1ee5;" horiz-adv-x="1087" d="M113 414v671q0 17 11.5 29t29.5 12h98q17 0 29 -12t12 -29v-671q0 -151 55.5 -213t181.5 -62q47 0 127 11t138 26v909q0 16 11.5 28.5t29.5 12.5h100q17 0 28 -12t11 -29v-987q0 -38 -37 -49q-246 -63 -424 -63q-151 0 -240 50t-125 143.5t-36 234.5zM457 -128 q0 15 13 28t28 13h80q17 0 29 -13t12 -28v-166q0 -17 -12 -28t-29 -11h-80q-15 0 -28 11t-13 28v166z" />
<glyph unicode="&#x1ee6;" horiz-adv-x="1294" d="M123 553v930q0 16 11.5 27.5t27.5 11.5h110q16 0 27.5 -10.5t11.5 -28.5v-930q0 -206 76 -307t260 -101q124 0 198.5 46t106 135.5t31.5 226.5v930q0 16 11.5 27.5t27.5 11.5h111q16 0 27 -11t11 -28v-930q0 -145 -34.5 -252t-103 -177.5t-164.5 -104t-222 -33.5 t-221.5 33.5t-163.5 104t-103.5 177.5t-35.5 252zM462 1991v41q0 14 9.5 22t19.5 12q26 12 73 23t96 11q90 0 145 -36t55 -114v-10q0 -23 -7 -45t-25 -48t-51 -64l-38 -43q-23 -27 -27.5 -33.5t-8.5 -17t-4 -25.5v-42q0 -14 -13 -26t-34 -12h-37q-21 0 -33.5 12.5 t-12.5 25.5v42q0 30 5.5 51.5t19 42.5t36.5 46l39 43q29 33 38 51.5t9 41.5v10q-5 39 -47 39t-73 -6.5t-77 -21.5q-57 -19 -57 30z" />
<glyph unicode="&#x1ee7;" horiz-adv-x="1087" d="M113 414v671q0 17 11.5 29t29.5 12h98q17 0 29 -12t12 -29v-671q0 -151 55.5 -213t181.5 -62q47 0 127 11t138 26v909q0 16 11.5 28.5t29.5 12.5h100q17 0 28 -12t11 -29v-987q0 -38 -37 -49q-246 -63 -424 -63q-151 0 -240 50t-125 143.5t-36 234.5zM361 1630v41 q0 14 9.5 22t19.5 12q26 12 73 23t96 11q90 0 145 -36t55 -114v-10q0 -23 -7 -45t-25 -48t-51 -64l-38 -43q-23 -27 -27.5 -33.5t-8.5 -17t-4 -25.5v-42q0 -14 -13 -26t-34 -12h-37q-21 0 -33.5 12.5t-12.5 25.5v42q0 30 5.5 51.5t19 42.5t36.5 46l39 43q29 33 38 51.5 t9 41.5v10q-5 39 -47 39t-73 -6.5t-77 -21.5q-57 -19 -57 30z" />
<glyph unicode="&#x1ee8;" horiz-adv-x="1294" d="M123 553v930q0 16 11.5 27.5t27.5 11.5h110q16 0 27.5 -10.5t11.5 -28.5v-930q0 -206 76 -307t260 -101q124 0 198.5 46t106 135.5t31.5 226.5v930q0 16 11.5 27.5t27.5 11.5h111q16 0 27 -11t11 -28v-176q48 38 51 93v106q-1 22 34 24h83q23 0 28 -20q29 -310 -196 -370 v-587q0 -145 -34.5 -252t-103 -177.5t-164.5 -104t-222 -33.5t-221.5 33.5t-163.5 104t-103.5 177.5t-35.5 252zM534 1641q0 13 8 21l201 254q16 20 24 25t25 5h135q23 0 23 -14q0 -8 -8 -16l-232 -258q-18 -20 -25 -25.5t-22 -5.5h-111q-18 0 -18 14z" />
<glyph unicode="&#x1ee9;" horiz-adv-x="1087" d="M113 414v671q0 17 11.5 29t29.5 12h98q17 0 29 -12t12 -29v-671q0 -151 55.5 -213t181.5 -62q47 0 127 11t138 26v909q0 16 11.5 28.5t29.5 12.5h100q17 0 28 -12t11 -29v-170q34 35 36 80v106q-1 22 34 24h83q23 0 28 -20q28 -299 -181 -365v-642q0 -38 -37 -49 q-246 -63 -424 -63q-151 0 -240 50t-125 143.5t-36 234.5zM446 1290q0 13 8 21l201 254q16 20 24 25t25 5h135q23 0 23 -14q0 -8 -8 -16l-232 -258q-18 -20 -25 -25.5t-22 -5.5h-111q-18 0 -18 14z" />
<glyph unicode="&#x1eea;" horiz-adv-x="1294" d="M123 553v930q0 16 11.5 27.5t27.5 11.5h110q16 0 27.5 -10.5t11.5 -28.5v-930q0 -206 76 -307t260 -101q124 0 198.5 46t106 135.5t31.5 226.5v930q0 16 11.5 27.5t27.5 11.5h111q16 0 27 -11t11 -28v-176q48 38 51 93v106q-1 22 34 24h83q23 0 28 -20q29 -310 -196 -370 v-587q0 -145 -34.5 -252t-103 -177.5t-164.5 -104t-222 -33.5t-221.5 33.5t-163.5 104t-103.5 177.5t-35.5 252zM351 1932q0 14 22 14h135q26 0 51 -30l199 -254q8 -8 8 -21q0 -14 -18 -14h-111q-10 0 -17 3t-13 9t-17 19l-231 258q-8 8 -8 16z" />
<glyph unicode="&#x1eeb;" horiz-adv-x="1087" d="M113 414v671q0 17 11.5 29t29.5 12h98q17 0 29 -12t12 -29v-671q0 -151 55.5 -213t181.5 -62q47 0 127 11t138 26v909q0 16 11.5 28.5t29.5 12.5h100q17 0 28 -12t11 -29v-170q34 35 36 80v106q-1 22 34 24h83q23 0 28 -20q28 -299 -181 -365v-642q0 -38 -37 -49 q-246 -63 -424 -63q-151 0 -240 50t-125 143.5t-36 234.5zM247 1581q0 14 22 14h135q26 0 51 -30l199 -254q8 -8 8 -21q0 -14 -18 -14h-111q-10 0 -17 3t-13 9t-17 19l-231 258q-8 8 -8 16z" />
<glyph unicode="&#x1eec;" horiz-adv-x="1294" d="M123 553v930q0 16 11.5 27.5t27.5 11.5h110q16 0 27.5 -10.5t11.5 -28.5v-930q0 -206 76 -307t260 -101q124 0 198.5 46t106 135.5t31.5 226.5v930q0 16 11.5 27.5t27.5 11.5h111q16 0 27 -11t11 -28v-176q48 38 51 93v106q-1 22 34 24h83q23 0 28 -20q29 -310 -196 -370 v-587q0 -145 -34.5 -252t-103 -177.5t-164.5 -104t-222 -33.5t-221.5 33.5t-163.5 104t-103.5 177.5t-35.5 252zM462 1991v41q0 14 9.5 22t19.5 12q26 12 73 23t96 11q90 0 145 -36t55 -114v-10q0 -23 -7 -45t-25 -48t-51 -64l-38 -43q-23 -27 -27.5 -33.5t-8.5 -17 t-4 -25.5v-42q0 -14 -13 -26t-34 -12h-37q-21 0 -33.5 12.5t-12.5 25.5v42q0 30 5.5 51.5t19 42.5t36.5 46l39 43q29 33 38 51.5t9 41.5v10q-5 39 -47 39t-73 -6.5t-77 -21.5q-57 -19 -57 30z" />
<glyph unicode="&#x1eed;" horiz-adv-x="1087" d="M113 414v671q0 17 11.5 29t29.5 12h98q17 0 29 -12t12 -29v-671q0 -151 55.5 -213t181.5 -62q47 0 127 11t138 26v909q0 16 11.5 28.5t29.5 12.5h100q17 0 28 -12t11 -29v-170q34 35 36 80v106q-1 22 34 24h83q23 0 28 -20q28 -299 -181 -365v-642q0 -38 -37 -49 q-246 -63 -424 -63q-151 0 -240 50t-125 143.5t-36 234.5zM361 1630v41q0 14 9.5 22t19.5 12q26 12 73 23t96 11q90 0 145 -36t55 -114v-10q0 -23 -7 -45t-25 -48t-51 -64l-38 -43q-23 -27 -27.5 -33.5t-8.5 -17t-4 -25.5v-42q0 -14 -13 -26t-34 -12h-37q-21 0 -33.5 12.5 t-12.5 25.5v42q0 30 5.5 51.5t19 42.5t36.5 46l39 43q29 33 38 51.5t9 41.5v10q-5 39 -47 39t-73 -6.5t-77 -21.5q-57 -19 -57 30z" />
<glyph unicode="&#x1eee;" horiz-adv-x="1294" d="M123 553v930q0 16 11.5 27.5t27.5 11.5h110q16 0 27.5 -10.5t11.5 -28.5v-930q0 -206 76 -307t260 -101q124 0 198.5 46t106 135.5t31.5 226.5v930q0 16 11.5 27.5t27.5 11.5h111q16 0 27 -11t11 -28v-176q48 38 51 93v106q-1 22 34 24h83q23 0 28 -20q29 -310 -196 -370 v-587q0 -145 -34.5 -252t-103 -177.5t-164.5 -104t-222 -33.5t-221.5 33.5t-163.5 104t-103.5 177.5t-35.5 252zM294 1667v43q0 109 51.5 166t143.5 57q60 0 123 -49l145 -114q20 -14 39 -21.5t33 -7.5q32 0 46.5 20t14.5 70v47q0 14 10.5 24.5t24.5 10.5h64q13 0 23 -11 t10 -24v-47q0 -108 -46 -161.5t-147 -53.5q-76 0 -131 43l-125 100q-34 29 -49.5 37t-34.5 8q-35 0 -49 -23t-14 -71v-43q0 -15 -10 -25t-25 -10h-64q-14 0 -23.5 10.5t-9.5 24.5z" />
<glyph unicode="&#x1eef;" horiz-adv-x="1087" d="M113 414v671q0 17 11.5 29t29.5 12h98q17 0 29 -12t12 -29v-671q0 -151 55.5 -213t181.5 -62q47 0 127 11t138 26v909q0 16 11.5 28.5t29.5 12.5h100q17 0 28 -12t11 -29v-170q34 35 36 80v106q-1 22 34 24h83q23 0 28 -20q28 -299 -181 -365v-642q0 -38 -37 -49 q-246 -63 -424 -63q-151 0 -240 50t-125 143.5t-36 234.5zM185 1333v43q0 109 51.5 166t143.5 57q60 0 123 -49l145 -114q20 -14 39 -21.5t33 -7.5q32 0 46.5 20t14.5 70v47q0 14 10.5 24.5t24.5 10.5h64q13 0 23 -11t10 -24v-47q0 -108 -46 -161.5t-147 -53.5 q-76 0 -131 43l-125 100q-34 29 -49.5 37t-34.5 8q-35 0 -49 -23t-14 -71v-43q0 -15 -10 -25t-25 -10h-64q-14 0 -23.5 10.5t-9.5 24.5z" />
<glyph unicode="&#x1ef0;" horiz-adv-x="1294" d="M123 553v930q0 16 11.5 27.5t27.5 11.5h110q16 0 27.5 -10.5t11.5 -28.5v-930q0 -206 76 -307t260 -101q124 0 198.5 46t106 135.5t31.5 226.5v930q0 16 11.5 27.5t27.5 11.5h111q16 0 27 -11t11 -28v-176q48 38 51 93v106q-1 22 34 24h83q23 0 28 -20q29 -310 -196 -370 v-587q0 -145 -34.5 -252t-103 -177.5t-164.5 -104t-222 -33.5t-221.5 33.5t-163.5 104t-103.5 177.5t-35.5 252zM566 -128q0 15 13 28t28 13h80q17 0 29 -13t12 -28v-166q0 -17 -12 -28t-29 -11h-80q-15 0 -28 11t-13 28v166z" />
<glyph unicode="&#x1ef1;" horiz-adv-x="1087" d="M113 414v671q0 17 11.5 29t29.5 12h98q17 0 29 -12t12 -29v-671q0 -151 55.5 -213t181.5 -62q47 0 127 11t138 26v909q0 16 11.5 28.5t29.5 12.5h100q17 0 28 -12t11 -29v-987q0 -38 -37 -49q-246 -63 -424 -63q-151 0 -240 50t-125 143.5t-36 234.5zM457 -128 q0 15 13 28t28 13h80q17 0 29 -13t12 -28v-166q0 -17 -12 -28t-29 -11h-80q-15 0 -28 11t-13 28v166zM895 865q112 46 116 130v106q-1 22 34 24h83q23 0 28 -20q32 -344 -249 -380z" />
<glyph unicode="&#x1ef2;" horiz-adv-x="1167" d="M57 1493q0 12 9.5 20.5t25.5 8.5h125q10 0 21.5 -9.5t15.5 -19.5l283 -664q23 -53 47 -53q23 0 47 53l284 664q15 29 35 29h125q16 0 25.5 -8t9.5 -21q0 -9 -6 -23l-318 -712q-47 -108 -110 -135v-582q0 -17 -11 -29t-26 -12h-113q-15 0 -26 12t-11 29v582 q-60 23 -110 135l-316 712q-6 14 -6 23zM351 1932q0 14 22 14h135q26 0 51 -30l199 -254q8 -8 8 -21q0 -14 -18 -14h-111q-10 0 -17 3t-13 9t-17 19l-231 258q-8 8 -8 16z" />
<glyph unicode="&#x1ef3;" horiz-adv-x="1065" d="M66 1092q0 34 36 34h113q12 0 22 -10t13 -22l242 -889q11 -45 38 -45h33l250 936q3 13 14 21.5t25 8.5h115q32 0 32 -34q0 -11 -2 -15l-338 -1179q-33 -117 -75 -181t-112 -93.5t-187 -29.5q-90 0 -172 19q-43 10 -43 33v75q0 33 39 33h6q135 -12 182 -12 q91 0 134.5 35.5t68.5 138.5l20 84h-28q-55 0 -90 26t-62 115l-272 936q-2 4 -2 15zM247 1581q0 14 22 14h135q26 0 51 -30l199 -254q8 -8 8 -21q0 -14 -18 -14h-111q-10 0 -17 3t-13 9t-17 19l-231 258q-8 8 -8 16z" />
<glyph unicode="&#x1ef4;" horiz-adv-x="1167" d="M57 1493q0 12 9.5 20.5t25.5 8.5h125q10 0 21.5 -9.5t15.5 -19.5l283 -664q23 -53 47 -53q23 0 47 53l284 664q15 29 35 29h125q16 0 25.5 -8t9.5 -21q0 -9 -6 -23l-318 -712q-47 -108 -110 -135v-582q0 -17 -11 -29t-26 -12h-113q-15 0 -26 12t-11 29v582 q-60 23 -110 135l-316 712q-6 14 -6 23zM506 -128q0 15 13 28t28 13h80q17 0 29 -13t12 -28v-166q0 -17 -12 -28t-29 -11h-80q-15 0 -28 11t-13 28v166z" />
<glyph unicode="&#x1ef5;" horiz-adv-x="1065" d="M66 1092q0 34 36 34h113q12 0 22 -10t13 -22l242 -889q11 -45 38 -45h33l250 936q3 13 14 21.5t25 8.5h115q32 0 32 -34q0 -11 -2 -15l-338 -1179q-33 -117 -75 -181t-112 -93.5t-187 -29.5q-90 0 -172 19q-43 10 -43 33v75q0 33 39 33h6q135 -12 182 -12 q91 0 134.5 35.5t68.5 138.5l20 84h-28q-55 0 -90 26t-62 115l-272 936q-2 4 -2 15zM717 -128q0 15 13 28t28 13h80q17 0 29 -13t12 -28v-166q0 -17 -12 -28t-29 -11h-80q-15 0 -28 11t-13 28v166z" />
<glyph unicode="&#x1ef6;" horiz-adv-x="1167" d="M57 1493q0 12 9.5 20.5t25.5 8.5h125q10 0 21.5 -9.5t15.5 -19.5l283 -664q23 -53 47 -53q23 0 47 53l284 664q15 29 35 29h125q16 0 25.5 -8t9.5 -21q0 -9 -6 -23l-318 -712q-47 -108 -110 -135v-582q0 -17 -11 -29t-26 -12h-113q-15 0 -26 12t-11 29v582 q-60 23 -110 135l-316 712q-6 14 -6 23zM412 1991v41q0 14 9.5 22t19.5 12q26 12 73 23t96 11q90 0 145 -36t55 -114v-10q0 -23 -7 -45t-25 -48t-51 -64l-38 -43q-23 -27 -27.5 -33.5t-8.5 -17t-4 -25.5v-42q0 -14 -13 -26t-34 -12h-37q-21 0 -33.5 12.5t-12.5 25.5v42 q0 30 5.5 51.5t19 42.5t36.5 46l39 43q29 33 38 51.5t9 41.5v10q-5 39 -47 39t-73 -6.5t-77 -21.5q-57 -19 -57 30z" />
<glyph unicode="&#x1ef7;" horiz-adv-x="1065" d="M66 1092q0 34 36 34h113q12 0 22 -10t13 -22l242 -889q11 -45 38 -45h33l250 936q3 13 14 21.5t25 8.5h115q32 0 32 -34q0 -11 -2 -15l-338 -1179q-33 -117 -75 -181t-112 -93.5t-187 -29.5q-90 0 -172 19q-43 10 -43 33v75q0 33 39 33h6q135 -12 182 -12 q91 0 134.5 35.5t68.5 138.5l20 84h-28q-55 0 -90 26t-62 115l-272 936q-2 4 -2 15zM361 1630v41q0 14 9.5 22t19.5 12q26 12 73 23t96 11q90 0 145 -36t55 -114v-10q0 -23 -7 -45t-25 -48t-51 -64l-38 -43q-23 -27 -27.5 -33.5t-8.5 -17t-4 -25.5v-42q0 -14 -13 -26 t-34 -12h-37q-21 0 -33.5 12.5t-12.5 25.5v42q0 30 5.5 51.5t19 42.5t36.5 46l39 43q29 33 38 51.5t9 41.5v10q-5 39 -47 39t-73 -6.5t-77 -21.5q-57 -19 -57 30z" />
<glyph unicode="&#x1ef8;" horiz-adv-x="1167" d="M57 1493q0 12 9.5 20.5t25.5 8.5h125q10 0 21.5 -9.5t15.5 -19.5l283 -664q23 -53 47 -53q23 0 47 53l284 664q15 29 35 29h125q16 0 25.5 -8t9.5 -21q0 -9 -6 -23l-318 -712q-47 -108 -110 -135v-582q0 -17 -11 -29t-26 -12h-113q-15 0 -26 12t-11 29v582 q-60 23 -110 135l-316 712q-6 14 -6 23zM243 1667v43q0 109 51.5 166t143.5 57q60 0 123 -49l145 -114q20 -14 39 -21.5t33 -7.5q32 0 46.5 20t14.5 70v47q0 14 10.5 24.5t24.5 10.5h64q13 0 23 -11t10 -24v-47q0 -108 -46 -161.5t-147 -53.5q-76 0 -131 43l-125 100 q-34 29 -49.5 37t-34.5 8q-35 0 -49 -23t-14 -71v-43q0 -15 -10 -25t-25 -10h-64q-14 0 -23.5 10.5t-9.5 24.5z" />
<glyph unicode="&#x1ef9;" horiz-adv-x="1065" d="M66 1092q0 34 36 34h113q12 0 22 -10t13 -22l242 -889q11 -45 38 -45h33l250 936q3 13 14 21.5t25 8.5h115q32 0 32 -34q0 -11 -2 -15l-338 -1179q-33 -117 -75 -181t-112 -93.5t-187 -29.5q-90 0 -172 19q-43 10 -43 33v75q0 33 39 33h6q135 -12 182 -12 q91 0 134.5 35.5t68.5 138.5l20 84h-28q-55 0 -90 26t-62 115l-272 936q-2 4 -2 15zM185 1333v43q0 109 51.5 166t143.5 57q60 0 123 -49l145 -114q20 -14 39 -21.5t33 -7.5q32 0 46.5 20t14.5 70v47q0 14 10.5 24.5t24.5 10.5h64q13 0 23 -11t10 -24v-47q0 -108 -46 -161.5 t-147 -53.5q-76 0 -131 43l-125 100q-34 29 -49.5 37t-34.5 8q-35 0 -49 -23t-14 -71v-43q0 -15 -10 -25t-25 -10h-64q-14 0 -23.5 10.5t-9.5 24.5z" />
<glyph unicode="&#x2000;" horiz-adv-x="1185" />
<glyph unicode="&#x2001;" horiz-adv-x="2371" />
<glyph unicode="&#x2002;" horiz-adv-x="1185" />
<glyph unicode="&#x2003;" horiz-adv-x="2371" />
<glyph unicode="&#x2004;" horiz-adv-x="790" />
<glyph unicode="&#x2005;" horiz-adv-x="592" />
<glyph unicode="&#x2006;" horiz-adv-x="395" />
<glyph unicode="&#x2007;" horiz-adv-x="395" />
<glyph unicode="&#x2008;" horiz-adv-x="296" />
<glyph unicode="&#x2009;" horiz-adv-x="474" />
<glyph unicode="&#x200a;" horiz-adv-x="131" />
<glyph unicode="&#x2010;" horiz-adv-x="645" d="M80 551v96q0 17 11 27t28 10h407q39 0 39 -37v-96q0 -35 -39 -35h-407q-39 0 -39 35z" />
<glyph unicode="&#x2011;" horiz-adv-x="645" d="M80 551v96q0 17 11 27t28 10h407q39 0 39 -37v-96q0 -35 -39 -35h-407q-39 0 -39 35z" />
<glyph unicode="&#x2012;" horiz-adv-x="645" d="M80 551v96q0 17 11 27t28 10h407q39 0 39 -37v-96q0 -35 -39 -35h-407q-39 0 -39 35z" />
<glyph unicode="&#x2013;" horiz-adv-x="1184" d="M80 551v96q0 17 23 27t59 10h860q82 0 82 -37v-96q0 -35 -82 -35h-860q-82 0 -82 35z" />
<glyph unicode="&#x2014;" horiz-adv-x="2208" d="M80 551v96q0 17 46.5 27t118.5 10h1718q165 0 165 -37v-96q0 -35 -165 -35h-1718q-165 0 -165 35z" />
<glyph unicode="&#x2018;" horiz-adv-x="362" d="M49 1098q0 10 2 16l125 387q11 39 39 39h94q19 0 19 -20q0 -13 -2 -19l-76 -387q-8 -39 -41 -39h-137q-23 0 -23 23z" />
<glyph unicode="&#x2019;" horiz-adv-x="362" d="M35 1096q0 12 2 18l76 387q8 39 41 39h137q22 0 22 -22q0 -11 -2 -17l-125 -387q-11 -39 -39 -39h-94q-18 0 -18 21z" />
<glyph unicode="&#x201c;" horiz-adv-x="672" d="M35 1098q0 10 2 16l125 387q11 39 39 39h94q18 0 18 -20q0 -13 -2 -19l-75 -387q-9 -39 -41 -39h-138q-22 0 -22 23zM358 1098q0 10 2 16l125 387q12 39 39 39h94q19 0 19 -20q0 -13 -2 -19l-76 -387q-8 -39 -41 -39h-137q-23 0 -23 23z" />
<glyph unicode="&#x201d;" horiz-adv-x="672" d="M35 1096q0 12 2 18l76 387q8 39 41 39h137q22 0 22 -22q0 -11 -2 -17l-125 -387q-11 -39 -39 -39h-94q-18 0 -18 21zM358 1096q0 12 2 18l76 387q8 39 41 39h137q23 0 23 -22q0 -11 -2 -17l-125 -387q-11 -39 -39 -39h-94q-19 0 -19 21z" />
<glyph unicode="&#x2026;" horiz-adv-x="1200" d="M82 39v192q0 16 12 27.5t29 11.5h115q17 0 27.5 -11.5t10.5 -27.5v-192q0 -17 -11 -28t-27 -11h-115q-17 0 -29 11t-12 28zM504 39v192q0 15 11.5 27t27.5 12h114q18 0 29.5 -11.5t11.5 -27.5v-192q0 -17 -12 -28t-29 -11h-114q-16 0 -27.5 11.5t-11.5 27.5zM924 39v192 q0 16 12 27.5t29 11.5h114q17 0 28 -11t11 -28v-192q0 -17 -11.5 -28t-27.5 -11h-114q-17 0 -29 11t-12 28z" />
<glyph unicode="&#x202f;" horiz-adv-x="474" />
<glyph unicode="&#x205f;" horiz-adv-x="592" />
<glyph unicode="&#x2122;" horiz-adv-x="1034" d="M41 1470v33q0 21 20 21h345q9 0 15.5 -5.5t6.5 -15.5v-33q0 -18 -22 -18h-130v-446q0 -21 -20 -21h-43q-20 0 -20 21v446h-132q-20 0 -20 18zM483 999v502q0 7 7 14t14 7h82q17 0 22 -13l101 -231q3 -8 8 -8t8 8l100 231q5 13 23 13h82q7 0 13.5 -6.5t6.5 -14.5v-502 q0 -14 -14 -14h-49q-15 0 -15 14v426h-2l-77 -168q-14 -29 -31 -44t-45 -15t-45 15t-31 44l-78 168h-2v-426q0 -14 -14 -14h-49q-15 0 -15 14z" />
<glyph unicode="&#x25fc;" horiz-adv-x="1125" d="M0 0v1125h1125v-1125h-1125z" />
</font>
</defs>
</svg>
