<?xml version="1.0" standalone="no"?>
<!DOCTYPE svg PUBLIC "-//W3C//DTD SVG 1.1//EN" "http://www.w3.org/Graphics/SVG/1.1/DTD/svg11.dtd" >
<svg xmlns="http://www.w3.org/2000/svg">
<metadata></metadata>
<defs>
<font id="utm_aristoteregular" horiz-adv-x="1393" >
<font-face units-per-em="2048" ascent="1638" descent="-410" />
<missing-glyph horiz-adv-x="788" />
<glyph unicode="&#xd;" horiz-adv-x="571" />
<glyph unicode=" "  horiz-adv-x="788" />
<glyph unicode="&#x09;" horiz-adv-x="788" />
<glyph unicode="&#xa0;" horiz-adv-x="788" />
<glyph unicode="!" horiz-adv-x="854" d="M80 180q0 -82 51.5 -140t147.5 -58q90 0 141 60.5t51 141.5q0 51 -22 96.5t-66 73t-104 27.5q-91 0 -145 -62t-54 -139zM317 528h45l531 1092l-492 -78z" />
<glyph unicode="&#x22;" horiz-adv-x="1208" d="M270 975h150l342 645h-389zM717 975h147l342 645h-381z" />
<glyph unicode="#" horiz-adv-x="973" d="M43 396h197l-139 -400h122l138 400h180l-137 -400h125l135 400h176l41 108h-176l59 176h180l37 109h-176l127 370h-123l-129 -370h-180l129 370h-125l-127 -370h-192l-37 -109h192l-59 -176h-197zM396 504l65 176h180l-57 -176h-188z" />
<glyph unicode="$" horiz-adv-x="1358" d="M4 264q0 -80 58 -135t135.5 -85t167.5 -50l-58 -180h78l70 180q169 0 340.5 59t284 181t112.5 301q0 110 -53 196.5t-130.5 149.5t-191.5 133l201 567q107 -40 162 -113t69 -184q6 -20 19 -20q25 0 58.5 69.5t33.5 100.5q0 48 -17 83t-53.5 62t-99 47.5t-139.5 32.5 l45 117h-99l-36 -117q-179 0 -345 -52.5t-273 -170.5t-107 -299q0 -85 34.5 -154.5t114 -137.5t225.5 -155l-219 -620q-80 13 -134 67t-79.5 132.5t-25.5 162.5q0 19 -19 19q-42 0 -85.5 -70t-43.5 -117zM475 57l207 582q219 -134 219 -285q0 -82 -51.5 -150t-139 -107.5 t-190.5 -39.5h-45zM547 1329q0 75 35.5 129.5t93 85.5t126 44.5t138.5 13.5l-195 -543q-75 55 -117.5 97.5t-61.5 84t-19 88.5z" />
<glyph unicode="%" horiz-adv-x="1884" d="M168 897q0 -100 33.5 -169t100.5 -104.5t163 -35.5q134 0 244 83t171.5 213.5t61.5 264.5q0 96 -36.5 167.5t-106 110.5t-160.5 39q-125 0 -233 -79t-173 -210t-65 -280zM336 6l129 -6l1233 1473h-135zM367 723q0 55 28 171.5t75 240t100.5 205t101.5 81.5q38 0 57 -26 t19 -72q0 -58 -48.5 -233t-118 -316t-137.5 -141q-37 0 -57 25.5t-20 64.5zM1083 315q0 -151 77 -233t222 -82q134 0 244 83t172 214.5t62 269.5q0 93 -39 166t-109 112.5t-162 39.5q-121 0 -228.5 -79t-173 -210.5t-65.5 -280.5zM1278 135q0 87 54.5 262.5t125.5 319.5 q18 41 60.5 75.5t80.5 34.5q60 0 60 -92q0 -69 -46 -239.5t-115 -307.5t-136 -137q-38 0 -61 23t-23 61z" />
<glyph unicode="&#x26;" d="M76 315q0 -91 48.5 -163.5t136.5 -112t204 -39.5q269 0 477 199l111 -224l321 134l-153 303q38 60 66 119t51.5 128.5t50.5 165.5h-123v-39q0 -137 -72 -321l-213 420q88 43 148.5 92.5t91 104.5t30.5 112q0 81 -63 127.5t-162 46.5q-92 0 -169.5 -24.5t-132.5 -69 t-86.5 -108.5t-31.5 -140q0 -108 45 -219q-191 -52 -319.5 -125t-192 -165t-63.5 -202zM432 328q0 112 56 217.5t176 222.5l260 -530q-154 -142 -285 -142q-92 0 -149.5 63t-57.5 169zM909 1161q0 75 33.5 124.5t77.5 49.5t70 -38t26 -97q0 -168 -147 -276q-30 60 -45 115.5 t-15 121.5z" />
<glyph unicode="'" horiz-adv-x="819" d="M283 975h149l342 645h-387z" />
<glyph unicode="(" horiz-adv-x="1024" d="M51 225q0 -116 16 -219t53.5 -212.5t98.5 -237.5l33 6q22 303 126 692.5t265.5 759.5t337.5 606l-27 20q-198 -108 -364.5 -256.5t-288 -331.5t-186 -392t-64.5 -435z" />
<glyph unicode=")" horiz-adv-x="819" d="M-180 -420l33 -24q272 154 474 365.5t315.5 479.5t113.5 574q0 113 -16.5 219t-52 214.5t-93.5 231.5h-39q-18 -229 -83.5 -512.5t-166.5 -576t-225 -545.5t-260 -426z" />
<glyph unicode="*" horiz-adv-x="1126" d="M283 1071q0 -47 39 -85t84 -38q38 0 82.5 50t99 133t63.5 96q0 -20 -10 -105t-10 -133q0 -158 104 -158q53 0 91 30.5t38 74.5q0 36 -29.5 81t-85 113.5t-71.5 96.5q22 -9 58.5 -26.5t80 -34.5t85 -28.5t73.5 -11.5q102 0 102 113q0 107 -98 107q-46 0 -97.5 -17.5 t-119 -45.5t-84.5 -32q16 26 76 98.5t92.5 118.5t32.5 74q0 41 -39.5 73t-91.5 32q-107 0 -107 -162q0 -22 3.5 -59t7.5 -75t5 -46l-6 -39q-15 17 -71.5 103t-92.5 129.5t-67 43.5q-49 0 -86 -39.5t-37 -89.5q0 -48 61 -80.5t165 -58t116 -29.5q-10 -3 -90.5 -21.5 t-133 -35.5t-92.5 -46t-40 -71z" />
<glyph unicode="+" horiz-adv-x="1290" d="M51 600h490l-174 -510h182l174 510h504l51 162h-498l174 504h-174l-174 -504h-504z" />
<glyph unicode="," horiz-adv-x="719" d="M-8 -360l24 -39q79 49 159 106.5t154.5 126t124.5 147t50 154.5q0 103 -101 187l-360 -207l18 -39l33 8q38 0 64 -32t26 -83q0 -82 -50.5 -169.5t-141.5 -159.5z" />
<glyph unicode="-" horiz-adv-x="385" d="M-96 289h345l79 111h-340z" />
<glyph unicode="." horiz-adv-x="532" d="M90 125q0 -57 37 -98q37 -43 105 -43q65 0 100 41t35 100q0 53 -37 98q-37 46 -98 46q-68 0 -105 -41q-37 -43 -37 -103z" />
<glyph unicode="/" horiz-adv-x="1290" d="M-367 -432h154l1317 2052h-156z" />
<glyph unicode="0" horiz-adv-x="1331" d="M63 522q0 -152 58 -276t161 -194t234 -70q163 0 308 81t251 215.5t164.5 296.5t58.5 322q0 153 -57 272.5t-161.5 185.5t-239.5 66q-163 0 -306.5 -78.5t-250 -211t-163.5 -291.5t-57 -318zM348 213q0 76 31.5 210.5t88.5 297.5t132 326q76 176 141 251.5t144 75.5 q59 0 97 -46.5t38 -121.5q0 -78 -42 -237t-104 -333.5t-106 -268.5q-76 -184 -142.5 -260t-142.5 -76q-135 0 -135 182z" />
<glyph unicode="1" horiz-adv-x="1229" d="M270 852l426 231l-407 -1108l395 82l510 1401l-891 -495z" />
<glyph unicode="2" horiz-adv-x="1311" d="M-96 12l33 -30q75 86 213 86q57 0 118.5 -11t164.5 -35.5t139.5 -32t78.5 -7.5q142 0 268 66.5t218 189.5l-39 32q-54 -73 -156 -73q-41 0 -82 9t-119.5 32.5t-133 37t-91.5 13.5q-93 0 -182.5 -27.5t-171 -75.5t-162.5 -110q84 118 207.5 196t340.5 170t308.5 136 t190.5 133q56 50 98.5 112.5t65 129t22.5 130.5q0 107 -55 182.5t-159.5 115.5t-244.5 40q-158 0 -280 -55.5t-189 -155.5t-67 -229q0 -66 16.5 -122.5t54.5 -129.5l39 12q-14 49 -14 117q0 87 27.5 176t79 163t123 119.5t159.5 45.5q73 0 117.5 -49.5t44.5 -130.5 q0 -169 -103 -305t-342.5 -326.5t-348.5 -288.5t-187 -250z" />
<glyph unicode="3" horiz-adv-x="1249" d="M-18 252l24 -195q91 -39 193.5 -59.5t203.5 -20.5q134 0 263 35.5t231 102.5q96 73 151.5 169.5t55.5 198.5q0 154 -108.5 208.5t-305.5 82.5q211 6 371 85t160 263q0 146 -119 222.5t-346 76.5q-64 0 -125 -6t-131.5 -19.5t-126.5 -27.5l-58 -207l66 -6 q51 100 131.5 153.5t177.5 53.5q79 0 123.5 -36t44.5 -99q0 -66 -24 -143t-67 -142.5t-102.5 -106t-129.5 -40.5q-59 0 -99 21t-69 69l-103 -221l33 -13q45 40 110 64t134 24q86 0 143 -44.5t57 -139.5q0 -78 -30.5 -169t-87.5 -171.5t-131.5 -129t-155.5 -48.5 q-111 0 -180.5 62t-104.5 190z" />
<glyph unicode="4" d="M-90 322h702l-108 -347l381 76l78 252l186 -14l123 227h-234l312 950zM252 522l573 465l-147 -471z" />
<glyph unicode="5" horiz-adv-x="1290" d="M-18 270l6 -200q171 -90 387 -90q193 0 368.5 74t284.5 218t109 340q0 170 -109 244t-280 74q-101 0 -212 -23.5t-194 -60.5l115 309h659l144 246h-795l-240 -645l39 -21q60 34 165 70.5t187 36.5q158 0 158 -146q0 -92 -32 -206t-90.5 -217t-142.5 -169.5t-181 -66.5 q-111 0 -184.5 71t-92.5 201z" />
<glyph unicode="6" horiz-adv-x="1290" d="M57 412q0 -93 35 -173t103 -138.5t158 -88.5t196 -30q178 0 332.5 82.5t247 222t92.5 301.5q0 108 -58.5 187.5t-152.5 120t-199 40.5q-76 0 -139 -21q106 151 274.5 318t313.5 264h-117q-92 -54 -314.5 -188t-387 -267.5t-274.5 -295t-110 -334.5zM367 186 q0 102 57.5 274t148.5 301.5t189 129.5q59 0 97 -36t38 -99q0 -55 -24.5 -145.5t-64.5 -192.5t-85.5 -189t-83.5 -133q-65 -65 -135 -65q-59 0 -98 44t-39 111z" />
<glyph unicode="7" horiz-adv-x="1495" d="M199 -25l524 127q53 130 140.5 305t187 353.5t208 349t187.5 264.5l-19 15q-101 -39 -221 -39q-56 0 -146 13t-163.5 26.5t-136.5 22.5t-135 9q-110 0 -212 -115.5t-208 -279.5l78 -51q30 76 65 129q121 -33 252 -33q354 0 735 246q-172 -154 -326 -309.5t-294.5 -320 t-266.5 -337.5t-249 -375z" />
<glyph unicode="8" horiz-adv-x="1331" d="M31 309q0 -146 123 -240t329 -94q178 0 322 56t224.5 155t80.5 226q0 96 -43 177.5t-152 196.5q369 111 369 357q0 81 -52.5 145.5t-148 98.5t-219.5 34q-92 0 -190.5 -25t-180 -75t-133 -130t-51.5 -183q0 -80 37.5 -155.5t118.5 -162.5q-74 -13 -155 -45t-142 -76 t-99 -110.5t-38 -149.5zM180 309q0 127 86.5 220.5t229.5 121.5q132 -108 208 -192.5t76 -188.5q0 -69 -37.5 -125t-105 -88t-154.5 -32q-88 0 -156 35t-107.5 99.5t-39.5 149.5zM639 1161q0 99 74.5 154t177.5 55q71 0 132 -26t99.5 -77.5t38.5 -123.5q0 -65 -33 -125.5 t-93.5 -111t-149.5 -87.5q-84 71 -129 113.5t-81 101.5t-36 127z" />
<glyph unicode="9" horiz-adv-x="1331" d="M102 -102h111q115 69 324 197t375 262.5t276 296t110 333.5q0 97 -35 176.5t-100 137t-157 89t-199 31.5q-175 0 -330 -82.5t-245.5 -221.5t-90.5 -298q0 -113 53 -193t142 -121.5t188 -41.5q86 0 160 26q-44 -66 -117.5 -151.5t-153 -165t-157.5 -148.5t-154 -126z M465 651q0 62 23 152t63 191t83.5 183.5t82.5 127.5q69 69 141 69q57 0 93 -45t36 -108q0 -100 -55.5 -274.5t-146.5 -305.5t-197 -131q-58 0 -90.5 38.5t-32.5 102.5z" />
<glyph unicode=":" horiz-adv-x="737" d="M115 180q0 -54 22.5 -99t67.5 -72t110 -27q64 0 108.5 28.5t67.5 74.5t23 99q0 84 -52 143.5t-147 59.5q-91 0 -145.5 -62.5t-54.5 -144.5zM283 729q0 -54 22.5 -100t68 -73.5t109.5 -27.5q90 0 140.5 58t50.5 141q0 82 -51 142.5t-140 60.5q-91 0 -145.5 -61.5 t-54.5 -139.5z" />
<glyph unicode=";" horiz-adv-x="737" d="M-8 -360l24 -39q79 49 159 106.5t154.5 126t124.5 147t50 154.5q0 103 -101 187l-360 -207l18 -39l33 8q38 0 64 -32t26 -83q0 -82 -50.5 -169.5t-141.5 -159.5zM281 729q0 -54 22.5 -100t68 -73.5t109.5 -27.5q88 0 137.5 58t49.5 141q0 81 -50.5 142t-136.5 61 q-91 0 -145.5 -61.5t-54.5 -139.5z" />
<glyph unicode="&#x3c;" horiz-adv-x="1434" d="M147 897l789 -711l156 459l-428 387l686 357l57 174l-1253 -639z" />
<glyph unicode="=" horiz-adv-x="1337" d="M-33 420h1174l59 160h-1175zM88 774h1182l53 162h-1176z" />
<glyph unicode="&#x3e;" horiz-adv-x="1229" d="M-96 186l1257 639v21l-788 717l-154 -459l432 -393l-688 -351z" />
<glyph unicode="?" horiz-adv-x="1126" d="M141 180q0 -83 52 -140.5t149 -57.5q90 0 140 59.5t50 140.5q0 83 -49 141t-141 58q-60 0 -106.5 -29.5t-70.5 -75.5t-24 -96zM154 801q0 -128 84 -184t213 -56q110 0 221 33l45 117l-27 18q-18 -18 -58.5 -46.5t-86.5 -51.5t-80 -23q-53 0 -53 64q0 48 107 121.5 t225.5 151t200 170t81.5 208.5q0 86 -48.5 157.5t-134 112.5t-192.5 41q-91 0 -169 -29t-133 -81.5t-86.5 -127.5t-31.5 -163l7 -90l51 6q7 73 44.5 146t94.5 133.5t125 97.5t131 37q44 0 73 -22.5t29 -61.5q0 -70 -66 -124t-233.5 -163t-250 -196t-82.5 -195z" />
<glyph unicode="@" horiz-adv-x="1304" d="M100 391q0 -159 143 -268q142 -110 349 -110q129 0 252 36q61 19 124 45q64 25 127 58q37 16 37 45q0 22 -26 22q-13 0 -35 -14q-127 -59 -236 -94q-67 -19 -126.5 -29t-120.5 -10q-152 0 -240 63q-43 31 -65.5 74t-22.5 103q0 233 180 489q199 279 420 279 q123 0 199 -72q73 -72 73 -180q0 -113 -55 -260q-68 -181 -162 -181q-37 0 -41 31l6 35l115 303l-172 -29q-27 33 -96 33q-123 0 -213 -96t-90 -211q0 -62 35 -88q10 -8 34 -17q25 -10 62 -10q28 0 42.5 2t57.5 15q41 12 70 32q28 -51 131 -51q164 0 284 139 q119 138 119 310q0 145 -116 247q-119 101 -287 101q-262 0 -508 -238q-248 -239 -248 -504zM596 428q0 29 18 84l53 140q35 73 86 73q25 0 52 -20l-88 -221q-2 -15 -5 -19l-8 -33l4 -20l-41 -16l-34 -9q-37 0 -37 41z" />
<glyph unicode="A" horiz-adv-x="2355" d="M-76 315q0 -99 59.5 -176.5t169 -120.5t253.5 -43q164 0 306 46t269 142t236.5 236.5t209.5 335.5q44 0 61.5 -0.5t39.5 -1.5t50.5 -2t61.5 -2l-135 -369q-39 -94 -39 -167q0 -103 83.5 -163.5t232.5 -60.5q70 0 138.5 10.5t134 32t129 54t134.5 81.5v58 q-99 -71 -209.5 -119.5t-177.5 -48.5q-102 0 -102 88q0 30 12 68l199 536q36 -3 87 -4.5t120 -1.5l65 96q-96 -12 -239 -12l161 420q39 110 39 211q0 94 -49 151.5t-164 57.5q-119 0 -226 -86.5t-196 -221t-129.5 -218.5t-146.5 -314q-39 0 -120 2t-121 3.5t-101.5 3 t-142.5 1.5q-171 0 -316.5 -19t-277.5 -69q-168 -58 -263.5 -169.5t-95.5 -244.5zM252 309q0 118 55.5 206.5t148.5 145t202 82t221 25.5q41 0 134.5 -2.5t174.5 -9t141 -15.5q-67 -153 -159.5 -281t-199 -221t-221 -143.5t-221.5 -50.5q-83 0 -145.5 33t-96.5 93.5 t-34 137.5zM1458 801q58 128 105.5 234t100 201.5t121.5 186.5t152 158l13 8v-47l-277 -741l-92 -6z" />
<glyph unicode="B" horiz-adv-x="2042" d="M10 846q0 -68 15 -136.5t44.5 -132.5t69.5 -112l51 45q-112 108 -112 244q0 149 118.5 306.5t272.5 268.5q130 95 252.5 154.5t250.5 89t265 29.5q389 0 389 -273q0 -91 -41 -183.5t-108.5 -160.5t-147.5 -94q-21 -4 -34 -17t-13 -22q0 -19 37 -31t103.5 -33t105.5 -67.5 t39 -132.5q0 -146 -64 -255t-172.5 -178.5t-237.5 -103t-262 -33.5q-260 0 -458 27q164 31 295.5 90.5t231 147t171 209t115.5 276.5l219 774l-19 8l-393 -176q-23 -59 -46.5 -126.5t-70 -212t-66.5 -209.5t-56 -181q-35 -124 -75 -220t-100 -176.5t-152 -135.5t-216 -76 v-37q87 -9 158 -14t160.5 -9t207.5 -6t178 -2q168 0 289.5 11t216 33.5t185.5 62.5q106 49 179.5 113t111.5 140.5t38 159.5q0 130 -89.5 207.5t-208 111t-269.5 56.5q121 21 220.5 45t192 67t153.5 118t61 184q0 115 -93 198.5t-267 127t-416 43.5q-209 0 -418 -40 t-387 -129.5t-291 -248t-113 -383.5z" />
<glyph unicode="C" horiz-adv-x="1597" d="M51 633q0 -153 54.5 -279t155.5 -215t244.5 -136.5t313.5 -47.5q103 0 196.5 13.5t192.5 39t199 61.5t182 72l-14 39q-148 -53 -270.5 -90.5t-249.5 -60.5t-254 -23q-114 0 -211.5 33t-160 107.5t-62.5 189.5q0 152 72 372t196 428t280 343t318 135q67 0 122 -32 t86.5 -88.5t31.5 -125.5q0 -102 -77 -258t-200 -311t-255.5 -255t-238.5 -100q-44 0 -73 30.5t-29 80.5q0 113 112 245t260 242.5t267 171.5l-12 37q-162 -61 -316.5 -155.5t-262 -230t-107.5 -292.5q0 -87 70.5 -139.5t183.5 -52.5q138 0 282.5 74t261.5 197.5t186.5 273.5 t69.5 301q0 204 -116.5 318t-329.5 114q-209 0 -409 -83.5t-355 -228t-244.5 -331.5t-89.5 -383z" />
<glyph unicode="D" horiz-adv-x="2320" d="M-29 735q0 -95 35.5 -172t114.5 -151l37 32q-88 88 -88 213q0 75 30.5 154t84 161t108.5 144.5t117 122.5q191 180 418 268t507 88q594 0 594 -479q0 -193 -74 -389t-206.5 -357t-309.5 -256.5t-372 -95.5l-285 19h-39q228 54 364.5 211.5t234 427.5t169.5 480t168 355 l-25 25q-190 -96 -304.5 -183.5t-187 -186.5t-122.5 -222t-123 -350q-49 -161 -88.5 -271.5t-71.5 -171t-64.5 -87.5t-72.5 -27v-43q139 -14 239.5 -20.5t207.5 -6.5q272 0 503 57t414 195q117 92 206.5 215.5t138 261.5t48.5 273q0 154 -69.5 278.5t-199 212.5t-312 134 t-408.5 46q-210 0 -438 -51.5t-429 -161.5t-325.5 -284.5t-124.5 -407.5z" />
<glyph unicode="E" horiz-adv-x="1556" d="M-63 354q0 -125 81.5 -215t234.5 -137t365 -47q152 0 292.5 28.5t250.5 79.5q153 70 238.5 170t85.5 205q0 120 -142 234l-20 -39q53 -29 53 -86q0 -56 -38 -119.5t-78 -105.5q-65 -71 -144 -131t-165 -104.5t-174.5 -68.5t-164.5 -24q-80 0 -144.5 37t-102 101.5 t-37.5 143.5q0 152 93 274t296 236q42 28 66.5 67t47.5 103.5t33 90.5q13 29 58.5 143.5t84.5 193.5t90 138t103 59q39 0 64.5 -28t25.5 -74q0 -48 -25 -110.5t-70.5 -130t-105.5 -127.5t-120 -97l24 -33q202 75 308 181t106 233q0 73 -48 133.5t-134.5 95.5t-192.5 35 q-130 0 -231.5 -51t-157 -145.5t-55.5 -217.5q0 -67 23.5 -138.5t57 -143t33.5 -78.5q0 -16 -21.5 -27.5t-55.5 -11.5q-119 0 -237 -26t-222.5 -86t-166.5 -155.5t-62 -224.5z" />
<glyph unicode="F" horiz-adv-x="2437" d="M-16 555q0 -261 163 -471l27 31q-37 95 -56.5 204.5t-19.5 223.5q0 159 37.5 311.5t114.5 274t198 194t281 72.5q36 0 64 -3t60.5 -7.5t76.5 -10.5l354 -63q95 -19 232 -41t264.5 -37t255.5 -24t243 -9q38 0 58.5 9.5t33.5 34t31 79.5l19 66q12 24 12 41q0 36 -70 43 q-136 7 -260 28.5t-343 68t-356 68t-282 21.5q-208 0 -412 -93t-368 -251.5t-261 -358t-97 -401.5zM801 -264q0 -58 51 -103t117 -45q93 0 213 63.5t219 168.5q95 93 159 213.5t104.5 254.5t72.5 285q44 -1 128.5 -5t148.5 -7t128 -4.5t105 -1.5q14 0 22.5 6.5t22.5 26.5 l39 51q34 45 34 70q0 20 -28 20q-113 0 -305.5 -9t-262.5 -9q3 11 21.5 103t33 145.5t38 107.5t55.5 94l-39 33q-78 -31 -149.5 -75.5t-130.5 -103.5t-109 -135.5t-94 -168.5h-297q-42 0 -73.5 -23t-31.5 -49q0 -39 66 -39l84 6q46 0 74 -25.5t28 -64.5q0 -42 -53 -124 t-165.5 -236t-169 -252.5t-56.5 -167.5zM942 -283q0 48 24 109t65.5 138t60.5 120l122 252q31 59 48.5 100t17.5 82q0 56 -41 88l123 -6q-2 -9 -45.5 -203t-91 -357.5t-105 -275.5t-121.5 -112q-22 0 -39.5 18.5t-17.5 46.5z" />
<glyph unicode="G" horiz-adv-x="2130" d="M-147 315q82 0 136 7.5t140 25.5q12 -119 76.5 -209t173.5 -137t254 -47q115 0 229 29t218 83.5t198 137.5q-28 -92 -49 -164t-47 -125q-70 -19 -153 -41.5t-168 -57t-144.5 -84.5t-59.5 -114q0 -56 39.5 -85.5t104.5 -29.5q101 0 210 51t200 119t202 166 q120 26 238.5 74.5t222.5 104t244 135.5v45q-331 -171 -600 -217q70 79 116 167.5t97 237.5l161 516l-419 -96l-168 -524q-115 -97 -253 -167.5t-257 -70.5q-103 0 -164 59.5t-86.5 149t-28.5 190.5q163 53 325 125.5t337.5 172.5t326.5 206.5t264 212.5q94 94 137.5 164.5 t43.5 132.5q0 61 -37.5 106.5t-109.5 70t-169 24.5q-246 0 -513 -92t-492 -259.5t-362.5 -396t-137.5 -491.5q-103 -14 -219 -14h-19zM522 496q19 175 83.5 363t177 353.5t268 267t344.5 101.5q69 0 127 -30.5t91.5 -82.5t33.5 -112q0 -135 -120.5 -269.5t-300 -248 t-367 -200.5t-337.5 -142zM711 -399q0 92 140 134.5t271 51.5q-179 -244 -336 -244q-75 0 -75 58z" />
<glyph unicode="H" horiz-adv-x="2580" d="M141 1167l52 -6q46 108 138 149.5t224 41.5q47 0 94 -3.5t110 -10.5t115.5 -11t79.5 -4q73 0 180 22t218 59.5t198 80.5l6 -6q-128 -65 -221 -134.5t-163.5 -153t-122.5 -184t-95 -233.5q-166 -75 -249.5 -115.5t-197.5 -114.5t-188.5 -163.5t-74.5 -187.5q0 -91 69 -151 t170 -60q174 0 317 75.5t250.5 203.5t182 280.5t123.5 316.5q42 15 68.5 25t62 24.5t69.5 28.5l-14 -33l-90 -231q-64 -163 -90.5 -252.5t-26.5 -188.5q0 -141 102 -198.5t255 -57.5q132 0 285 51t283.5 144t211 218.5t80.5 268.5q0 189 -207 312l-39 -33q115 -75 115 -219 q0 -94 -53.5 -207t-142.5 -217.5t-194.5 -170t-197.5 -65.5q-60 0 -94.5 37.5t-34.5 98.5q0 76 27.5 186t77 249.5t94 244t86.5 192.5q291 114 427 214t136 206q0 59 -44 97t-112 38q-253 0 -467.5 -181t-333.5 -431q-42 -17 -69 -26.5t-61 -21t-91 -30.5q21 77 46.5 155 t63.5 170.5t81 163t88 99.5l-27 32q-73 -22 -156 -22q-71 0 -139.5 14t-172.5 42t-175.5 42t-142.5 14q-167 0 -307 -57.5t-241 -165t-151 -250.5zM348 135q0 80 103.5 187.5t219 191.5t253.5 176q-79 -238 -202.5 -441.5t-283.5 -203.5q-39 0 -64.5 23.5t-25.5 66.5z M2028 1143q86 149 199 287.5t202 138.5q19 0 32 -13t13 -32q0 -80 -188 -219q-136 -101 -258 -162z" />
<glyph unicode="I" horiz-adv-x="1720" d="M66 297q0 -150 121 -236t325 -86q144 0 273 28.5t242.5 85.5t209 145t166.5 204q149 -43 272 -155l33 90q-150 88 -278 116q61 119 102 252t87.5 336.5t67.5 279.5t66 167q-98 0 -178.5 12.5t-227.5 42t-252.5 45.5t-207.5 16q-128 0 -240.5 -30t-200 -88.5t-153.5 -148 t-111 -212.5l51 -12q50 136 143.5 189t227.5 53q83 0 232.5 -20.5t218.5 -20.5q127 0 293 33.5t327 89.5q-178 -99 -284.5 -232t-159.5 -257.5t-156 -416.5q-243 84 -497 84q-152 0 -269.5 -44t-180 -124t-62.5 -186zM125 264q0 135 150.5 219t392.5 84q237 0 387 -51 q-59 -117 -126 -205t-143.5 -150t-158.5 -93t-166 -31q-92 0 -169.5 29.5t-122 82t-44.5 115.5z" />
<glyph unicode="J" horiz-adv-x="1772" d="M66 729q0 -72 13 -142t41.5 -147.5t76.5 -169.5l51 27q-70 120 -70 260q0 168 88 340t219 317q134 147 297.5 234.5t344 124.5t384.5 37q65 0 197 -8q-155 -44 -271.5 -157.5t-193 -257.5t-143.5 -323l-90 -252q-66 -178 -78 -239q-108 -42 -242 -94t-248 -114.5 t-193 -154.5t-79 -209q0 -81 53.5 -131.5t141.5 -50.5q219 0 414 117.5t340.5 303.5t232.5 392q131 39 311 39h63l27 90q-142 -14 -381 -78q29 75 73 199t89 260l135 408q17 58 37 101t45 85t53 90q0 21 -65 21q-185 20 -340 20q-157 0 -298.5 -18.5t-282 -61t-261.5 -108.5 q-112 -60 -202.5 -142t-155.5 -181.5t-99 -208t-34 -218.5zM233 -252q0 80 74 166.5t187.5 167.5t213.5 138t205 108q-33 -100 -87.5 -212t-128.5 -217t-166 -173t-187 -68q-46 0 -78.5 26t-32.5 64z" />
<glyph unicode="K" horiz-adv-x="2417" d="M-141 193q54 -73 128 -122.5t166.5 -75.5t194.5 -26q161 0 336.5 63t332 169.5t267.5 230.5q74 -141 141 -234.5t138 -147.5t156.5 -77.5t197.5 -23.5q130 0 245 38t240 122l-18 38q-53 -32 -78.5 -45.5t-52.5 -19.5t-58 -6q-101 0 -173.5 56t-183.5 184.5t-209 206.5 t-240 110q31 66 51 129q204 30 389 161t330 313t256 384l-400 -57q-54 -71 -146 -220t-138 -220.5t-119.5 -159.5t-145.5 -132q34 92 74 256.5t70.5 266t87.5 202.5v7q0 10 -21 10q-19 0 -55 -8.5t-41 -8.5q-21 0 -123 13l-270 71q-117 27 -244 27q-160 0 -307.5 -49 t-273.5 -148.5t-216 -242.5l58 -33q90 246 284 246q57 -5 101.5 -12.5t146.5 -25.5t173 -26t137 -8q121 0 220 29t314 108l14 -8q-132 -56 -224.5 -132t-154.5 -170.5t-102.5 -202.5t-81.5 -269l-147 -39l114 -72q-42 -153 -97 -261t-126.5 -176.5t-165 -103t-211.5 -34.5 q-143 0 -274 51.5t-227 142.5z" />
<glyph unicode="L" horiz-adv-x="1802" d="M-168 135q0 -72 54 -112.5t145 -40.5q115 0 223 43t242 143q83 -30 186 -62t229.5 -64.5t223.5 -49.5t163 -17q96 0 225 59t259 165l-25 39q-80 -35 -158 -35q-47 0 -97 12t-108.5 33.5t-109.5 40.5q-321 120 -522 143q131 122 195.5 257.5t114.5 336t83 295t117 184.5 q34 38 85 60t99 22q42 0 76.5 -17t55 -52.5t20.5 -90.5q0 -123 -51.5 -255t-141 -248t-203.5 -191.5t-237 -93.5l24 -51q207 47 379.5 159t271.5 261t99 303q0 159 -81.5 244t-233.5 85q-90 0 -185.5 -29.5t-186 -85.5t-171.5 -136q-94 -97 -150.5 -204t-86.5 -220.5 t-59.5 -298t-33.5 -209.5l-135 14q-159 0 -295.5 -46t-217.5 -124t-81 -166zM-115 115q0 84 236 84q91 0 169.5 -6t129.5 -19q-146 -117 -389 -117q-74 0 -110 14.5t-36 43.5z" />
<glyph unicode="M" horiz-adv-x="2314" d="M-244 303q17 -152 81.5 -236.5t207.5 -84.5q228 0 431 260t337 565l168 381q192 414 279 414q14 0 22 -12t8 -27l-12 -39l-567 -1530l426 141q104 244 259 551t335.5 571.5t322.5 311.5q-80 -99 -151.5 -211t-137.5 -241t-116.5 -246t-112.5 -271q-70 -187 -96.5 -275 t-26.5 -139q0 -105 89 -164t247 -59q139 0 278.5 45t278.5 121l-6 45q-280 -143 -414 -143q-51 0 -84 23t-33 61q0 51 28.5 148t79.5 227t87.5 214.5t75.5 174.5l260 612l6 45q0 48 -38 76t-99 28q-148 0 -290 -131.5t-263.5 -329t-218.5 -402t-170 -357.5h-6l360 923 q18 43 18 87q0 58 -32.5 110t-87 82.5t-123.5 30.5q-137 0 -260.5 -90.5t-221.5 -229t-162 -265t-151 -320.5l-117 -265q-75 -165 -130.5 -261t-100.5 -130.5t-104 -34.5q-82 0 -173.5 68.5t-134.5 163.5q-3 15 -13 28t-19 13q-13 0 -13 -27z" />
<glyph unicode="N" horiz-adv-x="2482" d="M29 672q0 -65 8.5 -116t32.5 -112.5t69 -146.5l45 25q-39 91 -39 184q0 108 44 223.5t98 206t149 231.5q139 211 293.5 323t306.5 112q199 0 199 -228q0 -142 -64 -303q-92 -83 -190.5 -191.5t-180.5 -228.5t-133 -246t-51 -245q0 -90 41 -140.5t115 -50.5 q56 0 116.5 22.5t123.5 65t123 102.5t108 130q77 109 141.5 256t101 301t36.5 276v60q123 87 261.5 160.5t277 131t313.5 121.5l26 7l13 -7q-18 -18 -38.5 -32t-72.5 -45q-144 -101 -272 -222t-230.5 -266t-161.5 -305t-59 -326q0 -195 119 -312.5t313 -117.5 q71 0 138.5 16.5t120 37.5t155.5 67l-12 51q-76 -41 -163.5 -72.5t-162.5 -31.5q-160 0 -160 168q0 114 52.5 295.5t135.5 384.5t172 381.5t158 283.5q27 44 27 62q0 28 -47 28q-52 0 -182.5 -38t-276.5 -97q-135 -59 -242.5 -120.5t-207.5 -139.5q-45 210 -158 306t-316 96 q-176 0 -356 -81t-329.5 -222t-238.5 -318t-89 -354zM682 102q0 41 35 147.5t88 221.5q49 111 102.5 203t112.5 164.5t133 136.5q-20 -60 -80.5 -217.5t-129 -315.5t-131.5 -271.5t-99 -113.5q-31 0 -31 45z" />
<glyph unicode="O" horiz-adv-x="1782" d="M63 567q0 -142 47 -255.5t136.5 -193t218 -121.5t283.5 -42q203 0 388.5 86.5t331.5 239t227 344t81 389.5q0 137 -37 255.5t-104 205t-159 135.5t-198 49q-129 0 -223.5 -57.5t-153.5 -153t-86 -211.5t-27 -238q0 -52 7 -120l51 6q0 85 32 209.5t90 242t139.5 194.5 t176.5 77q72 0 114 -74.5t42 -198.5q0 -87 -16.5 -198t-50.5 -240.5t-77 -246t-96 -218.5q-107 -230 -215 -334t-244 -104q-94 0 -164.5 48.5t-107.5 139t-37 211.5q0 133 33.5 300.5t94.5 332.5t145.5 305t185.5 225l-21 25q-181 -71 -333 -179.5t-258 -242t-161 -284.5 t-55 -308z" />
<glyph unicode="P" horiz-adv-x="2404" d="M43 807q0 -100 32 -204.5t103 -229.5l45 39q-84 125 -84 264q0 119 61 237t160.5 219.5t219.5 184.5q205 154 405 225.5t428 71.5q295 0 450.5 -130.5t155.5 -379.5q0 -168 -67 -357t-187.5 -350.5t-282 -260.5t-339.5 -99q-68 0 -131 14l18 58l98 264l97 278 q103 285 198 496t222 395l-27 21q-345 -108 -542 -415.5t-343 -760.5l-108 -324l-84 -243q-46 -127 -92 -219q111 18 215 51t153 59q59 35 98 100.5t76 194.5q106 -16 201 -16q213 0 428.5 68.5t392.5 199.5t282 318t105 411q0 374 -310 523t-730 149q-210 0 -437 -45.5 t-429 -146t-326.5 -265.5t-124.5 -395z" />
<glyph unicode="Q" horiz-adv-x="1741" d="M96 63q0 -27 24 -50.5t67.5 -36.5t95.5 -13q85 0 178 21.5t211 66.5q96 -38 208.5 -92.5t228.5 -120.5t219 -135.5t169 -128.5q28 -27 47 -27q30 0 47.5 34t48.5 110q28 60 50.5 139t33.5 164l-65 24q0 -42 -12 -120q-75 66 -174 127t-206.5 111.5t-219.5 94.5 q277 137 454.5 349.5t177.5 490.5q0 150 -56.5 266t-154.5 192t-222.5 113t-262.5 37q-83 0 -163 -13.5t-155 -39t-143 -63t-129 -90.5q-85 -73 -151.5 -175.5t-103 -216t-36.5 -217.5q0 -100 31 -192.5t95.5 -181t158.5 -168.5l33 26q-8 52 -8 117q0 111 24.5 227 t61.5 222.5t90 240.5q51 128 101.5 215.5t109.5 147.5t124.5 88t141.5 28q87 0 149 -35t95.5 -100t33.5 -156q0 -151 -62.5 -360.5t-159 -408.5t-191.5 -316q-170 45 -297 45q-104 0 -201.5 -20t-172 -54t-119 -76.5t-44.5 -89.5zM141 76q0 28 46 43.5t116 15.5 q57 0 141 -16.5t144 -42.5q-135 -58 -260 -58q-74 0 -130.5 17.5t-56.5 40.5z" />
<glyph unicode="R" horiz-adv-x="2191" d="M-25 651q0 -196 121 -426l45 27q-57 92 -57 258q0 203 105.5 399t288.5 350t413 242t471 88q202 0 311 -92t109 -258q0 -192 -107.5 -354t-277 -271.5t-359.5 -162.5l15 45l90 272q54 173 97 292.5t103 247.5t130 234l-33 21q-120 -56 -225.5 -129.5t-197 -166.5 t-153.5 -196q-65 -116 -105.5 -245t-86 -324.5t-77.5 -309t-85 -217.5q127 10 285 76q55 18 90 52.5t57.5 80.5t39 101t32.5 108q84 -142 165.5 -233t189.5 -141t257 -50q98 0 193.5 22t188 64.5t169.5 98.5v59q-91 -65 -155.5 -91t-135.5 -26q-81 0 -130 35.5t-140 123 t-177 132.5t-212 45h-72v6q160 16 330 66.5t322.5 142t244.5 226.5t92 309q0 148 -85 250.5t-254 155t-410 52.5q-227 0 -476 -58.5t-463.5 -179t-347.5 -310t-133 -441.5z" />
<glyph unicode="S" horiz-adv-x="1475" d="M-115 289q0 -96 59.5 -167t170.5 -109t266 -38q137 0 271.5 29t246 92.5t181 169.5t75.5 250q102 -33 165 -60t146 -83l-26 104q-48 20 -147.5 47.5t-143.5 42.5q-8 91 -49 182.5t-112.5 218.5t-106.5 211.5t-35 170.5q0 101 57.5 176.5t134.5 75.5q111 0 111 -129 q0 -74 -32 -150.5t-103 -179.5q78 9 155.5 48t125.5 104.5t48 150.5q0 88 -81.5 141t-223.5 53q-146 0 -273 -54.5t-201.5 -147.5t-74.5 -199q0 -66 24.5 -142.5t55 -140t94.5 -179.5t85 -159q-43 9 -93.5 15.5t-112 9t-104.5 2.5q-95 0 -189 -17.5t-176 -57t-135 -110 t-53 -171.5zM154 244q0 127 71 203.5t182.5 107.5t237.5 31q64 0 123 -6q20 -68 20 -129q0 -82 -27 -159t-80 -141.5t-124.5 -101.5t-157.5 -37q-110 0 -177.5 66t-67.5 166z" />
<glyph unicode="T" horiz-adv-x="2120" d="M158 909q0 -63 16.5 -127.5t52 -138t84.5 -147.5l39 32q-65 117 -94 204.5t-29 176.5q0 156 80 261t237 158.5t382 53.5q56 0 101 -2.5t99 -6.5t108 -8.5t124 -8.5l323 -21q117 -12 355 -12q30 0 50 14.5t31.5 40t24 65.5t25.5 81q16 26 16 45q0 39 -55 39 q-95 0 -230.5 11.5t-258.5 23.5t-231.5 20t-215.5 8q-135 0 -260 -17.5t-239.5 -60.5t-213.5 -114q-94 -68 -167 -162.5t-113.5 -200t-40.5 -207.5zM377 231q0 -82 45 -145.5t130.5 -97t199.5 -33.5q217 0 420 83t329 245q84 105 133.5 231.5t80 262t63.5 273t77 216.5 l-32 32q-218 -95 -329.5 -231.5t-167.5 -300.5t-119 -343.5t-165 -281.5q-64 -64 -153 -99.5t-176 -35.5q-79 0 -143 27t-100 74.5t-36 105.5q0 105 60 174t156 101t208 32q140 0 248 -43l20 51q-147 72 -323 72q-116 0 -212.5 -37.5t-155 -121t-58.5 -210.5z" />
<glyph unicode="U" horiz-adv-x="2476" d="M-8 711q0 -77 25 -156t76 -164t130 -178l39 31q-78 110 -106.5 182.5t-28.5 161.5q0 146 95.5 319.5t249 330t324.5 254t312 97.5q49 0 72.5 -20.5t23.5 -52.5q0 -40 -24 -76l-492 -951q-51 -114 -51 -233q0 -78 26.5 -143.5t85.5 -104.5t152 -39q97 0 188 59 t168.5 150.5t152 209t112.5 179.5q247 407 503 918l7 -6l-414 -891q-23 -51 -43.5 -113.5t-33.5 -123t-13 -99.5q0 -125 110.5 -204t284.5 -79q203 0 477 140v45q-80 -32 -151.5 -61.5t-141 -48.5t-139.5 -19q-119 0 -119 98q0 47 35 135l588 1356l-453 -58 q-45 -102 -192 -370.5t-308 -526.5t-321 -449.5t-252 -191.5q-41 0 -41 35q0 15 6.5 33t17.5 40l11 21l549 1098q20 42 32.5 93.5t12.5 88.5q0 106 -88.5 159.5t-259.5 53.5q-104 0 -202 -17t-196 -51t-195 -86.5t-190 -123.5q-192 -134 -301.5 -311t-109.5 -340z" />
<glyph unicode="V" horiz-adv-x="2396" d="M25 729q0 -137 53 -243t174 -203l31 32q-166 127 -166 306q0 117 66.5 242t170 236t207.5 185q110 76 233 134t260.5 98.5t270.5 59.5t270 19q21 0 21 -12q0 -14 -21 -20q-158 -93 -307 -212t-278 -266.5t-208 -310.5t-79 -330q0 -136 69.5 -244.5t195.5 -169.5t284 -61 q219 0 419 114t353 303.5t239.5 418.5t86.5 440q0 121 -39 210.5t-113.5 137t-177.5 47.5q-47 0 -75 -10.5t-28 -21.5q0 -32 8 -68t27 -95.5t28 -97t9 -81.5q0 -149 -49.5 -360.5t-143.5 -419.5t-229.5 -344t-296.5 -136q-96 0 -147 64.5t-51 187.5q0 114 48.5 289 t133 370.5t184 362.5t195.5 270q28 29 28 47q0 45 -153 45q-30 0 -45 -0.5t-31 -1.5q-228 0 -473 -46t-464 -152.5t-354.5 -284.5t-135.5 -428z" />
<glyph unicode="W" horiz-adv-x="2601" d="M115 1149l53 -6q25 93 74.5 143.5t117.5 70t154 19.5q46 0 144.5 -9t148.5 -11q87 0 182.5 19.5t200.5 54.5t199 67h6q-188 -85 -312.5 -173t-203.5 -202q-74 -92 -137.5 -239t-99.5 -311t-36 -308q0 -289 156 -289q42 0 85 28.5t91.5 90t105 161t123.5 241.5l138 266 q35 79 107.5 210.5t155.5 266.5t153 226t100 91q14 0 14 -18q0 -27 -14 -41q-61 -89 -173.5 -254.5t-197 -320t-134.5 -308.5t-50 -299q0 -154 86 -250t229 -96q71 0 149 25t158.5 72.5t163 116.5t164.5 159q124 132 212.5 281t134.5 302t46 296q0 110 -46.5 205.5 t-124 151.5t-165.5 56q-61 0 -98 -15.5t-37 -29.5q109 -136 109 -352q0 -124 -35 -265t-85 -269t-106 -252q-77 -182 -153.5 -288t-130.5 -106q-97 0 -97 316q0 165 36.5 357.5t82 343.5t96 300.5t50.5 167.5q0 70 -50 70q-38 0 -93 -37t-76 -64q-73 -89 -140.5 -186.5 t-143 -223.5t-127.5 -223.5t-114 -226.5l-147 -303q-3 -3 -44.5 -84t-83 -147t-61.5 -66q-12 0 -12 12q16 46 76.5 169t79.5 180q110 270 225 680q43 130 79 213.5t104.5 148t172.5 64.5h39v45l-53 -7q-104 0 -227.5 21t-248.5 42t-229 21q-120 0 -232.5 -31.5t-208.5 -94.5 t-167.5 -155.5t-107.5 -209.5z" />
<glyph unicode="X" horiz-adv-x="2396" d="M51 846q0 -84 28 -154t89 -151l37 26q-25 59 -25 129q0 136 85 292.5t223 294.5t295 222t294 84q89 0 137 -46.5t48 -121.5q0 -54 -23 -104l-141 -453h-267l-96 -108h324q-19 -43 -39 -66l-162 -180l-194 -221q-54 -68 -145.5 -153t-145.5 -85q-38 0 -54 28.5t-24.5 84.5 t-17 81t-33.5 25q-20 0 -67.5 -87t-61.5 -126q0 -40 60 -64t108 -24q119 0 247 72.5t232 166t225 218.5q-6 -37 -6 -74q0 -124 64 -213.5t176 -136.5t252 -47q166 0 321 60.5t274.5 165.5t187.5 239.5t68 275.5q0 64 -23 121t-62 91t-82 34q-23 0 -23 -33q0 -22 17.5 -83 t17.5 -70q0 -113 -51 -240.5t-141 -243t-204 -185t-231 -69.5q-101 0 -146.5 60.5t-45.5 157.5q0 76 24 163l84 349h240l90 110h-297l6 27q106 133 179.5 223t179.5 204t210 195.5t168 81.5q38 0 57 -14.5t33 -50.5l72 90q-69 35 -147 35q-87 0 -177.5 -39.5t-176.5 -104 t-157 -133t-136 -139.5q18 58 18 108q0 77 -40.5 134t-109.5 93.5t-152.5 54t-174.5 17.5q-168 0 -357.5 -52.5t-358 -155.5t-272.5 -252.5t-104 -333.5z" />
<glyph unicode="Y" horiz-adv-x="2519" d="M90 903q0 -288 270 -567l39 31q-67 76 -106 141.5t-56.5 127.5t-17.5 132q0 173 100.5 340.5t298.5 312.5q85 63 161 105.5t142 65t117 22.5q88 0 88 -90q0 -31 -10 -66l-420 -923q-20 -43 -35.5 -89.5t-24.5 -99t-9 -102.5q0 -111 57 -180.5t186 -69.5q172 0 354.5 161 t343 399.5t278.5 465.5t220 446l13 -8q-174 -387 -226 -543l-143 -387l-121 -329l-14 -25q-51 -20 -192 -74.5t-253 -117.5t-186 -145t-74 -179q0 -59 47.5 -97t120.5 -38q149 0 294 57t272 156t225.5 223.5t159.5 259.5q234 33 407 33l51 84q-137 -10 -237 -23.5 t-201 -36.5q10 17 16 33.5t15 38.5l479 1292l-434 -65q-92 -185 -206 -384.5t-235.5 -384t-258.5 -355t-275 -297.5q-19 -25 -80 -69t-94 -44t-33 43q0 29 21 57l489 1092q43 85 43 162t-43 137t-119.5 93.5t-177.5 33.5q-163 0 -344 -50t-335.5 -146t-250.5 -239t-96 -321z M958 -385q0 33 29.5 82.5t68.5 94t60 61.5q186 175 447 262q-52 -142 -143 -270.5t-193.5 -205.5t-188.5 -77q-80 0 -80 53z" />
<glyph unicode="Z" horiz-adv-x="2028" d="M-129 76q0 -44 51.5 -75.5t128.5 -31.5q90 0 209.5 35.5t243.5 97.5l37 -6l254 -59q229 -64 428 -64q98 0 200 15.5t208.5 50t205 83t191.5 109.5l-13 39q-148 -45 -346 -45q-116 0 -210.5 10t-303.5 35l-252 19h-45q174 95 236.5 130t146.5 94.5t156 127.5t145 166h279 l71 102h-278q59 73 111 166.5t113 203.5t112 179q14 24 14 37q0 18 -27 18q-29 0 -90.5 -17t-70.5 -17q-68 0 -136.5 18t-193.5 58.5t-225.5 62.5t-200.5 22q-151 0 -306.5 -71.5t-284.5 -194.5t-205.5 -272t-76.5 -301q0 -140 80.5 -235t198.5 -95q129 0 244.5 106 t184.5 257t69 276q0 24 -10 78t-29 97.5t-45 43.5q-23 0 -23 -33q0 -13 4 -36t4 -27q0 -77 -27 -198.5t-78.5 -243.5t-127 -201.5t-166.5 -79.5q-67 0 -114.5 62t-47.5 157q0 100 31 224.5t90.5 240.5t146.5 190t191 74q63 0 135.5 -15.5t178 -42.5t184.5 -42t161 -15 q159 0 420 70q-207 -100 -363 -220.5t-290 -289.5h-168l-78 -108h174q-45 -68 -99 -152.5t-80.5 -124.5t-72 -99t-96.5 -110h-33l-252 6q-97 0 -230.5 -21t-238 -74t-104.5 -144zM-84 84q0 70 186 70q168 0 324 -39q-116 -47 -201 -68.5t-168 -21.5q-141 0 -141 59z" />
<glyph unicode="[" horiz-adv-x="1133" d="M-381 -432h592l20 59h-233l686 1942h238l20 51h-602z" />
<glyph unicode="\" horiz-adv-x="911" d="M311 1620l609 -2052h147l-606 2052h-150z" />
<glyph unicode="]" horiz-adv-x="995" d="M-666 -432h611l717 2052h-594l-19 -51h232l-689 -1942h-239z" />
<glyph unicode="^" horiz-adv-x="884" d="M-33 475h332l281 414l252 -414h125l-461 742h-17z" />
<glyph unicode="_" horiz-adv-x="884" d="M8 -168v-147h852v147h-852z" />
<glyph unicode="`" horiz-adv-x="385" d="M-14 1172h275l76 -463h-107z" />
<glyph unicode="a" d="M-12 231q0 -126 76.5 -183.5t199.5 -57.5q97 0 197 30t172 76q87 -116 262 -116q123 0 263 57t231 131l-21 25q-76 -53 -170.5 -88t-150.5 -35q-95 0 -95 77q0 32 23 91l264 710l-375 -69q-73 82 -194 82q-81 0 -172 -33.5t-169 -86t-124 -106.5q-63 -72 -112.5 -162.5 t-77 -182t-27.5 -159.5zM342 186q0 57 40.5 186t100.5 267q119 266 240 266q60 0 117 -65l-201 -525q-33 -92 -33 -122l12 -52q-117 -67 -186 -67q-90 0 -90 112z" />
<glyph unicode="b" horiz-adv-x="1208" d="M-14 256q0 -123 77 -195.5t226 -72.5q99 0 189.5 34.5t186.5 106t205 186.5q60 -43 102.5 -64.5t84.5 -32t104 -19.5l33 84q-51 -19 -100 -19q-52 0 -99.5 21.5t-103.5 68.5q72 116 103.5 211.5t31.5 182.5q0 69 -25 126t-69.5 88t-106.5 31q-102 0 -147 -58t-45 -155 q0 -87 31 -188t71 -166q-199 -389 -362 -389q-88 0 -88 74q0 33 18 82l504 1433l-387 -70l-420 -1189q-14 -55 -14 -111zM690 756q0 80 18.5 133t47.5 53q63 0 63 -156q0 -130 -63 -309q-66 132 -66 279z" />
<glyph unicode="c" horiz-adv-x="1044" d="M-31 231q0 -141 134.5 -192t308.5 -51q105 0 202.5 19.5t190 60.5t176.5 100l-18 25q-120 -63 -192.5 -93.5t-141 -46.5t-140.5 -16q-76 0 -118.5 39t-42.5 110q0 79 34 203.5t91.5 240.5t137 194.5t165.5 78.5q30 0 49.5 -17t19.5 -46q0 -44 -39 -80t-116.5 -87 t-118.5 -95t-41 -101q0 -38 28 -67t74 -29q76 0 141 56t103.5 143.5t38.5 169.5q0 92 -51 152.5t-154 60.5q-129 0 -259.5 -64.5t-234 -170.5t-165.5 -237.5t-62 -259.5z" />
<glyph unicode="d" horiz-adv-x="1475" d="M-25 231q0 -88 37 -141.5t101 -77.5t141 -24q98 0 202 31.5t177 76.5q40 -53 110 -77.5t181 -24.5q150 0 270 41t227 133l-20 25q-184 -136 -324 -136q-54 0 -84 26t-30 69q0 34 18 67l492 1407l-381 -70l-240 -671q-52 44 -110.5 65t-116.5 21q-116 0 -233 -71.5 t-211.5 -186t-150 -245t-55.5 -237.5zM328 180q0 58 21 133t77 228q30 75 72 159t99.5 149.5t115.5 65.5q67 0 127 -90l-207 -561q-21 -63 -21 -78l6 -45q-35 -30 -87.5 -52.5t-100.5 -22.5q-102 0 -102 114z" />
<glyph unicode="e" horiz-adv-x="1004" d="M-31 213q0 -137 111 -184t274 -47q192 0 334.5 40.5t298.5 137.5l-18 33q-261 -156 -453 -156q-180 0 -180 192q0 38 6 74q235 89 369.5 219t134.5 264q0 168 -228 168q-137 0 -256.5 -62.5t-208.5 -171.5t-136.5 -241t-47.5 -266zM354 354q23 90 71 225t110.5 243 t121.5 108q24 0 39 -16.5t15 -43.5q0 -50 -38.5 -124t-94 -148t-116.5 -140t-108 -104z" />
<glyph unicode="f" horiz-adv-x="1085" d="M-37 270q0 -86 33 -128t119 -72l-78 -283q-14 -53 -18.5 -70t-4.5 -41q0 -37 21.5 -56t73.5 -19q141 13 200 18q29 10 41.5 41t21 87.5t9.5 59.5l70 224q142 0 274.5 33t249.5 104l-21 31q-135 -60 -252 -91.5t-245 -31.5l131 452q141 141 246 279t168 298t63 335 q0 111 -29.5 165t-93.5 54q-85 0 -177.5 -75t-170 -183t-117.5 -195q-34 -68 -64 -144t-56.5 -155.5t-63.5 -199.5t-49 -158q-6 62 -10.5 91t-25 56t-61.5 27q-59 0 -100.5 -84.5t-62.5 -193.5t-21 -175zM76 205q0 78 39 223t78 145q28 0 28 -49q0 -31 -22 -125l-70 -290 q-34 20 -43.5 38t-9.5 58zM612 625l117 383q15 44 37.5 122t46 156.5t45.5 141.5t45 114q8 27 26 46.5t36 19.5q28 0 28 -58q0 -53 -16 -125.5t-47 -173.5q-63 -202 -137.5 -348t-180.5 -278z" />
<glyph unicode="g" d="M-25 231q0 -117 86.5 -173t217.5 -56q155 0 270 61l-39 -133q-170 -24 -260 -84t-90 -149q0 -58 51 -93.5t137 -35.5q113 0 213.5 46t178 126.5t124.5 183.5q130 48 212.5 85t152.5 76t145 89l-18 39q-262 -162 -471 -219l342 948l-348 -63q-54 48 -110.5 69t-135.5 21 q-132 0 -252.5 -66.5t-212.5 -178t-142.5 -241.5t-50.5 -252zM213 -315q0 68 77.5 124t198.5 76q-72 -266 -200 -266q-32 0 -54 18.5t-22 47.5zM315 154q0 48 14.5 103.5t57.5 180.5q65 187 116 291.5t100 149.5t108 45q77 0 114 -78l-245 -711q-33 -31 -84.5 -56.5 t-96.5 -25.5q-84 0 -84 101z" />
<glyph unicode="h" horiz-adv-x="1434" d="M-61 174q0 -57 29.5 -103.5t77.5 -73t101 -26.5q107 0 162 105q240 422 439 659q132 144 149 144l12 -9q-2 -2 -5 -11t-7 -13l-201 -492q-19 -59 -29 -97.5t-10 -70.5q0 -91 82.5 -147.5t214.5 -56.5q231 0 480 178l-21 33q-7 -4 -68.5 -41t-96 -55t-80 -32t-91.5 -14 q-82 0 -82 76q0 32 25 125l168 405q29 77 29 140q0 69 -40.5 110t-129.5 41q-110 0 -217 -72.5t-198.5 -185t-155 -221.5t-128.5 -238q-23 -51 -52.5 -110t-31.5 -64q-8 -4 -13 -10t-7 -10l-6 14l6 19l581 1556l-393 -76l-469 -1280q-24 -48 -24 -96z" />
<glyph unicode="i" horiz-adv-x="815" d="M-18 182q0 -91 96 -139.5t219 -48.5q89 0 167 19.5t153 60.5t145 100l-21 25q-18 -11 -89 -57.5t-123 -68.5t-103 -22t-71.5 22t-20.5 60q0 39 14 92l264 738l-387 -84l-219 -603q-24 -51 -24 -94zM393 1243q0 -53 32.5 -91t88.5 -38q60 0 93.5 39t33.5 94t-32.5 93 t-94.5 38q-55 0 -88 -40.5t-33 -94.5z" />
<glyph unicode="j" horiz-adv-x="1004" d="M-12 154q0 -64 21 -155t53 -191.5t59 -167.5q18 -40 57.5 -65.5t79.5 -25.5q62 0 90 58l240 708q155 -16 348 -135l33 72q-72 42 -146.5 61t-216.5 47l207 603q-79 -15 -239 -47t-274 -82t-188 -140.5t-81 -228.5l39 -8q14 89 60.5 165.5t118 128.5t157.5 68l-162 -446 q-256 -42 -256 -219zM61 82q0 214 170 254q-36 -125 -53.5 -228t-17.5 -210q0 -117 20 -234q0 -12 -6 -12q-8 0 -22.5 18t-16.5 27q-16 58 -33 123t-29 135t-12 127zM610 1274q0 -53 32.5 -91t88.5 -38q62 0 94.5 39t32.5 94q0 53 -32.5 92t-94.5 39q-55 0 -88 -41.5 t-33 -93.5z" />
<glyph unicode="k" horiz-adv-x="1413" d="M-16 201q0 -87 60 -147t161 -60q61 0 108 35.5t79 89t69.5 139.5t42.5 96q58 -123 126 -203.5t148 -118.5t176 -38q225 0 435 166l-21 33q-109 -74 -180 -74q-81 0 -168 86q-75 78 -127.5 114t-116 49t-170.5 13v6q174 12 319.5 69t229.5 144.5t84 185.5q0 76 -61.5 122 t-163.5 46q-109 0 -196.5 -55.5t-153.5 -146t-122.5 -206.5t-90.5 -186q-23 -46 -38 -77t-43 -86t-53 -97.5t-34 -42.5q-7 0 -7 6l7 33l542 1530l-381 -76l-432 -1228q-28 -64 -28 -121zM528 393q55 124 117 230t115.5 164.5t85.5 58.5q51 0 51 -60q0 -59 -50 -134 t-135.5 -145t-183.5 -114z" />
<glyph unicode="l" horiz-adv-x="840" d="M-25 174q0 -91 72.5 -141.5t204.5 -50.5q124 0 251.5 45t244.5 127l-19 32q-94 -63 -178 -96t-139 -33q-95 0 -95 84q0 29 19 78l483 1407l-387 -84l-432 -1227q-25 -106 -25 -141z" />
<glyph unicode="m" horiz-adv-x="2089" d="M-41 188q0 -85 57 -139.5t164 -54.5q59 0 92.5 23t55.5 79q54 114 108.5 217t111 195t129.5 186.5t148 169.5q27 27 39 27l6 -6q-3 -3 -4.5 -10t-1.5 -11l-213 -536q-24 -74 -24 -135q0 -88 48 -143.5t150 -55.5q57 0 83.5 8t44.5 30.5t46 82.5q105 190 139.5 252.5 t95 157.5t132.5 187.5t152 172.5l18 6q5 0 5.5 -2t0.5 -4v-21l-219 -528q-27 -64 -27 -119q0 -100 79.5 -161.5t205.5 -61.5q80 0 163 20.5t164 59.5t165 100l-19 31q-61 -42 -160 -90.5t-170 -48.5q-84 0 -84 88q0 39 7 59l200 516q15 34 15 72q0 46 -23 83t-65.5 58 t-94.5 21q-136 0 -255.5 -102t-205.5 -241.5t-153 -291.5l-123 -265q-11 -24 -24 -24t-13 14q0 13 10 23l246 614q17 49 17 88q0 77 -47.5 126.5t-137.5 49.5q-130 0 -241 -95.5t-195.5 -234.5t-182.5 -350t-104 -223q-10 -16 -12 -16q-4 0 -4 16q0 13 4 25l315 872 l-387 -84l-198 -549q-29 -69 -29 -127z" />
<glyph unicode="n" horiz-adv-x="1434" d="M-35 174q0 -81 52.5 -130.5t156.5 -49.5q43 0 72.5 9t49 30.5t40.5 62.5q145 287 259 472.5t263 310.5q6 6 39 6l-12 -21l-213 -528q-25 -60 -25 -115q0 -101 81 -164t208 -63q119 0 241 46.5t236 133.5l-18 25q-24 -14 -71 -43t-83 -47.5t-79.5 -32t-84.5 -13.5 q-102 0 -102 91q0 41 24 98l195 459q8 32 8 71q0 78 -42 125t-134 47q-131 0 -244.5 -89t-203 -225.5t-170 -308t-119.5 -255.5q-8 -25 -25 -25v6v19l324 860l-383 -72l-217 -575q-23 -63 -23 -115z" />
<glyph unicode="o" horiz-adv-x="1294" d="M-12 264q0 -141 90 -211.5t276 -70.5q184 0 320.5 89t240.5 277q87 -33 177 -33q97 0 186 39l-12 39q-101 -39 -185 -39q-77 0 -151 33q90 156 90 342q0 93 -26.5 161.5t-76 105t-116.5 36.5q-89 0 -139 -71t-50 -193q0 -187 136 -348q-152 -383 -328 -383q-44 0 -71 33 t-27 90q0 106 42 238t97.5 246.5t106 202.5t50.5 89q0 18 -24 18q-154 0 -294.5 -109t-226 -272.5t-85.5 -308.5zM664 825q0 67 20.5 108.5t50.5 41.5q66 0 66 -219q0 -119 -33 -273q-43 65 -73.5 162.5t-30.5 179.5z" />
<glyph unicode="p" horiz-adv-x="1536" d="M-63 -471l391 123l110 317q149 0 303 56q142 -66 271 -66q125 0 246.5 55.5t259.5 159.5l-33 31q-115 -103 -203.5 -151t-165.5 -48q-96 0 -258 70q420 230 420 536q0 279 -383 279q-71 0 -133 -6l18 84l-360 -78l-33 -78q-141 -74 -238.5 -175.5t-97.5 -231.5l6 -78 q43 134 125.5 250.5t184.5 183.5l-168 -498q-217 0 -217 -123q0 -94 127 -135zM76 84q0 47 8 63q9 30 37 51t65 21l-65 -182q-34 19 -45 47zM451 6l53 141q22 -14 76 -38t77 -39q-52 -33 -99 -48.5t-107 -15.5zM522 213l219 627l45 6q64 0 101 -46t37 -128 q0 -108 -56.5 -257t-144.5 -274q-33 14 -95 34.5t-106 37.5z" />
<glyph unicode="q" horiz-adv-x="1413" d="M-18 238q0 -88 39.5 -143.5t105 -80t145.5 -24.5q81 0 162.5 22.5t138.5 57.5q-14 -41 -35.5 -105t-33.5 -118t-12 -103q0 -176 192 -176q61 0 104 38.5t73 94.5t63 119q33 60 86 105.5t134.5 92.5t145.5 83.5t105 66.5l-27 25q-72 -49 -178.5 -106.5t-151.5 -86.5 t-97 -94.5t-116 -194.5q-12 -21 -32 -53.5t-27 -32.5q-4 0 -4 8q10 35 38.5 98t39.5 101l405 1098l-354 -66q-93 101 -240 101q-82 0 -166 -30t-157 -80t-123 -107q-92 -104 -157.5 -253t-65.5 -257zM328 141q0 66 43 202.5t104.5 274.5t104.5 201q24 37 65 59.5t80 22.5 q82 0 127 -76l-246 -678q-35 -28 -99 -59t-108 -31q-71 0 -71 84z" />
<glyph unicode="r" horiz-adv-x="993" d="M-27 176q0 -80 55.5 -131t157.5 -51q55 0 85 14t45 38.5t44 88.5q101 198 139.5 266t73.5 109q86 -215 306 -215q49 0 90 8l-6 57q-68 -20 -125 -20q-84 0 -135.5 45.5t-51.5 142.5l6 52q68 73 207 200q30 25 49 58.5t19 60.5q0 64 -92 64q-67 0 -130.5 -53t-104.5 -137 t-44 -173q-122 -184 -213 -407q-15 -37 -41 -93.5t-39 -56.5q-4 0 -4 14l12 27l312 864l-389 -84l-199 -567q-27 -64 -27 -121z" />
<glyph unicode="s" horiz-adv-x="942" d="M-51 141q0 -145 112 -145q24 0 53 5.5t73 17.5t65 18q119 -49 231 -49q76 0 150 20.5t149 61t142 90.5l-27 33q-104 -79 -210.5 -118.5t-217.5 -39.5q-91 0 -172 22q81 23 138 54t94.5 69t57 83t19.5 97q0 124 -65 252q34 41 70 119.5t36 136.5q0 101 -112 101 q-162 0 -242 -111.5t-80 -271.5q0 -80 18 -154q-99 -103 -186 -180q-63 -48 -79.5 -65.5t-16.5 -45.5zM45 199q32 30 99 87.5t100 94.5q47 -122 47 -184q0 -74 -47 -121zM479 856q0 80 56 80q18 0 33.5 -14t23.5 -38.5t8 -52.5q0 -70 -78 -180q-10 33 -19.5 67t-16.5 70.5 t-7 67.5z" />
<glyph unicode="t" horiz-adv-x="819" d="M-29 199q0 -100 81 -155.5t206 -55.5q130 0 266 47t256 133l-18 25q-102 -60 -194 -101t-169 -41q-44 0 -70 26t-26 64t25 72l194 555h142l71 96h-186l186 525l-387 -78l-155 -441h-103l-65 -96h135l-172 -485q-17 -51 -17 -90z" />
<glyph unicode="u" horiz-adv-x="1413" d="M-37 209q0 -64 35.5 -113t99.5 -75.5t146 -26.5q105 0 201 30t200 91q80 -127 254 -127q87 0 180.5 28.5t175.5 70t146 87.5l-19 31q-102 -72 -186.5 -110t-142.5 -38q-84 0 -84 80q0 48 30 133l261 672l-396 -78l-207 -549q-24 -84 -24 -122v-39q-170 -99 -258 -99 q-78 0 -78 80q0 56 31 129l252 684l-387 -78l-205 -548q-25 -54 -25 -113z" />
<glyph unicode="v" horiz-adv-x="1249" d="M-31 182q0 -98 75 -155.5t208 -57.5q138 0 251.5 36.5t205.5 107.5t188 184q67 -53 143.5 -85t147.5 -32l51 6v66q-33 -8 -74 -8q-121 0 -250 78q144 243 144 413q0 127 -55 200t-152 73q-92 0 -146.5 -71.5t-54.5 -188.5q0 -92 27.5 -173t83.5 -176 q-64 -114 -108.5 -184.5t-114.5 -133.5t-146 -63q-92 0 -92 93q0 45 21 108l258 696l-394 -75l-186 -525q-31 -73 -31 -133zM711 762q0 83 17 134.5t46 51.5q34 0 53 -44t19 -118q0 -160 -72 -342q-35 99 -49 169t-14 149z" />
<glyph unicode="w" horiz-adv-x="1946" d="M-23 186q0 -97 86 -154t213 -57q170 0 396 88q39 -51 108.5 -72.5t182.5 -21.5q96 0 185 20.5t165.5 59.5t148 100.5t133.5 139.5q145 -96 271 -96h45l20 59h-53q-148 0 -258 70q71 119 107 221t36 198q0 78 -26 136t-73 90t-108 32q-109 0 -157.5 -60.5t-48.5 -160.5 q0 -91 33.5 -194t74.5 -172q-37 -88 -82.5 -159.5t-99.5 -125.5t-108.5 -81.5t-108.5 -27.5q-78 0 -78 76q0 46 39 144l252 677l-393 -69l-207 -570q-33 -77 -33 -116l6 -51q-35 -26 -103 -53t-124 -27q-103 0 -103 100q0 25 27 102l264 693l-401 -78l-205 -557 q-23 -53 -23 -103zM1401 768q0 78 22 126t56 48q71 0 71 -162q0 -70 -21 -164t-50 -165q-78 170 -78 317z" />
<glyph unicode="x" horiz-adv-x="1444" d="M-31 154q0 -73 56 -119.5t149 -46.5q198 0 399 192q52 -192 330 -192q97 0 177 18t160 56t181 106l-20 25q-123 -72 -230 -114t-208 -42q-181 0 -181 164q0 101 76 288q196 32 366.5 111.5t170.5 218.5q0 64 -51 104t-138 40q-76 0 -156.5 -24t-155 -68.5t-132.5 -102.5 q-35 97 -110.5 143.5t-174.5 46.5q-122 0 -249.5 -66t-190.5 -157l53 -39q72 113 154.5 170.5t175.5 57.5q141 0 141 -148q0 -39 -8.5 -81t-19 -76t-23.5 -71.5t-27 -70.5q-209 -31 -361.5 -98.5t-152.5 -224.5zM90 96q0 68 65 135t154.5 117t155.5 72q-3 -5 -46.5 -95 t-79 -147t-84 -99t-101.5 -42q-24 0 -44 17.5t-20 41.5zM885 535q168 380 309 380q26 0 46 -19t20 -44q0 -48 -49.5 -105t-133.5 -111.5t-192 -100.5z" />
<glyph unicode="y" d="M-8 236q0 -96 57 -153.5t176 -57.5q55 0 113.5 11t114 31t127.5 54l-64 -172q-188 -33 -272 -85.5t-84 -139.5q0 -54 53 -88.5t135 -34.5q87 0 170 24.5t154 71.5t123 111.5t84 146.5q65 15 131 38.5t118 47.5t112.5 56.5t141.5 82.5l-14 45q-94 -66 -217.5 -123 t-259.5 -96l336 948l-375 -69l-246 -672q-29 -33 -102.5 -76t-126.5 -43q-68 0 -68 80q0 11 3.5 22t11 35t12.5 39l244 693l-375 -78l-187 -504q-26 -74 -26 -145zM231 -287q0 58 44.5 93.5t93 50.5t141.5 37q-13 -32 -33 -84t-41.5 -88t-55 -61.5t-77.5 -25.5 q-33 0 -52.5 22t-19.5 56z" />
<glyph unicode="z" horiz-adv-x="1106" d="M-18 205q0 -58 20.5 -112t54.5 -86t72 -32q31 0 50.5 12.5t59.5 47t71 51t71 16.5q38 0 75.5 -14.5t88 -42t82 -39.5t69.5 -12t102.5 24t145 68.5t139.5 87.5l-18 25q-8 -4 -47.5 -24.5t-67.5 -30t-59 -9.5q-39 0 -74.5 19.5t-82 56.5t-84.5 57.5t-83 20.5 q-59 0 -122 -35.5t-103 -70.5t-103.5 -93.5t-78.5 -58.5q-2 0 -4 2.5t-2 3.5q0 52 95 141t219.5 181t203.5 151q303 255 303 432q0 12 -29 12q-26 0 -89 -12t-71 -12q-42 0 -88.5 6.5t-113.5 20.5t-117.5 22t-106.5 8q-71 0 -132.5 -27.5t-96.5 -74.5t-35 -105 q0 -96 109 -129h8q17 0 25 51q21 115 132.5 149t268.5 34h141q41 0 67.5 3.5t55.5 14.5q-67 -36 -268.5 -115.5t-334 -149t-225.5 -177t-93 -256.5z" />
<glyph unicode="{" horiz-adv-x="717" d="M-33 -184q0 -80 86 -111q64 -22 179 -22l59 2h57l17 43q-39 0 -56 4q-18 2 -36 12q-41 23 -41 80q0 72 75 262q74 191 74 250q0 92 -141 117q207 29 282 242q111 319 130 337q32 41 81 66q21 10 50 16q26 7 57 7l16 38h-209q-221 0 -327 -268l-88 -270q-31 -86 -68 -117 q-37 -33 -104 -33l-19 -47q88 0 88 -63q0 -78 -80 -271q-82 -192 -82 -274z" />
<glyph unicode="|" horiz-adv-x="884" d="M336 -297h197v1456h-197v-1456z" />
<glyph unicode="}" horiz-adv-x="717" d="M-192 -315l105 2l100 2q152 0 244 111q24 30 180 428q31 86 66 118q32 31 106 31l12 47q-88 0 -88 64q0 88 80 268t80 276q0 123 -164 123l-106 2l-107 2l-16 -38q61 0 96 -21q33 -20 33 -76q0 -67 -45 -194q-99 -271 -99 -314q0 -98 140 -116q-203 -35 -283 -250 l-82 -242q-37 -92 -92 -135q-25 -21 -61.5 -33t-81.5 -12z" />
<glyph unicode="~" horiz-adv-x="1179" d="M243 1071l46 -26q24 26 61 47q31 10 68 14q36 0 159 -35q68 -18 107 -18q76 0 141 63q45 45 90 131l-43 29q-61 -72 -129 -72q-51 0 -104 21q-135 47 -168 51q-64 0 -117 -47t-111 -158z" />
<glyph unicode="&#xa8;" horiz-adv-x="1024" />
<glyph unicode="&#xa9;" horiz-adv-x="1772" />
<glyph unicode="&#xad;" horiz-adv-x="385" d="M-96 289h345l79 111h-340z" />
<glyph unicode="&#xae;" horiz-adv-x="1770" />
<glyph unicode="&#xb4;" horiz-adv-x="1024" />
<glyph unicode="&#xb6;" horiz-adv-x="1024" d="M93 1086q0 157 107.5 253t285.5 96h443v-70h-127v-1365h-82v1365h-166v-1365h-84v738q-174 8 -275.5 102.5t-101.5 245.5z" />
<glyph unicode="&#xbc;" horiz-adv-x="1780" />
<glyph unicode="&#xbd;" horiz-adv-x="1780" />
<glyph unicode="&#xbe;" horiz-adv-x="1780" />
<glyph unicode="&#xc0;" horiz-adv-x="2355" d="M-76 315q0 -99 59.5 -176.5t169 -120.5t253.5 -43q164 0 306 46t269 142t236.5 236.5t209.5 335.5q44 0 61.5 -0.5t39.5 -1.5t50.5 -2t61.5 -2l-135 -369q-39 -94 -39 -167q0 -103 83.5 -163.5t232.5 -60.5q70 0 138.5 10.5t134 32t129 54t134.5 81.5v58 q-99 -71 -209.5 -119.5t-177.5 -48.5q-102 0 -102 88q0 30 12 68l199 536q36 -3 87 -4.5t120 -1.5l65 96q-96 -12 -239 -12l161 420q39 110 39 211q0 94 -49 151.5t-164 57.5q-119 0 -226 -86.5t-196 -221t-129.5 -218.5t-146.5 -314q-39 0 -120 2t-121 3.5t-101.5 3 t-142.5 1.5q-171 0 -316.5 -19t-277.5 -69q-168 -58 -263.5 -169.5t-95.5 -244.5zM252 309q0 118 55.5 206.5t148.5 145t202 82t221 25.5q41 0 134.5 -2.5t174.5 -9t141 -15.5q-67 -153 -159.5 -281t-199 -221t-221 -143.5t-221.5 -50.5q-83 0 -145.5 33t-96.5 93.5 t-34 137.5zM1458 801q58 128 105.5 234t100 201.5t121.5 186.5t152 158l13 8v-47l-277 -741l-92 -6zM1821 1997q105 -115 293 -246h102q-52 77 -73 123t-40 123h-282z" />
<glyph unicode="&#xc1;" horiz-adv-x="2355" d="M-76 315q0 -99 59.5 -176.5t169 -120.5t253.5 -43q164 0 306 46t269 142t236.5 236.5t209.5 335.5q44 0 61.5 -0.5t39.5 -1.5t50.5 -2t61.5 -2l-135 -369q-39 -94 -39 -167q0 -103 83.5 -163.5t232.5 -60.5q70 0 138.5 10.5t134 32t129 54t134.5 81.5v58 q-99 -71 -209.5 -119.5t-177.5 -48.5q-102 0 -102 88q0 30 12 68l199 536q36 -3 87 -4.5t120 -1.5l65 96q-96 -12 -239 -12l161 420q39 110 39 211q0 94 -49 151.5t-164 57.5q-119 0 -226 -86.5t-196 -221t-129.5 -218.5t-146.5 -314q-39 0 -120 2t-121 3.5t-101.5 3 t-142.5 1.5q-171 0 -316.5 -19t-277.5 -69q-168 -58 -263.5 -169.5t-95.5 -244.5zM252 309q0 118 55.5 206.5t148.5 145t202 82t221 25.5q41 0 134.5 -2.5t174.5 -9t141 -15.5q-67 -153 -159.5 -281t-199 -221t-221 -143.5t-221.5 -50.5q-83 0 -145.5 33t-96.5 93.5 t-34 137.5zM1458 801q58 128 105.5 234t100 201.5t121.5 186.5t152 158l13 8v-47l-277 -741l-92 -6zM2040 1776h102q31 26 92 72.5t112.5 89.5t84.5 79h-285h4q-14 -74 -35.5 -123t-74.5 -118z" />
<glyph unicode="&#xc2;" horiz-adv-x="2355" d="M-76 315q0 -99 59.5 -176.5t169 -120.5t253.5 -43q164 0 306 46t269 142t236.5 236.5t209.5 335.5q44 0 61.5 -0.5t39.5 -1.5t50.5 -2t61.5 -2l-135 -369q-39 -94 -39 -167q0 -103 83.5 -163.5t232.5 -60.5q70 0 138.5 10.5t134 32t129 54t134.5 81.5v58 q-99 -71 -209.5 -119.5t-177.5 -48.5q-102 0 -102 88q0 30 12 68l199 536q36 -3 87 -4.5t120 -1.5l65 96q-96 -12 -239 -12l161 420q39 110 39 211q0 94 -49 151.5t-164 57.5q-119 0 -226 -86.5t-196 -221t-129.5 -218.5t-146.5 -314q-39 0 -120 2t-121 3.5t-101.5 3 t-142.5 1.5q-171 0 -316.5 -19t-277.5 -69q-168 -58 -263.5 -169.5t-95.5 -244.5zM252 309q0 118 55.5 206.5t148.5 145t202 82t221 25.5q41 0 134.5 -2.5t174.5 -9t141 -15.5q-67 -153 -159.5 -281t-199 -221t-221 -143.5t-221.5 -50.5q-83 0 -145.5 33t-96.5 93.5 t-34 137.5zM1458 801q58 128 105.5 234t100 201.5t121.5 186.5t152 158l13 8v-47l-277 -741l-92 -6zM1793 1735h80q36 30 87.5 79t78.5 74q30 -22 98 -73t109 -80h88q-79 138 -105 286h-225l2 2q-62 -147 -213 -288z" />
<glyph unicode="&#xc3;" horiz-adv-x="2355" d="M-76 315q0 -99 59.5 -176.5t169 -120.5t253.5 -43q164 0 306 46t269 142t236.5 236.5t209.5 335.5q44 0 61.5 -0.5t39.5 -1.5t50.5 -2t61.5 -2l-135 -369q-39 -94 -39 -167q0 -103 83.5 -163.5t232.5 -60.5q70 0 138.5 10.5t134 32t129 54t134.5 81.5v58 q-99 -71 -209.5 -119.5t-177.5 -48.5q-102 0 -102 88q0 30 12 68l199 536q36 -3 87 -4.5t120 -1.5l65 96q-96 -12 -239 -12l161 420q39 110 39 211q0 94 -49 151.5t-164 57.5q-119 0 -226 -86.5t-196 -221t-129.5 -218.5t-146.5 -314q-39 0 -120 2t-121 3.5t-101.5 3 t-142.5 1.5q-171 0 -316.5 -19t-277.5 -69q-168 -58 -263.5 -169.5t-95.5 -244.5zM252 309q0 118 55.5 206.5t148.5 145t202 82t221 25.5q41 0 134.5 -2.5t174.5 -9t141 -15.5q-67 -153 -159.5 -281t-199 -221t-221 -143.5t-221.5 -50.5q-83 0 -145.5 33t-96.5 93.5 t-34 137.5zM1458 801q58 128 105.5 234t100 201.5t121.5 186.5t152 158l13 8v-47l-277 -741l-92 -6zM1782 1860l45 -33q30 82 96 82q34 0 72 -16t93.5 -46.5t91 -44.5t67.5 -14q134 0 284 305l-45 31q-38 -99 -108 -99q-32 0 -60 13t-87 48.5t-97 53t-74 17.5 q-73 0 -145.5 -79.5t-132.5 -217.5z" />
<glyph unicode="&#xc8;" horiz-adv-x="1556" d="M-63 354q0 -125 81.5 -215t234.5 -137t365 -47q152 0 292.5 28.5t250.5 79.5q153 70 238.5 170t85.5 205q0 120 -142 234l-20 -39q53 -29 53 -86q0 -56 -38 -119.5t-78 -105.5q-65 -71 -144 -131t-165 -104.5t-174.5 -68.5t-164.5 -24q-80 0 -144.5 37t-102 101.5 t-37.5 143.5q0 152 93 274t296 236q42 28 66.5 67t47.5 103.5t33 90.5q13 29 58.5 143.5t84.5 193.5t90 138t103 59q39 0 64.5 -28t25.5 -74q0 -48 -25 -110.5t-70.5 -130t-105.5 -127.5t-120 -97l24 -33q202 75 308 181t106 233q0 73 -48 133.5t-134.5 95.5t-192.5 35 q-130 0 -231.5 -51t-157 -145.5t-55.5 -217.5q0 -67 23.5 -138.5t57 -143t33.5 -78.5q0 -16 -21.5 -27.5t-55.5 -11.5q-119 0 -237 -26t-222.5 -86t-166.5 -155.5t-62 -224.5zM760 2163q54 -59 120.5 -119.5t129.5 -109.5t137 -101h143q-48 64 -80 117t-48.5 97.5 t-33.5 115.5h-368z" />
<glyph unicode="&#xc9;" horiz-adv-x="1556" d="M-63 354q0 -125 81.5 -215t234.5 -137t365 -47q152 0 292.5 28.5t250.5 79.5q153 70 238.5 170t85.5 205q0 120 -142 234l-20 -39q53 -29 53 -86q0 -56 -38 -119.5t-78 -105.5q-65 -71 -144 -131t-165 -104.5t-174.5 -68.5t-164.5 -24q-80 0 -144.5 37t-102 101.5 t-37.5 143.5q0 152 93 274t296 236q42 28 66.5 67t47.5 103.5t33 90.5q13 29 58.5 143.5t84.5 193.5t90 138t103 59q39 0 64.5 -28t25.5 -74q0 -48 -25 -110.5t-70.5 -130t-105.5 -127.5t-120 -97l24 -33q202 75 308 181t106 233q0 73 -48 133.5t-134.5 95.5t-192.5 35 q-130 0 -231.5 -51t-157 -145.5t-55.5 -217.5q0 -67 23.5 -138.5t57 -143t33.5 -78.5q0 -16 -21.5 -27.5t-55.5 -11.5q-119 0 -237 -26t-222.5 -86t-166.5 -155.5t-62 -224.5zM963 1860h159q54 41 118.5 87.5t117.5 86t111.5 89t99.5 93.5h-432q-24 -99 -60 -173t-114 -183z " />
<glyph unicode="&#xca;" horiz-adv-x="1556" d="M-63 354q0 -125 81.5 -215t234.5 -137t365 -47q152 0 292.5 28.5t250.5 79.5q153 70 238.5 170t85.5 205q0 120 -142 234l-20 -39q53 -29 53 -86q0 -56 -38 -119.5t-78 -105.5q-65 -71 -144 -131t-165 -104.5t-174.5 -68.5t-164.5 -24q-80 0 -144.5 37t-102 101.5 t-37.5 143.5q0 152 93 274t296 236q42 28 66.5 67t47.5 103.5t33 90.5q13 29 58.5 143.5t84.5 193.5t90 138t103 59q39 0 64.5 -28t25.5 -74q0 -48 -25 -110.5t-70.5 -130t-105.5 -127.5t-120 -97l24 -33q202 75 308 181t106 233q0 73 -48 133.5t-134.5 95.5t-192.5 35 q-130 0 -231.5 -51t-157 -145.5t-55.5 -217.5q0 -67 23.5 -138.5t57 -143t33.5 -78.5q0 -16 -21.5 -27.5t-55.5 -11.5q-119 0 -237 -26t-222.5 -86t-166.5 -155.5t-62 -224.5zM799 1739h80q36 30 93.5 85.5t71.5 67.5q70 -52 98.5 -73.5t108.5 -79.5h88q-80 139 -104 286 h-225l2 3q-61 -145 -213 -289z" />
<glyph unicode="&#xcc;" horiz-adv-x="1720" d="M66 297q0 -150 121 -236t325 -86q144 0 273 28.5t242.5 85.5t209 145t166.5 204q149 -43 272 -155l33 90q-150 88 -278 116q61 119 102 252t87.5 336.5t67.5 279.5t66 167q-98 0 -178.5 12.5t-227.5 42t-252.5 45.5t-207.5 16q-128 0 -240.5 -30t-200 -88.5t-153.5 -148 t-111 -212.5l51 -12q50 136 143.5 189t227.5 53q83 0 232.5 -20.5t218.5 -20.5q127 0 293 33.5t327 89.5q-178 -99 -284.5 -232t-159.5 -257.5t-156 -416.5q-243 84 -497 84q-152 0 -269.5 -44t-180 -124t-62.5 -186zM125 264q0 135 150.5 219t392.5 84q237 0 387 -51 q-59 -117 -126 -205t-143.5 -150t-158.5 -93t-166 -31q-92 0 -169.5 29.5t-122 82t-44.5 115.5zM977 1991q39 -43 87.5 -86.5t93 -77.5t112.5 -82h102q-38 55 -57.5 92t-31.5 71t-23 83h-283z" />
<glyph unicode="&#xcd;" horiz-adv-x="1720" d="M66 297q0 -150 121 -236t325 -86q144 0 273 28.5t242.5 85.5t209 145t166.5 204q149 -43 272 -155l33 90q-150 88 -278 116q61 119 102 252t87.5 336.5t67.5 279.5t66 167q-98 0 -178.5 12.5t-227.5 42t-252.5 45.5t-207.5 16q-128 0 -240.5 -30t-200 -88.5t-153.5 -148 t-111 -212.5l51 -12q50 136 143.5 189t227.5 53q83 0 232.5 -20.5t218.5 -20.5q127 0 293 33.5t327 89.5q-178 -99 -284.5 -232t-159.5 -257.5t-156 -416.5q-243 84 -497 84q-152 0 -269.5 -44t-180 -124t-62.5 -186zM125 264q0 135 150.5 219t392.5 84q237 0 387 -51 q-59 -117 -126 -205t-143.5 -150t-158.5 -93t-166 -31q-92 0 -169.5 29.5t-122 82t-44.5 115.5zM1073 1780h103q31 26 95 75.5t108.5 86.5t84.5 79h-284h4q-14 -70 -36 -121t-75 -120z" />
<glyph unicode="&#xd2;" horiz-adv-x="1782" d="M63 567q0 -142 47 -255.5t136.5 -193t218 -121.5t283.5 -42q203 0 388.5 86.5t331.5 239t227 344t81 389.5q0 137 -37 255.5t-104 205t-159 135.5t-198 49q-129 0 -223.5 -57.5t-153.5 -153t-86 -211.5t-27 -238q0 -52 7 -120l51 6q0 85 32 209.5t90 242t139.5 194.5 t176.5 77q72 0 114 -74.5t42 -198.5q0 -87 -16.5 -198t-50.5 -240.5t-77 -246t-96 -218.5q-107 -230 -215 -334t-244 -104q-94 0 -164.5 48.5t-107.5 139t-37 211.5q0 133 33.5 300.5t94.5 332.5t145.5 305t185.5 225l-21 25q-181 -71 -333 -179.5t-258 -242t-161 -284.5 t-55 -308zM885 2157q31 -32 86.5 -83t105.5 -93t109 -88t92 -72l135 6q-79 111 -107.5 171t-45.5 159h-375z" />
<glyph unicode="&#xd3;" horiz-adv-x="1782" d="M63 567q0 -142 47 -255.5t136.5 -193t218 -121.5t283.5 -42q203 0 388.5 86.5t331.5 239t227 344t81 389.5q0 137 -37 255.5t-104 205t-159 135.5t-198 49q-129 0 -223.5 -57.5t-153.5 -153t-86 -211.5t-27 -238q0 -52 7 -120l51 6q0 85 32 209.5t90 242t139.5 194.5 t176.5 77q72 0 114 -74.5t42 -198.5q0 -87 -16.5 -198t-50.5 -240.5t-77 -246t-96 -218.5q-107 -230 -215 -334t-244 -104q-94 0 -164.5 48.5t-107.5 139t-37 211.5q0 133 33.5 300.5t94.5 332.5t145.5 305t185.5 225l-21 25q-181 -71 -333 -179.5t-258 -242t-161 -284.5 t-55 -308zM1059 1860h162q49 39 153 114.5t168 127.5t123 114h-432q-24 -99 -60 -173t-114 -183z" />
<glyph unicode="&#xd4;" horiz-adv-x="1782" d="M63 567q0 -142 47 -255.5t136.5 -193t218 -121.5t283.5 -42q203 0 388.5 86.5t331.5 239t227 344t81 389.5q0 137 -37 255.5t-104 205t-159 135.5t-198 49q-129 0 -223.5 -57.5t-153.5 -153t-86 -211.5t-27 -238q0 -52 7 -120l51 6q0 85 32 209.5t90 242t139.5 194.5 t176.5 77q72 0 114 -74.5t42 -198.5q0 -87 -16.5 -198t-50.5 -240.5t-77 -246t-96 -218.5q-107 -230 -215 -334t-244 -104q-94 0 -164.5 48.5t-107.5 139t-37 211.5q0 133 33.5 300.5t94.5 332.5t145.5 305t185.5 225l-21 25q-181 -71 -333 -179.5t-258 -242t-161 -284.5 t-55 -308zM1008 1737h79q36 30 76 68t90 85q70 -52 98.5 -73.5t108.5 -79.5h88q-80 139 -104 286h-225l2 2q-61 -145 -213 -288z" />
<glyph unicode="&#xd5;" horiz-adv-x="1782" d="M63 567q0 -142 47 -255.5t136.5 -193t218 -121.5t283.5 -42q203 0 388.5 86.5t331.5 239t227 344t81 389.5q0 137 -37 255.5t-104 205t-159 135.5t-198 49q-129 0 -223.5 -57.5t-153.5 -153t-86 -211.5t-27 -238q0 -52 7 -120l51 6q0 85 32 209.5t90 242t139.5 194.5 t176.5 77q72 0 114 -74.5t42 -198.5q0 -87 -16.5 -198t-50.5 -240.5t-77 -246t-96 -218.5q-107 -230 -215 -334t-244 -104q-94 0 -164.5 48.5t-107.5 139t-37 211.5q0 133 33.5 300.5t94.5 332.5t145.5 305t185.5 225l-21 25q-181 -71 -333 -179.5t-258 -242t-161 -284.5 t-55 -308zM819 1937l45 -39q26 87 92 87q33 0 72 -16t103 -50t94.5 -46.5t58.5 -12.5q71 0 139.5 76.5t139.5 226.5l-39 32q-42 -96 -111 -96q-31 0 -65 16t-85.5 47.5t-90 48.5t-74.5 17q-75 0 -150.5 -78.5t-128.5 -212.5z" />
<glyph unicode="&#xd9;" horiz-adv-x="2476" d="M-8 711q0 -77 25 -156t76 -164t130 -178l39 31q-78 110 -106.5 182.5t-28.5 161.5q0 146 95.5 319.5t249 330t324.5 254t312 97.5q49 0 72.5 -20.5t23.5 -52.5q0 -40 -24 -76l-492 -951q-51 -114 -51 -233q0 -78 26.5 -143.5t85.5 -104.5t152 -39q97 0 188 59 t168.5 150.5t152 209t112.5 179.5q247 407 503 918l7 -6l-414 -891q-23 -51 -43.5 -113.5t-33.5 -123t-13 -99.5q0 -125 110.5 -204t284.5 -79q203 0 477 140v45q-80 -32 -151.5 -61.5t-141 -48.5t-139.5 -19q-119 0 -119 98q0 47 35 135l588 1356l-453 -58 q-45 -102 -192 -370.5t-308 -526.5t-321 -449.5t-252 -191.5q-41 0 -41 35q0 15 6.5 33t17.5 40l11 21l549 1098q20 42 32.5 93.5t12.5 88.5q0 106 -88.5 159.5t-259.5 53.5q-104 0 -202 -17t-196 -51t-195 -86.5t-190 -123.5q-192 -134 -301.5 -311t-109.5 -340zM1501 2011 q102 -111 293 -246h102q-56 86 -75.5 128.5t-36.5 117.5h-283z" />
<glyph unicode="&#xda;" horiz-adv-x="2476" d="M-8 711q0 -77 25 -156t76 -164t130 -178l39 31q-78 110 -106.5 182.5t-28.5 161.5q0 146 95.5 319.5t249 330t324.5 254t312 97.5q49 0 72.5 -20.5t23.5 -52.5q0 -40 -24 -76l-492 -951q-51 -114 -51 -233q0 -78 26.5 -143.5t85.5 -104.5t152 -39q97 0 188 59 t168.5 150.5t152 209t112.5 179.5q247 407 503 918l7 -6l-414 -891q-23 -51 -43.5 -113.5t-33.5 -123t-13 -99.5q0 -125 110.5 -204t284.5 -79q203 0 477 140v45q-80 -32 -151.5 -61.5t-141 -48.5t-139.5 -19q-119 0 -119 98q0 47 35 135l588 1356l-453 -58 q-45 -102 -192 -370.5t-308 -526.5t-321 -449.5t-252 -191.5q-41 0 -41 35q0 15 6.5 33t17.5 40l11 21l549 1098q20 42 32.5 93.5t12.5 88.5q0 106 -88.5 159.5t-259.5 53.5q-104 0 -202 -17t-196 -51t-195 -86.5t-190 -123.5q-192 -134 -301.5 -311t-109.5 -340zM1720 1749 h103q31 26 99.5 79.5t108.5 87t80 75.5h-284h4q-14 -71 -36 -122t-75 -120z" />
<glyph unicode="&#xdd;" horiz-adv-x="2519" d="M90 903q0 -288 270 -567l39 31q-67 76 -106 141.5t-56.5 127.5t-17.5 132q0 173 100.5 340.5t298.5 312.5q85 63 161 105.5t142 65t117 22.5q88 0 88 -90q0 -31 -10 -66l-420 -923q-20 -43 -35.5 -89.5t-24.5 -99t-9 -102.5q0 -111 57 -180.5t186 -69.5q172 0 354.5 161 t343 399.5t278.5 465.5t220 446l13 -8q-174 -387 -226 -543l-143 -387l-121 -329l-14 -25q-51 -20 -192 -74.5t-253 -117.5t-186 -145t-74 -179q0 -59 47.5 -97t120.5 -38q149 0 294 57t272 156t225.5 223.5t159.5 259.5q234 33 407 33l51 84q-137 -10 -237 -23.5 t-201 -36.5q10 17 16 33.5t15 38.5l479 1292l-434 -65q-92 -185 -206 -384.5t-235.5 -384t-258.5 -355t-275 -297.5q-19 -25 -80 -69t-94 -44t-33 43q0 29 21 57l489 1092q43 85 43 162t-43 137t-119.5 93.5t-177.5 33.5q-163 0 -344 -50t-335.5 -146t-250.5 -239t-96 -321z M958 -385q0 33 29.5 82.5t68.5 94t60 61.5q186 175 447 262q-52 -142 -143 -270.5t-193.5 -205.5t-188.5 -77q-80 0 -80 53zM1626 1798h103q11 9 85 67.5t118.5 95.5t84.5 79h-284h4q-14 -70 -36.5 -122.5t-74.5 -119.5z" />
<glyph unicode="&#xe0;" d="M-12 231q0 -126 76.5 -183.5t199.5 -57.5q97 0 197 30t172 76q87 -116 262 -116q123 0 263 57t231 131l-21 25q-76 -53 -170.5 -88t-150.5 -35q-95 0 -95 77q0 32 23 91l264 710l-375 -69q-73 82 -194 82q-81 0 -172 -33.5t-169 -86t-124 -106.5q-63 -72 -112.5 -162.5 t-77 -182t-27.5 -159.5zM342 186q0 57 40.5 186t100.5 267q119 266 240 266q60 0 117 -65l-201 -525q-33 -92 -33 -122l12 -52q-117 -67 -186 -67q-90 0 -90 112zM641 1319q105 -115 293 -246h102q-56 86 -75.5 128.5t-36.5 117.5h-283z" />
<glyph unicode="&#xe1;" d="M-12 231q0 -126 76.5 -183.5t199.5 -57.5q97 0 197 30t172 76q87 -116 262 -116q123 0 263 57t231 131l-21 25q-76 -53 -170.5 -88t-150.5 -35q-95 0 -95 77q0 32 23 91l264 710l-375 -69q-73 82 -194 82q-81 0 -172 -33.5t-169 -86t-124 -106.5q-63 -72 -112.5 -162.5 t-77 -182t-27.5 -159.5zM342 186q0 57 40.5 186t100.5 267q119 266 240 266q60 0 117 -65l-201 -525q-33 -92 -33 -122l12 -52q-117 -67 -186 -67q-90 0 -90 112zM799 1067h102q11 9 82 64.5t122.5 98.5t84.5 79h-285h4q-14 -74 -36 -124.5t-74 -117.5z" />
<glyph unicode="&#xe2;" d="M-12 231q0 -126 76.5 -183.5t199.5 -57.5q97 0 197 30t172 76q87 -116 262 -116q123 0 263 57t231 131l-21 25q-76 -53 -170.5 -88t-150.5 -35q-95 0 -95 77q0 32 23 91l264 710l-375 -69q-73 82 -194 82q-81 0 -172 -33.5t-169 -86t-124 -106.5q-63 -72 -112.5 -162.5 t-77 -182t-27.5 -159.5zM342 186q0 57 40.5 186t100.5 267q119 266 240 266q60 0 117 -65l-201 -525q-33 -92 -33 -122l12 -52q-117 -67 -186 -67q-90 0 -90 112zM578 1073h79q36 30 94 85.5t72 68.5q46 -34 77.5 -58t66.5 -50t63 -46h88q-80 138 -104 287h-226l3 2 q-61 -144 -213 -289z" />
<glyph unicode="&#xe3;" d="M-12 231q0 -126 76.5 -183.5t199.5 -57.5q97 0 197 30t172 76q87 -116 262 -116q123 0 263 57t231 131l-21 25q-76 -53 -170.5 -88t-150.5 -35q-95 0 -95 77q0 32 23 91l264 710l-375 -69q-73 82 -194 82q-81 0 -172 -33.5t-169 -86t-124 -106.5q-63 -72 -112.5 -162.5 t-77 -182t-27.5 -159.5zM342 186q0 57 40.5 186t100.5 267q119 266 240 266q60 0 117 -65l-201 -525q-33 -92 -33 -122l12 -52q-117 -67 -186 -67q-90 0 -90 112zM567 1108l39 -23q21 58 80 58q34 0 89 -20t109.5 -40t88.5 -20q43 0 85 22t82 66t79 106l-39 19l4 -4 q-26 -64 -88 -64q-43 0 -144 42t-141 42q-63 0 -130.5 -49.5t-113.5 -134.5z" />
<glyph unicode="&#xe8;" horiz-adv-x="1004" d="M-31 213q0 -137 111 -184t274 -47q192 0 334.5 40.5t298.5 137.5l-18 33q-261 -156 -453 -156q-180 0 -180 192q0 38 6 74q235 89 369.5 219t134.5 264q0 168 -228 168q-137 0 -256.5 -62.5t-208.5 -171.5t-136.5 -241t-47.5 -266zM354 354q23 90 71 225t110.5 243 t121.5 108q24 0 39 -16.5t15 -43.5q0 -50 -38.5 -124t-94 -148t-116.5 -140t-108 -104zM358 1305q104 -114 293 -246h103q-51 75 -72.5 122.5t-40.5 123.5h-283z" />
<glyph unicode="&#xe9;" horiz-adv-x="1004" d="M-31 213q0 -137 111 -184t274 -47q192 0 334.5 40.5t298.5 137.5l-18 33q-261 -156 -453 -156q-180 0 -180 192q0 38 6 74q235 89 369.5 219t134.5 264q0 168 -228 168q-137 0 -256.5 -62.5t-208.5 -171.5t-136.5 -241t-47.5 -266zM354 354q23 90 71 225t110.5 243 t121.5 108q24 0 39 -16.5t15 -43.5q0 -50 -38.5 -124t-94 -148t-116.5 -140t-108 -104zM526 1063h103q31 26 96.5 76.5t109 87.5t83.5 78h-285h4q-14 -71 -36 -122t-75 -120z" />
<glyph unicode="&#xea;" horiz-adv-x="1004" d="M-31 213q0 -137 111 -184t274 -47q192 0 334.5 40.5t298.5 137.5l-18 33q-261 -156 -453 -156q-180 0 -180 192q0 38 6 74q235 89 369.5 219t134.5 264q0 168 -228 168q-137 0 -256.5 -62.5t-208.5 -171.5t-136.5 -241t-47.5 -266zM268 1073h80q36 30 94 85.5t72 68.5 q45 -32 105.5 -78.5t101.5 -75.5h88q-80 138 -104 287h-226l2 2q-62 -146 -213 -289zM354 354q23 90 71 225t110.5 243t121.5 108q24 0 39 -16.5t15 -43.5q0 -50 -38.5 -124t-94 -148t-116.5 -140t-108 -104z" />
<glyph unicode="&#xec;" horiz-adv-x="815" d="M-18 182q0 -91 96 -139.5t219 -48.5q89 0 167 19.5t153 60.5t145 100l-21 25q-18 -11 -89 -57.5t-123 -68.5t-103 -22t-71.5 22t-20.5 60q0 39 14 92l264 738l-387 -84l-219 -603q-24 -51 -24 -94zM209 1341q107 -117 293 -245h102q-38 55 -57.5 91t-31.5 70t-23 84h-283 z" />
<glyph unicode="&#xed;" horiz-adv-x="815" d="M-18 182q0 -91 96 -139.5t219 -48.5q89 0 167 19.5t153 60.5t145 100l-21 25q-18 -11 -89 -57.5t-123 -68.5t-103 -22t-71.5 22t-20.5 60q0 39 14 92l264 738l-387 -84l-219 -603q-24 -51 -24 -94zM336 1110h102q11 9 82 64.5t122.5 98.5t84.5 79h-285h4 q-14 -74 -36 -124.5t-74 -117.5z" />
<glyph unicode="&#xf2;" horiz-adv-x="1294" d="M-12 264q0 -141 90 -211.5t276 -70.5q184 0 320.5 89t240.5 277q87 -33 177 -33q97 0 186 39l-12 39q-101 -39 -185 -39q-77 0 -151 33q90 156 90 342q0 93 -26.5 161.5t-76 105t-116.5 36.5q-89 0 -139 -71t-50 -193q0 -187 136 -348q-152 -383 -328 -383q-44 0 -71 33 t-27 90q0 106 42 238t97.5 246.5t106 202.5t50.5 89q0 18 -24 18q-154 0 -294.5 -109t-226 -272.5t-85.5 -308.5zM473 1382q104 -113 293 -245h102q-55 83 -75 126.5t-37 118.5h-283zM664 825q0 67 20.5 108.5t50.5 41.5q66 0 66 -219q0 -119 -33 -273q-43 65 -73.5 162.5 t-30.5 179.5z" />
<glyph unicode="&#xf3;" horiz-adv-x="1294" d="M-12 264q0 -141 90 -211.5t276 -70.5q184 0 320.5 89t240.5 277q87 -33 177 -33q97 0 186 39l-12 39q-101 -39 -185 -39q-77 0 -151 33q90 156 90 342q0 93 -26.5 161.5t-76 105t-116.5 36.5q-89 0 -139 -71t-50 -193q0 -187 136 -348q-152 -383 -328 -383q-44 0 -71 33 t-27 90q0 106 42 238t97.5 246.5t106 202.5t50.5 89q0 18 -24 18q-154 0 -294.5 -109t-226 -272.5t-85.5 -308.5zM600 1141h102q46 37 103.5 81t101.5 81t84 79h-284h4q-14 -70 -36 -121t-75 -120zM664 825q0 67 20.5 108.5t50.5 41.5q66 0 66 -219q0 -119 -33 -273 q-43 65 -73.5 162.5t-30.5 179.5z" />
<glyph unicode="&#xf4;" horiz-adv-x="1294" d="M-12 264q0 -141 90 -211.5t276 -70.5q184 0 320.5 89t240.5 277q87 -33 177 -33q97 0 186 39l-12 39q-101 -39 -185 -39q-77 0 -151 33q90 156 90 342q0 93 -26.5 161.5t-76 105t-116.5 36.5q-89 0 -139 -71t-50 -193q0 -187 136 -348q-152 -383 -328 -383q-44 0 -71 33 t-27 90q0 106 42 238t97.5 246.5t106 202.5t50.5 89q0 18 -24 18q-154 0 -294.5 -109t-226 -272.5t-85.5 -308.5zM471 1090h80q36 30 91.5 83.5t74.5 69.5q46 -34 63.5 -47.5t66 -49.5t77.5 -56h88q-79 134 -105 286h-225l2 2q-62 -147 -213 -288zM664 825q0 67 20.5 108.5 t50.5 41.5q66 0 66 -219q0 -119 -33 -273q-43 65 -73.5 162.5t-30.5 179.5z" />
<glyph unicode="&#xf5;" horiz-adv-x="1294" d="M-12 264q0 -141 90 -211.5t276 -70.5q184 0 320.5 89t240.5 277q87 -33 177 -33q97 0 186 39l-12 39q-101 -39 -185 -39q-77 0 -151 33q90 156 90 342q0 93 -26.5 161.5t-76 105t-116.5 36.5q-89 0 -139 -71t-50 -193q0 -187 136 -348q-152 -383 -328 -383q-44 0 -71 33 t-27 90q0 106 42 238t97.5 246.5t106 202.5t50.5 89q0 18 -24 18q-154 0 -294.5 -109t-226 -272.5t-85.5 -308.5zM410 1182l39 -23q20 58 79 58q34 0 89 -20t109.5 -40t88.5 -20q66 0 125.5 48.5t120.5 145.5l-39 19l4 -4q-24 -64 -88 -64q-43 0 -144 42t-141 42 q-63 0 -129.5 -49.5t-113.5 -134.5zM664 825q0 67 20.5 108.5t50.5 41.5q66 0 66 -219q0 -119 -33 -273q-43 65 -73.5 162.5t-30.5 179.5z" />
<glyph unicode="&#xf7;" horiz-adv-x="1706" />
<glyph unicode="&#xf9;" horiz-adv-x="582" />
<glyph unicode="&#xfa;" horiz-adv-x="580" />
<glyph unicode="&#xfd;" horiz-adv-x="629" />
<glyph unicode="&#x102;" horiz-adv-x="2355" d="M-76 315q0 -99 59.5 -176.5t169 -120.5t253.5 -43q164 0 306 46t269 142t236.5 236.5t209.5 335.5q44 0 61.5 -0.5t39.5 -1.5t50.5 -2t61.5 -2l-135 -369q-39 -94 -39 -167q0 -103 83.5 -163.5t232.5 -60.5q70 0 138.5 10.5t134 32t129 54t134.5 81.5v58 q-99 -71 -209.5 -119.5t-177.5 -48.5q-102 0 -102 88q0 30 12 68l199 536q36 -3 87 -4.5t120 -1.5l65 96q-96 -12 -239 -12l161 420q39 110 39 211q0 94 -49 151.5t-164 57.5q-119 0 -226 -86.5t-196 -221t-129.5 -218.5t-146.5 -314q-39 0 -120 2t-121 3.5t-101.5 3 t-142.5 1.5q-171 0 -316.5 -19t-277.5 -69q-168 -58 -263.5 -169.5t-95.5 -244.5zM252 309q0 118 55.5 206.5t148.5 145t202 82t221 25.5q41 0 134.5 -2.5t174.5 -9t141 -15.5q-67 -153 -159.5 -281t-199 -221t-221 -143.5t-221.5 -50.5q-83 0 -145.5 33t-96.5 93.5 t-34 137.5zM1458 801q58 128 105.5 234t100 201.5t121.5 186.5t152 158l13 8v-47l-277 -741l-92 -6zM1917 1927q0 -77 44 -122.5t136 -45.5q89 0 160 37.5t119.5 98.5t79.5 135h-54v-2q-33 -43 -118.5 -80t-161.5 -37q-135 0 -135 127h-52q-18 -55 -18 -111z" />
<glyph unicode="&#x103;" d="M-12 231q0 -126 76.5 -183.5t199.5 -57.5q97 0 197 30t172 76q87 -116 262 -116q123 0 263 57t231 131l-21 25q-76 -53 -170.5 -88t-150.5 -35q-95 0 -95 77q0 32 23 91l264 710l-375 -69q-73 82 -194 82q-81 0 -172 -33.5t-169 -86t-124 -106.5q-63 -72 -112.5 -162.5 t-77 -182t-27.5 -159.5zM342 186q0 57 40.5 186t100.5 267q119 266 240 266q60 0 117 -65l-201 -525q-33 -92 -33 -122l12 -52q-117 -67 -186 -67q-90 0 -90 112zM690 1221q0 -76 43.5 -122t136.5 -46q133 0 220.5 75.5t138.5 194.5h-53v-2q-22 -26 -71 -54.5t-105 -45.5 t-105 -17q-135 0 -135 127h-51q-19 -54 -19 -110z" />
<glyph unicode="&#x10c;" horiz-adv-x="1274" />
<glyph unicode="&#x10d;" horiz-adv-x="922" />
<glyph unicode="&#x110;" horiz-adv-x="2355" d="M31 723q0 -98 36 -178.5t113 -151.5l39 39q-90 83 -90 205q0 76 32.5 157.5t86.5 162t114 148.5t109 116q189 178 416.5 266t507.5 88q297 0 445.5 -117t148.5 -354q0 -195 -72 -390.5t-206 -357.5t-310 -256t-375 -94l-285 12h-39q144 37 244.5 103t169 158t118.5 210 t89 252h303l78 99h-342q40 126 80.5 234t90.5 215.5t107 201.5l-26 27q-200 -102 -319.5 -191t-195 -201t-136.5 -286h-291l-92 -99h344q-1 -4 -42 -155.5t-82.5 -268.5t-98 -204.5t-121.5 -94.5v-43q238 -24 438 -24q135 0 255 11.5t239 40.5t229.5 78t202.5 118 q117 95 207 219.5t138 261t48 268.5q0 154 -69.5 279t-198.5 213t-311.5 134t-407.5 46q-212 0 -440.5 -51t-428.5 -159.5t-325 -282t-125 -404.5z" />
<glyph unicode="&#x111;" horiz-adv-x="1577" d="M-37 231q0 -88 37 -141.5t101 -77.5t141 -24q97 0 201.5 31.5t174.5 76.5q41 -53 111 -77.5t180 -24.5q152 0 272.5 41.5t225.5 132.5l-18 25q-184 -136 -324 -136q-55 0 -85 26t-30 69q0 35 19 67l336 987h206l109 156h-258l96 264l-381 -70l-69 -194h-375l-123 -156 h438l-108 -321q-52 44 -110.5 65t-117.5 21q-114 0 -232 -71.5t-212 -187t-149.5 -245t-55.5 -236.5zM315 180q0 58 20 130t77 231q39 91 77 166.5t95 141.5t116 66q65 0 125 -90l-207 -561q-9 -33 -13.5 -50t-4.5 -28l6 -45q-36 -31 -88.5 -53t-99.5 -22q-103 0 -103 114z " />
<glyph unicode="&#x128;" horiz-adv-x="1720" d="M66 297q0 -150 121 -236t325 -86q144 0 273 28.5t242.5 85.5t209 145t166.5 204q149 -43 272 -155l33 90q-150 88 -278 116q61 119 102 252t87.5 336.5t67.5 279.5t66 167q-98 0 -178.5 12.5t-227.5 42t-252.5 45.5t-207.5 16q-128 0 -240.5 -30t-200 -88.5t-153.5 -148 t-111 -212.5l51 -12q50 136 143.5 189t227.5 53q83 0 232.5 -20.5t218.5 -20.5q127 0 293 33.5t327 89.5q-178 -99 -284.5 -232t-159.5 -257.5t-156 -416.5q-243 84 -497 84q-152 0 -269.5 -44t-180 -124t-62.5 -186zM125 264q0 135 150.5 219t392.5 84q237 0 387 -51 q-59 -117 -126 -205t-143.5 -150t-158.5 -93t-166 -31q-92 0 -169.5 29.5t-122 82t-44.5 115.5zM893 1790l39 -23q20 58 80 58q27 0 62.5 -11t84 -30t80 -29t59.5 -10q66 0 126 49.5t120 144.5l-39 19l4 -4q-25 -64 -88 -64q-38 0 -90 21t-105.5 42t-88.5 21 q-64 0 -131 -49.5t-113 -134.5z" />
<glyph unicode="&#x129;" horiz-adv-x="815" d="M-18 182q0 -91 96 -139.5t219 -48.5q89 0 167 19.5t153 60.5t145 100l-21 25q-18 -11 -89 -57.5t-123 -68.5t-103 -22t-71.5 22t-20.5 60q0 39 14 92l264 738l-387 -84l-219 -603q-24 -51 -24 -94zM135 1130l39 -22q19 57 80 57q34 0 89 -20t109.5 -40t88.5 -20 q125 0 245 195l-38 18l4 -4q-25 -63 -88 -63q-43 0 -144 42t-141 42q-63 0 -130.5 -50.5t-113.5 -134.5z" />
<glyph unicode="&#x168;" horiz-adv-x="2476" d="M-8 711q0 -77 25 -156t76 -164t130 -178l39 31q-78 110 -106.5 182.5t-28.5 161.5q0 146 95.5 319.5t249 330t324.5 254t312 97.5q49 0 72.5 -20.5t23.5 -52.5q0 -40 -24 -76l-492 -951q-51 -114 -51 -233q0 -78 26.5 -143.5t85.5 -104.5t152 -39q97 0 188 59 t168.5 150.5t152 209t112.5 179.5q247 407 503 918l7 -6l-414 -891q-23 -51 -43.5 -113.5t-33.5 -123t-13 -99.5q0 -125 110.5 -204t284.5 -79q203 0 477 140v45q-80 -32 -151.5 -61.5t-141 -48.5t-139.5 -19q-119 0 -119 98q0 47 35 135l588 1356l-453 -58 q-45 -102 -192 -370.5t-308 -526.5t-321 -449.5t-252 -191.5q-41 0 -41 35q0 15 6.5 33t17.5 40l11 21l549 1098q20 42 32.5 93.5t12.5 88.5q0 106 -88.5 159.5t-259.5 53.5q-104 0 -202 -17t-196 -51t-195 -86.5t-190 -123.5q-192 -134 -301.5 -311t-109.5 -340zM1499 1821 l39 -23q19 57 80 57q32 0 88 -19.5t111.5 -39.5t87.5 -20q125 0 245 194l-39 19l5 -4q-25 -64 -88 -64q-43 0 -144 42t-141 42q-42 0 -86.5 -22.5t-84.5 -63t-73 -98.5z" />
<glyph unicode="&#x169;" horiz-adv-x="1413" d="M-37 209q0 -64 35.5 -113t99.5 -75.5t146 -26.5q105 0 201 30t200 91q80 -127 254 -127q87 0 180.5 28.5t175.5 70t146 87.5l-19 31q-102 -72 -186.5 -110t-142.5 -38q-84 0 -84 80q0 48 30 133l261 672l-396 -78l-207 -549q-24 -84 -24 -122v-39q-170 -99 -258 -99 q-78 0 -78 80q0 56 31 129l252 684l-387 -78l-205 -548q-25 -54 -25 -113zM512 1128l39 -22q19 57 80 57q34 0 89 -20t109.5 -40t88.5 -20q123 0 245 195l-39 18l4 -4q-24 -63 -88 -63q-38 0 -90 21t-105.5 42t-88.5 21q-64 0 -131.5 -50.5t-112.5 -134.5z" />
<glyph unicode="&#x1a0;" horiz-adv-x="1782" d="M61 567q0 -142 46.5 -255t136 -193t218 -122t283.5 -42q203 0 388.5 86.5t332 239t227.5 344t81 389.5q0 197 -66 332q27 0 93.5 46t118.5 116t52 149q0 76 -59 147l-213 -100l14 -25h21q32 0 50.5 -21t18.5 -63q0 -87 -129 -182q-20 40 -69.5 96t-135 103t-192.5 47 q-129 0 -223.5 -57.5t-153.5 -153t-86 -211.5t-27 -238q0 -52 7 -120l51 6h-2q0 85 32 209.5t90 242t139.5 194.5t176.5 77q72 0 114 -74.5t42 -198.5q0 -87 -16.5 -198t-50.5 -240.5t-77 -246t-96 -218.5q-107 -230 -215 -334t-244 -104q-94 0 -164.5 48.5t-107.5 139 t-37 211.5q0 133 33.5 300.5t94.5 332.5t145.5 305t185.5 225l-21 25q-181 -71 -333 -179.5t-258 -242t-161 -284.5t-55 -308z" />
<glyph unicode="&#x1a1;" horiz-adv-x="1290" d="M-12 264q0 -141 90 -211.5t276 -70.5q184 0 320.5 89t240.5 277q87 -33 177 -33q97 0 186 39l-12 39q-101 -39 -185 -39q-77 0 -151 33q27 46 47.5 103.5t31.5 122.5t11 126q35 0 107 46.5t127 119.5t55 152t-60 147l-213 -100l15 -25h20q31 0 50.5 -21.5t19.5 -62.5 q0 -86 -129 -182h2q-15 103 -72.5 161t-140.5 58q-89 0 -139 -71t-50 -193q0 -187 136 -348q-152 -383 -328 -383q-44 0 -71 33t-27 90q0 106 42 238t97.5 246.5t106 202.5t50.5 89q0 18 -24 18q-154 0 -294.5 -109t-226 -272.5t-85.5 -308.5zM664 825q0 67 20.5 108.5 t50.5 41.5q66 0 66 -219q0 -119 -33 -273q-43 65 -73.5 162.5t-30.5 179.5z" />
<glyph unicode="&#x1af;" horiz-adv-x="2476" d="M-8 711q0 -77 25 -156t76 -164t130 -178l39 31q-78 110 -106.5 182.5t-28.5 161.5q0 146 95.5 319.5t249 330t324.5 254t312 97.5q49 0 72.5 -20.5t23.5 -52.5q0 -40 -24 -76l-492 -951q-51 -114 -51 -233q0 -78 26.5 -143.5t85.5 -104.5t152 -39q97 0 188 59 t168.5 150.5t152 209t112.5 179.5q247 407 503 918l7 -6l-414 -891q-23 -51 -43.5 -113.5t-33.5 -123t-13 -99.5q0 -125 110.5 -204t284.5 -79q203 0 477 140v45q-80 -32 -151.5 -61.5t-141 -48.5t-139.5 -19q-119 0 -119 98q0 47 35 135l461 1057q53 6 133 55t139.5 124.5 t59.5 156.5q0 73 -60 145l-213 -100l15 -25h20q31 0 50.5 -21.5t19.5 -62.5q0 -86 -129 -182l92 209l-453 -58q-45 -102 -192 -370.5t-308 -526.5t-321 -449.5t-252 -191.5q-41 0 -41 35q0 15 6.5 33t17.5 40l11 21l549 1098q20 42 32.5 93.5t12.5 88.5q0 106 -88.5 159.5 t-259.5 53.5q-104 0 -202 -17t-196 -51t-195 -86.5t-190 -123.5q-192 -134 -301.5 -311t-109.5 -340z" />
<glyph unicode="&#x1b0;" horiz-adv-x="1413" d="M-37 209q0 -64 35.5 -113t99.5 -75.5t146 -26.5q105 0 201 30t200 91q80 -127 254 -127q87 0 180.5 28.5t175.5 70t146 87.5l-19 31q-220 -148 -329 -148q-84 0 -84 80q0 48 30 133l158 410v-2q53 6 133 55t139.5 124.5t59.5 156.5q0 73 -59 145l-213 -100l14 -25h20 q31 0 50.5 -21.5t19.5 -62.5q0 -87 -129 -182l68 174l-396 -78l-207 -549q-24 -84 -24 -122v-39q-170 -99 -258 -99q-78 0 -78 80q0 56 31 129l252 684l-387 -78l-205 -548q-25 -54 -25 -113z" />
<glyph unicode="&#x1ea0;" horiz-adv-x="2355" d="M-76 315q0 -99 59.5 -176.5t169 -120.5t253.5 -43q164 0 306 46t269 142t236.5 236.5t209.5 335.5q44 0 61.5 -0.5t39.5 -1.5t50.5 -2t61.5 -2l-135 -369q-39 -94 -39 -167q0 -103 83.5 -163.5t232.5 -60.5q70 0 138.5 10.5t134 32t129 54t134.5 81.5v58 q-99 -71 -209.5 -119.5t-177.5 -48.5q-102 0 -102 88q0 30 12 68l199 536q36 -3 87 -4.5t120 -1.5l65 96q-96 -12 -239 -12l161 420q39 110 39 211q0 94 -49 151.5t-164 57.5q-119 0 -226 -86.5t-196 -221t-129.5 -218.5t-146.5 -314q-39 0 -120 2t-121 3.5t-101.5 3 t-142.5 1.5q-171 0 -316.5 -19t-277.5 -69q-168 -58 -263.5 -169.5t-95.5 -244.5zM252 309q0 118 55.5 206.5t148.5 145t202 82t221 25.5q41 0 134.5 -2.5t174.5 -9t141 -15.5q-67 -153 -159.5 -281t-199 -221t-221 -143.5t-221.5 -50.5q-83 0 -145.5 33t-96.5 93.5 t-34 137.5zM1008 -322q0 -80 53.5 -140t144.5 -60q63 0 106.5 28t66 74.5t22.5 97.5q0 52 -22 98t-66 74.5t-107 28.5q-64 0 -109 -28t-67 -74t-22 -99zM1458 801q58 128 105.5 234t100 201.5t121.5 186.5t152 158l13 8v-47l-277 -741l-92 -6z" />
<glyph unicode="&#x1ea1;" d="M-12 231q0 -126 76.5 -183.5t199.5 -57.5q97 0 197 30t172 76q87 -116 262 -116q123 0 263 57t231 131l-21 25q-76 -53 -170.5 -88t-150.5 -35q-95 0 -95 77q0 32 23 91l264 710l-375 -69q-73 82 -194 82q-81 0 -172 -33.5t-169 -86t-124 -106.5q-63 -72 -112.5 -162.5 t-77 -182t-27.5 -159.5zM342 186q0 57 40.5 186t100.5 267q119 266 240 266q60 0 117 -65l-201 -525q-33 -92 -33 -122l12 -52q-117 -67 -186 -67q-90 0 -90 112zM387 -248q0 -53 32.5 -91t88.5 -38q60 0 93.5 39t33.5 92q0 55 -32.5 94t-94.5 39q-55 0 -88 -40.5t-33 -94.5 z" />
<glyph unicode="&#x1ea2;" horiz-adv-x="2355" d="M-76 315q0 -99 59.5 -176.5t169 -120.5t253.5 -43q164 0 306 46t269 142t236.5 236.5t209.5 335.5q44 0 61.5 -0.5t39.5 -1.5t50.5 -2t61.5 -2l-135 -369q-39 -94 -39 -167q0 -103 83.5 -163.5t232.5 -60.5q70 0 138.5 10.5t134 32t129 54t134.5 81.5v58 q-99 -71 -209.5 -119.5t-177.5 -48.5q-102 0 -102 88q0 30 12 68l199 536q36 -3 87 -4.5t120 -1.5l65 96q-96 -12 -239 -12l161 420q39 110 39 211q0 94 -49 151.5t-164 57.5q-119 0 -226 -86.5t-196 -221t-129.5 -218.5t-146.5 -314q-39 0 -120 2t-121 3.5t-101.5 3 t-142.5 1.5q-171 0 -316.5 -19t-277.5 -69q-168 -58 -263.5 -169.5t-95.5 -244.5zM252 309q0 118 55.5 206.5t148.5 145t202 82t221 25.5q41 0 134.5 -2.5t174.5 -9t141 -15.5q-67 -153 -159.5 -281t-199 -221t-221 -143.5t-221.5 -50.5q-83 0 -145.5 33t-96.5 93.5 t-34 137.5zM1458 801q58 128 105.5 234t100 201.5t121.5 186.5t152 158l13 8v-47l-277 -741l-92 -6zM1911 2138h59q3 44 32 84.5t74 65t93 24.5q23 0 44 -21t21 -38q0 -34 -28.5 -62.5t-86.5 -73.5t-88 -84.5t-30 -88.5q0 -61 20.5 -92t89.5 -31q29 0 67 17t38 28v51 q-34 -23 -64 -23q-34 0 -34 43q0 31 90 80.5t133 82t43 95.5q0 48 -28 90t-75 66.5t-104 24.5q-65 0 -127.5 -35.5t-100.5 -90.5t-38 -112z" />
<glyph unicode="&#x1ea3;" d="M-12 231q0 -126 76.5 -183.5t199.5 -57.5q97 0 197 30t172 76q87 -116 262 -116q123 0 263 57t231 131l-21 25q-76 -53 -170.5 -88t-150.5 -35q-95 0 -95 77q0 32 23 91l264 710l-375 -69q-73 82 -194 82q-81 0 -172 -33.5t-169 -86t-124 -106.5q-63 -72 -112.5 -162.5 t-77 -182t-27.5 -159.5zM342 186q0 57 40.5 186t100.5 267q119 266 240 266q60 0 117 -65l-201 -525q-33 -92 -33 -122l12 -52q-117 -67 -186 -67q-90 0 -90 112zM717 1323h51l14 -4q8 55 57.5 94t112.5 39q22 0 40 -15t18 -30q0 -26 -25.5 -48t-76.5 -54.5t-79 -63.5 t-28 -72q0 -47 17.5 -73.5t76.5 -26.5q27 0 59.5 14t32.5 23v41q-30 -23 -51 -23q-31 0 -31 39q0 21 81 61t119 66t38 76q0 47 -23.5 78t-64 46t-86.5 15q-95 0 -173.5 -51t-78.5 -131z" />
<glyph unicode="&#x1ea4;" horiz-adv-x="2355" d="M-76 315q0 -99 59.5 -176.5t169 -120.5t253.5 -43q164 0 306 46t269 142t236.5 236.5t209.5 335.5q44 0 61.5 -0.5t39.5 -1.5t50.5 -2t61.5 -2l-135 -369q-39 -94 -39 -167q0 -103 83.5 -163.5t232.5 -60.5q70 0 138.5 10.5t134 32t129 54t134.5 81.5v58 q-99 -71 -209.5 -119.5t-177.5 -48.5q-102 0 -102 88q0 30 12 68l199 536q36 -3 87 -4.5t120 -1.5l65 96q-96 -12 -239 -12l161 420q39 110 39 211q0 94 -49 151.5t-164 57.5q-119 0 -226 -86.5t-196 -221t-129.5 -218.5t-146.5 -314q-39 0 -120 2t-121 3.5t-101.5 3 t-142.5 1.5q-171 0 -316.5 -19t-277.5 -69q-168 -58 -263.5 -169.5t-95.5 -244.5zM252 309q0 118 55.5 206.5t148.5 145t202 82t221 25.5q41 0 134.5 -2.5t174.5 -9t141 -15.5q-67 -153 -159.5 -281t-199 -221t-221 -143.5t-221.5 -50.5q-83 0 -145.5 33t-96.5 93.5 t-34 137.5zM1458 801q58 128 105.5 234t100 201.5t121.5 186.5t152 158l13 8v-47l-277 -741l-92 -6zM1793 1735h80q36 30 87.5 79t78.5 74q30 -22 98 -73t109 -80h88q-79 138 -105 286h-225l2 2q-62 -147 -213 -288zM2306 1894h135q54 42 117 89.5t104 80.5t85.5 72.5 t86.5 87.5h-374q-13 -85 -45 -152t-109 -178z" />
<glyph unicode="&#x1ea5;" d="M-12 231q0 -126 76.5 -183.5t199.5 -57.5q97 0 197 30t172 76q87 -116 262 -116q123 0 263 57t231 131l-21 25q-76 -53 -170.5 -88t-150.5 -35q-95 0 -95 77q0 32 23 91l264 710l-375 -69q-73 82 -194 82q-81 0 -172 -33.5t-169 -86t-124 -106.5q-63 -72 -112.5 -162.5 t-77 -182t-27.5 -159.5zM342 186q0 57 40.5 186t100.5 267q119 266 240 266q60 0 117 -65l-201 -525q-33 -92 -33 -122l12 -52q-117 -67 -186 -67q-90 0 -90 112zM578 1073h79q36 30 94 85.5t72 68.5q46 -34 77.5 -58t66.5 -50t63 -46h88q-80 138 -104 287h-226l3 2 q-61 -144 -213 -289zM1118 1255h103q11 9 85 67.5t118.5 95.5t84.5 79h-284h4q-14 -70 -36 -120.5t-75 -121.5z" />
<glyph unicode="&#x1ea6;" horiz-adv-x="2355" d="M-76 315q0 -99 59.5 -176.5t169 -120.5t253.5 -43q164 0 306 46t269 142t236.5 236.5t209.5 335.5q44 0 61.5 -0.5t39.5 -1.5t50.5 -2t61.5 -2l-135 -369q-39 -94 -39 -167q0 -103 83.5 -163.5t232.5 -60.5q70 0 138.5 10.5t134 32t129 54t134.5 81.5v58 q-99 -71 -209.5 -119.5t-177.5 -48.5q-102 0 -102 88q0 30 12 68l199 536q36 -3 87 -4.5t120 -1.5l65 96q-96 -12 -239 -12l161 420q39 110 39 211q0 94 -49 151.5t-164 57.5q-119 0 -226 -86.5t-196 -221t-129.5 -218.5t-146.5 -314q-39 0 -120 2t-121 3.5t-101.5 3 t-142.5 1.5q-171 0 -316.5 -19t-277.5 -69q-168 -58 -263.5 -169.5t-95.5 -244.5zM252 309q0 118 55.5 206.5t148.5 145t202 82t221 25.5q41 0 134.5 -2.5t174.5 -9t141 -15.5q-67 -153 -159.5 -281t-199 -221t-221 -143.5t-221.5 -50.5q-83 0 -145.5 33t-96.5 93.5 t-34 137.5zM1368 2243q60 -60 107.5 -102.5t88.5 -76t99.5 -79.5t91.5 -72l135 6q-79 111 -107 170.5t-46 153.5h-369zM1458 801q58 128 105.5 234t100 201.5t121.5 186.5t152 158l13 8v-47l-277 -741l-92 -6zM1793 1735h80q36 30 87.5 79t78.5 74q30 -22 98 -73t109 -80h88 q-79 138 -105 286h-225l2 2q-62 -147 -213 -288z" />
<glyph unicode="&#x1ea7;" d="M-12 231q0 -126 76.5 -183.5t199.5 -57.5q97 0 197 30t172 76q87 -116 262 -116q123 0 263 57t231 131l-21 25q-76 -53 -170.5 -88t-150.5 -35q-95 0 -95 77q0 32 23 91l264 710l-375 -69q-73 82 -194 82q-81 0 -172 -33.5t-169 -86t-124 -106.5q-63 -72 -112.5 -162.5 t-77 -182t-27.5 -159.5zM342 186q0 57 40.5 186t100.5 267q119 266 240 266q60 0 117 -65l-201 -525q-33 -92 -33 -122l12 -52q-117 -67 -186 -67q-90 0 -90 112zM578 1073h79q36 30 94 85.5t72 68.5q46 -34 77.5 -58t66.5 -50t63 -46h88q-80 138 -104 287h-226l3 2 q-61 -144 -213 -289zM858 1620q102 -111 293 -246h102q-56 86 -75.5 128.5t-36.5 117.5h-283z" />
<glyph unicode="&#x1ea8;" horiz-adv-x="2355" d="M-76 315q0 -99 59.5 -176.5t169 -120.5t253.5 -43q164 0 306 46t269 142t236.5 236.5t209.5 335.5q44 0 61.5 -0.5t39.5 -1.5t50.5 -2t61.5 -2l-135 -369q-39 -94 -39 -167q0 -103 83.5 -163.5t232.5 -60.5q70 0 138.5 10.5t134 32t129 54t134.5 81.5v58 q-99 -71 -209.5 -119.5t-177.5 -48.5q-102 0 -102 88q0 30 12 68l199 536q36 -3 87 -4.5t120 -1.5l65 96q-96 -12 -239 -12l161 420q39 110 39 211q0 94 -49 151.5t-164 57.5q-119 0 -226 -86.5t-196 -221t-129.5 -218.5t-146.5 -314q-39 0 -120 2t-121 3.5t-101.5 3 t-142.5 1.5q-171 0 -316.5 -19t-277.5 -69q-168 -58 -263.5 -169.5t-95.5 -244.5zM252 309q0 118 55.5 206.5t148.5 145t202 82t221 25.5q41 0 134.5 -2.5t174.5 -9t141 -15.5q-67 -153 -159.5 -281t-199 -221t-221 -143.5t-221.5 -50.5q-83 0 -145.5 33t-96.5 93.5 t-34 137.5zM1458 801q58 128 105.5 234t100 201.5t121.5 186.5t152 158l13 8v-47l-277 -741l-92 -6zM1793 1735h80q36 30 87.5 79t78.5 74q30 -22 98 -73t109 -80h88q-79 138 -105 286h-225l2 2q-62 -147 -213 -288zM2216 2204h57q7 45 36.5 85t73.5 64.5t91 24.5 q27 0 46.5 -21.5t19.5 -42.5q0 -32 -25.5 -57.5t-83.5 -71.5t-88.5 -85.5t-30.5 -90.5q0 -60 19.5 -94.5t85.5 -34.5q27 0 67.5 21t40.5 32v52q-38 -29 -67 -29q-35 0 -35 47q0 24 49 53.5t100.5 58t86 63t34.5 83.5q0 58 -26 97t-70 58t-96 19q-68 0 -135 -29t-108.5 -81.5 t-41.5 -120.5z" />
<glyph unicode="&#x1ea9;" d="M-12 231q0 -126 76.5 -183.5t199.5 -57.5q97 0 197 30t172 76q87 -116 262 -116q123 0 263 57t231 131l-21 25q-76 -53 -170.5 -88t-150.5 -35q-95 0 -95 77q0 32 23 91l264 710l-375 -69q-73 82 -194 82q-81 0 -172 -33.5t-169 -86t-124 -106.5q-63 -72 -112.5 -162.5 t-77 -182t-27.5 -159.5zM342 186q0 57 40.5 186t100.5 267q119 266 240 266q60 0 117 -65l-201 -525q-33 -92 -33 -122l12 -52q-117 -67 -186 -67q-90 0 -90 112zM578 1073h79q36 30 94 85.5t72 68.5q46 -34 77.5 -58t66.5 -50t63 -46h88q-80 138 -104 287h-226l3 2 q-61 -144 -213 -289zM1047 1481h51l14 -4q6 53 56.5 93t113.5 40q22 0 39.5 -15t17.5 -30q0 -26 -25.5 -48t-76.5 -54.5t-79 -63.5t-28 -72q0 -48 17 -74t78 -26q27 0 59.5 13t32.5 24v41q-29 -23 -51 -23q-31 0 -31 39q0 21 77 58.5t119 66t42 78.5q0 71 -49.5 105 t-125.5 34q-95 0 -173 -51t-78 -131z" />
<glyph unicode="&#x1eaa;" horiz-adv-x="2355" d="M-76 315q0 -99 59.5 -176.5t169 -120.5t253.5 -43q164 0 306 46t269 142t236.5 236.5t209.5 335.5q44 0 61.5 -0.5t39.5 -1.5t50.5 -2t61.5 -2l-135 -369q-39 -94 -39 -167q0 -103 83.5 -163.5t232.5 -60.5q70 0 138.5 10.5t134 32t129 54t134.5 81.5v58 q-99 -71 -209.5 -119.5t-177.5 -48.5q-102 0 -102 88q0 30 12 68l199 536q36 -3 87 -4.5t120 -1.5l65 96q-96 -12 -239 -12l161 420q39 110 39 211q0 94 -49 151.5t-164 57.5q-119 0 -226 -86.5t-196 -221t-129.5 -218.5t-146.5 -314q-39 0 -120 2t-121 3.5t-101.5 3 t-142.5 1.5q-171 0 -316.5 -19t-277.5 -69q-168 -58 -263.5 -169.5t-95.5 -244.5zM252 309q0 118 55.5 206.5t148.5 145t202 82t221 25.5q41 0 134.5 -2.5t174.5 -9t141 -15.5q-67 -153 -159.5 -281t-199 -221t-221 -143.5t-221.5 -50.5q-83 0 -145.5 33t-96.5 93.5 t-34 137.5zM1458 801q58 128 105.5 234t100 201.5t121.5 186.5t152 158l13 8v-47l-277 -741l-92 -6zM1793 1735h80q36 30 87.5 79t78.5 74q30 -22 98 -73t109 -80h88q-79 138 -105 286h-225l2 2q-62 -147 -213 -288zM1860 2185l45 -31q30 76 96 76q32 0 70.5 -15t94.5 -43.5 t90.5 -42t68.5 -13.5q141 0 278 297l-39 38q-38 -98 -108 -98q-30 0 -62 14t-87 44.5t-95.5 47.5t-73.5 17q-73 0 -149 -78.5t-129 -212.5z" />
<glyph unicode="&#x1eab;" d="M-12 231q0 -126 76.5 -183.5t199.5 -57.5q97 0 197 30t172 76q87 -116 262 -116q123 0 263 57t231 131l-21 25q-76 -53 -170.5 -88t-150.5 -35q-95 0 -95 77q0 32 23 91l264 710l-375 -69q-73 82 -194 82q-81 0 -172 -33.5t-169 -86t-124 -106.5q-63 -72 -112.5 -162.5 t-77 -182t-27.5 -159.5zM342 186q0 57 40.5 186t100.5 267q119 266 240 266q60 0 117 -65l-201 -525q-33 -92 -33 -122l12 -52q-117 -67 -186 -67q-90 0 -90 112zM578 1073h79q36 30 94 85.5t72 68.5q46 -34 77.5 -58t66.5 -50t63 -46h88q-80 138 -104 287h-226l3 2 q-61 -144 -213 -289zM651 1501l39 -22q21 57 80 57q34 0 89 -20t109.5 -40t88.5 -20q124 0 246 195l-39 18l4 -4q-25 -63 -88 -63q-43 0 -144 42t-141 42q-63 0 -130.5 -50.5t-113.5 -134.5z" />
<glyph unicode="&#x1eac;" horiz-adv-x="2355" d="M-76 315q0 -99 59.5 -176.5t169 -120.5t253.5 -43q164 0 306 46t269 142t236.5 236.5t209.5 335.5q44 0 61.5 -0.5t39.5 -1.5t50.5 -2t61.5 -2l-135 -369q-39 -94 -39 -167q0 -103 83.5 -163.5t232.5 -60.5q70 0 138.5 10.5t134 32t129 54t134.5 81.5v58 q-99 -71 -209.5 -119.5t-177.5 -48.5q-102 0 -102 88q0 30 12 68l199 536q36 -3 87 -4.5t120 -1.5l65 96q-96 -12 -239 -12l161 420q39 110 39 211q0 94 -49 151.5t-164 57.5q-119 0 -226 -86.5t-196 -221t-129.5 -218.5t-146.5 -314q-39 0 -120 2t-121 3.5t-101.5 3 t-142.5 1.5q-171 0 -316.5 -19t-277.5 -69q-168 -58 -263.5 -169.5t-95.5 -244.5zM252 309q0 118 55.5 206.5t148.5 145t202 82t221 25.5q41 0 134.5 -2.5t174.5 -9t141 -15.5q-67 -153 -159.5 -281t-199 -221t-221 -143.5t-221.5 -50.5q-83 0 -145.5 33t-96.5 93.5 t-34 137.5zM778 -510q0 -77 52.5 -139t142.5 -62q94 0 146 59.5t52 141.5t-52 141.5t-146 59.5q-61 0 -105.5 -27.5t-67 -73.5t-22.5 -100zM1458 801q58 128 105.5 234t100 201.5t121.5 186.5t152 158l13 8v-47l-277 -741l-92 -6zM1793 1735h80q36 30 87.5 79t78.5 74 q30 -22 98 -73t109 -80h88q-79 138 -105 286h-225l2 2q-62 -147 -213 -288z" />
<glyph unicode="&#x1ead;" d="M-12 231q0 -126 76.5 -183.5t199.5 -57.5q97 0 197 30t172 76q87 -116 262 -116q123 0 263 57t231 131l-21 25q-76 -53 -170.5 -88t-150.5 -35q-95 0 -95 77q0 32 23 91l264 710l-375 -69q-73 82 -194 82q-81 0 -172 -33.5t-169 -86t-124 -106.5q-63 -72 -112.5 -162.5 t-77 -182t-27.5 -159.5zM342 186q0 57 40.5 186t100.5 267q119 266 240 266q60 0 117 -65l-201 -525q-33 -92 -33 -122l12 -52q-117 -67 -186 -67q-90 0 -90 112zM410 -266q0 -53 32.5 -91t87.5 -38q62 0 94.5 38t32.5 93t-32.5 94t-94.5 39q-54 0 -87 -41.5t-33 -93.5z M578 1073h79q36 30 94 85.5t72 68.5q46 -34 77.5 -58t66.5 -50t63 -46h88q-80 138 -104 287h-226l3 2q-61 -144 -213 -289z" />
<glyph unicode="&#x1eae;" horiz-adv-x="2355" d="M-76 315q0 -99 59.5 -176.5t169 -120.5t253.5 -43q164 0 306 46t269 142t236.5 236.5t209.5 335.5q44 0 61.5 -0.5t39.5 -1.5t50.5 -2t61.5 -2l-135 -369q-39 -94 -39 -167q0 -103 83.5 -163.5t232.5 -60.5q70 0 138.5 10.5t134 32t129 54t134.5 81.5v58 q-99 -71 -209.5 -119.5t-177.5 -48.5q-102 0 -102 88q0 30 12 68l199 536q36 -3 87 -4.5t120 -1.5l65 96q-96 -12 -239 -12l161 420q39 110 39 211q0 94 -49 151.5t-164 57.5q-119 0 -226 -86.5t-196 -221t-129.5 -218.5t-146.5 -314q-39 0 -120 2t-121 3.5t-101.5 3 t-142.5 1.5q-171 0 -316.5 -19t-277.5 -69q-168 -58 -263.5 -169.5t-95.5 -244.5zM252 309q0 118 55.5 206.5t148.5 145t202 82t221 25.5q41 0 134.5 -2.5t174.5 -9t141 -15.5q-67 -153 -159.5 -281t-199 -221t-221 -143.5t-221.5 -50.5q-83 0 -145.5 33t-96.5 93.5 t-34 137.5zM1458 801q58 128 105.5 234t100 201.5t121.5 186.5t152 158l13 8v-47l-277 -741l-92 -6zM1917 1927q0 -77 44 -122.5t136 -45.5q89 0 160 37.5t119.5 98.5t79.5 135h-54v-2q-33 -43 -118.5 -80t-161.5 -37q-135 0 -135 127h-52q-18 -55 -18 -111zM2138 2083h103 q31 26 95 75.5t108.5 86.5t84.5 79h-284h4q-14 -70 -36 -121t-75 -120z" />
<glyph unicode="&#x1eaf;" d="M-12 231q0 -126 76.5 -183.5t199.5 -57.5q97 0 197 30t172 76q87 -116 262 -116q123 0 263 57t231 131l-21 25q-76 -53 -170.5 -88t-150.5 -35q-95 0 -95 77q0 32 23 91l264 710l-375 -69q-73 82 -194 82q-81 0 -172 -33.5t-169 -86t-124 -106.5q-63 -72 -112.5 -162.5 t-77 -182t-27.5 -159.5zM342 186q0 57 40.5 186t100.5 267q119 266 240 266q60 0 117 -65l-201 -525q-33 -92 -33 -122l12 -52q-117 -67 -186 -67q-90 0 -90 112zM690 1221q0 -76 43.5 -122t136.5 -46q133 0 220.5 75.5t138.5 194.5h-53v-2q-22 -26 -71 -54.5t-105 -45.5 t-105 -17q-135 0 -135 127h-51q-19 -54 -19 -110zM911 1376h103q11 9 82 64.5t119 96t88 81.5h-285h4q-15 -75 -36.5 -123t-74.5 -119z" />
<glyph unicode="&#x1eb0;" horiz-adv-x="2355" d="M-76 315q0 -99 59.5 -176.5t169 -120.5t253.5 -43q164 0 306 46t269 142t236.5 236.5t209.5 335.5q44 0 61.5 -0.5t39.5 -1.5t50.5 -2t61.5 -2l-135 -369q-39 -94 -39 -167q0 -103 83.5 -163.5t232.5 -60.5q70 0 138.5 10.5t134 32t129 54t134.5 81.5v58 q-99 -71 -209.5 -119.5t-177.5 -48.5q-102 0 -102 88q0 30 12 68l199 536q36 -3 87 -4.5t120 -1.5l65 96q-96 -12 -239 -12l161 420q39 110 39 211q0 94 -49 151.5t-164 57.5q-119 0 -226 -86.5t-196 -221t-129.5 -218.5t-146.5 -314q-39 0 -120 2t-121 3.5t-101.5 3 t-142.5 1.5q-171 0 -316.5 -19t-277.5 -69q-168 -58 -263.5 -169.5t-95.5 -244.5zM252 309q0 118 55.5 206.5t148.5 145t202 82t221 25.5q41 0 134.5 -2.5t174.5 -9t141 -15.5q-67 -153 -159.5 -281t-199 -221t-221 -143.5t-221.5 -50.5q-83 0 -145.5 33t-96.5 93.5 t-34 137.5zM1458 801q58 128 105.5 234t100 201.5t121.5 186.5t152 158l13 8v-47l-277 -741l-92 -6zM1878 2345q105 -115 293 -246h102q-56 86 -75.5 128.5t-36.5 117.5h-283zM1917 1927q0 -77 44 -122.5t136 -45.5q89 0 160 37.5t119.5 98.5t79.5 135h-54v-2 q-33 -43 -118.5 -80t-161.5 -37q-135 0 -135 127h-52q-18 -55 -18 -111z" />
<glyph unicode="&#x1eb1;" d="M-12 231q0 -126 76.5 -183.5t199.5 -57.5q97 0 197 30t172 76q87 -116 262 -116q123 0 263 57t231 131l-21 25q-76 -53 -170.5 -88t-150.5 -35q-95 0 -95 77q0 32 23 91l264 710l-375 -69q-73 82 -194 82q-81 0 -172 -33.5t-169 -86t-124 -106.5q-63 -72 -112.5 -162.5 t-77 -182t-27.5 -159.5zM342 186q0 57 40.5 186t100.5 267q119 266 240 266q60 0 117 -65l-201 -525q-33 -92 -33 -122l12 -52q-117 -67 -186 -67q-90 0 -90 112zM651 1638q104 -113 293 -245h103q-55 81 -75.5 125.5t-37.5 119.5h-283zM690 1221q0 -76 43.5 -122t136.5 -46 q133 0 220.5 75.5t138.5 194.5h-53v-2q-22 -26 -71 -54.5t-105 -45.5t-105 -17q-135 0 -135 127h-51q-19 -54 -19 -110z" />
<glyph unicode="&#x1eb2;" horiz-adv-x="2355" d="M-76 315q0 -99 59.5 -176.5t169 -120.5t253.5 -43q164 0 306 46t269 142t236.5 236.5t209.5 335.5q44 0 61.5 -0.5t39.5 -1.5t50.5 -2t61.5 -2l-135 -369q-39 -94 -39 -167q0 -103 83.5 -163.5t232.5 -60.5q70 0 138.5 10.5t134 32t129 54t134.5 81.5v58 q-99 -71 -209.5 -119.5t-177.5 -48.5q-102 0 -102 88q0 30 12 68l199 536q36 -3 87 -4.5t120 -1.5l65 96q-96 -12 -239 -12l161 420q39 110 39 211q0 94 -49 151.5t-164 57.5q-119 0 -226 -86.5t-196 -221t-129.5 -218.5t-146.5 -314q-39 0 -120 2t-121 3.5t-101.5 3 t-142.5 1.5q-171 0 -316.5 -19t-277.5 -69q-168 -58 -263.5 -169.5t-95.5 -244.5zM252 309q0 118 55.5 206.5t148.5 145t202 82t221 25.5q41 0 134.5 -2.5t174.5 -9t141 -15.5q-67 -153 -159.5 -281t-199 -221t-221 -143.5t-221.5 -50.5q-83 0 -145.5 33t-96.5 93.5 t-34 137.5zM1458 801q58 128 105.5 234t100 201.5t121.5 186.5t152 158l13 8v-47l-277 -741l-92 -6zM1917 1927q0 -77 44 -122.5t136 -45.5q89 0 160 37.5t119.5 98.5t79.5 135h-54v-2q-33 -43 -118.5 -80t-161.5 -37q-135 0 -135 127h-52q-18 -55 -18 -111zM2025 2318h52 l14 -4q6 53 56.5 93t113.5 40q22 0 39.5 -14t17.5 -31q0 -26 -22 -45t-77.5 -55.5t-82.5 -66t-27 -70.5q0 -49 17 -75t78 -26q26 0 59 14t33 23v41q-30 -22 -51 -22q-31 0 -31 39q0 21 77.5 59t118.5 65t41 78q0 71 -49 105.5t-125 34.5q-58 0 -117.5 -23t-97 -65t-37.5 -95 z" />
<glyph unicode="&#x1eb3;" d="M-12 231q0 -126 76.5 -183.5t199.5 -57.5q97 0 197 30t172 76q87 -116 262 -116q123 0 263 57t231 131l-21 25q-76 -53 -170.5 -88t-150.5 -35q-95 0 -95 77q0 32 23 91l264 710l-375 -69q-73 82 -194 82q-81 0 -172 -33.5t-169 -86t-124 -106.5q-63 -72 -112.5 -162.5 t-77 -182t-27.5 -159.5zM342 186q0 57 40.5 186t100.5 267q119 266 240 266q60 0 117 -65l-201 -525q-33 -92 -33 -122l12 -52q-117 -67 -186 -67q-90 0 -90 112zM690 1221q0 -76 43.5 -122t136.5 -46q133 0 220.5 75.5t138.5 194.5h-53v-2q-22 -26 -71 -54.5t-105 -45.5 t-105 -17q-135 0 -135 127h-51q-19 -54 -19 -110zM809 1622h51l14 -4q5 28 19 51t38.5 42.5t53.5 29.5t59 10q22 0 40 -15t18 -30q0 -26 -25.5 -48t-76.5 -54.5t-79 -63.5t-28 -72q0 -47 17.5 -73.5t76.5 -26.5q27 0 59.5 14t32.5 23v41q-30 -23 -51 -23q-31 0 -31 39 q0 21 81 61t119 66t38 76q0 47 -23.5 78t-64 46t-86.5 15q-95 0 -173.5 -51t-78.5 -131z" />
<glyph unicode="&#x1eb4;" horiz-adv-x="2355" d="M-76 315q0 -99 59.5 -176.5t169 -120.5t253.5 -43q164 0 306 46t269 142t236.5 236.5t209.5 335.5q44 0 61.5 -0.5t39.5 -1.5t50.5 -2t61.5 -2l-135 -369q-39 -94 -39 -167q0 -103 83.5 -163.5t232.5 -60.5q70 0 138.5 10.5t134 32t129 54t134.5 81.5v58 q-99 -71 -209.5 -119.5t-177.5 -48.5q-102 0 -102 88q0 30 12 68l199 536q36 -3 87 -4.5t120 -1.5l65 96q-96 -12 -239 -12l161 420q39 110 39 211q0 94 -49 151.5t-164 57.5q-119 0 -226 -86.5t-196 -221t-129.5 -218.5t-146.5 -314q-39 0 -120 2t-121 3.5t-101.5 3 t-142.5 1.5q-171 0 -316.5 -19t-277.5 -69q-168 -58 -263.5 -169.5t-95.5 -244.5zM252 309q0 118 55.5 206.5t148.5 145t202 82t221 25.5q41 0 134.5 -2.5t174.5 -9t141 -15.5q-67 -153 -159.5 -281t-199 -221t-221 -143.5t-221.5 -50.5q-83 0 -145.5 33t-96.5 93.5 t-34 137.5zM1458 801q58 128 105.5 234t100 201.5t121.5 186.5t152 158l13 8v-47l-277 -741l-92 -6zM1917 1927q0 -77 44 -122.5t136 -45.5q89 0 160 37.5t119.5 98.5t79.5 135h-54v-2q-33 -43 -118.5 -80t-161.5 -37q-135 0 -135 127h-52q-18 -55 -18 -111zM1927 2165 l39 -23q20 58 80 58q34 0 89 -20t109.5 -40t88.5 -20q125 0 245 194l-38 19l4 -4q-25 -64 -88 -64q-43 0 -144 42t-141 42q-42 0 -86.5 -22.5t-84.5 -63t-73 -98.5z" />
<glyph unicode="&#x1eb5;" d="M-12 231q0 -126 76.5 -183.5t199.5 -57.5q97 0 197 30t172 76q87 -116 262 -116q123 0 263 57t231 131l-21 25q-76 -53 -170.5 -88t-150.5 -35q-95 0 -95 77q0 32 23 91l264 710l-375 -69q-73 82 -194 82q-81 0 -172 -33.5t-169 -86t-124 -106.5q-63 -72 -112.5 -162.5 t-77 -182t-27.5 -159.5zM342 186q0 57 40.5 186t100.5 267q119 266 240 266q60 0 117 -65l-201 -525q-33 -92 -33 -122l12 -52q-117 -67 -186 -67q-90 0 -90 112zM690 1221q0 -76 43.5 -122t136.5 -46q133 0 220.5 75.5t138.5 194.5h-53v-2q-22 -26 -71 -54.5t-105 -45.5 t-105 -17q-135 0 -135 127h-51q-19 -54 -19 -110zM700 1458l39 -22q21 57 80 57q34 0 89 -20t109.5 -40t88.5 -20q124 0 246 195l-39 18l4 -4q-25 -63 -88 -63q-40 0 -142.5 41.5t-142.5 41.5q-63 0 -130.5 -49.5t-113.5 -134.5z" />
<glyph unicode="&#x1eb6;" horiz-adv-x="2355" d="M-76 315q0 -99 59.5 -176.5t169 -120.5t253.5 -43q164 0 306 46t269 142t236.5 236.5t209.5 335.5q44 0 61.5 -0.5t39.5 -1.5t50.5 -2t61.5 -2l-135 -369q-39 -94 -39 -167q0 -103 83.5 -163.5t232.5 -60.5q70 0 138.5 10.5t134 32t129 54t134.5 81.5v58 q-99 -71 -209.5 -119.5t-177.5 -48.5q-102 0 -102 88q0 30 12 68l199 536q36 -3 87 -4.5t120 -1.5l65 96q-96 -12 -239 -12l161 420q39 110 39 211q0 94 -49 151.5t-164 57.5q-119 0 -226 -86.5t-196 -221t-129.5 -218.5t-146.5 -314q-39 0 -120 2t-121 3.5t-101.5 3 t-142.5 1.5q-171 0 -316.5 -19t-277.5 -69q-168 -58 -263.5 -169.5t-95.5 -244.5zM252 309q0 118 55.5 206.5t148.5 145t202 82t221 25.5q41 0 134.5 -2.5t174.5 -9t141 -15.5q-67 -153 -159.5 -281t-199 -221t-221 -143.5t-221.5 -50.5q-83 0 -145.5 33t-96.5 93.5 t-34 137.5zM1040 -260q0 -53 32.5 -91t88.5 -38q62 0 94.5 38t32.5 93t-32.5 94t-94.5 39q-55 0 -88 -41.5t-33 -93.5zM1458 801q58 128 105.5 234t100 201.5t121.5 186.5t152 158l13 8v-47l-277 -741l-92 -6zM1917 1927q0 -77 44 -122.5t136 -45.5q89 0 160 37.5 t119.5 98.5t79.5 135h-54v-2q-33 -43 -118.5 -80t-161.5 -37q-135 0 -135 127h-52q-18 -55 -18 -111z" />
<glyph unicode="&#x1eb7;" d="M-12 231q0 -126 76.5 -183.5t199.5 -57.5q97 0 197 30t172 76q87 -116 262 -116q123 0 263 57t231 131l-21 25q-76 -53 -170.5 -88t-150.5 -35q-95 0 -95 77q0 32 23 91l264 710l-375 -69q-73 82 -194 82q-81 0 -172 -33.5t-169 -86t-124 -106.5q-63 -72 -112.5 -162.5 t-77 -182t-27.5 -159.5zM342 186q0 57 40.5 186t100.5 267q119 266 240 266q60 0 117 -65l-201 -525q-33 -92 -33 -122l12 -52q-117 -67 -186 -67q-90 0 -90 112zM356 -260q0 -53 32.5 -91t88.5 -38q62 0 94.5 38t32.5 93t-32.5 94t-94.5 39q-55 0 -88 -41.5t-33 -93.5z M690 1221q0 -76 43.5 -122t136.5 -46q133 0 220.5 75.5t138.5 194.5h-53v-2q-22 -26 -71 -54.5t-105 -45.5t-105 -17q-135 0 -135 127h-51q-19 -54 -19 -110z" />
<glyph unicode="&#x1eb8;" horiz-adv-x="1556" d="M-63 354q0 -125 81.5 -215t234.5 -137t365 -47q152 0 292.5 28.5t250.5 79.5q153 70 238.5 170t85.5 205q0 120 -142 234l-20 -39q53 -29 53 -86q0 -56 -38 -119.5t-78 -105.5q-65 -71 -144 -131t-165 -104.5t-174.5 -68.5t-164.5 -24q-80 0 -144.5 37t-102 101.5 t-37.5 143.5q0 152 93 274t296 236q42 28 66.5 67t47.5 103.5t33 90.5q13 29 58.5 143.5t84.5 193.5t90 138t103 59q39 0 64.5 -28t25.5 -74q0 -48 -25 -110.5t-70.5 -130t-105.5 -127.5t-120 -97l24 -33q202 75 308 181t106 233q0 73 -48 133.5t-134.5 95.5t-192.5 35 q-130 0 -231.5 -51t-157 -145.5t-55.5 -217.5q0 -67 23.5 -138.5t57 -143t33.5 -78.5q0 -16 -21.5 -27.5t-55.5 -11.5q-119 0 -237 -26t-222.5 -86t-166.5 -155.5t-62 -224.5zM276 -360q0 -49 24 -96t69.5 -76t107.5 -29q94 0 146.5 58.5t52.5 142.5q0 52 -23 98t-68 74 t-108 28q-97 0 -149 -59t-52 -141z" />
<glyph unicode="&#x1eb9;" horiz-adv-x="1004" d="M-31 213q0 -137 111 -184t274 -47q192 0 334.5 40.5t298.5 137.5l-18 33q-261 -156 -453 -156q-180 0 -180 192q0 38 6 74q235 89 369.5 219t134.5 264q0 168 -228 168q-137 0 -256.5 -62.5t-208.5 -171.5t-136.5 -241t-47.5 -266zM94 -276q0 -52 32.5 -91t88.5 -39 q60 0 93.5 39t33.5 93q0 55 -32.5 94t-94.5 39q-55 0 -88 -41.5t-33 -93.5zM354 354q23 90 71 225t110.5 243t121.5 108q24 0 39 -16.5t15 -43.5q0 -50 -38.5 -124t-94 -148t-116.5 -140t-108 -104z" />
<glyph unicode="&#x1eba;" horiz-adv-x="1556" d="M-63 354q0 -125 81.5 -215t234.5 -137t365 -47q152 0 292.5 28.5t250.5 79.5q153 70 238.5 170t85.5 205q0 120 -142 234l-20 -39q53 -29 53 -86q0 -56 -38 -119.5t-78 -105.5q-65 -71 -144 -131t-165 -104.5t-174.5 -68.5t-164.5 -24q-80 0 -144.5 37t-102 101.5 t-37.5 143.5q0 152 93 274t296 236q42 28 66.5 67t47.5 103.5t33 90.5q13 29 58.5 143.5t84.5 193.5t90 138t103 59q39 0 64.5 -28t25.5 -74q0 -48 -25 -110.5t-70.5 -130t-105.5 -127.5t-120 -97l24 -33q202 75 308 181t106 233q0 73 -48 133.5t-134.5 95.5t-192.5 35 q-130 0 -231.5 -51t-157 -145.5t-55.5 -217.5q0 -67 23.5 -138.5t57 -143t33.5 -78.5q0 -16 -21.5 -27.5t-55.5 -11.5q-119 0 -237 -26t-222.5 -86t-166.5 -155.5t-62 -224.5zM942 2138h57q8 64 69 116t132 52q25 0 45.5 -19t20.5 -40q0 -42 -86.5 -112.5t-117 -101 t-30.5 -96.5q0 -57 20.5 -89.5t90.5 -32.5q28 0 65 17t37 28v57q-36 -31 -65 -31q-37 0 -37 51q0 27 86 72t135 82t49 104q0 45 -27 85t-74.5 65t-105.5 25q-64 0 -126.5 -35t-100 -89t-37.5 -108z" />
<glyph unicode="&#x1ebb;" horiz-adv-x="1004" d="M-31 213q0 -137 111 -184t274 -47q192 0 334.5 40.5t298.5 137.5l-18 33q-261 -156 -453 -156q-180 0 -180 192q0 38 6 74q235 89 369.5 219t134.5 264q0 168 -228 168q-137 0 -256.5 -62.5t-208.5 -171.5t-136.5 -241t-47.5 -266zM354 354q23 90 71 225t110.5 243 t121.5 108q24 0 39 -16.5t15 -43.5q0 -50 -38.5 -124t-94 -148t-116.5 -140t-108 -104zM455 1319h51l14 -4q6 53 56.5 93t113.5 40q22 0 40 -15t18 -30q0 -26 -25.5 -48t-76.5 -54.5t-79 -63.5t-28 -72q0 -47 17.5 -73.5t76.5 -26.5q27 0 59.5 14t32.5 23v41 q-28 -23 -51 -23q-31 0 -31 39q0 21 77 58.5t119 66t42 78.5q0 47 -23.5 78t-64 46t-86.5 15q-95 0 -173.5 -51t-78.5 -131z" />
<glyph unicode="&#x1ebc;" horiz-adv-x="1556" d="M-63 354q0 -125 81.5 -215t234.5 -137t365 -47q152 0 292.5 28.5t250.5 79.5q153 70 238.5 170t85.5 205q0 120 -142 234l-20 -39q53 -29 53 -86q0 -56 -38 -119.5t-78 -105.5q-65 -71 -144 -131t-165 -104.5t-174.5 -68.5t-164.5 -24q-80 0 -144.5 37t-102 101.5 t-37.5 143.5q0 152 93 274t296 236q42 28 66.5 67t47.5 103.5t33 90.5q13 29 58.5 143.5t84.5 193.5t90 138t103 59q39 0 64.5 -28t25.5 -74q0 -48 -25 -110.5t-70.5 -130t-105.5 -127.5t-120 -97l24 -33q202 75 308 181t106 233q0 73 -48 133.5t-134.5 95.5t-192.5 35 q-130 0 -231.5 -51t-157 -145.5t-55.5 -217.5q0 -67 23.5 -138.5t57 -143t33.5 -78.5q0 -16 -21.5 -27.5t-55.5 -11.5q-119 0 -237 -26t-222.5 -86t-166.5 -155.5t-62 -224.5zM786 1925l45 -33q31 80 99 80q40 0 100.5 -29.5t120.5 -59.5t100 -30q73 0 142 75t143 229 l-45 32q-40 -98 -107 -98q-29 0 -55 10.5t-90 46.5t-102 52t-72 16q-48 0 -97 -34.5t-96.5 -101.5t-85.5 -155z" />
<glyph unicode="&#x1ebd;" horiz-adv-x="1004" d="M-31 213q0 -137 111 -184t274 -47q192 0 334.5 40.5t298.5 137.5l-18 33q-261 -156 -453 -156q-180 0 -180 192q0 38 6 74q235 89 369.5 219t134.5 264q0 168 -228 168q-137 0 -256.5 -62.5t-208.5 -171.5t-136.5 -241t-47.5 -266zM346 1124l39 -22q19 57 80 57 q34 0 89 -20t109.5 -40t88.5 -20q125 0 245 195l-39 18l5 -4q-25 -63 -89 -63q-42 0 -143 42t-141 42q-63 0 -130.5 -50.5t-113.5 -134.5zM354 354q23 90 71 225t110.5 243t121.5 108q24 0 39 -16.5t15 -43.5q0 -50 -38.5 -124t-94 -148t-116.5 -140t-108 -104z" />
<glyph unicode="&#x1ebe;" horiz-adv-x="1556" d="M-63 354q0 -125 81.5 -215t234.5 -137t365 -47q152 0 292.5 28.5t250.5 79.5q153 70 238.5 170t85.5 205q0 120 -142 234l-20 -39q53 -29 53 -86q0 -56 -38 -119.5t-78 -105.5q-65 -71 -144 -131t-165 -104.5t-174.5 -68.5t-164.5 -24q-80 0 -144.5 37t-102 101.5 t-37.5 143.5q0 152 93 274t296 236q42 28 66.5 67t47.5 103.5t33 90.5q13 29 58.5 143.5t84.5 193.5t90 138t103 59q39 0 64.5 -28t25.5 -74q0 -48 -25 -110.5t-70.5 -130t-105.5 -127.5t-120 -97l24 -33q202 75 308 181t106 233q0 73 -48 133.5t-134.5 95.5t-192.5 35 q-130 0 -231.5 -51t-157 -145.5t-55.5 -217.5q0 -67 23.5 -138.5t57 -143t33.5 -78.5q0 -16 -21.5 -27.5t-55.5 -11.5q-119 0 -237 -26t-222.5 -86t-166.5 -155.5t-62 -224.5zM799 1739h80q36 30 93.5 85.5t71.5 67.5q70 -52 98.5 -73.5t108.5 -79.5h88q-80 139 -104 286 h-225l2 3q-61 -145 -213 -289zM1393 1898l135 -6q34 30 109.5 89t115.5 91t84.5 72t83.5 84h-375q-13 -90 -45 -156t-108 -174z" />
<glyph unicode="&#x1ebf;" horiz-adv-x="1004" d="M-31 213q0 -137 111 -184t274 -47q192 0 334.5 40.5t298.5 137.5l-18 33q-261 -156 -453 -156q-180 0 -180 192q0 38 6 74q235 89 369.5 219t134.5 264q0 168 -228 168q-137 0 -256.5 -62.5t-208.5 -171.5t-136.5 -241t-47.5 -266zM268 1073h80q36 30 94 85.5t72 68.5 q45 -32 105.5 -78.5t101.5 -75.5h88q-80 138 -104 287h-226l2 2q-62 -146 -213 -289zM354 354q23 90 71 225t110.5 243t121.5 108q24 0 39 -16.5t15 -43.5q0 -50 -38.5 -124t-94 -148t-116.5 -140t-108 -104zM809 1255h102q23 19 92 72.5t113 90.5t84 79h-285h5 q-14 -70 -36 -120.5t-75 -121.5z" />
<glyph unicode="&#x1ec0;" horiz-adv-x="1556" d="M-63 354q0 -125 81.5 -215t234.5 -137t365 -47q152 0 292.5 28.5t250.5 79.5q153 70 238.5 170t85.5 205q0 120 -142 234l-20 -39q53 -29 53 -86q0 -56 -38 -119.5t-78 -105.5q-65 -71 -144 -131t-165 -104.5t-174.5 -68.5t-164.5 -24q-80 0 -144.5 37t-102 101.5 t-37.5 143.5q0 152 93 274t296 236q42 28 66.5 67t47.5 103.5t33 90.5q13 29 58.5 143.5t84.5 193.5t90 138t103 59q39 0 64.5 -28t25.5 -74q0 -48 -25 -110.5t-70.5 -130t-105.5 -127.5t-120 -97l24 -33q202 75 308 181t106 233q0 73 -48 133.5t-134.5 95.5t-192.5 35 q-130 0 -231.5 -51t-157 -145.5t-55.5 -217.5q0 -67 23.5 -138.5t57 -143t33.5 -78.5q0 -16 -21.5 -27.5t-55.5 -11.5q-119 0 -237 -26t-222.5 -86t-166.5 -155.5t-62 -224.5zM281 2247q78 -86 172 -164.5t223 -171.5l135 6q-46 61 -78 114.5t-48 100.5t-30 115h-374z M799 1739h80q36 30 93.5 85.5t71.5 67.5q70 -52 98.5 -73.5t108.5 -79.5h88q-80 139 -104 286h-225l2 3q-61 -145 -213 -289z" />
<glyph unicode="&#x1ec1;" horiz-adv-x="1004" d="M-31 213q0 -137 111 -184t274 -47q192 0 334.5 40.5t298.5 137.5l-18 33q-261 -156 -453 -156q-180 0 -180 192q0 38 6 74q235 89 369.5 219t134.5 264q0 168 -228 168q-137 0 -256.5 -62.5t-208.5 -171.5t-136.5 -241t-47.5 -266zM268 1073h80q36 30 94 85.5t72 68.5 q45 -32 105.5 -78.5t101.5 -75.5h88q-80 138 -104 287h-226l2 2q-62 -146 -213 -289zM354 354q23 90 71 225t110.5 243t121.5 108q24 0 39 -16.5t15 -43.5q0 -50 -38.5 -124t-94 -148t-116.5 -140t-108 -104zM549 1620q105 -115 293 -246h102q-52 77 -73 123t-40 123h-282z " />
<glyph unicode="&#x1ec2;" horiz-adv-x="1556" d="M-63 354q0 -125 81.5 -215t234.5 -137t365 -47q152 0 292.5 28.5t250.5 79.5q153 70 238.5 170t85.5 205q0 120 -142 234l-20 -39q53 -29 53 -86q0 -56 -38 -119.5t-78 -105.5q-65 -71 -144 -131t-165 -104.5t-174.5 -68.5t-164.5 -24q-80 0 -144.5 37t-102 101.5 t-37.5 143.5q0 152 93 274t296 236q42 28 66.5 67t47.5 103.5t33 90.5q13 29 58.5 143.5t84.5 193.5t90 138t103 59q39 0 64.5 -28t25.5 -74q0 -48 -25 -110.5t-70.5 -130t-105.5 -127.5t-120 -97l24 -33q202 75 308 181t106 233q0 73 -48 133.5t-134.5 95.5t-192.5 35 q-130 0 -231.5 -51t-157 -145.5t-55.5 -217.5q0 -67 23.5 -138.5t57 -143t33.5 -78.5q0 -16 -21.5 -27.5t-55.5 -11.5q-119 0 -237 -26t-222.5 -86t-166.5 -155.5t-62 -224.5zM799 1739h80q36 30 93.5 85.5t71.5 67.5q70 -52 98.5 -73.5t108.5 -79.5h88q-80 139 -104 286 h-225l2 3q-61 -145 -213 -289zM1303 2208h57q5 42 34 80.5t74 63t93 24.5q23 0 44 -18.5t21 -39.5q0 -34 -25.5 -59.5t-84.5 -70.5t-91 -86.5t-32 -92.5q0 -57 20.5 -90t89.5 -33q26 0 64.5 17.5t38.5 27.5v58q-32 -29 -62 -29q-35 0 -35 49q0 26 85 71.5t132.5 82 t47.5 104.5q0 87 -53.5 129.5t-135.5 42.5q-66 0 -132.5 -29t-108 -81.5t-41.5 -120.5z" />
<glyph unicode="&#x1ec3;" horiz-adv-x="1004" d="M-31 213q0 -137 111 -184t274 -47q192 0 334.5 40.5t298.5 137.5l-18 33q-261 -156 -453 -156q-180 0 -180 192q0 38 6 74q235 89 369.5 219t134.5 264q0 168 -228 168q-137 0 -256.5 -62.5t-208.5 -171.5t-136.5 -241t-47.5 -266zM268 1073h80q36 30 94 85.5t72 68.5 q45 -32 105.5 -78.5t101.5 -75.5h88q-80 138 -104 287h-226l2 2q-62 -146 -213 -289zM354 354q23 90 71 225t110.5 243t121.5 108q24 0 39 -16.5t15 -43.5q0 -50 -38.5 -124t-94 -148t-116.5 -140t-108 -104zM737 1481h51l15 -4q6 53 56.5 93t113.5 40q21 0 39 -15t18 -30 q0 -26 -25.5 -48t-76.5 -54.5t-79 -63.5t-28 -72q0 -47 17.5 -73.5t76.5 -26.5q27 0 60 13t33 24v41q-29 -23 -52 -23q-30 0 -30 39q0 21 77.5 59t118.5 66t41 78q0 47 -23.5 78t-64 46t-86.5 15q-95 0 -173.5 -51t-78.5 -131z" />
<glyph unicode="&#x1ec4;" horiz-adv-x="1556" d="M-63 354q0 -125 81.5 -215t234.5 -137t365 -47q152 0 292.5 28.5t250.5 79.5q153 70 238.5 170t85.5 205q0 120 -142 234l-20 -39q53 -29 53 -86q0 -56 -38 -119.5t-78 -105.5q-65 -71 -144 -131t-165 -104.5t-174.5 -68.5t-164.5 -24q-80 0 -144.5 37t-102 101.5 t-37.5 143.5q0 152 93 274t296 236q42 28 66.5 67t47.5 103.5t33 90.5q13 29 58.5 143.5t84.5 193.5t90 138t103 59q39 0 64.5 -28t25.5 -74q0 -48 -25 -110.5t-70.5 -130t-105.5 -127.5t-120 -97l24 -33q202 75 308 181t106 233q0 73 -48 133.5t-134.5 95.5t-192.5 35 q-130 0 -231.5 -51t-157 -145.5t-55.5 -217.5q0 -67 23.5 -138.5t57 -143t33.5 -78.5q0 -16 -21.5 -27.5t-55.5 -11.5q-119 0 -237 -26t-222.5 -86t-166.5 -155.5t-62 -224.5zM799 1739h80q36 30 93.5 85.5t71.5 67.5q70 -52 98.5 -73.5t108.5 -79.5h88q-80 139 -104 286 h-225l2 3q-61 -145 -213 -289zM811 2208l45 -39q32 84 98 84q35 0 73.5 -16t94.5 -46.5t90.5 -44.5t63.5 -14q72 0 141 76t144 227l-45 33q-38 -90 -109 -90q-29 0 -65.5 15t-86.5 43.5t-89.5 45.5t-75.5 17q-73 0 -147 -78t-132 -213z" />
<glyph unicode="&#x1ec5;" horiz-adv-x="1004" d="M-31 213q0 -137 111 -184t274 -47q192 0 334.5 40.5t298.5 137.5l-18 33q-261 -156 -453 -156q-180 0 -180 192q0 38 6 74q235 89 369.5 219t134.5 264q0 168 -228 168q-137 0 -256.5 -62.5t-208.5 -171.5t-136.5 -241t-47.5 -266zM268 1073h80q36 30 94 85.5t72 68.5 q45 -32 105.5 -78.5t101.5 -75.5h88q-80 138 -104 287h-226l2 2q-62 -146 -213 -289zM342 1501l39 -22q19 57 80 57q34 0 89 -20t109.5 -40t88.5 -20q123 0 245 195l-39 18l4 -4q-24 -63 -88 -63q-38 0 -90 21t-105.5 42t-88.5 21q-64 0 -131.5 -50.5t-112.5 -134.5z M354 354q23 90 71 225t110.5 243t121.5 108q24 0 39 -16.5t15 -43.5q0 -50 -38.5 -124t-94 -148t-116.5 -140t-108 -104z" />
<glyph unicode="&#x1ec6;" horiz-adv-x="1556" d="M-63 354q0 -125 81.5 -215t234.5 -137t365 -47q152 0 292.5 28.5t250.5 79.5q153 70 238.5 170t85.5 205q0 120 -142 234l-20 -39q53 -29 53 -86q0 -56 -38 -119.5t-78 -105.5q-65 -71 -144 -131t-165 -104.5t-174.5 -68.5t-164.5 -24q-80 0 -144.5 37t-102 101.5 t-37.5 143.5q0 152 93 274t296 236q42 28 66.5 67t47.5 103.5t33 90.5q13 29 58.5 143.5t84.5 193.5t90 138t103 59q39 0 64.5 -28t25.5 -74q0 -48 -25 -110.5t-70.5 -130t-105.5 -127.5t-120 -97l24 -33q202 75 308 181t106 233q0 73 -48 133.5t-134.5 95.5t-192.5 35 q-130 0 -231.5 -51t-157 -145.5t-55.5 -217.5q0 -67 23.5 -138.5t57 -143t33.5 -78.5q0 -16 -21.5 -27.5t-55.5 -11.5q-119 0 -237 -26t-222.5 -86t-166.5 -155.5t-62 -224.5zM340 -451q0 -82 52.5 -144t142.5 -62q93 0 145.5 60t52.5 142q0 85 -51.5 145t-146.5 60 q-61 0 -105.5 -28t-67 -73.5t-22.5 -99.5zM799 1739h80q36 30 93.5 85.5t71.5 67.5q70 -52 98.5 -73.5t108.5 -79.5h88q-80 139 -104 286h-225l2 3q-61 -145 -213 -289z" />
<glyph unicode="&#x1ec7;" horiz-adv-x="1004" d="M-31 213q0 -137 111 -184t274 -47q192 0 334.5 40.5t298.5 137.5l-18 33q-261 -156 -453 -156q-180 0 -180 192q0 38 6 74q235 89 369.5 219t134.5 264q0 168 -228 168q-137 0 -256.5 -62.5t-208.5 -171.5t-136.5 -241t-47.5 -266zM100 -266q0 -53 32.5 -91t88.5 -38 q62 0 94.5 38t32.5 93t-32.5 94t-94.5 39q-55 0 -88 -41.5t-33 -93.5zM268 1073h80q36 30 94 85.5t72 68.5q45 -32 105.5 -78.5t101.5 -75.5h88q-80 138 -104 287h-226l2 2q-62 -146 -213 -289zM354 354q23 90 71 225t110.5 243t121.5 108q24 0 39 -16.5t15 -43.5 q0 -50 -38.5 -124t-94 -148t-116.5 -140t-108 -104z" />
<glyph unicode="&#x1ec8;" horiz-adv-x="1720" d="M66 297q0 -150 121 -236t325 -86q144 0 273 28.5t242.5 85.5t209 145t166.5 204q149 -43 272 -155l33 90q-150 88 -278 116q61 119 102 252t87.5 336.5t67.5 279.5t66 167q-98 0 -178.5 12.5t-227.5 42t-252.5 45.5t-207.5 16q-128 0 -240.5 -30t-200 -88.5t-153.5 -148 t-111 -212.5l51 -12q50 136 143.5 189t227.5 53q83 0 232.5 -20.5t218.5 -20.5q127 0 293 33.5t327 89.5q-178 -99 -284.5 -232t-159.5 -257.5t-156 -416.5q-243 84 -497 84q-152 0 -269.5 -44t-180 -124t-62.5 -186zM125 264q0 135 150.5 219t392.5 84q237 0 387 -51 q-59 -117 -126 -205t-143.5 -150t-158.5 -93t-166 -31q-92 0 -169.5 29.5t-122 82t-44.5 115.5zM991 2005h51l15 -4q6 53 56.5 93t113.5 40q21 0 39 -15t18 -30q0 -26 -25.5 -48t-76.5 -54.5t-79 -63.5t-28 -72q0 -47 17.5 -73.5t76.5 -26.5q27 0 60 14t33 23v41 q-31 -23 -52 -23q-30 0 -30 39q0 21 81.5 61.5t118.5 66t37 75.5q0 47 -23.5 78t-64 46t-86.5 15q-95 0 -173.5 -51t-78.5 -131z" />
<glyph unicode="&#x1ec9;" horiz-adv-x="815" d="M-18 182q0 -91 96 -139.5t219 -48.5q89 0 167 19.5t153 60.5t145 100l-21 25q-18 -11 -89 -57.5t-123 -68.5t-103 -22t-71.5 22t-20.5 60q0 39 14 92l264 738l-387 -84l-219 -603q-24 -51 -24 -94zM305 1346h51l15 -5q6 55 56.5 94.5t113.5 39.5q21 0 39 -15t18 -30 q0 -26 -25.5 -48t-76.5 -54.5t-79 -63.5t-28 -72q0 -47 17.5 -73.5t76.5 -26.5q27 0 59.5 13t32.5 23v41q-28 -22 -51 -22q-30 0 -30 39q0 21 77.5 59t118.5 66t41 78q0 47 -23.5 78t-64 46t-86.5 15q-95 0 -173.5 -51t-78.5 -131z" />
<glyph unicode="&#x1eca;" horiz-adv-x="1720" d="M66 297q0 -150 121 -236t325 -86q144 0 273 28.5t242.5 85.5t209 145t166.5 204q149 -43 272 -155l33 90q-150 88 -278 116q61 119 102 252t87.5 336.5t67.5 279.5t66 167q-98 0 -178.5 12.5t-227.5 42t-252.5 45.5t-207.5 16q-128 0 -240.5 -30t-200 -88.5t-153.5 -148 t-111 -212.5l51 -12q50 136 143.5 189t227.5 53q83 0 232.5 -20.5t218.5 -20.5q127 0 293 33.5t327 89.5q-178 -99 -284.5 -232t-159.5 -257.5t-156 -416.5q-243 84 -497 84q-152 0 -269.5 -44t-180 -124t-62.5 -186zM125 264q0 135 150.5 219t392.5 84q237 0 387 -51 q-59 -117 -126 -205t-143.5 -150t-158.5 -93t-166 -31q-92 0 -169.5 29.5t-122 82t-44.5 115.5zM365 -262q0 -53 32.5 -91t87.5 -38q62 0 94.5 38t32.5 93t-32.5 94t-94.5 39q-54 0 -87 -41.5t-33 -93.5z" />
<glyph unicode="&#x1ecb;" horiz-adv-x="815" d="M-18 182q0 -91 96 -139.5t219 -48.5q89 0 167 19.5t153 60.5t145 100l-21 25q-18 -11 -89 -57.5t-123 -68.5t-103 -22t-71.5 22t-20.5 60q0 39 14 92l264 738l-387 -84l-219 -603q-24 -51 -24 -94zM18 -285q0 -53 32.5 -91t88.5 -38q60 0 93.5 39t33.5 92q0 55 -32.5 94 t-94.5 39q-55 0 -88 -40.5t-33 -94.5zM393 1243q0 -53 32.5 -91t88.5 -38q60 0 93.5 39t33.5 94t-32.5 93t-94.5 38q-55 0 -88 -40.5t-33 -94.5z" />
<glyph unicode="&#x1ecc;" horiz-adv-x="1782" d="M63 567q0 -142 47 -255.5t136.5 -193t218 -121.5t283.5 -42q203 0 388.5 86.5t331.5 239t227 344t81 389.5q0 137 -37 255.5t-104 205t-159 135.5t-198 49q-129 0 -223.5 -57.5t-153.5 -153t-86 -211.5t-27 -238q0 -52 7 -120l51 6q0 85 32 209.5t90 242t139.5 194.5 t176.5 77q72 0 114 -74.5t42 -198.5q0 -87 -16.5 -198t-50.5 -240.5t-77 -246t-96 -218.5q-107 -230 -215 -334t-244 -104q-94 0 -164.5 48.5t-107.5 139t-37 211.5q0 133 33.5 300.5t94.5 332.5t145.5 305t185.5 225l-21 25q-181 -71 -333 -179.5t-258 -242t-161 -284.5 t-55 -308zM457 -387q0 -52 22 -100t66.5 -77.5t105.5 -29.5q93 0 146 60t53 143q0 84 -53 144.5t-146 60.5q-62 0 -106 -28t-66 -74t-22 -99z" />
<glyph unicode="&#x1ecd;" horiz-adv-x="1294" d="M-12 264q0 -141 90 -211.5t276 -70.5q184 0 320.5 89t240.5 277q87 -33 177 -33q97 0 186 39l-12 39q-101 -39 -185 -39q-77 0 -151 33q90 156 90 342q0 93 -26.5 161.5t-76 105t-116.5 36.5q-89 0 -139 -71t-50 -193q0 -187 136 -348q-152 -383 -328 -383q-44 0 -71 33 t-27 90q0 106 42 238t97.5 246.5t106 202.5t50.5 89q0 18 -24 18q-154 0 -294.5 -109t-226 -272.5t-85.5 -308.5zM178 -266q0 -53 32.5 -91t88.5 -38q62 0 94.5 38t32.5 93t-32.5 94t-94.5 39q-55 0 -88 -41.5t-33 -93.5zM664 825q0 67 20.5 108.5t50.5 41.5q66 0 66 -219 q0 -119 -33 -273q-43 65 -73.5 162.5t-30.5 179.5z" />
<glyph unicode="&#x1ece;" horiz-adv-x="1782" d="M63 567q0 -142 47 -255.5t136.5 -193t218 -121.5t283.5 -42q203 0 388.5 86.5t331.5 239t227 344t81 389.5q0 137 -37 255.5t-104 205t-159 135.5t-198 49q-129 0 -223.5 -57.5t-153.5 -153t-86 -211.5t-27 -238q0 -52 7 -120l51 6q0 85 32 209.5t90 242t139.5 194.5 t176.5 77q72 0 114 -74.5t42 -198.5q0 -87 -16.5 -198t-50.5 -240.5t-77 -246t-96 -218.5q-107 -230 -215 -334t-244 -104q-94 0 -164.5 48.5t-107.5 139t-37 211.5q0 133 33.5 300.5t94.5 332.5t145.5 305t185.5 225l-21 25q-181 -71 -333 -179.5t-258 -242t-161 -284.5 t-55 -308zM948 2150h60q5 63 63.5 115.5t128.5 52.5q27 0 46.5 -18.5t19.5 -38.5q0 -35 -25.5 -60.5t-85.5 -72.5t-88.5 -83.5t-28.5 -88.5q0 -60 20.5 -94.5t84.5 -34.5q31 0 69.5 18.5t38.5 32.5v53q-40 -33 -67 -33q-35 0 -35 52q0 27 87 72.5t136 82t49 103.5 q0 86 -54 130t-136 44q-66 0 -132.5 -29t-108.5 -82.5t-42 -120.5z" />
<glyph unicode="&#x1ecf;" horiz-adv-x="1294" d="M-12 264q0 -141 90 -211.5t276 -70.5q184 0 320.5 89t240.5 277q87 -33 177 -33q97 0 186 39l-12 39q-101 -39 -185 -39q-77 0 -151 33q90 156 90 342q0 93 -26.5 161.5t-76 105t-116.5 36.5q-89 0 -139 -71t-50 -193q0 -187 136 -348q-152 -383 -328 -383q-44 0 -71 33 t-27 90q0 106 42 238t97.5 246.5t106 202.5t50.5 89q0 18 -24 18q-154 0 -294.5 -109t-226 -272.5t-85.5 -308.5zM487 1407h52l14 -4q6 53 56.5 93t113.5 40q22 0 39.5 -15t17.5 -30q0 -26 -25.5 -48t-76.5 -54.5t-79 -63.5t-28 -72q0 -47 17.5 -73.5t77.5 -26.5q26 0 59 14 t33 23v41q-31 -23 -51 -23q-31 0 -31 39q0 21 81.5 61.5t118.5 66t37 75.5q0 47 -23.5 78t-64 46t-86.5 15q-95 0 -173.5 -51t-78.5 -131zM664 825q0 67 20.5 108.5t50.5 41.5q66 0 66 -219q0 -119 -33 -273q-43 65 -73.5 162.5t-30.5 179.5z" />
<glyph unicode="&#x1ed0;" horiz-adv-x="1782" d="M63 567q0 -142 47 -255.5t136.5 -193t218 -121.5t283.5 -42q203 0 388.5 86.5t331.5 239t227 344t81 389.5q0 137 -37 255.5t-104 205t-159 135.5t-198 49q-129 0 -223.5 -57.5t-153.5 -153t-86 -211.5t-27 -238q0 -52 7 -120l51 6q0 85 32 209.5t90 242t139.5 194.5 t176.5 77q72 0 114 -74.5t42 -198.5q0 -87 -16.5 -198t-50.5 -240.5t-77 -246t-96 -218.5q-107 -230 -215 -334t-244 -104q-94 0 -164.5 48.5t-107.5 139t-37 211.5q0 133 33.5 300.5t94.5 332.5t145.5 305t185.5 225l-21 25q-181 -71 -333 -179.5t-258 -242t-161 -284.5 t-55 -308zM1008 1737h79q36 30 76 68t90 85q70 -52 98.5 -73.5t108.5 -79.5h88q-80 139 -104 286h-225l2 2q-61 -145 -213 -288zM1548 1919h103q31 26 99.5 79.5t108.5 87t80 75.5h-284h4q-14 -71 -36 -122t-75 -120z" />
<glyph unicode="&#x1ed1;" horiz-adv-x="1294" d="M-12 264q0 -141 90 -211.5t276 -70.5q184 0 320.5 89t240.5 277q87 -33 177 -33q97 0 186 39l-12 39q-101 -39 -185 -39q-77 0 -151 33q90 156 90 342q0 93 -26.5 161.5t-76 105t-116.5 36.5q-89 0 -139 -71t-50 -193q0 -187 136 -348q-152 -383 -328 -383q-44 0 -71 33 t-27 90q0 106 42 238t97.5 246.5t106 202.5t50.5 89q0 18 -24 18q-154 0 -294.5 -109t-226 -272.5t-85.5 -308.5zM471 1090h80q36 30 91.5 83.5t74.5 69.5q46 -34 63.5 -47.5t66 -49.5t77.5 -56h88q-79 134 -105 286h-225l2 2q-62 -147 -213 -288zM664 825q0 67 20.5 108.5 t50.5 41.5q66 0 66 -219q0 -119 -33 -273q-43 65 -73.5 162.5t-30.5 179.5zM1012 1272h102q31 26 92 72.5t112.5 89.5t84.5 79h-285h4q-14 -74 -35.5 -123t-74.5 -118z" />
<glyph unicode="&#x1ed2;" horiz-adv-x="1782" d="M63 567q0 -142 47 -255.5t136.5 -193t218 -121.5t283.5 -42q203 0 388.5 86.5t331.5 239t227 344t81 389.5q0 137 -37 255.5t-104 205t-159 135.5t-198 49q-129 0 -223.5 -57.5t-153.5 -153t-86 -211.5t-27 -238q0 -52 7 -120l51 6q0 85 32 209.5t90 242t139.5 194.5 t176.5 77q72 0 114 -74.5t42 -198.5q0 -87 -16.5 -198t-50.5 -240.5t-77 -246t-96 -218.5q-107 -230 -215 -334t-244 -104q-94 0 -164.5 48.5t-107.5 139t-37 211.5q0 133 33.5 300.5t94.5 332.5t145.5 305t185.5 225l-21 25q-181 -71 -333 -179.5t-258 -242t-161 -284.5 t-55 -308zM1008 1737h79q36 30 76 68t90 85q70 -52 98.5 -73.5t108.5 -79.5h88q-80 139 -104 286h-225l2 2q-61 -145 -213 -288zM1288 2284q104 -114 293 -246h102q-55 83 -75 127.5t-37 118.5h-283z" />
<glyph unicode="&#x1ed3;" horiz-adv-x="1294" d="M-12 264q0 -141 90 -211.5t276 -70.5q184 0 320.5 89t240.5 277q87 -33 177 -33q97 0 186 39l-12 39q-101 -39 -185 -39q-77 0 -151 33q90 156 90 342q0 93 -26.5 161.5t-76 105t-116.5 36.5q-89 0 -139 -71t-50 -193q0 -187 136 -348q-152 -383 -328 -383q-44 0 -71 33 t-27 90q0 106 42 238t97.5 246.5t106 202.5t50.5 89q0 18 -24 18q-154 0 -294.5 -109t-226 -272.5t-85.5 -308.5zM471 1090h80q36 30 91.5 83.5t74.5 69.5q46 -34 63.5 -47.5t66 -49.5t77.5 -56h88q-79 134 -105 286h-225l2 2q-62 -147 -213 -288zM664 825q0 67 20.5 108.5 t50.5 41.5q66 0 66 -219q0 -119 -33 -273q-43 65 -73.5 162.5t-30.5 179.5zM752 1636q106 -115 292 -245h103q-51 75 -72.5 121.5t-40.5 123.5h-282z" />
<glyph unicode="&#x1ed4;" horiz-adv-x="1782" d="M63 567q0 -142 47 -255.5t136.5 -193t218 -121.5t283.5 -42q203 0 388.5 86.5t331.5 239t227 344t81 389.5q0 137 -37 255.5t-104 205t-159 135.5t-198 49q-129 0 -223.5 -57.5t-153.5 -153t-86 -211.5t-27 -238q0 -52 7 -120l51 6q0 85 32 209.5t90 242t139.5 194.5 t176.5 77q72 0 114 -74.5t42 -198.5q0 -87 -16.5 -198t-50.5 -240.5t-77 -246t-96 -218.5q-107 -230 -215 -334t-244 -104q-94 0 -164.5 48.5t-107.5 139t-37 211.5q0 133 33.5 300.5t94.5 332.5t145.5 305t185.5 225l-21 25q-181 -71 -333 -179.5t-258 -242t-161 -284.5 t-55 -308zM1008 1737h79q36 30 76 68t90 85q70 -52 98.5 -73.5t108.5 -79.5h88q-80 139 -104 286h-225l2 2q-61 -145 -213 -288zM1477 2144h51l14 -4q6 53 56.5 93t113.5 40q22 0 39.5 -14t17.5 -31q0 -25 -23.5 -46t-76 -55t-80.5 -65t-28 -71q0 -48 17.5 -74.5t76.5 -26.5 q27 0 59.5 14t32.5 23v41q-28 -22 -51 -22q-31 0 -31 39q0 21 77 58.5t119 65t42 78.5q0 71 -49 105.5t-125 34.5q-95 0 -173.5 -52t-78.5 -131z" />
<glyph unicode="&#x1ed5;" horiz-adv-x="1294" d="M-12 264q0 -141 90 -211.5t276 -70.5q184 0 320.5 89t240.5 277q87 -33 177 -33q97 0 186 39l-12 39q-101 -39 -185 -39q-77 0 -151 33q90 156 90 342q0 93 -26.5 161.5t-76 105t-116.5 36.5q-89 0 -139 -71t-50 -193q0 -187 136 -348q-152 -383 -328 -383q-44 0 -71 33 t-27 90q0 106 42 238t97.5 246.5t106 202.5t50.5 89q0 18 -24 18q-154 0 -294.5 -109t-226 -272.5t-85.5 -308.5zM471 1090h80q36 30 91.5 83.5t74.5 69.5q46 -34 63.5 -47.5t66 -49.5t77.5 -56h88q-79 134 -105 286h-225l2 2q-62 -147 -213 -288zM664 825q0 67 20.5 108.5 t50.5 41.5q66 0 66 -219q0 -119 -33 -273q-43 65 -73.5 162.5t-30.5 179.5zM940 1497h51l15 -4q6 53 56.5 93t113.5 40q21 0 39 -14t18 -31q0 -26 -25.5 -48t-76.5 -54.5t-79 -63.5t-28 -72q0 -47 17.5 -73.5t76.5 -26.5q27 0 59.5 14t32.5 23v41q-30 -23 -51 -23 q-31 0 -31 39q0 21 81 61t119 66t38 76q0 47 -23.5 78t-64 46t-86.5 15q-95 0 -173.5 -51t-78.5 -131z" />
<glyph unicode="&#x1ed6;" horiz-adv-x="1782" d="M63 567q0 -142 47 -255.5t136.5 -193t218 -121.5t283.5 -42q203 0 388.5 86.5t331.5 239t227 344t81 389.5q0 137 -37 255.5t-104 205t-159 135.5t-198 49q-129 0 -223.5 -57.5t-153.5 -153t-86 -211.5t-27 -238q0 -52 7 -120l51 6q0 85 32 209.5t90 242t139.5 194.5 t176.5 77q72 0 114 -74.5t42 -198.5q0 -87 -16.5 -198t-50.5 -240.5t-77 -246t-96 -218.5q-107 -230 -215 -334t-244 -104q-94 0 -164.5 48.5t-107.5 139t-37 211.5q0 133 33.5 300.5t94.5 332.5t145.5 305t185.5 225l-21 25q-181 -71 -333 -179.5t-258 -242t-161 -284.5 t-55 -308zM1008 1737h79q36 30 76 68t90 85q70 -52 98.5 -73.5t108.5 -79.5h88q-80 139 -104 286h-225l2 2q-61 -145 -213 -288zM1081 2165l39 -23q21 58 80 58q34 0 89 -20t109.5 -40t88.5 -20q66 0 125.5 48.5t120.5 145.5l-39 19l4 -4q-25 -64 -88 -64q-43 0 -144 42 t-141 42q-42 0 -86.5 -22.5t-84.5 -63t-73 -98.5z" />
<glyph unicode="&#x1ed7;" horiz-adv-x="1294" d="M-12 264q0 -141 90 -211.5t276 -70.5q184 0 320.5 89t240.5 277q87 -33 177 -33q97 0 186 39l-12 39q-101 -39 -185 -39q-77 0 -151 33q90 156 90 342q0 93 -26.5 161.5t-76 105t-116.5 36.5q-89 0 -139 -71t-50 -193q0 -187 136 -348q-152 -383 -328 -383q-44 0 -71 33 t-27 90q0 106 42 238t97.5 246.5t106 202.5t50.5 89q0 18 -24 18q-154 0 -294.5 -109t-226 -272.5t-85.5 -308.5zM471 1090h80q36 30 91.5 83.5t74.5 69.5q46 -34 63.5 -47.5t66 -49.5t77.5 -56h88q-79 134 -105 286h-225l2 2q-62 -147 -213 -288zM545 1518l39 -23 q19 57 80 57q27 0 62.5 -11t75.5 -26.5t81.5 -28.5t66.5 -13q66 0 125.5 48.5t120.5 145.5l-39 19l4 -5q-24 -63 -88 -63q-43 0 -144 42t-141 42q-63 0 -130 -50.5t-113 -133.5zM664 825q0 67 20.5 108.5t50.5 41.5q66 0 66 -219q0 -119 -33 -273q-43 65 -73.5 162.5 t-30.5 179.5z" />
<glyph unicode="&#x1ed8;" horiz-adv-x="1782" d="M63 567q0 -142 47 -255.5t136.5 -193t218 -121.5t283.5 -42q203 0 388.5 86.5t331.5 239t227 344t81 389.5q0 137 -37 255.5t-104 205t-159 135.5t-198 49q-129 0 -223.5 -57.5t-153.5 -153t-86 -211.5t-27 -238q0 -52 7 -120l51 6q0 85 32 209.5t90 242t139.5 194.5 t176.5 77q72 0 114 -74.5t42 -198.5q0 -87 -16.5 -198t-50.5 -240.5t-77 -246t-96 -218.5q-107 -230 -215 -334t-244 -104q-94 0 -164.5 48.5t-107.5 139t-37 211.5q0 133 33.5 300.5t94.5 332.5t145.5 305t185.5 225l-21 25q-181 -71 -333 -179.5t-258 -242t-161 -284.5 t-55 -308zM573 -268q0 -53 32.5 -91t88.5 -38q62 0 94.5 38t32.5 93t-32.5 94t-94.5 39q-55 0 -88 -41.5t-33 -93.5zM1008 1737h79q36 30 76 68t90 85q70 -52 98.5 -73.5t108.5 -79.5h88q-80 139 -104 286h-225l2 2q-61 -145 -213 -288z" />
<glyph unicode="&#x1ed9;" horiz-adv-x="1294" d="M-12 264q0 -141 90 -211.5t276 -70.5q184 0 320.5 89t240.5 277q87 -33 177 -33q97 0 186 39l-12 39q-101 -39 -185 -39q-77 0 -151 33q90 156 90 342q0 93 -26.5 161.5t-76 105t-116.5 36.5q-89 0 -139 -71t-50 -193q0 -187 136 -348q-152 -383 -328 -383q-44 0 -71 33 t-27 90q0 106 42 238t97.5 246.5t106 202.5t50.5 89q0 18 -24 18q-154 0 -294.5 -109t-226 -272.5t-85.5 -308.5zM201 -260q0 -53 32.5 -91t88.5 -38q62 0 94.5 38t32.5 93t-32.5 94t-94.5 39q-55 0 -88 -41.5t-33 -93.5zM471 1090h80q36 30 91.5 83.5t74.5 69.5 q46 -34 63.5 -47.5t66 -49.5t77.5 -56h88q-79 134 -105 286h-225l2 2q-62 -147 -213 -288zM664 825q0 67 20.5 108.5t50.5 41.5q66 0 66 -219q0 -119 -33 -273q-43 65 -73.5 162.5t-30.5 179.5z" />
<glyph unicode="&#x1eda;" horiz-adv-x="1782" d="M61 567q0 -142 46.5 -255t136 -193t218 -122t283.5 -42q203 0 388.5 86.5t332 239t227.5 344t81 389.5q0 197 -66 332q27 0 93.5 46t118.5 116t52 149q0 76 -59 147l-213 -100l14 -25h21q32 0 50.5 -21t18.5 -63q0 -87 -129 -182q-20 40 -69.5 96t-135 103t-192.5 47 q-129 0 -223.5 -57.5t-153.5 -153t-86 -211.5t-27 -238q0 -52 7 -120l51 6h-2q0 85 32 209.5t90 242t139.5 194.5t176.5 77q72 0 114 -74.5t42 -198.5q0 -87 -16.5 -198t-50.5 -240.5t-77 -246t-96 -218.5q-107 -230 -215 -334t-244 -104q-94 0 -164.5 48.5t-107.5 139 t-37 211.5q0 133 33.5 300.5t94.5 332.5t145.5 305t185.5 225l-21 25q-181 -71 -333 -179.5t-258 -242t-161 -284.5t-55 -308zM1067 1778h102q46 37 103.5 81t101.5 81t84 79h-284h4q-14 -70 -36 -121t-75 -120z" />
<glyph unicode="&#x1edb;" horiz-adv-x="1290" d="M-12 264q0 -141 90 -211.5t276 -70.5q184 0 320.5 89t240.5 277q87 -33 177 -33q97 0 186 39l-12 39q-101 -39 -185 -39q-77 0 -151 33q27 46 47.5 103.5t31.5 122.5t11 126q35 0 107 46.5t127 119.5t55 152t-60 147l-213 -100l15 -25h20q31 0 50.5 -21.5t19.5 -62.5 q0 -86 -129 -182h2q-15 103 -72.5 161t-140.5 58q-89 0 -139 -71t-50 -193q0 -187 136 -348q-152 -383 -328 -383q-44 0 -71 33t-27 90q0 106 42 238t97.5 246.5t106 202.5t50.5 89q0 18 -24 18q-154 0 -294.5 -109t-226 -272.5t-85.5 -308.5zM600 1141h102q46 37 103.5 81 t101.5 81t84 79h-284h4q-14 -70 -36 -121t-75 -120zM664 825q0 67 20.5 108.5t50.5 41.5q66 0 66 -219q0 -119 -33 -273q-43 65 -73.5 162.5t-30.5 179.5z" />
<glyph unicode="&#x1edc;" horiz-adv-x="1782" d="M61 567q0 -142 46.5 -255t136 -193t218 -122t283.5 -42q203 0 388.5 86.5t332 239t227.5 344t81 389.5q0 197 -66 332q27 0 93.5 46t118.5 116t52 149q0 76 -59 147l-213 -100l14 -25h21q32 0 50.5 -21t18.5 -63q0 -87 -129 -182q-20 40 -69.5 96t-135 103t-192.5 47 q-129 0 -223.5 -57.5t-153.5 -153t-86 -211.5t-27 -238q0 -52 7 -120l51 6h-2q0 85 32 209.5t90 242t139.5 194.5t176.5 77q72 0 114 -74.5t42 -198.5q0 -87 -16.5 -198t-50.5 -240.5t-77 -246t-96 -218.5q-107 -230 -215 -334t-244 -104q-94 0 -164.5 48.5t-107.5 139 t-37 211.5q0 133 33.5 300.5t94.5 332.5t145.5 305t185.5 225l-21 25q-181 -71 -333 -179.5t-258 -242t-161 -284.5t-55 -308zM971 2009q105 -115 293 -246h102q-52 77 -73 123t-40 123h-282z" />
<glyph unicode="&#x1edd;" horiz-adv-x="1290" d="M-12 264q0 -141 90 -211.5t276 -70.5q184 0 320.5 89t240.5 277q87 -33 177 -33q97 0 186 39l-12 39q-101 -39 -185 -39q-77 0 -151 33q27 46 47.5 103.5t31.5 122.5t11 126q35 0 107 46.5t127 119.5t55 152t-60 147l-213 -100l15 -25h20q31 0 50.5 -21.5t19.5 -62.5 q0 -86 -129 -182h2q-15 103 -72.5 161t-140.5 58q-89 0 -139 -71t-50 -193q0 -187 136 -348q-152 -383 -328 -383q-44 0 -71 33t-27 90q0 106 42 238t97.5 246.5t106 202.5t50.5 89q0 18 -24 18q-154 0 -294.5 -109t-226 -272.5t-85.5 -308.5zM473 1382q104 -113 293 -245 h102q-55 83 -75 126.5t-37 118.5h-283zM664 825q0 67 20.5 108.5t50.5 41.5q66 0 66 -219q0 -119 -33 -273q-43 65 -73.5 162.5t-30.5 179.5z" />
<glyph unicode="&#x1ede;" horiz-adv-x="1782" d="M61 567q0 -142 46.5 -255t136 -193t218 -122t283.5 -42q203 0 388.5 86.5t332 239t227.5 344t81 389.5q0 197 -66 332q27 0 93.5 46t118.5 116t52 149q0 76 -59 147l-213 -100l14 -25h21q32 0 50.5 -21t18.5 -63q0 -87 -129 -182q-20 40 -69.5 96t-135 103t-192.5 47 q-129 0 -223.5 -57.5t-153.5 -153t-86 -211.5t-27 -238q0 -52 7 -120l51 6h-2q0 85 32 209.5t90 242t139.5 194.5t176.5 77q72 0 114 -74.5t42 -198.5q0 -87 -16.5 -198t-50.5 -240.5t-77 -246t-96 -218.5q-107 -230 -215 -334t-244 -104q-94 0 -164.5 48.5t-107.5 139 t-37 211.5q0 133 33.5 300.5t94.5 332.5t145.5 305t185.5 225l-21 25q-181 -71 -333 -179.5t-258 -242t-161 -284.5t-55 -308zM985 2023h51l15 -4q6 53 56.5 93t113.5 40q21 0 39 -14t18 -31q0 -27 -25.5 -48t-76.5 -53.5t-79 -63.5t-28 -72q0 -48 17.5 -74.5t76.5 -26.5 q27 0 59.5 14t32.5 23v41q-28 -22 -51 -22q-30 0 -30 39q0 21 77.5 59t118.5 65t41 78q0 71 -49 105.5t-125 34.5q-95 0 -173.5 -52t-78.5 -131z" />
<glyph unicode="&#x1edf;" horiz-adv-x="1290" d="M-12 264q0 -141 90 -211.5t276 -70.5q184 0 320.5 89t240.5 277q87 -33 177 -33q97 0 186 39l-12 39q-101 -39 -185 -39q-77 0 -151 33q27 46 47.5 103.5t31.5 122.5t11 126q35 0 107 46.5t127 119.5t55 152t-60 147l-213 -100l15 -25h20q31 0 50.5 -21.5t19.5 -62.5 q0 -86 -129 -182h2q-15 103 -72.5 161t-140.5 58q-89 0 -139 -71t-50 -193q0 -187 136 -348q-152 -383 -328 -383q-44 0 -71 33t-27 90q0 106 42 238t97.5 246.5t106 202.5t50.5 89q0 18 -24 18q-154 0 -294.5 -109t-226 -272.5t-85.5 -308.5zM487 1407h52l14 -4 q6 53 56.5 93t113.5 40q22 0 39.5 -15t17.5 -30q0 -26 -25.5 -48t-76.5 -54.5t-79 -63.5t-28 -72q0 -47 17.5 -73.5t77.5 -26.5q26 0 59 14t33 23v41q-31 -23 -51 -23q-31 0 -31 39q0 21 81.5 61.5t118.5 66t37 75.5q0 47 -23.5 78t-64 46t-86.5 15q-95 0 -173.5 -51 t-78.5 -131zM664 825q0 67 20.5 108.5t50.5 41.5q66 0 66 -219q0 -119 -33 -273q-43 65 -73.5 162.5t-30.5 179.5z" />
<glyph unicode="&#x1ee0;" horiz-adv-x="1782" d="M61 567q0 -142 46.5 -255t136 -193t218 -122t283.5 -42q203 0 388.5 86.5t332 239t227.5 344t81 389.5q0 197 -66 332q27 0 93.5 46t118.5 116t52 149q0 76 -59 147l-213 -100l14 -25h21q32 0 50.5 -21t18.5 -63q0 -87 -129 -182q-20 40 -69.5 96t-135 103t-192.5 47 q-129 0 -223.5 -57.5t-153.5 -153t-86 -211.5t-27 -238q0 -52 7 -120l51 6h-2q0 85 32 209.5t90 242t139.5 194.5t176.5 77q72 0 114 -74.5t42 -198.5q0 -87 -16.5 -198t-50.5 -240.5t-77 -246t-96 -218.5q-107 -230 -215 -334t-244 -104q-94 0 -164.5 48.5t-107.5 139 t-37 211.5q0 133 33.5 300.5t94.5 332.5t145.5 305t185.5 225l-21 25q-181 -71 -333 -179.5t-258 -242t-161 -284.5t-55 -308zM846 1798l39 -22q19 57 80 57q34 0 88.5 -20l109 -40t88.5 -20q124 0 246 195l-39 18l4 -4q-25 -64 -88 -64q-43 0 -143 42t-141 42 q-64 0 -131 -49.5t-113 -134.5z" />
<glyph unicode="&#x1ee1;" horiz-adv-x="1290" d="M-12 264q0 -141 90 -211.5t276 -70.5q184 0 320.5 89t240.5 277q87 -33 177 -33q97 0 186 39l-12 39q-101 -39 -185 -39q-77 0 -151 33q27 46 47.5 103.5t31.5 122.5t11 126q35 0 107 46.5t127 119.5t55 152t-60 147l-213 -100l15 -25h20q31 0 50.5 -21.5t19.5 -62.5 q0 -86 -129 -182h2q-15 103 -72.5 161t-140.5 58q-89 0 -139 -71t-50 -193q0 -187 136 -348q-152 -383 -328 -383q-44 0 -71 33t-27 90q0 106 42 238t97.5 246.5t106 202.5t50.5 89q0 18 -24 18q-154 0 -294.5 -109t-226 -272.5t-85.5 -308.5zM410 1182l39 -23q20 58 79 58 q34 0 89 -20t109.5 -40t88.5 -20q66 0 125.5 48.5t120.5 145.5l-39 19l4 -4q-24 -64 -88 -64q-43 0 -144 42t-141 42q-63 0 -129.5 -49.5t-113.5 -134.5zM664 825q0 67 20.5 108.5t50.5 41.5q66 0 66 -219q0 -119 -33 -273q-43 65 -73.5 162.5t-30.5 179.5z" />
<glyph unicode="&#x1ee2;" horiz-adv-x="1782" d="M61 567q0 -142 46.5 -255t136 -193t218 -122t283.5 -42q203 0 388.5 86.5t332 239t227.5 344t81 389.5q0 197 -66 332q27 0 93.5 46t118.5 116t52 149q0 76 -59 147l-213 -100l14 -25h21q32 0 50.5 -21t18.5 -63q0 -87 -129 -182q-20 40 -69.5 96t-135 103t-192.5 47 q-129 0 -223.5 -57.5t-153.5 -153t-86 -211.5t-27 -238q0 -52 7 -120l51 6h-2q0 85 32 209.5t90 242t139.5 194.5t176.5 77q72 0 114 -74.5t42 -198.5q0 -87 -16.5 -198t-50.5 -240.5t-77 -246t-96 -218.5q-107 -230 -215 -334t-244 -104q-94 0 -164.5 48.5t-107.5 139 t-37 211.5q0 133 33.5 300.5t94.5 332.5t145.5 305t185.5 225l-21 25q-181 -71 -333 -179.5t-258 -242t-161 -284.5t-55 -308zM532 -283q0 -53 32.5 -91t88.5 -38q60 0 93.5 39t33.5 92q0 56 -32.5 95t-94.5 39q-55 0 -88 -41.5t-33 -94.5z" />
<glyph unicode="&#x1ee3;" horiz-adv-x="1290" d="M-12 264q0 -141 90 -211.5t276 -70.5q184 0 320.5 89t240.5 277q87 -33 177 -33q97 0 186 39l-12 39q-101 -39 -185 -39q-77 0 -151 33q27 46 47.5 103.5t31.5 122.5t11 126q35 0 107 46.5t127 119.5t55 152t-60 147l-213 -100l15 -25h20q31 0 50.5 -21.5t19.5 -62.5 q0 -86 -129 -182h2q-15 103 -72.5 161t-140.5 58q-89 0 -139 -71t-50 -193q0 -187 136 -348q-152 -383 -328 -383q-44 0 -71 33t-27 90q0 106 42 238t97.5 246.5t106 202.5t50.5 89q0 18 -24 18q-154 0 -294.5 -109t-226 -272.5t-85.5 -308.5zM178 -266q0 -53 32.5 -91 t88.5 -38q62 0 94.5 38t32.5 93t-32.5 94t-94.5 39q-55 0 -88 -41.5t-33 -93.5zM664 825q0 67 20.5 108.5t50.5 41.5q66 0 66 -219q0 -119 -33 -273q-43 65 -73.5 162.5t-30.5 179.5z" />
<glyph unicode="&#x1ee4;" horiz-adv-x="2476" d="M-8 711q0 -77 25 -156t76 -164t130 -178l39 31q-78 110 -106.5 182.5t-28.5 161.5q0 146 95.5 319.5t249 330t324.5 254t312 97.5q49 0 72.5 -20.5t23.5 -52.5q0 -40 -24 -76l-492 -951q-51 -114 -51 -233q0 -78 26.5 -143.5t85.5 -104.5t152 -39q97 0 188 59 t168.5 150.5t152 209t112.5 179.5q247 407 503 918l7 -6l-414 -891q-23 -51 -43.5 -113.5t-33.5 -123t-13 -99.5q0 -125 110.5 -204t284.5 -79q203 0 477 140v45q-80 -32 -151.5 -61.5t-141 -48.5t-139.5 -19q-119 0 -119 98q0 47 35 135l588 1356l-453 -58 q-45 -102 -192 -370.5t-308 -526.5t-321 -449.5t-252 -191.5q-41 0 -41 35q0 15 6.5 33t17.5 40l11 21l549 1098q20 42 32.5 93.5t12.5 88.5q0 106 -88.5 159.5t-259.5 53.5q-104 0 -202 -17t-196 -51t-195 -86.5t-190 -123.5q-192 -134 -301.5 -311t-109.5 -340zM1206 -268 q0 -53 32.5 -91t88.5 -38q62 0 94.5 38t32.5 93t-32.5 94t-94.5 39q-55 0 -88 -41.5t-33 -93.5z" />
<glyph unicode="&#x1ee5;" horiz-adv-x="1413" d="M-37 209q0 -64 35.5 -113t99.5 -75.5t146 -26.5q105 0 201 30t200 91q80 -127 254 -127q87 0 180.5 28.5t175.5 70t146 87.5l-19 31q-102 -72 -186.5 -110t-142.5 -38q-84 0 -84 80q0 48 30 133l261 672l-396 -78l-207 -549q-24 -84 -24 -122v-39q-170 -99 -258 -99 q-78 0 -78 80q0 56 31 129l252 684l-387 -78l-205 -548q-25 -54 -25 -113zM393 -274q0 -53 32.5 -91t88.5 -38q62 0 94.5 38t32.5 93t-32.5 94t-94.5 39q-55 0 -88 -41.5t-33 -93.5z" />
<glyph unicode="&#x1ee6;" horiz-adv-x="2476" d="M-8 711q0 -77 25 -156t76 -164t130 -178l39 31q-78 110 -106.5 182.5t-28.5 161.5q0 146 95.5 319.5t249 330t324.5 254t312 97.5q49 0 72.5 -20.5t23.5 -52.5q0 -40 -24 -76l-492 -951q-51 -114 -51 -233q0 -78 26.5 -143.5t85.5 -104.5t152 -39q97 0 188 59 t168.5 150.5t152 209t112.5 179.5q247 407 503 918l7 -6l-414 -891q-23 -51 -43.5 -113.5t-33.5 -123t-13 -99.5q0 -125 110.5 -204t284.5 -79q203 0 477 140v45q-80 -32 -151.5 -61.5t-141 -48.5t-139.5 -19q-119 0 -119 98q0 47 35 135l588 1356l-453 -58 q-45 -102 -192 -370.5t-308 -526.5t-321 -449.5t-252 -191.5q-41 0 -41 35q0 15 6.5 33t17.5 40l11 21l549 1098q20 42 32.5 93.5t12.5 88.5q0 106 -88.5 159.5t-259.5 53.5q-104 0 -202 -17t-196 -51t-195 -86.5t-190 -123.5q-192 -134 -301.5 -311t-109.5 -340zM1597 1995 h52l14 -4q6 53 56.5 93t113.5 40q22 0 39.5 -15t17.5 -30q0 -26 -25.5 -48t-76.5 -54.5t-79 -63.5t-28 -72q0 -48 17 -74t78 -26q26 0 59 13t33 24v41q-29 -23 -51 -23q-31 0 -31 39q0 21 77.5 59t118.5 66t41 78q0 70 -49 104.5t-125 34.5q-95 0 -173.5 -51t-78.5 -131z " />
<glyph unicode="&#x1ee7;" horiz-adv-x="1413" d="M-37 209q0 -64 35.5 -113t99.5 -75.5t146 -26.5q105 0 201 30t200 91q80 -127 254 -127q87 0 180.5 28.5t175.5 70t146 87.5l-19 31q-102 -72 -186.5 -110t-142.5 -38q-84 0 -84 80q0 48 30 133l261 672l-396 -78l-207 -549q-24 -84 -24 -122v-39q-170 -99 -258 -99 q-78 0 -78 80q0 56 31 129l252 684l-387 -78l-205 -548q-25 -54 -25 -113zM651 1313h51l15 -4q6 53 56.5 93t113.5 40q21 0 39 -15t18 -30q0 -26 -25.5 -48t-76.5 -54.5t-79 -63.5t-28 -72q0 -47 17.5 -73.5t76.5 -26.5q27 0 60 13t33 24v41q-29 -23 -52 -23q-30 0 -30 39 q0 21 77.5 59t118.5 66t41 78q0 47 -23.5 78t-64 46t-86.5 15q-95 0 -173.5 -51t-78.5 -131z" />
<glyph unicode="&#x1ee8;" horiz-adv-x="2476" d="M-8 711q0 -77 25 -156t76 -164t130 -178l39 31q-78 110 -106.5 182.5t-28.5 161.5q0 146 95.5 319.5t249 330t324.5 254t312 97.5q49 0 72.5 -20.5t23.5 -52.5q0 -40 -24 -76l-492 -951q-51 -114 -51 -233q0 -78 26.5 -143.5t85.5 -104.5t152 -39q97 0 188 59 t168.5 150.5t152 209t112.5 179.5q247 407 503 918l7 -6l-414 -891q-23 -51 -43.5 -113.5t-33.5 -123t-13 -99.5q0 -125 110.5 -204t284.5 -79q203 0 477 140v45q-80 -32 -151.5 -61.5t-141 -48.5t-139.5 -19q-119 0 -119 98q0 47 35 135l461 1057q53 6 133 55t139.5 124.5 t59.5 156.5q0 73 -60 145l-213 -100l15 -25h20q31 0 50.5 -21.5t19.5 -62.5q0 -86 -129 -182l92 209l-453 -58q-45 -102 -192 -370.5t-308 -526.5t-321 -449.5t-252 -191.5q-41 0 -41 35q0 15 6.5 33t17.5 40l11 21l549 1098q20 42 32.5 93.5t12.5 88.5q0 106 -88.5 159.5 t-259.5 53.5q-104 0 -202 -17t-196 -51t-195 -86.5t-190 -123.5q-192 -134 -301.5 -311t-109.5 -340zM1720 1749h103q31 26 99.5 79.5t108.5 87t80 75.5h-284h4q-14 -71 -36 -122t-75 -120z" />
<glyph unicode="&#x1ee9;" horiz-adv-x="1413" d="M-37 209q0 -64 35.5 -113t99.5 -75.5t146 -26.5q105 0 201 30t200 91q80 -127 254 -127q87 0 180.5 28.5t175.5 70t146 87.5l-19 31q-220 -148 -329 -148q-84 0 -84 80q0 48 30 133l158 410v-2q53 6 133 55t139.5 124.5t59.5 156.5q0 73 -59 145l-213 -100l14 -25h20 q31 0 50.5 -21.5t19.5 -62.5q0 -87 -129 -182l68 174l-396 -78l-207 -549q-24 -84 -24 -122v-39q-170 -99 -258 -99q-78 0 -78 80q0 56 31 129l252 684l-387 -78l-205 -548q-25 -54 -25 -113zM725 1044h102q23 19 92 72.5t113 90.5t84 79h-285h5q-14 -70 -36 -120.5 t-75 -121.5z" />
<glyph unicode="&#x1eea;" horiz-adv-x="2476" d="M-8 711q0 -77 25 -156t76 -164t130 -178l39 31q-78 110 -106.5 182.5t-28.5 161.5q0 146 95.5 319.5t249 330t324.5 254t312 97.5q49 0 72.5 -20.5t23.5 -52.5q0 -40 -24 -76l-492 -951q-51 -114 -51 -233q0 -78 26.5 -143.5t85.5 -104.5t152 -39q97 0 188 59 t168.5 150.5t152 209t112.5 179.5q247 407 503 918l7 -6l-414 -891q-23 -51 -43.5 -113.5t-33.5 -123t-13 -99.5q0 -125 110.5 -204t284.5 -79q203 0 477 140v45q-80 -32 -151.5 -61.5t-141 -48.5t-139.5 -19q-119 0 -119 98q0 47 35 135l461 1057q53 6 133 55t139.5 124.5 t59.5 156.5q0 73 -60 145l-213 -100l15 -25h20q31 0 50.5 -21.5t19.5 -62.5q0 -86 -129 -182l92 209l-453 -58q-45 -102 -192 -370.5t-308 -526.5t-321 -449.5t-252 -191.5q-41 0 -41 35q0 15 6.5 33t17.5 40l11 21l549 1098q20 42 32.5 93.5t12.5 88.5q0 106 -88.5 159.5 t-259.5 53.5q-104 0 -202 -17t-196 -51t-195 -86.5t-190 -123.5q-192 -134 -301.5 -311t-109.5 -340zM1501 2011q102 -111 293 -246h102q-56 86 -75.5 128.5t-36.5 117.5h-283z" />
<glyph unicode="&#x1eeb;" horiz-adv-x="1413" d="M-37 209q0 -64 35.5 -113t99.5 -75.5t146 -26.5q105 0 201 30t200 91q80 -127 254 -127q87 0 180.5 28.5t175.5 70t146 87.5l-19 31q-220 -148 -329 -148q-84 0 -84 80q0 48 30 133l158 410v-2q53 6 133 55t139.5 124.5t59.5 156.5q0 73 -59 145l-213 -100l14 -25h20 q31 0 50.5 -21.5t19.5 -62.5q0 -87 -129 -182l68 174l-396 -78l-207 -549q-24 -84 -24 -122v-39q-170 -99 -258 -99q-78 0 -78 80q0 56 31 129l252 684l-387 -78l-205 -548q-25 -54 -25 -113zM578 1307q39 -43 87.5 -86.5t92.5 -77.5t112 -82h103q-51 75 -72.5 122.5 t-40.5 123.5h-282z" />
<glyph unicode="&#x1eec;" horiz-adv-x="2476" d="M-8 711q0 -77 25 -156t76 -164t130 -178l39 31q-78 110 -106.5 182.5t-28.5 161.5q0 146 95.5 319.5t249 330t324.5 254t312 97.5q49 0 72.5 -20.5t23.5 -52.5q0 -40 -24 -76l-492 -951q-51 -114 -51 -233q0 -78 26.5 -143.5t85.5 -104.5t152 -39q97 0 188 59 t168.5 150.5t152 209t112.5 179.5q247 407 503 918l7 -6l-414 -891q-23 -51 -43.5 -113.5t-33.5 -123t-13 -99.5q0 -125 110.5 -204t284.5 -79q203 0 477 140v45q-80 -32 -151.5 -61.5t-141 -48.5t-139.5 -19q-119 0 -119 98q0 47 35 135l461 1057q53 6 133 55t139.5 124.5 t59.5 156.5q0 73 -60 145l-213 -100l15 -25h20q31 0 50.5 -21.5t19.5 -62.5q0 -86 -129 -182l92 209l-453 -58q-45 -102 -192 -370.5t-308 -526.5t-321 -449.5t-252 -191.5q-41 0 -41 35q0 15 6.5 33t17.5 40l11 21l549 1098q20 42 32.5 93.5t12.5 88.5q0 106 -88.5 159.5 t-259.5 53.5q-104 0 -202 -17t-196 -51t-195 -86.5t-190 -123.5q-192 -134 -301.5 -311t-109.5 -340zM1597 1995h52l14 -4q6 53 56.5 93t113.5 40q22 0 39.5 -15t17.5 -30q0 -26 -25.5 -48t-76.5 -54.5t-79 -63.5t-28 -72q0 -48 17 -74t78 -26q26 0 59 13t33 24v41 q-29 -23 -51 -23q-31 0 -31 39q0 21 77.5 59t118.5 66t41 78q0 70 -49 104.5t-125 34.5q-95 0 -173.5 -51t-78.5 -131z" />
<glyph unicode="&#x1eed;" horiz-adv-x="1413" d="M-37 209q0 -64 35.5 -113t99.5 -75.5t146 -26.5q105 0 201 30t200 91q80 -127 254 -127q87 0 180.5 28.5t175.5 70t146 87.5l-19 31q-220 -148 -329 -148q-84 0 -84 80q0 48 30 133l158 410v-2q53 6 133 55t139.5 124.5t59.5 156.5q0 73 -59 145l-213 -100l14 -25h20 q31 0 50.5 -21.5t19.5 -62.5q0 -87 -129 -182l68 174l-396 -78l-207 -549q-24 -84 -24 -122v-39q-170 -99 -258 -99q-78 0 -78 80q0 56 31 129l252 684l-387 -78l-205 -548q-25 -54 -25 -113zM633 1290h51l14 -4q8 55 57.5 94t112.5 39q22 0 40 -14t18 -31q0 -26 -25.5 -48 t-76.5 -54.5t-79 -63.5t-28 -71q0 -48 17.5 -74.5t76.5 -26.5q27 0 59.5 14t32.5 23v41q-28 -22 -51 -22q-31 0 -31 38q0 21 77 59t119 65.5t42 78.5q0 71 -49 105.5t-125 34.5q-95 0 -173.5 -52t-78.5 -131z" />
<glyph unicode="&#x1eee;" horiz-adv-x="2476" d="M-8 711q0 -77 25 -156t76 -164t130 -178l39 31q-78 110 -106.5 182.5t-28.5 161.5q0 146 95.5 319.5t249 330t324.5 254t312 97.5q49 0 72.5 -20.5t23.5 -52.5q0 -40 -24 -76l-492 -951q-51 -114 -51 -233q0 -78 26.5 -143.5t85.5 -104.5t152 -39q97 0 188 59 t168.5 150.5t152 209t112.5 179.5q247 407 503 918l7 -6l-414 -891q-23 -51 -43.5 -113.5t-33.5 -123t-13 -99.5q0 -125 110.5 -204t284.5 -79q203 0 477 140v45q-80 -32 -151.5 -61.5t-141 -48.5t-139.5 -19q-119 0 -119 98q0 47 35 135l461 1057q53 6 133 55t139.5 124.5 t59.5 156.5q0 73 -60 145l-213 -100l15 -25h20q31 0 50.5 -21.5t19.5 -62.5q0 -86 -129 -182l92 209l-453 -58q-45 -102 -192 -370.5t-308 -526.5t-321 -449.5t-252 -191.5q-41 0 -41 35q0 15 6.5 33t17.5 40l11 21l549 1098q20 42 32.5 93.5t12.5 88.5q0 106 -88.5 159.5 t-259.5 53.5q-104 0 -202 -17t-196 -51t-195 -86.5t-190 -123.5q-192 -134 -301.5 -311t-109.5 -340zM1499 1821l39 -23q19 57 80 57q32 0 88 -19.5t111.5 -39.5t87.5 -20q125 0 245 194l-39 19l5 -4q-25 -64 -88 -64q-43 0 -144 42t-141 42q-42 0 -86.5 -22.5t-84.5 -63 t-73 -98.5z" />
<glyph unicode="&#x1eef;" horiz-adv-x="1413" d="M-37 209q0 -64 35.5 -113t99.5 -75.5t146 -26.5q105 0 201 30t200 91q80 -127 254 -127q87 0 180.5 28.5t175.5 70t146 87.5l-19 31q-220 -148 -329 -148q-84 0 -84 80q0 48 30 133l158 410v-2q53 6 133 55t139.5 124.5t59.5 156.5q0 73 -59 145l-213 -100l14 -25h20 q31 0 50.5 -21.5t19.5 -62.5q0 -87 -129 -182l68 174l-396 -78l-207 -549q-24 -84 -24 -122v-39q-170 -99 -258 -99q-78 0 -78 80q0 56 31 129l252 684l-387 -78l-205 -548q-25 -54 -25 -113zM494 1096l38 -23q21 57 80 57q32 0 88 -19.5t111.5 -39.5t87.5 -20 q66 0 125.5 48.5t120.5 145.5l-39 19l4 -4q-24 -64 -88 -64q-43 0 -144 42t-141 42q-63 0 -129.5 -49.5t-113.5 -134.5z" />
<glyph unicode="&#x1ef0;" horiz-adv-x="2476" d="M-8 711q0 -77 25 -156t76 -164t130 -178l39 31q-78 110 -106.5 182.5t-28.5 161.5q0 146 95.5 319.5t249 330t324.5 254t312 97.5q49 0 72.5 -20.5t23.5 -52.5q0 -40 -24 -76l-492 -951q-51 -114 -51 -233q0 -78 26.5 -143.5t85.5 -104.5t152 -39q97 0 188 59 t168.5 150.5t152 209t112.5 179.5q247 407 503 918l7 -6l-414 -891q-23 -51 -43.5 -113.5t-33.5 -123t-13 -99.5q0 -125 110.5 -204t284.5 -79q203 0 477 140v45q-80 -32 -151.5 -61.5t-141 -48.5t-139.5 -19q-119 0 -119 98q0 47 35 135l461 1057q53 6 133 55t139.5 124.5 t59.5 156.5q0 73 -60 145l-213 -100l15 -25h20q31 0 50.5 -21.5t19.5 -62.5q0 -86 -129 -182l92 209l-453 -58q-45 -102 -192 -370.5t-308 -526.5t-321 -449.5t-252 -191.5q-41 0 -41 35q0 15 6.5 33t17.5 40l11 21l549 1098q20 42 32.5 93.5t12.5 88.5q0 106 -88.5 159.5 t-259.5 53.5q-104 0 -202 -17t-196 -51t-195 -86.5t-190 -123.5q-192 -134 -301.5 -311t-109.5 -340zM1206 -268q0 -53 32.5 -91t88.5 -38q62 0 94.5 38t32.5 93t-32.5 94t-94.5 39q-55 0 -88 -41.5t-33 -93.5z" />
<glyph unicode="&#x1ef1;" horiz-adv-x="1413" d="M-37 209q0 -64 35.5 -113t99.5 -75.5t146 -26.5q105 0 201 30t200 91q80 -127 254 -127q87 0 180.5 28.5t175.5 70t146 87.5l-19 31q-220 -148 -329 -148q-84 0 -84 80q0 48 30 133l158 410v-2q53 6 133 55t139.5 124.5t59.5 156.5q0 73 -59 145l-213 -100l14 -25h20 q31 0 50.5 -21.5t19.5 -62.5q0 -87 -129 -182l68 174l-396 -78l-207 -549q-24 -84 -24 -122v-39q-170 -99 -258 -99q-78 0 -78 80q0 56 31 129l252 684l-387 -78l-205 -548q-25 -54 -25 -113zM406 -266q0 -53 31.5 -91t88.5 -38q62 0 94.5 38t32.5 93t-32.5 94t-94.5 39 q-56 0 -88 -41.5t-32 -93.5z" />
<glyph unicode="&#x1ef2;" horiz-adv-x="2519" d="M90 903q0 -288 270 -567l39 31q-67 76 -106 141.5t-56.5 127.5t-17.5 132q0 173 100.5 340.5t298.5 312.5q85 63 161 105.5t142 65t117 22.5q88 0 88 -90q0 -31 -10 -66l-420 -923q-20 -43 -35.5 -89.5t-24.5 -99t-9 -102.5q0 -111 57 -180.5t186 -69.5q172 0 354.5 161 t343 399.5t278.5 465.5t220 446l13 -8q-174 -387 -226 -543l-143 -387l-121 -329l-14 -25q-51 -20 -192 -74.5t-253 -117.5t-186 -145t-74 -179q0 -59 47.5 -97t120.5 -38q149 0 294 57t272 156t225.5 223.5t159.5 259.5q234 33 407 33l51 84q-137 -10 -237 -23.5 t-201 -36.5q10 17 16 33.5t15 38.5l479 1292l-434 -65q-92 -185 -206 -384.5t-235.5 -384t-258.5 -355t-275 -297.5q-19 -25 -80 -69t-94 -44t-33 43q0 29 21 57l489 1092q43 85 43 162t-43 137t-119.5 93.5t-177.5 33.5q-163 0 -344 -50t-335.5 -146t-250.5 -239t-96 -321z M958 -385q0 33 29.5 82.5t68.5 94t60 61.5q186 175 447 262q-52 -142 -143 -270.5t-193.5 -205.5t-188.5 -77q-80 0 -80 53zM1489 2060q107 -117 293 -245h102q-38 55 -57.5 91t-31.5 70t-23 84h-283z" />
<glyph unicode="&#x1ef3;" d="M-8 236q0 -96 57 -153.5t176 -57.5q55 0 113.5 11t114 31t127.5 54l-64 -172q-188 -33 -272 -85.5t-84 -139.5q0 -54 53 -88.5t135 -34.5q87 0 170 24.5t154 71.5t123 111.5t84 146.5q65 15 131 38.5t118 47.5t112.5 56.5t141.5 82.5l-14 45q-94 -66 -217.5 -123 t-259.5 -96l336 948l-375 -69l-246 -672q-29 -33 -102.5 -76t-126.5 -43q-68 0 -68 80q0 11 3.5 22t11 35t12.5 39l244 693l-375 -78l-187 -504q-26 -74 -26 -145zM231 -287q0 58 44.5 93.5t93 50.5t141.5 37q-13 -32 -33 -84t-41.5 -88t-55 -61.5t-77.5 -25.5 q-33 0 -52.5 22t-19.5 56zM510 1323q105 -115 293 -246h102q-56 86 -75.5 128.5t-36.5 117.5h-283z" />
<glyph unicode="&#x1ef4;" horiz-adv-x="2519" d="M90 903q0 -288 270 -567l39 31q-67 76 -106 141.5t-56.5 127.5t-17.5 132q0 173 100.5 340.5t298.5 312.5q85 63 161 105.5t142 65t117 22.5q88 0 88 -90q0 -31 -10 -66l-420 -923q-20 -43 -35.5 -89.5t-24.5 -99t-9 -102.5q0 -111 57 -180.5t186 -69.5q172 0 354.5 161 t343 399.5t278.5 465.5t220 446l13 -8q-174 -387 -226 -543l-143 -387l-121 -329l-14 -25q-51 -20 -192 -74.5t-253 -117.5t-186 -145t-74 -179q0 -59 47.5 -97t120.5 -38q149 0 294 57t272 156t225.5 223.5t159.5 259.5q234 33 407 33l51 84q-137 -10 -237 -23.5 t-201 -36.5q10 17 16 33.5t15 38.5l479 1292l-434 -65q-92 -185 -206 -384.5t-235.5 -384t-258.5 -355t-275 -297.5q-19 -25 -80 -69t-94 -44t-33 43q0 29 21 57l489 1092q43 85 43 162t-43 137t-119.5 93.5t-177.5 33.5q-163 0 -344 -50t-335.5 -146t-250.5 -239t-96 -321z M958 -385q0 33 29.5 82.5t68.5 94t60 61.5q186 175 447 262q-52 -142 -143 -270.5t-193.5 -205.5t-188.5 -77q-80 0 -80 53zM1839 -387q0 -53 32.5 -91t88.5 -38q62 0 94.5 38t32.5 93t-32.5 94t-94.5 39q-55 0 -88 -41.5t-33 -93.5z" />
<glyph unicode="&#x1ef5;" d="M-8 236q0 -96 57 -153.5t176 -57.5q55 0 113.5 11t114 31t127.5 54l-64 -172q-188 -33 -272 -85.5t-84 -139.5q0 -54 53 -88.5t135 -34.5q87 0 170 24.5t154 71.5t123 111.5t84 146.5q65 15 131 38.5t118 47.5t112.5 56.5t141.5 82.5l-14 45q-94 -66 -217.5 -123 t-259.5 -96l336 948l-375 -69l-246 -672q-29 -33 -102.5 -76t-126.5 -43q-68 0 -68 80q0 11 3.5 22t11 35t12.5 39l244 693l-375 -78l-187 -504q-26 -74 -26 -145zM231 -287q0 58 44.5 93.5t93 50.5t141.5 37q-13 -32 -33 -84t-41.5 -88t-55 -61.5t-77.5 -25.5 q-33 0 -52.5 22t-19.5 56zM837 -266q0 -53 32.5 -91t88.5 -38q62 0 94.5 38t32.5 93t-32.5 94t-94.5 39q-55 0 -88 -41.5t-33 -93.5z" />
<glyph unicode="&#x1ef6;" horiz-adv-x="2519" d="M90 903q0 -288 270 -567l39 31q-67 76 -106 141.5t-56.5 127.5t-17.5 132q0 173 100.5 340.5t298.5 312.5q85 63 161 105.5t142 65t117 22.5q88 0 88 -90q0 -31 -10 -66l-420 -923q-20 -43 -35.5 -89.5t-24.5 -99t-9 -102.5q0 -111 57 -180.5t186 -69.5q172 0 354.5 161 t343 399.5t278.5 465.5t220 446l13 -8q-174 -387 -226 -543l-143 -387l-121 -329l-14 -25q-51 -20 -192 -74.5t-253 -117.5t-186 -145t-74 -179q0 -59 47.5 -97t120.5 -38q149 0 294 57t272 156t225.5 223.5t159.5 259.5q234 33 407 33l51 84q-137 -10 -237 -23.5 t-201 -36.5q10 17 16 33.5t15 38.5l479 1292l-434 -65q-92 -185 -206 -384.5t-235.5 -384t-258.5 -355t-275 -297.5q-19 -25 -80 -69t-94 -44t-33 43q0 29 21 57l489 1092q43 85 43 162t-43 137t-119.5 93.5t-177.5 33.5q-163 0 -344 -50t-335.5 -146t-250.5 -239t-96 -321z M958 -385q0 33 29.5 82.5t68.5 94t60 61.5q186 175 447 262q-52 -142 -143 -270.5t-193.5 -205.5t-188.5 -77q-80 0 -80 53zM1595 2075h52l14 -4q6 53 56.5 93t113.5 40q22 0 39.5 -15t17.5 -30q0 -26 -25.5 -48t-76.5 -54.5t-79 -63.5t-28 -72q0 -47 17.5 -73.5t77.5 -26.5 q26 0 59 13t33 24v40q-30 -22 -51 -22q-31 0 -31 39q0 21 77.5 59t118.5 66t41 78q0 47 -23.5 78t-64 46t-86.5 15q-95 0 -173.5 -51t-78.5 -131z" />
<glyph unicode="&#x1ef7;" d="M-8 236q0 -96 57 -153.5t176 -57.5q55 0 113.5 11t114 31t127.5 54l-64 -172q-188 -33 -272 -85.5t-84 -139.5q0 -54 53 -88.5t135 -34.5q87 0 170 24.5t154 71.5t123 111.5t84 146.5q65 15 131 38.5t118 47.5t112.5 56.5t141.5 82.5l-14 45q-94 -66 -217.5 -123 t-259.5 -96l336 948l-375 -69l-246 -672q-29 -33 -102.5 -76t-126.5 -43q-68 0 -68 80q0 11 3.5 22t11 35t12.5 39l244 693l-375 -78l-187 -504q-26 -74 -26 -145zM231 -287q0 58 44.5 93.5t93 50.5t141.5 37q-13 -32 -33 -84t-41.5 -88t-55 -61.5t-77.5 -25.5 q-33 0 -52.5 22t-19.5 56zM596 1348h51l15 -5q5 36 29 66.5t61.5 49t78.5 18.5q22 0 40 -15t18 -30q0 -26 -25.5 -48t-76.5 -54.5t-79 -63.5t-28 -72q0 -47 17.5 -73.5t76.5 -26.5q27 0 59.5 13t32.5 23v41q-28 -22 -51 -22q-31 0 -31 39q0 21 77 58.5t119 66t42 78.5 q0 47 -23.5 78t-64 46t-86.5 15q-95 0 -173.5 -51t-78.5 -131z" />
<glyph unicode="&#x1ef8;" horiz-adv-x="2519" d="M90 903q0 -288 270 -567l39 31q-67 76 -106 141.5t-56.5 127.5t-17.5 132q0 173 100.5 340.5t298.5 312.5q85 63 161 105.5t142 65t117 22.5q88 0 88 -90q0 -31 -10 -66l-420 -923q-20 -43 -35.5 -89.5t-24.5 -99t-9 -102.5q0 -111 57 -180.5t186 -69.5q172 0 354.5 161 t343 399.5t278.5 465.5t220 446l13 -8q-174 -387 -226 -543l-143 -387l-121 -329l-14 -25q-51 -20 -192 -74.5t-253 -117.5t-186 -145t-74 -179q0 -59 47.5 -97t120.5 -38q149 0 294 57t272 156t225.5 223.5t159.5 259.5q234 33 407 33l51 84q-137 -10 -237 -23.5 t-201 -36.5q10 17 16 33.5t15 38.5l479 1292l-434 -65q-92 -185 -206 -384.5t-235.5 -384t-258.5 -355t-275 -297.5q-19 -25 -80 -69t-94 -44t-33 43q0 29 21 57l489 1092q43 85 43 162t-43 137t-119.5 93.5t-177.5 33.5q-163 0 -344 -50t-335.5 -146t-250.5 -239t-96 -321z M958 -385q0 33 29.5 82.5t68.5 94t60 61.5q186 175 447 262q-52 -142 -143 -270.5t-193.5 -205.5t-188.5 -77q-80 0 -80 53zM1497 1890l39 -22q19 57 80 57q34 0 89 -20t109.5 -40t88.5 -20q125 0 245 195l-39 18l5 -4q-25 -63 -89 -63q-42 0 -143 42t-141 42 q-63 0 -130.5 -50.5t-113.5 -134.5z" />
<glyph unicode="&#x1ef9;" d="M-8 236q0 -96 57 -153.5t176 -57.5q55 0 113.5 11t114 31t127.5 54l-64 -172q-188 -33 -272 -85.5t-84 -139.5q0 -54 53 -88.5t135 -34.5q87 0 170 24.5t154 71.5t123 111.5t84 146.5q65 15 131 38.5t118 47.5t112.5 56.5t141.5 82.5l-14 45q-94 -66 -217.5 -123 t-259.5 -96l336 948l-375 -69l-246 -672q-29 -33 -102.5 -76t-126.5 -43q-68 0 -68 80q0 11 3.5 22t11 35t12.5 39l244 693l-375 -78l-187 -504q-26 -74 -26 -145zM231 -287q0 58 44.5 93.5t93 50.5t141.5 37q-13 -32 -33 -84t-41.5 -88t-55 -61.5t-77.5 -25.5 q-33 0 -52.5 22t-19.5 56zM477 1122l39 -22q19 57 80 57q34 0 89 -20t109.5 -40t88.5 -20q125 0 245 195l-38 18l4 -4q-25 -63 -88 -63q-43 0 -144 42t-141 42q-63 0 -130.5 -50.5t-113.5 -134.5z" />
<glyph unicode="&#x2000;" horiz-adv-x="1250" />
<glyph unicode="&#x2001;" horiz-adv-x="2501" />
<glyph unicode="&#x2002;" horiz-adv-x="1250" />
<glyph unicode="&#x2003;" horiz-adv-x="2501" />
<glyph unicode="&#x2004;" horiz-adv-x="833" />
<glyph unicode="&#x2005;" horiz-adv-x="625" />
<glyph unicode="&#x2006;" horiz-adv-x="416" />
<glyph unicode="&#x2007;" horiz-adv-x="416" />
<glyph unicode="&#x2008;" horiz-adv-x="312" />
<glyph unicode="&#x2009;" horiz-adv-x="500" />
<glyph unicode="&#x200a;" horiz-adv-x="138" />
<glyph unicode="&#x2010;" horiz-adv-x="385" d="M-96 289h345l79 111h-340z" />
<glyph unicode="&#x2011;" horiz-adv-x="385" d="M-96 289h345l79 111h-340z" />
<glyph unicode="&#x2012;" horiz-adv-x="385" d="M-96 289h345l79 111h-340z" />
<glyph unicode="&#x2013;" horiz-adv-x="985" d="M-96 289h833l191 111h-821z" />
<glyph unicode="&#x2014;" horiz-adv-x="2009" d="M-96 289h1666l382 111h-1642z" />
<glyph unicode="&#x2018;" horiz-adv-x="751" d="M41 975h381l108 645h-147z" />
<glyph unicode="&#x2019;" horiz-adv-x="661" d="M170 975h147l342 645h-381z" />
<glyph unicode="&#x201c;" horiz-adv-x="1208" d="M41 975h381l108 645h-147zM485 975h389l103 645h-150z" />
<glyph unicode="&#x201d;" horiz-adv-x="1208" d="M270 975h150l342 645h-389zM717 975h147l342 645h-381z" />
<glyph unicode="&#x2026;" horiz-adv-x="1925" d="M233 180q0 -82 52.5 -140t148.5 -58q90 0 140.5 59t50.5 141q0 83 -49.5 141t-141.5 58q-60 0 -106.5 -29.5t-70.5 -75.5t-24 -96zM788 180q0 -82 52.5 -140t148.5 -58q90 0 140.5 59t50.5 141q0 83 -49.5 141t-141.5 58q-60 0 -106.5 -29.5t-70.5 -75.5t-24 -96z M1369 180q0 -82 52.5 -140t148.5 -58q90 0 140.5 59t50.5 141q0 83 -49.5 141t-141.5 58q-60 0 -106.5 -29.5t-70.5 -75.5t-24 -96z" />
<glyph unicode="&#x202f;" horiz-adv-x="500" />
<glyph unicode="&#x205f;" horiz-adv-x="625" />
<glyph unicode="&#x25fc;" horiz-adv-x="965" d="M0 0v965h965v-965h-965z" />
</font>
</defs>
</svg>
